<svg xmlns="http://www.w3.org/2000/svg" viewBox="0 0 492 492" style="enable-background:new 0 0 492 492" xml:space="preserve"><path style="fill-rule:evenodd;clip-rule:evenodd;fill:#212121" d="M224.204 233.493c-16.872 0-28.8-11.064-40.344-21.744-10.152-9.432-20.664-19.152-35.16-22.704a5.733 5.733 0 0 1-4.224-6.96 5.733 5.733 0 0 1 6.96-4.224c17.4 4.248 29.544 15.504 40.272 25.44 10.8 10.032 20.16 18.672 32.52 18.672h.024c5.256 0 11.472-2.616 18.696-5.64 11.112-4.656 24.912-10.44 41.544-8.76 6.84.696 15.288-.264 18.504-5.064 1.92-2.856.984-5.928-.12-7.992-2.136-4.008-6.792-7.704-13.104-10.416-8.016-3.456-18.576-5.28-30.6-5.28h-.24c-3.168 0-5.76-2.568-5.76-5.76s2.568-5.76 5.76-5.76h.264c13.752 0 25.584 2.088 35.16 6.216 8.808 3.792 15.288 9.168 18.696 15.576 3.624 6.768 3.456 13.992-.48 19.848-5.208 7.776-15.864 11.448-29.232 10.104-13.704-1.392-25.512 3.552-35.928 7.92-8.016 3.36-15.576 6.528-23.136 6.528h-.072z"/><path style="fill-rule:evenodd;clip-rule:evenodd;fill:#212121" d="M389.828 216.189c-4.2 0-9.408-.84-15.864-3.024-.936-.312-2.664-1.056-6.792-2.856-17.016-7.44-68.832-30.072-97.296-30.984-3.168-.096-5.664-2.76-5.568-5.952.096-3.168 2.76-5.664 5.952-5.568 30.672.984 82.152 23.472 101.52 31.944 2.712 1.176 5.28 2.304 5.856 2.52 10.872 3.672 16.152 2.376 17.592 1.056 1.416-1.32.72-4.68.36-6.048-1.32-4.92-12.312-16.368-38.976-32.52-20.16-12.216-42.552-22.824-53.256-25.2-.96-.216-1.944-.432-2.952-.672-14.976-3.408-33.624-7.656-60.096-1.584-8.16 1.872-15.408 1.656-22.8-.696-8.28-2.64-16.848-7.896-26.976-16.584-2.424-2.064-2.688-5.712-.624-8.112 2.064-2.424 5.712-2.688 8.112-.624 18.288 15.696 28.752 17.304 39.672 14.784 29.04-6.672 49.104-2.112 65.232 1.56.984.216 1.968.456 2.904.672 11.928 2.688 35.256 13.608 56.688 26.592 11.256 6.816 21.048 13.632 28.32 19.704 9.168 7.656 14.328 14.112 15.84 19.704.912 3.432 1.128 6.6.624 9.408-.552 3.144-2.016 5.928-4.224 7.992-2.448 2.352-6.552 4.488-13.248 4.488z"/><g><path style="fill-rule:evenodd;clip-rule:evenodd;fill:#212121" d="M139.94 204.741a5.85 5.85 0 0 1-3.144-.936l-49.224-32.016c-1.272-.84-2.184-2.136-2.496-3.624a5.796 5.796 0 0 1 .816-4.344l64.272-98.784c.84-1.272 2.136-2.184 3.624-2.496a5.796 5.796 0 0 1 4.344.816l49.224 32.016c2.664 1.728 3.432 5.304 1.68 7.968l-64.273 98.784a5.73 5.73 0 0 1-4.823 2.616zm-41.256-39.48 39.552 25.752 57.984-89.112-39.528-25.751-58.008 89.111z"/></g><g><path style="fill-rule:evenodd;clip-rule:evenodd;fill:#212121" d="M268.868 431.061c-6.984 0-13.848-2.256-19.728-6.648-9.504-7.128-14.328-18.384-12.912-30.144.72-5.976 2.664-11.76 5.784-17.16l14.4-24.912c6.792-11.76 18.96-18.768 32.52-18.768 13.584 0 25.728 7.032 32.52 18.768l14.4 24.912c3.12 5.4 5.064 11.16 5.784 17.16 1.416 11.76-3.408 23.016-12.912 30.144-9.552 7.152-21.816 8.64-32.784 3.936a17.831 17.831 0 0 0-14.04 0 32.704 32.704 0 0 1-13.032 2.712zm20.088-15.648c3.936 0 7.896.792 11.568 2.352 7.128 3.048 15.12 2.088 21.336-2.568 6.168-4.608 9.288-11.928 8.376-19.536-.528-4.44-1.992-8.736-4.32-12.768l-14.4-24.912c-4.704-8.16-13.128-13.008-22.56-13.008-9.408 0-17.832 4.872-22.56 13.008l-14.4 24.912c-2.328 4.056-3.792 8.352-4.32 12.768-.912 7.608 2.208 14.928 8.376 19.536 6.216 4.656 14.208 5.616 21.336 2.568a29.67 29.67 0 0 1 11.568-2.352zM221.732 362.229c-4.368 0-8.904-1.536-13.008-4.464-5.52-3.936-9.96-10.104-12.504-17.328-2.544-7.224-2.952-14.808-1.152-21.336 1.992-7.176 6.576-12.504 12.6-14.616 6.024-2.136 12.936-.864 18.984 3.456 5.52 3.936 9.96 10.104 12.504 17.328 2.544 7.224 2.952 14.808 1.152 21.336-1.992 7.176-6.576 12.504-12.6 14.616a18.064 18.064 0 0 1-5.976 1.008zm-8.04-47.28c-.72 0-1.464.12-2.184.36-3.312 1.176-4.776 4.776-5.352 6.84-1.176 4.224-.84 9.48.912 14.424 1.752 4.944 4.8 9.264 8.352 11.808 1.728 1.248 5.136 3.144 8.448 1.968 3.312-1.176 4.776-4.776 5.352-6.84 1.176-4.224.84-9.48-.912-14.424s-4.8-9.264-8.352-11.808c-1.344-.96-3.72-2.328-6.264-2.328zM264.332 322.533c-4.368 0-8.904-1.536-13.008-4.464-5.52-3.936-9.96-10.104-12.504-17.328-2.544-7.224-2.952-14.808-1.152-21.336 1.992-7.176 6.576-12.504 12.6-14.616 6.024-2.136 12.936-.864 18.984 3.456 5.52 3.936 9.96 10.104 12.504 17.328 2.544 7.224 2.952 14.808 1.152 21.336-1.992 7.176-6.576 12.504-12.6 14.616a18.064 18.064 0 0 1-5.976 1.008zm-8.064-47.28c-.72 0-1.464.12-2.184.36-3.312 1.176-4.776 4.776-5.352 6.84-1.176 4.224-.84 9.48.912 14.424 1.752 4.944 4.8 9.264 8.352 11.808 1.728 1.248 5.136 3.144 8.448 1.968 3.312-1.176 4.776-4.776 5.352-6.84 1.176-4.224.84-9.48-.912-14.424-1.752-4.944-4.8-9.264-8.352-11.808-1.344-.96-3.696-2.328-6.264-2.328z"/><g><path style="fill-rule:evenodd;clip-rule:evenodd;fill:#212121" d="M356.18 362.229c-2.04 0-4.056-.336-5.976-1.008-6.024-2.136-10.608-7.464-12.6-14.616-1.824-6.528-1.416-14.112 1.152-21.336 2.544-7.224 7.008-13.392 12.504-17.328 6.048-4.32 12.96-5.592 18.984-3.456 6.024 2.136 10.608 7.464 12.6 14.616 1.824 6.528 1.416 14.112-1.152 21.336-2.544 7.224-7.008 13.392-12.504 17.328-4.128 2.928-8.64 4.464-13.008 4.464zm-6.576-33.144c-1.752 4.944-2.088 10.224-.912 14.424.576 2.04 2.016 5.664 5.352 6.84 3.312 1.176 6.72-.72 8.448-1.968 3.552-2.544 6.6-6.84 8.352-11.808 1.752-4.944 2.088-10.224.912-14.424-.576-2.04-2.016-5.664-5.352-6.84-3.312-1.176-6.72.72-8.448 1.968-3.552 2.544-6.6 6.864-8.352 11.808zM313.58 322.533c-2.04 0-4.056-.336-5.976-1.008-6.024-2.136-10.608-7.464-12.6-14.616-1.824-6.528-1.416-14.112 1.152-21.336 2.544-7.224 7.008-13.392 12.504-17.328 6.048-4.32 12.96-5.592 18.984-3.456s10.608 7.464 12.6 14.616c1.824 6.528 1.416 14.112-1.152 21.336-2.544 7.224-7.008 13.392-12.504 17.328-4.104 2.928-8.64 4.464-13.008 4.464zm-6.552-33.144c-1.752 4.944-2.088 10.224-.912 14.424.576 2.04 2.016 5.664 5.352 6.84 3.312 1.176 6.72-.72 8.448-1.968 3.552-2.544 6.6-6.84 8.352-11.808 1.752-4.944 2.088-10.224.912-14.424-.576-2.04-2.016-5.664-5.352-6.84-3.312-1.176-6.72.72-8.448 1.968-3.576 2.544-6.6 6.84-8.352 11.808z"/></g></g></svg>