<svg xmlns="http://www.w3.org/2000/svg" viewBox="0 0 512 512"><defs><style>.cls-2{fill:#977e62}.cls-3{fill:#a68969}.cls-4{fill:#88715a}.cls-5{fill:#b79872}.cls-6{fill:#fff}.cls-7{fill:#3b4d85}.cls-8{fill:#d5d6d7}.cls-11{fill:#ecc9a1}</style></defs><circle cx="256" cy="262" r="250" style="fill:#dc7da7" id="BULINE"/><g id="Icons"><path class="cls-2" d="M134.67 195a16.67 16.67 0 0 1 16.67 16.67v113.18H118V211.63A16.67 16.67 0 0 1 134.67 195z"/><path class="cls-3" d="M101.33 175.94A16.67 16.67 0 0 1 118 192.61v113.22H84.67V192.61a16.67 16.67 0 0 1 16.66-16.67z"/><path class="cls-4" d="M168 218a16.67 16.67 0 0 1 16.67 16.67v113.2h-33.34V234.65A16.67 16.67 0 0 1 168 218z"/><path class="cls-5" d="M229 382.5v99h-92.77c-1.08-.59-2.16-1.19-3.23-1.8v-44.22l-7.28-5.76A207.25 207.25 0 0 1 47 267.14v-72.36a18.84 18.84 0 1 1 37.67 0v30.66A92.65 92.65 0 0 0 118 296.57a94.22 94.22 0 0 0 33.33 17.95l2.12.61.93.26a194.46 194.46 0 0 1 30.29 11 119.2 119.2 0 0 1 16.6 9.41c14.88 10.18 25.62 23.62 27.43 41.33 0 .26.06.53.08.79.05.55.1 1.09.13 1.65.09.98.09 1.95.09 2.93z"/><path class="cls-2" d="M352.67 195H386v113.18a16.67 16.67 0 0 1-16.67 16.67 16.67 16.67 0 0 1-16.67-16.67V195h.01z" transform="rotate(-180 369.34 259.905)"/><path class="cls-3" d="M386 175.94h33.33v113.23a16.67 16.67 0 0 1-16.67 16.67A16.67 16.67 0 0 1 386 289.17V175.94z" transform="rotate(-180 402.675 240.89)"/><path class="cls-4" d="M319.34 218h33.33v113.2A16.67 16.67 0 0 1 336 347.87a16.67 16.67 0 0 1-16.67-16.67V218z" transform="rotate(-180 336.01 282.925)"/><path class="cls-5" d="M275.1 379.59c0-.56.08-1.1.13-1.65 0-.26 0-.53.07-.79 3.48-34 39.9-52.27 75.26-62a93.2 93.2 0 0 0 68.78-89.69v-30.68a18.84 18.84 0 0 1 18.83-18.84A18.84 18.84 0 0 1 457 194.78v72.36a207.22 207.22 0 0 1-12.82 71.76 207.27 207.27 0 0 1-65.9 90.82l-7.28 5.76v46h-96v-99c0-.96.05-1.93.1-2.89z"/><path class="cls-6" d="M125 443.48h110.5v27.02H125z"/><path class="cls-7" d="M246.75 470.5v41.33a248.58 248.58 0 0 1-110.52-30.33c-1.08-.59-2.16-1.19-3.23-1.8q-7.68-4.33-15-9.2z"/><path class="cls-6" d="M267.09 443.48h110.5v27.02h-110.5z"/><path class="cls-7" d="M388.84 470.5v3.33A248.89 248.89 0 0 1 256 512h-.16v-41.5z"/><path class="cls-8" d="M323.26 261.66a110.58 110.58 0 0 0 15.95.11l-55.67-72.4zM434.52 91.78c-36.16 18.34-116.08 52.44-184.63 36.35l15.4 28c67.78 1.81 137.42-41.54 169.23-64.35z"/><path class="cls-6" d="m257.7 155.76 25.84 33.61-18.25-33.22c-2.53-.07-5.06-.15-7.59-.39zM456.27 93.53a10.26 10.26 0 0 0-16.1-5.87c-1.72 1.28-3.61 2.66-5.65 4.12 2.19-1.11 4.23-2.16 6.09-3.14a10.26 10.26 0 0 1 15 8.25c11 143-78.91 162.81-116.42 164.88l11.36 14.78s146.85-7.08 105.72-183.02z"/><path class="cls-8" d="M455.63 96.89a10.26 10.26 0 0 0-15-8.25c-1.86 1-3.9 2-6.09 3.14-31.81 22.81-101.45 66.16-169.23 64.37l18.25 33.22 55.67 72.4c37.49-2.07 127.38-21.85 116.4-164.88z"/><path d="m295.64 161.94 28.24-21.86c-77.39-14-144.13-84.5-173-119.38 22.43 37.53 74.51 112.92 144.76 141.24z" style="fill:#c9c9c9"/><path class="cls-8" d="m189.3 244.26 72.86-56.4-89.25 49.42a122.65 122.65 0 0 0 16.39 6.98zM127 16.55a11.46 11.46 0 0 1 19-1.78c1.47 1.83 3.08 3.82 4.83 5.93-1.44-2.4-2.76-4.66-4-6.73a11.46 11.46 0 0 0-19.11-1.15c-120.4 162 26.9 234.55 26.9 234.55l18.21-10.09C135.4 218.47 52.09 158.22 127 16.55z"/><path class="cls-6" d="m295.64 161.94-33.48 25.92 41.42-22.94q-4-1.39-7.94-2.98z"/><path class="cls-6" d="M150.86 20.7c-1.75-2.11-3.36-4.1-4.83-5.93A11.46 11.46 0 0 0 127 16.55c-74.88 141.67 8.43 201.92 45.94 220.73l89.25-49.42 33.48-25.92C225.39 133.62 173.31 58.23 150.86 20.7z"/><path class="cls-8" d="M372.72 199.31c-11.26 96.13-58.84 147.05-149.58 144.25-48.89-16.33-76.44-45.76-85.34-86.63a47.66 47.66 0 0 1 1-24.34 48.61 48.61 0 0 1 40.2-33.72c53.25-7 101.79-33.5 145.79-78.82l44.44 73.42z"/><path class="cls-6" d="M369.19 193.47c-15.87 81.32-62.79 124-146 121.4-47.19-15.74-74.49-43.67-84.36-82.28A48.61 48.61 0 0 1 179 198.87c53.25-7 101.79-33.5 145.79-78.82z"/><ellipse class="cls-6" cx="356.72" cy="157.66" rx="64.05" ry="58.14" transform="rotate(-4.67 356.403 157.501)"/><path class="cls-8" d="m414.33 150.53 23.92 19a3.51 3.51 0 0 1-1.54 6.2l-37.91 7s-11.8-31.25 15.53-32.2z"/><circle cx="356.72" cy="139.27" r="10.6" style="fill:#33407a"/><path class="cls-5" d="M177 255.6a23 23 0 0 1 23 23V352h-46v-73.36a23 23 0 0 1 23-23.04z" transform="rotate(-2.16 177.076 303.947)"/><path class="cls-11" d="M166.22 270.09h21.16a3.58 3.58 0 0 1 3.58 3.58v8.64a9.83 9.83 0 0 1-9.83 9.83h-8.64a9.83 9.83 0 0 1-9.83-9.83v-8.64a3.58 3.58 0 0 1 3.58-3.58z" transform="rotate(-2.16 176.976 281.127)"/><path class="cls-5" d="M304 255.6h46V329a23 23 0 0 1-23 23 23 23 0 0 1-23-23v-73.4z" transform="rotate(-177.84 327.002 303.81)"/><path class="cls-11" d="M322.89 270.09h8.64a9.83 9.83 0 0 1 9.83 9.83v8.64a3.58 3.58 0 0 1-3.58 3.58h-21.15a3.58 3.58 0 0 1-3.58-3.58v-8.64a9.83 9.83 0 0 1 9.84-9.83z" transform="rotate(-177.84 327.209 281.124)"/></g></svg>