<svg xmlns="http://www.w3.org/2000/svg" viewBox="0 0 300 300" xml:space="preserve"><path fill="#E5E5E4" d="M160.964 182.893v-22.877a47.954 47.954 0 0 1-9.468.948h-2.992c-3.242 0-6.406-.332-9.468-.948v22.877h-5.482L150 204.822l16.447-21.929h-5.483z"/><path fill="#EFEFEF" d="M144.518 182.893H150v-21.929h-1.496c-3.242 0-6.406-.332-9.468-.948v22.877h-5.482L150 204.822l5.482-7.308-10.964-14.621z"/><path fill="#7FD3B9" d="M174.501 182.893h-8.055L150 204.822l-16.447-21.929h-8.055c-31.885 0-57.732 25.848-57.732 57.735v40.945h164.467v-40.945c.001-31.887-25.847-57.735-57.732-57.735z"/><path fill="#BBEAD9" d="m133.66 183.033-.107-.139h-8.055c-31.885 0-57.732 25.848-57.732 57.735v40.945h10.965v-40.945c0-30.94 24.354-56.124 54.929-57.596z"/><path fill="#E5E5E4" d="M100.66 113.123c0 26.421 21.42 47.841 47.844 47.841h2.992c26.424 0 47.844-21.42 47.844-47.841V78.731h-98.68v34.392z"/><path fill="#EFEFEF" d="M111.624 113.123V78.731H100.66v34.392c0 26.421 21.42 47.841 47.844 47.841h2.992c1.347 0 2.669-.091 3.986-.203-24.552-2.029-43.858-22.56-43.858-47.638z"/><path fill="#7FD3B9" d="M151.646 18.426h-3.293c-29.066 0-53.176 23.562-53.176 52.627v7.677h109.645v-7.677c0-29.065-24.11-52.627-53.176-52.627z"/><path fill="#BBEAD9" d="M155.482 18.619c-1.271-.091-2.543-.193-3.836-.193h-3.293c-29.066 0-53.176 23.562-53.176 52.627v7.677h10.965v-7.677c0-27.769 22.025-50.464 49.34-52.434z"/><path fill="#E5E5E4" d="M197.97 248.68c-1.044-6.526-5.515-10.964-12.335-10.964s-11.291 4.438-12.335 10.964c-5.488 0-8.223 4.363-8.223 8.454 0 4.406 3.581 7.993 7.999 7.993h25.12c4.417 0 7.999-3.587 7.999-7.993-.002-4.09-2.738-8.454-8.225-8.454z"/><path fill="#EFEFEF" d="M170.558 257.134c0-4.09 2.736-8.454 8.223-8.454.897-5.6 4.331-9.642 9.594-10.68a14.014 14.014 0 0 0-2.741-.284c-6.82 0-11.291 4.438-12.335 10.964-5.488 0-8.223 4.363-8.223 8.454 0 4.406 3.581 7.993 7.999 7.993h5.482c-4.417 0-7.999-3.587-7.999-7.993z"/><path fill="#E5E5E4" d="M210.305 234.975c0 4.54-2.452 8.223-5.482 8.223-3.03 0-5.482-3.684-5.482-8.223 0-4.54 2.452-8.223 5.482-8.223 3.029-.001 5.482 3.683 5.482 8.223zM171.929 234.975c0 4.54-2.452 8.223-5.482 8.223-3.03 0-5.482-3.684-5.482-8.223 0-4.54 2.452-8.223 5.482-8.223 3.03-.001 5.482 3.683 5.482 8.223zM182.893 224.01c0 4.54-2.452 8.223-5.482 8.223-3.03 0-5.482-3.684-5.482-8.223 0-4.54 2.452-8.223 5.482-8.223 3.03 0 5.482 3.684 5.482 8.223zM199.34 224.01c0 4.54-2.452 8.223-5.482 8.223-3.03 0-5.482-3.684-5.482-8.223 0-4.54 2.452-8.223 5.482-8.223 3.03 0 5.482 3.684 5.482 8.223z"/><path fill="#FE6F80" d="M166.447 45.837h-10.965V34.873h-10.964v10.964h-10.965v10.965h10.965v10.964h10.964V56.802h10.965z"/><path fill="#E5E5E4" d="M199.34 78.731v32.894c8.074 0 16.447-6.548 16.447-14.621v-3.651c0-8.075-8.373-14.622-16.447-14.622zM100.66 78.731v32.894c-8.074 0-16.447-6.548-16.447-14.621v-3.651c0-8.075 8.373-14.622 16.447-14.622z"/><path fill="#EFEFEF" d="M89.695 97.003v-3.651c0-6.226 4.987-11.505 10.965-13.615V78.73c-8.074 0-16.447 6.547-16.447 14.621v3.651c0 8.074 8.373 14.621 16.447 14.621v-1.007c-5.977-2.108-10.965-7.386-10.965-13.613z"/><path fill="#FFA1AA" d="M144.518 34.873v10.964h-10.965v10.965h10.965v10.964H150V34.873z"/><path fill="#EFEFEF" d="M204.822 234.975c0-3.035 1.108-5.659 2.741-7.083-.809-.707-1.737-1.14-2.741-1.14-3.03 0-5.482 3.684-5.482 8.223 0 4.54 2.452 8.223 5.482 8.223 1.004 0 1.932-.434 2.741-1.14-1.633-1.424-2.741-4.048-2.741-7.083zM166.447 234.975c0-3.035 1.108-5.659 2.741-7.083-.809-.707-1.737-1.14-2.741-1.14-3.03 0-5.482 3.684-5.482 8.223 0 4.54 2.452 8.223 5.482 8.223 1.004 0 1.932-.434 2.741-1.14-1.633-1.424-2.741-4.048-2.741-7.083zM193.858 224.01c0-3.036 1.108-5.659 2.741-7.083-.809-.707-1.737-1.14-2.741-1.14-3.03 0-5.482 3.684-5.482 8.223 0 4.54 2.452 8.223 5.482 8.223 1.004 0 1.932-.434 2.741-1.14-1.633-1.424-2.741-4.047-2.741-7.083zM177.411 224.01c0-3.036 1.108-5.659 2.741-7.083-.809-.707-1.737-1.14-2.741-1.14-3.03 0-5.482 3.684-5.482 8.223 0 4.54 2.452 8.223 5.482 8.223 1.004 0 1.933-.434 2.741-1.14-1.633-1.424-2.741-4.047-2.741-7.083z"/><g><path fill="#161616" d="M151.496 166.447h-2.993c-29.403 0-53.326-23.921-53.326-53.323V78.731a5.48 5.48 0 0 1 5.482-5.482h98.68a5.48 5.48 0 0 1 5.482 5.482v34.393c.001 29.402-23.922 53.323-53.325 53.323zm-45.354-82.234v28.91c0 23.358 19.003 42.359 42.362 42.359h2.993c23.358 0 42.362-19.001 42.362-42.359v-28.91h-87.717z"/><path fill="#161616" d="M150 210.305a5.476 5.476 0 0 1-4.385-2.195l-16.447-21.929a5.481 5.481 0 0 1 4.385-8.769v-17.394a5.483 5.483 0 0 1 6.564-5.375c2.77.557 5.595.841 8.387.841h2.993c2.792 0 5.616-.284 8.387-.841a5.488 5.488 0 0 1 4.556 1.135 5.477 5.477 0 0 1 2.008 4.24v17.394a5.483 5.483 0 0 1 4.904 3.03 5.475 5.475 0 0 1-.519 5.739l-16.447 21.929a5.48 5.48 0 0 1-4.386 2.195zm-6.863-23.771 6.863 9.15 6.863-9.15a5.469 5.469 0 0 1-1.381-3.641v-16.597c-1.33.102-2.661.15-3.986.15h-2.993c-1.325 0-2.655-.048-3.986-.15v16.597a5.463 5.463 0 0 1-1.38 3.641zM197.97 248.68c-1.044-6.526-5.515-10.964-12.335-10.964s-11.291 4.438-12.335 10.964c-5.488 0-8.223 4.363-8.223 8.454 0 4.406 3.581 7.993 7.999 7.993h25.12c4.417 0 7.999-3.587 7.999-7.993-.002-4.09-2.738-8.454-8.225-8.454zM210.305 234.975c0 4.54-2.452 8.223-5.482 8.223-3.03 0-5.482-3.684-5.482-8.223 0-4.54 2.452-8.223 5.482-8.223 3.029-.001 5.482 3.683 5.482 8.223zM171.929 234.975c0 4.54-2.452 8.223-5.482 8.223-3.03 0-5.482-3.684-5.482-8.223 0-4.54 2.452-8.223 5.482-8.223 3.03-.001 5.482 3.683 5.482 8.223zM182.893 224.01c0 4.54-2.452 8.223-5.482 8.223-3.03 0-5.482-3.684-5.482-8.223 0-4.54 2.452-8.223 5.482-8.223 3.03 0 5.482 3.684 5.482 8.223zM199.34 224.01c0 4.54-2.452 8.223-5.482 8.223-3.03 0-5.482-3.684-5.482-8.223 0-4.54 2.452-8.223 5.482-8.223 3.03 0 5.482 3.684 5.482 8.223zM166.447 45.837h-10.965V34.873h-10.964v10.964h-10.965v10.965h10.965v10.964h10.964V56.802h10.965z"/><path fill="#161616" d="M232.234 287.056H106.142a5.48 5.48 0 0 1-5.482-5.482 5.48 5.48 0 0 1 5.482-5.482h120.609v-35.463c0-28.814-23.439-52.253-52.25-52.253h-5.314l-14.803 19.734c-2.066 2.762-6.703 2.762-8.769 0l-14.803-19.734h-5.314c-28.811 0-52.25 23.439-52.25 52.253v35.463h10.965a5.48 5.48 0 0 1 5.482 5.482 5.48 5.48 0 0 1-5.482 5.482H67.766a5.48 5.48 0 0 1-5.482-5.482v-40.946c0-34.858 28.359-63.217 63.214-63.217h8.055c1.727 0 3.351.814 4.385 2.195L150 195.684l12.062-16.077a5.476 5.476 0 0 1 4.385-2.195h8.055c34.856 0 63.215 28.359 63.215 63.217v40.946a5.482 5.482 0 0 1-5.483 5.481zM204.822 84.213H95.177a5.48 5.48 0 0 1-5.482-5.482v-7.677c0-32.042 26.314-58.11 58.658-58.11h3.293c11.353 0 22.424 3.298 32.015 9.53a5.483 5.483 0 0 1 1.609 7.586 5.48 5.48 0 0 1-7.584 1.612c-7.811-5.081-16.816-7.763-26.041-7.763h-3.293c-26.298 0-47.694 21.147-47.694 47.145v2.195h98.68v-2.195c0-9.026-2.663-17.849-7.699-25.505a5.486 5.486 0 0 1 1.569-7.597 5.481 5.481 0 0 1 7.592 1.569c6.216 9.455 9.503 20.36 9.503 31.534v7.677a5.478 5.478 0 0 1-5.481 5.481z"/><path fill="#161616" d="M199.34 117.106a5.48 5.48 0 0 1-5.482-5.482V78.731a5.48 5.48 0 0 1 5.482-5.482c10.373 0 21.929 8.256 21.929 20.103v3.651c0 11.848-11.556 20.103-21.929 20.103zm5.482-31.453v19.049c3.159-1.702 5.482-4.679 5.482-7.699v-3.651c.001-3.02-2.323-5.996-5.482-7.699zM100.66 117.106c-10.373 0-21.929-8.256-21.929-20.103v-3.651c0-11.848 11.556-20.103 21.929-20.103a5.48 5.48 0 0 1 5.482 5.482v32.894a5.48 5.48 0 0 1-5.482 5.481zm-5.483-31.453c-3.159 1.702-5.482 4.679-5.482 7.699v3.651c0 3.02 2.324 5.996 5.482 7.699V85.653z"/></g></svg>