<svg xmlns="http://www.w3.org/2000/svg" viewBox="0 0 80 80" xml:space="preserve"><path fill="#E49A61" d="M34.548 33.12a.16.16 0 0 0-.151.151.16.16 0 0 0 .151.168l16.189.828c3.264.168 6.488 5.725 6.488 5.725s-.711-7.162-6.488-7.645l-3.861-.197a7.436 7.436 0 0 1-2.175.45l-10.153.52zM29.671 48.631a.16.16 0 0 0 .152.168l26.679 1.365c3.328.171 6.004 3.471 6.469 6.506.016-4.31-2.457-8.221-6.469-8.426l-11.04-.564-15.639.8a.16.16 0 0 0-.152.151zM19.177 58.349l36.527-1.869a.16.16 0 0 0 0-.319l-15.639-.801-20.889 1.069c-2.164.19-2.127 3.786-2.127 3.786s1.282-1.822 2.128-1.866zM36.351 25.599c6.374-.083 7.535-4.856 7.535-7.679 3.912 0 7.612 6.711 7.612 6.711s-.624-8.422-8.572-8.631c0 2.822-.202 7.543-6.575 7.679-7.136.151-7.781 8.633-7.781 8.633s3.882-6.663 7.781-6.713zM28.057 42.231l21.73-1.112a.16.16 0 0 0 0-.319l-14.619-.748a7.402 7.402 0 0 1-.684-.069l-6.427.329c-5.052.348-6.188 7.349-6.188 7.349s3.083-5.27 6.188-5.43z"/><path fill="#F1BB6B" d="M62.899 55.893c-.465-3.035-3.068-5.558-6.396-5.729l-26.679-1.365a.16.16 0 0 1 0-.318l15.639-.801 5.542-.283c3.427-.176 6.266-2.928 6.3-6.359l.001-.078-.001-.082a6.274 6.274 0 0 0-.078-.885c-.472-3.146-3.225-5.557-6.488-5.725L34.55 33.44a.16.16 0 0 1-.151-.168.16.16 0 0 1 .151-.151l10.153-.519a7.443 7.443 0 0 0 2.175-.45c2.518-.922 4.436-3.152 4.663-5.912.018-.211.026-.424.026-.639 0-.328-.027-.65-.067-.969-.478-3.783-3.7-6.711-7.612-6.711 0 2.822-1.161 7.596-7.535 7.679-3.899.051-7.289 2.917-7.781 6.713a7.378 7.378 0 0 0-.061.652c-.01.237-.009.473.003.705.164 3.265 2.778 5.842 5.972 6.313.226.033.453.058.684.069l14.616.748a.16.16 0 0 1 0 .319l-21.73 1.112c-3.104.159-5.717 2.444-6.188 5.429-.047.295-.08.595-.083.902v.077a6.117 6.117 0 0 0 5.804 6.081l12.477.639 15.639.801a.16.16 0 0 1 .151.168.16.16 0 0 1-.151.151l-36.527 1.869a2.306 2.306 0 0 0-1.927 1.248 2.03 2.03 0 0 0-.176 1.366c.032.147.074.293.126.441C17.754 63.004 19.36 64 21.053 64H55.389c3.23 0 6.215-1.98 7.24-5.043l.05-.154c.31-.984.363-1.971.22-2.91z"/><g fill="#F1BB6B"><path d="M25.092 20.236c0-.675.263-1.309.74-1.786a.75.75 0 0 0-1.06-1.061 3.998 3.998 0 0 0-1.18 2.847 4 4 0 0 0 1.18 2.846 2.53 2.53 0 0 1 0 3.57.751.751 0 0 0 .53 1.282.745.745 0 0 0 .53-.221 4.03 4.03 0 0 0 0-5.691 2.514 2.514 0 0 1-.74-1.786zM18.695 32.623c0-.675.263-1.309.74-1.786a.75.75 0 1 0-1.061-1.061 3.998 3.998 0 0 0-1.18 2.847 4 4 0 0 0 1.18 2.846 2.528 2.528 0 0 1 0 3.57.75.75 0 0 0 1.06 1.061 4.029 4.029 0 0 0 0-5.691 2.513 2.513 0 0 1-.739-1.786zM60.719 29.527a2.504 2.504 0 0 1-.74-1.785c0-.674.263-1.309.74-1.785a.75.75 0 1 0-1.061-1.061 3.996 3.996 0 0 0-1.18 2.846c0 1.074.419 2.086 1.18 2.846a2.528 2.528 0 0 1 0 3.57.75.75 0 0 0 1.06 1.061 4.03 4.03 0 0 0 .001-5.692z"/></g></svg>