<svg version="1.1" id="Layer_1" xmlns="http://www.w3.org/2000/svg" x="0" y="0" viewBox="0 0 500 500" style="enable-background:new 0 0 500 500" xml:space="preserve"><style>.st1{fill:#aab1ba}.st2{fill:#fddf7f}.st3{fill:#ecf4f7}</style><path class="st3" d="M147.076 181.423c0-.229.007-.456.009-.686a54.316 54.316 0 0 0-12.634-1.488c-27.146 0-50.118 20.053-53.786 46.949l-8.105 59.439c-2.618 19.195 10.71 36.476 29.165 39.46 1.538-32.162 28.042-57.766 60.516-57.766h31.554c-28.11-18.199-46.719-49.875-46.719-85.908zM427.442 285.638l-8.105-59.439c-3.668-26.896-26.64-46.949-53.786-46.949-5.005 0-9.866.687-14.493 1.967l.003.207c0 36.042-18.626 67.711-46.748 85.909h31.583c32.559 0 59.11 25.737 60.523 58.017 19.409-2.087 33.727-19.878 31.023-39.712zM412.356 111.659l-8.126-59.591C400.553 25.104 377.523 5 350.308 5c-27.214 0-50.245 20.104-53.922 47.068l-4.958 36.355c26.369 12.082 46.704 35.094 55.239 63.254h30.756c21.365.001 37.82-18.85 34.933-40.018zM85.78 111.659l8.126-59.591C97.583 25.104 120.614 5 147.828 5s50.245 20.104 53.922 47.068l4.958 36.355c-26.369 12.082-46.704 35.094-55.239 63.254h-30.756c-21.365.001-37.82-18.85-34.933-40.018z"/><path class="st1" d="m334.411 83.382 15.897 17.691 15.897-17.691c3.348-3.725.704-9.656-4.305-9.656h-23.185c-5.008 0-7.651 5.931-4.304 9.656zM150.307 257.433l-15.857 17.646-15.857-17.646c-3.339-3.716-.702-9.631 4.294-9.631h23.126c4.996-.001 7.633 5.915 4.294 9.631zM349.694 257.433l15.857 17.646 15.857-17.646c3.339-3.716.702-9.631-4.294-9.631h-23.126c-4.996-.001-7.633 5.915-4.294 9.631zM163.725 83.382l-15.897 17.691-15.897-17.691c-3.348-3.725-.704-9.656 4.305-9.656h23.185c5.008 0 7.652 5.931 4.304 9.656zM440.501 73.05l-6.408-31.26c-2.879-14.047-15.241-24.132-29.58-24.132h-19.332c10.105 8.441 17.154 20.508 19.049 34.411l5.529 40.547h14.78c10.314-.001 18.033-9.462 15.962-19.566zM44.486 247.127l6.391-31.181c2.872-14.012 15.202-24.071 29.505-24.071h19.283c-10.08 8.42-17.11 20.457-19.001 34.324l-5.515 40.444H60.408c-10.288 0-17.988-9.438-15.922-19.516zM455.515 247.127l-6.391-31.181c-2.872-14.012-15.202-24.071-29.505-24.071h-19.283c10.08 8.42 17.11 20.457 19.001 34.324l5.515 40.444h14.742c10.287 0 17.987-9.438 15.921-19.516zM291.428 88.424l4.958-36.355c1.896-13.902 8.944-25.97 19.049-34.411h-19.332c-14.339 0-26.701 10.085-29.58 24.133l-6.407 31.261a16.227 16.227 0 0 0 .044 6.768 101.104 101.104 0 0 1 31.268 8.604zM57.635 73.05l6.407-31.26c2.879-14.047 15.241-24.132 29.58-24.132h19.332C102.849 26.099 95.8 38.166 93.905 52.069l-5.529 40.547h-14.78c-10.313-.001-18.032-9.462-15.961-19.566zM206.708 88.424l-4.958-36.355c-1.896-13.902-8.944-25.97-19.049-34.411h19.332c14.339 0 26.701 10.085 29.58 24.133l6.407 31.261a16.227 16.227 0 0 1-.044 6.768 101.112 101.112 0 0 0-31.268 8.604z"/><path d="M335.895 267.332h-31.602c-15.919 10.299-34.868 16.3-55.225 16.3s-39.306-6.001-55.225-16.3h-31.602c-33.464 0-60.591 27.186-60.591 60.721v97.677c0 11.106 9.002 20.109 20.106 20.109h4.436V495h245.752v-49.161h4.436c11.104 0 20.106-9.003 20.106-20.109v-97.677c0-33.535-27.127-60.721-60.591-60.721z" style="fill:#83e1e5"/><path class="st2" d="M339.198 350.723v44.435H158.71v-44.435h-57.06v75.007c0 11.105 9.002 20.109 20.106 20.109H376.38c11.104 0 20.106-9.004 20.106-20.109v-75.007h-57.288z"/><ellipse class="st2" cx="249.068" cy="181.423" rx="101.992" ry="102.209"/><path class="st3" d="M198.231 230.054c4.521 3.928 11.369 3.448 15.297-1.072a47.748 47.748 0 0 1 35.54-16.453 47.752 47.752 0 0 1 35.54 16.453c3.928 4.52 10.776 5 15.297 1.072 4.52-3.929 5-10.777 1.072-15.297a69.425 69.425 0 0 0-51.908-23.914 69.422 69.422 0 0 0-51.908 23.914c-3.929 4.52-3.45 11.368 1.07 15.297z"/><path d="M330.538 43.759c2.762 0 5 2.238 5 5s-2.238 5-5 5h-4.429c-2.762 0-5-2.238-5-5s2.238-5 5-5h4.429zm48.97 5a5 5 0 0 0-5-5h-4.43c-2.762 0-5 2.238-5 5s2.238 5 5 5h4.43a5 5 0 0 0 5-5zm-319.1 222.884a21.173 21.173 0 0 1-16.468-7.818 21.172 21.172 0 0 1-4.352-17.701l6.391-31.182c3.333-16.263 17.802-28.066 34.403-28.066H97.97c9.102-7.136 20.304-11.667 32.436-12.489 2.761-.175 5.14 1.895 5.327 4.65a5 5 0 0 1-4.651 5.326c-19.57 1.326-36.237 14.257-42.861 32.113l-.015.043c-.233.63-.453 1.267-.661 1.909-.036.113-.069.227-.104.34a49.36 49.36 0 0 0-.501 1.681c-.062.225-.116.452-.174.679-.122.466-.244.933-.352 1.404-.085.371-.156.745-.233 1.119-.07.341-.147.681-.21 1.024a50.312 50.312 0 0 0-.352 2.199l-5.515 40.444v.001l-2.59 18.994a30.193 30.193 0 0 0 11.007 27.603 4.998 4.998 0 0 1-3.137 8.895 4.98 4.98 0 0 1-3.131-1.104 40.193 40.193 0 0 1-14.648-36.746l1.816-13.319h-9.013zm0-10h10.378l4.926-36.12c.108-.789.236-1.572.374-2.354.037-.206.077-.411.116-.617.117-.62.243-1.237.379-1.851.037-.165.072-.331.11-.495a59.076 59.076 0 0 1 11.175-23.331h-7.482c-11.874 0-22.223 8.442-24.607 20.074l-6.391 31.182a11.207 11.207 0 0 0 2.304 9.372 11.204 11.204 0 0 0 8.718 4.14zm54.322-33.746a5 5 0 1 0 0-10h-4.418a5 5 0 1 0 0 10h4.418zm341.332 35.927a21.171 21.171 0 0 1-16.468 7.818h-9.015l1.816 13.319c1.999 14.66-4.199 29.19-16.175 37.919a4.984 4.984 0 0 1-2.941.959 5 5 0 0 1-2.949-9.041 30.173 30.173 0 0 0 12.157-28.485l-8.105-59.439a48.723 48.723 0 0 0-.357-2.228c-.042-.229-.095-.454-.14-.682-.1-.507-.2-1.014-.315-1.516-.063-.273-.137-.542-.205-.814-.112-.449-.222-.899-.346-1.345-.083-.297-.176-.589-.264-.883-.124-.414-.246-.828-.38-1.237-.103-.313-.215-.62-.323-.93-.134-.383-.267-.766-.41-1.145-.123-.326-.255-.647-.385-.971-.143-.354-.285-.708-.436-1.059-.145-.336-.297-.667-.448-.999a51.33 51.33 0 0 0-.458-.981 46.3 46.3 0 0 0-.512-1.021 46.314 46.314 0 0 0-1.049-1.938 56.946 56.946 0 0 0-.503-.862 54.89 54.89 0 0 0-.622-1.013 51.417 51.417 0 0 0-.539-.832c-.218-.33-.437-.658-.662-.981a47.711 47.711 0 0 0-.591-.826c-.225-.31-.45-.619-.682-.924-.221-.29-.45-.575-.678-.86-.221-.277-.441-.556-.667-.828-.275-.33-.56-.652-.844-.977-.19-.216-.377-.437-.571-.649a48.531 48.531 0 0 0-1.327-1.398l-.161-.168a49.8 49.8 0 0 0-3.356-3.077c-7.953-6.654-18.011-10.833-28.969-11.412a5 5 0 0 1-4.729-5.257c.146-2.757 2.507-4.868 5.257-4.729 12.52.661 24.064 5.229 33.389 12.543h17.521c16.602 0 31.07 11.804 34.404 28.066l6.391 31.182a21.184 21.184 0 0 1-4.353 17.701zm-5.446-15.693-6.391-31.182c-2.384-11.632-12.733-20.074-24.607-20.074h-7.482c.108.137.21.278.317.416.04.052.078.104.118.154a62.007 62.007 0 0 1 1.485 2.018 58.863 58.863 0 0 1 4.958 8.462l.145.298c.348.737.683 1.48 1.001 2.231l.033.081c.289.686.562 1.379.825 2.076.076.202.15.405.224.608.202.554.395 1.111.581 1.671.07.21.141.419.208.631.237.743.464 1.491.672 2.246l.037.143c.193.709.371 1.423.538 2.14.055.238.107.478.159.717.123.561.239 1.123.346 1.688.045.237.092.475.134.714.139.78.267 1.564.374 2.354l4.926 36.12h10.378c3.395 0 6.573-1.509 8.719-4.14a11.206 11.206 0 0 0 2.302-9.372zm-60.928-20.234c2.762 0 5-2.238 5-5s-2.238-5-5-5h-4.418c-2.762 0-5 2.238-5 5s2.238 5 5 5h4.418zM79.118 381.166a5 5 0 0 0-5-5h-6.535v-6.534a5 5 0 1 0-10 0v6.534h-6.534a5 5 0 1 0 0 10h6.534v6.534a5 5 0 1 0 10 0v-6.534h6.535a5 5 0 0 0 5-5zm369.834-5h-6.534v-6.534c0-2.762-2.238-5-5-5s-5 2.238-5 5v6.534h-6.535c-2.762 0-5 2.238-5 5s2.238 5 5 5h6.535v6.534c0 2.762 2.238 5 5 5s5-2.238 5-5v-6.534h6.534c2.762 0 5-2.238 5-5s-2.238-5-5-5zM249.068 74.214c35.034 0 66.19 16.96 85.718 43.117h3.6a6.93 6.93 0 0 0 6.922-6.922v-7.42l-14.616-16.266c-2.887-3.212-3.588-7.657-1.829-11.602 1.758-3.945 5.533-6.396 9.853-6.396H361.9c4.319 0 8.095 2.45 9.853 6.396 1.759 3.944 1.058 8.391-1.829 11.603l-14.615 16.265v7.42c0 3.816 3.104 6.922 6.921 6.922h7.085c2.762 0 5 2.238 5 5s-2.238 5-5 5h-7.085c-4.646 0-8.86-1.882-11.921-4.924a16.884 16.884 0 0 1-9.053 4.662c9.401 15.947 14.805 34.528 14.805 54.354 0 32.262-14.296 61.239-36.873 80.91h16.708c4.303 0 8.507.43 12.582 1.227l-2.503-2.785c-2.883-3.208-3.582-7.647-1.826-11.587 1.756-3.938 5.526-6.386 9.839-6.386h23.126c4.313 0 8.084 2.447 9.84 6.387s1.056 8.379-1.827 11.587l-11.923 13.268c17.074 11.877 28.283 31.651 28.283 54.01v97.68c0 13.654-10.959 24.79-24.542 25.092v25.834c0 2.762-2.238 5-5 5s-5-2.238-5-5v-25.819h-108.37c-2.762 0-5-2.238-5-5s2.238-5 5-5H376.38c8.33 0 15.106-6.776 15.106-15.106v-70.009h-47.288v39.434a5 5 0 0 1-5 5h-35.724a36.698 36.698 0 0 0-24.746 9.57l-31.816 28.938a46.683 46.683 0 0 1-31.475 12.173h-84.246v25.819a5 5 0 1 1-10 0v-25.834c-13.583-.304-24.542-11.439-24.542-25.095v-97.677c0-22.859 11.715-43.021 29.438-54.799l-11.214-12.479c-2.882-3.208-3.583-7.647-1.827-11.586 1.756-3.939 5.526-6.387 9.839-6.387h23.126c4.313 0 8.083 2.447 9.839 6.387 1.756 3.938 1.056 8.378-1.827 11.586l-2.144 2.386a65.654 65.654 0 0 1 10.36-.827h16.708c-22.577-19.671-36.873-48.648-36.873-80.91 0-19.825 5.405-38.406 14.805-54.354a16.891 16.891 0 0 1-9.053-4.662 16.866 16.866 0 0 1-11.921 4.924h-7.084a5 5 0 1 1 0-10h7.084c3.816 0 6.921-3.105 6.921-6.922v-7.42L128.21 86.725c-2.886-3.211-3.587-7.657-1.829-11.602 1.759-3.945 5.534-6.396 9.853-6.396h23.185c4.319 0 8.094 2.45 9.853 6.396 1.758 3.944 1.057 8.39-1.829 11.602l-14.616 16.266v7.42c0 3.816 3.105 6.922 6.921 6.922h3.601c19.53-26.159 50.685-43.119 85.719-43.119zm-101.24 19.379 12.178-13.553v-.001c.093-.104.341-.379.133-.846s-.58-.467-.719-.467h-23.185c-.14 0-.511 0-.719.467s.04.742.133.846l12.179 13.554zm202.481 0 12.178-13.553c.094-.104.341-.38.134-.847-.209-.467-.58-.467-.72-.467h-23.185c-.14 0-.511 0-.72.467-.207.467.04.742.134.846v.001l12.179 13.553zM134.45 267.598l12.138-13.507c.091-.103.335-.373.131-.831s-.568-.458-.706-.458h-23.126c-.137 0-.501 0-.706.458s.04.729.131.831l12.138 13.507zm218.962-13.507 12.139 13.507 12.138-13.507c.092-.103.335-.373.131-.831s-.568-.458-.706-.458h-23.126c-.137 0-.501 0-.706.458-.205.458.039.729.13.831zm-47.661 18.242c-.342.215-.692.414-1.036.625-.227.139-.455.274-.683.412-1.021.613-2.05 1.209-3.087 1.787-.357.199-.712.401-1.072.597a112.59 112.59 0 0 1-2.994 1.559c-.447.225-.893.452-1.343.67-.881.427-1.768.842-2.662 1.245-.345.156-.693.305-1.04.457-.705.31-1.414.611-2.127.905-.319.132-.638.265-.958.394-1.01.405-2.025.799-3.049 1.174-.087.032-.175.062-.262.093-.984.358-1.977.698-2.974 1.027l-.669.219a105.606 105.606 0 0 1-6.665 1.913c-.134.034-.269.065-.404.099-1.036.257-2.077.498-3.125.724l-.376.083c-2.27.48-4.566.887-6.885 1.221-.219.031-.438.063-.657.092-1.038.144-2.08.273-3.127.386l-.321.037c-1.126.117-2.257.215-3.393.297-.275.021-.55.035-.825.053-.858.056-1.718.101-2.581.136-.341.014-.682.028-1.023.039-1.043.032-2.09.053-3.14.055-.068 0-.136.004-.205.004s-.136-.004-.205-.004a105.594 105.594 0 0 1-4.164-.094c-.862-.035-1.722-.08-2.579-.136-.276-.018-.552-.032-.828-.053-1.135-.082-2.266-.18-3.391-.297l-.326-.038a103.37 103.37 0 0 1-3.12-.384c-.221-.03-.442-.062-.663-.094a105.333 105.333 0 0 1-6.878-1.22c-.13-.027-.259-.057-.389-.085a106.925 106.925 0 0 1-3.107-.719c-.14-.035-.28-.067-.419-.103a106.481 106.481 0 0 1-10.278-3.15c-.097-.035-.195-.068-.292-.104-1.02-.374-2.03-.766-3.035-1.169-.327-.131-.653-.267-.979-.401a104.88 104.88 0 0 1-2.099-.894c-.355-.155-.71-.308-1.063-.467-.889-.401-1.772-.814-2.648-1.239-.457-.222-.91-.452-1.365-.681a107.294 107.294 0 0 1-2.986-1.554c-.344-.187-.684-.38-1.026-.57a110.534 110.534 0 0 1-3.139-1.817c-.222-.134-.444-.266-.665-.401-.346-.211-.698-.412-1.042-.628h-30.145a55.144 55.144 0 0 0-23.181 5.095l-.891.992a4.996 4.996 0 0 1-3.719 1.658c-.125 0-.245-.029-.368-.039-16.399 9.7-27.432 27.585-27.432 48.014v17.671h47.06v-31.42a5 5 0 1 1 10 0v75.854h96.815c2.762 0 5 2.238 5 5s-2.238 5-5 5H158.71a5 5 0 0 1-5-5v-39.434h-47.06v70.006c0 8.331 6.778 15.109 15.109 15.109h93.679c9.172 0 17.96-3.399 24.746-9.571L272 402.329a46.684 46.684 0 0 1 31.475-12.172h30.724v-75.854c0-2.762 2.238-5 5-5s5 2.238 5 5v31.42h47.288v-17.671c0-30.724-24.938-55.72-55.591-55.72h-30.145zm-153.675-90.91c0 34.918 18.468 65.59 46.125 82.733.237.146.471.296.709.44a96.97 96.97 0 0 0 2.639 1.542c.517.292 1.035.583 1.557.866a84.68 84.68 0 0 0 3.231 1.668c.573.283 1.149.56 1.728.831.32.15.639.304.962.451.868.396 1.742.777 2.62 1.146.262.11.527.217.791.325.75.307 1.504.605 2.261.894.221.085.441.171.662.253.971.361 1.947.709 2.929 1.039.12.041.242.078.363.118.91.302 1.825.589 2.743.863.165.05.329.1.493.147a95.25 95.25 0 0 0 6.256 1.605l.466.103c2.104.454 4.225.839 6.36 1.152.184.027.368.052.551.077.916.13 1.834.245 2.754.349l.513.059c1.04.11 2.082.204 3.127.281.213.016.428.026.642.041a94.12 94.12 0 0 0 3.417.169c.967.031 1.936.051 2.906.053l.188.002.188-.002a93.713 93.713 0 0 0 3.829-.088 94.042 94.042 0 0 0 2.495-.134c.213-.015.427-.025.64-.041a98.492 98.492 0 0 0 3.129-.281l.508-.059c.923-.104 1.844-.22 2.761-.349.182-.025.364-.05.545-.077a96.227 96.227 0 0 0 13.089-2.861c.161-.047.321-.096.482-.145a91.84 91.84 0 0 0 2.759-.868c.116-.038.234-.075.35-.114.984-.33 1.962-.679 2.936-1.041.218-.081.435-.166.653-.249.761-.29 1.519-.59 2.273-.899.26-.106.522-.211.781-.32a98.42 98.42 0 0 0 2.626-1.149c.32-.146.637-.299.956-.448a91.998 91.998 0 0 0 1.734-.834c.389-.192.778-.384 1.164-.581a99.441 99.441 0 0 0 2.068-1.088 93.904 93.904 0 0 0 1.557-.866c.382-.217.764-.434 1.143-.655.5-.292 1-.586 1.495-.887.229-.139.455-.283.683-.425 27.67-17.141 46.148-47.819 46.148-82.747 0-53.602-43.511-97.209-96.992-97.209-53.483.001-96.993 43.608-96.993 97.21zM257.064 63.034l4.561-22.248c3.341-16.299 17.841-28.129 34.479-28.129h17.675C323.933 4.712 336.664 0 350.309 0s26.375 4.712 36.53 12.657h17.675c16.637 0 31.137 11.83 34.479 28.129l6.407 31.26a21.213 21.213 0 0 1-4.36 17.735 21.211 21.211 0 0 1-16.5 7.834h-9.052l1.823 13.368a40.245 40.245 0 0 1-9.559 31.91 40.25 40.25 0 0 1-30.328 13.784h-12.756c-2.762 0-5-2.238-5-5s2.238-5 5-5h12.756a30.253 30.253 0 0 0 29.979-34.342l-8.126-59.591C395.954 28.376 374.902 10 350.309 10s-45.646 18.376-48.968 42.744l-2.684 19.678a4.995 4.995 0 0 1-5.63 4.278 5 5 0 0 1-4.278-5.63l2.684-19.678c1.474-10.811 5.857-20.635 12.278-28.735h-7.607c-11.91 0-22.291 8.469-24.682 20.137l-4.561 22.248a5.002 5.002 0 0 1-5.903 3.894 5 5 0 0 1-3.894-5.902zm139.92-40.377a59.227 59.227 0 0 1 11.177 23.219c.03.125.055.251.084.377.155.682.297 1.366.428 2.055a60.843 60.843 0 0 1 .512 3.085l4.939 36.223h10.415c3.407 0 6.597-1.515 8.751-4.155a11.249 11.249 0 0 0 2.313-9.406l-6.407-31.26c-2.392-11.668-12.772-20.137-24.682-20.137h-7.53zM57.098 89.782a21.212 21.212 0 0 1-4.36-17.736l6.408-31.26c3.341-16.299 17.841-28.129 34.478-28.129h17.675C121.453 4.712 134.184 0 147.828 0s26.375 4.712 36.53 12.657h17.675c16.637 0 31.137 11.83 34.478 28.129l4.56 22.248a5 5 0 1 1-9.796 2.008l-4.56-22.248c-2.392-11.668-12.772-20.137-24.682-20.137h-7.608c6.421 8.101 10.804 17.925 12.278 28.735l2.684 19.678a5 5 0 0 1-4.278 5.63c-2.738.382-5.257-1.542-5.63-4.278l-2.684-19.678C193.473 28.376 172.422 10 147.828 10c-23.823 0-44.322 17.242-48.604 40.471-.139.753-.26 1.511-.364 2.273l-5.529 40.547-.001.003-2.596 19.041a30.246 30.246 0 0 0 7.185 23.983 30.25 30.25 0 0 0 22.793 10.359h12.756a5 5 0 1 1 0 10h-12.756a40.254 40.254 0 0 1-39.887-45.694l1.823-13.368h-9.052a21.211 21.211 0 0 1-16.498-7.833zm7.748-6.321a11.251 11.251 0 0 0 8.751 4.154h10.415l4.939-36.223.011-.072a58.54 58.54 0 0 1 .38-2.372c.04-.221.082-.44.124-.661.128-.674.268-1.345.419-2.012.031-.136.059-.272.091-.408a59.212 59.212 0 0 1 11.174-23.21h-7.529c-11.91 0-22.291 8.469-24.682 20.137l-6.408 31.26a11.26 11.26 0 0 0 2.315 9.407zm107.181-29.702a5 5 0 1 0 0-10h-4.429a5 5 0 1 0 0 10h4.429zm-38.969-5a5 5 0 0 0-5-5h-4.429a5 5 0 1 0 0 10h4.429a5 5 0 0 0 5-5zM440.836 490h-3.813c-2.762 0-5 2.238-5 5s2.238 5 5 5h3.813c2.762 0 5-2.238 5-5s-2.238-5-5-5zm-20.974 0H80.138a5 5 0 1 0 0 10h339.724c2.762 0 5-2.238 5-5s-2.238-5-5-5zm-356.883 0h-3.813a5 5 0 1 0 0 10h3.813a5 5 0 1 0 0-10zm158.142-333.628a12.368 12.368 0 0 1-9.751 4.726 12.365 12.365 0 0 1-9.751-4.725 5 5 0 0 0-7.842 6.203c4.283 5.416 10.696 8.521 17.594 8.521 6.897 0 13.31-3.105 17.594-8.521a5 5 0 1 0-7.844-6.204zm82.421-.818a5 5 0 0 0-7.023.818c-2.376 3.003-5.931 4.726-9.752 4.726s-7.376-1.722-9.75-4.725a5 5 0 0 0-7.843 6.203c4.283 5.415 10.695 8.521 17.594 8.521 6.897 0 13.311-3.105 17.594-8.521a5 5 0 0 0-.82-7.022zm-105.845-10.65c.559 0 1.126-.094 1.682-.292l27.345-9.77a5 5 0 1 0-3.365-9.418l-27.345 9.77a5 5 0 0 0 1.683 9.71zm73.715-10.061 27.345 9.77a5.002 5.002 0 0 0 3.366-9.418l-27.345-9.77a5.002 5.002 0 0 0-3.366 9.418zm-78.026 76.634c14.023-16.136 34.306-25.479 55.646-25.634a74.517 74.517 0 0 1 55.719 25.635c5.729 6.593 5.027 16.619-1.565 22.35-6.595 5.728-16.62 5.027-22.352-1.564-8.014-9.221-19.59-14.589-31.766-14.733-12.177.145-23.753 5.513-31.766 14.733-3.128 3.599-7.537 5.442-11.968 5.442a15.776 15.776 0 0 1-10.382-3.877v-.001c-6.594-5.731-7.296-15.758-1.566-22.351zm8.126 14.803a5.852 5.852 0 0 0 8.243-.578c9.899-11.389 24.209-18.013 39.261-18.173h.106c15.051.16 29.362 6.783 39.26 18.173a5.851 5.851 0 0 0 8.244.577 5.85 5.85 0 0 0 .576-8.242c-12.141-13.971-29.698-22.061-48.17-22.194-18.399.134-35.957 8.224-48.099 22.194a5.85 5.85 0 0 0 .579 8.243z" style="fill:#1c1d21"/></svg>