<svg xmlns="http://www.w3.org/2000/svg" xml:space="preserve" width="655.359" height="655.359" style="shape-rendering:geometricPrecision;text-rendering:geometricPrecision;image-rendering:optimizeQuality;fill-rule:evenodd;clip-rule:evenodd" viewBox="0 0 6.827 6.827"><defs><clipPath id="id0"><path d="M3.413 0a3.413 3.413 0 1 1 0 6.827 3.413 3.413 0 0 1 0-6.827z"/></clipPath><style>.fil1{fill:#e9bb77}.fil7{fill:#212121;fill-rule:nonzero}.fil3,.fil4,.fil6{fill:#41281a;fill-rule:nonzero}.fil4,.fil6{fill:#424242}.fil4{fill:#673b15}</style></defs><g id="Layer_x0020_1"><path d="M3.413 0a3.413 3.413 0 1 1 0 6.827 3.413 3.413 0 0 1 0-6.827z" style="fill:#ffcc80"/><g style="clip-path:url(#id0)"><g id="_637653328"><path id="_2169378241" class="fil1" d="M2.664 2.67 6.45 6.457l.006.006.006.007.006.006.006.007.006.007.005.007.005.008.005.007.005.008.005.008.005.008.004.008.005.008-3.787-3.786-.004-.009-.004-.008-.005-.008-.005-.008-.005-.007-.005-.008-.005-.007-.006-.007-.005-.007-.006-.007-.006-.007-.006-.006z"/><path id="_216938280" class="fil1" d="M2.732 2.766 6.52 6.552l.003.007.003.007.004.008.003.007.003.007.003.008.003.007.002.007.003.008.002.007.002.008.003.007.002.008.002.007.002.008.001.007.002.008.001.007.002.008V6.7l.002.008.001.008.001.007v.008l.002.007v.023l.001.008v.022L2.786 3.005v-.038l-.001-.007v-.008l-.001-.008-.001-.007-.001-.008-.001-.007-.001-.008-.002-.007-.001-.008-.001-.007-.002-.008-.002-.008-.002-.007-.002-.008-.002-.007-.002-.007-.002-.008-.003-.007-.002-.008-.003-.007-.003-.008-.002-.007-.003-.007-.004-.008-.003-.007-.003-.007z"/><path id="_216942672" class="fil1" d="M3.233 3.032 7.02 6.82l.005.004.003.004.004.004.004.005.004.004.004.004.003.005.004.004.003.005.004.005.003.005.003.004.003.005.003.005.003.005.003.005L3.29 3.106 3.286 3.1l-.003-.005-.003-.005-.003-.005-.003-.005-.004-.005-.003-.004-.003-.005-.004-.004-.004-.005-.003-.004-.004-.005-.004-.004-.004-.004-.004-.004z"/><path id="_216943152" class="fil1" d="m5.042 3.088 3.786 3.787.015.017.014.018.014.018.014.018.013.02.013.019.013.02.012.02.012.022.01.021.012.022.01.023.01.023.01.024.009.024.009.025.008.025.008.026.007.026.006.027.006.028.006.028.005.029L5.278 3.61l-.005-.028-.006-.028-.006-.028-.007-.027-.007-.026-.007-.026-.009-.025-.008-.025-.01-.024-.009-.024-.01-.023-.01-.023-.011-.022-.012-.022-.011-.02-.013-.021-.012-.02-.013-.02L5.1 3.16l-.014-.019-.014-.018-.014-.017z"/><path id="_216942744" class="fil1" d="m5.278 3.611 3.786 3.787.001.007.001.008v.02l-.001.006-.001.006-.002.006-.002.005-.002.006-.003.005-.002.004-.004.005-.003.004-.004.005-.004.004-.004.003-.005.004-.005.003-.005.004-.005.003-.006.002-.005.003-.006.002-.007.003-.006.002-.007.002-.006.002-.007.002-.008.001-.007.002h-.007L5.155 3.743l.008-.002.007-.001.007-.002.007-.001.007-.002.007-.002.006-.002.006-.003.006-.002.006-.003.006-.003.005-.003.005-.003.005-.003.005-.004.004-.004.004-.004.004-.004.003-.004.003-.005.003-.005.003-.005.002-.005.002-.005.001-.006.002-.006V3.64l.001-.007v-.007l-.001-.007z"/><path id="_216943488" class="fil1" d="m5.155 3.742 3.787 3.786h-.005l-.006.001-.005.001h-.005l-.005.001H8.91l-.005.001h-.006l-.005.001h-.011l-.006.001H8.765L4.979 3.746h.027l.006.001H5.102l.006-.001h.011l.005-.001h.005l.006-.001.005-.001h.005l.005-.002z"/><path id="_216943944" class="fil1" d="m4.979 3.747 3.786 3.786H8.71L4.923 3.745H4.97l.003.001h.003z"/><path id="_216943392" class="fil1" d="M4.923 3.746 8.71 7.532h-.43L4.493 3.746z"/><path id="_216943248" class="fil1" d="M4.493 3.746 8.28 7.532l.005.008.005.008.004.007.005.008.005.007.005.008.005.007.005.008.004.007.005.008.005.007.005.008.004.007.005.007.005.008.004.007L4.57 3.866l-.005-.007-.004-.008-.005-.007-.005-.008-.004-.007-.005-.007-.005-.008-.005-.007-.004-.008-.005-.007-.005-.008-.005-.008-.005-.007-.005-.008-.005-.007z"/><path id="_216943560" class="fil1" d="m4.57 3.866 3.786 3.786.01.015.01.015.009.014.009.014.01.013.008.013.01.013.008.012.008.013.009.011.008.012.008.01.008.011.008.01.007.01.007.01.007.01.007.009.006.009.006.008.006.008.005.008.005.008.005.007.004.007.004.007.004.006.003.006.003.006.003.006.002.005.001.005-3.786-3.786-.001-.005-.003-.006-.002-.005-.003-.006-.003-.006-.004-.007-.004-.006-.004-.007-.005-.008-.005-.007-.006-.008-.005-.008-.006-.009-.007-.008-.006-.01-.007-.009-.007-.01-.008-.01-.007-.01-.008-.01-.008-.012L4.66 4l-.009-.012-.008-.012-.01-.012-.008-.013-.01-.013-.008-.014-.01-.013-.009-.015-.01-.014z"/><path id="_216943296" class="fil1" d="m4.319 3.746 3.786 3.786h-.044L4.275 3.746z"/><path id="_216943416" class="fil1" d="m3.549 3.468 3.786 3.786h-.003l-.003.001-.003.001H7.32l-.004.001h-.003l-.003.001H7.301l-.003.001H7.285L3.498 3.473h.023l.003-.001h.006l.003-.001h.003l.004-.001h.003l.003-.001z"/><path id="_216943704" class="fil1" d="m1.677 2.058 3.787 3.786.004.006.004.005.003.006.003.006.003.006.002.007v.007L1.698 2.101v-.007l-.003-.007-.002-.006-.003-.006-.003-.006-.004-.006z"/><path id="_216943608" class="fil1" d="m3.73 3.412 3.787 3.786-.004.001-.004.001-.004.001-.004.001-.004.001-.004.001-.004.001-.004.001-.003.001-.004.001-.004.001-.003.001-.004.001-.003.001h-.003l-.004.002-3.786-3.787h.003l.004-.001.003-.001.004-.001.003-.001.004-.001.003-.001.004-.001.004-.001.004-.001.004-.001.004-.001.004-.001.004-.001.004-.001z"/><path id="_216943776" class="fil1" d="M3.844 3.567 7.63 7.353l-.004-.004L3.84 3.563z"/><path id="_216943824" class="fil1" d="M4.275 3.746 8.06 7.532H8.03l-.016-.001L8 7.529l-.015-.001-.016-.003-.015-.002-.015-.003-.014-.003-.015-.004-.015-.004-.014-.004-.014-.005-.014-.005-.014-.005-.014-.006-.014-.006-.013-.006-.013-.007-.013-.006-.013-.008-.013-.007-.012-.008-.013-.008-.012-.008-.011-.01-.012-.008-.012-.01-.01-.009-.012-.01-.01-.01-.01-.01-3.787-3.786.01.01.011.01.011.01.011.01.012.009.011.009.012.008.012.009.012.008.013.008.013.007.013.007.013.007.013.007.013.006.014.006.014.006.013.005.015.005.014.005.014.004.015.004.014.003.015.004.015.003.015.002.015.002.016.002.015.001.015.001.016.001z"/><path id="_216944328" class="fil1" d="m1.693 2.138 3.786 3.786-.002.005-.003.005-.003.005-.003.004-.004.005-.004.004-.004.003-.004.004-.005.003-.005.002-.005.002-.005.002-.006.002-.006.001H5.41L1.622 2.187h.006l.006-.001.006-.001.005-.002.006-.002.005-.002.005-.003.004-.003.005-.003.004-.004.004-.004.004-.004.003-.004.003-.005.002-.005z"/><path id="_216944664" class="fil1" d="m1.981 2.28 3.786 3.787-.017-.016-.017-.015-.018-.014-.02-.013-.019-.013-.02-.011-.02-.011-.021-.01-.022-.009-.022-.008-.022-.007-.023-.006-.023-.006-.024-.004-3.786-3.786.023.004.024.005.022.006.023.008.022.008.021.009.021.01.02.01.02.012.02.013.02.013.018.014.017.015z"/><path id="_216944712" class="fil1" d="M2.018 2.264 5.804 6.05l.017.017.015.018.016.02.014.018.013.02.013.02.012.022.011.022.01.022.01.022.007.023.008.024.006.024.005.024.004.025.004.025.002.025-3.787-3.786-.002-.025-.003-.025-.004-.025-.005-.024-.007-.024-.007-.024-.008-.023-.01-.022-.01-.023-.01-.021-.012-.021-.013-.02-.013-.02-.015-.02-.015-.019-.016-.018z"/><path id="_216944352" class="fil1" d="M2.662 3.334 6.448 7.12l-.004.005-.004.005-.005.005-.004.005-.005.004-.004.005-.005.004-.004.005-.005.004-.005.005-.005.004-.004.005-.005.004-.005.004-.005.004-.006.004-.005.004-.005.004-.005.004-.006.004-.005.004-.006.003-.005.004-.006.004-.005.003-.006.004-.006.003-.006.003-.006.004-.006.003-.006.003-.006.003-3.786-3.786.006-.003.006-.003.006-.004.006-.003.006-.003.006-.004.005-.003.006-.004.006-.003.005-.004.006-.004.005-.003.005-.004.006-.004.005-.004.005-.004.005-.004.005-.004.005-.004.005-.005.005-.004.005-.004.005-.005.004-.004.005-.005.005-.004.004-.005.005-.005.004-.004.004-.005.005-.005z"/><path id="_216944520" class="fil1" d="m2.738 3.493 3.787 3.786-.007.006-.007.007-.007.006-.006.006-.007.006-.006.006-.006.006-.005.006-.005.006-.005.005-.004.005-.003.006-.003.004-.003.005-.002.004-.001.004-3.786-3.786v-.004l.003-.004.002-.005.003-.005.004-.005.004-.005.005-.006.005-.005.005-.006.006-.006.006-.006.006-.006.007-.006.007-.007.006-.006z"/><path id="_216943992" class="fil1" d="m2.497 3.463 3.786 3.786-.245.121-3.786-3.786z"/><path id="_216944088" class="fil1" d="m3.312 3.386 3.786 3.787-.003.009-.003.008-.004.009-.004.008-.004.008-.005.009-.005.008-.004.007-.005.008-.006.008-.005.007-.006.007-.006.008-.006.007-.006.006-.007.007L3.233 3.51l.007-.007.006-.007.006-.007.006-.007.005-.007.006-.008.005-.007.005-.008.005-.008.005-.008.004-.008.005-.008.004-.009.003-.008.004-.009z"/><path id="_216944064" class="fil1" d="M3.498 3.473 7.285 7.26H7.26l-.006-.002h-.006l-.006-.001-.006-.002H7.23l-.006-.002-.006-.002-.006-.002-.005-.001-.006-.002-.006-.002-.005-.003-.005-.002-.006-.003-.005-.002-.005-.003-.005-.003-.006-.003-.004-.003-.005-.003-.005-.003-.005-.004-.005-.004-.004-.003-.005-.004-.004-.004-.004-.004-.004-.004-3.787-3.786.005.004.004.004.004.004.005.004.004.003.005.004.005.003.004.004.005.003.005.003.005.003.005.003.006.003.005.002.005.003.006.002.005.002.006.002.005.002.006.002.006.002.006.001.005.002.006.001.006.001.006.001.006.001h.007l.006.001h.006l.006.001z"/><path id="_216944184" class="fil1" d="m3.671 3.427 3.786 3.787.005.012.004.013.005.012.005.013.004.013.005.014.005.013.005.014.004.013.005.014.005.014.005.014.005.014.005.015.005.014.005.014.005.015.005.014.005.015.005.014.005.015.005.014.006.015.005.014.005.015.004.014.005.015.005.014.005.014.005.014.005.014.004.014-3.786-3.786-.005-.014-.004-.014-.005-.014-.005-.014-.005-.015-.005-.014-.005-.014-.005-.015-.005-.014-.005-.015-.005-.014-.005-.015-.005-.015-.005-.014-.005-.014-.005-.015-.005-.014-.005-.015-.005-.014-.005-.014-.005-.014-.005-.014-.005-.014-.005-.014-.005-.013-.004-.014-.005-.013-.005-.013-.004-.013-.005-.013-.004-.012z"/><path id="_216944568" class="fil1" d="M3.233 3.51 7.02 7.298l-.003.003-.004.004-.004.003-.003.004L7 7.314l-.004.004-.004.003-.004.003-.004.003-.004.003-.004.003-.005.003-.004.003-.004.003-.004.003-.005.002-.004.003-.005.002-.004.003-.005.002-.004.003-.005.002-.004.002-.005.002-.005.002-.005.002-.004.002-.005.002-.005.002-.005.002-.005.001-.005.002-3.786-3.786.005-.002.005-.002.005-.001.004-.002.005-.002.005-.002.005-.002.005-.002.004-.002.005-.002.005-.003.004-.002.005-.002.004-.003.005-.002.004-.003.004-.003.005-.002.004-.003.004-.003.004-.003.005-.003.004-.003.004-.003.004-.003.004-.004.004-.003.003-.003.004-.004.004-.003.004-.004z"/><path id="_216944304" class="fil1" d="m2.947 3.606 3.786 3.787-.007-.001-.007-.002h-.007l-.006-.002-.007-.002-.007-.002-.006-.002-.007-.002-.007-.002-.006-.002-.007-.002-.006-.003-.006-.002-.006-.003-.007-.003-.006-.003-.006-.003-.006-.003-.006-.004-.005-.003-.006-.004-.006-.004-.005-.003-.006-.004-.005-.004-.006-.004-.005-.005-.005-.004-.005-.004-.005-.005-.005-.004L2.76 3.515l.005.005.005.004.005.005.005.004.005.004.006.005.005.004.005.003.006.004.006.004.005.003.006.004.006.003.006.004.006.003.006.003.006.002.007.003.006.003.006.002.007.003.006.002.007.002.006.002.007.002.007.002.006.001.007.002.007.001.007.001z"/><path id="_216944856" class="fil1" d="m2.211 3.606 3.786 3.786-.004.002-.004.002-.004.002-.004.003-.004.002-.004.002-.004.002-.005.002-.004.002-.004.003-.004.002-.005.002-.004.002-.004.002-.005.002-.004.002-.004.002-.005.002-.004.002-.004.002-.005.002-.004.002-.004.002-.005.002-.004.002-.005.001-.004.002-.004.002-.005.001-.004.002-.004.001-.004.001-3.787-3.786.005-.001.004-.002.004-.001.005-.002.004-.001.004-.002.005-.002.004-.001.004-.002.005-.002.004-.002.004-.002.005-.002.004-.002.005-.002.004-.002.004-.002.005-.002.004-.002.004-.002.004-.002.005-.003.004-.002.004-.002.004-.002.005-.002.004-.003.004-.002.004-.002.004-.002.004-.002z"/><path id="_216945336" class="fil1" d="M2.487 4.234 6.273 8.02l-.001.013-.001.014-.001.016-.001.016-.001.017-.001.018-.001.018-.001.02-.001.02-.001.02-.001.02-.001.02v.02l-.002.02v.021l-.001.02-.001.02v.019l-.001.018v.018l-.001.017-.001.016V8.45l-.001.013v.01l-.001.01v.025L2.464 4.722v-.024l.001-.01v-.024l.001-.014v-.015l.001-.016v-.017l.001-.018.001-.019v-.019l.001-.02.001-.02.001-.02v-.02l.002-.02v-.02l.001-.021.001-.02.001-.02.001-.019.001-.018.001-.018.001-.017.001-.017.002-.015v-.014z"/><path id="_216945144" class="fil1" d="M2.945 4.792 6.73 8.578h-.015l-.007-.003-.006-.004-3.787-3.787.007.004.007.003.007.001z"/><path id="_216944760" class="fil1" d="M2.252 3.584 6.04 7.37l-.004.002-.005.003-.005.002-.005.003-.005.003-.006.003-.006.003-.006.003-3.786-3.786.006-.003.006-.004.006-.003.005-.002.005-.003.005-.003.004-.002z"/><path id="_216945312" class="fil1" d="m2.662 3.581 3.786 3.786-.001.004-.002.005-.002.005-.002.006-.002.006-.003.007-.003.007-.004.008-.003.009-.004.009-.004.01-.005.01-.004.01-.005.011-.004.012-.005.012-.005.012-.005.013-.005.014-.005.013-.005.015-.005.015-.005.015-.005.015-.005.016-.005.017-.005.017-.004.017-.005.017-.004.018-.004.018-.004.019-3.786-3.786.004-.019.004-.018.004-.018.005-.018.004-.017.005-.017.005-.016.004-.016.005-.016.005-.015.005-.014.005-.015.006-.014.005-.013.005-.013.004-.013.005-.012.005-.011.005-.011.004-.01.004-.011.004-.01.004-.009.004-.008.003-.008.004-.007.002-.007.003-.007.002-.005.002-.005.002-.005z"/><path id="_216945384" class="fil1" d="M1.622 2.186 5.41 5.972H5.4l-.008-.002-.007-.001-.007-.003-.006-.003-.007-.004-.006-.004-.005-.005L1.57 2.163l.005.005.006.005.006.003.007.004.007.002.007.002.008.001z"/><path id="_216944952" class="fil1" d="m2.074 3.668 3.787 3.786-.007.002-.006.002-.006.001-.007.002-.006.001-.006.001h-.006l-.006.001H5.78l-.005-.002-.005-.001-.005-.002-.005-.002-.004-.002-.005-.002-.004-.003-.004-.003-.004-.004-3.786-3.786.004.003.004.004.004.002.004.003.005.002.005.002.004.001.005.002h.005l.006.002h.033l.006-.001.006-.001.006-.001.006-.002.007-.001.006-.002z"/><path id="_216945360" class="fil1" d="m2.978 4.749 3.786 3.786v.015l-.004.007-.003.006-.005.006-.006.004-.007.003-.008.002-3.786-3.786.007-.002.007-.003.006-.004.005-.006.004-.006.003-.007.001-.007z"/><path id="_216944784" class="fil1" d="m2.465 4.722 3.786 3.786v.008l-.003.007-.004.006-.005.006-.005.004-.007.004-.007.002h-.008L2.426 4.76h.007l.008-.002.006-.004.006-.004.005-.006.004-.006.002-.008z"/><path id="_216945048" class="fil1" d="m2.426 4.76 3.786 3.785h-.008l-.007-.003-.006-.004-.006-.005-3.786-3.786.005.005.007.004.007.002z"/><path id="_216946080" class="fil1" d="M3.094 3.595 6.88 7.38l-.007.018-.006.018-.007.018-.007.019-.007.018-.007.019-.008.019-.007.019-.007.018-.007.02-.007.018-.007.019-.007.018-.007.018-.006.018-.007.018-.006.018-.006.017-.006.017-.006.016-.005.016-.005.015-.005.015-.004.014-.004.014-.004.013-.003.012-.003.012-.002.01-.002.01-.002.01v.008L2.918 4.107v-.009l.002-.009.002-.01.003-.01.003-.012.003-.012.004-.013.004-.014.004-.014.005-.015.005-.015.005-.016.006-.017.006-.016.006-.018.006-.017.006-.018.007-.018.007-.018.007-.019.007-.018.007-.019.007-.019.007-.019.007-.019.007-.018.007-.02.008-.018.006-.018.007-.018.007-.018z"/><path id="_216945720" class="fil1" d="m3.918 4.76 3.786 3.785h-.008l-.007-.002-.006-.004-.006-.005L3.89 4.748l.005.005.007.003.007.002z"/><path id="_216946056" class="fil1" d="M3.932 4.223 7.718 8.01l.002.014.002.014.002.016.001.016.002.018.001.018.001.02.002.019v.02l.002.02v.02l.002.022v.02l.001.021.001.02v.021l.001.02.001.02v.018l.001.018v.034l.001.015v.039l.001.01v.024L3.956 4.72V4.66l-.001-.014v-.032l-.001-.017V4.58l-.001-.019v-.02l-.001-.02-.001-.02v-.02l-.002-.02v-.022l-.001-.02-.002-.021v-.02l-.002-.02-.001-.02-.001-.02-.002-.017-.001-.018-.002-.017-.001-.015-.002-.015z"/><path id="_216946104" class="fil1" d="M2.533 3.963 6.32 7.749l-.002.01-.002.012-.002.01-.002.011-.002.011-.002.01-.002.011-.002.01-.002.01-.002.01-.001.01-.002.01-.002.01-.002.009-.001.01-.002.008-.001.009-.002.008-.001.009-.001.008-.002.008v.007l-.002.007-.001.007-.001.007-.001.007v.006L6.274 8v.005l-.001.006V8.02L2.486 4.234v-.01l.001-.005.001-.005v-.006l.002-.007v-.006l.002-.007v-.007l.002-.007.001-.008.001-.008.002-.008.001-.008.001-.008.002-.01.002-.008.001-.01.002-.009.002-.01.001-.009.002-.01.002-.01.002-.01.002-.01.002-.01.002-.011.002-.01.002-.012.002-.01.002-.011z"/><path id="_216945912" class="fil1" d="m2.919 4.107 3.786 3.786v.013l-.001.015V7.958l.001.02.001.022.002.023.001.024.002.025.003.026.002.027.003.027.002.027.003.028.003.027.003.027.003.027.003.027.003.025.003.025.003.024.003.022.003.021.002.02.002.018.003.016.001.014.002.012.001.01.001.007v.004l.001.002-3.786-3.786v-.002l-.001-.004-.001-.007-.001-.01-.002-.012-.002-.014-.002-.016-.002-.018-.003-.02-.002-.021-.003-.023-.003-.023-.003-.025-.003-.026-.003-.026-.003-.027-.003-.027-.003-.028-.003-.027-.003-.027-.002-.027-.003-.027-.002-.026-.002-.025-.002-.025-.001-.023-.001-.022v-.02l-.001-.019V4.12z"/><path id="_216945600" class="fil1" d="M4.803 4.76 8.59 8.544h-.007l-.008-.001-.007-.003-.006-.005L4.775 4.75l.006.004.007.003.007.002z"/><path id="_216945528" class="fil1" d="m4.838 4.718 3.787 3.786v.008l-.002.007-.003.007-.004.006-.006.005-.006.004-.007.003-.008.001L4.803 4.76l.008-.001.007-.003.006-.004.005-.005.005-.006.003-.007.001-.008z"/><path id="_216945624" class="fil1" d="m3.956 4.72 3.786 3.787v.007l-.003.008-.003.006-.005.006-.005.005-.007.003-.007.003h-.008L3.918 4.76h.008l.007-.003.006-.004.006-.004.005-.006.003-.007.002-.007z"/><path id="_216945744" class="fil1" d="M3.827 3.874 7.613 7.66l.005.015.005.015.005.015.005.014.005.015.004.014.005.014.004.013.005.014.004.013.004.013.004.013.004.012.004.013.004.011.003.012.004.011.003.011.003.01.003.011.003.01.003.01.002.008.002.01.002.007.002.008.002.008.002.007.001.006.002.006v.005l.001.005-3.786-3.786v-.005l-.002-.005-.001-.006-.001-.007-.002-.007-.002-.007-.002-.008-.002-.008-.002-.009-.003-.009-.002-.01-.003-.01-.003-.01-.003-.01-.004-.011-.003-.011-.004-.012-.003-.012-.004-.012-.004-.012-.004-.013-.004-.013-.004-.013-.005-.014-.004-.014-.005-.014-.004-.014-.005-.014-.005-.014-.005-.015-.005-.015z"/><path id="_216945816" class="fil1" d="m4.778 4.177 3.786 3.786.004.013.003.015.004.017.003.017.003.019.003.02.003.02.003.02.003.022.002.023.003.022.002.023.003.022.002.023.002.023.002.022.002.022.002.021.001.021.002.02.001.02.001.017.002.017v.016l.002.014v.013l.001.011v.01l.001.007v.01L4.839 4.719V4.7l-.001-.01V4.68l-.002-.013v-.014l-.002-.016v-.017l-.002-.018-.002-.02-.001-.02-.002-.02-.002-.021-.001-.022-.002-.022-.002-.023-.003-.023-.002-.023-.002-.022-.003-.023-.003-.022-.002-.021-.003-.022-.003-.02-.003-.02-.003-.018-.004-.018-.003-.016-.003-.015z"/><path id="_637653352" class="fil1" d="M2.247 2.602a.36.36 0 0 1 .485.164.516.516 0 0 1 .054.24.337.337 0 0 1 .503.1.244.244 0 0 1 .383-.047.423.423 0 0 1 .415-.346c.256 0 .567.058.81.24a.99.99 0 0 1 .38.658c.015.082-.041.117-.122.13-.054.01-.12.008-.176.006h-.486l.077.119c.102.161.193.259.208.31.038.137.06.54.06.542a.039.039 0 1 1-.076.006l-.067-.483-.376-.495h-.044a.608.608 0 0 1-.544-.334 4.774 4.774 0 0 0-.06.015c.047.131.106.299.156.447.054.16.098.299.105.35.02.134.024.495.024.496a.038.038 0 0 1-.077.001c0-.001-.004-.356-.023-.487a3.256 3.256 0 0 0-.102-.335 2.367 2.367 0 0 0-.205-.431.244.244 0 0 1-.237-.082.338.338 0 0 1-.218.209c-.07.188-.168.429-.175.512-.012.128.059.64.059.642a.038.038 0 0 1-.076.01c0-.002-.072-.522-.06-.66.007-.07.056-.29.105-.493a.337.337 0 0 1-.209-.113c-.037.033-.071.068-.076.088-.01.039-.09.182-.129.382a3.712 3.712 0 0 0-.046.27c-.012.132-.022.488-.022.489a.038.038 0 0 1-.077-.002c0-.001.01-.359.022-.493.005-.052.024-.16.048-.28.038-.198.089-.43.099-.47.01-.04.06-.092.107-.133a.344.344 0 0 1-.002-.01.516.516 0 0 1-.165.129l-.245.121-.04.022c-.043.022-.092.048-.138.062-.068.021-.127.015-.148-.057-.09-.291-.096-.5-.038-.657a.59.59 0 0 1 .26-.297.538.538 0 0 0-.455-.52.076.076 0 1 1 .004-.036c.265.04.471.262.487.534l.063-.033z"/></g></g><path d="M3.413 0a3.413 3.413 0 1 1 0 6.827 3.413 3.413 0 0 1 0-6.827z" style="fill:none"/><path class="fil3" d="M2.185 2.67h-.037a.538.538 0 0 0-.538-.538v-.038c.317 0 .575.258.575.575z"/><path class="fil4" d="M1.698 2.11a.076.076 0 1 1-.151 0 .076.076 0 0 1 .151 0z"/><path d="M2.732 2.766a.518.518 0 0 1-.235.697l-.245.121-.04.022c-.043.022-.092.048-.138.062-.068.021-.127.015-.148-.057-.09-.291-.096-.5-.038-.657.06-.16.185-.266.359-.352a.36.36 0 0 1 .485.164z" style="fill:#673b15"/><path class="fil6" d="M4.85 3.015c-.226-.17-.52-.224-.763-.224a.344.344 0 0 0-.345.345.531.531 0 0 0 .533.533h.648l.058.001c.053.002.115.004.162-.004.037-.006.063-.018.059-.042a.916.916 0 0 0-.351-.609zM3.616 3.112a.166.166 0 0 0-.284.118.166.166 0 0 0 .284.117.166.166 0 0 0 0-.235z"/><path class="fil4" d="M3.498 2.986a.243.243 0 0 1 .173.416.243.243 0 0 1-.416-.172.243.243 0 0 1 .243-.244z"/><path class="fil6" d="M3.179 3.087a.26.26 0 0 0-.446.185.26.26 0 0 0 .446.184.26.26 0 0 0 0-.369z"/><path class="fil3" d="M2.994 2.933a.337.337 0 0 1 .24.578.337.337 0 0 1-.578-.24.337.337 0 0 1 .338-.338z"/><path class="fil7" d="M3.368 3.386a.038.038 0 0 1-.056-.053s.23-.246.278-.127c.016.04.143.388.237.668.054.16.098.299.105.35.02.134.024.495.024.496a.038.038 0 0 1-.077.001c0-.001-.004-.356-.023-.487a3.256 3.256 0 0 0-.102-.335c-.094-.279-.272-.531-.288-.571a.625.625 0 0 0-.098.058zM3.276 3.39a.038.038 0 0 1-.067.039s-.036-.088-.043-.058l-.009.034c-.038.153-.227.585-.238.702-.012.128.059.64.059.642a.038.038 0 0 1-.076.01c0-.001-.072-.522-.06-.66.012-.123.155-.7.193-.854l.009-.033c.038-.157.231.177.232.178zM2.748 3.278a.038.038 0 0 1 .054.009c.012.017.064.105.047.118 0 0-.176.127-.187.176-.01.039-.09.182-.129.382a3.712 3.712 0 0 0-.046.27c-.012.132-.022.488-.022.489a.038.038 0 0 1-.077-.002c0-.001.01-.359.022-.493.005-.052.024-.16.048-.28.038-.198.089-.43.099-.47.019-.078.19-.2.191-.2z"/><path d="M2.089 3.208a.224.224 0 0 0 .037-.292.25.25 0 0 0-.08-.076.474.474 0 0 0-.097.178.698.698 0 0 0-.017.259.265.265 0 0 0 .157-.07z" style="fill:#fafafa"/><path d="M2.089 3.208a.23.23 0 0 0 .054-.261.23.23 0 0 0-.18.325.262.262 0 0 0 .126-.064z" style="fill:#212121"/><path class="fil3" d="M2.085 3.203a.217.217 0 0 0 .001-.325.25.25 0 0 0-.04-.03.47.47 0 0 0-.092.172.57.57 0 0 0-.019.117.84.84 0 0 0 .003.133.265.265 0 0 0 .147-.067zm.064-.07a.243.243 0 0 1-.056.079.264.264 0 0 1-.16.07.006.006 0 0 1-.007-.005h.006-.006a.86.86 0 0 1-.003-.14.582.582 0 0 1 .049-.198.449.449 0 0 1 .069-.103.006.006 0 0 1 .008-.001.262.262 0 0 1 .081.077.234.234 0 0 1 .039.128.23.23 0 0 1-.02.093z"/><path d="M4.087 2.713c.256 0 .567.058.81.24a.99.99 0 0 1 .381.658c.014.082-.042.117-.123.13-.054.01-.12.008-.176.006H4.275a.608.608 0 0 1-.61-.611.421.421 0 0 1 .422-.423z" style="fill:#5e3512;fill-rule:nonzero"/><path class="fil7" d="M3.615 3.443a.038.038 0 0 1-.037-.067c.001 0 .479-.268.547-.179.03.04.268.388.445.669.102.161.193.259.208.31.038.137.06.54.06.542a.039.039 0 1 1-.076.006l-.067-.483-.665-.874c-.027-.036-.414.076-.415.076z"/></g></svg>