<svg xmlns="http://www.w3.org/2000/svg" xml:space="preserve" width="655.359" height="655.359" style="shape-rendering:geometricPrecision;text-rendering:geometricPrecision;image-rendering:optimizeQuality;fill-rule:evenodd;clip-rule:evenodd" viewBox="0 0 6.827 6.827"><defs><clipPath id="id0"><path d="M3.413 0a3.413 3.413 0 1 1 0 6.827 3.413 3.413 0 0 1 0-6.827z"/></clipPath><style>.fil14{fill:#3e2723}.fil1{fill:#5c6bc0}.fil13{fill:#fc0}.fil5,.fil7,.fil8{fill:#263238;fill-rule:nonzero}.fil5,.fil8{fill:#331b05}.fil8{fill:#424242}.fil11,.fil12,.fil6{fill:#e3cf91;fill-rule:nonzero}.fil11,.fil6{fill:#eeda9d}.fil6{fill:#fff}</style></defs><g id="Layer_x0020_1"><path d="M3.413 0a3.413 3.413 0 1 1 0 6.827 3.413 3.413 0 0 1 0-6.827z" style="fill:#9fa8da"/><g style="clip-path:url(#id0)"><g id="_637665952"><path id="_5427062001" class="fil1" d="M3.981 1.553 7.767 5.34l.003.003.002.004.001.004v.008l-.002.004-.002.003-.003.003-.004.003-.004.001-3.786-3.786.004-.002.004-.002.003-.003.002-.004.002-.003v-.008l-.001-.005-.002-.003z"/><path id="_542706488" class="fil1" d="m3.972 1.587 3.786 3.786-.014.005-.014.004-.014.006-.014.005-.014.007-.015.006-.014.008-.015.007-.015.008-.014.009-.015.009-.015.01-.014.009-.015.01-.014.01-.014.011-.014.011-.013.012-.014.011-.013.012-.013.013-.012.012-.012.013-.012.012-.011.013-.011.014-.01.013-.01.014-.01.013-.008.014-.008.014-.008.014-3.786-3.786.008-.014.008-.014.008-.014.01-.014.01-.013.01-.014.01-.013.012-.013.011-.013.012-.012.013-.013.013-.012.013-.012.013-.012.014-.011.014-.011.014-.01.014-.011.015-.01.014-.01.015-.01.014-.008.015-.009.015-.008.014-.008.015-.007.014-.007.015-.006.014-.006.014-.005.014-.005z"/><path id="_542707568" class="fil1" d="M3.815 2.048 7.6 5.835l.005.006.006.006.005.007.005.006.005.007.005.007.005.007.005.007.004.007.005.007.004.007.004.007.004.007.004.008.004.007.003.008.003.008.004.007.003.008.003.008.002.008.003.008.003.008.002.008.002.008.002.008-3.786-3.786-.002-.009-.002-.008-.003-.008-.002-.008-.003-.008L3.9 2.19l-.003-.007-.003-.008-.003-.008-.003-.007-.004-.008-.003-.007-.004-.008-.004-.007-.004-.007-.005-.008-.004-.007-.004-.007-.005-.007-.005-.006-.005-.007-.005-.007-.005-.006-.005-.007-.006-.006z"/><path id="_542707136" class="fil1" d="M3.915 2.239 7.7 6.025l.001.006.002.005v.006l.002.006v.006l.002.005v.006l.001.006v.006l.001.006v.006l.001.006v.024L3.927 2.333V2.315l-.001-.006v-.006l-.001-.006V2.29l-.001-.006v-.006l-.002-.006v-.006l-.002-.005v-.006l-.002-.006-.001-.006z"/><path id="_542707352" class="fil1" d="m3.926 2.333 3.786 3.786V6.14l-.001.004v.01l-.001.004v.007l-.001.004v.003l-.001.004-3.786-3.787v-.01l.001-.004v-.003l.001-.004v-.01l.001-.004v-.018z"/><path id="_542707208" class="fil1" d="m3.922 2.39 3.786 3.786h-.004l-.002-.001H7.7l-.002-.001h-.004L3.907 2.386h.004l.001.001h.004l.002.001h.002z"/><path id="_542707160" class="fil1" d="m3.907 2.387 3.786 3.786v.006l-.001.005v.005l-.002.006V6.2l-.001.005-.002.006v.005l-.002.005v.006l-.002.005-.002.005-.001.006-.002.005-.001.005-.002.005L3.89 2.472l.002-.005.001-.005.002-.006.001-.005.001-.005.002-.006.001-.005.001-.005.001-.006.001-.005.001-.005.001-.006v-.005l.002-.005v-.006z"/><path id="_542707016" class="fil1" d="m3.176 1.794 3.787 3.787-.013-.013-.012-.012-.013-.013-.013-.012L6.9 5.52l-.014-.012-.014-.01-.014-.012-.014-.01-.015-.01-.014-.01-.015-.01-.014-.008-.015-.009-.015-.008-.015-.007-.014-.008L6.71 5.4l-.014-.007-.014-.005-.014-.006-.014-.004-.014-.005-3.786-3.786.014.004.013.005.015.005.014.006.014.006.015.007.014.007.015.008.015.008.014.009.015.009.014.009.015.01.014.01.015.01.014.01.014.012.013.011.014.012.013.012.013.012.012.013z"/><path id="_542707640" class="fil1" d="M3.17 1.754 6.956 5.54l.012.014.012.013.012.014.01.015.01.014.01.014.01.015.009.015.008.014.007.015.007.015-3.787-3.786-.006-.015-.008-.015-.008-.015-.008-.014-.01-.015-.01-.014-.01-.015-.01-.014-.012-.014-.012-.014z"/><path id="_542707064" class="fil1" d="M3.862 2.463 7.648 6.25l-.003.005-.002.004-.002.004-.002.003-.002.004-.002.004-.002.003-.001.003-.001.003-.002.003v.003l-.002.003v.003l-.001.003V6.3l-.001.003-3.786-3.786v-.006l.001-.003.001-.003.001-.003.001-.003.001-.003.002-.003.001-.003.002-.004.001-.003.002-.004.002-.004.003-.004.002-.004z"/><path id="_542706944" class="fil1" d="m3.887 2.48 3.786 3.786-.003-.002-.003-.002-.003-.002-.003-.002-.003-.002-.003-.002-.004-.003-.003-.002-3.786-3.786.003.002.003.002.003.002.003.002.004.002.003.002.003.002z"/><path id="_542707328" class="fil1" d="M4.547 3.172 8.333 6.96l.003.004.003.004.003.005.004.004.003.005.003.004.003.004.003.005.003.004.003.005.003.004.003.004.003.005.003.004.003.005.003.004.003.004.002.005.003.004.003.005.003.004.003.005.002.004.003.004.003.005.003.004.002.005.003.004.003.004.002.005.003.004.002.005L4.64 3.313l-.002-.004-.003-.004L4.63 3.3l-.002-.004-.003-.005-.003-.004-.002-.005-.003-.004-.003-.004-.003-.005-.002-.004-.003-.005-.003-.004-.003-.004-.003-.005-.003-.004-.002-.005-.003-.004-.003-.005-.003-.004-.003-.004-.003-.005-.003-.004-.003-.005-.003-.004-.004-.004-.003-.005-.003-.004-.003-.005-.003-.004-.003-.004z"/><path id="_542707856" class="fil1" d="m3.207 1.918 3.786 3.786v.004l.001.002V5.72l.001.002L3.21 1.935v-.007l-.001-.002V1.92z"/><path id="_542708024" class="fil1" d="M2.974 2.457 6.76 6.243l-.004.003-.005.003-.004.003-.004.003-.004.003-.005.002-.004.003-.004.003L2.94 2.479l.004-.002.004-.003.004-.003.004-.003.005-.002.004-.003.004-.003z"/><path id="_542708408" class="fil1" d="m4.753 4.6 3.786 3.785-.003.003-.003.002-.004.002-.003.002-.003.002-.003.002-.003.002-.003.002-3.786-3.786.003-.002.003-.002.003-.002.003-.002.003-.002.003-.002.004-.003z"/><path id="_542707712" class="fil1" d="m4.728 4.616 3.786 3.786-.01.006-.012.005-.01.005-.012.005-.012.004-.011.003-.012.003-.012.003-.012.002-.012.001-.013.001h-.012l-.013.001h-.026l-.013-.002-.013-.002-.014-.002-.013-.002-.014-.003-.013-.004-.014-.003-.014-.005-.014-.004-.014-.005-.014-.006-.014-.006-.014-.006-.014-.007-.015-.007-.014-.008-.015-.007-3.786-3.787.015.008.014.008.014.007.015.007.014.006.014.006.014.005.014.005.014.005.014.004.014.004.013.004.014.002.013.003.013.002.014.002h.013l.013.002h.025l.013-.001.012-.001.013-.002.012-.002.012-.002.011-.003.012-.004.012-.004.01-.004.012-.005.01-.005z"/><path id="_542708456" class="fil1" d="m4.015 4.331 3.786 3.787v.008l-.001.005-.001.004v.005l-.001.004v.004l-.001.005-.001.004v.004l-.001.005v.004l-.002.004V8.183l-.001.004-.001.005v.004l-.002.004V8.21l-.002.004v.004l-.001.005v.004l-.002.004v.004l-.001.004v.005l-.002.004v.004l-.001.004L3.994 4.47v-.004l.001-.004v-.005l.002-.004v-.004l.001-.004v-.005L4 4.435v-.004l.001-.004v-.005l.002-.004V4.41l.002-.005v-.008l.002-.005v-.008l.002-.005v-.008l.001-.005.001-.004v-.004l.001-.005V4.35l.001-.005V4.34l.001-.004z"/><path id="_542708264" class="fil1" d="M4.313 4.575 8.1 8.362l-.009-.006-.009-.005-.01-.006-.009-.005-.009-.006-.01-.006-.008-.007-.01-.006-.009-.006-.01-.007-.009-.007-.009-.007-.01-.007-.009-.007-.01-.008-.008-.007-.01-.008-.01-.008-.009-.008-.009-.008-.01-.009-.009-.008-.01-.009-.008-.008-.01-.01-.01-.008-3.785-3.787.009.01.01.008.009.01.009.008.01.008.009.009.01.008.008.008.01.008.01.007.009.008.009.007.01.008.009.007.01.007.008.007.01.006.009.007.01.006.009.006.009.006.01.006.008.006.01.006.009.005z"/><path id="_542707736" class="fil1" d="m3.999 4.469 3.786 3.786-.001.006-.002.005v.006l-.002.005-.001.006-.002.006-.001.005-.001.005-.002.006-.001.005-.001.006-.002.005-.001.006-.001.005-.002.005-.001.006-.002.005-.001.005-.001.006-.002.005-.001.005-.002.006-.001.005-.002.005-.001.005-.002.006-.001.005-.002.005-.001.005-.002.005-.001.006-.002.005L3.954 4.64l.001-.005.002-.005.002-.005.001-.005.002-.005.001-.006.002-.005.001-.005.001-.005.002-.006.001-.005.002-.005.001-.005.002-.006.001-.005.002-.005V4.55l.002-.005.002-.006.001-.005.001-.005.002-.006.001-.005.001-.006.002-.005.001-.006.001-.005.002-.006v-.005l.002-.006.001-.005z"/><path id="_542708144" class="fil1" d="M3.954 4.64 7.74 8.427l-.002.008-.002.008-.003.008-.002.008-.002.008-.003.008-.002.007-.003.008-.002.008-.003.008-.002.007-.003.008-.003.008-.002.007-.003.008-.003.007-3.786-3.786.003-.008.003-.007.002-.008.003-.007.002-.008.003-.008.002-.007.003-.008.002-.008.003-.008.002-.008.003-.008.002-.007.002-.008.003-.009z"/><path id="_542708000" class="fil1" d="m2.812 4.331 3.786 3.787-.01.01-.009.01-.009.009-.01.01-.008.009-.01.009-.01.009-.008.009-.01.008-.01.009-.008.008-.01.009-.01.008-.009.008-.009.008-.01.008-.009.007-.009.008-.01.007-.009.007-.01.007-.008.007-.01.007-.01.006-.008.006-.01.007-.009.006-.01.006-.009.005-.009.006-.009.005-.01.006-3.785-3.787.009-.005.009-.005.01-.006.008-.006.01-.006.009-.006.01-.006.009-.006.009-.007.01-.006.009-.007.009-.007.01-.007.009-.008.01-.007.008-.008.01-.007.01-.008.009-.008.009-.008.01-.009.009-.008.009-.009.01-.009.009-.009.009-.009.01-.009.009-.01.009-.009.01-.01.008-.009z"/><path id="_542708192" class="fil1" d="M3.854 4.897 7.64 8.683H6.76L2.973 4.897z"/><path id="_542708984" class="fil1" d="M3.914 4.765 7.7 8.55l-.002.008-.003.007-.003.007-.002.007-.003.008-.003.007-.003.007-.003.007-.003.007-.003.007-.002.007-.003.007-.003.007-.003.007-.003.006-.004.007-.003.007-.003.006-.003.007-.003.007-.003.006-.003.006-.004.007-.003.006-.003.007-.003.006-.004.006-.003.006-.003.006-.004.006-.003.006-.004.006L3.816 4.98l.004-.006.003-.006.003-.006.004-.006.003-.006.003-.006.004-.007.003-.006.003-.006.003-.007.004-.006.003-.007.003-.006.003-.007.003-.007.003-.006.003-.007.003-.007.003-.007.003-.006.003-.007.003-.007.003-.007.003-.007.003-.007.003-.008.003-.007.002-.007.003-.007.003-.007.003-.008z"/><path id="_542708840" class="fil1" d="m2.973 4.897 3.786 3.786.002.005.003.006.003.005.002.005.003.005.003.005.002.006.003.005.003.005.003.005.002.005.003.005.003.005.003.004.003.005.002.005-3.786-3.786-.003-.005-.003-.005-.002-.005-.003-.005-.003-.005L3 4.948l-.002-.005-.003-.005-.003-.005-.002-.005-.003-.005-.003-.005-.002-.005-.003-.006-.003-.005z"/><path id="_542708744" class="fil1" d="m3.016 4.978 3.786 3.786.002.004.003.003.002.004.002.003.002.004.002.003.002.004.002.003.002.003.002.004.003.003.002.003.002.004.002.003.002.003.002.004L3.05 5.032l-.002-.003-.002-.003-.002-.003-.002-.004-.003-.003-.002-.003-.002-.004-.002-.003-.002-.004L3.029 5l-.002-.004-.003-.003-.002-.004-.002-.003-.002-.004z"/><path id="_542708504" class="fil1" d="M3.05 5.032 6.836 8.82l.01.014.01.014.01.014.01.013.01.013.011.012.01.012.011.012.011.011.011.011.011.01.011.01L3.176 5.18l-.011-.01-.011-.01-.011-.01-.01-.012-.011-.012-.01-.012-.011-.012-.01-.013-.01-.013-.011-.014-.01-.014z"/><path id="_542708696" class="fil1" d="M3.413 5.28 7.2 9.066 3.412 5.28h.001z"/><path id="_542708792" class="fil1" d="M3.412 5.28 7.2 9.066h-.015l-.014-.001-.014-.002-.014-.002-.014-.003-.014-.004L7.1 9.05l-.014-.005-.013-.005-.014-.006-.013-.007-.013-.007-.013-.008-.013-.008-.013-.009-.013-.01-.013-.01-.012-.01L3.169 5.18l.013.01.013.01.012.01.013.009.013.008.013.008.014.007.013.007.014.006.013.005.014.005.014.004.014.004.014.003.014.002.014.002h.014z"/><path id="_542708648" class="fil1" d="m3.816 4.98 3.786 3.785-.01.018-.01.017-.011.016-.01.016-.012.016-.01.015-.012.014-.012.015-.011.013-.012.013-.012.013-.012.012-.012.012-.013.01-.012.011-.013.01-.013.01-.013.008-.013.009-.013.008-.013.007-.014.006-.013.006-.014.006-.014.004-.013.005-.014.003-.014.003-.015.002-.014.002h-.014l-.014.001L3.413 5.28h.015l.014-.001.014-.002.014-.002.014-.003.014-.004.014-.004.014-.005.014-.005.013-.006.013-.007.014-.007.013-.007.013-.009.013-.009.013-.01.012-.01.013-.01.012-.01.013-.012.012-.012.012-.013.011-.013.012-.014.012-.014.01-.014.012-.016.011-.015.01-.016.011-.017.01-.017z"/><path id="_542708936" class="fil1" d="M2.514 4.575 6.3 8.362l-.015.008-.014.007-.014.007-.015.007-.014.006-.014.006-.014.006-.014.005-.014.004-.014.005-.014.003-.013.004-.014.003-.013.002-.014.002-.013.002-.013.001h-.013l-.013.001h-.025l-.012-.002-.013-.001-.012-.002-.012-.003-.012-.003-.011-.003-.012-.004-.01-.005-.012-.005-.011-.005-.01-.006-3.787-3.786.01.006.012.005.01.005.012.004.012.004.011.004.012.003.012.002.012.002.012.002.013.001h.051l.013-.001.013-.002.014-.002.013-.003.014-.002.013-.004.014-.004.014-.004.014-.005.014-.005.014-.005.014-.006.014-.006.014-.007.015-.007.014-.008z"/><path id="_542709008" class="fil1" d="m2.099 4.616 3.786 3.786-.003-.002-.003-.002-.003-.002-.003-.002-.003-.002-.003-.002-.004-.002-.003-.003L2.074 4.6l.003.002.003.003.003.002.004.002.003.002.003.002.003.002z"/><path id="_542709104" class="fil1" d="M2.074 4.6 5.86 8.384l-.011-.008-.012-.01-3.786-3.786.011.01z"/><path id="_542708552" class="fil1" d="m2.92 2.388 3.786 3.786h-.003l-.002.001h-.004L2.91 2.39h.007z"/><path id="_542709488" class="fil1" d="M4.904 4.077 8.69 7.864l.002.022.002.021.001.022v.021l.001.021v.041l-.002.02v.02l-.003.019-.002.019-.003.018-.003.019-.003.017-.005.018-.004.017-.005.016-.005.016-.006.016-.006.015-.007.015-.007.014-.008.014-.008.013-.008.013-.009.012-.01.012-.01.011-.01.01-.01.011-.011.01-.012.008L4.753 4.6l.011-.009.012-.01.01-.01.01-.01.01-.011.01-.012.009-.012.008-.013.008-.013.008-.014.007-.014.006-.015.007-.015.006-.016.005-.016.005-.016.004-.017.004-.018.004-.018.003-.018.003-.018.002-.02.002-.019.001-.02.001-.02v-.082l-.001-.022-.002-.022z"/><path id="_542709944" class="fil1" d="m2.855 1.587 3.786 3.786-.004-.001-.004-.003-.003-.003L2.844 1.58l.003.003.004.002z"/><path id="_542709656" class="fil1" d="m3.889 2.472 3.786 3.786-.002.008-3.786-3.787z"/><path id="_542709776" class="fil1" d="M4.64 3.313 8.424 7.1l.014.024.014.025.013.025.013.024.013.025.012.025.012.025.012.025.01.024.011.025.01.025.01.024.01.025.01.024.009.025.008.024.008.024.008.025.007.024.007.023.007.024.006.024.006.023.006.024.005.023.004.023.005.022.004.023.003.022.003.022.003.022.002.022-3.786-3.787-.002-.021-.003-.022-.003-.022-.004-.022-.004-.023-.004-.023-.005-.023-.005-.023-.005-.023-.006-.023-.006-.024-.007-.024-.007-.024-.007-.024-.008-.024-.008-.024-.009-.024-.009-.025-.009-.024-.01-.025-.01-.025-.01-.024-.01-.025-.012-.025-.011-.024-.012-.025-.012-.025-.013-.025-.013-.025-.013-.024-.014-.025z"/><path id="_542709440" class="fil1" d="M4.39 2.983 8.178 6.77l.018.02.019.021.018.021.017.02.018.022.017.021.017.022.016.021.016.022-3.786-3.787-.016-.021-.017-.022-.016-.021-.017-.021-.018-.021-.018-.021-.018-.021-.018-.02z"/><path id="_637665808" class="fil1" d="M3.955 1.548c.013-.004.026.002.03.012.005.011-.001.023-.013.027a.746.746 0 0 0-.409.329c.02.005.04.013.06.02a.21.21 0 0 1 .002-.018.507.507 0 0 1 .154.094.44.44 0 0 1 .147.32.407.407 0 0 1-.004.057.118.118 0 0 1-.015-.002.418.418 0 0 1-.018.085l-.002.007a2.312 2.312 0 0 0-.025-.016.133.133 0 0 0-.023.054l.096.065c.207.147.443.36.612.59a1.98 1.98 0 0 1 .357.905c.024.237-.025.43-.151.522a.286.286 0 0 1-.025.017c-.114.065-.26.046-.415-.04a1.27 1.27 0 0 1-.298-.245 2.274 2.274 0 0 1-.021.138h.005a2.236 2.236 0 0 1-.085.296 1.34 1.34 0 0 1-.098.214c-.108.188-.249.301-.403.301.134 0 .26-.093.365-.25a1.08 1.08 0 0 0 .076-.133h-.881a1.265 1.265 0 0 0 .077.135c.105.156.23.248.363.248-.154 0-.294-.114-.402-.3a1.34 1.34 0 0 1-.138-.339 2.237 2.237 0 0 1-.045-.172h.005a2.272 2.272 0 0 1-.021-.138 1.27 1.27 0 0 1-.298.244c-.155.087-.302.106-.415.04a.286.286 0 0 1-.025-.016c-.127-.092-.175-.285-.151-.522a1.98 1.98 0 0 1 .357-.905A2.789 2.789 0 0 1 3 2.51a.084.084 0 0 0-.025-.053 2.306 2.306 0 0 0-.034.022.426.426 0 0 1-.02-.09.113.113 0 0 1-.01 0 .407.407 0 0 1 .007-.15.44.44 0 0 1 .175-.258.508.508 0 0 1 .115-.063l.002.017a.523.523 0 0 1 .054-.02.746.746 0 0 0-.408-.328c-.012-.004-.019-.016-.014-.027.004-.01.018-.016.03-.012a.763.763 0 0 1 .405.364.541.541 0 0 1 .274 0 .763.763 0 0 1 .405-.364z"/></g></g><path d="M3.413 0a3.413 3.413 0 1 1 0 6.827 3.413 3.413 0 0 1 0-6.827z" style="fill:none"/><path d="m2.939 2.43.48-.222.475.21c-.08.108-.047.085-.062.22L3 2.625c.002-.134.007-.148-.061-.196z" style="fill:#42250b"/><path d="M2.94 2.48a.426.426 0 0 1-.022-.134.43.43 0 0 1 .146-.32.52.52 0 0 1 .35-.131c.135 0 .259.05.348.13a.43.43 0 0 1 .125.454c-.128-.085-.352-.218-.474-.172-.121-.046-.345.087-.473.172z" style="fill:#522f0f;fill-rule:nonzero"/><path class="fil5" d="M2.91 2.39a.43.43 0 0 1 .143-.377.502.502 0 0 1 .154-.095.451.451 0 0 1-.066.264c-.066.12-.16.2-.23.207zM3.922 2.39a.43.43 0 0 0-.143-.377.502.502 0 0 0-.154-.095.451.451 0 0 0 .066.264c.067.12.16.2.23.207z"/><path class="fil6" d="M2.917 2.239a.44.44 0 0 1 .175-.258c.012.038.003.095-.03.15-.038.066-.098.109-.145.108zM3.915 2.239a.44.44 0 0 0-.175-.258c-.012.038-.002.095.03.15.038.066.098.109.145.108z"/><path class="fil7" d="M2.941 2.18a.226.226 0 0 1 .09-.133c.006.02.001.049-.015.077-.02.034-.05.056-.075.055zM3.89 2.18a.226.226 0 0 0-.089-.133c-.006.02-.001.049.015.077.02.034.05.056.075.055z"/><path class="fil8" d="M3.473 2.446z"/><path d="M3.854 4.897h-.881c.024.05.05.094.077.135.105.156.23.248.363.248.134 0 .26-.093.365-.25.027-.04.052-.085.076-.133zm-.477-1.36h.073a3.275 3.275 0 0 1-.037-.129 3.266 3.266 0 0 1-.036.129zm-.175.428h.422a2.16 2.16 0 0 1-.15-.352h-.121a2.161 2.161 0 0 1-.15.352zm-.31.428h1.042a2.008 2.008 0 0 1-.265-.352h-.511a2.3 2.3 0 0 1-.265.352zm.046.428h.95a2.01 2.01 0 0 0 .11-.352h-1.17c.028.13.066.247.11.352z" style="fill:#424242"/><ellipse cx="3.413" cy="4.022" rx=".621" ry="1.258" style="fill:#5d3512"/><path class="fil8" d="M3.32 2.446z"/><path class="fil11" d="m3.359 2.38.005.005c.065.047.068.385-.004.762-.054.28-.144.584-.275.81-.04.07-.084.137-.129.198a1.48 1.48 0 0 1-.442.42c-.155.087-.302.106-.415.04a.286.286 0 0 1-.025-.016c-.127-.092-.175-.285-.151-.522a1.98 1.98 0 0 1 .357-.905c.168-.23.405-.443.611-.59.216-.154.407-.236.468-.201z"/><path class="fil12" d="M3.343 2.476a.036.036 0 0 0-.05-.052 1.037 1.037 0 0 0-.188.269c-.051.1-.093.204-.13.296-.01.027-.034.032-.071.04-.03.006-.066.014-.112.032l-.046.02.013.032-.013-.033-.003.001a.12.12 0 0 0-.01.005s-.001 0 0 0 .002-.002 0-.002c-.016 0-.03.01-.034.025l-.002-.005c0 .006 0 .016.001.01L2.7 3.11l-.002-.005v-.002c-.017.006-.034.013-.043.027a.036.036 0 0 0-.013.017.986.986 0 0 0-.038.1c-.03.09-.058.17-.174.174-.053.002-.111.01-.152.016a.723.723 0 0 1-.04.005.036.036 0 0 0-.003.072c.01 0 .028-.003.054-.006.039-.006.096-.014.144-.016.165-.006.2-.106.239-.222.01-.029.02-.059.032-.087a.036.036 0 0 0 .013-.023l-.035-.005.035.005c.002-.012.003.01.007.009a.154.154 0 0 0 .025-.013c.007 0 .01-.002.018-.006a.113.113 0 0 1 .007-.003l.046-.019a.548.548 0 0 1 .1-.029c.06-.013.098-.02.123-.083a3.22 3.22 0 0 1 .127-.29.969.969 0 0 1 .174-.25z"/><path class="fil12" d="M2.955 3.097a.036.036 0 0 0-.071-.007c-.01.087-.007.246.008.399.012.128.032.253.061.327a.036.036 0 0 0 .067-.026 2.246 2.246 0 0 1-.065-.693z"/><path class="fil12" d="M2.952 3.572a.036.036 0 0 0-.06-.038l-.182.109c-.131.079-.306.183-.446.274-.084.055-.144.135-.187.191a.396.396 0 0 1-.044.054.036.036 0 0 0 .044.055.415.415 0 0 0 .057-.066.72.72 0 0 1 .17-.174c.141-.092.313-.195.443-.273.113-.068.196-.117.205-.132z"/><path class="fil12" d="M2.564 3.846a.036.036 0 0 0-.029-.065c-.001 0-.083.108-.129.215a.512.512 0 0 0-.034.108.178.178 0 0 0 .008.104c.01.025.03.044.058.056.046.02.055.043.063.065a.157.157 0 0 0 .031.056.036.036 0 1 0 .053-.048.101.101 0 0 1-.017-.033c-.014-.037-.028-.074-.102-.105a.039.039 0 0 1-.021-.02.112.112 0 0 1-.002-.063.44.44 0 0 1 .029-.092c.04-.093.092-.178.092-.178zM2.278 3.989a.036.036 0 0 0-.065-.029 1.198 1.198 0 0 0-.01.145 1.87 1.87 0 0 0-.003.14.036.036 0 1 0 .07-.01l.003-.128.005-.118z"/><path class="fil12" d="M2.493 4.26a.036.036 0 0 0-.058-.041l-.022.03a2.377 2.377 0 0 1-.197.22.036.036 0 0 0 .034.062 2.393 2.393 0 0 0 .222-.24l.021-.03zM2.566 3.449a.036.036 0 0 0-.04-.06c-.034.023-.122.12-.197.213a.673.673 0 0 0-.123.193.036.036 0 0 0 .07.01.703.703 0 0 1 .109-.159 1.43 1.43 0 0 1 .18-.197zM3.11 2.87a.036.036 0 0 0-.071-.006c-.003.033.01.142.03.237.015.078.035.15.055.171a.036.036 0 0 0 .053-.048.527.527 0 0 1-.038-.137 1.27 1.27 0 0 1-.03-.217z"/><path class="fil8" d="M3.507 2.446z"/><path class="fil11" d="M3.468 2.38a.067.067 0 0 0-.006.005c-.065.047-.067.385.005.762.053.28.144.584.275.81.04.07.084.137.129.198.14.192.295.338.442.42.154.087.301.106.415.04a.286.286 0 0 0 .025-.016c.126-.092.175-.285.151-.522a1.98 1.98 0 0 0-.357-.905 2.789 2.789 0 0 0-.612-.59c-.215-.154-.407-.236-.467-.201z"/><path class="fil12" d="M3.534 2.424a.036.036 0 1 0-.05.052.969.969 0 0 1 .174.25c.05.095.09.198.127.289.024.062.063.07.123.083a.548.548 0 0 1 .1.029l.046.019h.002c.002.002.003.003.005.003.007.004.01.006.017.006a.154.154 0 0 0 .025.013c.005.001.005-.021.007-.009l.035-.005-.035.005c.002.01.007.018.014.023.012.028.022.058.032.087.04.116.073.216.239.222.048.002.105.01.144.016.025.003.044.006.054.006a.036.036 0 1 0-.003-.072.723.723 0 0 1-.04-.005c-.04-.006-.1-.014-.153-.016-.116-.005-.142-.083-.173-.174a.986.986 0 0 0-.038-.1.036.036 0 0 0-.013-.017c-.01-.014-.026-.02-.042-.027l-.002.002-.002.005.002.005v-.01l-.002.005a.036.036 0 0 0-.034-.025v.002c.002 0 .001 0 0 0a.12.12 0 0 0-.012-.006l-.014.033.014-.033-.047-.019c-.045-.018-.081-.026-.111-.032-.038-.008-.061-.013-.072-.04a3.262 3.262 0 0 0-.13-.296 1.037 1.037 0 0 0-.187-.269z"/><path class="fil12" d="M3.943 3.09a.036.036 0 0 0-.071.007 2.246 2.246 0 0 1-.065.693.036.036 0 0 0 .066.026c.03-.074.05-.199.062-.327.015-.153.017-.312.008-.4z"/><path class="fil12" d="M3.935 3.534a.036.036 0 0 0-.06.038c.009.015.091.064.205.132.13.078.302.18.443.273a.72.72 0 0 1 .17.174c.022.03.04.053.056.066a.036.036 0 1 0 .045-.055.396.396 0 0 1-.044-.054c-.043-.056-.103-.135-.188-.19-.14-.092-.314-.196-.446-.275a46.034 46.034 0 0 1-.18-.109z"/><path class="fil12" d="M4.291 3.781a.036.036 0 0 0-.029.065c.001 0 .053.085.093.178a.44.44 0 0 1 .03.092.112.112 0 0 1-.003.063.039.039 0 0 1-.021.02c-.075.031-.089.068-.102.105a.101.101 0 0 1-.017.033.036.036 0 0 0 .052.048.157.157 0 0 0 .032-.056c.008-.022.016-.045.062-.065a.108.108 0 0 0 .059-.056.178.178 0 0 0 .007-.104.512.512 0 0 0-.034-.108 1.095 1.095 0 0 0-.129-.215zM4.614 3.96a.036.036 0 0 0-.065.029 42.577 42.577 0 0 1 .007.245.036.036 0 0 0 .07.01c.002-.01 0-.075-.002-.14a1.198 1.198 0 0 0-.01-.144z"/><path class="fil12" d="M4.392 4.219a.036.036 0 1 0-.059.041l.022.031a2.393 2.393 0 0 0 .222.24.036.036 0 0 0 .034-.062 2.377 2.377 0 0 1-.197-.219l-.022-.031zM4.3 3.39a.036.036 0 0 0-.039.06c.029.018.11.108.181.196a.703.703 0 0 1 .108.16.036.036 0 1 0 .071-.01.673.673 0 0 0-.123-.194A1.469 1.469 0 0 0 4.3 3.39zM3.788 2.864a.036.036 0 1 0-.071.006 1.27 1.27 0 0 1-.029.217.527.527 0 0 1-.038.137.036.036 0 0 0 .052.048.483.483 0 0 0 .056-.17c.02-.096.033-.205.03-.238z"/><path class="fil13" d="M3.413 4.7a1.91 1.91 0 0 0-.498.064h-.003c.029.08.062.152.099.215l.005-.001a1.938 1.938 0 0 1 .795 0l.005.001a1.34 1.34 0 0 0 .098-.214h-.002a1.91 1.91 0 0 0-.499-.066zM3.413 4.184a1.944 1.944 0 0 0-.54.077c-.02.024-.04.048-.061.07a2.274 2.274 0 0 0 .029.178 1.93 1.93 0 0 1 1.145 0 2.17 2.17 0 0 0 .029-.178 1.822 1.822 0 0 1-.062-.07 1.944 1.944 0 0 0-.54-.076zM3.218 3.669a1.98 1.98 0 0 1-.113.252 1.923 1.923 0 0 1 .617 0 1.98 1.98 0 0 1-.113-.252 1.97 1.97 0 0 0-.391 0zM3.353 3.184c-.016.079-.035.16-.057.24.037-.002.076-.003.114-.003h.007l.114.003a3.602 3.602 0 0 1-.057-.24 1.998 1.998 0 0 0-.121 0z"/><path class="fil14" d="M3.972 1.587c-.19.055-.459.278-.441.472l.009.046-.012-.046c-.032-.2.234-.444.427-.511.013-.004.026.002.03.012.005.011-.001.023-.013.027zM2.855 1.587c.19.055.458.278.44.472l-.008.046.012-.046c.032-.2-.234-.444-.428-.511-.012-.004-.026.002-.03.012-.005.011.002.023.014.027z"/></g></svg>