<svg xmlns="http://www.w3.org/2000/svg" xml:space="preserve" width="655.359" height="655.359" style="shape-rendering:geometricPrecision;text-rendering:geometricPrecision;image-rendering:optimizeQuality;fill-rule:evenodd;clip-rule:evenodd" viewBox="0 0 6.827 6.827"><defs><clipPath id="id0"><path d="M3.413 0a3.413 3.413 0 1 1 0 6.827 3.413 3.413 0 0 1 0-6.827z"/></clipPath><style>.fil1{fill:#bdbdbd}.fil3,.fil4,.fil6{fill:#3e2723;fill-rule:nonzero}.fil4,.fil6{fill:#876153}.fil4{fill:#d49a74}</style></defs><g id="Layer_x0020_1"><path d="M3.413 0a3.413 3.413 0 1 1 0 6.827 3.413 3.413 0 0 1 0-6.827z" style="fill:#e0e0e0"/><g style="clip-path:url(#id0)"><g id="_637666144"><path id="_5427099201" class="fil1" d="m2.806 1.908 3.787 3.786.005.008.006.009.006.008.006.008.005.008.006.009.005.008.006.008.006.009.005.008.005.009.006.008.005.008.006.009.005.008.005.009.006.008.005.008.006.009.005.008.005.008.005.009.006.008.005.008.005.008.006.009.005.008.005.008.006.008.005.008.005.007.006.008L2.98 2.172l-.005-.008-.005-.008-.006-.008-.005-.008-.005-.008-.006-.008-.005-.008-.005-.008-.006-.008-.005-.009-.005-.008-.005-.008-.006-.008-.005-.009L2.9 2.05l-.006-.009-.005-.008-.006-.008-.005-.009-.005-.008-.006-.009-.005-.008-.006-.009-.005-.008-.006-.008-.005-.009-.006-.008-.006-.008-.005-.008-.006-.009-.006-.008z"/><path id="_542709512" class="fil1" d="m4.149 3.402 3.786 3.786.008.01.007.012.008.01.008.011.008.011.008.011.007.01.008.012.008.01.008.011.008.011.008.011.007.011.008.011.008.011.008.01.007.012.008.01.008.012.007.01.008.012.008.01.007.012.008.01.007.012.008.01.007.012.008.011.007.011.008.011.007.012.007.01-3.786-3.785-.007-.012-.008-.01-.007-.012-.007-.011-.008-.011-.007-.011-.008-.011-.007-.011-.008-.012-.008-.01-.007-.012-.008-.01-.007-.012-.008-.01-.008-.011-.008-.011-.007-.011-.008-.011-.008-.011-.008-.011-.008-.01-.007-.012-.008-.01-.008-.012-.008-.01-.008-.011-.007-.011-.008-.011-.008-.01-.008-.012-.008-.01z"/><path id="_542710040" class="fil1" d="M4.394 3.753 8.18 7.539l.003.004.003.005.004.005.004.007.005.007.005.008.006.008.006.009.006.01.007.01.007.01.006.01.007.01.007.011.007.01.007.012.007.01.007.011.006.01.006.011.006.01.005.01.005.01.005.008.004.008.003.008.003.007.002.006.001.006V7.8L4.542 4.014l.001-.002V4.003l-.002-.005-.002-.006-.002-.007-.004-.008-.004-.008-.004-.01-.005-.008-.005-.01-.006-.01-.006-.01-.007-.011-.006-.01-.007-.012-.007-.01-.007-.011-.007-.011-.007-.01-.007-.011-.006-.01-.007-.01-.006-.01-.006-.008-.006-.009-.005-.007-.005-.008-.005-.006-.003-.006-.004-.004z"/><path id="_542711096" class="fil1" d="m4.543 4.014 3.786 3.787-.003.002-.004.001-.004.002-.004.002-.004.001-.004.002-.005.002-.005.001-.005.002-.005.001-.005.002-.006.001-.005.002-.006.001-.006.002-.007.001L4.465 4.04l.006-.002.006-.001.006-.001.006-.002.006-.001.005-.002.005-.001.005-.002.005-.002.004-.001.005-.002.004-.001.004-.002.004-.002.003-.002z"/><path id="_542711336" class="fil1" d="m4.465 4.04 3.786 3.786.008.008.007.008.007.008.008.009.007.008.007.008.007.009.008.008.007.008.007.009.007.008.007.009.007.008.007.009.007.008.007.009.006.008.007.009.007.008.007.008.006.009.007.008.007.009.006.008.007.009.006.008.006.008.007.008.006.009.006.008.007.008.006.008-3.787-3.786-.006-.008-.006-.009-.006-.008-.006-.008-.007-.008-.006-.008-.007-.009-.006-.008-.007-.009-.006-.008-.007-.008-.007-.009L4.6 4.2l-.007-.009-.007-.008-.007-.009-.007-.008-.007-.009-.006-.008-.007-.009-.007-.008-.008-.009-.007-.008-.007-.008-.007-.009-.007-.008-.007-.008-.008-.009-.007-.008-.007-.008-.007-.008z"/><path id="_542710832" class="fil1" d="M4.683 4.307 8.47 8.093l.009.012.009.011.009.012.01.012.009.011.009.012.01.012.009.012.01.011.01.012.009.012.01.012.009.012.01.012.01.012.009.012.009.012.01.012.009.012.009.012.009.013.009.012.009.012.009.012.008.013.008.012.009.013.008.012.008.013.007.012.008.013.007.013L4.97 4.693l-.007-.012-.007-.013-.008-.013-.008-.012-.008-.013-.008-.012-.008-.013-.009-.012-.008-.012-.01-.013-.008-.012-.01-.012-.009-.012-.009-.012-.01-.012-.009-.012-.01-.012-.009-.012-.01-.012-.009-.012-.01-.012-.01-.012-.009-.012-.01-.012-.009-.011-.01-.012-.009-.012-.01-.012-.008-.011-.01-.012-.009-.012z"/><path id="_542711480" class="fil1" d="M4.97 4.693 8.757 8.48l.006.01.007.013.006.012.007.012.007.012.007.013.007.013.007.013.007.014.007.013.007.014.006.014.007.014.007.014.006.014.006.015.006.014.005.015.005.014.005.015.005.014.004.015.003.014.004.015.002.014.002.015.002.014.001.014v.042l-.002.013L5.12 5.132l.001-.013.001-.014v-.028l-.001-.014-.002-.015-.002-.014-.003-.014-.003-.015-.004-.014-.004-.015-.004-.014-.005-.015-.005-.015-.006-.014-.005-.014-.006-.015-.007-.014-.006-.014-.007-.014-.007-.014-.006-.014-.007-.014-.007-.013-.007-.013-.007-.013-.007-.013-.007-.012-.007-.013-.007-.012-.006-.011z"/><path id="_542711288" class="fil1" d="m2.055 2.3 3.786 3.787-.002.002-.002.003-.003.005-.005.005-.004.006-.006.007-.006.009-.007.008-.007.01-.008.01-.008.01-.01.012-.008.012-.01.012-.008.012-.01.012-.01.013-.01.013-.009.012-.01.013-.009.013-.009.012-.008.012-.01.011-.007.012-.008.01-.007.01-.007.01-.006.009-.006.008-.004.007L1.83 2.601l.005-.007.006-.008.006-.01.006-.009.008-.01.008-.01.008-.012.008-.011.01-.012.008-.013.01-.012.009-.013.01-.013.01-.012.009-.013.01-.012.009-.013.009-.012.009-.011.008-.011.009-.011.007-.01.008-.01.006-.009.007-.008.005-.007.005-.006.004-.006.004-.004.002-.003.001-.002z"/><path id="_542711000" class="fil1" d="m1.83 2.6 3.787 3.787-.005.007-.004.007-.005.007-.005.006-.005.007-.005.007-.005.006-.005.007-.006.007-.005.006-.005.006-.005.006-.005.006-.005.006-.005.006-.005.005-.004.006-.005.005-.004.004-.004.005-.004.004-.003.004-.004.004-.003.003-.003.003-.002.003-.002.002-.002.002-.002.001v.001l-.001.001-3.787-3.786h.001l.001-.002.001-.001.002-.002.002-.003.003-.002.003-.003.003-.004.003-.003.004-.004.004-.004.004-.005.004-.005.005-.005.004-.005.005-.005.005-.006.005-.006.005-.006.005-.006.005-.006.005-.007.005-.006.005-.007.006-.006.005-.007.005-.007.004-.007.005-.007.005-.006z"/><path id="_542711504" class="fil1" d="m4.032 4.098 3.786 3.786-.003.006-.003.007-.003.006-.003.006-.003.006-.003.006-.004.006-.003.006-.004.006-.004.005-.004.006-.004.006-.004.005-.004.005-.004.006-.005.005-.004.005-.004.005-.005.005-.005.005-.005.005-.004.004-.005.005-.005.004-.005.004-.006.005-.005.004-.005.004-.005.003-.006.004-.005.003-.006.004-3.786-3.787.005-.003.006-.003.005-.004.006-.004.005-.004.005-.004.005-.004.005-.004.005-.004.005-.005.005-.005.005-.004.005-.005.004-.005.005-.005.004-.005.005-.005.004-.006.004-.005.004-.006.004-.005.004-.006.004-.006.003-.005.004-.006.003-.006.004-.006.003-.006.003-.006.003-.007.003-.006z"/><path id="_542711168" class="fil1" d="m1.967 2.643 3.786 3.786-.004.001-.005.002-.004.002-.005.001-.005.002-.005.002-.005.002-.005.001-.005.002-.006.002-.005.002-.006.002-.005.002-.006.002-.005.002-.005.002-.006.002-.005.002-.006.002-.005.002-.005.002-.005.002-.005.002-.005.002-.005.002-.005.002-.004.002-.004.002-.005.002-.004.001-.003.002-.004.002L1.81 2.702l.003-.001.004-.002.004-.002.004-.001.005-.002.004-.002.005-.002.005-.002.004-.002.005-.002.006-.002.005-.002.005-.002.005-.002.006-.002.005-.002.006-.002.005-.002.006-.002.005-.002.006-.002.005-.002.005-.002.006-.002.005-.002.005-.002.005-.001.005-.002.004-.002.005-.001.005-.002z"/><path id="_542711360" class="fil1" d="M1.81 2.702 5.596 6.49l-.01.004-.01.005-.01.005-.01.004-.008.005-.009.004-.008.004-.008.004-.007.003-.006.004-.006.002-.005.003-.003.002-.003.001-.002.001-3.787-3.786.003-.001.002-.002.004-.001.005-.003.005-.003.007-.003.007-.003.007-.004.009-.004.008-.004.01-.005.009-.004.01-.005.01-.005z"/><path id="_542711120" class="fil1" d="m3.455 4.36 3.786 3.786H7.24l-.002.001-.002.001h-.002l-.002.001h-.016L3.43 4.363h.018l.002-.001h.002l.002-.002z"/><path id="_542711264" class="fil1" d="M3.429 4.362 7.215 8.15h-.006L3.423 4.362h.005z"/><path id="_542712296" class="fil1" d="M3.423 4.362 7.209 8.15h-.004L3.42 4.361z"/><path id="_542712008" class="fil1" d="m3.419 4.362 3.786 3.786H7.17l-.005.001H7.121l-.004-.001H7.104l-.005-.001H7.086l-.004-.001H7.073l-.004-.001h-.005L3.278 4.357H3.287l.004.001H3.3l.004.001H3.313l.004.001H3.335l.004.001H3.414z"/><path id="_542711552" class="fil1" d="m3.278 4.358 3.786 3.786-.001.005-.002.005-.002.005-.003.004-.004.005-.004.005-.005.005-.005.005-3.786-3.786.005-.005.005-.005.004-.005.003-.005.003-.005.003-.004.002-.005z"/><path id="_542711792" class="fil1" d="M3.204 4.372 6.99 8.158l-.005-.001h-.016l-.005-.002-3.787-3.786.005.001H3.2z"/><path id="_542711720" class="fil1" d="m3.111 4.348 3.787 3.786h-.003l-.002-.001h-.002v-.001h-.002l-.002-.001h-.003L3.098 4.343h.003l.002.001h.002v.001h.002l.002.001z"/><path id="_542712200" class="fil1" d="m3.056 4.317 3.786 3.786-.005-.001-.005-.002-.005-.001-.006-.002-.005-.001-.005-.002-.005-.001L6.8 8.09l-.005-.001-.005-.002-.005-.002-.006-.001-.005-.002-.005-.002-.005-.001-.006-.002-.005-.002-.005-.001-.005-.002-.006-.002-.005-.002-.005-.001-.005-.002-.005-.002-.006-.002-.005-.002-.005-.001-.005-.002-.005-.002-.005-.002-.006-.002-.005-.002L2.89 4.263l.005.002.005.002.005.002.006.001.005.002.005.002.005.002.005.002.006.002.005.001.005.002.005.002.005.002.006.001.005.002.005.002.005.001.006.002.005.002.005.001.005.002.005.002.006.001.005.002.005.001.006.002.005.002.005.001.005.002.006.001.005.001z"/><path id="_542712176" class="fil1" d="m2.889 4.263 3.786 3.786V8.062l-.002.003v.003l-.002.003-.001.003-.002.003-.002.003-.002.003-.002.004-.002.003-.003.003-.003.003-.003.002-3.786-3.786.003-.003.003-.003.003-.003.002-.003.002-.003.002-.003.002-.003.002-.003v-.003l.002-.003.001-.004v-.003l.001-.003v-.006z"/><path id="_542712080" class="fil1" d="m2.725 4.197 3.786 3.786-.005-.002-.005-.002-.005-.003-.005-.002-.005-.002-.005-.002-.005-.002-.005-.003-.005-.002-.005-.002-.005-.002-.005-.003-.005-.002-.005-.002-.005-.002-.005-.002-.005-.003-.006-.002-.005-.002-.005-.002-.005-.003-.005-.002-.005-.002-.005-.002-.005-.003-.005-.002-.005-.002-.005-.003-.005-.002-.005-.002-.005-.002-.005-.003-3.786-3.786.005.002.005.003.005.002.005.002.005.002.005.003.005.002.005.002.005.002.005.003.005.002.005.002.005.002.005.003.005.002.005.002.005.002.005.003.005.002.005.002.005.002.006.003.005.002.005.002.005.002.005.003.005.002.005.002.005.002.005.002.005.003z"/><path id="_542711600" class="fil1" d="M2.724 4.263 6.511 8.05l-.003-.001h-.002l-.001-.001h-.002l-.001-.001H6.5l-.003-.001-3.786-3.787.003.001h.002v.001h.002l.002.001h.001z"/><path id="_542711888" class="fil1" d="M2.564 4.125 6.35 7.911 6.324 7.9l-.026-.012-.026-.014-.025-.014-.026-.015-.025-.016-.025-.016-.025-.017-.025-.017-.024-.018-.024-.019-.024-.02-.023-.019-.022-.02-3.786-3.787.022.02.023.02.024.02.024.018.024.019.024.017.025.017.025.016.026.016.025.014.026.015.026.013.026.013z"/><path id="_542712248" class="fil1" d="m2.71 4.26 3.787 3.786-.006.005-.006.005-.006.006-.005.006-.005.006-.005.007-.004.006-.005.007-.003.008-.004.007-.004.007-.003.008-.003.008-.002.008-.003.008-.002.008-.002.008-.001.008-.002.008-.001.008-.001.009-.001.008v.008l-.001.009v.048l.001.007.001.008-3.786-3.787-.001-.007v-.008l-.001-.007v-.057l.002-.009v-.008l.002-.008.001-.008.002-.009.002-.008.002-.008.003-.008.002-.008.003-.007.003-.008.004-.007.003-.008.004-.007.004-.007.005-.007.005-.006.005-.006.005-.006.006-.006.006-.006z"/><path id="_542713064" class="fil1" d="m2.816 4.287 3.787 3.786h-.005l-.004-.001H6.581l-.005-.002L2.79 4.284l.005.001h.016z"/><path id="_542712944" class="fil1" d="M2.79 4.284 6.576 8.07l-.005.006-.005.005-.005.006-.005.006-.004.006-.004.006-.004.007-.004.006-.004.007-.003.007-.003.007-.003.007-.003.007-.002.007-.002.007-.003.008-.001.007-.002.008-.002.007-.001.008-.001.008-.001.007v.008l-.001.007v.016l-.001.007v.015l.001.007v.008l.001.007-3.786-3.787v-.007l-.001-.007v-.007l-.001-.008v-.03l.001-.007v-.008l.002-.008V4.42l.002-.008.002-.007.001-.008.002-.007.002-.008.003-.007.002-.007.003-.008.003-.007.003-.007.003-.006.004-.007.003-.007.004-.006.005-.006.004-.006.005-.006.005-.006.005-.006z"/><path id="_542712560" class="fil1" d="M2.865 4.312 6.65 8.098l-.006.006-.005.006-.005.005-.004.007-.004.006-.004.006-.004.007-.003.007-.002.007-.003.007-.002.008-.002.007-.001.008-.002.008V8.2l-.002.007v.016l-.001.009V8.313l.001.007v.015L2.817 4.55V4.51l-.001-.008V4.43l.001-.008.001-.008.001-.008.002-.007.001-.008.002-.007.002-.008.002-.007.003-.007.003-.007.004-.007.003-.006.004-.007.005-.006.005-.006.005-.005z"/><path id="_542712872" class="fil1" d="m2.816 4.549 3.787 3.786v.005l-.002.004-.002.004-.003.003-.003.002-.004.002h-.004l-.004.001h-.004l-.004-.001-.003-.002-.004-.002L2.78 4.565l.003.002.004.001.004.001h.012l.004-.002.003-.002.002-.003.003-.004v-.004z"/><path id="_542712584" class="fil1" d="M3.098 4.344 6.884 8.13l-.006.005-.006.006-.006.006-.005.006-.005.006-.005.006-.004.007-.004.007-.004.007-.004.007-.003.008-.003.008-.003.007-.003.008-.002.008-.003.008-.002.008-.001.009-.002.008-.001.008-.001.008v.009l-.002.008v.056l.001.008.001.007-3.786-3.786v-.007l-.002-.008v-.065l.002-.008v-.008l.002-.008.002-.009.001-.008.002-.008.002-.008.003-.008.002-.008.003-.008.003-.007.004-.008.003-.007.004-.007.005-.007.004-.007.005-.006.005-.007.005-.006.006-.005.006-.006z"/><path id="_542712992" class="fil1" d="m3.177 4.369 3.787 3.786-.006.005-.005.006-.005.006-.004.005-.005.007-.004.006-.004.006-.004.007-.003.007-.004.006-.003.007-.003.007-.002.008-.003.007-.002.007-.002.008-.002.007-.002.007-.001.008-.002.008v.007l-.002.008v.007l-.001.008v.052l.002.007L3.11 4.593v-.007l-.001-.007v-.015l-.001-.008v-.022l.001-.008V4.52l.002-.008v-.008l.002-.007.002-.008.001-.007.002-.008.002-.007.003-.007.002-.008.003-.007.003-.007.003-.007.003-.007.004-.006.004-.007.004-.006.004-.007.004-.006.005-.006.005-.005.005-.006z"/><path id="_542712344" class="fil1" d="M2.723 4.508 6.51 8.295V8.304l-.002.003-.002.003-.003.002-.004.002-.004.001h-.008l-.004-.001-.004-.002-.003-.002-3.786-3.786.003.002.004.002H2.7l.004.001h.004l.004-.001.003-.002.003-.002.003-.003.001-.003.001-.005z"/><path id="_542712416" class="fil1" d="M3.025 4.583 6.811 8.37V8.378l-.002.004-.003.003-.003.002-.003.002h-.016l-.004-.002-.003-.002L2.99 4.598l.004.003.004.001.004.001h.012l.003-.002.003-.002.003-.003.001-.004.001-.004z"/><path id="_542712488" class="fil1" d="M3.11 4.593 6.897 8.38v.005l-.001.004-.002.004-.002.003-.003.002-.004.002h-.003l-.004.001h-.005l-.004-.001-.003-.002-.004-.002-3.786-3.786.003.002.004.001.004.001H3.1l.004-.002.003-.002.002-.003.002-.004v-.004z"/><path id="_542712824" class="fil1" d="m2.638 4.498 3.786 3.787V8.294l-.002.003-.003.003-.003.002-.003.002-.004.001h-.008l-.004-.001-.004-.002L6.39 8.3 2.603 4.514l.004.002.004.002h.004l.004.001h.004l.004-.001.003-.002.003-.002.002-.003.002-.004.001-.004z"/><path id="_542713568" class="fil1" d="m3.252 4.397 3.786 3.786-.006.005-.005.006-.005.006-.004.006-.004.007-.004.006-.003.007-.003.007L7 8.24l-.002.007-.003.007-.001.008-.002.008-.001.007-.001.008-.001.008-.001.008v.008l-.001.008V8.39l.001.008v.023L3.204 4.634v-.039l-.001-.008V4.515l.001-.008.001-.008.001-.008.002-.008.001-.007.002-.008.002-.007.003-.007.002-.007.003-.007.004-.007.003-.007.005-.006.004-.006.005-.006.005-.006z"/><path id="_542713352" class="fil1" d="M3.203 4.634 6.99 8.42v.005l-.002.004-.002.004-.003.002-.003.003-.004.001-.004.001H6.96l-.003-.002-.004-.003L3.167 4.65l.003.002.004.002.004.001h.012l.004-.003.003-.002.003-.003.002-.003.001-.005z"/><path id="_542713400" class="fil1" d="M3.894 4.26 7.68 8.045l-.011.006-.012.007-.011.005-.012.006-.012.005-.012.005-.012.005-.012.004-.012.004-.012.004-.013.003-.012.003-.012.003-.013.003-.012.003-.013.002-.012.003-.013.002-.013.002-.012.002-.013.002-.013.002-.013.001-.013.002-.012.001-.013.002-.013.001-.013.002-.013.001-.013.002-.013.001-.013.002-3.786-3.787.013-.001.013-.002.013-.001.013-.002.012-.001.013-.001.013-.002.013-.002.013-.001.013-.002.013-.002.012-.001.013-.002.013-.002.012-.002.013-.003.013-.002.012-.003.012-.003.013-.003.012-.003.012-.004.013-.003.012-.004.012-.005.012-.004.012-.005.011-.005.012-.006.012-.006.011-.006z"/><path id="_542713736" class="fil1" d="m3.496 4.355 3.786 3.787h-.005l-.005.001h-.005l-.006.001h-.005l-.005.001h-.01L3.455 4.36h.005l.005-.001h.005l.005-.001h.005l.005-.001h.005z"/><path id="_542713160" class="fil1" d="m5.12 5.132 3.786 3.786v.005l-.002.005v.005l-.002.005-.001.005-.002.005-.002.005-.002.004-.002.005-.002.005-.002.005-.002.004-.003.005-.003.004-.003.005-.002.004-.004.004-.003.004-.003.005-.003.004-.004.003-.003.004-.004.004-.004.004-.004.003-.004.003-.004.004-.004.003-.004.003-.005.002-.004.003-.004.002-3.787-3.786.005-.002.004-.003.004-.003.005-.003.004-.003.004-.003.004-.003.004-.004.004-.003.003-.004.004-.004.003-.004.004-.004.003-.004.003-.004.003-.004.003-.005.003-.004.003-.005.002-.004.003-.005.002-.004.002-.005.002-.005.002-.005.002-.005.001-.004.002-.005.001-.005.001-.005.001-.005z"/><path id="_542713208" class="fil1" d="M5.028 5.263 8.815 9.05l-.01.005-.009.004-.009.003-.009.002-.008.002h-.01l-.008.001h-.017l-.008-.002-.009-.001-.008-.002-.008-.003-.008-.003-.008-.003-.008-.004-.008-.004-.007-.005-.008-.004-.007-.005-.008-.006-.007-.005-.007-.006-.007-.006-.007-.005-.007-.007L8.6 8.99l-.007-.006-3.786-3.786.007.006.006.006.007.006.007.006.007.006.007.006.007.005.007.005.008.005.007.005.008.005.008.004.008.003.008.004.008.003.008.002.008.002.008.002.009.001h.008l.009.001h.008l.01-.002.008-.001.009-.003.009-.003.01-.003z"/><path id="_542713232" class="fil1" d="M3.062 1.61 6.85 5.396l.003.004.002.004.001.003v.007l-.003.003-.002.003-.004.003-.005.002-.005.002-.006.002-.007.002h-.008l-.008.001h-.009L3.012 1.646h.017l.008-.002.007-.001.006-.002.005-.002.005-.002.003-.003.003-.003.002-.003.001-.003V1.62l-.001-.004-.002-.003z"/><path id="_542713592" class="fil1" d="m3.012 1.646 3.786 3.786h-.036l-.01.001H6.725l-.009.001h-.009l-.009.001-.008.001H6.68l-.008.002h-.009l-.008.002h-.008l-.008.002-.008.001-.007.002-.007.002-.008.001-.006.002-.007.002-.006.002-.006.003-.006.002-.006.003-.005.003-.005.003-.004.003-.005.003-3.786-3.786.004-.004.005-.003.005-.003.005-.002.005-.003.006-.003.006-.002.007-.002.006-.002.007-.002.007-.002.008-.001.007-.002.008-.001.008-.001.008-.002h.008l.008-.002h.009l.008-.001h.01l.008-.001.009-.001h.018l.01-.001H3.002z"/><path id="_542713328" class="fil1" d="m2.768 1.688 3.786 3.786-.007.006-.006.007-.004.005-.003.006-.003.005v.004l-.001.004v.007l.002.003.001.003.002.002.001.001L2.75 1.741l-.001-.002-.002-.002-.001-.002-.001-.003-.001-.003V1.72l.001-.005.002-.004.004-.006.004-.006.006-.006z"/><path id="_542713616" class="fil1" d="m3.151 1.827 3.786 3.787.004.004.003.004.003.004.002.004.002.003.001.004.001.003v.011l-.001.002-.002.002-.001.001-.002.001-.002.001-.002.001h-.008L3.15 1.874h.01l.002-.002.002-.001.001-.002.001-.001.001-.003v-.002l.001-.002v-.006l-.001-.003-.001-.004-.002-.003-.002-.004-.003-.004-.003-.004z"/><path id="_542713688" class="fil1" d="M3.149 1.873 6.935 5.66h-.003l-.003-.001h-.004l-.005-.001h-.005l-.006-.001h-.006l-.007-.001H6.89l-.007-.001h-.008l-.008-.001h-.087l-.011.002h-.011l-.011.002h-.012l-.01.002-.012.002-.012.002-.011.002-.012.002-.011.003-.012.003-3.786-3.786.011-.003.012-.003.011-.002.012-.002.011-.002.012-.002.011-.001.011-.002h.012l.01-.002h.011l.011-.001h.02l.01-.001h.047l.008.001h.008l.007.001h.007l.007.001h.006l.006.001h.005l.004.001h.008z"/><path id="_542714216" class="fil1" d="m2.868 1.888 3.786 3.786-.004.001-.004.001-.005.001-.004.002h-.004l-.004.002-.004.001-.003.002h-.004l-.004.002-.004.002h-.003l-.004.002-.004.002h-.003l-.003.002-3.787-3.786.004-.001.003-.002.004-.001.003-.001.004-.002.004-.001.003-.001.004-.002h.004l.004-.002.004-.001.004-.002h.004l.004-.002.005-.001z"/><path id="_542714504" class="fil1" d="m2.98 2.172 3.787 3.786.008.012.009.012.008.012.01.012.008.011.01.012.009.011.01.011.009.011.01.011.009.011.01.011.01.01.01.011L3.11 2.33l-.01-.01-.01-.011-.01-.011-.01-.01-.01-.012-.01-.01-.009-.012-.009-.011-.009-.012-.009-.011-.009-.012-.009-.012-.008-.012z"/><path id="_542714528" class="fil1" d="m3.336 2.54 3.787 3.786.005.005.005.005.004.006.005.005.005.005.004.006.005.005.004.006.004.005.005.006-3.787-3.786-.004-.006-.004-.005-.005-.006-.004-.005-.005-.006-.004-.005-.005-.006-.005-.005-.005-.005z"/><path id="_542714000" class="fil1" d="m3.778 2.938 3.786 3.786.012.014.013.013.012.014.013.014.012.014.012.014.012.014.012.014.012.014.012.014.012.015.012.014.012.014.011.015.012.014.012.015.011.015.012.014.011.015.012.015.01.015.012.014.011.015.012.015.01.015.012.015.01.015.012.015.01.015.011.015.011.015.011.015-3.786-3.786-.011-.015-.01-.015-.012-.015-.01-.015-.012-.015-.01-.015-.012-.015-.01-.015-.012-.015-.011-.015-.011-.015-.012-.015-.011-.014-.012-.015-.011-.015-.012-.014-.011-.015-.012-.014-.012-.015-.011-.014-.012-.015-.012-.014-.012-.014-.012-.014-.012-.014-.012-.014-.012-.014-.013-.014-.012-.014-.012-.014-.013-.014z"/><path id="_542714024" class="fil1" d="M3.734 2.892 7.52 6.678l.011.011.011.012.011.012.01.011-3.785-3.786-.011-.012-.011-.011-.011-.012z"/><path id="_637666216" class="fil1" d="M3.778 2.938c.133.144.256.303.37.464.083.115.169.23.246.35.024.038.166.239.149.263a.294.294 0 0 1-.078.025c.079.086.153.18.218.267.095.124.212.25.287.386.067.12.17.295.15.44a.183.183 0 0 1-.092.13c-.098.052-.183-.025-.247-.091-.137-.143-.253-.327-.363-.49l-.346-.516c-.016-.023-.028-.046-.04-.068a.35.35 0 0 1-.138.161c-.122.073-.26.08-.398.096a.97.97 0 0 1-.073.007h-.004c-.048.002-.095 0-.141-.004a.077.077 0 0 1-.026.039c-.064.056-.05.158-.049.237 0 .027-.042.027-.043 0-.001-.09-.019-.196.044-.262-.016-.005-.01.001-.027-.003-.058.055-.076.148-.067.224.004.028-.04.027-.043 0-.01-.08-.008-.18.044-.245l-.013-.004c-.068.053-.083.16-.073.24.003.027-.04.026-.043 0-.018-.142.02-.225.074-.267a1.963 1.963 0 0 1-.167-.054c0 .016-.007.034-.024.05-.064.055-.05.157-.049.236 0 .028-.043.028-.043 0-.001-.09-.019-.195.043-.262-.016-.004-.01.002-.026-.003-.058.056-.076.148-.067.224.004.028-.04.028-.043 0-.01-.08-.008-.18.044-.245l-.013-.004c-.069.054-.083.16-.073.24.003.027-.04.027-.043 0-.014-.11.025-.266.13-.302l-.16-.072c-.279-.125-.553-.375-.632-.673a1.49 1.49 0 0 1-.02-.57c.005-.023.013-.046.02-.069a.336.336 0 0 1 .015-.1.17.17 0 0 0 0-.006h.002a1.764 1.764 0 0 0 .017-.064c-.045.015-.12.042-.157.06l-.106.051c.145-.137.236-.292.351-.454 0 0-.178.229-.225.3-.046.073-.123.151-.123.151s-.005-.112.013-.249a.976.976 0 0 1 .058-.229.199.199 0 0 1-.018-.094.535.535 0 0 1 .44-.53.899.899 0 0 1 .175-.009.679.679 0 0 1 .42-.091c.314.022.314.097.217.097s-.2.006-.244.042c-.043.036-.016.055-.016.055s.17-.04.303.022c.134.061.123.112.094.108a.799.799 0 0 0-.281.015.533.533 0 0 0-.062.02c.063.087.117.181.174.264.09.13.205.235.325.338.03.025.055.054.077.084l.012.007c.144.092.269.213.384.337z"/></g></g><path d="M3.413 0a3.413 3.413 0 1 1 0 6.827 3.413 3.413 0 0 1 0-6.827z" style="fill:none"/><path class="fil3" d="M2.816 4.287c-.016-.004-.01.002-.026-.003-.058.056-.076.148-.067.224.004.028-.04.028-.043 0-.01-.08-.008-.18.044-.245l-.013-.004c-.069.054-.083.16-.073.24.003.027-.04.027-.043 0-.018-.142.052-.358.237-.3.052.016.08.071.033.113-.064.056-.05.158-.049.237 0 .028-.043.028-.043 0-.001-.09-.019-.195.043-.262z"/><path class="fil4" d="M4.327 3.904c.128.11.254.268.356.403.095.124.212.25.287.386.067.12.17.295.15.44a.183.183 0 0 1-.092.13c-.098.052-.183-.025-.247-.091-.137-.143-.253-.327-.363-.49l-.346-.516c-.034-.05-.052-.099-.091-.146-.02-.024-.056-.055-.067-.082-.03-.077.082-.1.137-.11.086-.015.176-.025.276.076z"/><path d="M1.947 2.707c.006.059-.021.118-.033.175a1.49 1.49 0 0 0 .02.57c.078.298.352.548.63.673.294.133.6.271.932.23.138-.016.276-.023.398-.096.125-.073.206-.255.144-.39a2.598 2.598 0 0 0-.751-.939c-.151-.116-.31-.243-.478-.335-.184-.101-.313-.104-.506-.049-.093.027-.199.054-.27.123l-.086.038z" style="fill:#ebbfa1;fill-rule:nonzero"/><path class="fil6" d="M2.334 1.671s.148-.144.462-.122c.313.021.313.097.216.097s-.2.006-.244.042c-.043.036-.016.055-.016.055s.17-.04.303.022c.134.061.123.112.094.108a.799.799 0 0 0-.281.015c-.123.032-.177.09-.177.09l-.357-.307z"/><path class="fil4" d="M2.793 2.91c-.067-.026-.18.03-.246.05a.523.523 0 0 1-.153.03.523.523 0 0 1-.13-.014c-.034-.01-.052-.028-.09-.028-.088-.003-.132.028-.203-.047-.065-.068-.034-.142-.014-.223.031-.125.103-.263.105-.393-.036-.006-.07.022-.105.029a.364.364 0 0 1-.086.004c-.09-.004-.11-.05-.111-.14a.535.535 0 0 1 .44-.53c.159-.021.332-.012.46.096.132.111.223.287.32.428.09.13.205.235.325.338.1.084.144.2.223.303.036.046.11.116.106.177-.169.012-.335-.059-.5-.076-.09-.01-.248.036-.34-.005z"/><path d="M2.078 2.286s-.03.124-.045.2c-.014.076-.03.144-.03.144s-.14.047-.193.072l-.106.052c.145-.137.236-.292.351-.454 0 0-.178.229-.225.3-.046.073-.123.151-.123.151s-.005-.112.013-.249.06-.232.06-.232l.298.016z" style="fill:#bf360c;fill-rule:nonzero"/><path class="fil6" d="M4.543 4.015c.017-.024-.125-.225-.15-.262-.076-.12-.162-.236-.244-.351a4.689 4.689 0 0 0-.371-.464 2.026 2.026 0 0 0-.384-.337c-.114-.073-.25-.149-.39-.149-.244.001-.465.262-.446.502.018.236.19.48.332.66.15.189.375.32.605.375.422.101.931.09 1.048.026z"/><circle cx="2.226" cy="2.101" r=".084" style="fill:#eceff1"/><circle cx="2.226" cy="2.101" r=".033" style="fill:#37474f"/><path d="M2.335 2.082c-.04-.033-.095-.054-.144-.025-.041.024-.052.072-.04.115.004.018-.024.026-.028.008-.015-.056 0-.117.053-.148.06-.036.13-.012.18.03.014.011-.007.031-.021.02z" style="fill:#424242;fill-rule:nonzero"/><path d="M3.383 4.172H3.5l-.016.144c-.003.026-.021.047-.047.047a.048.048 0 0 1-.046-.047l-.008-.144z" style="fill:#876153"/><path class="fil3" d="M3.204 4.372c-.016-.005-.01.001-.027-.003-.058.055-.076.148-.067.224.004.028-.04.027-.043 0-.01-.08-.008-.18.044-.245l-.013-.004c-.068.053-.083.16-.073.24.003.027-.04.026-.043 0-.054-.434.413-.314.27-.187-.064.056-.05.158-.049.237 0 .027-.042.027-.043 0-.001-.09-.019-.196.044-.262z"/><path class="fil3" d="M3.423 4.362a.024.024 0 0 0 .007-.047l-.208-.03a.024.024 0 0 0-.007.047l.208.03z"/></g></svg>