<svg xmlns="http://www.w3.org/2000/svg" xml:space="preserve" width="655.359" height="655.359" style="shape-rendering:geometricPrecision;text-rendering:geometricPrecision;image-rendering:optimizeQuality;fill-rule:evenodd;clip-rule:evenodd" viewBox="0 0 6.827 6.827"><defs><clipPath id="id0"><path d="M3.413 0a3.413 3.413 0 1 1 0 6.827 3.413 3.413 0 0 1 0-6.827z"/></clipPath><style>.str0{stroke:#212121;stroke-width:.00333465;stroke-linecap:round;stroke-linejoin:round}.fil1{fill:#0277bd}.fil6{fill:#757575}.fil3,.fil5{fill:#212121;fill-rule:nonzero}.fil5{fill:#fd5b00}</style></defs><g id="Layer_x0020_1"><path d="M3.413 0a3.413 3.413 0 1 1 0 6.827 3.413 3.413 0 0 1 0-6.827z" style="fill:#039be5"/><g style="clip-path:url(#id0)"><g id="_637654624"><path id="_4605823041" class="fil1" d="M4.073 1.9 7.86 5.685l-.18.168-3.787-3.787z"/><path id="_460582328" class="fil1" d="m3.893 2.067 3.786 3.787-.009.008-3.786-3.786z"/><path id="_460584992" class="fil1" d="M3.884 2.076 7.67 5.862h-.01L3.876 2.075z"/><path id="_460584944" class="fil1" d="M3.875 2.075 7.66 5.862l-.193-.01-3.786-3.786z"/><path id="_460585016" class="fil1" d="m3.682 2.066 3.786 3.786-.125.143L3.556 2.21z"/><path id="_460585064" class="fil1" d="m3.591 2.24 3.786 3.786.004.004.003.004.003.004.003.004.003.004.003.004.003.004.003.004.002.004.003.005.002.004.003.005.002.004.002.005.002.004.002.005.002.005.002.005.001.004.002.005.001.005.002.005v.005l.002.005v.005l.001.005.001.006v.005l.001.005v.011L3.65 2.384v-.016l-.001-.006v-.005l-.002-.005v-.005l-.002-.005v-.005l-.002-.005-.001-.005-.002-.005-.002-.005-.001-.005-.002-.004-.002-.005-.002-.005-.002-.004-.003-.005-.002-.004-.002-.005-.003-.004-.003-.004-.002-.004-.003-.005-.003-.004-.003-.004-.003-.004-.003-.003-.004-.004z"/><path id="_460585088" class="fil1" d="m3.772 2.466 3.786 3.786.005.006.005.006.005.006.005.006.004.006.005.007.004.006.004.007.004.006.004.007.003.007.004.007.003.007.003.007L3.83 2.557l-.003-.007-.004-.007-.003-.007-.004-.007-.004-.007-.003-.007-.004-.006-.005-.007-.004-.006-.005-.006-.004-.006-.005-.006-.005-.006z"/><path id="_460584704" class="fil1" d="m2.838 1.83 3.786 3.786.125.2L2.963 2.03z"/><path id="_460584872" class="fil1" d="m3.145 2.066 3.786 3.786-.193.01-3.786-3.787z"/><path id="_460584608" class="fil1" d="M3.856 2.884 7.642 6.67H7.64L3.853 2.884z"/><path id="_460584752" class="fil1" d="m3.164 2.02 3.787 3.786.007.008L3.17 2.028z"/><path id="_460585376" class="fil1" d="m3.171 2.028 3.787 3.786.138.158-3.787-3.786z"/><path id="_460585808" class="fil1" d="m5.015 2.6 3.786 3.787.002.003.002.003v.011L5.019 2.617v-.01l-.002-.003z"/><path id="_460585568" class="fil1" d="m5.019 2.617 3.786 3.787-.07.25-3.787-3.787z"/><path id="_460585184" class="fil1" d="m4.948 2.867 3.786 3.787.003.003.002.003.001.004.002.004v.004l.001.004v.011l-.001.004-.002.004-.001.003-.002.004-.003.003-.002.003-.003.003-3.787-3.786.004-.003.002-.003.003-.004.002-.003.001-.004.001-.003.001-.004.001-.004v-.012l-.002-.003v-.004l-.003-.004-.002-.003z"/><path id="_460585424" class="fil1" d="M4.942 2.925 8.73 6.71l-.225.188-3.786-3.786z"/><path id="_460585448" class="fil1" d="m4.718 3.113 3.786 3.786.001.007V6.919l-.001.006-.002.006-.002.006-.002.006-.003.006-.003.006-.004.005-.004.005-.005.005-.005.004-.005.004-.006.004-.006.003-3.786-3.786.006-.004.006-.003.005-.004.005-.004.005-.005.004-.005.004-.005.003-.006.003-.006.002-.006.002-.006.001-.006.001-.007V3.12z"/><path id="_460585208" class="fil1" d="m3.83 2.557 3.786 3.786.003.008.003.008.003.008.003.008.002.008.003.008.002.008.002.009.002.008.002.009.001.008.002.01.001.008.001.009.002.009v.01l.001.008v.01l.001.01v.009l.001.01v.049l-.001.01v.01l-.001.01-.001.01-.001.01-.001.01L3.86 2.85v-.01l.002-.01v-.01l.001-.011v-.01l.001-.01V2.71l-.001-.009v-.01l-.002-.008v-.01l-.002-.008-.001-.01-.002-.008-.001-.009-.002-.008-.002-.009-.002-.008-.002-.008-.003-.009-.002-.008-.003-.008-.003-.007-.003-.008z"/><path id="_460585352" class="fil1" d="m2.952 2.075 3.786 3.787H6.73L2.943 2.076z"/><path id="_460585616" class="fil1" d="M2.934 2.067 6.72 5.854l-.18-.168-3.787-3.787z"/><path id="_460585760" class="fil1" d="m4.298 3.449 3.786 3.786v.039l-.001.007v.021l-.001.008v.007l-.001.008v.008l-.001.008v.008l-.001.008v.009l-.001.008-.001.009v.008l-.002.01v.008l-.001.01-.001.009-.001.009-.001.01-.001.009-.001.01-.002.009v.01l-.002.01L4.28 3.707l.001-.01.001-.01.001-.01.001-.009.001-.01.001-.008.001-.01.001-.009.001-.009.001-.009v-.009l.002-.009V3.58l.002-.008v-.016l.001-.008v-.008l.001-.008v-.015l.001-.007v-.022l.001-.006V3.455z"/><path id="_460586048" class="fil1" d="m5.276 3.467 3.786 3.786.002.003.002.003v.011l-.002.003-.002.003L5.276 3.49l.002-.003.001-.004V3.47z"/><path id="_460586168" class="fil1" d="m3.86 2.849 3.786 3.786-.004.035-3.786-3.786z"/><path id="_460586384" class="fil1" d="m4.175 3.118 3.787 3.786.004.006.005.006.004.006.005.006.004.006.004.006.004.006.004.006.004.006.004.006.004.007.004.006.003.006.004.007.003.006.004.006-3.787-3.786-.003-.006-.003-.007-.004-.006-.004-.006-.003-.007-.004-.006-.004-.006-.004-.006-.004-.006-.004-.006-.004-.006-.005-.006-.004-.006-.005-.006-.004-.006z"/><path id="_460585952" class="fil1" d="M4.144 3.082 7.931 6.87l.008.008.008.01.007.008.008.01-3.787-3.787-.007-.01L4.16 3.1l-.008-.009z"/><path id="_460586408" class="fil1" d="m2.943 2.076 3.786 3.786-.009-.008-3.786-3.787z"/><path id="_460586456" class="fil1" d="m4.717 3.873 3.786 3.786H8.04L4.254 3.873z"/><path id="_460586504" class="fil1" d="M2.974 2.884 6.76 6.67h-.003L2.971 2.884z"/><path id="_460586072" class="fil1" d="M4.254 3.873 8.04 7.659l-.002.007-.001.008-.001.007-.002.008-.001.007-.002.008-.001.007-.002.008-.001.008-.002.007-.002.008-.001.008-.002.007-.002.008-.001.008-.002.007-.002.008-.002.008-.002.008-.001.007-.002.008-.002.008-.002.008L8 7.843l-.002.007-.002.008-.002.008-.002.008-.002.008-.002.008-.003.008-.002.007L4.197 4.12l.002-.008.002-.008.003-.007.002-.008.002-.008.002-.008.002-.008.002-.008.002-.007.002-.008.002-.008.001-.008.002-.008.002-.007.002-.008.002-.008.001-.008.002-.007.002-.008.001-.008.002-.007.002-.008.001-.008.002-.007.001-.008.002-.007.001-.008.002-.008.001-.007.002-.008.001-.007z"/><path id="_460586552" class="fil1" d="M4.688 4.435 8.475 8.22l.15.228L4.84 4.663z"/><path id="_460586096" class="fil1" d="m4.627 4.49 3.786 3.787h-.007l-.003.001h-.02l-.003-.001h-.003l-.004-.002H8.37l-.003-.002-.003-.001-.004-.002-3.786-3.786.003.001.004.002h.003l.003.002h.003l.004.002h.01l.003.001H4.62l.003-.001z"/><path id="_460586264" class="fil1" d="M4.574 4.484 8.36 8.27l-.427-.206-3.786-3.787z"/><path id="_460587392" class="fil1" d="m4.147 4.277 3.786 3.787-.003.008-.003.01-.003.008-.004.009-.003.008-.003.009-.004.009-.003.008-.004.009-.003.009-.004.008-.003.009-.004.008-.004.009-.004.008-.003.009-.004.008-.004.008-.004.009-.004.008-.004.008-.004.009-.004.008-.004.008-.004.008-.005.008-.004.008-.004.008-.005.008-.004.008-.004.008-.005.008-3.786-3.786.004-.008.005-.008.004-.008.005-.008.004-.008.004-.008.004-.008.005-.008.004-.008.004-.009.004-.008.004-.008.004-.008.004-.009.004-.008.003-.009.004-.008.004-.009.004-.008.003-.009.004-.008.003-.009.004-.008.003-.009.004-.009.003-.008.004-.009.003-.009.003-.008.004-.01.003-.008z"/><path id="_460587440" class="fil1" d="m4.807 4.997 3.787 3.786H8.59l-.003-.001-.003-.002-.003-.002L4.795 4.99l.002.003.003.001.004.002z"/><path id="_460587368" class="fil1" d="m4.792 4.724 3.786 3.787-.003-.002-.003-.001-.002-.002-.003-.002-.003-.002-.002-.002-3.786-3.786.002.002.003.002.002.002.003.002.003.001z"/><path id="_460587056" class="fil1" d="m4.84 4.663 3.786 3.786.002.004.002.003.001.004.001.004v.019l-.002.004-.002.004-.002.003-.002.003-.003.003-.003.003-.003.003-3.786-3.787.003-.002.003-.003.003-.003.002-.003.002-.004.002-.003v-.004l.002-.004v-.015l-.001-.004-.002-.004-.001-.004z"/><path id="_460586792" class="fil1" d="m4.829 4.72 3.786 3.786-.003.26-3.786-3.787z"/><path id="_460586960" class="fil1" d="m4.826 4.979 3.786 3.786v.004l-.001.003-.002.003-.002.003-.003.002-.003.002h-.004l-.003.001-3.787-3.786h.004l.004-.001.003-.002.002-.002.003-.003.001-.003.001-.003z"/><path id="_460586888" class="fil1" d="m1.837 2.599 3.787 3.786.002.002.002.003.001.004-3.786-3.786-.001-.004-.002-.003z"/><path id="_460586720" class="fil1" d="M2.574 3.873 6.36 7.659h-.464L2.11 3.873z"/><path id="_460586864" class="fil1" d="M1.576 3.463 5.362 7.25l.003.002L1.58 3.466z"/><path id="_460587032" class="fil1" d="m1.579 3.466 3.786 3.786.165.194-3.786-3.787z"/><path id="_460587920" class="fil1" d="M2.252 4.484 6.04 8.27l-.003.002-.004.001-.003.001-.003.001-.003.001h-.004l-.003.001h-.003l-.004.001H5.99l-.004-.001L2.2 4.49l.003.001h.007l.003.001h.017l.003-.001.003-.001.004-.001.003-.001.003-.001.003-.002z"/><path id="_460587632" class="fil1" d="m2.2 4.49 3.786 3.787-.144.217-3.787-3.786z"/><path id="_460587488" class="fil1" d="m2.055 4.708 3.787 3.786-.002.003-.003.003-.002.002-.003.002-.002.002-.003.002-.003.001-.003.002-3.786-3.787h.003l.003-.002.002-.002.003-.002.003-.002.002-.002.002-.003z"/><path id="_460587944" class="fil1" d="m1.998 4.72 3.786 3.786-.003-.003-3.786-3.786z"/><path id="_460587704" class="fil1" d="m2.037 4.978 3.787 3.787v.003l-.002.004-.001.003-.003.003-.002.002-.003.002h-.004l-.003.001-3.787-3.786h.004l.003-.002.003-.001.003-.003.002-.002.002-.003.001-.004z"/><path id="_460587872" class="fil1" d="m2.02 4.997 3.786 3.786h-.004l-.004-.001-.003-.002-.002-.002-3.787-3.786.003.002.003.002h.004z"/><path id="_460587896" class="fil1" d="M2.035 4.724 5.82 8.511l.003.254-3.787-3.787z"/><path id="_460587968" class="fil1" d="m2.109 3.113 3.786 3.786-.225-.188-3.786-3.786z"/><path id="_460588016" class="fil1" d="m1.749 3.737 3.786 3.786-.004-.001-.004-.002-.003-.002-.004-.002-.003-.003-3.786-3.786.003.003.003.002.004.002.004.002z"/><path id="_460588088" class="fil1" d="m2.031 3.814 3.786 3.787-.282-.078-3.786-3.786z"/><path id="_460588208" class="fil1" d="m2.11 3.873 3.786 3.786h-.007l-.007-.001-.006-.002-.007-.002-.006-.002-.006-.003-.005-.003-.005-.004-.005-.004-3.787-3.786.005.004.006.004.005.003.006.003.006.002.006.002.007.001.007.001z"/><path id="_460588520" class="fil1" d="m2.68 4.277 3.787 3.786-.428.207-3.787-3.786z"/><path id="_460588424" class="fil1" d="M3.413 4.954 7.2 8.741l-.036-.001-.034-.003-.033-.005-.033-.006-.031-.008-.03-.01-.03-.01-.03-.013-.028-.014-.028-.016-.026-.017-.026-.018-.025-.02-.025-.02L3 4.794l.024.02.026.02.025.018.027.017.028.015.028.015.029.012.03.011.03.01.032.008.033.006.033.005.034.003z"/><path id="_460588616" class="fil1" d="m2.156 3.199 3.786 3.786-.006-.003-.006-.004-.005-.004-.005-.004-3.787-3.786.005.004.006.004.006.003z"/><path id="_460588904" class="fil1" d="M1.884 2.925 5.67 6.71l-.003-.003-3.786-3.786z"/><path id="_460588712" class="fil1" d="M1.843 2.608 5.63 6.394l.07.244-3.787-3.786z"/><path id="_460588448" class="fil1" d="m2.535 3.373 3.786 3.786-.379-.174-3.786-3.786z"/><path id="_460588808" class="fil1" d="M4.025 4.546 7.81 8.332l-.003.006-.004.006-.003.006-.004.006-.003.005-.004.006-.004.006-.003.006-.004.005-.003.006-.004.006-.004.005-.004.006-.003.006-.004.005-.004.006-.004.005-.004.006-.004.005-.004.005-.004.006-.004.005-.004.005-.004.005-.004.006-.004.005-.004.005-.004.005-.005.005-.004.005-.004.005-.005.005L3.901 4.72l.005-.005.004-.005.004-.005.004-.005.004-.005.005-.005.004-.006.004-.005.004-.005.004-.005.004-.006.004-.005.004-.005.004-.006.004-.005.004-.006.003-.005.004-.006.004-.005.004-.006.004-.005.003-.006.004-.006.004-.006L4 4.587l.004-.006.003-.006.004-.006.003-.006.004-.005.003-.006z"/><path id="_460588856" class="fil1" d="m3.901 4.72 3.787 3.787-.012.013-.012.013-.012.012-.013.013-.012.011-.013.012-.013.011-.013.011-.014.01-.013.01-.014.01-.014.01-.015.009-.014.009-.015.008-.015.008-.016.007-.015.007-.016.007-.016.006-.016.006-.017.005-.016.005-.017.004-.018.004-.017.003-.018.003-.018.002-.018.002-.019.002H7.2L3.414 4.955h.038l.019-.002.018-.002.018-.002.018-.003.017-.003.017-.004.017-.005.017-.004.017-.006.016-.005.016-.006.016-.007.015-.007.015-.007.015-.008.015-.009.015-.008.014-.01.014-.009.014-.01.014-.01.013-.01.014-.011.013-.011.012-.012.013-.012.012-.012.013-.012.012-.013z"/><path id="_460588568" class="fil1" d="M4.67 4.354 8.456 8.14l.005.005.004.006.004.007.003.006.002.007.002.007.002.007v.022l-.002.007-.001.007-3.787-3.786.002-.007.001-.008.001-.007v-.014L4.69 4.39l-.002-.006-.002-.007-.004-.007-.003-.006-.004-.006z"/><path id="_460588232" class="fil1" d="m4.671 3.199 3.786 3.786-.38.174-3.785-3.786z"/><path id="_460589336" class="fil1" d="m4.292 3.373 3.786 3.786v.004l.001.004v.004l.001.004v.004l.001.004v.008l.001.004v.008l.001.004v.017L4.298 3.437v-.024l-.001-.004v-.008l-.001-.004v-.004l-.001-.004v-.004l-.001-.004v-.004z"/><path id="_460589144" class="fil1" d="m4.297 3.437 3.787 3.787v.011L4.298 3.45V3.439z"/><path id="_460589360" class="fil1" d="m4.796 3.814 3.786 3.787-.002.006-.003.006-.003.005-.004.006-.003.005-.005.005-.004.004-.005.004-.006.004-.005.003-.006.003-.006.002-.007.002-.006.002h-.014L4.717 3.874h.007l.007-.002.006-.001.006-.002.007-.002.005-.003.006-.003.005-.004.005-.004.005-.004.004-.005.004-.005.004-.006.003-.006.002-.005z"/><path id="_460589288" class="fil1" d="m5.107 3.687 3.786 3.786.001.005v.015l-.002.004-.001.004-.002.003-.002.004-.002.003-.003.002-.003.003-.003.002-.004.002-.004.002-.004.001-3.786-3.786.004-.001.004-.002.003-.002.004-.002.003-.003.002-.003.003-.003.002-.003.002-.003.001-.004.001-.004v-.004l.001-.004v-.008z"/><path id="_460589552" class="fil1" d="m5.078 3.737 3.786 3.786-.282.078-3.786-3.787z"/><path id="_460589000" class="fil1" d="m5.276 3.49 3.786 3.786-.169.197-3.786-3.786z"/><path id="_637655080" class="fil1" d="m3.989 1.83.084.07-.18.167-.01.009h-.008l-.193-.01-.126.143a.22.22 0 0 1 .093.175c.09.036.148.096.18.173.036.081.042.18.03.292l-.003.035h-.003a.816.816 0 0 1 .322.234.597.597 0 0 1 .064.098l.363-.167a.082.082 0 0 1 .066-.001l.222-.186a.04.04 0 0 1 .024-.01l.07-.244a.018.018 0 1 1 .035.01l-.071.25a.041.041 0 0 1-.006.057l-.224.188a.082.082 0 0 1-.047.086l-.38.174a.488.488 0 0 1 .007.076c0 .063-.006.154-.02.26h.439c.024 0 .045.01.06.025l.28-.076a.041.041 0 0 1 .026.001l.165-.193a.018.018 0 1 1 .028.024l-.169.197a.041.041 0 0 1-.029.05l-.282.077a.082.082 0 0 1-.079.059h-.463c-.015.079-.034.162-.057.246l.005.002.444.215c.037.018.054.06.042.099l.152.228a.041.041 0 0 1-.011.056l-.003.26a.018.018 0 1 1-.037 0l.003-.255a.04.04 0 0 1-.02-.016l-.145-.218a.082.082 0 0 1-.053-.006l-.427-.207a1.664 1.664 0 0 1-.122.269 1.09 1.09 0 0 1-.124.175.632.632 0 0 1-.488.233c-.379 0-.604-.322-.732-.677l-.429.207a.082.082 0 0 1-.052.006l-.145.218a.04.04 0 0 1-.02.016l.002.254a.018.018 0 1 1-.036 0l-.003-.259a.041.041 0 0 1-.01-.056l.15-.228a.082.082 0 0 1 .043-.099l.444-.215a.083.083 0 0 1 .005-.002 2.78 2.78 0 0 1-.056-.246H2.11a.082.082 0 0 1-.079-.059l-.282-.077a.041.041 0 0 1-.03-.05l-.168-.197a.018.018 0 1 1 .028-.024l.165.193a.04.04 0 0 1 .026-.001l.28.076a.082.082 0 0 1 .06-.026h.438a2.159 2.159 0 0 1-.019-.259c0-.026.002-.051.006-.076l-.38-.174a.082.082 0 0 1-.046-.086l-.225-.188a.041.041 0 0 1-.005-.058l-.071-.25a.018.018 0 0 1 .035-.01l.07.245a.04.04 0 0 1 .024.01l.222.186a.082.082 0 0 1 .065.001l.363.167a.597.597 0 0 1 .064-.098.816.816 0 0 1 .323-.234h-.003l-.004-.035a.588.588 0 0 1 .03-.292.316.316 0 0 1 .18-.173.22.22 0 0 1 .093-.175l-.125-.143-.193.01h-.01l-.008-.009-.18-.168.084-.07.125.201.19-.01h.011l.007.008.138.158a.242.242 0 0 1 .208 0l.138-.158.007-.008h.011l.191.01.125-.2z"/></g></g><path d="M3.413 0a3.413 3.413 0 1 1 0 6.827 3.413 3.413 0 0 1 0-6.827z" style="fill:none"/><path class="fil3" d="M2.143 4.446a.082.082 0 0 1 .038-.11l.444-.215a.082.082 0 0 1 .071.148l-.444.215a.082.082 0 0 1-.11-.038z"/><path class="fil3" d="M1.999 4.72a.041.041 0 0 1-.012-.057l.18-.27a.041.041 0 1 1 .068.045l-.18.27A.041.041 0 0 1 2 4.72z"/><path class="fil3" d="M2.02 4.997A.018.018 0 0 1 2 4.979l-.002-.297a.018.018 0 0 1 .036 0l.003.296c0 .01-.008.019-.018.019zM2.027 3.79c0 .046.037.083.083.083h.493a.082.082 0 0 0 0-.165H2.11a.082.082 0 0 0-.083.082z"/><path class="fil3" d="M1.72 3.687a.041.041 0 0 0 .029.05l.312.086a.041.041 0 1 0 .022-.08l-.313-.085a.041.041 0 0 0-.05.029z"/><path class="fil3" d="M1.553 3.464a.018.018 0 0 0-.002.026l.193.225a.018.018 0 1 0 .027-.023l-.192-.226a.018.018 0 0 0-.026-.002zM2.115 3.09c-.019.04 0 .09.04.109l.449.205a.082.082 0 0 0 .068-.149l-.448-.206a.082.082 0 0 0-.109.04z"/><path class="fil3" d="M1.88 2.867a.041.041 0 0 0 .004.058l.248.208a.041.041 0 1 0 .053-.063l-.248-.208a.041.041 0 0 0-.058.005z"/><path class="fil3" d="M1.82 2.595a.018.018 0 0 0-.012.022l.08.286a.018.018 0 1 0 .036-.01l-.08-.285a.018.018 0 0 0-.023-.013zM4.684 4.446a.082.082 0 0 0-.038-.11l-.444-.215a.082.082 0 0 0-.072.148l.444.215c.041.02.09.003.11-.038z"/><path class="fil3" d="M4.828 4.72a.041.041 0 0 0 .012-.057l-.18-.27a.041.041 0 1 0-.068.045l.18.27a.041.041 0 0 0 .056.012z"/><path class="fil3" d="M4.807 4.997c.01 0 .019-.008.019-.018l.003-.297a.018.018 0 0 0-.036 0l-.004.296c0 .01.008.019.018.019zM4.8 3.79a.082.082 0 0 1-.083.083h-.493a.082.082 0 0 1 0-.165h.493c.045 0 .082.037.082.082z"/><path class="fil3" d="M5.107 3.687a.041.041 0 0 1-.029.05l-.312.086a.041.041 0 1 1-.022-.08l.312-.085a.041.041 0 0 1 .05.029z"/><path class="fil3" d="M5.274 3.464a.018.018 0 0 1 .002.026l-.193.225a.018.018 0 1 1-.028-.023l.193-.226a.018.018 0 0 1 .026-.002zM4.711 3.09c.02.04.001.09-.04.109l-.448.205a.082.082 0 0 1-.069-.149l.448-.206c.042-.019.09 0 .11.04z"/><path class="fil3" d="M4.948 2.867a.041.041 0 0 1-.006.058l-.248.208a.041.041 0 1 1-.053-.063l.249-.208a.041.041 0 0 1 .058.005z"/><path class="fil3" d="M5.006 2.595c.01.003.015.013.013.022l-.081.286a.018.018 0 1 1-.035-.01l.08-.285a.018.018 0 0 1 .023-.013z"/><path d="M3.65 2.384c.09.036.147.096.18.173.035.081.041.181.03.292l-.004.035H2.97l-.004-.035a.588.588 0 0 1 .03-.292.316.316 0 0 1 .18-.173.22.22 0 0 1 .062-.148.24.24 0 0 1 .349 0 .22.22 0 0 1 .061.148z" style="fill:#1a1919;fill-rule:nonzero"/><path class="fil3" d="M3.85 2.882a.818.818 0 0 1 .325.236c.078.097.123.21.123.331 0 .212-.062.73-.273 1.097-.135.234-.332.408-.612.408-.719 0-.884-1.158-.884-1.505 0-.12.045-.234.122-.331a.819.819 0 0 1 .328-.236.038.038 0 0 1 .015-.003h.839c.006 0 .012.001.017.004z"/><path class="fil5" d="M3.85 2.882a.818.818 0 0 1 .325.236.577.577 0 0 1 .087.146 1.62 1.62 0 0 1 .036.185c0 .212-.062.73-.273 1.097a1.09 1.09 0 0 1-.124.175 1.12 1.12 0 0 1-.326-.413 1.681 1.681 0 0 1-.16-.54 1.15 1.15 0 0 1 .05-.527.59.59 0 0 1 .343-.362h.025c.006 0 .012.001.017.004z"/><path class="fil5" d="M2.92 4.713c-.307-.36-.39-1.017-.39-1.264 0-.12.044-.234.121-.331a.819.819 0 0 1 .328-.236.038.038 0 0 1 .015-.003h.008a.59.59 0 0 1 .344.362c.058.155.071.34.05.527a1.681 1.681 0 0 1-.16.54c-.082.166-.19.31-.316.405z"/><circle class="fil6 str0" cx="3.208" cy="2.569" r=".063"/><circle class="fil6 str0" cx="3.619" cy="2.569" r=".063"/><path class="fil3" d="m3.28 2.22-.142-.162.018.007-.204.01h-.01l-.008-.008-.18-.168.084-.07.13.21-.018-.008.204-.01h.01l.007.007.143.163zM3.513 2.191l.142-.163.007-.008h.011l.204.01-.018.009.13-.21.084.07-.18.168-.01.009h-.008l-.204-.01.018-.008-.143.163zM2.811 3.2a.108.108 0 1 0 .216 0 .108.108 0 0 0-.216 0zM3.974 3.2a.108.108 0 1 1-.215 0 .108.108 0 0 1 .215 0zM2.661 3.623a.108.108 0 1 0 .215 0 .108.108 0 0 0-.215 0zM4.124 3.623a.108.108 0 1 1-.215 0 .108.108 0 0 1 .215 0zM3.032 3.532a.108.108 0 1 0 .215 0 .108.108 0 0 0-.215 0zM3.753 3.532a.108.108 0 1 1-.215 0 .108.108 0 0 1 .215 0zM2.976 3.924a.108.108 0 1 0 .216 0 .108.108 0 0 0-.216 0zM3.809 3.924a.108.108 0 1 1-.215 0 .108.108 0 0 1 .215 0zM2.846 4.284a.108.108 0 1 0 .216 0 .108.108 0 0 0-.216 0zM3.94 4.284a.108.108 0 1 1-.216 0 .108.108 0 0 1 .215 0z"/></g></svg>