<svg xmlns="http://www.w3.org/2000/svg" xml:space="preserve" width="655.359" height="655.359" style="shape-rendering:geometricPrecision;text-rendering:geometricPrecision;image-rendering:optimizeQuality;fill-rule:evenodd;clip-rule:evenodd" viewBox="0 0 6.827 6.827"><defs><clipPath id="id0"><path d="M3.413 0a3.413 3.413 0 1 1 0 6.827 3.413 3.413 0 0 1 0-6.827z"/></clipPath><style>.fil1{fill:#ce93d8}.fil3,.fil4,.fil5{fill:#4d2f14;fill-rule:nonzero}.fil4,.fil5{fill:#673b15}.fil5{fill:#7c4d24}</style></defs><g id="Layer_x0020_1"><path d="M3.413 0a3.413 3.413 0 1 1 0 6.827 3.413 3.413 0 0 1 0-6.827z" style="fill:#e1bee7"/><g style="clip-path:url(#id0)"><g id="_637653496"><path id="_2169458401" class="fil1" d="m3.09 1.846 3.787 3.787-.03-.031-.033-.03-.033-.027-.035-.027-.036-.024-.038-.023-.038-.022-.04-.02-.04-.017-.041-.016-.042-.013-.043-.012-.044-.01-.045-.008-.045-.005-.046-.004-.047-.001-3.786-3.786h.046l.046.004.046.006.044.008.044.01.043.011.043.014.041.016.04.018.04.02.038.02.037.023.036.025.035.026.034.028.032.03z"/><path id="_216945984" class="fil1" d="m3.097 1.838 3.786 3.787.03.032.028.034.027.035.025.036.023.038.021.038.02.04.018.04.016.042.014.043.012.043.01.044.008.045.006.046.004.047L3.359 2.44l-.004-.046-.006-.046-.008-.045-.01-.044-.012-.044-.014-.042-.016-.042-.018-.04-.02-.04-.021-.039-.024-.037-.025-.037-.026-.035-.028-.033z"/><path id="_216947688" class="fil1" d="m4.39 1.557 3.787 3.786-.047.001-.046.004-.045.005-.045.008-.044.01-.043.012-.042.013-.042.016-.04.018-.04.02-.038.02-.037.024-.036.024-.035.027-.033.027-.032.03-.031.03-.03.033-.027.033-.027.035-.024.036-.023.037-.022.038-.02.04-.017.04-.016.042-.014.042-.011.043-.01.044-.008.044-.006.046-.003.046-3.786-3.786.003-.046.006-.046.007-.044.01-.044.012-.043.014-.043.016-.041.018-.04.02-.04.02-.038.023-.037.025-.036.026-.035.028-.034.03-.032.03-.03.032-.03.034-.028.035-.026.036-.025.037-.023.038-.02.04-.02.04-.018.041-.016.043-.014.043-.012.044-.01.044-.007.046-.006.046-.003z"/><path id="_216947736" class="fil1" d="m4.186 2.65 3.786 3.786-.001.004-3.786-3.786z"/><path id="_216947040" class="fil1" d="M4.185 2.654 7.97 6.44l-.005.005L4.179 2.66z"/><path id="_216947832" class="fil1" d="m3.5 2.472 3.786 3.786.003.003.002.003.002.002L3.507 2.48l-.002-.003-.003-.002z"/><path id="_216948216" class="fil1" d="m3.541 2.496 3.787 3.787.003.004.003.004.003.005.003.005.003.006.002.006.003.006.002.007.002.006.002.007.002.008.001.007.002.008.001.008.002.008v.008l.002.009v.008l.002.009v.009l.001.009v.008l.001.01v.008L3.584 2.67v-.009l-.001-.009-.001-.009v-.009l-.002-.008v-.009l-.001-.009-.002-.008v-.008l-.002-.008-.001-.008-.002-.008-.002-.008-.001-.007-.002-.007-.002-.007-.003-.006-.002-.006-.002-.006-.003-.006-.003-.005-.003-.005-.003-.005z"/><path id="_216948384" class="fil1" d="M2.415 1.557 6.2 5.343h-.002l-.001-.002L2.41 1.555h.001v.001h.002z"/><path id="_216948024" class="fil1" d="m3.858 4.147 3.786 3.787-.038.018L3.82 4.165z"/><path id="_216947856" class="fil1" d="m3.82 4.165 3.786 3.787-.005.002-.005.001-.005.001h-.015l-.005-.001-.004-.001-.005-.002-.004-.003-.004-.002-.004-.003-3.787-3.787.004.003.004.003.005.002.004.002.005.002h.005l.005.001h.01l.005-.001.005-.002z"/><path id="_216948408" class="fil1" d="m2.602 2.369 3.786 3.786.002.002.002.003.001.003-3.786-3.786-.001-.003-.002-.003z"/><path id="_216948288" class="fil1" d="m2.607 2.377 3.786 3.786.065.258L2.67 2.635z"/><path id="_216947904" class="fil1" d="m3.583 2.67 3.786 3.786V6.482l.001.006v.044l.001.006v.017L3.585 2.77V2.715l-.001-.007v-.025l-.001-.007z"/><path id="_216947976" class="fil1" d="M3.585 2.77 7.37 6.554V6.603l.001.004v.016l.001.004v.003L3.587 2.844v-.011l-.001-.004v-.043l-.001-.006v-.005z"/><path id="_216948072" class="fil1" d="m4.18 2.659 3.786 3.786-.277.257-3.786-3.787z"/><path id="_216948744" class="fil1" d="m4.81 3.737 3.785 3.786v.007l-.002.003-.002.002-.003.002-.003.002h-.003l-.003.001-3.786-3.786h.003l.003-.002.003-.001.002-.002.002-.003.002-.002V3.74z"/><path id="_216949128" class="fil1" d="M3.587 2.844 7.373 6.63h-.077L3.51 2.844z"/><path id="_216948960" class="fil1" d="M3.51 2.844 7.296 6.63h-.193L3.317 2.844z"/><path id="_216949224" class="fil1" d="m3.888 2.93 3.786 3.786-.005.004-.006.004-.005.003-.006.002-.006.002-.006.001h-.025l-.006-.003-.006-.002-.005-.003-.006-.003-.005-.004-.005-.005-3.786-3.786.005.004.005.005.005.003.006.003.006.002.006.002.006.001h.019l.006-.001.006-.002.006-.003.005-.003.006-.003z"/><path id="_216948624" class="fil1" d="m3.03 2.837 3.786 3.786.004.005.004.005.003.005.003.006.002.006.001.006.001.006V6.675l-.001.006-.002.006-.002.006-.003.006L3.04 2.913l.003-.006.002-.006.002-.006v-.006l.001-.007v-.006l-.001-.006-.002-.006-.002-.006-.002-.006-.003-.005-.004-.005z"/><path id="_216948648" class="fil1" d="M3.317 2.844 7.103 6.63h-.094L3.223 2.844z"/><path id="_216948816" class="fil1" d="M3.013 3.598 6.8 7.385l.002.003.003.003.002.003.002.004v.004l.002.004v.02l-.002.004-.002.004-3.786-3.787.002-.003V3.64l.002-.004v-.017l-.001-.003-.002-.004-.001-.004-.003-.003-.002-.004z"/><path id="_216949152" class="fil1" d="m3.02 3.647 3.787 3.787-.002.003-.003.004-.003.003-.003.003-.003.002-.003.002-.004.002-.004.001-.004.001h-.004l-.004.001h-.008l-.004-.001-.004-.002-.004-.002-3.786-3.786.004.002.004.001.004.001h.016l.004-.001L3 3.667l.003-.002.004-.002.003-.003.003-.002.003-.003.003-.004z"/><path id="_216948840" class="fil1" d="M3.04 2.913 6.826 6.7l-.003.006-.004.005-.005.005-.005.004-.005.004-.005.003-.006.002-.006.002-.006.002h-.025L6.75 6.73l-.006-.002-.006-.003-3.786-3.786.006.002.006.003.006.001.006.001H2.995L3 2.944l.006-.002.006-.002.005-.004.005-.003.005-.004.004-.005.004-.005z"/><path id="_216949176" class="fil1" d="m2.952 2.938 3.786 3.787-.002-.001-.001-.001-.002-.001-.002-.002H6.73l-.002-.002-.001-.001-.002-.001L2.94 2.929l.001.002h.002l.001.002.002.001.002.001.001.001.002.002z"/><path id="_216949080" class="fil1" d="m2.939 2.93 3.786 3.786-.015-.014-3.786-3.787z"/><path id="_216949752" class="fil1" d="M2.918 3.634 6.704 7.42l-.319-.216-3.786-3.787z"/><path id="_216949776" class="fil1" d="M2.924 2.915 6.71 6.702l-.276-.257L2.647 2.66z"/><path id="_216949392" class="fil1" d="M2.964 3.665 6.75 7.451h-.001l-.001-.001h-.001v-.001L2.96 3.663h.002v.001h.001z"/><path id="_216949896" class="fil1" d="m2.599 3.417 3.786 3.787-.277.33-3.786-3.786z"/><path id="_216949464" class="fil1" d="M2.918 3.634 6.704 7.42l.001.013.001.013.001.013.002.013v.013l.002.013v.013l.002.013.001.013.001.013.002.013v.013l.002.013.001.013.002.012v.013l.002.013.002.013v.013l.002.012.002.013.001.013.002.012.001.013.002.013.001.012.002.013.001.012.002.013.001.013.002.012.001.012L2.96 4.043l-.001-.012-.002-.013-.002-.012-.001-.013-.002-.012-.001-.013-.002-.013-.001-.012-.002-.013-.001-.012-.002-.013v-.013L2.94 3.88l-.002-.012-.001-.013-.001-.013-.002-.013-.001-.013-.001-.012-.001-.013-.002-.013v-.013l-.002-.013-.001-.013-.001-.013-.002-.013V3.7l-.002-.013v-.013L2.92 3.66v-.013z"/><path id="_216949920" class="fil1" d="M3.014 4.168 6.8 7.954h-.003v-.001h-.002l-.001-.001-3.787-3.787.001.001h.002l.001.001h.002z"/><path id="_216949656" class="fil1" d="m3.007 4.165 3.786 3.787-.032-.016L2.975 4.15z"/><path id="_216949968" class="fil1" d="M2.975 4.15 6.76 7.936 2.975 4.15z"/><path id="_216949488" class="fil1" d="M2.975 4.15 6.76 7.936l-.398-.19L2.576 3.96z"/><path id="_216949536" class="fil1" d="m2.322 3.748 3.786 3.786-.005.006-3.786-3.786z"/><path id="_216950784" class="fil1" d="M2.463 4.946 6.25 8.733l-.001.006-3.787-3.786z"/><path id="_216950280" class="fil1" d="M2.462 4.953 6.25 8.739l-.005.005-3.787-3.787z"/><path id="_216950328" class="fil1" d="m2.457 4.957 3.787 3.787-.182.149-3.786-3.787z"/><path id="_216950688" class="fil1" d="m2.276 5.106 3.786 3.787-.002.001-.003.002h-.01l-.003-.002-.003-.001-3.786-3.787.003.002.003.001h.012z"/><path id="_216950520" class="fil1" d="m2.647 2.659 3.787 3.786-.006-.005-3.786-3.786z"/><path id="_216950256" class="fil1" d="M3.911 3.632 7.697 7.42l-.044.03-3.786-3.786z"/><path id="_216950112" class="fil1" d="m2.96 3.663 3.786 3.786-.042-.029-3.786-3.786z"/><path id="_216950568" class="fil1" d="m3.867 3.663 3.786 3.786-.004.002-.004.002-.003.001-.004.001h-.004l-.005.001h-.007l-.004-.002h-.004L7.61 7.45l-.003-.002-.004-.002-.003-.003-3.786-3.786.003.003.003.002.004.002.004.002.003.001.004.001h.02l.004-.002.004-.002z"/><path id="_216950592" class="fil1" d="m3.066 4.083 3.786 3.786.004.004.002.004.003.004.002.005.002.004v.005l.002.005v.01l-.001.005-.002.006-3.786-3.787.001-.005.001-.005v-.015l-.002-.005-.001-.005-.002-.004-.003-.004-.003-.004z"/><path id="_216950640" class="fil1" d="m3.078 4.134 3.786 3.787-.001.004-.003.005-.002.004-.003.004-.004.004-.004.003-.004.003-.004.003-.004.002-.005.001-.005.002h-.02L6.8 7.954 3.014 4.168l.005.001.005.001h.015l.005-.002.004-.001.005-.003.004-.002.004-.003.004-.003.003-.004.003-.004.003-.004.002-.005z"/><path id="_216950376" class="fil1" d="M2.317 3.754 6.103 7.54h-.008L2.31 3.754z"/><path id="_216951336" class="fil1" d="M2.309 3.754 6.095 7.54H5.82L2.034 3.754z"/><path id="_216951552" class="fil1" d="M2.034 3.754 5.82 7.54h-.003l-.003-.001-.003-.002-.002-.002L2.022 3.75l.003.002.003.001.003.001z"/><path id="_216951240" class="fil1" d="m2.576 3.96 3.787 3.787-.114.986-3.786-3.787z"/><path id="_216951264" class="fil1" d="M3.911 3.632 7.697 7.42v.013l-.002.013v.013l-.001.013-.001.013-.002.013v.013l-.002.013v.013l-.002.013-.001.013-.001.013-.001.013-.001.013-.002.013v.013l-.002.013-.001.012-.002.013-.001.013-.001.012-.002.013-.001.013-.001.012-.002.013-.001.012-.002.013-.001.012-.001.013-.002.012-.001.012-.002.013-3.786-3.786.001-.013.002-.012.001-.013.002-.012.001-.012.002-.013.001-.012.001-.013.002-.013.001-.012.001-.013.002-.013.001-.012.001-.013.002-.013V3.84l.002-.012.001-.013.001-.013.002-.013v-.013l.002-.013.001-.013.001-.013.001-.013.001-.013.001-.013.001-.013.001-.013.001-.013.001-.013z"/><path id="_216951456" class="fil1" d="m4.228 3.417 3.786 3.787-.317.215-3.786-3.787z"/><path id="_216951360" class="fil1" d="m4.25 3.96 3.787 3.787-.643.308-3.786-3.786z"/><path id="_216950952" class="fil1" d="M4.28 3.934 8.068 7.72l.115 1.002-3.786-3.786z"/><path id="_216951024" class="fil1" d="M4.574 5.104 8.36 8.89l-.002.003-.003.001-.003.002H8.343l-.003-.002-.003-.001L4.55 5.106l.002.002.003.001H4.57l.003-.003z"/><path id="_216951120" class="fil1" d="M4.364 4.953 8.15 8.739l-.719-.343-3.786-3.787z"/><path id="_216951480" class="fil1" d="m4.55 5.106 3.787 3.787-.181-.15-3.787-3.786z"/><path id="_216951504" class="fil1" d="m4.37 4.957 3.786 3.787-.006-.005-3.786-3.786z"/><path id="_216952008" class="fil1" d="m4.248 2.37 3.786 3.786.002.003.002.003V6.17L4.252 2.385v-.01l-.002-.003z"/><path id="_216951672" class="fil1" d="m4.804 3.725 3.787 3.787.002.002.001.003.001.003v.003L4.81 3.737v-.003l-.001-.003-.002-.003z"/><path id="_216951744" class="fil1" d="m3.932 3.047 3.786 3.786-3.786-3.786z"/><path id="_216951960" class="fil1" d="M4.244 3.385 8.03 7.17l.282.336L4.525 3.72z"/><path id="_216951720" class="fil1" d="m3.903 2.915 3.786 3.787-.015.014-3.786-3.787z"/><path id="_216952368" class="fil1" d="M4.518 3.754 8.304 7.54h-.008L4.51 3.754z"/><path id="_216952056" class="fil1" d="M4.278 3.914 8.065 7.7l.002.02L4.28 3.934z"/><path id="_216951984" class="fil1" d="m4.572 5.08 3.786 3.787.002.002.002.003.001.003V8.884l-.001.003-.002.003-3.786-3.786.002-.003.001-.003V5.09l-.001-.003-.002-.003z"/><path id="_216951912" class="fil1" d="m4.235 3.374 3.786 3.787.009.01-3.786-3.786z"/><path id="_216952104" class="fil1" d="M4.793 3.754 8.579 7.54h-.275L4.518 3.754z"/><path id="_216952752" class="fil1" d="M4.252 2.385 8.038 6.17l-.066.265L4.186 2.65z"/><path id="_216952488" class="fil1" d="M4.394 1.548 8.18 5.334v.001l.001.001v.002L4.396 1.552v-.003z"/><path id="_216952584" class="fil1" d="m4.395 1.552 3.787 3.786v.001l-.001.002-.002.001h-.001l-.001.001L4.39 1.557h.002l.001-.001h.001v-.002h.001v-.001z"/><path id="_637653928" class="fil1" d="M3.932 3.047zm-.099-.234.322-.178.065-.258a.017.017 0 0 1 .032.008l-.066.265-.001.004-.006.005-.276.256-.015.014a.065.065 0 1 1-.076-.104l.021-.012zM3.608 4.27l.25-.122-.038.018a.051.051 0 1 1-.038-.095l.09-.028a7.78 7.78 0 0 0 .04-.41l-.045.03a.042.042 0 1 1-.043-.071l.093-.05.306-.16.012-.007.009.01.281.336h.268a.017.017 0 0 1 0 .034H4.51l-.005-.006-.277-.33-.317.214c-.01.141-.023.278-.04.41l.387-.122.02-.006.003.02.115 1.002.176.145a.017.017 0 1 1-.021.025l-.182-.149-.005-.004-.719-.344.605-.649-.642.309zm-.69-.635c.01.14.025.277.042.41l.084.026a.052.052 0 1 1-.037.095l-.032-.015-.399-.19-.113.986v.007l-.006.004-.181.15a.017.017 0 0 1-.02-.026l.175-.145.115-1.002.002-.02.02.006.392.123a7.802 7.802 0 0 1-.042-.409zm-.006-.091.091.048a.042.042 0 1 1-.043.072l-.042-.029-.32-.217-.276.33-.005.007H2.034a.017.017 0 0 1 0-.033h.267l.282-.336.009-.01.012.006.308.162zm.081-.73.022.012a.065.065 0 1 1-.076.104l-.015-.014-.277-.256-.005-.005-.001-.004-.066-.265a.017.017 0 0 1 .032-.008l.064.258.322.178zM4.39 1.557c-.5 0-.909.394-.933.888.02.007.038.02.05.035.055 0 .07.095.076.19l.002.1c0 .03 0 .056.002.074h-.364c.002-.019.002-.05.003-.087 0-.026 0-.054.002-.082.005-.097.02-.195.07-.195a.112.112 0 0 1 .05-.035.936.936 0 0 0-.933-.888.005.005 0 1 1 0-.01c.504 0 .917.397.944.894a.157.157 0 0 1 .088 0 .946.946 0 0 1 .943-.894.005.005 0 1 1 0 .01z"/></g></g><path d="M3.413 0a3.413 3.413 0 1 1 0 6.827 3.413 3.413 0 0 1 0-6.827z" style="fill:none"/><path class="fil3" d="m3.824 3.59.399-.209.012-.007.009.01.286.342-.012-.006h.275a.017.017 0 0 1 0 .034H4.51l-.005-.006-.287-.342.022.003-.373.254a.042.042 0 1 1-.043-.072zM3.782 4.07l.476-.15.02-.006.003.02.115 1.009-.006-.011.182.149a.017.017 0 1 1-.021.025l-.182-.149-.005-.004v-.007l-.116-1.009.022.014-.45.214a.051.051 0 1 1-.038-.095zM3.812 2.825l.348-.193-.006.01.066-.265a.017.017 0 0 1 .032.008l-.066.265-.001.004-.006.005-.291.27a.065.065 0 1 1-.076-.104zM2.939 2.93l-.292-.271-.005-.005-.001-.004-.066-.265a.017.017 0 0 1 .032-.008l.066.265-.006-.01.348.193a.065.065 0 1 1-.076.104zM2.96 3.663l-.373-.254.021-.003-.286.342-.005.006H2.034a.017.017 0 0 1 0-.033h.275l-.013.005.287-.341.009-.01.012.006.4.21a.042.042 0 1 1-.044.072zM3.007 4.165l-.45-.214.022-.014-.116 1.01v.006l-.006.004-.181.15a.017.017 0 0 1-.02-.026l.18-.15-.006.012.116-1.01.002-.02.02.007.476.15a.052.052 0 1 1-.037.095z"/><path class="fil4" d="M3.507 2.48a.131.131 0 0 0-.104-.045.131.131 0 0 0-.105.045c-.087 0-.068.287-.075.364h.364c-.007-.082.015-.364-.08-.364z"/><path class="fil4" d="M3.355 2.497a.005.005 0 0 1-.005-.005.936.936 0 0 0-.935-.935.005.005 0 1 1 0-.01c.52 0 .945.424.945.945a.005.005 0 0 1-.005.005zM3.45 2.497a.005.005 0 0 1-.005-.005c0-.521.424-.945.945-.945a.005.005 0 1 1 0 .01.936.936 0 0 0-.935.935.005.005 0 0 1-.005.005zM3.932 3.047c0 1.123-.232 2.233-.519 2.233-.286 0-.518-1.198-.518-2.233 0-.22.232-.399.518-.399.287 0 .519.179.519.399z"/><path class="fil5" d="M3.142 2.707c-.148.07-.247.196-.247.34 0 .68.1 1.43.25 1.865.146-.418.244-1.139.244-1.865 0-.144-.1-.27-.247-.34zM3.685 2.707c-.148.07-.247.196-.247.34 0 .68.1 1.43.25 1.865.147-.418.244-1.139.244-1.865 0-.144-.1-.27-.247-.34z"/></g></svg>