<svg xmlns="http://www.w3.org/2000/svg" xml:space="preserve" width="655.359" height="655.359" style="shape-rendering:geometricPrecision;text-rendering:geometricPrecision;image-rendering:optimizeQuality;fill-rule:evenodd;clip-rule:evenodd" viewBox="0 0 6.827 6.827"><defs><clipPath id="id0"><path d="M3.413 0a3.413 3.413 0 1 1 0 6.827 3.413 3.413 0 0 1 0-6.827z"/></clipPath><style>.fil1{fill:#f48fb1}.fil5{fill:#fd5b00}.fil4,.fil9{fill:#212121;fill-rule:nonzero}.fil9{fill:#3d3d3f}.fil3,.fil6,.fil7{fill:#424242;fill-rule:nonzero}.fil6,.fil7{fill:#fd5b00}.fil7{fill:#fff}</style></defs><g id="Layer_x0020_1"><path d="M3.413 0a3.413 3.413 0 1 1 0 6.827 3.413 3.413 0 0 1 0-6.827z" style="fill:#f8bbd0"/><g style="clip-path:url(#id0)"><g id="_637655992"><path id="_5449319041" class="fil1" d="m5.238 3.046 3.786 3.786.005.006.005.006.004.006.005.006.003.007L5.26 3.076l-.004-.006-.004-.006-.004-.006-.005-.006z"/><path id="_544931712" class="fil1" d="m5.26 3.076 3.786 3.787.003.003.002.004.001.004.002.004.002.004.001.003.002.004.001.004.001.004.001.004.001.004.001.004v.004l.001.004v.004l.001.004v.021l-.001.004v.005l-.002.004v.004l-.002.004v.005l-.002.004-.002.005-.002.004-.002.005-.002.004-3.786-3.786.002-.005.002-.004.002-.005.001-.004.002-.004.001-.005.001-.004.001-.004.001-.005v-.004l.001-.004V3.15l.001-.004v-.016l-.001-.004-.001-.004-.001-.004v-.004l-.002-.004-.001-.004-.001-.004-.002-.004-.001-.004-.002-.004-.002-.003-.002-.004-.002-.004z"/><path id="_544917744" class="fil1" d="m5.265 3.208 3.786 3.786-.002.005-.003.005-.003.005-.003.005-.003.005-.004.005-.003.005-.004.005-.004.005-.005.005-.004.005-.005.005-.005.005-.006.005-.005.005-.006.005L5.2 3.288l.006-.005.005-.005.005-.005.006-.005.004-.005.005-.005.004-.005.005-.005.004-.005.003-.005.004-.005.003-.005.003-.005.003-.005.003-.005z"/><path id="_544917840" class="fil1" d="m5.2 3.288 3.786 3.786-.006.005-.006.005-.006.005-.006.005-.006.005-.006.004-.007.005-.006.004-.007.005-.006.004-.007.004-.007.004-.006.005-.007.004-.007.004-.007.004-.007.004-.007.004-.007.004-.007.004-.007.004-.007.003-.007.004-.008.004-.007.004-.007.004-.008.003-.007.004-.007.004-.008.004-.007.003-.007.004L4.98 3.421l.008-.004.007-.004.008-.003.007-.004.007-.004.008-.004.007-.003.007-.004.007-.004.007-.004.008-.004.007-.004.007-.003.007-.004.007-.004.007-.004.007-.004.007-.004.006-.005.007-.004.007-.004.006-.004.007-.005.006-.004.007-.005.006-.004.007-.005.006-.004.006-.005.006-.005.006-.005z"/><path id="_544918992" class="fil1" d="m4.981 3.42 3.787 3.787-.01.005-.01.005-.01.005-.01.005-.01.005-.009.005-.01.005-.01.005-.009.005-.01.006-.009.005-.01.006-.009.005-.01.006-.008.005-.01.006-.008.006-.01.006-.008.006-.009.006-.009.007-.008.006-.008.007-.008.007-.008.007-.008.007-.008.007-.007.008-.008.007-.007.008-.006.008-.007.008L4.7 3.616l.006-.008.007-.008.007-.008.007-.008.008-.007.008-.007.007-.007.008-.007.008-.007.009-.007.008-.006.009-.007.008-.006.01-.006.008-.006.01-.006.008-.006.01-.006.009-.005.01-.006.009-.005.01-.006.009-.005.01-.005.01-.005.009-.005.01-.005.01-.005.01-.005.009-.005.01-.005z"/><path id="_544919256" class="fil1" d="m3.658 2.792 3.786 3.786.003.004.003.003.003.003.002.004.003.003.003.004.002.003.002.004.003.003.002.004.002.004.002.003.001.004.002.003.002.004.001.004-3.786-3.786-.002-.004-.001-.004-.002-.003-.002-.004-.002-.004-.002-.003-.002-.004-.002-.004-.002-.003-.003-.004-.002-.003-.003-.004-.003-.003-.002-.003-.003-.004z"/><path id="_544918848" class="fil1" d="M3.287 2.654 7.073 6.44l-.006-.005-.005-.005-.006-.005-.006-.004-.006-.003L3.258 2.63l.006.004.006.004.006.005.005.005z"/><path id="_544919088" class="fil1" d="m3.155 2.62 3.787 3.787-.006.002-.005.002-.005.002-.005.002-.004.003-.004.003-.004.002-.004.003L3.118 2.64l.004-.003.004-.003.005-.002.004-.003.005-.002.005-.002.005-.003z"/><path id="_544919136" class="fil1" d="m2.37 1.988 3.787 3.786.008.008.007.008.008.008.008.008.007.008.007.008.008.008.007.008.007.008.007.008.008.008.006.008.007.008.007.008.007.008.006.008.007.008.006.008.006.007.007.008.006.008.006.008.005.007.006.008.006.007.005.008.005.007.005.007-3.786-3.786-.005-.007-.005-.008-.006-.007-.005-.008-.006-.007-.006-.008-.006-.007-.006-.008-.006-.008-.006-.008-.006-.007-.007-.008-.006-.008-.007-.008-.007-.008-.007-.008-.007-.008-.007-.008-.007-.008-.007-.008-.007-.008-.008-.008-.007-.008L2.4 2.02l-.007-.008-.008-.008-.008-.008z"/><path id="_544919040" class="fil1" d="M2.744 2.548 6.53 6.334l.005.012.006.012.005.011.005.012.005.011.005.012.005.012.005.011.005.012.005.011.005.012.005.011.004.012.005.011.005.012.004.011.005.011.004.012.005.011.004.011.005.011.004.011.004.011.005.011.004.011.004.011.004.01.004.011.004.01.004.011.004.01.004.011-3.786-3.786-.004-.01-.004-.01-.004-.011-.004-.01-.004-.012-.004-.01-.004-.011-.005-.01-.004-.012-.004-.01-.004-.012-.005-.011-.004-.011-.005-.011-.004-.012-.005-.011-.005-.012-.004-.01-.005-.012-.005-.012-.004-.011-.005-.012-.005-.011-.005-.012-.005-.012-.005-.011-.005-.012-.005-.011-.005-.012-.006-.012-.005-.011z"/><path id="_544919232" class="fil1" d="m2.89 2.907 3.787 3.786.002.005.002.006.002.006.002.005.002.006.002.006.002.005.002.006.002.006.002.006.002.006.002.006.002.006.002.006.002.006.002.007.002.006.002.006.002.006.002.007.001.006.002.007.002.006.002.006.002.007.002.006.002.007.002.006.002.007.002.006.002.006.001.007-3.786-3.786-.002-.007-.002-.006-.002-.007-.001-.006-.002-.007-.002-.006-.002-.007-.002-.006-.002-.006-.002-.007-.002-.006-.002-.006-.002-.007-.002-.006-.002-.006L2.923 3l-.002-.006-.002-.006-.002-.006-.002-.006-.002-.006-.002-.006-.002-.006-.002-.006-.002-.006-.002-.006-.002-.005-.002-.006-.002-.006-.002-.005-.002-.006z"/><path id="_544918608" class="fil1" d="M2.953 3.103 6.74 6.889l.002.005.001.004.002.005.001.005.001.005.002.004.001.005.002.005.001.005.001.004.002.005.001.005.002.004.001.005.001.005.002.004.001.005.002.005.001.004.001.005.002.004.001.005.002.004.001.005.001.004.002.004.001.005.002.004.001.004.001.005.002.004.001.004L2.998 3.25l-.001-.004-.002-.005-.001-.004-.002-.004-.001-.005-.001-.004-.002-.004-.001-.005-.002-.004-.001-.005-.001-.004-.002-.005-.001-.004-.002-.005-.001-.004-.001-.005-.002-.005-.001-.004-.002-.005-.001-.005-.001-.004-.002-.005-.001-.005-.002-.004-.001-.005-.001-.005-.002-.005-.001-.004-.002-.005-.001-.005-.001-.005z"/><path id="_544918512" class="fil1" d="M2.211 3.364 5.998 7.15l-.008-.003-.007-.002-.008-.003-.007-.003-.008-.003-.007-.003-.008-.003-.008-.002-.007-.003-.008-.003-.008-.003-.008-.003-.008-.003-.008-.003-.008-.003-.008-.003-3.786-3.786.008.003.008.003.008.003.008.003.008.003.007.003.008.002.008.003.008.003.007.003.008.003.008.003.007.003.008.002.007.003z"/><path id="_544918872" class="fil1" d="M2.545 4.483 6.33 8.269l-.003.003-.003.002-.003.003-.003.003-.003.003-.003.002-.003.003-.003.003-.003.002-.003.003L6.3 8.3l-.003.002-.003.003-.003.003-.003.002-.003.003-3.786-3.786.002-.003.003-.003.003-.002.003-.003.003-.002.003-.003.003-.003.003-.003.003-.002.003-.003.003-.003.003-.002.003-.003.003-.003.003-.003z"/><path id="_544919640" class="fil1" d="m2.498 4.526 3.786 3.786-.004.004-.004.003-.005.004-.004.003-.004.004-.004.003-.004.004-.004.003-.004.003-.004.004-.005.003-.004.003-.004.003-.004.004-.004.003-.004.003-.004.003-.004.003-.004.003-.005.003-.004.002-.004.003-.004.003-.004.002-.004.003-.004.003-.004.002-.004.002-.004.003-.004.002-.004.002-.003.002-3.787-3.786.004-.002.004-.002.004-.003.004-.002.004-.002.004-.003.004-.002.004-.003.004-.002.004-.003.004-.003.004-.003.004-.003.004-.002.004-.003.005-.003.004-.004.004-.003.004-.003.004-.003.004-.003.004-.004.004-.003.005-.003.004-.004.004-.003.004-.004.004-.003.004-.004.004-.003.004-.004z"/><path id="_544919784" class="fil1" d="m2.592 4.65 3.786 3.786-.004-.001-.003-.002-.003-.002-.003-.003-3.786-3.786.003.003.003.002.003.002z"/><path id="_544919832" class="fil1" d="m3.015 5.107 3.787 3.787-.005-.003-.005-.003-.004-.003-.005-.003-.004-.003-.005-.003-.004-.003-.004-.003-.005-.004-.004-.003-.004-.003-.004-.004-.004-.004-3.787-3.786.004.004.005.003.004.004.004.003.004.003.005.004.004.003.004.003.005.003.005.003.004.003.005.003z"/><path id="_544919880" class="fil1" d="m2.766 4.536 3.786 3.786-.006.007-.007.008-.006.007-.006.007-.006.006-.007.007-.006.006-.006.006-.006.006-.006.006-.006.005-.006.005-.005.005-.006.005-.006.004-.005.004-.006.004-.005.003-.006.003-.005.003-.005.002-.005.003-.005.002-.005.001-.005.001-.005.001H6.386l-.004-.001-.004-.002L2.592 4.65l.004.002H2.6l.004.001H2.618l.005-.001.004-.001.005-.002.005-.002.005-.002.006-.002.005-.003.005-.003.006-.004.005-.003.006-.004.006-.005.005-.004.006-.005.006-.005.006-.006.006-.005.006-.006.006-.006.006-.006.006-.007.006-.007.007-.007.006-.007.006-.007z"/><path id="_544920000" class="fil1" d="M3.154 5.15 6.94 8.938h-.01l-.004-.002H6.92l-.005-.001h-.005l-.004-.002h-.005l-.004-.002h-.005l-.004-.002h-.005l-.004-.002-.005-.001-.004-.001-.004-.002-.005-.001-.004-.002-.004-.001-.004-.002-.005-.001-.004-.002-.004-.002-.004-.001-.004-.002-.004-.002-.004-.002-.004-.002-.004-.002-.004-.002-.003-.002-.004-.002-3.787-3.787.004.003.004.002.004.002.004.002.004.002.004.002.004.002.004.001.004.002.004.002.004.001.004.002.004.002.005.001.004.002h.004l.005.002.004.002h.004l.005.002.004.001.005.001.004.001.005.001.005.001h.004l.005.002h.005l.004.001h.005l.005.001z"/><path id="_544919328" class="fil1" d="M3.324 5.14 7.11 8.925h-.006l-.006.002-.006.001-.006.001-.005.001-.006.001h-.006l-.005.002h-.006l-.005.001h-.006l-.005.001-.006.001h-.011l-.005.001h-.01l-.006.001H6.95l-.005-.001H6.94L3.154 5.15H3.163l.005.001h.015l.005.001h.041l.005-.001h.011l.005-.001h.005l.006-.001.005-.001h.006l.005-.002h.006l.006-.001.005-.001.006-.001.006-.001.006-.001.006-.001z"/><path id="_544919808" class="fil1" d="m2.088 3.318 3.786 3.786-.013-.005-.013-.004-.013-.005-.013-.005-.013-.005-.012-.005-.013-.005-.013-.004-.013-.005-.012-.005-.013-.005-.012-.004-.012-.005-.012-.004-.012-.005-.011-.004-.012-.005-.01-.004-.012-.004-.01-.005-.01-.004-.01-.004L5.6 7l-.01-.004-.008-.003-.009-.004-.008-.004-.008-.003-.007-.003-.007-.004-.007-.003-.006-.003-3.786-3.786.006.003.006.003.007.003.008.004.008.003.008.004.008.003.01.004.009.004.01.004.01.004.01.004.01.004.011.005.011.004.011.004.012.005.012.004.012.005.012.004.012.005.012.005.013.005.013.004.012.005.013.005.013.005.013.005.013.004.013.005.013.005z"/><path id="_544919928" class="fil1" d="m2.367 4.621 3.787 3.786-.007.003-.006.004-.006.003-.006.003-.006.003-.006.003-.006.003-.006.003-.006.003-.006.002-.006.003-.006.003-.006.002-.006.003-.006.002-.006.003-.006.002-.006.002-.006.002-.005.002-.006.002-.006.003-.006.001-.005.002-.006.002-.006.002-.006.002-.005.001-.006.002-.006.001-.005.002-.006.001L2.18 4.696l.005-.002.006-.001.006-.002.005-.001.006-.002.006-.001.006-.002.005-.002.006-.002.006-.002.006-.002.005-.002.006-.002.006-.002.006-.002.006-.003.006-.002.006-.003.005-.002.006-.003.006-.002.006-.003.006-.003.006-.003.006-.002.006-.003.007-.003.006-.003.006-.003.006-.004.006-.003z"/><path id="_544919400" class="fil1" d="m2.179 4.696 3.786 3.786-.006.001-.005.002h-.006l-.006.002h-.006l-.005.002h-.006l-.006.001-.005.001h-.006l-.006.001h-.005l-.006.001h-.017l-.005.001H5.84l-.005-.001h-.005l-.006-.001-.005-.001h-.006l-.005-.002h-.005l-.006-.002h-.005l-.005-.002-3.786-3.786h.005l.005.002.005.001h.006l.005.002h.006l.005.001h.005l.006.001h.005l.006.001H2.11l.006-.001h.006l.005-.001h.006l.006-.002h.005l.006-.001.006-.001.006-.002h.005l.006-.002z"/><path id="_544919448" class="fil1" d="m2.002 4.699 3.786 3.786-.004-.001-.005-.001-.004-.001-.004-.002h-.004l-.005-.002-.004-.002-.004-.001-.004-.002-.004-.001-.004-.002-.005-.001-.004-.002-.004-.002-.004-.002-.004-.002-.004-.002-.004-.002-.004-.002-.004-.002L5.7 8.45l-.004-.003-.004-.002-.004-.002-.004-.003-.004-.003-.004-.002-.004-.003-.004-.003-.004-.002-.004-.003-.004-.003-3.786-3.787.004.003.004.003.004.003.004.003.004.003.004.002.004.003.004.002.004.003.004.002.004.002.004.003.004.002.004.002.004.002.004.002.004.002.004.002.004.002.004.001.004.002.004.002.005.001.004.002.004.001.004.002h.004l.005.002.004.001.004.002h.004z"/><path id="_544919544" class="fil1" d="m1.87 4.635 3.787 3.787-.007-.006-.008-.006-.007-.007-3.787-3.786.008.006.007.007z"/><path id="_544920312" class="fil1" d="m4.032 4.69 3.786 3.786-.007.008-.007.007-.008.008-.008.009-.008.008-.009.008-.009.009-.009.008-.01.01-.01.008-.01.009-.01.009-.01.009-.011.01-.011.008-.012.01-.011.009-.012.009-.012.01-.012.008-.013.01-.012.009-.013.01-.012.008-.013.01-.013.009-.013.009-.013.009-.014.009-.013.008-.013.01-.014.008L3.68 4.972l.013-.008.014-.009.013-.009.013-.009.013-.009.014-.009.013-.009.012-.009.013-.01.013-.008.012-.01.013-.009.012-.01.012-.008.011-.01.012-.009.011-.009.011-.01.011-.008.011-.01.01-.008.01-.01.01-.008.01-.009.01-.008.008-.009.009-.008.008-.009.008-.008.008-.008.007-.008z"/><path id="_544920504" class="fil1" d="M1.744 3.182 5.53 6.968l-.01-.005-.008-.005-.008-.006-.007-.005-.007-.006-3.786-3.787.006.006.008.006.008.006.008.005z"/><path id="_544920216" class="fil1" d="M3.68 4.972 7.466 8.76l-.012.007-.011.008-.012.007-.012.007-.012.007-.012.007-.012.007-.012.007-.011.006-.012.007-.012.006-.012.006-.011.006-.012.006-.012.006-.011.005-.012.006-.01.005-.012.005-.011.005-.011.004-.011.005-.01.004-.012.004-.01.004-.01.003-.01.004-.01.003-.01.003-.01.002-.01.003-.01.002-3.785-3.787.009-.002.01-.002.01-.003.009-.002.01-.004.01-.003.01-.003.011-.004.01-.004.012-.004.01-.005.012-.004.01-.005.012-.005.011-.005.012-.006.011-.005.012-.006.011-.006.012-.006.012-.006.011-.007.012-.006.012-.007.012-.006.012-.007.012-.007.012-.007.011-.007.012-.008.012-.007z"/><path id="_544920264" class="fil1" d="m2.556 2.207 3.786 3.786.007.01.006.009.006.009.007.01.006.01.006.009.006.01.007.01.006.01.006.01.006.01.006.011.006.01.006.011.006.01.006.012.006.01.005.011.006.011.006.011.006.012.005.01.006.012.006.011.005.012.006.011.005.012.006.011.005.012.006.011.005.012.005.011-3.786-3.786-.005-.011-.006-.012-.005-.012-.006-.011-.005-.012-.006-.011-.005-.011-.006-.012-.005-.011-.006-.011-.006-.012-.005-.01-.006-.012-.006-.01-.006-.012-.006-.01-.006-.011-.005-.011-.006-.01-.006-.011-.006-.01-.007-.011-.006-.01-.006-.01-.006-.01-.006-.01-.006-.01-.007-.01-.006-.01-.006-.009-.007-.009z"/><path id="_544920624" class="fil1" d="m3.118 2.64 3.787 3.786-.004.003-.003.003-.003.003-.003.002-.003.003-.003.003-.002.003-.002.002-3.786-3.786.002-.002.002-.003.003-.003.002-.003.003-.003.003-.003.004-.002z"/><path id="_544920384" class="fil1" d="M3.255 2.98 7.04 6.768l-.047.09-3.786-3.786z"/><path id="_544920144" class="fil1" d="m3.016 3.229 3.787 3.786h-.001L3.016 3.229z"/><path id="_544920528" class="fil1" d="m3.016 3.229 3.786 3.786L3.014 3.23z"/><path id="_544920576" class="fil1" d="m3.898 4.042 3.786 3.786-.008-.003-.008-.003-.007-.004-.008-.003-.008-.003-.007-.003-.008-.004-.008-.003-.007-.003-.008-.003-.007-.003-.008-.003-.007-.003-.008-.003-.007-.004-.007-.003-3.786-3.786.007.003.007.003.007.003.008.003.007.004.008.003.007.003.008.003.008.003.007.003.008.004.008.003.007.003.008.003.008.004z"/><path id="_544920792" class="fil1" d="m3.917 4.118 3.786 3.786.02.02.019.02.018.02.018.02.018.02.016.022.016.021.014.022.014.022.012.022.01.023.01.023.007.023.006.023.004.024.002.024v.024l-.002.024-.005.025-.007.024-.01.025-.012.025-.014.025-.018.026-.021.025L4.032 4.69l.02-.026.018-.025.015-.025.012-.025.01-.025.007-.025.004-.024.003-.024v-.024l-.002-.024-.004-.024-.006-.023-.008-.024-.009-.022-.01-.023-.013-.022-.013-.023-.015-.021-.015-.022-.017-.02-.017-.022-.018-.02-.019-.02-.019-.02z"/><path id="_544920120" class="fil1" d="m3.258 2.631 3.786 3.787-.003-.002-.004-.002-.003-.001-.003-.002-.004-.001-.003-.002h-.003l-.004-.002h-.003l-.003-.002h-.004l-.003-.001H7l-.004-.001h-.003L6.99 6.4 3.204 2.615h.007l.003.001h.004l.003.001.003.001h.004l.003.002h.003l.004.002.003.001.003.002.004.001.003.002.004.002z"/><path id="_544921128" class="fil1" d="M3.204 2.615 6.991 6.4h-.026l-.003.001h-.003l-.003.001h-.003l-.003.001-.003.001-.003.001h-.002L3.155 2.622l.003-.001.003-.001h.003l.003-.002h.006l.003-.001h.003l.003-.001H3.2z"/><path id="_544920888" class="fil1" d="m3.31 2.62 3.786 3.786.003.004.004.003.003.004.003.004.003.004.003.004.003.004.002.005L3.334 2.65l-.002-.004-.003-.004-.003-.004-.003-.004-.003-.004-.004-.004-.003-.004z"/><path id="_544921512" class="fil1" d="M3.343 2.807 7.13 6.593l-.002.003v.002l-.002.002v.002l-.002.002v.002l-.002.002v.002L3.334 2.824l.001-.002.001-.002.001-.002.001-.002.001-.002.001-.002.001-.002z"/><path id="_544921560" class="fil1" d="m3.096 2.662 3.786 3.786-.002.003-.001.002-.002.002-.001.002-.002.002v.002l-.002.002-.001.002L3.085 2.68v-.002l.002-.002.001-.002.001-.002.002-.002.001-.002.002-.002z"/><path id="_544921464" class="fil1" d="M3.085 2.68 6.87 6.464l-.004.008L3.08 2.687z"/><path id="_544921104" class="fil1" d="m3.08 2.687 3.787 3.786-.003.004-.003.004-.004.002-.005.002-.005.001H6.838l-.005-.003-3.786-3.786.005.002H3.066l.004-.002.004-.002.004-.004z"/><path id="_544921536" class="fil1" d="m3.047 2.697 3.786 3.786-.004-.002-.003-.004-3.787-3.786.004.003z"/><path id="_544921008" class="fil1" d="m3.311 2.87 3.787 3.787-.057.11L3.255 2.98z"/><path id="_544921320" class="fil1" d="M3.334 2.651 7.12 6.438l.003.004.003.004.002.005.002.005.002.004.002.005.002.005.001.005.002.004v.005l.002.005.001.005V6.5l.002.006v.01L3.358 2.728v-.01l-.001-.005-.001-.005-.001-.005-.001-.005-.002-.005-.001-.005-.002-.005-.001-.004-.002-.005-.002-.005-.002-.004-.003-.005-.002-.004z"/><path id="_544921344" class="fil1" d="m3.358 2.728 3.786 3.787V6.545l-.001.005-.001.005-.001.005-.001.005-.002.005-.001.005-.002.005-.002.004-.001.005-.002.004-3.787-3.786.002-.004.002-.005.002-.005.002-.004.001-.005.001-.005.002-.005v-.005l.001-.005.001-.005v-.005l.001-.005v-.015z"/><path id="_637659328" class="fil1" d="m3.58 2.79 3.786 3.786-.003-.001-.004-.001-.003-.001-.003-.002h-.004l-.004-.001-.003-.001h-.004l-.004-.001h-.003l-.004-.001h-.019L3.52 2.781h.027l.004.001h.003l.004.001.004.001.003.001.004.001.003.001.003.002z"/><path id="_637658704" class="fil1" d="M3.335 2.824 7.121 6.61l-.008.016-3.786-3.787z"/><path id="_637659184" class="fil1" d="m3.327 2.84 3.786 3.786-.015.03L3.31 2.87z"/><path id="_637659088" class="fil1" d="m3.403 2.877 3.786 3.786-.016.03-3.786-3.785z"/><path id="_637659160" class="fil1" d="m3.33 3.018 3.787 3.786-.047.09L3.284 3.11z"/><path id="_637659304" class="fil1" d="m3.387 2.908 3.786 3.786-.056.11L3.33 3.018z"/><path id="_637658824" class="fil1" d="M3.623 2.82 7.41 6.606l-.003-.002-.002-.003-.003-.002-.002-.002-.003-.002-.003-.003-.002-.002-.003-.002-.003-.002-.003-.001-.004-.002-.003-.002-.003-.002-.004-.001-.003-.002L3.58 2.79l.003.001.004.002.003.002.003.002.003.001.003.002.003.002.003.002.003.002.003.002.002.002.003.003.002.002.003.002z"/><path id="_637659832" class="fil1" d="m3.705 2.904 3.787 3.787V6.712l-.001.003v.005l-.001.003v.005l-.001.002v.002l-.001.003L3.7 2.948v-.002l.001-.002V2.94l.001-.002v-.003l.001-.002v-.006l.001-.003V2.908z"/><path id="_637659376" class="fil1" d="M3.694 2.849 7.48 6.635l.001.003.002.004v.004l.002.003.001.004v.004l.002.003v.004l.001.003v.004l.001.003v.003l.001.004v.01L3.706 2.904V2.891l-.001-.003v-.004l-.001-.003v-.004L3.7 2.874V2.87L3.7 2.867l-.001-.004-.001-.004-.002-.003v-.004z"/><path id="_637659928" class="fil1" d="m3.521 2.78 3.787 3.787H7.3l-.004.001-.004.001-.004.001-.004.001-.003.001-.004.001-.004.002-.003.001-.004.002-.004.001-.003.002-.004.002-.003.002-.004.002L3.462 2.8l.004-.002.003-.002.004-.002.003-.002.004-.002.003-.001.004-.002.004-.001.003-.001.004-.001.004-.001.004-.001h.004l.004-.001h.003z"/><path id="_637659448" class="fil1" d="M3.69 2.984 7.475 6.77 3.688 2.986z"/><path id="_637660048" class="fil1" d="m3.462 2.8 3.786 3.787-.003.002-.003.002-.003.003-.003.002-.003.003-.003.002-.003.003-.003.003-.003.003-.002.003-.003.003-.002.003-.002.003-.003.004-.002.003-.002.003L3.42 2.846l.002-.003.002-.004.002-.003.003-.003.002-.003.002-.003.003-.003.003-.003.002-.003.003-.003.003-.003.003-.002.003-.003.004-.002.003-.002z"/><path id="_637659472" class="fil1" d="m3.656 2.997 3.787 3.786-.005-.002-.003-.003L3.648 2.99l.004.004z"/><path id="_637659592" class="fil1" d="m3.701 2.948 3.787 3.787-.001.004-.002.005v.004l-.002.003-.001.004-.001.003-.001.002v.002L3.692 2.976v-.002l.002-.003V2.97l.002-.004.001-.004.001-.004.001-.004z"/><path id="_637660480" class="fil1" d="m4.7 3.616 3.787 3.786-.004.005-.004.005-.003.006-.004.005-.004.006-.004.005-.004.006-.004.007-.004.006-.004.006-.004.007-.004.007-.004.006-.005.007-.004.007-.004.008-.004.007-.004.007-.004.008-.004.007-.005.007-.004.008-.004.008-.004.007-.004.008-.004.007-.005.008-.004.008-.004.007-.004.008-.004.007-.004.008-3.786-3.786.004-.008.004-.007.004-.008.004-.008.004-.007.004-.008.004-.007.005-.008.004-.008.004-.007.004-.008.004-.007.004-.008.005-.007.004-.007.004-.008.004-.007.004-.007.004-.007.004-.007.005-.006.004-.007.004-.006.004-.007.004-.006.004-.006.004-.006.003-.005.004-.006.004-.005.004-.005z"/><path id="_637660192" class="fil1" d="m3.693 2.976 3.786 3.786-.003.008-3.787-3.786z"/><path id="_637660216" class="fil1" d="M3.69 2.985 7.474 6.77l-.002.004-.003.004-.004.003-.004.002-.005.001h-.01l-.004-.002-3.787-3.786.005.002h.01l.004-.001.005-.002.003-.003.004-.004z"/><path id="_637660816" class="fil1" d="m3.419 2.846 3.786 3.786v.002l-.002.002v.002l-.002.001v.002l-.002.002v.002l-.002.002-3.786-3.786V2.86l.002-.002v-.002l.002-.002.001-.002.001-.002.001-.001z"/><path id="_637660624" class="fil1" d="m3.41 2.861 3.787 3.786-.008.016-3.786-3.786z"/><path id="_637660120" class="fil1" d="M4.57 3.835 8.358 7.62l-.002.005-.003.005-.003.004-.002.005-.003.005-.002.005-.003.004-.002.005-.003.005-.002.004-.003.005-.002.004-.003.005-.002.004-.003.005-.002.004-.002.004-.003.004-.002.005-.002.004-.003.004-.002.004-.002.004-.003.004-.002.003-.002.004-.002.004-.002.003-.003.004-.002.003-.002.004-.002.003L4.495 3.97l.002-.003.002-.004.002-.003.002-.004.003-.003.002-.004.002-.004.002-.004.002-.004.003-.004.002-.004.002-.004.003-.004.002-.004.002-.004.003-.004.002-.005.003-.004.002-.005.002-.004.003-.005.002-.004.003-.005.002-.004.003-.005.002-.005.003-.004.003-.005.002-.005.003-.005.002-.004z"/><path id="_637660360" class="fil1" d="M4.495 3.97 8.28 7.756l-.002.004-.002.003-.002.003-.002.004-.003.003-.002.004-.002.003-.002.004-.002.004-.002.003-.002.004-.002.003-.002.004-.002.003-.002.004-.003.003-3.786-3.786.002-.003.002-.004.002-.004.002-.003.003-.004.002-.003L4.476 4l.002-.003.002-.004.002-.003.002-.004.002-.003.002-.004.003-.003.002-.004z"/><path id="_637661512" class="fil1" d="m3.31 3.13 3.785 3.786.005.005.005.005.004.006.004.005.003.005.003.006.002.005.002.006.002.005.001.006.001.005.001.006V7.008l-.002.005-.001.005-.002.006-.001.005-.002.005-.002.005-.002.005-.003.005-.002.005-.003.005-.002.004-3.787-3.786.003-.005.003-.005.002-.004.002-.005.003-.005.002-.005.002-.006.001-.005.002-.005v-.005l.002-.006v-.005l.001-.005V3.189l-.002-.005-.001-.006-.002-.005-.002-.006-.002-.005-.003-.006-.004-.005-.003-.006-.004-.005-.005-.005z"/><path id="_637661416" class="fil1" d="m4.461 4.026 3.786 3.786-.005.01-.005.009-.006.009-.005.009-.005.009-.006.008-.005.009-.005.008-.006.008-.006.007-.005.008-.006.007-.006.007-.006.006-.006.007-.006.005-.006.006-.007.005-.007.004-.007.005-.007.003-.007.003-.008.003-.008.002-.008.002h-.008l-.009.001h-.019l-.009-.002-.01-.002-.01-.003-3.786-3.786.01.003.01.002.01.001h.009l.009.001h.008l.009-.001.008-.002.008-.002.007-.003.008-.003.007-.004.007-.004.007-.004.006-.005.007-.006.006-.006.006-.006.006-.006.006-.007.006-.007.005-.008.006-.008.005-.008.006-.008.005-.008.005-.009.006-.008.005-.01.005-.008.006-.01z"/><path id="_637661320" class="fil1" d="m3.32 3.277 3.786 3.786-.003.005-.003.004-.003.005-.003.004-.003.004-.003.004-.003.004-.003.003-.003.004-.003.003-.003.003-.003.003-.002.003-.003.002-.002.003-.002.002-3.787-3.786.003-.002.002-.003.002-.002.003-.003.003-.003.003-.003.002-.004.003-.003.003-.004.004-.003.003-.004.003-.004.003-.005.003-.004.002-.004z"/><path id="_637661464" class="fil1" d="M3.274 3.333 7.06 7.119 3.274 3.331z"/><path id="_637660888" class="fil1" d="M3.274 3.332 7.06 7.118v.007l-.001.005v.022l.001.007-3.786-3.786v-.007l-.001-.006v-.025z"/><path id="_637660912" class="fil1" d="m3.274 3.333 3.787 3.786-3.787-3.786z"/><path id="_637661056" class="fil1" d="M3.284 3.337 7.07 7.124v.004L3.282 3.342v-.004z"/><path id="_637662112" class="fil1" d="M3.283 3.342 7.07 7.128 3.283 3.34z"/><path id="_637662040" class="fil1" d="m4.242 4.179 3.786 3.786-.006-.002-.007-.002-.008-.003L8 7.956l-.008-.003-.009-.003-.009-.003-.009-.004-.01-.003-.009-.004-.01-.004-.01-.004-.01-.004-.012-.004-.01-.005-.012-.004-.011-.005-.012-.005-.012-.005-.012-.005-.012-.005-.012-.005-.013-.005-.012-.005-.013-.005-.012-.006-.013-.005-.013-.005-.013-.006-.012-.005-.013-.005-.013-.006-3.786-3.786.013.005.012.006.013.005.013.006.013.005.012.005.013.006.013.005.012.005.013.005.012.005.012.005.012.005.012.005.011.005.012.004.011.005.011.004.011.005.01.004.01.004.01.004.01.003.01.004.01.003.008.004.008.003.009.002.007.003.008.003.006.002z"/><path id="_637656040" class="fil1" d="M4.318 2.912c.091-.02.211-.032.329-.034.105-.002.21.004.292.022a.789.789 0 0 1 .226.087.27.27 0 0 1 .095.09c.023.039.028.083.005.13a.253.253 0 0 1-.065.081c-.063.054-.14.093-.219.133-.103.052-.21.106-.28.195-.04.05-.087.139-.13.219-.028.051-.054.1-.076.135a1.623 1.623 0 0 0-.034.056c-.057.1-.108.186-.22.153-.066-.02-.207-.08-.343-.137l-.121-.05.003.002c.198.172.49.424.252.696a1.805 1.805 0 0 1-.352.282c-.126.08-.258.147-.356.167a.552.552 0 0 1-.17.012.346.346 0 0 1-.266-.167.724.724 0 0 1-.116-.342 2.035 2.035 0 0 1-.006-.106c-.068.08-.132.131-.174.114-.038-.015-.05-.08-.047-.167l-.047.043a.724.724 0 0 1-.32.17.345.345 0 0 1-.308-.06.552.552 0 0 1-.115-.125 1.216 1.216 0 0 1-.145-.366 1.805 1.805 0 0 1-.063-.447c.013-.36.398-.345.66-.334h.004l-.123-.046c-.138-.052-.282-.105-.344-.136-.104-.052-.081-.15-.056-.261l.014-.064c.008-.041.022-.094.038-.151.023-.088.05-.184.055-.248.01-.113-.031-.226-.071-.335-.03-.083-.06-.164-.068-.246a.253.253 0 0 1 .007-.103c.016-.05.05-.08.093-.093a.27.27 0 0 1 .13 0 .789.789 0 0 1 .225.092c.073.044.153.11.228.183.085.083.163.174.217.25.068.098.131.218.188.342.056.124.106.25.147.359.022.057.042.127.062.196.015.05.03.101.045.146a.129.129 0 0 0 .018-.02c-.001-.02-.001-.055.01-.089.019-.054.06-.1.158-.076l.045-.096.053-.112.015-.031.007-.016c.003-.006.006-.011.007-.016a.127.127 0 0 0-.01-.12.125.125 0 0 0-.097-.058.125.125 0 0 0-.12.064l-.003.008a.025.025 0 0 1-.044-.024l.005-.008a.17.17 0 0 1 .236-.06.165.165 0 0 1 .08.133.163.163 0 0 1-.015.08l-.008.016-.008.015-.016.031-.056.11-.047.091.002.001.008.003.008.003.014.006.004.002a.3.3 0 0 1 .018.01l.043-.09.053-.113.015-.031.007-.016.008-.017a.163.163 0 0 1 .13-.087.165.165 0 0 1 .14.05.17.17 0 0 1 .035.184l-.004.008a.025.025 0 0 1-.045-.02l.003-.008a.113.113 0 0 0 .011-.05.13.13 0 0 0-.032-.084.128.128 0 0 0-.207.024l-.008.015-.008.016-.016.03-.056.11-.047.092c.078.054.065.118.035.168a.305.305 0 0 1-.045.056.208.208 0 0 0 0 .04c.043-.023.092-.052.14-.08.063-.037.125-.073.18-.1a5.85 5.85 0 0 1 .353-.161c.126-.052.255-.096.37-.12zm-1.035.427c.002-.004 0 .001 0 .003v-.003z"/></g></g><path d="M3.413 0a3.413 3.413 0 1 1 0 6.827 3.413 3.413 0 0 1 0-6.827z" style="fill:none"/><path class="fil3" d="M2.406 3.406c-.002.006-.003.01-.001.006l.001-.006z"/><path class="fil3" d="M2.408 3.406c.003-.007.002-.006-.002 0l-.001.006a.11.11 0 0 0 .003-.006z"/><path class="fil4" d="M2.953 3.103c.022.073.043.146.065.2l.01.025-.02.018a.264.264 0 0 0-.054.11.635.635 0 0 0-.023.17l-.002.006a.116.116 0 0 1-.016.06c-.017.028-.042.051-.068.077-.038.037-.081.08-.107.142a3.104 3.104 0 0 0-.108.475l-.01.023c-.038.038-.08.08-.122.117a.724.724 0 0 1-.32.17.345.345 0 0 1-.308-.06.552.552 0 0 1-.115-.125 1.216 1.216 0 0 1-.145-.366 1.805 1.805 0 0 1-.063-.447c.013-.36.398-.345.66-.334h.004l-.123-.046c-.138-.052-.282-.105-.344-.136-.104-.052-.081-.15-.056-.261l.014-.064c.008-.041.022-.094.038-.151.023-.088.05-.184.055-.248.01-.113-.031-.226-.071-.335-.03-.083-.06-.164-.068-.246a.253.253 0 0 1 .007-.103c.016-.05.05-.08.093-.093a.27.27 0 0 1 .13 0 .789.789 0 0 1 .225.092c.073.044.153.11.228.183.085.083.163.174.217.25.068.098.131.218.188.342.056.124.106.25.147.359.022.057.042.127.062.196z"/><path class="fil5" d="m1.813 1.833.001.027c.007.07.036.144.06.209.048.131.092.26.08.403-.008.09-.037.188-.06.275-.013.046-.026.093-.035.14l-.015.07c-.004.017-.015.06-.018.088.09.043.2.08.294.114l.024.01.124.046.532.2a.61.61 0 0 1 .047-.116c-.017-.05-.032-.101-.047-.151-.018-.062-.036-.125-.058-.185a5.631 5.631 0 0 0-.143-.349 1.982 1.982 0 0 0-.173-.315 1.675 1.675 0 0 0-.198-.228 1.135 1.135 0 0 0-.199-.161.615.615 0 0 0-.175-.072.218.218 0 0 0-.04-.005zm.962 1.713-.574-.023a2.544 2.544 0 0 0-.204-.003c-.072.003-.187.014-.244.063-.036.03-.045.076-.047.12-.004.123.028.284.058.403.024.093.066.234.122.313a.4.4 0 0 0 .082.09.188.188 0 0 0 .07.034c.035.009.07.005.105-.003a.567.567 0 0 0 .25-.134 2 2 0 0 0 .086-.082 3.3 3.3 0 0 1 .044-.232c.018-.076.038-.168.067-.24a.556.556 0 0 1 .144-.197c.01-.01.025-.024.036-.037l.001-.008c0-.021.002-.043.004-.064z"/><path class="fil3" d="m3.017 3.227-.001.002.001-.002z"/><path class="fil4" d="M2.625 3.851C2.28 3.144 2.31 2.776 2.36 2.7c.071-.187.281.194.421.291l-.045-.399-.305-.343c-.315-.276-.567-.426-.52.016l.428.415a.295.295 0 0 0-.048.132l-.371-.307-.018.022.385.318a.685.685 0 0 0 0 .093l-.432-.218-.013.026.447.225c.004.04.01.086.021.137.034.157.155.481.289.756l.026-.013z"/><path class="fil4" d="m2.59 3.789-.02-.017c-.232.286-.289.265-.319.25-.074-.04-.015-.349.04-.535l-.025-.007s-.037.125-.06.254v.009l-.48.409.017.02.456-.389a.81.81 0 0 0-.01.139V3.92l-.385.428.02.018.368-.41c.006.038.017.065.035.08l-.246.43.024.014.246-.431a.069.069 0 0 0 .019.002.1.1 0 0 0 .028-.004l-.06.451.027.004.062-.467a.424.424 0 0 0 .084-.06l.05.428.027-.003-.052-.447c.052-.049.084-.078.154-.165z"/><path class="fil6" d="M2.047 2.232c0-.035.066-.064.148-.064.081 0 .148.029.148.064s-.067.063-.148.063c-.082 0-.148-.028-.148-.063zM2.2 2.436c0-.033.046-.06.104-.06.057 0 .104.027.104.06 0 .032-.047.059-.104.059-.058 0-.105-.027-.105-.06z"/><path class="fil4" d="M1.805 3.694c0-.035.066-.063.148-.063.082 0 .148.028.148.063s-.066.064-.148.064c-.082 0-.148-.029-.148-.064z"/><path class="fil7" d="M2.162 4.624a.025.025 0 1 0 .05-.004.025.025 0 0 0-.05.004zM2.023 4.633a.038.038 0 1 0 .076-.007.038.038 0 0 0-.076.007zM1.88 4.59a.05.05 0 1 0 .101-.01.05.05 0 0 0-.1.01zM1.777 4.468a.041.041 0 1 0 .082-.007.041.041 0 0 0-.082.007zM1.732 4.336a.025.025 0 1 0 .05-.004.025.025 0 0 0-.05.004zM2.267 4.581a.02.02 0 1 0 .041-.004.02.02 0 0 0-.04.004zM2.354 4.533a.016.016 0 1 0 .032-.003.016.016 0 0 0-.032.003zM2.448 4.473a.012.012 0 1 0 .023-.002.012.012 0 0 0-.023.002zM1.67 4.211a.041.041 0 1 0 .081-.007.041.041 0 0 0-.082.007zM1.645 4.05a.025.025 0 1 0 .05-.004.025.025 0 0 0-.05.005zM1.605 3.886a.041.041 0 1 0 .082-.007.041.041 0 0 0-.082.007zM1.603 3.732a.025.025 0 1 0 .05-.005.025.025 0 0 0-.05.005zM1.631 3.575a.041.041 0 1 0 .082-.008.041.041 0 0 0-.082.008zM1.754 3.48a.025.025 0 1 0 .05-.004.025.025 0 0 0-.05.005zM1.859 3.45a.041.041 0 1 0 .082-.008.041.041 0 0 0-.082.007zM1.998 3.44a.025.025 0 1 0 .05-.005.025.025 0 0 0-.05.004zM2.098 3.445a.041.041 0 1 0 .082-.007.041.041 0 0 0-.082.007zM2.271 3.445a.025.025 0 1 0 .05-.005.025.025 0 0 0-.05.005zM2.592 3.457a.031.031 0 1 0 .062-.006.031.031 0 0 0-.062.006zM2.399 3.416a.066.066 0 1 0 .131-.012.066.066 0 0 0-.131.012zM2.304 3.318a.025.025 0 1 0 .05-.005.025.025 0 0 0-.05.005zM2.142 3.261a.041.041 0 1 0 .082-.007.041.041 0 0 0-.082.007zM2.705 3.478a.024.024 0 1 0 .048-.004.024.024 0 0 0-.048.004zM2.015 3.22a.025.025 0 1 0 .05-.005.025.025 0 0 0-.05.005zM1.853 3.163a.041.041 0 1 0 .082-.007.041.041 0 0 0-.082.007zM1.739 3.09a.025.025 0 1 0 .05-.005.025.025 0 0 0-.05.005zM1.728 2.957a.041.041 0 1 0 .082-.007.041.041 0 0 0-.082.007zM1.778 2.807a.025.025 0 1 0 .05-.004.025.025 0 0 0-.05.004zM1.8 2.65a.041.041 0 1 0 .081-.007.041.041 0 0 0-.082.007zM1.843 2.49a.025.025 0 1 0 .05-.005.025.025 0 0 0-.05.004zM1.824 2.319a.041.041 0 1 0 .082-.007.041.041 0 0 0-.082.007zM1.784 2.15a.025.025 0 1 0 .05-.005.025.025 0 0 0-.05.005zM1.729 1.989a.041.041 0 1 0 .082-.007.041.041 0 0 0-.082.007zM1.705 1.829a.025.025 0 1 0 .05-.005.025.025 0 0 0-.05.004zM1.793 1.749a.041.041 0 1 0 .082-.007.041.041 0 0 0-.082.007zM1.97 1.796a.025.025 0 1 0 .05-.004.025.025 0 0 0-.05.004zM2.074 1.87a.041.041 0 1 0 .082-.007.041.041 0 0 0-.082.007zM2.22 1.989a.025.025 0 1 0 .05-.004.025.025 0 0 0-.05.004zM2.316 2.106a.041.041 0 1 0 .082-.007.041.041 0 0 0-.082.007zM2.44 2.23a.025.025 0 1 0 .05-.004.025.025 0 0 0-.05.005zM2.506 2.36a.041.041 0 1 0 .082-.008.041.041 0 0 0-.082.007zM2.58 2.486a.025.025 0 1 0 .051-.005.025.025 0 0 0-.05.005zM2.647 2.614a.041.041 0 1 0 .082-.007.041.041 0 0 0-.082.007zM2.717 2.753a.025.025 0 1 0 .05-.004.025.025 0 0 0-.05.004zM2.752 2.883a.041.041 0 1 0 .082-.007.041.041 0 0 0-.082.007zM2.82 3.03a.025.025 0 1 0 .051-.005.025.025 0 0 0-.05.005zM2.847 3.166a.041.041 0 1 0 .082-.008.041.041 0 0 0-.082.008z"/><path class="fil3" d="m3.606 3.888-.003.006.003-.006zM3.604 3.888c.003-.008.003-.006.002 0l-.003.006.001-.006z"/><path class="fil4" d="M3.415 3.293a2.485 2.485 0 0 1-.185.102l-.024.01.002.027a.264.264 0 0 1-.035.117.635.635 0 0 1-.1.14l-.003.005a.116.116 0 0 0-.03.056c-.006.032-.004.066-.003.103.003.052.005.113-.02.176a3.102 3.102 0 0 1-.247.42l-.007.024c.002.053.004.113.01.169a.724.724 0 0 0 .115.342.346.346 0 0 0 .266.167c.05.005.106.002.17-.012.098-.02.23-.087.356-.167.143-.09.28-.201.352-.282.238-.272-.054-.524-.252-.696l-.003-.003.12.051c.137.057.278.117.345.137.111.033.162-.054.22-.153.01-.019.021-.038.033-.056.022-.035.048-.084.076-.135.043-.08.09-.168.13-.219.07-.089.177-.143.28-.195.08-.04.156-.08.219-.133a.253.253 0 0 0 .065-.08.133.133 0 0 0-.005-.132.27.27 0 0 0-.095-.089.789.789 0 0 0-.226-.087 1.312 1.312 0 0 0-.292-.022 1.893 1.893 0 0 0-.33.034 2.179 2.179 0 0 0-.37.12 5.85 5.85 0 0 0-.353.16 2.895 2.895 0 0 0-.18.1z"/><path class="fil5" d="M5.115 3.148a.175.175 0 0 1-.02.02c-.052.045-.124.08-.186.11-.124.063-.245.127-.334.24-.055.07-.102.162-.145.241-.022.042-.044.086-.07.125l-.037.062c-.008.015-.03.055-.047.076-.095-.03-.201-.079-.293-.117l-.023-.01-.122-.051-.526-.218a.5.5 0 0 0 .046-.117c.046-.025.092-.052.138-.079.055-.032.111-.066.169-.094.112-.055.226-.109.342-.156.11-.045.227-.088.343-.112.096-.02.201-.029.3-.03.082-.002.175 0 .255.018a.615.615 0 0 1 .177.067.218.218 0 0 1 .033.025zm-1.874.59.434.377c.052.044.103.089.15.137.051.052.127.138.136.213.005.046-.02.086-.05.12-.08.091-.214.187-.317.253a1.092 1.092 0 0 1-.303.145.4.4 0 0 1-.12.01.188.188 0 0 1-.076-.024.228.228 0 0 1-.074-.073.566.566 0 0 1-.09-.269 1.999 1.999 0 0 1-.007-.119c.045-.065.087-.132.126-.2.04-.067.088-.148.116-.22a.556.556 0 0 0 .03-.242c0-.015-.002-.035 0-.052l.004-.007a.875.875 0 0 0 .04-.049z"/><path class="fil3" d="M3.283 3.34c.002-.005 0 0 0 .002v-.003z"/><path class="fil4" d="M3.142 4.063c.735-.28.966-.568.98-.658.077-.185-.337-.05-.506-.076l.307-.26.456-.04c.42.014.706.077.369.367l-.596.01a.295.295 0 0 1-.055.128l.48.03-.001.03-.5-.033a.684.684 0 0 1-.062.068l.463.137-.008.027-.48-.141c-.03.027-.067.055-.11.085a4.153 4.153 0 0 1-.727.353l-.01-.027z"/><path class="fil4" d="m3.21 4.041.026.002c-.027.368.029.39.061.4.081.022.25-.244.337-.417l.024.012c-.001.001-.059.117-.131.226l-.006.008.07.626-.026.003-.067-.596a.81.81 0 0 1-.088.108h.002l-.014.575h-.026l.013-.552c-.03.024-.057.036-.081.035l-.116.482-.026-.006.116-.483a.069.069 0 0 1-.016-.011.1.1 0 0 1-.017-.023l-.266.37-.021-.016.274-.382a.424.424 0 0 1-.02-.101l-.33.277-.018-.02.345-.29c-.005-.072-.008-.115 0-.227z"/><path class="fil6" d="M4.672 3.279c.024-.026-.005-.092-.065-.148-.06-.056-.127-.08-.151-.055-.024.026.005.092.064.148.06.056.128.08.152.055zM4.421 3.323c.022-.024.006-.075-.036-.115-.042-.04-.094-.052-.116-.028-.023.024-.007.075.035.114.042.04.095.053.117.029z"/><path class="fil4" d="M3.846 4.51c.024-.026-.004-.092-.064-.148-.06-.055-.127-.08-.151-.055-.024.026.005.092.064.148.06.056.127.08.151.055z"/><path class="fil7" d="M2.95 4.943a.025.025 0 1 1-.034-.038.025.025 0 0 1 .033.038zM3.045 5.045a.038.038 0 1 1-.05-.057.038.038 0 0 1 .05.057zM3.179 5.11a.05.05 0 1 1-.068-.075.05.05 0 0 1 .068.076zM3.337 5.093a.041.041 0 1 1-.054-.061.041.041 0 0 1 .054.061zM3.46 5.028a.025.025 0 1 1-.033-.038.025.025 0 0 1 .033.038zM2.902 4.84a.02.02 0 1 1-.027-.03.02.02 0 0 1 .027.03zM2.872 4.745a.016.016 0 1 1-.021-.024.016.016 0 0 1 .021.024zM2.845 4.637a.012.012 0 1 1-.016-.017.012.012 0 0 1 .016.017zM3.591 4.98a.041.041 0 1 1-.054-.062.041.041 0 0 1 .054.062zM3.719 4.88a.025.025 0 1 1-.034-.038.025.025 0 0 1 .034.038zM3.86 4.787a.041.041 0 1 1-.054-.061.041.041 0 0 1 .055.061zM3.968 4.676a.025.025 0 1 1-.034-.038.025.025 0 0 1 .034.038zM4.055 4.542A.041.041 0 1 1 4 4.48a.041.041 0 0 1 .055.06zM4.03 4.39a.025.025 0 1 1-.034-.038.025.025 0 0 1 .034.037zM3.975 4.295a.041.041 0 1 1-.055-.062.041.041 0 0 1 .055.062zM3.88 4.192a.025.025 0 1 1-.033-.038.025.025 0 0 1 .034.038zM3.803 4.128a.041.041 0 1 1-.054-.061.041.041 0 0 1 .054.061zM3.678 4.01a.025.025 0 1 1-.034-.039.025.025 0 0 1 .034.038zM3.436 3.798a.031.031 0 1 1-.042-.046.031.031 0 0 1 .042.046zM3.604 3.9a.066.066 0 1 1-.088-.098.066.066 0 0 1 .088.099zM3.74 3.894a.025.025 0 1 1-.033-.037.025.025 0 0 1 .034.037zM3.898 3.964a.041.041 0 1 1-.055-.062.041.041 0 0 1 .055.062zM3.339 3.736a.024.024 0 1 1-.032-.036.024.024 0 0 1 .032.036zM4.018 4.02a.025.025 0 1 1-.033-.037.025.025 0 0 1 .033.037zM4.175 4.09a.041.041 0 1 1-.055-.062.041.041 0 0 1 .055.062zM4.309 4.115a.025.025 0 1 1-.034-.038.025.025 0 0 1 .034.038zM4.407 4.026a.041.041 0 1 1-.055-.061.041.041 0 0 1 .055.061zM4.473 3.882a.025.025 0 1 1-.033-.038.025.025 0 0 1 .033.038zM4.566 3.753a.041.041 0 1 1-.055-.061.041.041 0 0 1 .055.061zM4.644 3.606a.025.025 0 1 1-.034-.038.025.025 0 0 1 .034.038zM4.774 3.495a.041.041 0 1 1-.054-.062.041.041 0 0 1 .054.062zM4.92 3.399a.025.025 0 1 1-.034-.038.025.025 0 0 1 .033.038zM5.07 3.32a.041.041 0 1 1-.055-.062.041.041 0 0 1 .055.062zM5.197 3.22a.025.025 0 1 1-.034-.039.025.025 0 0 1 .034.038zM5.187 3.1a.041.041 0 1 1-.054-.06.041.041 0 0 1 .054.06zM5.026 3.015a.025.025 0 1 1-.033-.038.025.025 0 0 1 .033.038zM4.9 2.996a.041.041 0 1 1-.055-.061.041.041 0 0 1 .055.061zM4.712 2.983a.025.025 0 1 1-.034-.038.025.025 0 0 1 .034.038zM4.562 3.003a.041.041 0 1 1-.055-.062.041.041 0 0 1 .055.062zM4.386 3.01a.025.025 0 1 1-.033-.039.025.025 0 0 1 .033.038zM4.25 3.057a.041.041 0 1 1-.055-.061.041.041 0 0 1 .055.061zM4.109 3.098a.025.025 0 1 1-.034-.037.025.025 0 0 1 .034.037zM3.972 3.146a.041.041 0 1 1-.055-.061.041.041 0 0 1 .055.061zM3.827 3.2a.025.025 0 1 1-.034-.038.025.025 0 0 1 .034.038zM3.712 3.27a.041.041 0 1 1-.055-.06.041.041 0 0 1 .055.06zM3.561 3.33a.025.025 0 1 1-.033-.038.025.025 0 0 1 .033.038zM3.45 3.411a.041.041 0 1 1-.056-.06.041.041 0 0 1 .055.06z"/><path class="fil3" d="M3.648 3.9v.003a.073.073 0 0 0 0-.003zM3.274 3.33v.002c0-.001.002-.007 0-.002z"/><path class="fil4" d="M3.218 3.075a.447.447 0 0 1 .008.003l.014.006.004.002a.3.3 0 0 1 .024.013c.095.056.083.125.051.178a.305.305 0 0 1-.045.056.3.3 0 0 0 0 .053l.002.029V3.424c0 .035-.013.09-.046.153a.715.715 0 0 1-.112.155l-.002.002a.047.047 0 0 0-.008.01.032.032 0 0 0-.004.01c-.005.023-.004.052-.003.084.002.06.004.13-.027.208a2.83 2.83 0 0 1-.264.432c-.083.113-.166.193-.218.172-.053-.02-.056-.135-.038-.272.025-.186.085-.425.113-.495a.477.477 0 0 1 .124-.17c.023-.021.044-.042.056-.062a.031.031 0 0 0 .004-.01c.001-.003.002-.007.001-.01l.002-.008a.709.709 0 0 1 .027-.193c.017-.056.04-.099.062-.126l-.001-.003.016-.015.02-.018a.298.298 0 0 0 .038-.04c0 .001 0 .001 0 0-.001-.019-.001-.054.01-.088.02-.059.068-.108.182-.069l.002.001.008.003z"/><path d="M3.177 3.163a.168.168 0 0 0-.006-.002l-.072.118c-.014.022-.037.042-.056.06l-.017.016-.008.01a.291.291 0 0 0-.044.093c-.007.022-.01.048-.012.07-.003.037-.007.072-.013.108 0 .01 0 .011-.004.028-.004.02-.004.02-.016.038-.019.03-.045.056-.07.081a.387.387 0 0 0-.103.136c-.015.038-.026.085-.037.125a3.464 3.464 0 0 0-.069.347.999.999 0 0 0-.01.137c.036-.034.077-.087.093-.107a3.374 3.374 0 0 0 .192-.296c.02-.035.044-.077.06-.115a.387.387 0 0 0 .02-.168c-.002-.036-.003-.073.004-.108a.129.129 0 0 1 .016-.041c.013-.02.012-.017.025-.03l.002-.002a.44.44 0 0 0 .087-.118l.006-.01a.29.29 0 0 0 .035-.109v-.007l-.002-.025c-.002-.025-.004-.055.001-.08l.029-.136-.005-.003H3.2l-.01-.005-.007-.002-.007-.003z" style="fill:#2a2a2a"/><path class="fil9" d="m3.037 2.663.005-.008a.17.17 0 0 1 .236-.06.165.165 0 0 1 .08.133.163.163 0 0 1-.015.08l-.008.016-.008.015-.016.031-.056.11-.055.108a.012.012 0 0 1-.023-.01l.052-.11.053-.112.015-.031.007-.016c.003-.006.006-.011.007-.016a.127.127 0 0 0-.01-.12.125.125 0 0 0-.097-.058.125.125 0 0 0-.12.064l-.003.008a.025.025 0 0 1-.044-.024zM3.69 2.984s0-.003.003-.008a.17.17 0 0 0-.097-.224.165.165 0 0 0-.154.018.163.163 0 0 0-.054.06l-.008.016-.007.016-.015.031-.053.112-.052.11a.012.012 0 0 0 .022.01l.056-.107.056-.11.016-.031.008-.016.008-.015a.127.127 0 0 1 .102-.065.125.125 0 0 1 .105.041.125.125 0 0 1 .021.134l-.003.008a.025.025 0 1 0 .045.02z"/></g></svg>