<svg xmlns="http://www.w3.org/2000/svg" xml:space="preserve" width="655.359" height="655.359" style="shape-rendering:geometricPrecision;text-rendering:geometricPrecision;image-rendering:optimizeQuality;fill-rule:evenodd;clip-rule:evenodd" viewBox="0 0 6.827 6.827"><defs><clipPath id="id0"><path d="M3.413 0a3.413 3.413 0 1 1 0 6.827 3.413 3.413 0 0 1 0-6.827z"/></clipPath><style>.fil1{fill:#90a4ae}.fil6,.fil7{fill:#124d16;fill-rule:nonzero}.fil7{fill:#1b5e20}.fil3,.fil4,.fil5{fill:#388e3c;fill-rule:nonzero}.fil4,.fil5{fill:#ffd600}.fil5{fill:#fff}</style></defs><g id="Layer_x0020_1"><path d="M3.413 0a3.413 3.413 0 1 1 0 6.827 3.413 3.413 0 0 1 0-6.827z" style="fill:#b0bec5"/><g style="clip-path:url(#id0)"><g id="_637652152"><path id="_6559507201" class="fil1" d="M3.756 1.954 7.542 5.74l-.002-.002-.003-.003-.002-.002-.003-.003-.003-.002-.003-.002-.003-.002-.003-.002-.004-.003-.003-.002-.003-.001-.004-.002-.003-.002-.004-.002-.004-.001-.003-.002-3.787-3.786.004.001.004.002.003.002.004.001.003.002.004.002.003.002.003.002.003.002.004.003.003.002.002.002.003.002.003.003.003.002z"/><path id="_655950264" class="fil1" d="m3.705 1.92 3.787 3.787-.004-.001-.004-.002-.004-.001-.004-.001-.004-.001-.004-.001-.004-.001H7.46l-.005-.001h-.004l-.004-.001H7.424L3.638 1.91H3.665l.004.001h.004l.005.002h.004l.004.002h.004l.004.002.004.001.004.001z"/><path id="_655953456" class="fil1" d="m3.761 1.959 3.786 3.786-.005-.005-3.786-3.786z"/><path id="_655953744" class="fil1" d="M3.863 2.065 7.65 5.85v.006l-.002.006-.002.005-.004.005-.004.004-.005.003-.006.002H7.62L3.834 2.097h.006l.006-.003.005-.003.004-.003.003-.005.003-.005.002-.006z"/><path id="_655953864" class="fil1" d="m3.638 1.91 3.786 3.787H7.41l-.004.002h-.005l-.004.001-.005.002H7.39l-.004.002-.005.002-.004.002-.004.001-.005.002-.004.003-.004.002-.004.002-3.786-3.786.004-.003.004-.002.004-.002.004-.002.005-.002.004-.001.004-.002.005-.001.004-.002h.005l.004-.002h.004l.005-.001.004-.001h.004z"/><path id="_655953840" class="fil1" d="M3.834 2.096 7.62 5.883h-.006l-.006-.002-.005-.003-.005-.004-3.786-3.786.005.004.005.002.006.002z"/><path id="_655953888" class="fil1" d="m3.569 1.932 3.786 3.786-.004.003-.004.002-.004.003-.004.003-.004.003-.003.003-.004.003-.003.003-.004.004-.003.003-.003.004-.003.004-.003.004-.003.004-.003.004-.002.004-3.787-3.787.003-.004.003-.004.003-.004.002-.004.004-.003.003-.004.003-.003.003-.004.004-.003.003-.003.004-.004.004-.003.004-.002.004-.003.003-.003z"/><path id="_655953336" class="fil1" d="m3.514 1.985 3.787 3.787-.003.004-.002.004-.002.004-.003.005-.001.004-.002.005-.002.004-.001.005-.002.005v.004l-.002.005v.005l-.002.005V5.84l-.001.005-3.786-3.786v-.01l.001-.005V2.04l.002-.005V2.03l.002-.005.001-.004.002-.005.001-.005.002-.004.002-.005.002-.004.003-.004.002-.004z"/><path id="_655953648" class="fil1" d="m3.492 2.059 3.786 3.786v.021L3.49 2.08V2.06z"/><path id="_655954080" class="fil1" d="M3.332 1.922 7.118 5.71l.004.004.004.005.004.005.004.005.003.005.004.005.003.005.003.006-3.786-3.787-.003-.005-.003-.005-.004-.005-.003-.006-.004-.005-.004-.004-.004-.005z"/><path id="_655954392" class="fil1" d="m3.301 1.959 3.787 3.786-.004-.004-.003-.003-.004-.003-.003-.003-.004-.003-.004-.003-.004-.003-.004-.002-.004-.003-3.786-3.786.004.002.004.003.004.003.004.002.003.003.004.004.004.003.003.003z"/><path id="_655954104" class="fil1" d="m3.268 1.932 3.786 3.786-.004-.002-.004-.002-.004-.003-.005-.002-.004-.001-.004-.002-.005-.002-.004-.001-.005-.001-.004-.002h-.004l-.005-.001-.004-.001h-.004l-.005-.001h-.004L3.199 1.91h.008l.005.002h.004l.004.001.005.001.004.001.005.002.004.001.004.002.005.001.004.002.004.002.005.002.004.002z"/><path id="_655954128" class="fil1" d="m3.13 1.92 3.787 3.787-.004.002-.003.001-.004.002-.003.002-.004.002-.003.002-.004.002-.003.002-.003.002-.003.002-.003.002-.003.002-.003.003-.002.002-.003.003-.003.002L3.08 1.954l.003-.003.002-.002.003-.003.003-.002.003-.002.003-.002.003-.003.003-.002.003-.002.003-.002.004-.002.003-.002.004-.001.003-.002.004-.002z"/><path id="_655953912" class="fil1" d="M3.08 1.954 6.866 5.74l-.004.005-.005.005-.004.005-.004.005-.004.006-.003.005-.003.005-.003.005L3.05 1.995l.003-.005.003-.006.003-.005.004-.005.004-.005.004-.005.004-.005z"/><path id="_655954056" class="fil1" d="M3.05 1.995 6.836 5.78l-.002.005-.002.005-.002.005-.002.005-.001.004-.001.005-.001.004-.001.004-3.787-3.786.001-.004.001-.005.002-.004.001-.005.002-.004.002-.005L3.048 2z"/><path id="_655954536" class="fil1" d="m3.037 2.032 3.787 3.786-.001.004v.003l-.001.003v.006l-.001.003v.006L3.034 2.056v-.008l.001-.003v-.003l.001-.003v-.004z"/><path id="_655954584" class="fil1" d="m5.078 2.247 3.786 3.786.02.024.02.025.019.027.017.028.017.029.015.03.015.031L9 6.26l.013.033.01.034.01.036.01.036.007.037.006.038.005.039-3.787-3.787-.004-.038-.006-.038-.008-.037-.008-.037-.01-.035-.012-.034-.012-.034-.013-.032-.015-.031-.016-.03-.016-.03-.018-.027-.018-.027-.02-.025z"/><path id="_655953960" class="fil1" d="M3.361 1.962 7.147 5.75l.004.005.002.006.003.005.003.006.002.006.002.006.002.006.002.006.001.006.001.006.002.006v.006l.001.006.001.006v.012L3.388 2.057V2.039l-.002-.006v-.007l-.002-.006-.001-.006-.002-.006-.001-.006-.002-.006-.002-.005-.003-.006-.002-.006-.003-.006-.003-.005z"/><path id="_655954272" class="fil1" d="m3.199 1.91 3.786 3.787h-.032l-.004.001h-.004l-.004.002h-.004l-.004.002-.004.001-.004.001-.004.002-.004.001-3.786-3.786.004-.002.004-.001.004-.001.003-.001.005-.001.004-.001.004-.001.004-.001h.004l.004-.001H3.18l.005-.001H3.194z"/><path id="_655954416" class="fil1" d="m3.387 2.057 3.787 3.786v.023L3.387 2.08v-.02z"/><path id="_655955088" class="fil1" d="m2.945 3.07 3.786 3.785-.03.025-.032.024-.031.025-.033.024-.032.025-.032.024-.033.024-.033.024-.033.023-.033.024-.032.022-.033.022-.032.022-.033.02-.031.021-.032.02-.03.018-.031.018-.03.016-.03.016-.028.014-.028.014-.027.012-.026.01-.026.01-.024.008-.023.006-.022.005-.021.003-.02.002h-.018l-.017-.003-3.787-3.786.017.002h.019l.02-.001.02-.003.023-.005.023-.007.024-.007.025-.01.027-.01.027-.013.027-.013.03-.014.028-.016.03-.017.03-.017.032-.019.031-.02.032-.02.032-.02.033-.022.032-.022.033-.023.033-.023.033-.023.033-.024.032-.024.033-.025.032-.024.032-.025.032-.024.031-.025z"/><path id="_655955016" class="fil1" d="m2.028 3.587 3.787 3.786-.029-.006-.028-.009-.027-.01-.026-.012-.026-.013-.026-.015-.024-.017-.024-.019-.023-.02-3.786-3.786.023.02.024.018.024.017.025.015.026.014.027.012.027.01L2 3.58z"/><path id="_655955040" class="fil1" d="m3.343 3.63 3.786 3.786-.003.043-.004.043-.003.043-.004.043-.004.043-.004.043-.004.043-.004.042-.005.042-.004.041-.005.041-.005.04-.006.04-.005.04-.006.037-.005.038-.007.036-.006.036-.006.035-.007.033-.007.032-.007.031-.007.03-.008.028-.008.027-.008.026-.008.024-.008.022-.009.02-.009.02-.01.016-.009.016-3.786-3.787.01-.015.009-.017.009-.019.009-.02.008-.022.008-.024.008-.026.008-.027.008-.028.007-.03.007-.031.007-.032.006-.034.007-.034.006-.036.006-.036.006-.038.006-.038.005-.04.005-.039.005-.04.005-.041.005-.042.005-.042.004-.042.004-.042.004-.043.004-.043.004-.043.003-.043.004-.043z"/><path id="_655955160" class="fil1" d="m3.46 4.107 3.787 3.786-.002.025-.002.023-.003.021-.002.02L7.236 8l-.003.017-.002.015-.003.013-.002.012-.003.01-.002.009-.003.007-.003.005-.002.004-.003.003h-.006l-.002-.003-3.787-3.786.003.002.003.001h.003l.002-.003.003-.004.003-.005.002-.007.003-.01.003-.01.002-.011.003-.014.002-.015.003-.016.002-.018.002-.02.002-.021.003-.023z"/><path id="_655955232" class="fil1" d="m3.491 3.726 3.787 3.786-.002.02-.002.02-.001.02-.002.018-.001.019-.002.018v.018l-.002.017-.002.017-.001.017-.001.016-.002.015v.015l-.002.014-.001.014-.001.013-.001.013-.001.012v.01l-.002.011v.01l-.001.01-.001.007v.008l-.001.007v.006l-.001.005V7.893h-.001L3.461 4.107v-.012l.001-.005v-.006l.001-.006V4.07l.001-.008.001-.01.001-.009v-.01l.002-.012V4.01l.002-.013v-.013l.002-.014.001-.014.001-.015.001-.016.002-.016.001-.016.001-.017.002-.017.001-.018.002-.018.001-.019.002-.019.001-.02.002-.019z"/><path id="_655955256" class="fil1" d="M3.148 4.723 6.934 8.51l-.02.028-.02.026-.022.025-.022.023-.023.021-.024.02-.024.018-.025.016-.025.014-.025.013-.026.011-.026.01-.026.007-.027.006-.027.004-.026.002h-.054l-.027-.003-.026-.005-.027-.006-.026-.009-.027-.01-.025-.011-.026-.014-.025-.015-.024-.017-.025-.019-.023-.02-3.786-3.786.023.02.024.019.025.017.025.015.025.013.026.012.026.01.027.008.026.007.027.004.027.003.027.001h.026l.027-.003.027-.004.026-.005.027-.008.026-.01.026-.01.025-.013.025-.014.025-.017.024-.017.023-.02.023-.021.023-.023.021-.025.021-.027z"/><path id="_655954944" class="fil1" d="m4.47 4.766 3.785 3.787-.021.026-.023.024-.023.022-.023.02-.024.02-.025.016-.025.015-.025.014-.026.011-.026.01-.027.009-.026.006-.027.005-.027.002-.027.002-.026-.001-.027-.002-.027-.004-.027-.006-.026-.008-.026-.009-.026-.011-.025-.013-.025-.014-.025-.016-.024-.018-.023-.02-.023-.021-3.787-3.786.023.02.024.02.024.018.024.017.026.014.025.013.026.01.026.01.026.008.027.005.026.004.027.003h.054l.027-.004.026-.004.027-.007.026-.008.026-.01.026-.011.026-.014.025-.015.024-.017.025-.019.023-.02.023-.023.022-.024z"/><path id="_655955376" class="fil1" d="m3.356 2.626 3.786 3.787-.007-.005-.007-.005-.007-.005-.006-.006L3.33 2.606l.006.006.007.005.006.005z"/><path id="_655955112" class="fil1" d="m4.5 3.69 3.787 3.786.019.03.018.03.016.031.015.032.014.033.012.034.012.034.01.035.008.035.007.035.006.036.005.036.003.037.003.036v.073l-.002.037-.003.036-.004.036-.006.036-.006.036-.008.035-.01.034-.01.035-.012.033-.013.033-.015.032-.015.031-.017.03-.019.03-.019.028-.02.028-3.787-3.787.02-.027.02-.028.018-.03.017-.03.016-.031.014-.032.013-.033.012-.034.01-.034.01-.034.008-.036.007-.035.006-.036.004-.036.003-.036.002-.037v-.073l-.003-.037-.003-.036-.005-.036-.006-.036-.007-.035-.009-.036-.01-.034-.01-.034-.013-.034-.014-.033-.015-.032-.017-.031-.017-.03z"/><path id="_655955208" class="fil1" d="m3.49 2.08 3.787 3.786v.021L3.49 2.101z"/><path id="_655955520" class="fil1" d="M3.386 2.143 7.173 5.93l-.003.151-3.786-3.786z"/><path id="_655956000" class="fil1" d="M3.384 2.295 7.17 6.081l-.001.094-3.787-3.787z"/><path id="_655955544" class="fil1" d="m3.034 2.056 3.787 3.787v.01L3.033 2.067z"/><path id="_655955952" class="fil1" d="M3.034 2.067 6.82 5.853v.006l-.003.006-.003.005-.003.004-.005.004-.005.003-.006.001h-.006L3.003 2.097h.006l.005-.002.006-.002.004-.004.004-.004.003-.005.002-.006z"/><path id="_655955592" class="fil1" d="m3.003 2.096 3.786 3.787-.006-.001-.006-.002-.005-.003-.004-.004L2.98 2.087l.005.003.005.003.005.002z"/><path id="_655955616" class="fil1" d="M3.551 2.513 7.338 6.3v.01l-.001.008-.002.009-.002.008-.003.009-.003.008-.003.007-.004.008-.005.007-.005.007-.005.006-.006.006-.006.006-.007.005-.006.005-.008.005-3.786-3.787.007-.004.007-.005.007-.005.006-.006.006-.006.005-.007.005-.006.004-.008.004-.007.004-.008.003-.008.003-.008.002-.008.001-.009.001-.009z"/><path id="_655955640" class="fil1" d="m3.497 2.636 3.786 3.786.003.004.004.004.003.004.003.003.003.005-3.786-3.787-.003-.004-.003-.004-.004-.004L3.5 2.64z"/><path id="_655955736" class="fil1" d="m3.387 2.08 3.787 3.786v.021L3.386 2.101z"/><path id="_655955760" class="fil1" d="m3.387 2.101 3.786 3.786v.043L3.386 2.143z"/><path id="_655956024" class="fil1" d="m3.49 2.101 3.787 3.786-.001.043L3.49 2.143z"/><path id="_655955448" class="fil1" d="M3.49 2.143 7.276 5.93l-.002.151-3.787-3.786z"/><path id="_655956960" class="fil1" d="m3.487 2.295 3.787 3.786-.002.105L3.486 2.4z"/><path id="_655956624" class="fil1" d="m3.518 2.426 3.787 3.787.005.006.005.007.005.007.004.007.003.008.003.008.003.008.002.009.002.009V6.3L3.552 2.512v-.018l-.002-.008-.002-.009-.003-.008-.003-.008-.004-.008-.004-.007-.004-.007-.005-.007z"/><path id="_655956336" class="fil1" d="m3.808 1.926 3.786 3.786.003.004.003.003.003.004.003.003.002.004.003.003.002.004.003.003.002.004.002.003.002.004.002.003-3.786-3.786-.002-.004-.002-.003-.002-.004-.003-.003-.002-.004-.002-.003-.003-.004-.003-.003-.002-.004-.003-.003-.003-.003z"/><path id="_655956408" class="fil1" d="m4.798 3.587 3.787 3.786-.017.002h-.039l-.02-.004-.023-.005-.023-.006-.024-.008-.025-.01-.027-.01-.027-.012-.028-.014-.028-.014-.03-.016-.03-.016-.03-.018-.03-.018-.032-.02-.032-.02-.032-.021-.033-.022-.032-.022-.033-.022-.033-.024-.033-.023-.033-.024-.032-.024-.033-.024-.032-.025-.032-.024-.032-.025-.031-.024-.031-.025L3.882 3.07l.03.024.032.025.031.024.032.025.033.024.032.025.033.024.033.024.033.023.033.023.032.023.033.022.032.022.032.02.032.02.032.02.03.019.031.017.03.017.03.016.028.014.028.013.027.013.026.01.026.01.024.007.023.007.022.005.021.003.02.001h.018z"/><path id="_655956816" class="fil1" d="m4.34 3.5 3.787 3.786.018.02.017.018.017.019.017.018.015.018.015.017.014.017.013.017.012.016.012.015.01.015L4.501 3.69l-.01-.015-.012-.016-.012-.016-.013-.016-.014-.017-.015-.018-.016-.017-.016-.019-.017-.018-.017-.02z"/><path id="_655956696" class="fil1" d="m3.838 1.968 3.786 3.786.002.004.001.003.002.003.002.004.001.003.001.003.002.004.001.003.001.003.001.003.001.003.001.003.001.003V5.8l.002.003v.003L3.857 2.018v-.002l-.001-.003-.001-.003-.001-.003-.001-.003L3.852 2l-.001-.003-.001-.004-.002-.003v-.003l-.002-.003-.002-.004-.001-.003-.002-.003-.002-.004z"/><path id="_655956384" class="fil1" d="m3.857 2.018 3.786 3.787.002.005v.006l.001.005.001.005v.004l.001.004v.005L3.863 2.053V2.044l-.001-.005v-.005l-.002-.005v-.005z"/><path id="_655956912" class="fil1" d="M3.862 2.053 7.65 5.84v.011L3.863 2.064z"/><path id="_655956456" class="fil1" d="M3.863 2.064 7.649 5.85v.001L3.863 2.065z"/><path id="_655956576" class="fil1" d="m5.274 2.726 3.787 3.787.003.039.002.038v.077l-.003.037-.004.038-.005.036-.006.037-.008.035-.009.035-.01.034-.011.033-.013.033-.013.032-.015.03-.015.03-.017.029-.018.027-.018.027-.02.025-.02.024-.022.022-.022.022-.023.02-.024.018-.024.017-.025.015-.026.013-.027.012-.027.01-.028.009-.028.006-3.787-3.786.029-.007.028-.008.027-.01.026-.012.026-.014.026-.015.024-.016.024-.019.023-.02.022-.02.021-.023.02-.024.02-.026.019-.026.018-.028.016-.028.016-.03.015-.03.013-.032.012-.033.012-.033.01-.034.009-.035.007-.036.007-.036.005-.037.004-.037.002-.038.001-.038v-.038l-.002-.039z"/><path id="_637652224" class="fil1" d="M3.863 2.065a.03.03 0 0 1-.06.002l-.001-.01a.138.138 0 0 0-.016-.062.158.158 0 0 0-.08-.074.156.156 0 0 0-.214.138l-.001.02v.022l-.001.042-.003.152-.001.105a.13.13 0 0 1 0 .226c.01.008.019.018.027.03.218-.134.876-.53 1.13-.578.306-.059.588.232.631.648.044.417-.17.802-.476.86-.174.034-.59-.259-.916-.517.241.211.512.464.619.62.21.31.195.792-.032 1.077-.227.286-.58.266-.79-.043-.096-.14-.153-.57-.188-.997l-.03.381c-.022.27-.058.27-.08 0l-.038-.477c-.034.457-.093.943-.195 1.093-.21.31-.563.329-.79.043C2.13 4.481 2.116 4 2.326 3.69c.106-.157.378-.41.619-.62-.326.257-.742.55-.917.517-.306-.059-.519-.444-.476-.86.043-.417.326-.708.632-.649.258.05.934.457 1.14.584a.16.16 0 0 1 .032-.036.13.13 0 0 1-.005-.223l-.002-.108-.002-.152-.001-.042V2.08l-.001-.021a.156.156 0 0 0-.077-.127.153.153 0 0 0-.137-.011.153.153 0 0 0-.097.135v.01a.03.03 0 0 1-.06-.001v-.011a.207.207 0 0 1 .138-.184.21.21 0 0 1 .181.02.203.203 0 0 1 .094.167v.086l-.003.152-.002.093a.13.13 0 0 1 .072-.001l-.002-.092-.002-.152v-.042l-.001-.021v-.023a.2.2 0 0 1 .094-.166.202.202 0 0 1 .181-.02.208.208 0 0 1 .138.182l.001.01v.002z"/></g></g><path d="M3.413 0a3.413 3.413 0 1 1 0 6.827 3.413 3.413 0 0 1 0-6.827z" style="fill:none"/><path class="fil3" d="M1.552 2.726c-.043.417.17.802.476.86.306.06 1.357-.886 1.357-.886s-.895-.563-1.2-.622c-.307-.059-.59.232-.633.648z"/><path class="fil3" d="M2.358 4.766c.227.286.58.266.79-.043.21-.309.237-2.024.237-2.024s-.85.682-1.06.99c-.209.31-.194.792.033 1.077z"/><path class="fil4" d="M2.554 4.472c.183.229.467.213.635-.035.168-.248.19-1.625.19-1.625s-.682.547-.85.796c-.168.248-.157.635.025.864zM1.858 2.744c-.033.318.13.612.364.656.233.045 1.035-.677 1.035-.677s-.683-.43-.917-.474c-.233-.045-.449.177-.482.495z"/><path class="fil5" d="M1.906 3.398c0 .02.012.037.027.037s.027-.017.027-.037c0-.021-.012-.038-.027-.038s-.027.017-.027.038zM1.753 3.248c0 .033.02.06.044.06.024 0 .044-.027.044-.06s-.02-.06-.044-.06c-.024 0-.044.027-.044.06zM1.637 2.976c0 .045.027.082.06.082s.06-.037.06-.082c0-.046-.027-.082-.06-.082s-.06.036-.06.082zM1.633 2.653c0 .041.024.074.054.074s.055-.033.055-.074c0-.041-.024-.075-.055-.075-.03 0-.054.034-.054.075zM1.716 2.391c0 .037.022.068.05.068.027 0 .049-.03.049-.068 0-.037-.022-.067-.05-.067-.027 0-.049.03-.049.067zM1.908 2.192c0 .02.012.037.028.037.015 0 .027-.017.027-.037 0-.021-.012-.038-.027-.038-.016 0-.028.017-.028.038zM2.907 4.753c0 .033.02.06.043.06.025 0 .044-.027.044-.06s-.02-.06-.044-.06c-.024 0-.043.027-.043.06zM2.665 4.783c0 .05.03.09.066.09.036 0 .066-.04.066-.09 0-.05-.03-.09-.066-.09-.036 0-.066.04-.066.09zM2.402 4.634c0 .066.04.12.088.12.048 0 .087-.054.087-.12s-.039-.12-.087-.12c-.049 0-.088.054-.088.12zM2.254 4.313c0 .053.032.097.071.097.04 0 .071-.044.071-.097 0-.054-.032-.098-.07-.098-.04 0-.072.044-.072.098zM2.27 3.962c0 .033.02.06.044.06.024 0 .044-.027.044-.06s-.02-.06-.044-.06c-.024 0-.044.027-.044.06z"/><path class="fil3" d="M5.274 2.726c.044.417-.17.802-.476.86-.306.06-1.357-.886-1.357-.886s.896-.563 1.202-.622c.306-.059.588.232.631.648z"/><path class="fil3" d="M4.47 4.766c-.228.286-.582.266-.792-.043-.21-.309-.236-2.024-.236-2.024s.85.682 1.059.99c.21.31.195.792-.032 1.077z"/><path class="fil4" d="M4.272 4.472c-.182.229-.466.213-.634-.035-.168-.248-.19-1.625-.19-1.625s.682.547.85.796c.168.248.157.635-.026.864zM4.968 2.744c.033.318-.13.612-.363.656-.233.045-1.035-.677-1.035-.677s.683-.43.916-.474c.234-.045.45.177.482.495z"/><path class="fil5" d="M4.921 3.398c0 .02-.012.037-.027.037s-.028-.017-.028-.037c0-.021.013-.038.028-.038.015 0 .027.017.027.038zM5.073 3.248c0 .033-.02.06-.043.06-.025 0-.044-.027-.044-.06s.02-.06.044-.06c.024 0 .043.027.043.06zM5.19 2.976c0 .045-.027.082-.06.082-.034 0-.06-.037-.06-.082 0-.046.026-.082.06-.082.033 0 .06.036.06.082zM5.194 2.653c0 .041-.024.074-.055.074-.03 0-.055-.033-.055-.074 0-.041.025-.075.055-.075s.055.034.055.075zM5.11 2.391c0 .037-.022.068-.049.068-.027 0-.05-.03-.05-.068 0-.037.023-.067.05-.067.027 0 .05.03.05.067zM4.918 2.192c0 .02-.012.037-.027.037s-.027-.017-.027-.037c0-.021.012-.038.027-.038s.027.017.027.038zM3.92 4.753c0 .033-.02.06-.044.06-.024 0-.044-.027-.044-.06s.02-.06.044-.06c.024 0 .044.027.044.06zM4.162 4.783c0 .05-.03.09-.066.09-.037 0-.066-.04-.066-.09 0-.05.03-.09.066-.09.036 0 .066.04.066.09zM4.425 4.634c0 .066-.04.12-.088.12-.048 0-.088-.054-.088-.12s.04-.12.088-.12c.049 0 .088.054.088.12zM4.573 4.313c0 .053-.032.097-.071.097-.04 0-.072-.044-.072-.097 0-.054.032-.098.072-.098.039 0 .07.044.07.098zM4.556 3.962c0 .033-.02.06-.043.06-.025 0-.044-.027-.044-.06s.02-.06.044-.06c.024 0 .043.027.043.06z"/><path class="fil6" d="m2.973 2.064.001-.01a.207.207 0 0 1 .138-.184.21.21 0 0 1 .181.02.203.203 0 0 1 .094.167v.086l-.003.152-.002.148a.015.015 0 0 1-.03 0l-.003-.148-.002-.152-.001-.042V2.08l-.001-.021a.156.156 0 0 0-.077-.127.153.153 0 0 0-.137-.011.153.153 0 0 0-.097.135v.01a.03.03 0 0 1-.06-.001v-.001zM3.863 2.064v-.01a.208.208 0 0 0-.139-.184.21.21 0 0 0-.181.02.203.203 0 0 0-.094.167v.086l.003.152.003.148a.015.015 0 0 0 .03 0l.002-.148.003-.152V2.08c.001-.008 0-.015.002-.021a.156.156 0 0 1 .077-.127.153.153 0 0 1 .136-.011.153.153 0 0 1 .097.146.03.03 0 0 0 .061-.002v-.001z"/><path class="fil7" d="M3.551 2.513a.13.13 0 1 1-.26 0 .13.13 0 0 1 .26 0z"/><path class="fil7" d="M3.557 2.809c0 .115-.096 1.298-.096 1.298-.022.27-.058.27-.08 0 0 0-.097-1.183-.097-1.298 0-.115.061-.208.137-.208.075 0 .136.093.136.208z"/></g></svg>