<svg xmlns="http://www.w3.org/2000/svg" xml:space="preserve" width="655.359" height="655.359" style="shape-rendering:geometricPrecision;text-rendering:geometricPrecision;image-rendering:optimizeQuality;fill-rule:evenodd;clip-rule:evenodd" viewBox="0 0 6.827 6.827"><defs><clipPath id="id0"><path d="M3.413 0a3.413 3.413 0 1 1 0 6.827 3.413 3.413 0 0 1 0-6.827z"/></clipPath><style>.fil1{fill:#43a047}.fil11,.fil12,.fil5{fill:#935b3a;fill-rule:nonzero}.fil12,.fil5{fill:#a46741}.fil12{fill:#b27853}.fil10,.fil14,.fil4{fill:#bc442f;fill-rule:nonzero}.fil10,.fil4{fill:#bd7d54}.fil10{fill:#a46741;fill-opacity:.501961}</style></defs><g id="Layer_x0020_1"><path d="M3.413 0a3.413 3.413 0 1 1 0 6.827 3.413 3.413 0 0 1 0-6.827z" style="fill:#81c784"/><g style="clip-path:url(#id0)"><g id="_637666600"><path id="_5427141921" class="fil1" d="M8.36 7.146zM4.575 3.36z"/><path id="_542714312" class="fil1" d="M2.24 2.115 6.028 5.9l.005.006.005.007-3.786-3.787-.005-.006z"/><path id="_542715512" class="fil1" d="m2.37 2.057 3.786 3.787.002.007.002.007.002.007.001.008.001.007v.008l.001.007v.016l-.001.007-.001.008-.002.007-.001.007-.002.008-.003.007-.003.007-3.786-3.786.003-.007.002-.008.002-.007.002-.007.002-.008v-.007l.001-.008v-.03l-.001-.007-.001-.008-.002-.007-.002-.008z"/><path id="_542715608" class="fil1" d="m2.366 2.176 3.786 3.786-.002.005-.003.006-.004.006-.004.006-.004.006-.005.007-.005.006-.005.007-.006.006-.006.005-.006.005-.006.004-.006.004-.006.002-.006.002h-.005L2.286 2.253h.006l.006-.002.006-.002.006-.004.006-.004.006-.005.006-.006.005-.006.006-.006.005-.006.005-.007.004-.006.004-.007.004-.006.003-.005z"/><path id="_542715680" class="fil1" d="m2.286 2.253 3.787 3.786.003.014.003.013.004.014.004.014.004.014.004.014.004.014.004.014.005.014.004.014.005.014.005.015.005.014.005.014.005.014.006.014.005.014.006.014.006.013.006.014.007.014.007.013.006.013.007.013.008.013.007.012.008.013.008.012.008.012.008.011.01.012.008.01L2.472 2.68l-.01-.01-.008-.012-.008-.012-.008-.012-.008-.012-.008-.012-.008-.013-.007-.012-.007-.013-.007-.013-.006-.014-.007-.013-.006-.014-.006-.014-.006-.013-.006-.014-.005-.014-.005-.014-.006-.014-.005-.015-.004-.014-.005-.014-.005-.014-.004-.014-.004-.014-.005-.014-.003-.015-.004-.013-.004-.014-.004-.014-.003-.014z"/><path id="_542715776" class="fil1" d="m2.472 2.68 3.786 3.786.004.006.005.005.004.005.005.005.004.004.005.005L2.499 2.71l-.005-.005L2.49 2.7l-.005-.004-.004-.005-.005-.006z"/><path id="_542716088" class="fil1" d="m4.574 2.137 3.787 3.786v.001L4.574 2.138z"/><path id="_542715392" class="fil1" d="m5.145 2.514 3.787 3.787-.004-.004-.003-.004-.003-.003-.004-.004-.003-.003-.004-.003-.004-.004-.004-.003L8.9 6.27 5.113 2.484l.004.003.004.003.004.003.003.004.004.003.003.004.004.003.003.004z"/><path id="_542716664" class="fil1" d="M5.113 2.484 8.9 6.27l-.071-.055L5.04 2.428z"/><path id="_542716760" class="fil1" d="m5.068 2.456 3.786 3.786.004.005.004.005.003.004.002.004.003.005.002.004.003.006.003.005.003.007.004.008.005.009.005.01-3.786-3.786-.006-.01-.004-.01-.004-.007-.003-.007-.003-.006-.003-.005-.002-.005-.003-.004-.003-.004-.003-.004-.003-.005z"/><path id="_542716208" class="fil1" d="m5.109 2.528 3.786 3.786.003.005-3.786-3.786z"/><path id="_542716616" class="fil1" d="m5.112 2.533 3.786 3.786.002.003-3.786-3.786z"/><path id="_542716352" class="fil1" d="M5.114 2.536 8.9 6.322v.002L5.115 2.537z"/><path id="_542716376" class="fil1" d="m5.114 2.537 3.787 3.787L5.115 2.54z"/><path id="_542716592" class="fil1" d="m5.115 2.539 3.786 3.786.003.003-3.786-3.786z"/><path id="_542716160" class="fil1" d="m5.118 2.542 3.786 3.786.003.005.003.004.003.005.004.004.003.003.003.004.003.004L5.14 2.57l-.004-.003-.003-.004-.003-.004-.003-.004-.003-.004-.003-.004z"/><path id="_542716256" class="fil1" d="m5.157 2.59 3.786 3.787.003.003.003.003.002.003.003.004.002.003.003.004.002.004.003.003.002.004.002.005.002.004.002.005.002.005.002.005.001.005.002.006.001.006.002.006.001.007.001.006.001.007.001.006.001.007v.006l.002.007v.006l.001.007v.006l.001.007.001.006v.007l.001.006v.014l.001.006v.02l.001.006V6.671L5.21 2.885V2.786l-.001-.006V2.767l-.001-.007v-.006l-.001-.007v-.006l-.001-.007-.001-.006V2.72l-.002-.006v-.007L5.2 2.702 5.2 2.695l-.001-.006-.001-.007-.001-.006-.002-.007v-.006l-.002-.006-.002-.006-.002-.006-.002-.005-.001-.005-.002-.004-.002-.005-.003-.004-.002-.004-.002-.004-.002-.003-.003-.004-.002-.003-.003-.004-.003-.003-.002-.003z"/><path id="_542716424" class="fil1" d="m5.164 2.489 3.787 3.786.009.012.008.011.007.012.007.013.005.012.005.013.004.014.004.013.003.014.003.014.002.015.003.015.003.015.003.016.003.016.003.017.004.017.004.017.006.018.006.018.006.018.008.02.01.018L5.28 2.837l-.009-.02-.008-.018-.007-.019-.006-.018-.005-.017-.004-.018-.004-.017-.004-.016-.003-.016-.003-.016-.002-.015-.003-.015-.003-.015-.003-.014-.003-.014-.003-.014-.004-.013L5.2 2.55l-.006-.012-.006-.013-.007-.012-.008-.012z"/><path id="_542717384" class="fil1" d="M5.209 2.885 8.995 6.67v.032l-.001.007V6.723l-.001.006V6.742l-.001.007v.006l-.001.007v.006l-.001.007v.006l-.001.007v.006l-.001.007v.006l-.001.007v.006l-.001.007-.001.006v.007l-.001.006v.007l-.001.006v.007l-.001.006v.007L5.194 3.092v-.006l.001-.007v-.006l.001-.006V3.06l.001-.006v-.007l.001-.006v-.007l.001-.006V3.02l.001-.006.001-.007v-.006l.001-.007V2.99l.001-.007v-.006l.001-.007V2.956l.001-.006v-.007l.001-.006V2.924l.001-.007V2.891z"/><path id="_542717360" class="fil1" d="M5.195 3.092 8.981 6.88v.02l-.001.006v.007l-.001.007v.006l-.001.007V6.945l-.001.007v.007l-.001.006v.014l-.001.006V7l-.001.006v.014l-.001.006v.014l-.001.006v.014l-.001.006v.007l-.001.007V7.092L5.182 3.306v-.014l.001-.006v-.014l.001-.006v-.014l.001-.006v-.014l.001-.006v-.014l.001-.006v-.007l.001-.007V3.18l.001-.007V3.16l.001-.007v-.006l.001-.007V3.126l.001-.007v-.007l.001-.006v-.007z"/><path id="_542716952" class="fil1" d="m5.183 3.306 3.786 3.786v.02l-.001.006v.007l-.001.007v.006l-.001.007V7.158l-.001.007v.006l-.001.007v.007l-.001.006v.014l-.001.006V7.224l-.001.007v.007l-.001.006v.02l-.001.007V7.297l-.001.007-3.786-3.786v-.04l.001-.007V3.458l.001-.007V3.438l.001-.006v-.007l.001-.007V3.405l.001-.007v-.006l.001-.007V3.372l.001-.007V3.36l.001-.007v-.007l.001-.006v-.014l.001-.006v-.007z"/><path id="_542717264" class="fil1" d="m4.589 3.138 3.786 3.786h-.007l-.002.001h-.002l-.002.001h-.001L4.574 3.14h.004l.002-.001h.003l.002-.001h.002z"/><path id="_542717648" class="fil1" d="m4.574 3.14 3.787 3.786v.22L4.574 3.36z"/><path id="_542717288" class="fil1" d="M4.97 3.613 8.756 7.4l.002.065L4.97 3.68z"/><path id="_542717480" class="fil1" d="m4.574 3.36 3.787 3.786v.041L4.574 3.401z"/><path id="_542717048" class="fil1" d="M4.462 3.401 8.25 7.187h-.014L4.45 3.401z"/><path id="_542717504" class="fil1" d="m4.246 3.401 3.787 3.786h-.014L4.233 3.401z"/><path id="_542717408" class="fil1" d="M3.784 3.401 7.57 7.187h-.013L3.77 3.401z"/><path id="_542717576" class="fil1" d="m3.753 3.401 3.786 3.786h-.013L3.74 3.401z"/><path id="_542718368" class="fil1" d="m3.516 3.358 3.786 3.787v.041l.001.005v.012l.001.005.001.006v.006l.001.006v.006l.002.006v.012l.002.006v.006l.001.005v.006l.001.005.001.005v.005l.001.005v.005l.001.004v.004l.001.004L3.53 3.524v-.008l-.001-.005-.001-.004v-.005l-.001-.005v-.005l-.002-.005v-.011l-.002-.006v-.006l-.001-.006v-.006l-.001-.006-.001-.006v-.006l-.001-.006v-.006l-.001-.006v-.005l-.001-.006v-.006l-.001-.005v-.032z"/><path id="_542717960" class="fil1" d="m3.12 3.178 3.786 3.786-.003-.002-.003-.003-.004-.002-.003-.002-.004-.002h-.004l-.005-.001H6.871L3.085 3.166H3.098l.004.001.004.002.004.001.003.003.004.002z"/><path id="_542718272" class="fil1" d="m3.181 3.25 3.786 3.787-.002-.002-3.787-3.787z"/><path id="_542717864" class="fil1" d="m4.614 3.22 3.787 3.786-.002-.001-.002-.002L4.61 3.217l.002.001z"/><path id="_542717816" class="fil1" d="m4.574 3.401 3.787 3.786h-.002L4.572 3.401z"/><path id="_542718440" class="fil1" d="M4.555 3.401 8.34 7.187h-.013L4.542 3.401z"/><path id="_542718152" class="fil1" d="m4.37 3.401 3.786 3.786h-.013L4.356 3.401z"/><path id="_542717720" class="fil1" d="M4.524 3.401 8.31 7.187h-.013L4.511 3.401z"/><path id="_542717984" class="fil1" d="m4.216 3.401 3.786 3.786h-.013L4.202 3.401z"/><path id="_542718080" class="fil1" d="M4.185 3.401 7.97 7.187h-.013L4.17 3.401z"/><path id="_542719112" class="fil1" d="m3.722 3.401 3.786 3.786h-.013L3.71 3.401z"/><path id="_542719064" class="fil1" d="m4.721 4.59 3.787 3.786-.002.005-.002.005-.002.005-.002.006-.001.005-.002.005-.002.005-.002.005-.002.005-.002.005-.001.005-.002.005-.002.005-.002.006-.002.005-.003.005L4.691 4.67l.002-.005.002-.005.002-.005.002-.005.002-.005.002-.005.002-.005.002-.005.002-.005.001-.006.002-.005.002-.005.002-.005.002-.005.002-.005z"/><path id="_542718944" class="fil1" d="m3.178 3.248 3.787 3.787-.004-.004-3.786-3.786z"/><path id="_542718488" class="fil1" d="M3.044 3.182 6.83 6.97h-.002l-.003.002h-.003l-.003.002h-.002l-.003.002h-.003l-.003.002h-.002l-.003.002H6.8l-.003.002h-.002l-.003.002h-.003l-.003.002L3 3.198h.003l.003-.002h.002l.003-.001.003-.001.003-.001.002-.001.003-.001.003-.001.003-.001.002-.001.003-.001.003-.001.003-.002h.002z"/><path id="_542718800" class="fil1" d="M2.014 2.522 5.8 6.308l-.003-.002-.004-.003-.003-.002-.004-.001-.003-.001-.004-.002h-.004l-.004-.001-.005-.001h-.004l-.005-.002-3.786-3.786h.005l.004.002h.004l.005.001.004.001.003.001.004.002.004.001.003.002.003.002z"/><path id="_542718656" class="fil1" d="m1.971 2.507 3.786 3.786h-.006l-.006-.001-.006-.001h-.006l-.006-.002H5.72l-.006-.001-.007-.001-.006-.001h-.006l-.006-.002h-.006l-.006-.001-.006-.001h-.006L5.66 6.28 1.873 2.494h.006l.006.002h.007l.006.001.006.001h.006l.006.002h.006l.006.001.006.001.006.001h.007l.006.002h.006l.006.001z"/><path id="_542719208" class="fil1" d="m3.175 3.245 3.786 3.786-.004-.004-3.786-3.786z"/><path id="_542719088" class="fil1" d="M4.974 3.606 8.76 7.392v.002h-.002v.002l-.001.002V7.4L4.97 3.613V3.61h.001v-.002h.001v-.002h.002z"/><path id="_542718728" class="fil1" d="m5.172 3.518 3.786 3.786v.05l.002.01v.01l.001.01.001.009.001.01.002.009.001.009.002.01.001.009.002.009.002.01.002.008.002.01.002.009.002.009.002.01.002.008.003.01.002.009.003.01.002.009.003.009.002.01.003.009.003.01.002.009.003.01L5.225 3.82l-.003-.01-.003-.009-.002-.01-.003-.009-.002-.01-.003-.009-.003-.009-.002-.01-.002-.009-.003-.009-.002-.01-.002-.008-.002-.01-.003-.009-.002-.009-.001-.01-.002-.008-.002-.01-.002-.009-.001-.01-.002-.009v-.01l-.002-.009-.001-.01v-.009l-.002-.01v-.019l-.001-.01v-.02z"/><path id="_542719016" class="fil1" d="M5.225 3.821 9.01 7.607l.002.007.002.006.001.006.002.006.001.006.002.007.002.006.002.006.001.006.002.007.002.006.002.006.002.006.002.006.002.006.002.006L5.254 3.92l-.002-.006-.002-.006-.002-.006-.002-.006-.002-.007-.002-.006-.002-.006-.002-.006-.001-.006-.002-.007-.002-.006-.001-.006-.002-.006-.002-.006-.001-.007z"/><path id="_542718872" class="fil1" d="M4.493 3.401 8.28 7.187h-.013L4.48 3.401z"/><path id="_542719808" class="fil1" d="m4.431 3.401 3.787 3.786h-.014L4.418 3.401z"/><path id="_542719832" class="fil1" d="m4.4 3.401 3.787 3.786h-.013L4.387 3.401z"/><path id="_542719976" class="fil1" d="m4.339 3.401 3.786 3.786h-.013L4.326 3.401z"/><path id="_542719856" class="fil1" d="m4.308 3.401 3.786 3.786h-.013L4.295 3.401z"/><path id="_542719664" class="fil1" d="m4.277 3.401 3.786 3.786H8.05L4.264 3.401z"/><path id="_542719712" class="fil1" d="M4.154 3.401 7.94 7.187h-.013L4.14 3.401z"/><path id="_542719496" class="fil1" d="m4.123 3.401 3.786 3.786h-.013L4.11 3.401z"/><path id="_542719568" class="fil1" d="m4.092 3.401 3.786 3.786h-.013L4.08 3.401z"/><path id="_542719880" class="fil1" d="m4.061 3.401 3.787 3.786h-.014L4.048 3.401z"/><path id="_542719448" class="fil1" d="m4.03 3.401 3.787 3.786h-.013L4.017 3.401z"/><path id="_542719688" class="fil1" d="m4 3.401 3.786 3.786h-.013L3.986 3.401z"/><path id="_542720120" class="fil1" d="m3.969 3.401 3.786 3.786h-.013L3.956 3.401z"/><path id="_542720480" class="fil1" d="m3.938 3.401 3.786 3.786h-.013L3.925 3.401z"/><path id="_542720024" class="fil1" d="m3.907 3.401 3.786 3.786H7.68L3.894 3.401z"/><path id="_542720648" class="fil1" d="m3.876 3.401 3.787 3.786h-.014L3.863 3.401z"/><path id="_542720072" class="fil1" d="m3.845 3.401 3.787 3.786h-.014L3.832 3.401z"/><path id="_542720528" class="fil1" d="M3.815 3.401 7.6 7.187h-.013L3.8 3.401z"/><path id="_542720576" class="fil1" d="m3.691 3.401 3.787 3.786h-.014L3.678 3.401z"/><path id="_542720624" class="fil1" d="M3.593 3.333 7.38 7.12h-.006l-.003-.001h-.005l-.003-.001h-.006l-.002-.001h-.003l-.003-.001h-.003l-.002-.001H7.34l-.003-.001h-.003L3.55 3.326h.003l.002.001h.003l.003.001h.003l.003.001h.005l.003.001h.003l.003.001h.008l.003.001z"/><path id="_542720048" class="fil1" d="m3.549 3.327 3.786 3.786h-.014l-.006.003-.004.004-.003.005-.003.005-.001.007-.002.008-3.786-3.787.001-.007.002-.007.002-.006.004-.005.004-.003.005-.003h.007z"/><path id="_542720408" class="fil1" d="m3.599 3.401 3.786 3.786H7.38L3.593 3.401z"/><path id="_542721104" class="fil1" d="m3.63 3.401 3.786 3.786h-.013L3.616 3.401z"/><path id="_542721056" class="fil1" d="m3.66 3.401 3.787 3.786h-.014L3.647 3.401z"/><path id="_542720936" class="fil1" d="M3.62 3.405 7.406 7.19l.002.004V7.204l-.002.004-.003.004-.004.002h-.01l-.004-.002-3.787-3.786.004.002h.011l.004-.002.003-.004.002-.004V3.41z"/><path id="_542721320" class="fil1" d="M3.65 3.405 7.438 7.19l.002.004V7.204l-.002.004-.003.004-.004.002h-.01l-.005-.002L3.63 3.426l.004.002h.01l.005-.002.003-.004.002-.004V3.41z"/><path id="_542721488" class="fil1" d="M3.682 3.405 7.468 7.19l.002.004V7.204l-.002.004-.003.004-.004.002H7.45l-.004-.002L3.66 3.426l.004.002h.01l.004-.002.004-.004.002-.004V3.41z"/><path id="_542721392" class="fil1" d="M3.712 3.405 7.5 7.19l.002.004V7.204l-.002.004-.003.004-.005.002h-.01l-.004-.002-3.786-3.786.004.002h.01l.004-.002.003-.004.002-.004.001-.004v-.005z"/><path id="_542721152" class="fil1" d="M3.743 3.405 7.53 7.19l.002.004V7.204l-.002.004-.004.004-.004.002h-.01l-.004-.002-3.786-3.786.004.002h.01l.004-.002.003-.004.002-.004.001-.004v-.005z"/><path id="_542721464" class="fil1" d="M3.774 3.405 7.56 7.19l.003.004V7.204l-.003.004-.003.004-.004.002h-.01l-.004-.002-3.787-3.786.005.002h.01l.004-.002.003-.004.002-.004V3.41z"/><path id="_542721176" class="fil1" d="M3.805 3.405 7.591 7.19l.002.004V7.204l-.002.004-.003.004-.004.002h-.01l-.004-.002-3.787-3.786.004.002h.011l.004-.002.003-.004.002-.004V3.41z"/><path id="_542720840" class="fil1" d="M3.836 3.405 7.622 7.19l.002.004V7.204l-.002.004-.003.004-.004.002h-.01L7.6 7.212 3.814 3.426l.004.002h.01l.005-.002.003-.004.002-.004V3.41z"/><path id="_542720864" class="fil1" d="M3.867 3.405 7.653 7.19l.002.004V7.204l-.002.004-.003.004-.004.002h-.011l-.004-.002-3.786-3.786.004.002h.01l.004-.002.004-.004.002-.004V3.41z"/><path id="_542721776" class="fil1" d="M3.898 3.405 7.684 7.19l.002.004V7.204l-.002.004-.003.004-.005.002h-.01l-.004-.002-3.786-3.786.004.002h.01l.004-.002.003-.004.002-.004.001-.004v-.005z"/><path id="_542721872" class="fil1" d="M3.928 3.405 7.715 7.19l.002.004V7.204l-.002.004-.004.004-.004.002h-.01l-.004-.002-3.786-3.786.004.002h.01l.004-.002.003-.004.002-.004.001-.004v-.005z"/><path id="_542721536" class="fil1" d="M3.96 3.405 7.744 7.19l.003.004V7.204l-.003.004-.003.004-.004.002h-.01l-.004-.002-3.786-3.786.004.002h.01l.004-.002.003-.004.002-.004V3.41z"/><path id="_542721848" class="fil1" d="M3.99 3.405 7.776 7.19l.002.004.001.005v.004l-.003.004-.003.004-.004.002h-.01l-.004-.002-3.787-3.786.005.002h.01l.004-.002.003-.004.002-.004V3.41z"/><path id="_542721752" class="fil1" d="M4.02 3.405 7.808 7.19l.002.004V7.204l-.002.004-.003.004-.004.002h-.01l-.005-.002L4 3.426l.004.002h.011l.004-.002.003-.004.002-.004V3.41z"/><path id="_542722040" class="fil1" d="M4.052 3.405 7.838 7.19l.002.004V7.204l-.002.004-.003.004-.004.002H7.82l-.004-.002L4.03 3.426l.004.002h.01l.005-.002.003-.004.002-.004V3.41z"/><path id="_542722232" class="fil1" d="M4.083 3.405 7.869 7.19l.002.004V7.204l-.002.004-.003.004-.005.002h-.01l-.004-.002-3.786-3.786.004.002h.01l.004-.002.003-.004.002-.004.001-.004v-.005z"/><path id="_542721560" class="fil1" d="M4.113 3.405 7.9 7.19l.002.004V7.204l-.002.004-.004.004-.004.002h-.01l-.004-.002-3.786-3.786.004.002h.01l.004-.002.003-.004.002-.004.001-.004v-.005z"/><path id="_542721632" class="fil1" d="M4.787 4.424 8.573 8.21l-.002.005-.002.005-.002.006-.002.005-.002.005-.002.005-.002.005-.003.005-.002.006-.002.005-.002.005-.002.005-.002.005-.002.005-.002.006-.002.005-.002.005-.002.005-.002.005-.002.006-.003.005-.002.005-.002.005-.002.005-.002.006-.002.005-.002.005-.002.005-.002.005-.001.006-.002.005-.002.005L4.72 4.59l.002-.005.002-.006.002-.005.002-.005.002-.005.002-.006.002-.005.002-.005.002-.005.002-.005.002-.006.002-.005.002-.005.002-.005.002-.005.002-.005.003-.006.002-.005.002-.005.002-.005.002-.005.002-.006.002-.005.002-.005.002-.005.002-.005.003-.005.002-.006.002-.005.002-.005.002-.005z"/><path id="_542721656" class="fil1" d="M4.144 3.405 7.931 7.19l.002.004V7.204l-.003.004-.003.004-.004.002h-.01l-.004-.002-3.786-3.786.004.002h.01l.004-.002.003-.004.002-.004V3.41z"/><path id="_542722664" class="fil1" d="M4.175 3.405 7.961 7.19l.002.004.001.005v.004l-.003.004-.003.004-.004.002h-.01l-.004-.002-3.787-3.786.005.002h.01l.004-.002.003-.004.002-.004V3.41z"/><path id="_542722448" class="fil1" d="M4.206 3.405 7.992 7.19l.002.004V7.204l-.002.004-.003.004-.004.002h-.01l-.004-.002-3.787-3.786.004.002H4.2l.004-.002.003-.004.002-.004V3.41z"/><path id="_542722520" class="fil1" d="M4.237 3.405 8.023 7.19l.002.004V7.204l-.002.004-.003.004-.004.002h-.01L8 7.212 4.215 3.426l.004.002h.01l.005-.002.003-.004.002-.004V3.41z"/><path id="_542723000" class="fil1" d="M4.268 3.405 8.054 7.19l.002.004V7.204l-.002.004-.003.004-.004.002h-.011l-.004-.002-3.786-3.786.004.002h.01l.004-.002.004-.004.002-.004V3.41z"/><path id="_542722304" class="fil1" d="M4.298 3.405 8.085 7.19l.002.004V7.204l-.002.004-.003.004-.005.002h-.01l-.004-.002-3.786-3.786.004.002h.01l.004-.002.003-.004.002-.004.001-.004v-.005z"/><path id="_542722976" class="fil1" d="M4.33 3.405 8.115 7.19l.002.004V7.204l-.003.004-.003.004-.004.002h-.01l-.004-.002-3.786-3.786.004.002h.01l.004-.002.003-.004.002-.004V3.41z"/><path id="_542722856" class="fil1" d="M4.36 3.405 8.146 7.19l.002.004.001.005v.004l-.003.004-.003.004-.004.002h-.01l-.004-.002-3.787-3.786.005.002h.01l.004-.002.003-.004.002-.004V3.41z"/><path id="_542723048" class="fil1" d="M4.391 3.405 8.177 7.19l.002.004V7.204l-.002.004-.003.004-.004.002h-.01l-.004-.002-3.787-3.786.004.002h.011l.004-.002.003-.004.002-.004V3.41z"/><path id="_542722808" class="fil1" d="M4.422 3.405 8.208 7.19l.002.004V7.204l-.002.004-.003.004-.004.002h-.01l-.005-.002L4.4 3.426l.004.002h.01l.005-.002.003-.004.002-.004V3.41z"/><path id="_542722592" class="fil1" d="m5.09 4.776 3.787 3.786-.005.006-.004.005-.003.005-.004.004-.002.004-.003.004-.001.004-.002.003v.023l.002.006.002.007.003.008.001.007.001.005v.014l-.002.003-.002.003-.003.003-.003.002-.003.002-.004.001-.004.001-.005.001h-.005l-.005.001h-.005L5.034 4.899h.011l.005-.001.005-.001.004-.001.004-.002.003-.001.003-.003.003-.002.002-.003.001-.004v-.003l.001-.005v-.005l-.001-.006-.002-.006-.002-.008-.002-.007-.001-.006-.001-.006-.001-.005v-.008l.001-.004.001-.004.002-.003.002-.004.003-.004.003-.004.004-.005.004-.005z"/><path id="_542722880" class="fil1" d="m5.034 4.898 3.787 3.787h-.032l-.006.001H8.764l-.006.001H8.732l-.006.001H8.72L4.933 4.902h.032l.006-.001H4.99l.007-.001H5.015l.007-.001h.006z"/><path id="_542723576" class="fil1" d="M4.945 4.103 8.732 7.89l-.008.013-.007.012-.007.011-.007.011-.006.01-.006.01-.005.01-.006.01-.005.01-.005.008-.005.01-.004.008-.005.008-.004.009-.004.008-.004.009-.005.008-.004.009-.004.008-.004.01-.004.008-.004.01-.004.009-.004.01-.004.01-.004.01-.005.01-.004.012-.005.012-.005.012-.005.013-.006.013-3.786-3.786.005-.014.006-.012.005-.013.004-.011.005-.012.004-.01.005-.01.004-.01.004-.01.004-.01.004-.01.004-.008.004-.009.004-.009.004-.008.004-.009.004-.008.005-.008.004-.009.004-.008.005-.01.005-.008.005-.009.005-.01.005-.009.006-.01.006-.01.006-.01.007-.011.007-.012.007-.011z"/><path id="_542723432" class="fil1" d="M4.453 3.405 8.239 7.19l.002.004V7.204l-.002.004-.003.004-.004.002H8.22l-.004-.002-3.786-3.786.004.002h.01l.004-.002.004-.004.002-.004V3.41z"/><path id="_542723240" class="fil1" d="M4.483 3.405 8.27 7.19l.002.004V7.204l-.002.004-.003.004-.005.002h-.01l-.004-.002-3.786-3.786.004.002h.01l.004-.002.003-.004.002-.004.001-.004v-.005z"/><path id="_542723096" class="fil1" d="M4.514 3.405 8.301 7.19l.002.004V7.204l-.002.004-.004.004-.004.002h-.01l-.004-.002-3.786-3.786.004.002h.01l.004-.002.003-.004.002-.004.001-.004v-.005z"/><path id="_542723336" class="fil1" d="M4.545 3.405 8.331 7.19l.002.004.001.005v.004l-.003.004-.003.004-.004.002h-.01l-.004-.002-3.787-3.786.005.002h.01l.004-.002.003-.004.002-.004V3.41z"/><path id="_542723384" class="fil1" d="M4.576 3.405 8.362 7.19l.002.004V7.204l-.002.004-.003.004-.004.002h-.01l-.004-.002-3.787-3.786.004.002h.011l.004-.002.003-.004.002-.004V3.41z"/><path id="_542723504" class="fil1" d="M4.994 3.95 8.78 7.735l.001.005v.005l.002.005v.01l.001.005v.02l-.001.005-.001.005-.002.005-.001.005-.002.004-.002.005L4.988 4.03l.003-.005.001-.005.002-.005.001-.005.001-.005L4.997 4v-.01l.001-.005V3.97l-.002-.005V3.96l-.001-.005z"/><path id="_542723552" class="fil1" d="m5.136 4.478 3.786 3.786-.001.006-.002.007v.006l-.002.006-.001.007-.001.006-.001.006-.002.007v.006l-.002.006v.007l-.002.006-.001.006-.001.007-.001.006-.001.007-.001.006-.001.006-.001.007v.006l-.002.007v.006l-.001.006-.001.007v.006l-.001.007-.001.006v.006l-.001.007V8.462l-.001.006-3.787-3.786v-.007l.001-.006v-.006l.001-.007V4.65l.001-.007.001-.006V4.63l.001-.006.001-.006.001-.007v-.006l.002-.007v-.006l.002-.006v-.007l.002-.006v-.006l.002-.007v-.006l.002-.007.001-.006.001-.006.001-.007.001-.006.002-.006v-.007l.002-.006.001-.006.001-.007.001-.006z"/><path id="_542723792" class="fil1" d="m4.971 3.679 3.787 3.786v.041l.001.008v.017l.001.01v.008l.001.009v.009l.001.008v.01l.001.008v.01l.001.008v.01l.002.008v.009l.001.008.001.01.001.008v.008l.002.009.001.008.001.008.001.008.002.008.001.008.001.007.002.008-3.786-3.787-.002-.007-.001-.008-.002-.007v-.008l-.002-.008-.001-.008-.001-.009-.001-.008-.001-.009-.001-.008-.001-.009v-.009l-.002-.008v-.01l-.001-.008v-.009l-.001-.009v-.009l-.001-.009V3.78l-.001-.009v-.008l-.001-.01v-.017l-.001-.008v-.025l-.001-.008v-.008z"/><path id="_542723744" class="fil1" d="m5.106 4.682 3.787 3.786v.043l-.001.006v.006l-.002.006v.006l-.002.006-.002.005-.003.006-.003.005-.003.005-3.786-3.786.003-.005.003-.005.002-.006.002-.005.002-.006.001-.006v-.006l.001-.006v-.007l.001-.006v-.03z"/><path id="_542724104" class="fil1" d="m4.988 4.03 3.787 3.785-.003.005-.002.005-.002.005-.003.005-.003.004-.002.005-.003.004-.003.005-.002.005-.003.004-.003.005-.003.004-.003.005-.003.004-.002.005-.003.004-3.787-3.786.003-.004.003-.005.003-.004.003-.005.003-.005.002-.004.003-.005.003-.004.003-.005.003-.004.002-.005.003-.005.002-.004.003-.005.002-.005z"/><path id="_542724128" class="fil1" d="M5.254 3.92 9.04 7.706l.003.005.002.005.002.004.002.005.003.005.002.005.003.005.002.005.002.006.001.005.002.005v.005l.001.005v.011l-.001.006L5.278 4v-.005l.001-.006v-.01l-.002-.005v-.006l-.003-.005-.002-.005-.002-.005-.002-.005-.002-.005-.003-.005-.002-.005-.003-.005-.002-.005z"/><path id="_542724080" class="fil1" d="m5.278 4.001 3.786 3.787-.002.005-.002.005-.003.004-.002.005-.004.004-.003.004-.003.005-.003.004-3.786-3.786.003-.005.003-.004.003-.004.003-.005.003-.004.003-.005.002-.005z"/><path id="_542723888" class="fil1" d="m5.256 4.038 3.786 3.786-.005.008-.005.009-.004.01-.005.01-.005.012-.005.012-.004.013-.005.014L9 7.926l-.005.014-.004.016-.005.015-.004.016-.004.016-.005.017-.004.016-.004.017-.003.016-.004.017-.004.016-.003.016-.004.016-.003.015-.003.016-.003.014-.003.014-.003.014-.002.013-.002.012-.002.012-.002.01-.002.01-3.787-3.786.002-.01.002-.01.002-.012.003-.012.002-.013.003-.014.003-.014.003-.015.003-.015.003-.015.003-.016.004-.016.004-.017.003-.016.004-.017.004-.016.004-.017.004-.016.005-.016.004-.016.004-.016.005-.015.004-.015.005-.014.004-.013.005-.013.005-.013.005-.011.004-.01.005-.01.005-.01z"/><path id="_542723936" class="fil1" d="m3.247 3.295 3.786 3.787-.005-.004-.004-.004-.005-.003-.005-.003-.005-.003-.005-.003L7 7.059l-.005-.003-.005-.004-.006-.003-.005-.004-.005-.004-.006-.004-3.786-3.786.005.004.006.004.005.004.005.003.006.003.005.003.005.003.005.003.005.003.005.004.005.003.004.004z"/><path id="_542691584" class="fil1" d="M3.085 3.166 6.87 6.952l-.006.002-.005.001-.005.002-.005.002-.005.003-.005.002-.005.002-.005.003-3.786-3.787.005-.002.005-.002.005-.003.005-.002.005-.002.005-.002.005-.002z"/><path id="_542691920" class="fil1" d="M3.53 3.524 7.316 7.31l.001.006v.006l.001.006.001.006v.006l.001.006v.007l.001.006v.006l.001.006v.006l.001.006v.006l.001.006V7.408l.001.006v.006l.001.006v.006l.001.006v.012l.001.006v.007l.001.006.001.006v.006l.001.006v.006l.002.006v.006L3.547 3.72v-.006l-.001-.006-.001-.006v-.006l-.001-.006v-.007l-.001-.006V3.67l-.001-.006v-.006l-.001-.006v-.006L3.54 3.64v-.006l-.001-.007v-.012l-.001-.006v-.006l-.001-.006V3.59l-.001-.006v-.007l-.001-.006v-.006l-.001-.006v-.006l-.001-.006v-.006l-.001-.006-.001-.006z"/><path id="_542692304" class="fil1" d="M1.873 2.494 5.66 6.28h-.012l-.005-.001h-.006l-.006-.001h-.005l-.006-.001-.006-.001H5.61l-.006-.002-.005-.001-.006-.001-.005-.002-.006-.002-.005-.002-.005-.002-3.786-3.786.005.002.005.002.005.002.006.001.005.002h.006l.005.002h.006l.006.001.005.001h.006l.006.001h.006l.005.001h.006z"/><path id="_542691944" class="fil1" d="m1.548 2.399 3.786 3.786v.001L1.547 2.4v-.001z"/><path id="_542692136" class="fil1" d="M3.588 4.664 7.375 8.45l-.003.004-.003.004-.002.004-.002.004-.001.004-.001.004v.02l.001.004.002.004.002.004.002.004.002.004-3.786-3.787-.003-.004-.002-.004-.001-.004-.002-.004v-.004l-.002-.004v-.016l.002-.004.001-.003.002-.004.002-.004.002-.004z"/><path id="_542691680" class="fil1" d="m3.586 4.727 3.786 3.787.002.002.002.003.002.003.002.003.002.003.003.003.002.004.002.003.002.003.001.004.002.003v.004l.002.003v.011L3.609 4.779v-.014l-.001-.003-.002-.004-.002-.003-.001-.003-.002-.004-.003-.003-.002-.003-.002-.003-.002-.003-.002-.003-.002-.003z"/><path id="_542692160" class="fil1" d="M3.313 4.763 7.1 8.549 3.312 4.763z"/><path id="_542691776" class="fil1" d="M3.234 4.898 7.02 8.685l-.005-.001-.005-.001-.005-.002H7l-.005-.002-.006-.001-.005-.002H6.98L3.193 4.888l.005.001.005.001.005.002h.005l.005.002.005.001.006.001z"/><path id="_542692016" class="fil1" d="M3.193 4.889 6.98 8.675l-.007-.001-.006-.001-.006-.002-.004-.002L3.17 4.883l.004.002.005.001.007.001z"/><path id="_542692112" class="fil1" d="m3.61 4.78 3.786 3.786-.002.003-.001.003-.002.003-.002.003-.003.003-.003.002-.003.002-.004.002-.004.002-.004.001-.004.002-.005.001-.004.001-.005.001-.005.001-.005.001h-.005l-.006.001h-.005L7.32 8.6h-.01l-.005.001H7.282l-.004.001h-.012l-.004.001-.003.001-.003.001-.003.002-.003.002-.002.002-.002.003v.007l.001.005.002.004.001.005.002.004v.005l.001.005v.004l-.002.005-.004.004-.005.005-.007.004-.01.004-.012.003-.015.003-.005.001H7.19l-.005.001-.005.001h-.005l-.005.001h-.006l-.006.001h-.005l-.006.001H7.14l-.007.001h-.012l-.006.001h-.072l-.005-.001h-.005l-.005-.001h-.004l-.004-.001-3.786-3.787.004.001h.004l.005.001h.005l.005.001h.016l.006.001H3.341l.006-.001h.006L3.36 4.9h.012l.006-.001.005-.001h.006l.005-.001h.005l.005-.002h.008l.016-.004.012-.004.01-.003.007-.005.005-.004.003-.004.002-.005V4.852l-.002-.005-.002-.004-.001-.005-.001-.004v-.007l.002-.003.002-.003.002-.002.003-.001.004-.001h.003l.003-.001h.006l.004-.001h.02l.004-.001h.015l.005-.001h.005l.005-.001h.005l.005-.001.005-.001h.005l.005-.002.005-.001.005-.001.004-.002.004-.001.004-.002.004-.002.003-.002.003-.003.003-.002.002-.003.002-.003.001-.003z"/><path id="_542692592" class="fil1" d="M4.583 4.664 8.37 8.451 4.582 4.664z"/><path id="_542692928" class="fil1" d="M4.643 4.728 8.43 8.515l-.002.004-.002.004v.017l.001.004.001.005v.004l.002.004V8.57l-.001.004-.002.004-.002.003-3.787-3.786.003-.004.001-.004.001-.003v-.017l-.001-.005-.001-.004v-.004l-.001-.005V4.736l.001-.004z"/><path id="_542692520" class="fil1" d="m4.691 4.671 3.786 3.787-.003.006-.003.006-.003.006-.003.004-.004.004-.003.003-.003.003-.003.003-.003.003-.003.002-.003.002-.003.002-.003.003-.002.003-.003.003-.002.004-3.787-3.787.003-.003.002-.003.003-.003.003-.003.003-.002.003-.002.003-.003.003-.002.003-.003.003-.003.003-.003.003-.004.004-.005.003-.005.003-.006z"/><path id="_542692472" class="fil1" d="M4.933 4.902 8.72 8.688H8.669l-.006-.002h-.005l-.005-.002-.004-.001-.005-.002-.005-.002-3.786-3.786.005.002.004.001.005.002.005.001.005.001h.005l.005.001h.006l.005.001H4.928z"/><path id="_542693096" class="fil1" d="m4.853 4.893 3.786 3.786-.003-.002-.004-.002-.003-.002-.002-.002L4.84 4.885l.003.002.003.002.003.002z"/><path id="_542692808" class="fil1" d="M1.785 2.478 5.57 6.264l-.009-.005-.008-.004-.008-.003-.008-.004-.007-.002-.007-.003-.006-.002-.006-.002-.005-.001-.006-.001-.005-.001h-.004l-.004-.001h-.011L1.69 2.45h.02l.005.002h.005l.006.002.006.002.006.002.007.002.007.003.007.003.008.004.009.004z"/><path id="_542692376" class="fil1" d="m1.548 2.396 3.786 3.787v.001L1.548 2.399v-.001z"/><path id="_542692616" class="fil1" d="m1.688 2.45 3.786 3.786h-.005l-.004.002-.004.002-.004.001-.003.002-.003.002-.003.002-.003.002-.003.001-.004.001-.003.001h-.012l-.005-.001-.005-.002-.005-.002-.004-.002-.004-.003-.004-.002-.004-.002-.004-.002-.004-.002-.005-.002-3.786-3.787.004.002.005.002.004.002.004.003.004.002.004.002.004.003.004.001.006.002.005.002h.015l.003-.002.004-.002.003-.001.003-.002.003-.002.003-.002.004-.002.004-.001.004-.001z"/><path id="_542692640" class="fil1" d="m1.69 2.45 3.787 3.785h-.001l-.001.001h-.003L1.686 2.452l.002-.001h.001z"/><path id="_542692664" class="fil1" d="m1.93 2.176 3.787 3.787-.001.002L1.929 2.18z"/><path id="_542693720" class="fil1" d="m2.024 2.538 3.787 3.786-3.787-3.786z"/><path id="_542693600" class="fil1" d="m3 3.198 3.786 3.787-.021.006-.022.007-.022.005-.022.006-.021.004-.023.004-.022.003-.022.003-.022.002-.022.001h-.022l-.023.001H6.5l-.022-.002-.022-.002-.021-.003-.022-.003-.022-.004-.021-.005-.021-.005-.021-.006-.021-.007-.02-.008-.021-.009-.02-.009-.02-.01-.02-.01-.019-.012-.019-.013-.018-.013-.018-.014-.018-.015-3.786-3.786.018.015.018.014.018.013.019.012.02.012.019.01.02.01.02.01.02.009.02.007.021.007.021.006.022.006.021.005.022.004.021.003.022.003.022.002.022.001h.066l.023-.001.022-.002.022-.003.022-.003.022-.004.022-.005.022-.005.022-.006.022-.006z"/><path id="_542693144" class="fil1" d="m3.547 3.72 3.786 3.785v.006l.002.005v.005l.001.005.001.006.001.005.001.005.001.005.001.005.001.006.001.005.002.005v.005l.002.005.001.005.002.005v.005l.002.006.002.005v.005l.002.005.002.005v.005l.002.005.002.005v.005l.002.006.002.005v.005l.002.005.001.005.002.005.001.007.002.007.001.007.001.007.002.006v.007l.001.006.001.007v.006l.002.006v.025l.001.006v.043l-.001.007v.006l-.001.007v.006l-.001.007v.007l-.001.007v.007l-.001.008v.007L3.59 4.093v-.008l.001-.007v-.007l.001-.007v-.007l.001-.007v-.006l.001-.007V4.024l.001-.006V3.95l-.001-.006-.001-.007v-.006l-.002-.006v-.007l-.002-.007-.001-.006-.001-.007-.002-.007-.002-.007v-.005l-.002-.005-.001-.006-.002-.005-.001-.005-.001-.005-.002-.005-.001-.005-.001-.005-.002-.005-.001-.005-.001-.006-.002-.005-.001-.005-.001-.005-.002-.005-.001-.005-.001-.005-.001-.005-.002-.005v-.006l-.002-.005-.001-.005-.001-.005-.001-.005-.001-.005-.001-.006-.001-.005v-.005l-.002-.005v-.006z"/><path id="_542693456" class="fil1" d="m1.593 2.445 3.786 3.787-.004-.002h-.004l-.004-.002-.004-.001-.004-.001-.004-.002-.004-.001-.004-.002L1.56 2.435l.004.002.003.001.004.001.005.002h.004l.004.002.004.001z"/><path id="_542693312" class="fil1" d="M4.638 4.795 8.425 8.58l-.003.003-.003.002-.003.001-.003.001-.003.001-.004.001H8.37L4.584 4.803h.01l.003.001h.027l.003-.002.003-.001.003-.002.003-.002z"/><path id="_542693864" class="fil1" d="M1.56 2.435 5.348 6.22l-.006-.003L1.555 2.43z"/><path id="_542693792" class="fil1" d="m2.328 3.09 3.786 3.787-.007-.006-.008-.007-.007-.006-.007-.007-.006-.006-3.786-3.786.006.006.007.006.007.007.007.006z"/><path id="_542693384" class="fil1" d="M4.584 4.803 8.37 8.59l-.135-.004-3.786-3.787z"/><path id="_542693240" class="fil1" d="m3.581 4.291 3.787 3.786v.075l.001.01V8.18l.001.008v.01l.001.009v.009l.001.009v.009l.001.009.001.009v.009l.001.009.001.01.001.008.001.01v.008l.002.01v.009l.002.009v.01l.002.008.001.01.002.01v.006l.001.006.001.006.001.005V8.4l.001.005V8.42l-.001.004-.002.004-.001.004-.002.005-.003.004-.003.005-.004.005-3.787-3.786.004-.005.004-.005.002-.004.003-.005.001-.004.001-.004.001-.005V4.61l-.001-.005v-.006L3.6 4.592v-.007l-.002-.01-.001-.009-.001-.01-.001-.008-.001-.01-.001-.009-.001-.009-.001-.009-.001-.01-.001-.008v-.01l-.002-.008V4.457l-.001-.01-.001-.009V4.43l-.001-.009v-.009l-.001-.009v-.019l-.001-.008V4.347l-.001-.01V4.3z"/><path id="_542693528" class="fil1" d="m3.59 4.093 3.787 3.786v.012l-.001.007v.006l-.001.006v.006l-.001.006v.007l-.001.006v.012l-.001.006V7.966l-.001.006v.012l-.001.006V8.003l-.001.006v.031l-.001.006v.031L3.58 4.291v-.037l.001-.006v-.025l.001-.006V4.198l.001-.006V4.179l.001-.006v-.012l.001-.006v-.007l.001-.006v-.006l.001-.006v-.006l.001-.006V4.104L3.59 4.1z"/><path id="_542694464" class="fil1" d="m4.449 4.8 3.786 3.786H8.217l-.005-.002h-.004l-.004-.003-.003-.003-3.786-3.786.003.003.004.002.004.001h.005l.004.001h.01z"/><path id="_637666384" class="fil1" d="M4.574 3.36zM2.147 2.107c.018-.012.081-.018.104.02.025-.018.055-.02.119-.07a.163.163 0 0 1-.004.119c-.011.025-.05.079-.08.077.036.143.09.311.186.427.024.03.046.05.078.07.297.193.57.032.78-.198.109-.123.203-.267.28-.39l.022-.038.04-.064a.234.234 0 0 1 .04-.045.373.373 0 0 1 .169-.072.744.744 0 0 1 .62.128c.037.028.042.04.073.066.011.01.022.017.033.025.204.112.202.04.403.236.274.097.168.23.27.44a.559.559 0 0 1-.089-.222.206.206 0 0 0-.078-.132l-.072-.056c.048.049.036.04.068.1l.003.005.002.003v.001l.001.002.003.003c.034.05.066.06.079.134a1.1 1.1 0 0 1 .012.209c-.001.069-.009.138-.014.207-.005.071-.008.143-.012.214-.004.07-.01.141-.011.212-.002.11.024.2.053.303.01.033.016.067.03.099.01.025.03.052.023.081-.004.014-.015.025-.022.037-.051.077-.103.341-.12.44-.013.067-.026.135-.03.204-.001.03.004.068-.015.094-.026.034-.031.033-.018.079.01.035-.008.042-.039.043l-.1.004c-.027 0-.056.002-.081-.01-.019-.008-.031-.027-.012-.043.023-.018.054-.02.08-.03a.113.113 0 0 0 .06-.058c.006-.013.01-.026.015-.04.016-.043.032-.063.045-.117.012-.056.018-.161.027-.226a.643.643 0 0 0 .004-.21c-.003-.035-.002-.07-.001-.104.001-.032-.004-.064 0-.096.01-.061-.032-.111-.047-.186-.005-.024-.003-.02-.005-.038l-.005-.034c-.008-.028-.027-.07-.04-.104a.024.024 0 0 0-.004.007l.001.066c.003.083.006.193.023.27a.12.12 0 0 1-.006.08c-.011.026-.028.05-.043.074a1.63 1.63 0 0 0-.158.32c-.022.056-.045.11-.066.167-.01.027-.018.055-.03.081-.017.04-.035.037-.048.057-.013.021.01.048-.005.067-.012.014-.038.009-.054.008L4.449 4.8c-.01 0-.027.002-.034-.007-.014-.016.006-.046.02-.054.037-.02.092.009.148-.074l.024-.035.012-.017.02-.031.023-.048s.038-.104.04-.115l.06-.2c.007-.027.003-.053.008-.08.008-.042.023-.08.028-.127a.988.988 0 0 0 0-.124c-.003-.026-.004-.058-.008-.085l-.002-.017c-.002-.047.001-.095.003-.143v-.02l.001-.017V3.582l-.001-.003v-.006L4.79 3.57v-.002l-.001-.002v-.002l-.001-.002v-.003l-.002-.003v-.003l-.001-.002v-.002l-.001-.002-.007-.017-.023-.04-.014-.026c-.014-.024-.028-.049-.037-.075-.034-.079-.066-.122-.089-.17-.005-.002-.01-.007-.011-.028a.282.282 0 0 1-.014-.053.077.077 0 0 0-.015.002v.261h-.002c.012.009.006.028-.008.028-.015 0-.021-.02-.01-.028h-.012c.011.009.005.028-.01.028-.014 0-.02-.02-.008-.028H4.51c.012.009.006.028-.01.028-.014 0-.02-.02-.008-.028H4.48c.012.009.006.028-.009.028s-.02-.02-.009-.028H4.45c.012.009.006.028-.009.028s-.02-.02-.009-.028h-.013c.012.009.006.028-.009.028-.014 0-.02-.02-.008-.028h-.014c.012.009.006.028-.008.028-.015 0-.021-.02-.01-.028h-.013c.012.009.006.028-.008.028-.015 0-.021-.02-.01-.028h-.012c.011.009.006.028-.01.028-.014 0-.02-.02-.008-.028h-.013c.012.009.006.028-.009.028s-.02-.02-.009-.028h-.013c.012.009.006.028-.009.028s-.02-.02-.009-.028h-.013c.012.009.006.028-.009.028-.014 0-.02-.02-.008-.028h-.014c.012.009.006.028-.009.028-.014 0-.02-.02-.008-.028H4.17c.012.009.006.028-.008.028-.015 0-.021-.02-.01-.028h-.012c.011.009.005.028-.01.028-.014 0-.02-.02-.008-.028H4.11c.012.009.006.028-.009.028s-.02-.02-.009-.028H4.08c.012.009.006.028-.009.028s-.02-.02-.009-.028h-.013c.012.009.006.028-.009.028-.014 0-.02-.02-.009-.028h-.013c.012.009.006.028-.009.028-.014 0-.02-.02-.008-.028h-.014c.012.009.006.028-.008.028-.015 0-.021-.02-.01-.028h-.012c.011.009.005.028-.01.028-.014 0-.02-.02-.008-.028h-.013c.012.009.006.028-.01.028-.014 0-.02-.02-.008-.028h-.013c.012.009.006.028-.009.028s-.02-.02-.009-.028h-.013c.012.009.006.028-.009.028-.014 0-.02-.02-.009-.028h-.013c.012.009.006.028-.009.028-.014 0-.02-.02-.008-.028H3.8c.012.009.006.028-.008.028-.015 0-.021-.02-.01-.028h-.012c.011.009.005.028-.01.028-.014 0-.02-.02-.008-.028H3.74c.012.009.006.028-.01.028-.014 0-.02-.02-.008-.028H3.71c.012.009.006.028-.009.028s-.02-.02-.009-.028h-.013c.012.009.006.028-.009.028s-.02-.02-.009-.028h-.013c.012.009.006.028-.009.028-.014 0-.02-.02-.008-.028h-.014c.012.009.006.028-.008.028-.015 0-.021-.02-.01-.028h-.005v-.068a.487.487 0 0 1-.044-.006c-.023-.004-.03.01-.033.031-.004.036.01.127.014.166.008.065.01.13.017.195.007.057.024.11.037.165.019.076.013.129.007.209a2.393 2.393 0 0 0 .01.492c.004.037.01.05-.013.08-.016.02-.016.041-.002.062.009.015.028.034.023.052-.008.039-.098.034-.127.036-.008.001-.019.003-.022.012-.006.018.041.051-.049.067a.692.692 0 0 1-.177.004c-.014-.002-.027-.006-.04-.01-.02-.004-.037.001-.016-.037.019-.035.058-.026.088-.042a.127.127 0 0 0 .047-.046.083.083 0 0 0 .011-.028l.001-.002v-.002l.005-.03.008-.032.003-.005.002-.004c0-.001.024-.039.026-.05l.01-.033.003-.017.001-.003.002-.009.001-.005V4.54l.001-.003v-.003l.002-.01.001-.005v-.006l.002-.006v-.006l.001-.003v-.006l.002-.009V4.48l.001-.009.001-.008.001-.012v-.006l.001-.006.001-.009a.978.978 0 0 0 0-.215.305.305 0 0 0-.017-.062V4.15l-.003-.006-.012-.03v-.001l-.002-.004-.001-.004v-.003l-.002-.003v-.003l-.001-.002V4.09l-.002-.003v-.005l-.001-.002c-.012-.057 0-.132 0-.193l-.003-.054-.002-.095-.002-.02v-.008l-.001-.005L3.35 3.7v-.003l-.001-.004v-.006l-.002-.005v-.006l-.01-.052-.002-.006v-.006l-.002-.003-.001-.005V3.6l-.002-.006v-.003l-.001-.003-.003-.009v-.003l-.003-.012-.002-.006-.003-.011-.002-.01-.03-.131-.016-.072v-.003l-.002-.002v-.003l-.001-.002-.002-.004-.001-.002-.001-.002v-.001l-.001-.002-.002-.003-.002-.002c-.019-.028-.05-.034-.077-.058l-.003-.003-.003-.003-.004-.004-.01-.011-.022-.028c-.013-.019-.028-.04-.054-.036-.015.003-.028.01-.041.016A.69.69 0 0 1 3 3.198c-.228.077-.485.056-.672-.107a.591.591 0 0 1-.118-.13c-.032-.05-.043-.111-.07-.164-.04-.078-.076-.174-.113-.256-.012-.027-.031-.03-.056-.034-.033-.004-.065-.01-.098-.013-.029-.003-.061-.003-.088-.016-.05-.026-.077-.031-.095-.029l-.004.002.002-.002c-.027.005-.031.026-.062.013-.011-.004-.021-.012-.033-.017-.01-.003-.022-.005-.032-.01-.018-.009-.014-.021-.013-.036V2.4v-.004.002a.22.22 0 0 1 .056-.097c.02-.022.041-.04.061-.045.02-.006.05-.007.069-.018.038-.024.083-.017.124-.027a.243.243 0 0 0 .073-.035l-.002.003a.28.28 0 0 0 .026-.02.154.154 0 0 1 .018-.033c.034-.04.097-.057.14-.026.004.004.005.005.01.007a.048.048 0 0 0 .024 0zm-.123.43v.001z"/></g></g><path d="M3.413 0a3.413 3.413 0 1 1 0 6.827 3.413 3.413 0 0 1 0-6.827z" style="fill:none"/><path style="fill:#daa739;fill-rule:nonzero" d="m5.098 2.691-.548.24H2.568l-.105.127h2.125l.593-.26z"/><path class="fil4" d="M1.548 2.394v-.001.001zM1.548 2.399c-.001.015-.005.027.013.036.01.005.021.007.032.01.012.005.022.013.033.017.051.022.029-.051.159.016.027.013.059.013.088.016l.098.013.015.003c.018.003.031.01.04.03a2.115 2.115 0 0 1 .037.083c.025.058.048.118.077.174.027.053.038.113.07.163.015.024.034.044.053.064.022.023.042.047.066.068a.619.619 0 0 0 .302.14.775.775 0 0 0 .413-.05c.013-.005.026-.013.04-.016.025-.004.04.014.053.032.014.022.03.041.05.057.02.016.044.025.062.043.02.02.025.05.03.076l.02.091c.013.063.032.125.044.189.006.031.01.064.011.096.002.032 0 .064.003.096.006.065-.005.128-.003.193 0 .031.007.06.02.089a.36.36 0 0 1 .026.087.92.92 0 0 1 .002.194.926.926 0 0 1-.029.188.174.174 0 0 1-.018.042c-.007.012-.015.023-.02.037-.007.026-.005.053-.018.079a.127.127 0 0 1-.051.054c-.021.011-.045.01-.065.02a.051.051 0 0 0-.023.022c-.004.007-.012.02-.01.028.003.009.018.008.025.01l.04.01c.032.005.064.004.096.002a.569.569 0 0 0 .082-.007c.019-.003.057-.01.056-.036 0-.01-.012-.023-.006-.033.004-.008.014-.009.021-.01.024-.002.047 0 .07-.004.019-.003.052-.01.057-.032.004-.018-.014-.037-.023-.052-.014-.02-.014-.043.002-.063.01-.011.016-.021.017-.037 0-.014-.003-.028-.005-.042-.004-.032-.008-.063-.01-.095a2.393 2.393 0 0 1 .001-.397c.005-.064.011-.128-.003-.191-.013-.062-.034-.12-.041-.183-.008-.065-.01-.13-.017-.195l-.011-.1c-.002-.02-.005-.044-.003-.066.002-.02.01-.035.033-.03a.601.601 0 0 0 .086.008c.067.003.134.003.2.002.066 0 .131 0 .196-.002a.873.873 0 0 0 .347-.082.884.884 0 0 0 .225-.159c.023-.02-.033.01-.002.007-.005.246.032-.025.102.287.01.026.023.05.037.075.013.025.03.05.041.076.01.025.012.052.01.08l-.002.091c0 .03-.003.059.001.088.02.14.01.28-.028.418l-.026.086c-.016.057-.033.115-.053.171-.009.027-.019.054-.03.08a.396.396 0 0 1-.043.07c-.015.022-.027.045-.045.063a.127.127 0 0 1-.065.038c-.021.005-.045.002-.065.013-.014.008-.034.038-.02.054.007.009.024.007.034.007l.043.002.092.002c.016 0 .042.006.054-.008.016-.019-.008-.046.005-.067.007-.011.02-.018.03-.028a.09.09 0 0 0 .018-.029c.012-.026.02-.054.03-.081.02-.056.044-.111.066-.166.023-.056.045-.112.071-.167.026-.054.057-.104.087-.154.015-.024.032-.048.043-.074a.12.12 0 0 0 .006-.08 1.161 1.161 0 0 1-.02-.179l-.003-.091-.001-.047c0-.006-.002-.013 0-.019.001-.005.006-.009.009-.014a.19.19 0 0 1 .03.083c.007.031.01.063.016.094a.507.507 0 0 0 .03.093c.013.03.023.06.018.094-.004.032 0 .063 0 .096-.002.034-.003.068 0 .103.004.036.008.07.007.106 0 .035-.006.07-.01.105-.01.07-.013.14-.025.209a.38.38 0 0 1-.029.093c-.007.015-.014.03-.02.047l-.015.04a.114.114 0 0 1-.06.057c-.026.01-.057.012-.08.03-.02.016-.007.035.012.044.025.011.054.01.08.009.034 0 .068-.002.101-.004.013 0 .029 0 .037-.011.008-.01.005-.021.002-.032-.004-.016-.01-.03-.004-.048.004-.012.014-.021.022-.031.02-.026.014-.063.015-.094a3.947 3.947 0 0 1 .071-.407c.016-.065.032-.133.057-.195a.243.243 0 0 1 .022-.042c.007-.012.018-.023.022-.037.007-.029-.014-.056-.024-.081-.013-.032-.02-.066-.03-.099a4.496 4.496 0 0 1-.027-.101.74.74 0 0 1-.025-.202c.001-.071.007-.142.011-.212.004-.071.007-.143.012-.214.005-.069.013-.138.014-.207.001-.07 0-.142-.012-.21a.167.167 0 0 0-.036-.08c-.02-.023-.04-.043-.054-.07-.21-.25-.388-.251-.577-.425a.74.74 0 0 0-.255-.141.798.798 0 0 0-.396-.013.373.373 0 0 0-.169.072c-.046.039-.07.093-.1.145-.202.34-.605.89-1.067.583a.413.413 0 0 1-.118-.131 1.26 1.26 0 0 1-.139-.362c.018.001.034-.015.045-.027a.163.163 0 0 0 .038-.169.427.427 0 0 1-.06.041c-.02.01-.04.016-.058.03-.023-.039-.086-.033-.104-.021a.048.048 0 0 1-.025 0l-.01-.007a.099.099 0 0 0-.097-.006.118.118 0 0 0-.042.032.154.154 0 0 0-.018.034.243.243 0 0 1-.11.054c-.023.005-.045.004-.068.009-.02.004-.04.014-.06.021-.02.008-.044.008-.064.018a.157.157 0 0 0-.049.04.22.22 0 0 0-.056.097zM1.547 2.4v-.004.004z"/><path class="fil5" d="M2.137 2.192s-.022-.03-.077-.03c-.054.001-.033.03-.033.03s.017.036.06.036c.044.001.05-.036.05-.036z"/><path d="M2.121 2.193s-.016-.022-.055-.021c-.04 0-.024.02-.024.02s.012.027.044.027a.033.033 0 0 0 .035-.026z" style="fill:#8f5a3a;fill-rule:nonzero"/><path d="M2.055 2.195c0 .008.004.015.01.02.006.002.011.004.017.004a.025.025 0 0 0 .023-.024.025.025 0 0 0-.008-.018.084.084 0 0 0-.027-.005.025.025 0 0 0-.015.023z" style="fill:#46372f;fill-rule:nonzero"/><path d="M2.066 2.19c0 .006.004.01.01.01a.01.01 0 1 0-.01-.01z" style="fill:#fefefe;fill-rule:nonzero"/><path class="fil5" d="M2.17 2.21s.014.07-.064.07h-.08s.137-.009.145-.07zM2.16 2.196s-.007-.013-.025-.028a.145.145 0 0 0-.056-.028.1.1 0 0 0-.024-.002l-.013.002-.01.004a.097.097 0 0 0-.05.04.082.082 0 0 0-.01.026l-.002.01s.005-.015.02-.03a.121.121 0 0 1 .028-.022c.006-.004.012-.006.018-.008l.01-.003.01-.001a.138.138 0 0 1 .073.02c.02.011.032.02.032.02z"/><path d="M1.924 2.195c-.02.017-.042.029-.066.041-.05.027-.108.008-.156.038-.02.012-.046.012-.069.018a.122.122 0 0 0-.046.03c.024-.032.054-.06.078-.066.023-.007.05-.007.069-.018.048-.03.107-.012.156-.038a.626.626 0 0 0 .04-.024.103.103 0 0 0-.008.02l.002-.001z" style="fill:#c6855a;fill-rule:nonzero"/><path class="fil5" d="M2.352 2.102s.006.076-.054.118c0 0-.027-.007-.037-.058 0 0 .06-.023.09-.06z"/><path class="fil10" d="M1.986 2.51c.018.003.031.01.04.03l.02.044a.15.15 0 0 0 .051-.049.301.301 0 0 0 .036-.067c-.015.018-.042.028-.071.034a.417.417 0 0 1-.076.008zM1.71 2.302s-.06.006-.081.05c0 0 .01.029.04.027 0 0-.007-.043.04-.077zM1.686 2.45s.004 0 .012-.004l.03-.013a.167.167 0 0 0 .03-.02c.002-.002.006-.006.009-.007a.27.27 0 0 1 .05-.012.74.74 0 0 1 .052-.004.33.33 0 0 0 .047-.004.147.147 0 0 0 .032-.01.046.046 0 0 0 .011-.006l-.011.004a.504.504 0 0 1-.054.004h-.025a.44.44 0 0 0-.082.008.094.094 0 0 0-.032.014l-.003.002-.002.003a.252.252 0 0 1-.053.04l-.011.006z"/><path class="fil11" d="M2.024 2.538zM2.024 2.538z"/><path class="fil5" d="M4.96 3.557c.108.08.086.071.108.18a.51.51 0 0 0 .031.093c.013.03.022.06.018.094-.005.032 0 .063-.001.095-.001.035-.003.069 0 .104.004.035.008.07.008.106 0 .035-.006.07-.01.104-.01.07-.014.14-.025.21a.381.381 0 0 1-.03.093l-.02.046c-.005.013-.008.027-.014.04a.113.113 0 0 1-.049.052.11.11 0 0 0 .004-.008c.006-.013.01-.026.014-.04l.021-.046a.381.381 0 0 0 .029-.093c.012-.069.015-.14.024-.21.005-.034.01-.068.01-.103.001-.036-.003-.071-.006-.107-.003-.034-.002-.068-.001-.103.001-.032-.004-.064 0-.096a.175.175 0 0 0-.017-.094.508.508 0 0 1-.034-.112l-.002-.031c-.001-.034-.063-.159-.058-.174zM3.045 3.154a.706.706 0 0 0 .044-.016c.013-.006.026-.014.04-.017.025-.004.04.015.052.033.015.02.03.04.05.057.02.015.045.024.063.042.02.02.025.05.03.076l.02.092c.013.063.032.125.043.188.006.032.01.064.012.096.001.032 0 .064.003.096.005.065-.006.129-.004.193.002.032.008.06.02.089a.36.36 0 0 1 .026.088c.01.064.007.13.002.194a.926.926 0 0 1-.028.188.174.174 0 0 1-.018.041c-.008.012-.015.024-.02.037-.008.027-.005.054-.018.079a.128.128 0 0 1-.05.053l.005-.008c.013-.026.01-.053.019-.079.004-.014.012-.025.019-.037a.174.174 0 0 0 .018-.042.927.927 0 0 0 .029-.188.92.92 0 0 0-.002-.194.36.36 0 0 0-.027-.087.247.247 0 0 1-.02-.089c-.001-.065.01-.128.004-.193l-.003-.096a.685.685 0 0 0-.011-.096c-.012-.064-.03-.126-.045-.189a5.01 5.01 0 0 1-.019-.09c-.005-.027-.01-.057-.03-.077-.018-.018-.043-.027-.062-.043a.255.255 0 0 1-.05-.057c-.013-.018-.028-.036-.052-.032-.015.003-.028.01-.041.016a.775.775 0 0 1-.413.05.619.619 0 0 1-.302-.14.51.51 0 0 1-.17-.249l.005.005s.01.015.008.01c.14.28.577.394.873.296z"/><path class="fil5" d="M3.594 3.283a.601.601 0 0 0 .086.009c.066.003.133.002.2.001.065 0 .13 0 .196-.002a.873.873 0 0 0 .346-.082.884.884 0 0 0 .155-.098c.024-.02-.04.046-.017.025.022-.02.034-.053.066-.056.046.289.298.455.334.478.046.028.005.01.01.074l.001.047.004.091c.003.06.006.12.019.18a.12.12 0 0 1-.006.08c-.011.025-.028.049-.043.073-.03.05-.061.1-.087.154-.026.055-.048.11-.071.167-.022.055-.045.11-.066.166-.01.027-.018.055-.03.081a.09.09 0 0 1-.018.03c-.01.009-.023.016-.03.027-.013.021.01.048-.005.067-.012.014-.038.009-.054.008l-.092-.002-.043-.002c-.01 0-.027.002-.034-.007-.014-.016.006-.046.02-.054.02-.01.044-.008.065-.013a.127.127 0 0 0 .065-.038.21.21 0 0 0 .018-.023c.01-.013.017-.026.027-.04a.395.395 0 0 0 .043-.07c.011-.026.021-.053.03-.08.02-.056.037-.114.053-.17l.026-.087c.007-.026.004-.053.008-.08.006-.027.015-.055.02-.083.006-.028.01-.057.013-.085.004-.03-.002-.052-.005-.082-.003-.027-.004-.06-.008-.088-.004-.029-.002-.059-.001-.088l.003-.092a.177.177 0 0 0-.011-.079c-.011-.026-.028-.05-.041-.076-.014-.024-.028-.049-.037-.075-.051-.12-.1-.159-.114-.251-.032.002-.052.023-.074.043-.023.02.041-.045.017-.026a.884.884 0 0 1-.154.1.873.873 0 0 1-.347.08c-.065.003-.13.003-.196.003s-.133.002-.2-.002a.645.645 0 0 1-.075-.007v-.015c.003-.021.01-.036.034-.031z"/><path class="fil12" d="M5.166 2.612c-.008-.01-.022-.013-.032-.018-.016-.007-.03-.016-.046-.024a.474.474 0 0 0-.09-.033c-.031-.008-.064-.011-.094-.02-.016-.006-.03-.014-.045-.021-.015-.007-.028-.008-.044-.01-.014 0-.022-.012-.033-.02-.013-.009-.028-.015-.042-.023-.025-.014-.043-.036-.064-.055a.74.74 0 0 0-.255-.141.798.798 0 0 0-.396-.013.373.373 0 0 0-.169.072c-.046.039-.07.094-.099.145a.217.217 0 0 1-.121.107c-.06.02-.123.023-.18.054a.508.508 0 0 0-.134.12l-.136.158a.648.648 0 0 1-.15.123.414.414 0 0 1-.172.063.268.268 0 0 1-.175-.042.413.413 0 0 1-.118-.131 1.006 1.006 0 0 1-.1-.223c.021.025.045.048.072.066.474.315.838-.223 1.068-.583.03-.052.053-.106.1-.145a.373.373 0 0 1 .168-.072.798.798 0 0 1 .397.013.74.74 0 0 1 .254.14c.021.02.04.042.064.056.234.13.209.029.468.295.021.021.032.049.045.075.015.027.035.047.054.07.02.023.03.05.036.08a.75.75 0 0 1 .007.059c-.015-.016-.03-.03-.032-.054 0-.02.009-.05-.006-.068zm-1.401-.189v.001z"/><path d="M3.593 2.19v1.17h.981V2.137a.369.369 0 0 1-.024-.022l-.018-.018a.029.029 0 0 0-.003-.003.798.798 0 0 0-.648-.151.373.373 0 0 0-.169.072.237.237 0 0 0-.058.072l-.005.007a.61.61 0 0 0-.011.02l-.025.046a.3.3 0 0 1-.02.03z" style="fill:#a52f22;fill-rule:nonzero"/><path class="fil14" d="M3.593 2.774h.981v-.051h-.98zM3.593 2.477h.981v-.05h-.98zM3.61 2.165h.964v-.028a.369.369 0 0 1-.024-.022h-.912l-.025.045a.189.189 0 0 1-.003.005zM3.593 2.406h.981v-.194h-.98zM3.65 2.094h.88a.798.798 0 0 0-.648-.151.373.373 0 0 0-.17.072.237.237 0 0 0-.058.072l-.005.007zM3.593 2.699h.981v-.194h-.98zM3.593 3.161h.981v-.05h-.98zM3.593 2.865h.981v-.051h-.98zM3.593 3.086h.981v-.194h-.98zM3.593 3.401h.981v-.194h-.98z"/><path class="fil12" d="m4.994 2.392.12.092c.04.032.068.078.077.13v.002c.013.08.044.155.089.221-.104-.213.009-.348-.286-.445z"/><path d="M3.554 3.76a1.975 1.975 0 0 0-.009.27c.01.045.01.113.01.143 0 .03-.002.045 0 .098.003.053.008.113.008.156s.002.123-.013.141c-.015.018-.012.02-.023.043-.01.022-.015.025-.022.05-.008.025-.015.038-.028.063-.013.025-.007.02-.013.038-.005.017-.02.045-.02.045l.016.022.001-.004c.004-.008.014-.009.021-.01.024-.002.047 0 .07-.004.019-.003.052-.01.057-.032.005-.018-.014-.037-.023-.052-.014-.02-.014-.043.002-.063.01-.011.016-.021.017-.037 0-.014-.003-.028-.005-.042-.004-.032-.008-.063-.01-.095a2.393 2.393 0 0 1 .001-.397c.005-.064.011-.128-.003-.191-.01-.048-.025-.094-.034-.142z" style="fill:#a46741"/><path class="fil14" d="M4.579 3.413a.015.015 0 1 1-.03 0 .015.015 0 0 1 .03 0zM4.548 3.413a.015.015 0 1 1-.03 0 .015.015 0 0 1 .03 0zM4.517 3.413a.015.015 0 1 1-.03 0 .015.015 0 0 1 .03 0zM4.486 3.413a.015.015 0 1 1-.03 0 .015.015 0 0 1 .03 0zM4.455 3.413a.015.015 0 1 1-.03 0 .015.015 0 0 1 .03 0zM4.424 3.413a.015.015 0 1 1-.03 0 .015.015 0 0 1 .03 0z"/><path class="fil14" d="M4.394 3.413a.015.015 0 1 1-.03 0 .015.015 0 0 1 .03 0zM4.363 3.413a.015.015 0 1 1-.03 0 .015.015 0 0 1 .03 0zM4.332 3.413a.015.015 0 1 1-.03 0 .015.015 0 0 1 .03 0zM4.301 3.413a.015.015 0 1 1-.03 0 .015.015 0 0 1 .03 0zM4.27 3.413a.015.015 0 1 1-.03 0 .015.015 0 0 1 .03 0z"/><path class="fil14" d="M4.24 3.413a.015.015 0 1 1-.03 0 .015.015 0 0 1 .03 0zM4.209 3.413a.015.015 0 1 1-.03 0 .015.015 0 0 1 .03 0zM4.178 3.413a.015.015 0 1 1-.03 0 .015.015 0 0 1 .03 0zM4.147 3.413a.015.015 0 1 1-.03 0 .015.015 0 0 1 .03 0zM4.116 3.413a.015.015 0 1 1-.03 0 .015.015 0 0 1 .03 0zM4.085 3.413a.015.015 0 1 1-.03 0 .015.015 0 0 1 .03 0zM4.054 3.413a.015.015 0 1 1-.03 0 .015.015 0 0 1 .03 0z"/><path class="fil14" d="M4.024 3.413a.015.015 0 1 1-.03 0 .015.015 0 0 1 .03 0zM3.993 3.413a.015.015 0 1 1-.03 0 .015.015 0 0 1 .03 0zM3.962 3.413a.015.015 0 1 1-.03 0 .015.015 0 0 1 .03 0zM3.931 3.413a.015.015 0 1 1-.03 0 .015.015 0 0 1 .03 0zM3.9 3.413a.015.015 0 1 1-.03 0 .015.015 0 0 1 .03 0z"/><path class="fil14" d="M3.87 3.413a.015.015 0 1 1-.03 0 .015.015 0 0 1 .03 0zM3.839 3.413a.015.015 0 1 1-.03 0 .015.015 0 0 1 .03 0zM3.808 3.413a.015.015 0 1 1-.03 0 .015.015 0 0 1 .03 0zM3.777 3.413a.015.015 0 1 1-.03 0 .015.015 0 0 1 .03 0zM3.746 3.413a.015.015 0 1 1-.03 0 .015.015 0 0 1 .03 0zM3.715 3.413a.015.015 0 1 1-.03 0 .015.015 0 0 1 .03 0zM3.684 3.413a.015.015 0 1 1-.03 0 .015.015 0 0 1 .03 0z"/><path class="fil14" d="M3.654 3.413a.015.015 0 1 1-.03 0 .015.015 0 0 1 .03 0zM3.623 3.413a.015.015 0 1 1-.03 0 .015.015 0 0 1 .03 0z"/></g></svg>