<svg xmlns="http://www.w3.org/2000/svg" xml:space="preserve" width="655.359" height="655.359" style="shape-rendering:geometricPrecision;text-rendering:geometricPrecision;image-rendering:optimizeQuality;fill-rule:evenodd;clip-rule:evenodd" viewBox="0 0 6.827 6.827"><defs><clipPath id="id0"><path d="M3.413 0a3.413 3.413 0 1 1 0 6.827 3.413 3.413 0 0 1 0-6.827z"/></clipPath><style>.fil1{fill:#424242}.fil5{fill:#ccb4aa}.fil6{fill:#d4c1b9}.fil4{fill:#e1d1ca}</style></defs><g id="Layer_x0020_1"><path d="M3.413 0a3.413 3.413 0 1 1 0 6.827 3.413 3.413 0 0 1 0-6.827z" style="fill:#616161"/><g style="clip-path:url(#id0)"><g id="_637666624"><path id="_5426945121" class="fil1" d="m2.359 2.562 3.786 3.786-.007-.004-.007-.004-.008-.004-.007-.003-.007-.004-.007-.003-.008-.003-.007-.003-.008-.003-.008-.003-.007-.002-.008-.002-.008-.002-.007-.002-.008-.002-.008-.002-3.786-3.786.008.002.007.001.008.002.008.002.008.003.007.002.008.003.007.003.008.003.007.003.008.003.007.003.007.004.007.004.008.004z"/><path id="_542693936" class="fil1" d="M6.964 6.848zM3.177 3.062z"/><path id="_542698400" class="fil1" d="M7.544 6.489zM3.758 2.703z"/><path id="_542697992" class="fil1" d="M7.708 6.201zM3.922 2.415z"/><path id="_542698304" class="fil1" d="M8.48 5.363zM4.695 1.577z"/><path id="_542697896" class="fil1" d="M8.481 5.365zM4.695 1.58z"/><path id="_542697848" class="fil1" d="M8.482 5.368zM4.696 1.58z"/><path id="_542698472" class="fil1" d="M8.483 5.37zM4.697 1.584z"/><path id="_542698184" class="fil1" d="M8.837 6.218zM5.05 2.432z"/><path id="_542697800" class="fil1" d="M8.851 6.245zM5.065 2.46z"/><path id="_542698016" class="fil1" d="M8.86 6.267zM5.074 2.481z"/><path id="_542698112" class="fil1" d="M8.874 6.363zM5.087 2.577z"/><path id="_542699144" class="fil1" d="M8.866 6.412zM5.08 2.626z"/><path id="_542699096" class="fil1" d="M8.806 6.592zM5.019 2.805z"/><path id="_542699240" class="fil1" d="M8.805 6.594zM5.018 2.807z"/><path id="_542698520" class="fil1" d="M8.79 6.616zM5.002 2.829z"/><path id="_542698832" class="fil1" d="M8.191 7.977zM4.405 4.19z"/><path id="_542698688" class="fil1" d="M8.193 7.982zM4.407 4.196z"/><path id="_542698496" class="fil1" d="M8.196 7.99zM4.41 4.205z"/><path id="_542699120" class="fil1" d="M8.202 8.011zM4.415 4.225z"/><path id="_542698760" class="fil1" d="M8.203 8.019zM4.417 4.232z"/><path id="_542698616" class="fil1" d="M8.204 8.023zM4.418 4.236z"/><path id="_542698904" class="fil1" d="M8.207 8.035zM4.42 4.249z"/><path id="_542699840" class="fil1" d="m2.428 2.616 3.786 3.786-.007-.007-.007-.007-.008-.006-.007-.006-.008-.006-.008-.006-.008-.005-.008-.006-.008-.005-3.786-3.786.008.005.008.005.008.006.008.006.007.006.008.006.008.006.007.007z"/><path id="_542699864" class="fil1" d="m2.239 2.516 3.786 3.786-.008-.001L6.01 6.3l-.008-.001-.007-.001-.008-.001h-.008l-.008-.001H5.93l-.008.001-.008.001-.008.001-.008.002-3.786-3.787.008-.001.008-.001h.007l.008-.002H2.2l.008.001.008.001.008.001.008.002z"/><path id="_542700008" class="fil1" d="m2.177 3.997 3.786 3.786-.02.032-.021.033-.02.032-.02.031-.02.032-.019.03-.018.031-.019.03-.017.031-.017.03-.016.03-.015.028-.015.029-.014.028-.012.027-.012.028-.01.026-.01.027-.009.025-.007.026-.006.024-.005.024-.003.024-.002.023v.044l.003.021.005.02.006.02.008.02.01.018.01.018-3.785-3.786-.012-.018-.01-.018-.008-.02-.006-.02-.004-.02-.003-.021v-.044l.001-.023.004-.024.004-.024.006-.025.008-.025.008-.026.01-.026.01-.027.012-.027.013-.028.014-.028.014-.028.016-.03.016-.029.017-.03.017-.03.018-.03.019-.03.019-.032.02-.031.02-.032.02-.032.02-.032z"/><path id="_542699888" class="fil1" d="m1.893 4.839 3.786 3.786.006.008.006.008.006.007.006.008.006.007.007.007.006.007.007.006.007.007.006.006.007.006-3.786-3.787-.007-.006-.007-.006-.006-.006-.007-.007-.007-.006-.006-.007-.006-.008-.007-.007-.006-.007-.006-.008z"/><path id="_542699696" class="fil1" d="M4.064 2.084 7.85 5.87v.001L4.065 2.085z"/><path id="_542699744" class="fil1" d="m4.508 1.557 3.786 3.787-3.786-3.787z"/><path id="_542699528" class="fil1" d="m4.508 1.557 3.786 3.787.002.002.002.002.001.004.001.005.002.005v.006l.002.006v.008l.002.008v.008l.001.01v.009l.001.01v.01l.001.01v.012L4.523 1.672V1.651l-.001-.01v-.01l-.001-.01v-.01l-.002-.008v-.008l-.001-.007-.002-.006v-.006l-.002-.006-.001-.004-.002-.004-.001-.003z"/><path id="_542699720" class="fil1" d="m4.692 1.573 3.786 3.786-3.786-3.786z"/><path id="_542699912" class="fil1" d="M4.692 1.573 8.48 5.36 4.694 1.576v-.001z"/><path id="_542699456" class="fil1" d="M4.693 1.575 8.48 5.36v.001L4.695 1.578v-.002z"/><path id="_448759408" class="fil1" d="m4.694 1.577 3.787 3.786v.002L4.695 1.58z"/><path id="_448759168" class="fil1" d="m4.695 1.579 3.786 3.786.001.003L4.696 1.58z"/><path id="_448759528" class="fil1" d="m4.696 1.581 3.786 3.787.001.002-3.786-3.786z"/><path id="_448759072" class="fil1" d="M4.697 1.584 8.483 5.37v.004L4.698 1.587z"/><path id="_448759696" class="fil1" d="m4.697 1.587 3.787 3.787-3.787-3.787z"/><path id="_448759216" class="fil1" d="m4.697 1.587 3.787 3.787v.003L4.698 1.591z"/><path id="_448759504" class="fil1" d="m4.698 1.59 3.786 3.787-3.786-3.786z"/><path id="_448759624" class="fil1" d="m4.698 1.59 3.786 3.787v.004L4.698 1.594z"/><path id="_448759672" class="fil1" d="m4.698 1.594 3.786 3.787-3.786-3.786z"/><path id="_448759096" class="fil1" d="M4.698 1.595 8.484 5.38v.004L4.7 1.598z"/><path id="_448759576" class="fil1" d="m4.699 1.598 3.786 3.787-3.786-3.786z"/><path id="_448759840" class="fil1" d="m4.699 1.599 3.786 3.786v.004L4.699 1.603z"/><path id="_448760104" class="fil1" d="m4.699 1.603 3.786 3.786-3.786-3.786z"/><path id="_448759984" class="fil1" d="m4.699 1.603 3.786 3.786v.004L4.7 1.607z"/><path id="_448760368" class="fil1" d="m4.699 1.607 3.786 3.786L4.7 1.608z"/><path id="_448760560" class="fil1" d="m4.699 1.607 3.786 3.787v.004L4.7 1.612v-.004z"/><path id="_448760440" class="fil1" d="m4.699 1.612 3.786 3.786L4.7 1.612z"/><path id="_448760152" class="fil1" d="m4.699 1.612 3.786 3.786v.005L4.699 1.617z"/><path id="_448760512" class="fil1" d="m4.699 1.617 3.786 3.786V5.414L4.698 1.627V1.62z"/><path id="_448760200" class="fil1" d="m4.698 1.627 3.787 3.787-3.787-3.786z"/><path id="_448760080" class="fil1" d="m4.698 1.628 3.787 3.786v.005L4.697 1.633z"/><path id="_448760272" class="fil1" d="m4.698 1.633 3.786 3.786-3.786-3.786z"/><path id="_448760824" class="fil1" d="M4.698 1.633 8.484 5.42v.005L4.698 1.64z"/><path id="_448760920" class="fil1" d="m4.698 1.639 3.786 3.786L4.698 1.64z"/><path id="_448760584" class="fil1" d="m4.698 1.639 3.786 3.786v.006L4.696 1.645z"/><path id="_448760896" class="fil1" d="M4.697 1.645 8.483 5.43 4.697 1.645z"/><path id="_448760800" class="fil1" d="m4.697 1.645 3.786 3.786v.006L4.697 1.651z"/><path id="_448761184" class="fil1" d="m4.697 1.65 3.786 3.787-3.786-3.786z"/><path id="_448761280" class="fil1" d="m4.697 1.651 3.786 3.786v.006L4.695 1.657z"/><path id="_448760608" class="fil1" d="m4.696 1.657 3.786 3.786-3.786-3.785z"/><path id="_448761256" class="fil1" d="m4.696 1.658 3.786 3.786v.006L4.695 1.664z"/><path id="_448760680" class="fil1" d="M4.695 1.664 8.482 5.45 4.695 1.664z"/><path id="_448761712" class="fil1" d="M4.695 1.664 8.482 5.45l-.001.007L4.695 1.67z"/><path id="_448761496" class="fil1" d="M4.695 1.67 8.48 5.457v.005L4.693 1.676z"/><path id="_448761568" class="fil1" d="M4.694 1.676 8.48 5.462v.001L4.694 1.677z"/><path id="_448762048" class="fil1" d="M4.694 1.677 8.48 5.463 4.694 1.678z"/><path id="_448761352" class="fil1" d="M4.694 1.677 8.48 5.464v.006L4.692 1.684z"/><path id="_448762024" class="fil1" d="M4.693 1.684 8.479 5.47 4.693 1.685z"/><path id="_448761904" class="fil1" d="m4.693 1.684 3.786 3.787v.006L4.691 1.691z"/><path id="_448762096" class="fil1" d="m4.692 1.69 3.786 3.787-3.786-3.786z"/><path id="_448761832" class="fil1" d="m4.692 1.691 3.786 3.787v.006L4.69 1.698z"/><path id="_448761448" class="fil1" d="m4.691 1.698 3.786 3.786-3.786-3.786z"/><path id="_448761472" class="fil1" d="m4.691 1.698 3.786 3.787v.006L4.69 1.705z"/><path id="_448762624" class="fil1" d="m4.69 1.705 3.786 3.786L4.69 1.707z"/><path id="_448762480" class="fil1" d="m4.69 1.706 3.786 3.786v.007L4.688 1.712z"/><path id="_448762288" class="fil1" d="M4.69 1.712 8.474 5.5 4.69 1.713z"/><path id="_448762648" class="fil1" d="m4.689 1.713 3.786 3.786v.007L4.687 1.72z"/><path id="_448762384" class="fil1" d="m4.688 1.72 3.786 3.786L4.688 1.72z"/><path id="_448762432" class="fil1" d="m4.688 1.72 3.786 3.787v.006L4.686 1.727z"/><path id="_448762600" class="fil1" d="m4.687 1.727 3.786 3.786v.001L4.687 1.728z"/><path id="_448762576" class="fil1" d="m4.687 1.728 3.786 3.786-.001.007-3.786-3.786z"/><path id="_448762840" class="fil1" d="M4.686 1.735 8.472 5.52 4.686 1.736z"/><path id="_448762192" class="fil1" d="m4.686 1.735 3.786 3.787-.001.007-3.787-3.787z"/><path id="_448763080" class="fil1" d="M4.684 1.742 8.471 5.53 4.684 1.743z"/><path id="_448763368" class="fil1" d="m4.684 1.743 3.787 3.786-.001.007L4.683 1.75z"/><path id="_448763176" class="fil1" d="M4.683 1.75 8.47 5.536 4.682 1.75z"/><path id="_448763608" class="fil1" d="M4.683 1.75 8.47 5.537v.007L4.681 1.757z"/><path id="_448763224" class="fil1" d="m4.682 1.757 3.786 3.787-3.786-3.786z"/><path id="_448763248" class="fil1" d="m4.682 1.758 3.786 3.786-.001.007L4.68 1.765z"/><path id="_448762888" class="fil1" d="m4.68 1.765 3.787 3.786v.001L4.68 1.766z"/><path id="_448763392" class="fil1" d="m4.68 1.766 3.787 3.786-.001.007-3.787-3.786z"/><path id="_448763056" class="fil1" d="m4.68 1.773 3.786 3.786-3.787-3.786z"/><path id="_448763488" class="fil1" d="M4.68 1.773 8.464 5.56v.007L4.677 1.78z"/><path id="_448763824" class="fil1" d="m4.678 1.78 3.786 3.787-3.786-3.786z"/><path id="_448764160" class="fil1" d="m4.678 1.781 3.786 3.786-.001.007-3.786-3.786z"/><path id="_448764184" class="fil1" d="m4.677 1.788 3.786 3.786v.001L4.677 1.789z"/><path id="_448764064" class="fil1" d="m4.676 1.789 3.787 3.786-.001.007-3.787-3.786z"/><path id="_448764088" class="fil1" d="m4.675 1.796 3.787 3.786-3.787-3.786z"/><path id="_448764136" class="fil1" d="m4.675 1.796 3.786 3.787v.007L4.673 1.803z"/><path id="_448763800" class="fil1" d="M4.674 1.803 8.46 5.59 4.674 1.804z"/><path id="_448763752" class="fil1" d="M4.674 1.804 8.46 5.59l-.001.007-3.787-3.786z"/><path id="_448764304" class="fil1" d="M4.672 1.81 8.46 5.598 4.672 1.813z"/><path id="_448764352" class="fil1" d="M4.672 1.812 8.46 5.598l-.002.007-3.786-3.787z"/><path id="_448763920" class="fil1" d="m4.671 1.818 3.786 3.787L4.671 1.82z"/><path id="_448765120" class="fil1" d="m4.67 1.82 3.787 3.785-.001.007L4.67 1.826z"/><path id="_448765072" class="fil1" d="m4.67 1.826 3.786 3.786-.003.013L4.667 1.84z"/><path id="_448764928" class="fil1" d="m4.667 1.839 3.786 3.786v.002L4.667 1.84z"/><path id="_448764952" class="fil1" d="m4.667 1.84 3.786 3.787-3.786-3.786z"/><path id="_448764568" class="fil1" d="m4.667 1.841 3.786 3.787-.001.006-3.787-3.786z"/><path id="_448764424" class="fil1" d="m4.665 1.848 3.787 3.786v.001L4.664 1.849z"/><path id="_448764616" class="fil1" d="m4.665 1.849 3.786 3.786v.006L4.663 1.855z"/><path id="_448764904" class="fil1" d="M4.664 1.855 8.45 5.641v.001L4.664 1.856z"/><path id="_448764640" class="fil1" d="M4.664 1.856 8.45 5.642l-.001.006-3.786-3.786z"/><path id="_448764760" class="fil1" d="m4.663 1.862 3.786 3.786v.001L4.662 1.863z"/><path id="_448765240" class="fil1" d="M4.662 1.863 8.45 5.649l-.002.006L4.661 1.87z"/><path id="_448765192" class="fil1" d="m4.661 1.87 3.786 3.785v.001L4.661 1.87z"/><path id="_448765312" class="fil1" d="m4.66 1.87 3.787 3.786-.001.006L4.66 1.876z"/><path id="_448765480" class="fil1" d="m4.66 1.876 3.786 3.786v.001L4.66 1.877z"/><path id="_448765720" class="fil1" d="m4.66 1.877 3.786 3.786-.001.006-3.787-3.786z"/><path id="_448765648" class="fil1" d="m4.658 1.883 3.787 3.786-3.787-3.786z"/><path id="_448765672" class="fil1" d="M4.658 1.883 8.444 5.67v.005L4.656 1.89z"/><path id="_448765600" class="fil1" d="m4.657 1.89 3.786 3.785v.001L4.657 1.89z"/><path id="_448765696" class="fil1" d="m4.657 1.89 3.786 3.786-.001.006-3.786-3.786z"/><path id="_448765624" class="fil1" d="m4.656 1.896 3.786 3.786-3.787-3.786z"/><path id="_448765840" class="fil1" d="m4.655 1.896 3.787 3.787-.001.005-3.787-3.786z"/><path id="_448766272" class="fil1" d="m4.654 1.902 3.787 3.786v.001L4.653 1.903z"/><path id="_448766704" class="fil1" d="M4.654 1.903 8.44 5.689v.005L4.652 1.908z"/><path id="_448766080" class="fil1" d="M4.653 1.908 8.44 5.694v.001L4.653 1.91z"/><path id="_448766032" class="fil1" d="m4.653 1.909 3.786 3.786V5.7L4.651 1.914z"/><path id="_448766224" class="fil1" d="M4.652 1.914 8.438 5.7v.001L4.652 1.915z"/><path id="_448766344" class="fil1" d="M4.652 1.915 8.438 5.7l-.001.005L4.65 1.92z"/><path id="_448766632" class="fil1" d="m4.65 1.92 3.787 3.786L4.65 1.92z"/><path id="_448766464" class="fil1" d="m4.65 1.92 3.787 3.787-.001.004-3.787-3.786z"/><path id="_448765984" class="fil1" d="m4.65 1.925 3.786 3.786v.001L4.649 1.926z"/><path id="_448766296" class="fil1" d="m4.65 1.926 3.786 3.786-.001.005L4.648 1.93z"/><path id="_448766776" class="fil1" d="m4.648 1.93 3.787 3.787-3.787-3.786z"/><path id="_448766968" class="fil1" d="m4.648 1.931 3.786 3.787v.004L4.646 1.936z"/><path id="_448766896" class="fil1" d="m4.647 1.936 3.786 3.786-3.786-3.786z"/><path id="_448766944" class="fil1" d="m4.647 1.936 3.786 3.787v.004L4.645 1.94z"/><path id="_448766848" class="fil1" d="m4.646 1.94 3.786 3.787-3.786-3.786z"/><path id="_448735096" class="fil1" d="m4.646 1.941 3.786 3.787v.004L4.644 1.945z"/><path id="_448734712" class="fil1" d="m4.645 1.945 3.786 3.787-3.786-3.786z"/><path id="_448734664" class="fil1" d="m4.645 1.946 3.786 3.786v.004L4.643 1.95z"/><path id="_448735072" class="fil1" d="M4.644 1.95 8.43 5.736 4.644 1.95z"/><path id="_448734760" class="fil1" d="M4.644 1.95 8.43 5.737v.003L4.643 1.954z"/><path id="_448735168" class="fil1" d="M4.643 1.954 8.43 5.74 4.642 1.956z"/><path id="_448734880" class="fil1" d="M4.893 2.134 8.679 5.92l.007.008.007.009.007.009-3.787-3.787-.006-.008-.007-.009z"/><path id="_448735192" class="fil1" d="M4.913 2.16 8.7 5.945l.005.007.004.007.004.006.004.007.004.007.003.007.003.007.002.006.003.007.002.007.003.006.002.007.002.007.001.006.002.007.002.007L4.96 2.268l-.002-.007-.002-.007-.002-.007-.002-.006-.002-.007-.002-.007-.002-.006-.003-.007-.003-.007-.002-.006-.004-.007-.003-.007-.004-.007-.004-.007-.005-.007z"/><path id="_448734904" class="fil1" d="m4.96 2.268 3.786 3.786.003.01.002.009.003.008.002.008.003.008.003.007.003.007.003.007.003.007.004.006.004.007.004.007.005.006.005.008.005.007.007.008-3.787-3.786-.006-.008-.006-.008-.005-.007-.004-.007-.005-.006-.004-.007-.003-.007-.004-.006-.003-.007-.003-.007-.002-.007-.003-.008-.002-.008-.003-.009-.003-.009z"/><path id="_448734544" class="fil1" d="m5.018 2.388 3.787 3.786.001.002.002.002.002.002.002.003.002.002.002.003.002.002.002.003-3.786-3.786-.002-.003-.002-.003-.002-.002-.002-.002-.002-.003-.002-.002-.002-.002z"/><path id="_448735360" class="fil1" d="M5.034 2.407 8.82 6.193l.002.002.001.003.002.002.001.002.002.002.001.002.002.003.001.002-3.786-3.786-.001-.003-.002-.002-.001-.002-.002-.002-.001-.003-.002-.002-.002-.002z"/><path id="_448735984" class="fil1" d="M5.046 2.425 8.832 6.21l.001.001-3.786-3.786z"/><path id="_448735696" class="fil1" d="m5.047 2.426 3.786 3.786v.001L5.048 2.427z"/><path id="_448735264" class="fil1" d="m5.047 2.427 3.787 3.786-3.786-3.786z"/><path id="_448735480" class="fil1" d="m5.048 2.427 3.786 3.786-3.786-3.786z"/><path id="_448735720" class="fil1" d="m5.048 2.427 3.786 3.787-3.786-3.786z"/><path id="_448735888" class="fil1" d="m5.048 2.428 3.787 3.787L5.05 2.43z"/><path id="_448735864" class="fil1" d="m5.049 2.429 3.786 3.786L5.05 2.43z"/><path id="_448735312" class="fil1" d="m5.05 2.43 3.785 3.786h.001L5.05 2.43z"/><path id="_448735432" class="fil1" d="m5.05 2.43 3.786 3.787L5.05 2.431z"/><path id="_448735576" class="fil1" d="m5.05 2.43 3.786 3.787v.001L5.052 2.432z"/><path id="_448736200" class="fil1" d="m5.05 2.432 3.787 3.786v.002L5.052 2.433z"/><path id="_448736752" class="fil1" d="M5.051 2.433 8.838 6.22 5.052 2.434z"/><path id="_448736632" class="fil1" d="M5.052 2.434 8.838 6.22 5.052 2.435z"/><path id="_448736248" class="fil1" d="m5.052 2.434 3.786 3.787-3.786-3.786z"/><path id="_448736560" class="fil1" d="M5.052 2.435 8.84 6.221v.001L5.053 2.436z"/><path id="_448736272" class="fil1" d="m5.053 2.436 3.786 3.786-3.786-3.785z"/><path id="_448736680" class="fil1" d="M5.053 2.437 8.84 6.223 5.054 2.437z"/><path id="_448736104" class="fil1" d="M5.054 2.437 8.84 6.223v.001L5.055 2.438z"/><path id="_448736128" class="fil1" d="m5.054 2.438 3.787 3.786-3.787-3.786z"/><path id="_448736176" class="fil1" d="m5.054 2.438 3.787 3.787L5.055 2.44z"/><path id="_448737208" class="fil1" d="m5.055 2.44 3.786 3.786L5.055 2.44z"/><path id="_448737256" class="fil1" d="m5.055 2.44 3.786 3.786.001.001-3.786-3.786z"/><path id="_448737040" class="fil1" d="m5.056 2.44 3.786 3.787-3.786-3.786z"/><path id="_448737136" class="fil1" d="m5.056 2.441 3.786 3.787-3.786-3.786z"/><path id="_448737424" class="fil1" d="m5.056 2.442 3.787 3.786v.001L5.057 2.443z"/><path id="_448736848" class="fil1" d="m5.057 2.443 3.786 3.786-3.786-3.786z"/><path id="_448737160" class="fil1" d="M5.057 2.443 8.843 6.23h.001L5.058 2.446z"/><path id="_448736920" class="fil1" d="M5.058 2.445 8.844 6.23 5.058 2.445z"/><path id="_448737304" class="fil1" d="M5.058 2.445 8.844 6.23v.001L5.059 2.446z"/><path id="_448736992" class="fil1" d="m5.058 2.446 3.787 3.786-3.786-3.786z"/><path id="_448737376" class="fil1" d="m5.059 2.446 3.786 3.786v.002L5.06 2.447z"/><path id="_448737616" class="fil1" d="m5.06 2.447 3.785 3.787L5.06 2.448z"/><path id="_448738000" class="fil1" d="m5.06 2.448 3.786 3.786L5.06 2.45z"/><path id="_448738120" class="fil1" d="m5.06 2.449 3.786 3.786L5.06 2.45z"/><path id="_448738168" class="fil1" d="m5.06 2.45 3.786 3.786L5.06 2.45z"/><path id="_448737592" class="fil1" d="m5.06 2.45 3.787 3.786v.001L5.061 2.451z"/><path id="_448737784" class="fil1" d="m5.061 2.45 3.786 3.787-3.786-3.786z"/><path id="_448737568" class="fil1" d="m5.061 2.451 3.786 3.786.001.002-3.786-3.787z"/><path id="_448737832" class="fil1" d="M5.062 2.452 8.848 6.24 5.062 2.453z"/><path id="_448737856" class="fil1" d="m5.062 2.453 3.786 3.786v.001L5.063 2.454z"/><path id="_448738096" class="fil1" d="M5.062 2.454 8.85 6.24 5.063 2.454z"/><path id="_448739032" class="fil1" d="M5.063 2.454 8.849 6.24v.001L5.063 2.455z"/><path id="_448738456" class="fil1" d="M5.063 2.455 8.85 6.241v.001L5.064 2.456z"/><path id="_448738648" class="fil1" d="M5.063 2.456 8.85 6.242 5.064 2.457z"/><path id="_448738816" class="fil1" d="M5.064 2.456 8.85 6.243 5.064 2.458z"/><path id="_448738672" class="fil1" d="M5.064 2.457 8.85 6.244 5.065 2.458z"/><path id="_448738864" class="fil1" d="m5.064 2.458 3.787 3.786v.001L5.065 2.46z"/><path id="_448738312" class="fil1" d="m5.065 2.46 3.786 3.785v.002L5.067 2.46z"/><path id="_448738696" class="fil1" d="m5.066 2.46 3.786 3.787-3.786-3.786z"/><path id="_448738528" class="fil1" d="m5.066 2.46 3.786 3.787v.001L5.066 2.462z"/><path id="_448738720" class="fil1" d="m5.066 2.462 3.786 3.786-3.786-3.786z"/><path id="_448739560" class="fil1" d="M5.066 2.462 8.854 6.25l.002.005-3.786-3.787z"/><path id="_448739272" class="fil1" d="m5.069 2.467 3.786 3.786-3.786-3.786z"/><path id="_448739704" class="fil1" d="m5.069 2.467 3.786 3.787L5.07 2.47z"/><path id="_448739128" class="fil1" d="m5.07 2.469 3.785 3.786L5.07 2.47z"/><path id="_448739392" class="fil1" d="m5.07 2.47 3.786 3.785v.001L5.07 2.47z"/><path id="_448739296" class="fil1" d="m5.07 2.47 3.786 3.786v.001L5.07 2.471z"/><path id="_448739320" class="fil1" d="m5.07 2.47 3.786 3.787L5.07 2.472z"/><path id="_448739680" class="fil1" d="m5.07 2.471 3.787 3.787-3.786-3.785z"/><path id="_448739488" class="fil1" d="m5.07 2.473 3.787 3.786v.001L5.072 2.474z"/><path id="_448739536" class="fil1" d="M5.071 2.474 8.858 6.26 5.072 2.474z"/><path id="_448739800" class="fil1" d="M5.072 2.474 8.858 6.26v.002L5.072 2.476z"/><path id="_448740376" class="fil1" d="m5.072 2.476 3.786 3.786v.001L5.074 2.477z"/><path id="_448739992" class="fil1" d="m5.073 2.477 3.786 3.786-3.786-3.785z"/><path id="_448740592" class="fil1" d="m5.073 2.478 3.786 3.786-3.786-3.786z"/><path id="_448739848" class="fil1" d="M5.073 2.478 8.86 6.265 5.075 2.48z"/><path id="_448739968" class="fil1" d="M5.074 2.48 8.86 6.265v.001L5.075 2.481z"/><path id="_448740064" class="fil1" d="m5.074 2.481 3.787 3.786v.002L5.075 2.482z"/><path id="_448740136" class="fil1" d="M5.075 2.482 8.86 6.27 5.075 2.483z"/><path id="_448740184" class="fil1" d="M5.075 2.483 8.86 6.269v.001L5.076 2.484z"/><path id="_448740208" class="fil1" d="M5.075 2.484 8.862 6.27 5.076 2.486z"/><path id="_448740448" class="fil1" d="M5.076 2.485 8.862 6.27 5.076 2.485z"/><path id="_448740808" class="fil1" d="m5.076 2.485 3.786 3.786v.002L5.076 2.486z"/><path id="_448741216" class="fil1" d="m5.076 2.486 3.786 3.787-3.786-3.786z"/><path id="_448740664" class="fil1" d="m5.076 2.487 3.787 3.786v.001L5.077 2.488z"/><path id="_448740688" class="fil1" d="m5.077 2.488 3.786 3.786-3.786-3.786z"/><path id="_448740832" class="fil1" d="m5.077 2.488 3.786 3.786v.002L5.078 2.489z"/><path id="_448740856" class="fil1" d="m5.077 2.49 3.787 3.786L5.077 2.49z"/><path id="_448741048" class="fil1" d="m5.077 2.49 3.787 3.786v.001L5.078 2.491z"/><path id="_448741360" class="fil1" d="m5.078 2.49 3.786 3.787-3.786-3.786z"/><path id="_448740640" class="fil1" d="m5.078 2.491 3.786 3.787-3.786-3.786z"/><path id="_448741168" class="fil1" d="M5.078 2.492 8.865 6.28 5.079 2.494z"/><path id="_448741144" class="fil1" d="M5.079 2.493 8.865 6.28 5.079 2.494z"/><path id="_448741816" class="fil1" d="M5.079 2.494 8.865 6.28v.001L5.08 2.495z"/><path id="_448741408" class="fil1" d="m5.08 2.495 3.785 3.786L5.08 2.495z"/><path id="_448741720" class="fil1" d="m5.08 2.495 3.785 3.786v.002L5.08 2.497z"/><path id="_448741744" class="fil1" d="m5.08 2.497 3.786 3.786L5.08 2.497z"/><path id="_448741768" class="fil1" d="m5.08 2.497 3.786 3.786v.001L5.08 2.498z"/><path id="_448741936" class="fil1" d="m5.08 2.498 3.786 3.786L5.08 2.5z"/><path id="_448741960" class="fil1" d="m5.08 2.499 3.787 3.786v.002L5.081 2.5z"/><path id="_448742008" class="fil1" d="m5.08 2.5 3.787 3.787-3.786-3.786z"/><path id="_448741912" class="fil1" d="m5.081 2.5 3.786 3.787v.001L5.082 2.502z"/><path id="_448741864" class="fil1" d="m5.081 2.502 3.787 3.786L5.08 2.503z"/><path id="_448742824" class="fil1" d="M5.082 2.502 8.867 6.29v.001L5.082 2.504z"/><path id="_448742392" class="fil1" d="M5.082 2.504 8.868 6.29 5.082 2.504z"/><path id="_448742728" class="fil1" d="M5.082 2.504 8.868 6.29v.001L5.083 2.505z"/><path id="_448742320" class="fil1" d="M5.082 2.505 8.87 6.291 5.082 2.507z"/><path id="_448742272" class="fil1" d="M5.082 2.506 8.87 6.292 5.083 2.508z"/><path id="_448742896" class="fil1" d="m5.083 2.507 3.786 3.786-3.786-3.786z"/><path id="_448742608" class="fil1" d="m5.083 2.507 3.786 3.787-3.786-3.786z"/><path id="_448742296" class="fil1" d="M5.083 2.508 8.87 6.294v.001L5.085 2.51z"/><path id="_448742416" class="fil1" d="M5.084 2.51 8.87 6.294 5.084 2.51z"/><path id="_448742632" class="fil1" d="M5.084 2.51 8.87 6.296v.001L5.084 2.511z"/><path id="_448742560" class="fil1" d="M5.084 2.511 8.87 6.297l.001.004-3.786-3.786z"/><path id="_448743520" class="fil1" d="m5.085 2.515 3.786 3.786-3.786-3.786z"/><path id="_448743664" class="fil1" d="m5.085 2.515 3.786 3.787v.001l.001.002v.005l.001.001v.004L5.088 2.528V2.52l-.001-.002v-.001z"/><path id="_448742944" class="fil1" d="m5.087 2.529 3.787 3.786L5.087 2.53z"/><path id="_448743256" class="fil1" d="m5.087 2.529 3.787 3.786v.005L5.088 2.533z"/><path id="_448743112" class="fil1" d="M5.088 2.533 8.874 6.32 5.088 2.534z"/><path id="_448742920" class="fil1" d="M5.088 2.534 8.874 6.32v.004L5.089 2.538z"/><path id="_448743544" class="fil1" d="m5.088 2.538 3.787 3.786v.001L5.088 2.54z"/><path id="_448743160" class="fil1" d="m5.088 2.539 3.787 3.786v.005L5.088 2.544z"/><path id="_448743592" class="fil1" d="M5.088 2.544 8.875 6.33 5.088 2.544z"/><path id="_448743208" class="fil1" d="M5.088 2.544 8.875 6.33V6.34L5.089 2.554V2.545z"/><path id="_448743088" class="fil1" d="M5.089 2.554 8.875 6.34 5.089 2.554z"/><path id="_448744288" class="fil1" d="M5.089 2.554 8.875 6.34V6.351L5.088 2.565V2.556z"/><path id="_448744432" class="fil1" d="m5.088 2.565 3.787 3.786-3.787-3.786z"/><path id="_448744264" class="fil1" d="m5.088 2.565 3.786 3.787v.005L5.088 2.571z"/><path id="_448744120" class="fil1" d="m5.088 2.57 3.786 3.787-3.786-3.786z"/><path id="_448744168" class="fil1" d="m5.088 2.571 3.786 3.786-3.786-3.786z"/><path id="_448743952" class="fil1" d="m5.088 2.571 3.786 3.786v.006L5.087 2.577z"/><path id="_448744072" class="fil1" d="m5.087 2.577 3.787 3.786-3.787-3.786z"/><path id="_448744336" class="fil1" d="m5.087 2.577 3.787 3.786-3.787-3.786z"/><path id="_448743832" class="fil1" d="m5.087 2.577 3.787 3.786v.006l-.001.003v.006l-.001.003v.003l-.001.003L5.085 2.6V2.592l.001-.003v-.006l.001-.003z"/><path id="_448743880" class="fil1" d="M5.085 2.6 8.87 6.388 5.085 2.6z"/><path id="_448744576" class="fil1" d="M5.085 2.6 8.87 6.388 5.084 2.602z"/><path id="_448744936" class="fil1" d="m5.084 2.601 3.787 3.787v.003l-.001.003v.003l-.001.003v.003l-.001.003v.003l-.002.003L5.08 2.626v-.003l.001-.004.001-.003v-.003l.001-.003v-.003l.001-.003z"/><path id="_448744480" class="fil1" d="m5.08 2.626 3.786 3.786v.003L5.08 2.63z"/><path id="_448745104" class="fil1" d="m5.08 2.63 3.786 3.786v.004l-.001.004-.001.004-.001.004-.001.004-.001.003-.001.004-.001.003L5.072 2.66l.001-.003.001-.004.001-.004.001-.003.001-.004.001-.004.001-.004z"/><path id="_448744624" class="fil1" d="M5.072 2.66 8.86 6.446l-.002.008-.002.008-.002.007-.003.008-.002.007-.002.008-.003.007-.002.007-.002.007-.003.007-.002.007-.003.007-.002.007-.003.006-.002.006-.003.006-3.786-3.786.002-.006.003-.006.002-.007.003-.006.002-.007.003-.007.002-.007.003-.007.002-.007.002-.007.003-.008.002-.007.002-.008.002-.007.002-.008z"/><path id="_448744912" class="fil1" d="M5.035 2.773 8.82 6.559 5.035 2.773z"/><path id="_448745032" class="fil1" d="M5.035 2.773 8.82 6.56v.001L5.034 2.774z"/><path id="_448745080" class="fil1" d="M5.034 2.774 8.821 6.56l-.001.002-3.786-3.787z"/><path id="_448744504" class="fil1" d="M5.034 2.776 8.82 6.562 5.033 2.776z"/><path id="_448744744" class="fil1" d="M5.033 2.776 8.82 6.562l-.001.002-3.787-3.786z"/><path id="_448744840" class="fil1" d="M5.032 2.778 8.82 6.564 5.032 2.78z"/><path id="_448745512" class="fil1" d="M5.032 2.779 8.82 6.565l-.001.002L5.03 2.781z"/><path id="_448745392" class="fil1" d="m5.031 2.78 3.787 3.787L5.03 2.782z"/><path id="_448745224" class="fil1" d="m5.031 2.781 3.786 3.787v.002L5.03 2.784z"/><path id="_448745248" class="fil1" d="M5.03 2.784 8.816 6.57v.001L5.03 2.785z"/><path id="_448745440" class="fil1" d="M5.03 2.785 8.816 6.57l-.001.002-3.786-3.786z"/><path id="_448745560" class="fil1" d="m5.029 2.787 3.786 3.786-3.787-3.786z"/><path id="_448745728" class="fil1" d="m5.028 2.787 3.787 3.787-3.787-3.786z"/><path id="_448745584" class="fil1" d="m5.028 2.788 3.786 3.787L5.027 2.79z"/><path id="_448745920" class="fil1" d="m5.027 2.79 3.787 3.785v.001L5.027 2.79z"/><path id="_448745656" class="fil1" d="m5.027 2.79 3.787 3.786-.001.001-3.786-3.786z"/><path id="_448746232" class="fil1" d="m5.027 2.79 3.786 3.787v.001L5.026 2.792z"/><path id="_448746328" class="fil1" d="m5.026 2.792 3.787 3.786-3.787-3.786z"/><path id="_448745992" class="fil1" d="m5.026 2.792 3.786 3.786v.002L5.026 2.793z"/><path id="_448746304" class="fil1" d="M5.026 2.793 8.812 6.58 5.024 2.794z"/><path id="_448746208" class="fil1" d="M5.025 2.794 8.811 6.58 5.025 2.795z"/><path id="_448746280" class="fil1" d="m5.025 2.794 3.786 3.787v.002L5.023 2.796z"/><path id="_448746688" class="fil1" d="M5.024 2.796 8.81 6.583 5.024 2.797z"/><path id="_448746016" class="fil1" d="M5.024 2.797 8.81 6.583v.002L5.022 2.8z"/><path id="_448746640" class="fil1" d="m5.023 2.799 3.786 3.786L5.023 2.8z"/><path id="_448746040" class="fil1" d="m5.023 2.799 3.786 3.786-.001.002-3.786-3.786z"/><path id="_448746088" class="fil1" d="m5.022 2.801 3.786 3.786-3.786-3.786z"/><path id="_448746904" class="fil1" d="m5.022 2.801 3.786 3.786-.001.002L5.02 2.803z"/><path id="_448746976" class="fil1" d="M5.02 2.803 8.808 6.59 5.02 2.804z"/><path id="_448747456" class="fil1" d="M5.02 2.803 8.808 6.59 5.02 2.805z"/><path id="_448746760" class="fil1" d="m5.02 2.804 3.786 3.787-3.787-3.786z"/><path id="_448747432" class="fil1" d="m5.02 2.805 3.786 3.787-3.787-3.786z"/><path id="_448747312" class="fil1" d="m5.019 2.806 3.786 3.787-3.787-3.786z"/><path id="_448747504" class="fil1" d="m5.018 2.807 3.787 3.787-3.787-3.786z"/><path id="_448747216" class="fil1" d="m5.018 2.808 3.786 3.786v.001L5.017 2.81z"/><path id="_448746856" class="fil1" d="m5.017 2.81 3.787 3.785L5.017 2.81z"/><path id="_448747240" class="fil1" d="m5.017 2.81 3.787 3.786-.001.001-3.787-3.786z"/><path id="_448748272" class="fil1" d="m5.016 2.811 3.787 3.786-3.787-3.786z"/><path id="_448748200" class="fil1" d="m5.016 2.811 3.786 3.786V6.6L5.014 2.813z"/><path id="_448747936" class="fil1" d="m5.015 2.813 3.786 3.786-3.786-3.786z"/><path id="_448747600" class="fil1" d="m5.015 2.813 3.786 3.786v.002L5.013 2.815z"/><path id="_448747864" class="fil1" d="M5.014 2.815 8.8 6.6 5.014 2.815z"/><path id="_448748248" class="fil1" d="M5.014 2.815 8.8 6.6 5.014 2.815z"/><path id="_448747528" class="fil1" d="M5.014 2.815 8.8 6.6v.001L5.012 2.816z"/><path id="_448748152" class="fil1" d="M5.013 2.816 8.8 6.602 5.013 2.817z"/><path id="_448747696" class="fil1" d="m5.013 2.816 3.786 3.787-3.786-3.786z"/><path id="_448747672" class="fil1" d="m5.013 2.817 3.786 3.786v.001L5.011 2.818z"/><path id="_448747792" class="fil1" d="m5.012 2.818 3.786 3.786-3.786-3.786z"/><path id="_448748704" class="fil1" d="m5.012 2.818 3.786 3.786-3.786-3.786z"/><path id="_448748656" class="fil1" d="m5.012 2.818 3.786 3.786v.002L5.01 2.82z"/><path id="_448748944" class="fil1" d="m5.011 2.82 3.786 3.786L5.011 2.82z"/><path id="_448748896" class="fil1" d="m5.01 2.82 3.787 3.786L5.01 2.822z"/><path id="_448748872" class="fil1" d="m5.01 2.82 3.787 3.787L5.01 2.821z"/><path id="_448748488" class="fil1" d="m5.01 2.821 3.786 3.786L5.01 2.822z"/><path id="_448748512" class="fil1" d="m5.01 2.821 3.786 3.787-.002.002-3.786-3.786z"/><path id="_448748992" class="fil1" d="M5.008 2.824 8.794 6.61 5.008 2.824z"/><path id="_448748368" class="fil1" d="M5.008 2.824 8.794 6.61 5.007 2.826z"/><path id="_448748824" class="fil1" d="M5.007 2.825 8.794 6.61 5.006 2.825z"/><path id="_448748848" class="fil1" d="M5.007 2.825 8.793 6.61 5.007 2.825z"/><path id="_448749304" class="fil1" d="M5.007 2.825 8.793 6.61l-.001.002-3.787-3.786z"/><path id="_448749232" class="fil1" d="m5.005 2.827 3.787 3.786-3.787-3.786z"/><path id="_448749424" class="fil1" d="m5.005 2.827 3.787 3.786-.001.001-3.786-3.786z"/><path id="_448749280" class="fil1" d="M5.005 2.828 8.79 6.614 5.005 2.828z"/><path id="_448749616" class="fil1" d="M5.005 2.828 8.79 6.614 5.003 2.829z"/><path id="_448749064" class="fil1" d="M5.004 2.828 8.79 6.615 5.004 2.829z"/><path id="_448749448" class="fil1" d="M5.004 2.829 8.79 6.615 5.004 2.829z"/><path id="_448749544" class="fil1" d="M5.004 2.829 8.79 6.615 5.002 2.83z"/><path id="_448749496" class="fil1" d="M5.003 2.83 8.79 6.614 5.003 2.83z"/><path id="_448749136" class="fil1" d="m5.003 2.83 3.786 3.786-3.786-3.787z"/><path id="_448750024" class="fil1" d="m5.003 2.83 3.786 3.786L5.001 2.83z"/><path id="_448750456" class="fil1" d="m5.002 2.83 3.786 3.786-.003.003-.004.003-.004.002-.004.003-.004.002-.004.003-.004.002-.005.002-.004.002-.004.002-.005.002-.004.002-.005.002-.005.002-.004.001-.005.002-3.786-3.787.004-.001.005-.002.005-.001.004-.002.005-.002.004-.002.005-.002.004-.002.004-.002.005-.003.004-.002.004-.002.004-.003.004-.003.003-.002z"/><path id="_448749880" class="fil1" d="M4.934 2.864 8.72 6.651l-.008.003-.008.003-.008.003-.008.002-.007.003-.007.003-.007.002-.007.002-.007.003-.007.002-.007.002-.006.002-.006.002-.007.002-.006.001-.006.002-3.786-3.786.006-.002.006-.002.006-.002.007-.002.006-.002.007-.002.006-.002.007-.002.007-.002.007-.003.008-.002.007-.003.008-.003.008-.003.007-.003z"/><path id="_448750144" class="fil1" d="m4.822 2.902 3.786 3.786-.008.003-.008.002-.008.003-.008.002-.007.002-.007.003-.007.002-.006.003-.006.002-.005.003-.006.002-.005.003-.004.003-.005.003-.004.004-.003.003-3.786-3.786.003-.003.004-.004.004-.003.005-.003.005-.003.005-.003.006-.002.006-.003.006-.002.007-.003.007-.002.007-.002.008-.003.007-.002.009-.003z"/><path id="_448750048" class="fil1" d="M4.725 2.945 8.51 6.731l-.012.015-.008.015-.006.015-.004.016-.001.017v.018l.003.018.004.019.004.02.006.02.007.022.007.023.007.024.007.025.006.026.006.027.006.028.004.03.003.031.001.033v.034l-.003.035-.005.037-.007.039-.01.04-.013.042-.017.044-.02.045-.024.047-.028.05-.032.05-.037.053-3.786-3.786.036-.053.033-.05.028-.05.024-.047.02-.046.016-.043.014-.042.01-.04.007-.039.005-.037.002-.035v-.067l-.003-.031-.005-.03-.005-.028-.006-.028-.007-.026-.007-.025-.007-.023-.007-.023-.006-.022-.006-.02-.005-.02-.003-.02-.003-.018v-.017l.001-.017.004-.016.006-.016.008-.014z"/><path id="_448750072" class="fil1" d="M4.569 3.903 8.355 7.69l-.006.01-.006.008-.005.009-.006.008-.005.009-.005.009-.005.008-.005.009-.005.008-.005.009-.005.008-.005.009-.004.008-.005.008-.005.009-.004.008-.005.008-.004.008-.005.008-.004.009-.005.007-.004.008-.004.008-.005.008-.004.008-.005.008-.004.007-.005.008-.004.007-.005.007-.004.008-.005.007-3.786-3.786.004-.008.005-.007.004-.007.005-.008.005-.007.004-.008.004-.007.005-.008.004-.008.005-.008.004-.008.005-.008.004-.008.005-.008.004-.008.005-.008.004-.009.005-.008.004-.008.005-.009.005-.008.005-.009.004-.008.005-.009.005-.008.006-.009.005-.008.005-.009.006-.009.005-.008.006-.01z"/><path id="_448750432" class="fil1" d="M4.416 4.164 8.202 7.95v.001l-.001.002v.001l-.001.001h-.001v.001l-.002.001L4.41 4.172h.002V4.17l.001-.001.001-.001v-.001l.001-.002z"/><path id="_448750288" class="fil1" d="m4.41 4.171 3.787 3.787-.001.001-.001.002-.001.001-.001.002-.001.001-.001.002-.002.001v.002L4.401 4.183l.001-.001.001-.002.001-.001.001-.002.001-.001.001-.002.001-.001z"/><path id="_448750384" class="fil1" d="M4.402 4.183 8.188 7.97l.001.002-3.786-3.786z"/><path id="_448750528" class="fil1" d="M4.403 4.186 8.19 7.972l.001.002-3.786-3.786z"/><path id="_448750168" class="fil1" d="M4.404 4.188 8.19 7.974l.001.003L4.405 4.19z"/><path id="_448750744" class="fil1" d="m4.405 4.19 3.786 3.787.001.002-3.786-3.786z"/><path id="_448751344" class="fil1" d="m4.406 4.193 3.786 3.786.001.003-3.786-3.786z"/><path id="_448750600" class="fil1" d="m4.407 4.196 3.786 3.786.001.003-3.786-3.787z"/><path id="_448750720" class="fil1" d="m4.408 4.198 3.786 3.787.001.003L4.41 4.2z"/><path id="_448750816" class="fil1" d="m4.41 4.201 3.785 3.787.001.003L4.41 4.204z"/><path id="_448750888" class="fil1" d="m4.41 4.204 3.786 3.787.001.003-3.786-3.786z"/><path id="_448750960" class="fil1" d="m4.41 4.208 3.787 3.786.001.003-3.786-3.786z"/><path id="_448751032" class="fil1" d="m4.412 4.21 3.786 3.787L8.2 8 4.413 4.214z"/><path id="_448751128" class="fil1" d="M4.413 4.214 8.199 8v.004L4.415 4.218z"/><path id="_448751272" class="fil1" d="M4.414 4.218 8.2 8.004v.003L4.415 4.221z"/><path id="_448751968" class="fil1" d="m4.414 4.221 3.787 3.786v.004L4.416 4.225z"/><path id="_448751416" class="fil1" d="M4.415 4.225 8.202 8.01v.004L4.416 4.229z"/><path id="_448751440" class="fil1" d="m4.416 4.229 3.786 3.786.001.004-3.786-3.787z"/><path id="_448751560" class="fil1" d="M4.417 4.232 8.203 8.02l.001.004-3.786-3.787z"/><path id="_448751584" class="fil1" d="m4.418 4.236 3.786 3.787v.004L4.42 4.24z"/><path id="_448751872" class="fil1" d="m4.419 4.24 3.786 3.787v.004L4.42 4.244z"/><path id="_448752064" class="fil1" d="m4.42 4.244 3.786 3.787v.004L4.42 4.249z"/><path id="_448752112" class="fil1" d="m4.42 4.249 3.787 3.786v.004L4.421 4.253z"/><path id="_448751392" class="fil1" d="m4.421 4.253 3.786 3.786.001.004-3.786-3.786z"/><path id="_448751656" class="fil1" d="m4.422 4.257 3.786 3.786v.005L4.424 4.26z"/><path id="_448752568" class="fil1" d="m4.423 4.261 3.786 3.787v.004L4.424 4.266z"/><path id="_448752160" class="fil1" d="M4.423 4.266 8.21 8.052v.005L4.425 4.27z"/><path id="_448752472" class="fil1" d="m4.424 4.27 3.787 3.787v.004L4.425 4.275z"/><path id="_448752496" class="fil1" d="m4.425 4.275 3.786 3.786.001.005L4.426 4.28z"/><path id="_448752520" class="fil1" d="m4.426 4.28 3.786 3.786v.005L4.428 4.284z"/><path id="_448752688" class="fil1" d="m4.427 4.284 3.786 3.787v.004L4.428 4.29z"/><path id="_448752712" class="fil1" d="m4.427 4.289 3.787 3.786v.005L4.428 4.294z"/><path id="_448752760" class="fil1" d="M4.428 4.294 8.214 8.08l.001.005L4.43 4.299z"/><path id="_448752784" class="fil1" d="m4.429 4.299 3.786 3.786.001.005L4.43 4.303z"/><path id="_448752616" class="fil1" d="M4.43 4.303 8.216 8.09v.005L4.432 4.308z"/><path id="_448752328" class="fil1" d="m4.43 4.308 3.787 3.787V8.1L4.432 4.313z"/><path id="_448753144" class="fil1" d="M4.431 4.313 8.218 8.1v.005L4.432 4.318z"/><path id="_448753480" class="fil1" d="m4.432 4.318 3.786 3.787.001.005-3.786-3.787z"/><path id="_448753072" class="fil1" d="M4.433 4.323 8.219 8.11l.001.005-3.786-3.787z"/><path id="_448753024" class="fil1" d="M4.434 4.328 8.22 8.115v.005L4.436 4.333z"/><path id="_448753648" class="fil1" d="M4.435 4.333 8.22 8.12v.005L4.436 4.338z"/><path id="_448753360" class="fil1" d="m4.435 4.338 3.787 3.787v.005L4.436 4.344z"/><path id="_448753120" class="fil1" d="M4.436 4.344 8.222 8.13l.001.005-3.786-3.786z"/><path id="_448753168" class="fil1" d="m4.437 4.349 3.786 3.786.001.005-3.786-3.786z"/><path id="_448753384" class="fil1" d="M4.438 4.354 8.224 8.14l.001.005L4.439 4.36z"/><path id="_448753216" class="fil1" d="m4.439 4.359 3.786 3.786v.005L4.44 4.364z"/><path id="_448754272" class="fil1" d="M4.44 4.364 8.226 8.15v.006L4.44 4.369z"/><path id="_448754416" class="fil1" d="m4.44 4.37 3.787 3.786v.005L4.442 4.374z"/><path id="_448753696" class="fil1" d="m4.441 4.374 3.787 3.787v.005L4.443 4.38z"/><path id="_448754008" class="fil1" d="M4.442 4.38 8.23 8.166v.005L4.443 4.385z"/><path id="_448753864" class="fil1" d="M4.443 4.385 8.23 8.17l.001.005L4.444 4.39z"/><path id="_448753672" class="fil1" d="M4.444 4.39 8.23 8.176l.001.005-3.786-3.786z"/><path id="_448754296" class="fil1" d="m4.445 4.395 3.786 3.786.001.006L4.446 4.4z"/><path id="_448753912" class="fil1" d="m4.446 4.4 3.786 3.787.001.005-3.786-3.787z"/><path id="_448754344" class="fil1" d="m4.447 4.405 3.786 3.787.001.005L4.448 4.41z"/><path id="_448753960" class="fil1" d="m4.448 4.41 3.786 3.787.001.005L4.45 4.416z"/><path id="_448753816" class="fil1" d="m4.449 4.416 3.786 3.786.001.005L4.45 4.421z"/><path id="_448755040" class="fil1" d="m4.45 4.42 3.786 3.787.001.005-3.786-3.786z"/><path id="_448755184" class="fil1" d="m4.451 4.426 3.786 3.786.001.005-3.786-3.786z"/><path id="_448755016" class="fil1" d="m4.452 4.43 3.786 3.787.001.005-3.786-3.786z"/><path id="_448754872" class="fil1" d="M4.453 4.436 8.24 8.222l.001.005-3.786-3.786z"/><path id="_448754920" class="fil1" d="M4.454 4.44 8.24 8.228l.002.005-3.787-3.786z"/><path id="_448754704" class="fil1" d="m4.455 4.446 3.787 3.786v.005L4.457 4.45z"/><path id="_448754824" class="fil1" d="m4.456 4.45 3.787 3.787v.005L4.459 4.455z"/><path id="_448755088" class="fil1" d="m4.458 4.455 3.786 3.787.001.005L4.46 4.46z"/><path id="_448754584" class="fil1" d="m4.459 4.46 3.786 3.787.001.004L4.46 4.465z"/><path id="_448754968" class="fil1" d="m2.48 2.562 3.787 3.786.009.008.008.01.008.008.008.01.007.009.007.01.008.01.007.01.006.01.007.012.006.01.006.012.005.012.006.011.005.013.004.012.005.012.004.013.004.013.003.014.004.013.003.014.002.014-3.786-3.786-.003-.014-.003-.014-.003-.014-.003-.013-.004-.013-.004-.013-.005-.012-.005-.013-.005-.012-.005-.012-.006-.011-.006-.012-.006-.01-.006-.012-.007-.01-.007-.01-.007-.01-.007-.01-.008-.01-.008-.01-.008-.008-.008-.009z"/><path id="_448754680" class="fil1" d="m4.46 4.465 3.786 3.786.002.007.002.007.002.006.001.007.002.006.002.007.001.006.002.006.002.006.002.006.001.006.002.005.002.006.001.005.002.005.002.005.001.005.002.004.001.005.002.004.001.004.002.004.001.004.002.003.001.003.002.003v.003l.002.002.002.002v.002l.002.002.001.001L4.51 4.612l-.001-.001-.002-.002v-.002l-.002-.002-.001-.003-.002-.002-.001-.003-.001-.003-.002-.004-.001-.003-.002-.004-.001-.004-.002-.004-.001-.005-.002-.004-.002-.005-.001-.005-.002-.005-.002-.006-.001-.005-.002-.006-.002-.005-.001-.006-.002-.006-.002-.006-.002-.007-.001-.006-.002-.006-.002-.007-.002-.007-.001-.006z"/><path id="_448755688" class="fil1" d="m4.676 4.749 3.787 3.786v.019l.001.008v.008l.001.008v.009l.001.008v.026l-.001.008-.002.008-.002.008-.002.007-.003.007-3.787-3.787.004-.006.002-.007.002-.008.001-.008.001-.008v-.009l.001-.008v-.026l-.001-.008-.001-.008v-.008l-.001-.007v-.006z"/><path id="_448755232" class="fil1" d="m2.113 2.514 3.786 3.787-.008.001-.009.002-.008.002-.008.002-.008.002-.009.003-.008.003-.008.003-.008.003-.008.004-.007.003-.008.004-.008.004-.007.005-.008.004-.007.005-.008.005-.007.006-.007.005-.007.006-.007.006-.006.006-.007.006-.007.007-.006.007-.006.007-.006.007-.006.008-.006.008-.005.008-.006.008-.005.009-3.786-3.787.005-.008.005-.008.006-.008.006-.008.006-.008.006-.007.006-.007.006-.007.007-.007.006-.006.007-.006.007-.006.007-.006.007-.006.007-.005.007-.005.008-.005L2 2.556l.008-.005.007-.004.008-.004.008-.004.008-.003.008-.003.008-.003.008-.003.008-.003.009-.002.008-.002.008-.002.009-.002z"/><path id="_448755856" class="fil1" d="M1.884 2.673 5.67 6.46l-.003.004-.003.005-.003.005-.002.005-.003.006-.003.005-.002.005-.003.006-.002.005-.002.006-.003.005-.002.006-.002.006-.003.006-.002.006-.002.006-.002.006-.002.006-.002.006-.001.007-.002.006-.002.006-.001.007-.002.007-.002.007-.001.006-.001.007-.002.007v.007l-.002.008-.001.007-.001.007L1.82 2.868V2.86l.002-.008v-.007l.002-.007.001-.007.002-.007.001-.007.002-.007.001-.006.002-.007.002-.006.001-.007.002-.006.002-.006.002-.007.002-.006.002-.006.002-.006.002-.006.003-.005.002-.006.002-.006.003-.005.002-.006.003-.005.002-.005.003-.006.002-.005.003-.005.003-.005.003-.005z"/><path id="_448755328" class="fil1" d="m1.82 2.868 3.786 3.786v.007l-.002.007v.007l-.001.007v.007l-.001.007v.007L5.6 6.71v.03l-.001.008v.039l.001.008v.008l.001.009v.008l.001.008.001.009.001.008.001.009.001.008.001.01.001.008.001.009.002.009.001.009L1.827 3.12l-.001-.009-.002-.009-.001-.008-.001-.01-.001-.008-.001-.009-.001-.008-.001-.009v-.008l-.001-.008-.001-.009v-.008l-.001-.008v-.016l-.001-.008v-.061l.001-.007V2.91l.001-.007v-.008l.001-.007.001-.006v-.007z"/><path id="_448755664" class="fil1" d="m1.827 3.12 3.786 3.787v.015l-.002.003v.004l-.003.003-.002.003-.002.003-.002.002-.003.003-.003.002-.003.002-.004.001-.003.001-.004.001-3.787-3.786.004-.001.004-.001.003-.002.004-.002.003-.002.002-.002.003-.003.002-.002.002-.003.002-.004.001-.003.001-.004.001-.003v-.008z"/><path id="_448755784" class="fil1" d="M1.795 3.164 5.582 6.95h-.015l-.004-.002-.003-.001-.003-.002-.003-.002-.003-.002-3.787-3.786.003.002.003.002.004.002.003.001.003.001h.004l.004.001h.004z"/><path id="_448755832" class="fil1" d="m2.613 2.822 3.786 3.786.005.036.004.037.001.036v.037l-.002.037-.004.037-.005.037-.006.037-.008.037-.01.038-.01.037-.012.037-.013.037-.013.038-.015.037-.016.037-.017.038-.018.037-.018.037-.02.037-.02.037-.02.037-.02.037-.022.036-.021.037-.022.036-.022.036-.023.036-.022.036-.022.035-.023.036-.022.035-3.786-3.786.022-.035.022-.036.023-.035.022-.036.022-.036.023-.036.022-.037.021-.036.021-.037.021-.036.02-.037.02-.037.02-.037.018-.037.017-.038.017-.037.016-.037.015-.037.014-.038.013-.037.012-.037.01-.038.01-.037.008-.037.006-.037.005-.037.004-.037.002-.037V2.93l-.002-.037-.003-.036z"/><path id="_448755256" class="fil1" d="m4.176 4.386 3.786 3.786-3.786-3.786z"/><path id="_448755496" class="fil1" d="m4.176 4.386 3.786 3.786-3.786-3.786z"/><path id="_448755592" class="fil1" d="m4.176 4.386 3.786 3.786-3.786-3.786z"/><path id="_448756264" class="fil1" d="m4.176 4.386 3.786 3.786-3.786-3.787z"/><path id="_448756144" class="fil1" d="m4.136 4.406 3.787 3.786v.005l.001.001V8.2h.001l.001.002L4.14 4.416v-.001l-.001-.002-.001-.002V4.41l-.001-.002z"/><path id="_448756432" class="fil1" d="m4.176 4.385 3.786 3.787-.006.004-.005.004-.005.003-.005.003-.004.003-.005.003-.003.002-.004.001L4.14 4.41l.003-.002.004-.002.004-.002.005-.003.005-.003.005-.004.005-.003z"/><path id="_448756720" class="fil1" d="m4.14 4.416 3.786 3.786.003.004.003.005.002.004.003.005.003.005.002.004.003.005.003.005.002.005.003.005.003.005.002.005.003.005.003.005.003.005.002.006.003.005.003.005.002.006.003.005.003.006.002.005.003.006.003.005.002.006.003.006L8 8.34l.003.006.002.006.003.005.003.006.003.006-3.787-3.786-.002-.006-.003-.006-.003-.006-.003-.005-.002-.006-.003-.006-.003-.005-.002-.006-.003-.005-.003-.006-.003-.006-.002-.005-.003-.005-.003-.006-.002-.005-.003-.006-.003-.005-.002-.005-.003-.005-.003-.005-.002-.005-.003-.005-.003-.005-.003-.005-.002-.005-.003-.005-.003-.005-.002-.004-.003-.005-.003-.004-.002-.005z"/><path id="_448756216" class="fil1" d="m4.226 4.583 3.787 3.786.007.017.008.017.007.017.008.017.007.017.007.017.007.018.007.017.007.017.007.017.007.017.007.016.007.016.008.016.007.016.008.015.008.015.008.014.01.014.008.013.01.012.01.012.01.011-3.787-3.786-.01-.011-.01-.012-.009-.013-.01-.013-.008-.013-.008-.015-.008-.014-.008-.015-.008-.016-.007-.016-.007-.016-.008-.017-.007-.016-.007-.017-.007-.018-.007-.017-.006-.017-.008-.017-.007-.018-.007-.017-.007-.017-.008-.017z"/><path id="_448756192" class="fil1" d="m4.177 4.386 3.786 3.787-3.786-3.787z"/><path id="_448756336" class="fil1" d="M4.524 5.002 8.31 8.788l.002.002.001.002.002.002v.001l.002.002.001.002.001.002.001.002-3.786-3.787-.001-.002-.001-.001-.001-.002-.001-.002-.002-.002-.001-.001-.002-.002z"/><path id="_448756288" class="fil1" d="M6.642 7.189zM2.856 3.403z"/><path id="_448756528" class="fil1" d="m4.54 5.104 3.786 3.787-.001.005-.002.005-.002.005-.002.006-.002.005-.003.004-.003.005-.003.005-.003.004-.003.004-.004.004-.004.004-.004.004-.004.003-.005.003-.005.003L4.49 5.173l.005-.002.004-.003.005-.004.004-.003.004-.004.003-.004.004-.004.003-.005.003-.004.003-.005.002-.005.003-.005.002-.005.002-.005.001-.005z"/><path id="_448756000" class="fil1" d="M4.49 5.173 8.276 8.96l-.003.001-.003.002-.003.001-.003.001-.002.001H8.26l-.003.002h-.01l-.004.001h-.005l-.006.001h-.006l-.008.002h-.01L4.424 5.186h.009l.007-.001.007-.001h.006l.005-.001h.008l.003-.001h.003l.002-.001.003-.001.002-.001.003-.001.002-.001.003-.002z"/><path id="_448756504" class="fil1" d="M3.73 4.604 7.517 8.39v.001L3.73 4.605z"/><path id="_448757224" class="fil1" d="M3.73 4.605 7.518 8.39l-.025.02-3.786-3.786z"/><path id="_448756768" class="fil1" d="m4.423 5.186 3.786 3.786-.005.001h-.011l-.006.001h-.074l-.004-.001h-.01l-.004-.001H8.086l-.004-.001h-.007L8.07 8.97h-.007l-.003-.001h-.003L4.272 5.182h.006l.003.001h.007l.004.001H4.3l.004.001h.005l.004.001H4.327l.005.001h.015l.005.001H4.412l.005-.001z"/><path id="_448756744" class="fil1" d="m3.706 4.625 3.786 3.786-.004.005-.005.004-.005.005-.006.005-.005.006-.007.005-.006.006-.006.006-.007.006-.007.006-.007.006-.008.006-.007.006-.008.006-.008.006-.008.006-.008.006-.008.006-.008.005-.008.005-.009.006-.008.004-.008.005-.009.004-.008.005-.008.003-.008.004-.008.002-.008.003-.008.002-.008.002H7.26L3.472 4.778h.008l.008-.002.008-.002.008-.003.008-.003.008-.003.008-.004.008-.004.009-.004.008-.005.008-.005.008-.005.009-.005.008-.006.008-.005.008-.006.008-.006.008-.006.007-.006.008-.006.007-.006.007-.006.007-.006.007-.006.007-.006.006-.006.006-.005.006-.006.006-.005.005-.005.005-.004z"/><path id="_448756864" class="fil1" d="M4.272 5.182 8.058 8.97l-.01-.002-.012-.003-.011-.004-.012-.005L8 8.949l-.012-.008-.013-.008-.012-.009-.013-.01-.013-.01-.013-.012-.014-.013-3.786-3.786.013.012.014.012.012.01.013.01.013.01.012.008.013.007.012.006.011.006.012.004.011.003z"/><path id="_448757032" class="fil1" d="M3.485 4.787 7.27 8.573l.005.006.004.006.003.007.003.007.002.008.002.008.002.009.001.008.002.01v.008l.002.01.002.009.002.01.002.008.003.01.003.008.005.009.005.008.005.008.007.008-3.786-3.786-.007-.008-.006-.008-.005-.008-.004-.01-.003-.008-.003-.009-.002-.01-.002-.008-.002-.01-.001-.009-.002-.01-.001-.008-.001-.009-.002-.008-.002-.008-.002-.008-.003-.007-.003-.007-.004-.007z"/><path id="_448757272" class="fil1" d="M3.835 5.034 7.621 8.82l.005.005.005.005.005.006.005.006.005.007.005.007.005.008-3.787-3.787-.004-.007-.005-.007-.005-.007-.005-.006-.005-.006-.005-.005z"/><path id="_448757200" class="fil1" d="m3.87 5.077 3.786 3.787.004.01L3.874 5.09z"/><path id="_448757248" class="fil1" d="M3.874 5.089 7.66 8.875l.002.008v.007l.001.008v.022l-.001.007-.001.007-.002.007-.002.007-.002.006-.003.007-.003.006-.003.007-.004.006-.004.006-3.786-3.787.004-.006.003-.006.004-.006.003-.006.002-.007.003-.006.002-.007.001-.007.002-.007v-.007l.001-.008v-.022l-.002-.008z"/><path id="_448757152" class="fil1" d="m3.852 5.2 3.786 3.786-.004.006-.005.006-.005.006-.005.005-.005.005-.006.006-.006.005-.006.004-.007.005-.006.004-.007.004-.007.004-.007.004-.007.003-.007.004-.007.002-3.787-3.786.008-.003.007-.003.007-.003.007-.004.007-.004.007-.004.006-.004.006-.005.007-.005.006-.005.005-.005.006-.005.005-.006.005-.005.005-.006z"/><path id="_448757392" class="fil1" d="M3.754 5.273 7.541 9.06h-.007l-.003.001h-.004l-.005.001h-.01l-.006.001h-.021l-.008.001H7.45l-.01.001H7.365l-.012.001h-.091L3.475 5.28H3.623l.012-.001h.047l.009-.001h.015l.007-.001H3.731l.005-.001h.005l.004-.001h.006l.002-.001z"/><path id="_448757896" class="fil1" d="m3.475 5.28 3.787 3.786h-.295l-.02-.001h-.091l-.016-.001H6.785l-.012-.001h-.039l-.004-.001-3.786-3.786H2.998l.013.001h.059l.016.001h.094l.02.001H3.413l.021.001h.02z"/><path id="_448757584" class="fil1" d="M2.627 4.964 6.413 8.75l-.004.004-.004.003-.004.004-.004.003-.004.004-.005.003-.004.003-.005.003-3.786-3.786.005-.003.004-.003.004-.004.005-.003.004-.003.004-.004.004-.003z"/><path id="_448757824" class="fil1" d="M2.593 4.991 6.38 8.777l-.007.006-.007.005-.008.005-.008.004-.008.005-.008.005-.008.004-.009.005-.008.004-.009.004-.009.004-.009.004-.009.004-.01.003-.009.004-.009.003-.01.003-.01.003-.009.003-.01.003-.01.002-.01.003-.01.002-.01.002-.01.002-.01.002-.011.002-.01.001-.011.001-.01.002h-.011l-.011.001-3.786-3.786h.01l.01-.002h.011l.011-.002.01-.002.01-.001.011-.002.01-.002.01-.002.01-.002.01-.003.01-.002.01-.003.01-.003.01-.003.01-.003.01-.004.009-.003.009-.004.009-.004.009-.003.009-.004.009-.004.008-.005.009-.004.008-.005.008-.004.008-.005.008-.005.007-.005.008-.005z"/><path id="_448758256" class="fil1" d="M2.944 5.276 6.73 9.062H6.72l-.012-.002-.01-.001-.011-.002-.011-.003-.01-.002-.01-.004-.01-.003-.01-.004-.01-.004-.01-.004-.008-.005-.01-.005-.008-.006-.009-.005-.008-.006-.008-.007-.008-.006L2.77 5.207l.008.006.008.006.008.006.009.006.008.005.01.006.008.004.01.005.01.004.009.004.01.003.01.003.01.003.011.002.011.002.011.002.012.001z"/><path id="_448757632" class="fil1" d="M2.295 5.092 6.08 8.878h-.01l-.012.001H6.005l-.01-.002h-.012l-.01-.002-.011-.001-.011-.002-.011-.002-.01-.002-.012-.002-.01-.002-.011-.003-.01-.003-.011-.003-.011-.003-.01-.004-.011-.004-.01-.004-.011-.004-.01-.005-.01-.005-.01-.005-.01-.005-.01-.006-.01-.006-.01-.006-.01-.006-3.786-3.786.01.006.009.006.01.006.01.005.01.006.01.005.01.005.01.004.011.005.01.004.011.004.01.003.011.004.01.003.012.003.01.002.011.003.01.002.012.002.01.002.011.002.011.001.011.001.011.001.011.001h.022l.01.001h.032z"/><path id="_448757608" class="fil1" d="m1.957 5.006 3.786 3.786-.009-.006-.008-.006-.009-.007-.008-.006L5.7 8.76 1.914 4.974l.009.006.008.007.008.006.009.007z"/><path id="_448757776" class="fil1" d="M4.643 4.669 8.43 8.455l.004.004.003.004.004.005.003.005.003.004.003.005.002.006.003.005.002.006.001.005.002.006v.006l.002.006V8.535L4.677 4.75V4.736l-.002-.006v-.006l-.002-.006-.002-.006-.002-.005-.002-.006-.002-.005-.003-.005-.003-.005-.003-.004-.004-.005-.004-.004z"/><path id="_448757968" class="fil1" d="M4.534 5.016 8.32 8.803l.002.004.002.005.001.005.002.005v.006l.002.005v.012l.001.005v.024l-.002.005v.006l-.002.006L4.54 5.104 4.54 5.1l.001-.006v-.006l.001-.005v-.035l-.002-.005v-.006l-.002-.005-.002-.005-.001-.005z"/><path id="_448758208" class="fil1" d="m4.177 4.386 3.786 3.786-3.787-3.786z"/><path id="_448758040" class="fil1" d="m4.176 4.386 3.787 3.786-3.787-3.786z"/><path id="_448757848" class="fil1" d="m4.176 4.386 3.787 3.786-3.787-3.786z"/><path id="_448758424" class="fil1" d="m4.176 4.386 3.787 3.786-3.787-3.786z"/><path id="_448758280" class="fil1" d="m4.176 4.386 3.786 3.786-3.786-3.786z"/><path id="_448758928" class="fil1" d="M4.67 4.872 8.455 8.66l-.004.005-.004.006-.004.005-.005.004-.004.004-.006.004-.005.004-.006.003-.006.002-.006.003-.007.002-.006.002-.007.001-.007.001-.007.001h-.035l-.007-.002-.007-.001-.007-.002L8.31 8.7l-.007-.002-.006-.003-.006-.002-.006-.003-.005-.004-.005-.003-.005-.004-.005-.004-.005-.006-3.787-3.786.006.006.005.004.004.003.006.004.005.003.006.003.006.003.006.003.007.002.006.002.007.002h.007l.007.002h.007l.007.001h.021l.007-.001.007-.001.006-.001.007-.002.006-.002.007-.003.006-.003.005-.003.006-.003.005-.004.005-.004.005-.005.004-.005.004-.005z"/><path id="_637666960" class="fil1" d="M2.856 3.403zm.321-.341zm.58-.36zm.165-.287zm.772-.838zm.001.002zm.001.002zm0 .003zm.355.848zm.014.027zm.01.022zm.012.096zm-.007.049zm-.06.18zm-.002.001zm-.015.022zM4.405 4.19zm.002.006zm.003.008zm.005.02zm.002.008zm0 .004zm.003.013zM2.397 2.497a.46.46 0 0 1 .216.325c.065.386-.199.802-.436 1.175-.221.347-.418.656-.284.842a.42.42 0 0 0 .106.104c.088.059.192.08.291.073.1-.006.193-.039.259-.086a.277.277 0 0 0 .055-.052 1.396 1.396 0 0 1-.03-.252V4.567c.002-.21.019-.425.065-.63v-.004l.001-.001V3.93l.001-.002v-.003l.001-.001.001-.005v-.002l.001-.001v-.003l.002-.008v-.001h.001V3.9l.003-.008V3.89a1.585 1.585 0 0 1 .206-.488c.066-.102.147-.196.244-.28h.002v-.001h.001V3.12h.001l.014-.012.013-.01.002-.002.01-.009h.002l.002-.003.01-.008h.001l.002-.002.01-.008h.002l.002-.003h.001l.002-.002c.259-.196.432-.213.568-.347l.003-.003.005-.005.005-.004v-.001a.596.596 0 0 0 .086-.117.777.777 0 0 0 .006-.012l.005-.008v-.001a1.014 1.014 0 0 0 .065-.143v-.003h.001v-.002l.001-.001v-.002h.001V2.41l.001-.001v-.002h.001v-.002l.001-.001v-.002h.001V2.4l.001-.001v-.002h.001v-.002c.04-.1.08-.202.125-.291l.008-.02.002-.001v.001c.053-.1.115-.18.195-.216a.908.908 0 0 1 .092-.172c.032-.046.068-.09.108-.136.016-.018.033-.019.05-.004.008.009.013.055.014.115h.001l.002-.002.002-.002v-.001l.002-.001v-.001l.002-.001.001-.002.002-.002.003-.002.002-.002.002-.002.002-.002.002-.002.002-.002v-.001l.002-.001.001-.001.001-.001.001-.001.001-.001.002-.002.003-.002.001-.002.003-.002.002-.002.002-.002.002-.002.002-.002.001-.001.002-.001v-.001l.002-.001V1.62l.002-.001.001-.002h.001l.002-.002.002-.002.003-.002.002-.002.002-.002.002-.002.002-.002.001-.001.002-.001V1.6L4.6 1.6l.001-.001.001-.001.002-.002.002-.002.003-.002.002-.002.002-.002.002-.002h.001l.002-.002.002-.002.001-.001.001-.001.002-.001v-.001l.002-.002.003-.002.002-.002.003-.002c.021-.019.04-.017.058.003a.013.013 0 0 1 .002.004l.001.002.001.002v.003l.001.003v.004l.001.003v.051l-.001.006v.006h-.001v.007l-.001.006-.001.006v.001l-.001.007v.007l-.002.007v.007l-.002.007-.001.008-.001.007-.001.008-.002.007v.008l-.002.007v.001l-.001.007-.002.008-.001.007v.001l-.001.007-.002.008-.001.007v.001l-.002.007-.001.007v.001l-.001.007-.003.013v.002l-.002.007-.001.007-.001.007-.002.007-.001.007-.002.007-.001.006v.001l-.001.006-.002.006v.006h-.001l-.001.006-.001.006-.002.005v.006l-.002.005v.005h-.001v.004l-.001.001v.004h-.001v.004l.003.002.017.009c.065.034.18.1.25.194.027.038.036.072.046.109a.261.261 0 0 0 .058.12.655.655 0 0 1 .028.037l.001.002.001.001.001.001v.001l.002.002v.001l.001.001v.001l.001.002.001.001.001.002.001.001v.001l.001.001v.002h.001v.001l.001.001v.002h.001l.001.002v.001l.001.002.001.001v.001l.001.001.001.002v.001l.001.002.003.005v.003h.001v.003l.001.001.001.002v.002h.001v.001l.001.002v.001l.001.002v.001l.001.001v.002l.001.001v.002h.001v.002l.001.002v.002l.001.001V2.5h.001v.004h.001v.003h.001v.002l.001.002.001.004a.126.126 0 0 1 .002.013v.005l.001.005v.039a.531.531 0 0 1-.007.049l-.001.003a.797.797 0 0 1-.045.143v.002l-.001.001-.002.003v.003l-.002.003-.001.003-.001.001v.001l-.001.002v.001l-.001.001v.001h-.001l-.001.002-.001.003-.001.002-.001.002-.001.001v.001l-.001.001v.001l-.002.002v.002l-.002.002v.002h-.001v.001h-.001v.001l-.001.001-.001.002H5.01v.001l-.002.003-.003.003-.001.001v.001h-.001a.208.208 0 0 1-.07.035c-.043.018-.08.028-.11.038-.047.014-.08.024-.098.043-.14.151.262.382-.156.958-.063.093-.103.184-.153.26a.673.673 0 0 1-.013.02v.003l.001.002.001.002.001.003.001.003.001.002.001.003.001.003v.004l.002.003v.003l.002.004v.003l.001.004.001.004.001.003v.004l.002.004v.004l.001.005.001.004v.004l.002.004v.005l.001.004.001.005v.005l.002.004v.005l.001.005.001.005v.004l.002.005v.005l.001.005v.005l.002.005v.005l.001.005.001.006.001.005v.005l.002.005v.005l.001.005.001.005.001.006.001.005.001.005.001.005.001.005.001.005v.006l.002.005.001.005.001.005.001.005.001.005.001.005.001.005.001.005.002.004v.005l.002.005a.567.567 0 0 0 .05.147l.036.011c.033.01.071.023.093.042.023.02.036.05.037.084.001.028.012.09-.007.123-.034.063-.143.06-.19.016a.93.93 0 0 1-.16-.227 2.067 2.067 0 0 1-.044-.087l-.003-.005v-.001l-.003-.006c-.03-.062-.058-.122-.089-.171V4.39l-.001-.001v-.001h-.001v-.001h-.001v-.001h-.001a.184.184 0 0 1-.037.023.05.05 0 0 1-.003-.003c0 .003.002.007.004.01.029.046.057.105.086.167.085.177.127.395.298.42a.05.05 0 0 1 .01.013c.01.025.013.059.006.088a.103.103 0 0 1-.05.07c-.02.01-.016.007-.067.012-.058.006-.121 0-.15-.004-.116-.011-.283-.235-.417-.415a3.154 3.154 0 0 0-.126-.163l-.024.021c-.046.045-.153.144-.234.152.078.042-.032.216.22.217.067 0 .127 0 .177.083l.005.012c.009.041 0 .079-.022.11a.208.208 0 0 1-.098.074 2.76 2.76 0 0 1-.279.007c-.217 0-.497-.003-.53-.004-.125-.006-.21-.083-.266-.186a.7.7 0 0 1-.052-.126.586.586 0 0 1-.67.041.495.495 0 0 1-.126-.122c-.163-.227.046-.557.282-.927.23-.361.486-.764.425-1.122a.384.384 0 0 0-.18-.272.369.369 0 0 0-.245-.048.328.328 0 0 0-.23.16.5.5 0 0 0-.063.194.882.882 0 0 0 .007.252.038.038 0 0 1-.075.012.957.957 0 0 1-.007-.274.576.576 0 0 1 .074-.224.403.403 0 0 1 .434-.192c.05.01.1.028.144.055z"/></g></g><path d="M3.413 0a3.413 3.413 0 1 1 0 6.827 3.413 3.413 0 0 1 0-6.827z" style="fill:none"/><path d="M1.827 3.12a.038.038 0 0 1-.075.012.957.957 0 0 1-.007-.274.576.576 0 0 1 .074-.224.403.403 0 0 1 .434-.192.46.46 0 0 1 .36.38c.065.386-.199.802-.436 1.175-.221.347-.418.656-.284.842a.42.42 0 0 0 .106.104c.088.059.192.08.291.073.1-.006.193-.039.259-.086a.261.261 0 0 0 .065-.064.038.038 0 0 1 .063.042.337.337 0 0 1-.084.083.586.586 0 0 1-.636.015.495.495 0 0 1-.126-.123c-.163-.227.046-.557.282-.927.23-.361.486-.764.425-1.122a.384.384 0 0 0-.18-.272.369.369 0 0 0-.245-.048.328.328 0 0 0-.23.16.5.5 0 0 0-.063.194.882.882 0 0 0 .007.252z" style="fill:#ccb4aa;fill-rule:nonzero"/><path class="fil4" d="m4.647 1.956.017.009c.065.034.18.1.25.194.027.038.036.072.046.109a.261.261 0 0 0 .058.12l.016.02a.31.31 0 0 1 .05.103c.024.087-.054.298-.082.319a.208.208 0 0 1-.068.034c-.044.018-.08.028-.112.038-.046.014-.08.024-.097.043-.14.151.262.382-.156.958-.07.095-.134.185-.153.26-.004.016-.015.004-.015.018.023.043.033.181.059.284a.567.567 0 0 0 .05.147l.036.011c.033.01.071.023.093.042.023.02.036.05.037.084a.187.187 0 0 1-.025.094c-.016.03-.054.05-.103.073-.12-.05-.208-.206-.279-.354-.03-.062-.058-.122-.089-.171a.024.024 0 0 0-.04.025c.029.046.057.105.086.167.085.177.127.395.298.42a.05.05 0 0 1 .01.013c.01.025.013.059.006.088a.103.103 0 0 1-.05.07c-.02.01-.016.007-.067.012-.058.006-.121 0-.15-.004-.116-.011-.283-.235-.417-.415-.048-.066-.093-.125-.126-.164-.006.002-.154.163-.258.174.078.042-.032.216.22.217.067 0 .127 0 .177.083l.005.012c.009.041 0 .079-.022.11a.208.208 0 0 1-.098.074 2.76 2.76 0 0 1-.279.007c-.217 0-.497-.003-.53-.004-.126-.006-.21-.083-.266-.186a1.11 1.11 0 0 1-.104-.464c-.002-.273.02-.555.097-.815.078-.263.211-.504.432-.69.408-.344.618-.233.79-.636.124-.293.221-.654.483-.636.033-.05.069-.094.108-.137.045-.049.094-.095.149-.142.021-.019.04-.017.058.003.026.03-.03.296-.049.382h.004z"/><path class="fil5" d="m3.92 2.42.01-.024c.065.114.203.016.301.049.216.071.187.006.3.037-.162-.009-.083.045-.306-.022-.095-.028-.225.07-.305-.04zM3.844 2.585a.826.826 0 0 0 .012-.021c.17.154.297.012.379.075.081.062.125-.015.24.065.015.01.018.01.055.028-.134-.041-.022-.05-.189-.053-.114-.003-.119-.048-.156-.04-.14.026-.232.038-.34-.054zM3.743 2.717a.51.51 0 0 0 .018-.017h.005c.006.2.115.134.31.23.293.141.068.04.335.003.03-.004.084.013.114.019-.033-.002-.087-.015-.112-.01-.262.045-.049.14-.344.003-.193-.09-.31-.031-.326-.228zM3.446 2.896l.044-.023c.013.149.204-.012.325.126.052.06.148.1.22.065.024-.01.14.053.164.074-.034-.008-.143-.06-.154-.055-.085.044-.191.006-.256-.062-.105-.11-.31.046-.343-.125zM3.1 3.124l.004-.004.073-.058.01-.003c-.19.18.283.176.292.178.073.02.053.063.157.085.21.044.042.077.234.168.058.027.089.028.146.035-.151.018-.23-.052-.317-.162-.047-.01-.113-.013-.151-.041-.121-.089-.07-.038-.246-.056-.15-.015-.202-.08-.202-.142zM2.827 3.45l.029-.047c.383.004.279.092.502.376.101.129.21.14.363.174-.163-.014-.273-.023-.385-.156-.235-.278-.112-.356-.51-.347zM2.639 3.938l.011-.047c.175-.004.2-.186.348.065.117.197.083.3.268.234.224-.08.149.153.376.133.133-.012.21-.052.27.105-.145-.245-.3.046-.456-.152-.17-.215-.255.147-.415-.152-.238-.445-.144-.176-.402-.186zM2.575 4.625v-.057c.124-.095.22-.144.35.002.056.063.337-.153.367-.046.003.013.067-.003.088-.004-.038.012-.097.046-.104 0-.148-.016-.298.154-.377.071-.125-.13-.205-.066-.324.034z"/><path class="fil6" d="M4.498 1.698c0 .065 0 .14-.003.197l.148.059c.02-.087.075-.351.05-.38v-.001c-.018-.02-.038-.022-.06-.003-.049.043-.094.084-.135.128z"/><path class="fil5" d="M4.548 1.71a.688.688 0 0 0-.056.082c-.017.038-.037.062-.028.07.013.012.079.026.146.051.012-.051.053-.267.042-.285-.008-.012-.017-.013-.028-.002a1.103 1.103 0 0 0-.076.085z"/><path d="M4.61 2.246c.032.019.046.055.03.08-.015.026-.054.03-.086.011-.031-.02-.045-.055-.03-.08.016-.026.055-.03.087-.011z" style="fill:#a5d6a7"/><path d="M4.612 2.242c.017.01.03.026.035.041a.052.052 0 0 1-.003.046.052.052 0 0 1-.04.024.082.082 0 0 1-.051-.013.082.082 0 0 1-.035-.04.052.052 0 0 1 .003-.046.052.052 0 0 1 .04-.024.082.082 0 0 1 .051.012zm.027.042a.072.072 0 0 0-.03-.035.072.072 0 0 0-.046-.011.046.046 0 0 0-.034.02.046.046 0 0 0-.003.04.072.072 0 0 0 .03.036c.015.01.031.013.046.01a.046.046 0 0 0 .034-.02.046.046 0 0 0 .003-.04z" style="fill:#212121;fill-rule:nonzero"/><path class="fil1" d="M4.601 2.261c.021.013.03.037.02.054-.01.017-.036.02-.057.007-.021-.013-.03-.037-.02-.054.01-.017.036-.02.057-.007z"/><path d="M4.585 2.263a.011.011 0 1 1-.012.02.011.011 0 0 1 .012-.02z" style="fill:#e0e0e0"/><path class="fil4" d="M4.352 1.697a.908.908 0 0 0-.075.127c-.019.057-.048.096-.03.105.027.014.145.018.269.038.006-.075.017-.387-.008-.41-.016-.015-.033-.014-.048.004-.04.046-.077.09-.108.136z"/><path class="fil6" d="M4.38 1.745a.425.425 0 0 0-.034.061c-.008.028-.021.046-.013.05.013.007.069.008.128.016a.824.824 0 0 0-.009-.194c-.008-.007-.016-.007-.023.002a.735.735 0 0 0-.05.065z"/><path class="fil5" d="M5.003 2.483c-.023.06-.002.125.046.143.01.004.02.005.03.005a.282.282 0 0 0 .005-.12.32.32 0 0 0-.038-.086.135.135 0 0 0-.043.058z"/><path class="fil5" d="M5.08 2.63c-.041.207-.174.035-.315.05-.02.003-.03-.018-.006-.023a.124.124 0 0 1 .05 0c.217.035.203.12.25-.04l.021.012z"/><path d="M4.213 3.402c-.057.131.005.193-.019.288-.003.011-.098.035-.143.093l-.01.014c-.026.032-.054.083-.074.119.002.005.031.004.048.008.004.012-.056.105-.108.151l.006.003c.06.042.202.304.226.33.03-.01.11-.086.164-.123a.433.433 0 0 0 .112-.12c.05-.077.09-.168.154-.262.418-.576.016-.807.156-.958.018-.02.051-.03.097-.043.032-.01.068-.02.112-.038a.208.208 0 0 0 .068-.034.177.177 0 0 0 .033-.057c-.12.05-.44.021-.426.098.007.04-.038.04-.102.065-.18.071-.198.103-.163.104.361.018.102.104-.044.12-.07.009-.112.073-.004.068.12-.005.113.002.068.03-.043.027-.12.072-.15.144z" style="fill:#ede0da"/><path class="fil5" d="M4.18 4.39c.03.05.06.11.09.172.057.123.128.248.209.326.047.044.156.047.19-.016.019-.033.008-.095.007-.123a.112.112 0 0 0-.037-.084.282.282 0 0 0-.093-.042l-.036-.011a.567.567 0 0 1-.05-.147c-.026-.101-.035-.236-.058-.282a.411.411 0 0 1-.1.102c-.037.027-.089.072-.126.1a.024.024 0 0 1 .004.006zM3.696 4.634c-.01-.067-.125-.09-.174-.087.072-.052.185-.029.209.058l-.035.029zM4.052 2.11l.01-.026h.002c.063.114.201.017.3.05.215.07.187.006.3.036-.162-.008-.084.046-.307-.021-.094-.029-.225.07-.305-.04zM3.99 2.246A.618.618 0 0 0 4 2.23c.128.117.223.01.285.057.062.047.095-.011.182.05.01.007.013.008.041.02-.101-.03-.017-.037-.143-.04-.086-.001-.09-.036-.118-.03-.106.02-.174.03-.256-.04z"/></g></svg>