<svg xmlns="http://www.w3.org/2000/svg" xml:space="preserve" width="655.359" height="655.359" style="shape-rendering:geometricPrecision;text-rendering:geometricPrecision;image-rendering:optimizeQuality;fill-rule:evenodd;clip-rule:evenodd" viewBox="0 0 6.827 6.827"><defs><clipPath id="id0"><path d="M3.413 0a3.413 3.413 0 1 1 0 6.827 3.413 3.413 0 0 1 0-6.827z"/></clipPath><style>.fil9{fill:#263238}.fil10{fill:#d50000}.fil1{fill:#e9dc6e}.fil3,.fil4,.fil5{fill:#517a28;fill-rule:nonzero}.fil3,.fil4{fill:#5a8a2b}.fil3{fill:#693}</style></defs><g id="Layer_x0020_1"><path d="M3.413 0a3.413 3.413 0 1 1 0 6.827 3.413 3.413 0 0 1 0-6.827z" style="fill:#fff176"/><g style="clip-path:url(#id0)"><g id="_637652872"><path id="_2169220321" class="fil1" d="M2.544 3.036 6.33 6.822l.005.005.004.004.004.004.005.005.004.004.004.005.004.004.004.005.004.005.004.004.004.005.004.005.004.005.004.005.003.005.004.005.004.005.003.005.004.005L2.62 3.126l-.004-.005-.004-.005-.003-.006-.004-.005-.004-.005-.004-.004-.003-.005-.004-.005-.004-.005-.004-.005-.004-.004-.004-.005-.004-.004-.005-.005-.004-.004-.004-.005-.004-.004-.005-.005z"/><path id="_216922176" class="fil1" d="M3.024 3.103 6.81 6.889l.003.003.003.003.003.003.002.003.003.003-3.786-3.787-.003-.003-.003-.003-.002-.003-.003-.002z"/><path id="_216924528" class="fil1" d="M3.091 3.113 6.877 6.9l.003.004-3.786-3.787z"/><path id="_216924096" class="fil1" d="m3.447 3.105 3.786 3.786.003.003.003.003.002.003.003.003-3.786-3.786-.003-.003-.003-.003-.002-.003z"/><path id="_216924024" class="fil1" d="M3.508 3.114 7.294 6.9l.002.002L3.51 3.116z"/><path id="_216924144" class="fil1" d="M3.865 3.108 7.65 6.894l.003.003.003.003.002.003.003.003L3.876 3.12l-.003-.003-.003-.003-.003-.003z"/><path id="_216924312" class="fil1" d="m4.277 3.111 3.786 3.786.004.004.004.005.003.004.004.005.003.004.004.005-3.786-3.786-.004-.005-.003-.005-.004-.004-.003-.005-.004-.004z"/><path id="_216924432" class="fil1" d="M4.678 3.154 8.464 6.94l.006.008.007.007.006.008.006.009.006.008.006.009.005.009.005.01.005.009L4.73 3.23l-.005-.01-.005-.01-.005-.008-.006-.01-.006-.008-.006-.008-.006-.008-.007-.007z"/><path id="_216924384" class="fil1" d="m4.775 3.236 3.787 3.787.002.002L4.778 3.24z"/><path id="_216924600" class="fil1" d="m4.778 3.239 3.786 3.786.001.003.002.004v.003l.002.003.002.003v.003l.002.003.001.003-3.786-3.786-.001-.003-.002-.003v-.003l-.002-.003-.001-.004-.002-.003-.001-.003z"/><path id="_216924624" class="fil1" d="m4.996 3.298 3.787 3.786.004.006.005.006.005.006.004.007.005.007.004.007.004.007.004.008.004.008.003.008.003.009.004.009.003.009-3.787-3.786-.003-.01-.003-.008-.003-.009-.004-.008-.003-.008-.004-.008-.004-.007-.005-.008-.004-.006-.004-.007-.005-.006-.005-.007z"/><path id="_216924864" class="fil1" d="M5.048 3.395 8.835 7.18v.003l.001.003.001.003.001.003.001.003V7.2l.002.003v.003L5.056 3.419v-.003l-.001-.003-.001-.003-.001-.003v-.003l-.002-.003v-.003z"/><path id="_216925056" class="fil1" d="M5.112 3.394 8.898 7.18l.003.002.001.003.002.003.001.003.001.003v.003l.001.003V7.213l-.002.003L5.12 3.429l.001-.003v-.003l.001-.003v-.01l-.001-.003-.001-.003-.001-.003-.002-.002-.002-.003z"/><path id="_216925512" class="fil1" d="M5.225 3.476 9.01 7.262l.003.004.003.004.003.003.003.004.003.004.002.005.003.004.002.005.003.004.002.005.002.005.002.005-3.786-3.786-.002-.005-.002-.005-.002-.005-.003-.005-.002-.004-.003-.005-.003-.004-.002-.004-.003-.004-.003-.004-.003-.003z"/><path id="_216925440" class="fil1" d="m5.256 3.528 3.786 3.786.004.01.003.01.003.01.003.01.002.009.002.01.002.009.001.01.001.009.001.009.001.01v.008l.001.01v.035l-.001.009v.009l-.001.008-.001.009-.002.008v.009l-.002.008-.001.009-.002.008-.001.008-.002.009-.001.008-.002.008-.001.008-.002.008-3.786-3.786.001-.008.002-.008.002-.008.001-.009.002-.008.001-.008.001-.009.002-.008.001-.008.001-.009.001-.008.001-.01.001-.008v-.008l.001-.01V3.67l.001-.009v-.018l-.001-.01v-.008l-.002-.01-.001-.009-.002-.01-.001-.009-.002-.01-.003-.009-.002-.01-.003-.01-.004-.01z"/><path id="_216925488" class="fil1" d="m5.26 3.813 3.787 3.786-.003.017-3.786-3.787z"/><path id="_216925320" class="fil1" d="m5.258 3.83 3.786 3.786-.002.006-.001.006-.003.005-.002.006-.003.005-.003.005-.004.005-.004.005-.004.004-.005.004-.004.004-.005.004-.006.003-.005.004-.006.003-.006.002-3.786-3.786.006-.003.006-.003.005-.003.005-.003.005-.004.005-.004.005-.004.004-.004.004-.005.003-.005.004-.005.003-.005.002-.006.002-.006.002-.006z"/><path id="_216924816" class="fil1" d="m5.195 3.901 3.786 3.786-.004.002-.004.002-.005.002-.004.001-.005.002h-.005l-.005.002-.005.001-.004.001h-.005l-.005.002h-.01l-.005.001h-.01L5.118 3.917h.015l.005-.001h.005l.005-.001.005-.001.005-.001.005-.001.005-.001.005-.002.004-.001.005-.002.004-.001.005-.002z"/><path id="_216925464" class="fil1" d="m5.118 3.917 3.787 3.786H8.879l-.005-.001H8.87L8.865 7.7H8.86l-.005-.001-.005-.002h-.004l-.005-.002-.004-.002-.005-.001-.004-.002-3.786-3.786.004.002.005.001.004.002h.005l.004.002.005.001.005.001.004.001h.005l.005.002h.015l.005.001h.005z"/><path id="_216924912" class="fil1" d="M5.042 3.904 8.828 7.69l-.005-.002-.005-.003-.005-.002-.005-.003-.005-.003-.004-.003-.004-.004-.004-.004L5.005 3.88l.004.004.004.003.004.003.005.004.004.002.005.003.006.003z"/><path id="_216925008" class="fil1" d="M5.005 3.88 8.79 7.666l-.003.003-.004.002-.003.003-.004.002-.003.002-.004.002-.004.002-.004.002-3.786-3.786.004-.002.004-.002.003-.002.004-.002.003-.003.004-.002L5 3.883z"/><path id="_216925152" class="fil1" d="M4.984 3.906 8.77 7.692l.004.004.004.005.003.004.004.004.004.005.003.004.004.005.004.005.003.005.004.004.003.005.003.005.003.005.003.005.003.005.003.006.003.005.002.005.002.005.003.006.002.005.001.005.002.006.001.005.002.006v.005l.002.006v.016L5.06 4.057V4.04l-.002-.005v-.006l-.002-.005-.001-.006-.002-.005-.002-.005-.002-.006-.002-.005-.002-.005-.003-.006-.002-.005-.003-.005-.003-.005-.003-.005-.003-.005-.003-.005-.004-.005-.003-.005-.004-.004-.003-.005-.004-.005-.003-.004-.004-.005-.004-.004-.004-.005-.004-.004z"/><path id="_216926064" class="fil1" d="m4.908 3.919 3.786 3.786h-.005l-.005.001h-.005l-.005.001h-.005l-.005.001h-.011L4.867 3.922h.015l.006-.001h.005l.005-.001h.005z"/><path id="_216925656" class="fil1" d="m4.867 3.922 3.786 3.786H8.627l-.007-.001h-.007l-.006-.002H8.6l-.006-.002-.007-.001-.006-.002-.006-.001-.006-.002-.006-.002-.006-.002-.005-.002-3.787-3.786.006.002.006.002.006.002.006.002.006.001.006.002h.006l.007.002.006.001.007.001h.007l.006.001h.007l.007.001h.006z"/><path id="_216925680" class="fil1" d="m4.7 3.853 3.787 3.786-.005.004-.004.003-.004.004-.005.003-.005.003-.005.004-.005.003-.005.003-3.786-3.787.005-.003.005-.003.005-.003.005-.003.004-.003.005-.004.004-.004z"/><path id="_216925752" class="fil1" d="m4.922 3.933 3.786 3.786-.004-.004-.003-.003-.004-.004-.003-.003-3.786-3.786.003.003.004.004.003.003z"/><path id="_216925776" class="fil1" d="m5.06 4.057 3.786 3.786v.103L5.059 4.159z"/><path id="_216925536" class="fil1" d="M4.765 3.905 8.552 7.69l-.006-.002-.005-.003-.005-.002-.005-.003-.004-.003-.005-.003-.004-.003-.004-.003-.004-.003-.004-.004-.004-.003-3.786-3.786.004.003.003.004.004.003.005.003.004.003.005.003.004.003.005.002.005.003.005.002z"/><path id="_216925728" class="fil1" d="m5.06 4.16 3.786 3.786-.001.005-.002.005-.004.004-.004.004-.006.003-.006.002-.007.002H8.81L5.023 4.185h.007l.007-.002.006-.002.006-.004.004-.003.003-.005.003-.004z"/><path id="_216925920" class="fil1" d="m5.023 4.185 3.786 3.786H8.8l-.006-.002-.007-.002-.005-.003-.005-.004-3.786-3.786.005.003.005.004.006.002.007.001z"/><path id="_216925944" class="fil1" d="M4.685 3.901 8.47 7.687l.005.005.004.005.004.005.005.005.004.005.004.005.005.005.004.006.004.005.004.006.003.006.004.005.004.006.003.006.003.006.003.006.003.006.003.006.002.007.002.006.002.006.002.006.001.007.001.006.001.006V7.843L4.766 4.057V4.044l-.001-.006-.001-.007-.002-.006-.001-.006-.002-.006-.002-.007L4.753 4l-.002-.006-.003-.006-.003-.006-.003-.006-.004-.006-.003-.006-.004-.006-.004-.005-.004-.006-.004-.005-.004-.006-.004-.005-.004-.005-.005-.006-.004-.005-.004-.005-.005-.004z"/><path id="_216926040" class="fil1" d="m4.626 3.931 3.786 3.787-.003-.005-.004-.004-.004-.003-.004-.004-.004-.004-.004-.004-.004-.003L4.6 3.905l.004.003.003.004.004.003.004.004.004.004.004.004z"/><path id="_216925608" class="fil1" d="M4.599 3.905 8.385 7.69l-.005.001-.006.002-.005.001-.006.001-.006.001-.005.001-.006.001H8.34l-.006.002h-.011l-.006.001h-.006l-.006.001h-.011L4.507 3.917H4.525l.006-.001h.006l.005-.001h.006l.006-.001.006-.001.005-.001.006-.001.006-.001.005-.001.006-.002h.005z"/><path id="_216926520" class="fil1" d="m4.507 3.917 3.787 3.786h-.038l-.008-.001-.007-.001-.008-.001-.007-.001-.007-.002-.008-.001-.007-.002-.007-.001-.007-.002-.007-.002-.006-.002L4.39 3.9l.006.002.007.002.007.002.007.001.007.002.007.001.008.001.007.001.007.001.008.001h.007l.008.001h.008l.007.001H4.5z"/><path id="_216926664" class="fil1" d="m4.765 4.057 3.787 3.786v.103L4.765 4.159z"/><path id="_216927048" class="fil1" d="m4.765 4.16 3.787 3.786-.001.005-.002.005-.004.004-.004.004-.006.003-.006.002-.007.002h-.007L4.729 4.185h.007l.007-.002.006-.002.006-.004.004-.003.003-.005.003-.004z"/><path id="_216926760" class="fil1" d="m4.729 4.185 3.786 3.786h-.008l-.006-.002-.007-.002-.005-.003-.005-.004-3.786-3.786.005.003.005.004.006.002.007.001z"/><path id="_216926976" class="fil1" d="m4.39 3.9 3.787 3.787.004.004.003.004.004.004.004.004.003.005.004.004.004.004.003.005.004.004.003.005.004.005.003.005.003.004.003.005.003.005.003.005.003.005.003.005.002.005.003.005.002.006.002.005.002.005.002.005.001.006.002.005v.005l.002.006v.005l.001.005v.011L4.472 4.057V4.04l-.002-.006V4.03l-.002-.005-.001-.006-.002-.005-.001-.005-.002-.006-.002-.005-.003-.005-.002-.005-.003-.005-.002-.005-.003-.005-.003-.005-.003-.005-.003-.005-.003-.005-.004-.004-.003-.005-.003-.005-.004-.004-.004-.005-.003-.004-.004-.005-.004-.004-.003-.004-.004-.004-.004-.004z"/><path id="_216926688" class="fil1" d="m4.327 3.926 3.786 3.786-.005-.005-.006-.006-.006-.005-.005-.005-.006-.005-.005-.005-.005-.004-.004-.004-.005-.003-.004-.003-.003-.003-.003-.002-.003-.002-.002-.002-3.787-3.786.003.001.002.002.003.003.004.003.004.003.004.003.005.004.005.004.005.005.005.004.006.005.006.006.005.005z"/><path id="_216926712" class="fil1" d="m4.233 3.889 3.786 3.786-.007.003-.007.003-.007.003-.007.002-.007.002-.008.002-.007.002-.008.002-.008.002-.008.001-.008.002H7.93l-.008.002h-.008l-.008.001h-.008L4.111 3.918h.008l.008-.002h.008l.008-.001.008-.002h.008l.008-.002.008-.002.007-.002.008-.002.007-.002.008-.002.007-.003.007-.002.007-.003z"/><path id="_216926832" class="fil1" d="M4.435 4.185 8.22 7.971h-.008l-.006-.002-.007-.002-.005-.003-.005-.004-3.786-3.786.005.003.005.004.006.002.007.001z"/><path id="_216926784" class="fil1" d="m4.264 3.872 3.787 3.786-.004.002-.004.003-.004.002-.004.002-.004.002-.004.002-.004.002-.004.002L4.233 3.89l.004-.002.004-.002.004-.002.004-.002.004-.002.004-.003.004-.002z"/><path id="_216926400" class="fil1" d="m4.471 4.057 3.787 3.786v.103L4.47 4.159z"/><path id="_216927216" class="fil1" d="m4.471 4.16 3.787 3.786-.001.005-.002.005-.004.004-.004.004-.006.003-.006.002-.007.002h-.007L4.435 4.185h.007l.007-.002.006-.002.006-.004.004-.003.003-.005.003-.004z"/><path id="_216927360" class="fil1" d="m4.111 3.917 3.786 3.786.004.004.003.003.003.004.003.004.003.004.003.004.003.004.003.004.003.005.003.004.003.004.003.004.002.005.003.004.002.004.003.005.002.004.002.005.002.004.002.005.002.005.001.004.002.005.001.004.001.005.001.005.001.004.001.005v.005l.001.005V7.843L4.178 4.057v-.014l-.001-.005v-.005l-.002-.005v-.004l-.002-.005-.002-.005-.001-.004-.002-.005-.001-.004-.002-.005-.002-.004-.003-.005-.002-.004-.002-.005-.003-.004-.002-.005-.003-.004-.002-.004-.003-.004-.003-.005-.003-.004-.003-.004-.003-.004-.003-.004-.003-.004-.003-.004-.003-.004-.004-.004z"/><path id="_216927480" class="fil1" d="M4.032 3.925 7.818 7.71l-.004-.004-.003-.003-.004-.004-.004-.003L4.017 3.91l.004.004.003.003.004.004z"/><path id="_216927432" class="fil1" d="M3.89 3.844 7.674 7.63l-.003.003-.003.004-.004.003-.004.003-.003.003-.004.003-.004.003-.004.003-.004.003-.005.003-.004.002-.005.003-.004.002-.005.003-.004.002-.005.002L3.824 3.89l.004-.002.005-.003.005-.002.004-.002.005-.003.004-.003.004-.002.004-.003.005-.003.004-.003.003-.003.004-.003.004-.003.003-.003.004-.004z"/><path id="_216927456" class="fil1" d="m4.14 4.185 3.787 3.786h-.008l-.006-.002-.007-.002-.005-.003-.005-.004L4.11 4.174l.005.003.005.004.006.002.007.001z"/><path id="_216927552" class="fil1" d="m4.017 3.91 3.786 3.787-.004-.001h-.003l-.004-.002H7.79l-.004-.002H7.78l-.003-.001-.004-.001-.003-.001-.004-.002h-.003l-.003-.002-.004-.001-.003-.001-.003-.002h-.004L3.961 3.893l.003.001.004.001.003.002h.003l.004.002.003.001.004.001.003.001.004.001.003.001.004.001.003.001.004.001h.004l.003.002z"/><path id="_216927168" class="fil1" d="M3.961 3.894 7.747 7.68l-.005-.002-.005-.003-.006-.002-.005-.003-.005-.002-.005-.003-.004-.003-.005-.003-.004-.004-.005-.003-.004-.003-.004-.004-.004-.003L3.9 3.855l.004.004.004.003.004.004.004.003.005.003.004.003.005.003.005.003.005.003.005.003.005.002.006.003z"/><path id="_216927504" class="fil1" d="m4.177 4.057 3.787 3.786v.103L4.177 4.159z"/><path id="_216927576" class="fil1" d="m4.177 4.16 3.787 3.786-.001.005-.002.005-.004.004-.004.004-.006.003-.006.002-.007.002h-.007L4.14 4.185h.007l.007-.002.006-.002.006-.004.004-.003.003-.005.003-.004z"/><path id="_216927240" class="fil1" d="M3.824 3.889 7.61 7.675l-.003.001-.003.002h-.003l-.003.002-.003.001-.003.001-.003.001-.003.001L3.8 3.898h.003l.003-.002.003-.001.003-.001.003-.001.003-.002h.003z"/><path id="_216927312" class="fil1" d="m3.8 3.898 3.786 3.786.004.004.004.005.004.004.004.004.003.004.004.005.004.004.004.005.003.004.004.005.003.005.004.005.003.005.003.004.003.005.003.005.003.006.003.005.003.005.002.005.002.005.002.006.002.005.002.005.002.006.001.005.002.006v.005l.001.006.001.005v.011L3.884 4.057V4.04l-.002-.005v-.006l-.002-.005-.001-.005-.002-.006-.002-.005-.002-.006-.002-.005-.002-.005-.003-.005-.002-.006-.003-.005-.003-.005-.003-.005-.003-.005-.003-.005-.004-.005-.003-.004-.004-.005-.003-.005-.004-.005-.003-.004-.004-.005-.004-.004-.004-.004-.003-.005-.004-.004-.004-.004z"/><path id="_216928152" class="fil1" d="m3.734 3.921 3.787 3.787-.004-.004-.003-.003-3.787-3.787.004.004z"/><path id="_216928368" class="fil1" d="m3.687 3.917 3.786 3.786h-.035l-.005-.001H7.424L7.42 7.7h-.004l-.005-.002h-.008l-.005-.002h-.004l-.004-.001-.004-.001-.005-.001-.004-.001-.004-.001-.004-.001-.004-.001-.004-.002h-.004l-.004-.002-.004-.001-.003-.002-.004-.001-.004-.002-3.786-3.786.003.001.004.002.004.001.004.002h.004l.004.002.004.001.004.001.004.002h.004l.004.002H3.6l.004.001.005.001.004.001h.004l.005.002h.008l.005.001h.004l.004.001h.005l.004.001H3.665l.004.001H3.683z"/><path id="_216928008" class="fil1" d="m3.477 3.84 3.786 3.787-.002.002-.001.002-.002.002-.002.002-.003.002-.002.002-.002.002-.002.002-3.786-3.787.002-.002.002-.001.002-.002.002-.002.002-.002.002-.003.002-.002z"/><path id="_216928488" class="fil1" d="m3.727 3.914 3.787 3.787h-.01l-.005.001h-.011l-.005.001h-.01L3.687 3.917h.02l.005-.001h.005l.005-.001z"/><path id="_216928032" class="fil1" d="M3.883 4.057 7.67 7.843v.103L3.883 4.159z"/><path id="_216928104" class="fil1" d="M3.883 4.16 7.67 7.945l-.001.005-.002.005-.004.004-.004.004-.006.003-.006.002-.007.002h-.007L3.847 4.185h.007l.007-.002.006-.002.006-.004.004-.003.003-.005.003-.004z"/><path id="_216928296" class="fil1" d="M3.552 3.894 7.338 7.68l-.006-.002-.005-.003-.006-.002-.005-.003-.005-.003-.005-.003L7.3 7.66l-.005-.004-.005-.003-.004-.004-.005-.003-.004-.004-3.786-3.786.004.003.004.004.005.004.005.003.004.003.005.003.005.004.006.002.005.003.005.003.006.002z"/><path id="_216928536" class="fil1" d="m3.847 4.185 3.786 3.786h-.008l-.006-.002-.007-.002-.005-.003-.005-.004-3.786-3.786.005.003.005.004.006.002.007.001z"/><path id="_216928080" class="fil1" d="M3.495 3.887 7.28 7.673l.005.005.006.006.005.005.005.006.006.006.005.006.005.006.005.007.005.006.005.007.005.007.005.007.004.007.004.007.004.007.004.007.003.007.003.008.003.007.002.008.002.007.001.008.002.008v.015L3.59 4.057V4.04l-.002-.007-.001-.008-.002-.007-.003-.008-.002-.007-.003-.008-.004-.007-.003-.007-.004-.008-.004-.007-.005-.007-.004-.007-.005-.006-.005-.007-.005-.007-.005-.006-.005-.006-.006-.006-.005-.006-.005-.006-.006-.006-.005-.005z"/><path id="_216928248" class="fil1" d="m3.435 3.916 3.786 3.787-.004-.005-.005-.004-.004-.004-.004-.004-.004-.003-.004-.003-.004-.004L3.406 3.89l.004.003.004.004.004.003.004.004.004.004.005.004z"/><path id="_216928848" class="fil1" d="m3.406 3.89 3.786 3.786-.004.002-.003.001-.004.002-.004.001-.004.002-.004.001-.004.001-.004.002h-.004l-.004.002-.004.001-.004.001-.005.001-.004.001-.004.001-.004.001h-.004l-.005.002h-.004l-.004.001h-.005l-.004.001h-.004l-.005.001H7.09l-.004.001H7.07l-.004.001H7.058L3.272 3.917H3.294l.004-.001h.005l.004-.001h.004l.005-.001h.004l.004-.001h.005l.004-.002h.004l.005-.001.004-.001.004-.001.004-.001.004-.001.004-.001.005-.001.004-.001.004-.002h.004l.004-.002.004-.001.004-.002.003-.001.004-.002.004-.001z"/><path id="_216928968" class="fil1" d="m3.272 3.917 3.786 3.786H7.02l-.003-.001h-.003L3.228 3.915h.005l.003.001H3.253l.002.001H3.27z"/><path id="_216929280" class="fil1" d="m3.59 4.057 3.786 3.786v.103L3.589 4.159z"/><path id="_216929256" class="fil1" d="m3.59 4.16 3.786 3.786-.001.005-.002.005-.004.004-.004.004-.006.003-.006.002-.007.002H7.34L3.553 4.185h.007l.007-.002.006-.002.006-.004.004-.003.003-.005.003-.004z"/><path id="_216928632" class="fil1" d="m3.553 4.185 3.786 3.786H7.33l-.007-.002-.006-.002-.005-.003-.005-.004-3.786-3.786.005.003.005.004.006.002.007.001z"/><path id="_216928752" class="fil1" d="m3.228 3.915 3.786 3.787.004.003.003.004.003.004.003.004.003.004.004.004.003.004.003.004.003.005.002.004.003.004.003.004.003.005.002.004.003.005.002.004.002.005.003.004.002.005.002.004.001.005.002.005.002.004v.005l.002.005.001.004.001.005.001.005v.005l.001.004v.01L3.296 4.057v-.015l-.001-.004-.001-.005-.001-.005-.001-.005-.001-.004-.002-.005-.001-.005-.002-.004L3.283 4l-.002-.004-.002-.005-.002-.005-.002-.004-.003-.005-.002-.004-.003-.004-.002-.005-.003-.004-.003-.004-.003-.005-.003-.004-.003-.004-.003-.004-.003-.004-.003-.004-.003-.004-.003-.004-.004-.004z"/><path id="_216928896" class="fil1" d="m1.643 2.657 3.786 3.787.003.003.004.004.002.005.003.004-3.786-3.786-.003-.005-.003-.004-.003-.004z"/><path id="_216928920" class="fil1" d="m2.008 2.81 3.787 3.786-.012-.01-.012-.011-.012-.01-.013-.01-.013-.008-.013-.008-.014-.008-.013-.007-.014-.007-.015-.006-.014-.005-.015-.005-.015-.005-.016-.004-.015-.003-.015-.002-.016-.002-.016-.002h-.064l-.016.002-.016.003L1.66 2.702l.016-.003.016-.002h.016l.016-.001h.032l.016.002.015.002.016.003.015.003.015.004.015.004.015.005.015.006.014.006.014.007.014.007.014.008.013.008.013.009.013.009.012.01.012.01z"/><path id="_216929016" class="fil1" d="m2.988 3.889 3.786 3.786-.003.002-.004.001-.003.002-.004.001-.004.001-.003.002-.004.001-.004.001-.004.002h-.004l-.003.002H6.73l-.004.002h-.004l-.004.002h-.004L2.928 3.909h.004l.004-.001.004-.001.003-.001.004-.001.004-.002h.004l.004-.002.004-.001.003-.001.004-.002.004-.001.003-.002.004-.001.003-.002z"/><path id="_216928656" class="fil1" d="m2.031 2.793 3.787 3.786.011.012.012.013.01.013.011.014.01.014.01.015.009.015.008.016-3.786-3.786-.009-.016-.009-.015-.009-.015-.01-.014-.01-.014-.011-.013-.012-.013z"/><path id="_216929208" class="fil1" d="m3.06 3.837 3.786 3.786-.004.004-.003.004-.004.004-.004.004-.004.003-.004.004-.005.003-.004.004-.005.003-.004.003-.005.003-.005.003-.005.002-.005.003-.005.003-.006.002L2.988 3.89l.005-.003L3 3.884l.005-.003.005-.003.005-.002.004-.003.005-.004.005-.003.004-.003.004-.003.005-.004.004-.003.004-.004.003-.004.004-.004z"/><path id="_216930048" class="fil1" d="m3.085 3.87 3.787 3.786-.002-.002-.002-.001L3.08 3.866l.002.002z"/><path id="_216929760" class="fil1" d="m3.295 4.16 3.787 3.786-.001.005-.002.005-.004.004-.004.004-.006.003-.006.002-.007.002h-.007L3.258 4.185h.008l.007-.002.006-.002.005-.004.005-.003.003-.005.003-.004z"/><path id="_216929808" class="fil1" d="m1.66 2.702 3.786 3.786v.008l-.002.004-.001.004-.002.004-.001.004-.003.003-.002.004-.003.003-.002.003-.004.003-.003.003-.003.002-.004.002-.004.002-.004.001L1.62 2.752l.005-.001.004-.002.003-.002.004-.003.003-.002.003-.003.003-.003.003-.004.002-.003.002-.004.002-.003.002-.004.001-.004.001-.004v-.004z"/><path id="_216929904" class="fil1" d="m1.621 2.752 3.787 3.786-.006.002-.006.001H5.38l-.005-.002-.006-.001-.005-.003-.004-.002-.005-.003-.004-.004L1.565 2.74l.004.003.004.003.005.003.005.002.005.002.006.001.005.001h.011l.006-.001z"/><path id="_216929712" class="fil1" d="M2.716 3.894 6.502 7.68l-.004-.002-.004-.002-.005-.002-.004-.002-.004-.002-.004-.002-.004-.002-.004-.003-.004-.002-.004-.003-.003-.002-.004-.003-.003-.003-.004-.003-.003-.003-3.786-3.786.003.003.004.003.003.003.004.002.003.003.004.002.004.003.004.002.004.003.004.002.004.002.004.002.004.002.005.002z"/><path id="_216929424" class="fil1" d="M2.655 3.855 6.44 7.641l-.004.008-.004.006-.004.007-.004.007-.004.007-.004.007-.005.006-.004.007-.004.006-.005.007-.005.006-.004.006-.005.007-.005.006-.005.006-.005.006-.005.006-.005.005-.005.006-.005.006-.005.005-.006.006-.005.005-.006.005-.005.006-.006.005-.005.005-.006.005-.006.005-.006.005-.005.004-.006.005-3.787-3.786.006-.005.006-.005.006-.005.006-.004.005-.005.006-.005.006-.006.005-.005L2.548 4l.005-.005.005-.006.006-.006.005-.005.005-.006.005-.006.005-.006.005-.006.005-.006.005-.006.005-.006.004-.006.005-.006.004-.007.005-.006.004-.007.005-.007.004-.006.004-.007.004-.007.004-.007.004-.007z"/><path id="_216929616" class="fil1" d="m2.848 3.917 3.786 3.786H6.6l-.004-.001h-.004L6.586 7.7h-.004L6.578 7.7h-.004l-.005-.001-.004-.001h-.004l-.004-.002h-.004l-.004-.001-.004-.001-.004-.001-.004-.001-.004-.001-.004-.002h-.004l-.004-.002-.004-.001-.004-.002H6.51l-.004-.002-.004-.002-3.786-3.786.004.001.003.002.004.001.004.001.004.002.004.001.003.001.004.001.004.001.004.001.004.001.004.001.005.001.004.001h.004l.004.002h.008l.005.002H2.8l.004.001H2.813l.004.001H2.83l.005.001H2.844z"/><path id="_216930024" class="fil1" d="m3.001 4.16 3.786 3.786v.005l-.002.005-.004.004-.004.004-.006.003-.006.002-.007.002h-.007L2.964 4.185h.008l.007-.002.006-.002.005-.004.005-.003.003-.005L3 4.165z"/><path id="_216929952" class="fil1" d="m2.964 4.185 3.787 3.786h-.008l-.007-.002-.006-.002-.005-.003-.005-.004-3.786-3.786.004.003.006.004.006.002.007.001z"/><path id="_216930504" class="fil1" d="M2.496 4.044 6.283 7.83l-.008.006-.008.005-.007.005-.008.006-.008.005-.008.005-.008.005-.008.004-.008.005-.009.004-.008.004-.009.004-.008.004-.009.003-.008.004-.01.003-.008.003-.009.003-.009.003-.009.003-.009.002-.009.002-.009.002-.01.002-.008.002-.01.001-.009.002h-.01l-.009.002h-.019l-.01.001-3.786-3.786h.01l.01-.001h.009l.01-.002h.009l.01-.002.008-.002.01-.001.009-.002.009-.002.01-.002.008-.003.01-.002.008-.003.009-.003.009-.003.008-.003.009-.004.009-.003.008-.004.009-.004.008-.004.008-.005.008-.004.009-.005.008-.005.008-.004.008-.006.007-.005.008-.005.008-.006z"/><path id="_216930552" class="fil1" d="M2.218 4.144 6.004 7.93H6L2.213 4.144z"/><path id="_216930624" class="fil1" d="M2.213 4.144 5.999 7.93l.005.017L2.218 4.16z"/><path id="_216930240" class="fil1" d="m2.037 4.114 3.787 3.787-.05-.027-3.787-3.787z"/><path id="_216930432" class="fil1" d="m2.218 4.16 3.786 3.787h-.006l-.005.002h-.006l-.005.001h-.006l-.005.001h-.028l-.006-.001-.006-.001h-.005l-.006-.002-.005-.001-.006-.001-.006-.002-.005-.001-.006-.002-.005-.002-.006-.002-.006-.002-.005-.002-.006-.002-.006-.003-.005-.002-.006-.003-.006-.003-.005-.003-.006-.003-.005-.003-3.787-3.786.006.003.006.003.005.003.006.003.006.003.005.002.006.003.005.002.006.002.006.002.005.002.006.002.006.002.005.001.006.001.005.002h.006l.006.002h.005l.006.001.005.001h.045l.006-.001.005-.001z"/><path id="_216930648" class="fil1" d="m1.987 4.087 3.786 3.787-.008-.005-.009-.005-.008-.005-.009-.006-.008-.005-.008-.006-.009-.006-.008-.006-.008-.006-.007-.006-.008-.007-.008-.007L1.89 4.018l.008.007.007.006.008.007.008.006.008.006.008.006.009.005.008.006.008.005.009.005.008.005z"/><path id="_216930312" class="fil1" d="m3.141 3.916 3.786 3.786-.006-.005-.006-.006-.006-.005-.006-.005-.005-.005-.005-.004-.005-.003-.004-.004-.003-.002-.003-.003-.003-.002-.002-.001h-.001v-.001L3.085 3.87h.002l.002.002.002.002.003.002.004.003.004.003.005.004.005.004.005.005.006.004.006.006.006.005z"/><path id="_216930216" class="fil1" d="m2.928 3.908 3.786 3.787.003.004.004.003.003.005.004.004.003.004.004.004.003.004.003.005.003.004.004.004.003.005.003.004.003.005.002.005.003.004.003.005.002.005.003.004.002.005.002.005.002.005.002.005.002.005.001.005.002.005v.005l.002.005v.005l.002.005v.015L3.001 4.057v-.015L3 4.037l-.001-.005-.001-.005-.002-.006-.001-.004-.002-.005-.001-.005-.002-.005-.002-.005-.002-.005-.003-.005-.002-.005-.002-.004-.003-.005-.003-.005-.003-.004-.003-.005-.003-.004-.003-.005-.003-.004-.003-.005-.003-.004-.004-.004-.003-.005-.003-.004-.004-.004-.003-.004-.004-.004z"/><path id="_216930408" class="fil1" d="m3.001 4.057 3.786 3.786v.103L3.001 4.159z"/><path id="_216931152" class="fil1" d="m3.258 4.185 3.787 3.786h-.008l-.007-.002-.006-.002-.005-.003-.005-.004-3.786-3.786.004.003.006.004.006.002.007.001z"/><path id="_216931080" class="fil1" d="m3.295 4.057 3.787 3.786v.103L3.295 4.159z"/><path id="_637652584" class="fil1" d="M2.208 2.894a.47.47 0 0 1 .276.092.57.57 0 0 1 .136.14.034.034 0 0 1 .049-.004.255.255 0 0 1 .185-.088.235.235 0 0 1 .184.083.034.034 0 0 1 .056 0 .254.254 0 0 1 .18-.083.235.235 0 0 1 .184.083.034.034 0 0 1 .052-.001.254.254 0 0 1 .18-.082.235.235 0 0 1 .186.086.034.034 0 0 1 .05-.011.253.253 0 0 1 .173-.075.235.235 0 0 1 .2.104.034.034 0 0 1 .016-.002.205.205 0 0 1 .176-.074.27.27 0 0 1 .136.048.317.317 0 0 1 .103.12.034.034 0 0 1 .048.009.367.367 0 0 1 .01.025.155.155 0 0 1 .193.018.25.25 0 0 1 .067.113.639.639 0 0 1 .007.024v-.017a.034.034 0 0 1 .064.028.14.14 0 0 1 .092.033.158.158 0 0 1 .045.065c.04.106.022.199.005.285l-.003.016c-.007.034-.031.058-.063.072a.199.199 0 0 1-.077.016.197.197 0 0 1-.076-.013.116.116 0 0 1-.037-.024.168.168 0 0 1-.03.018c.042.042.084.1.084.159v.102c0 .015-.016.026-.036.026-.02 0-.037-.011-.037-.026v-.102c0-.05-.041-.102-.078-.138a.298.298 0 0 1-.143-.014.131.131 0 0 1-.065-.052.2.2 0 0 1-.037.026c.045.043.102.11.102.178v.102c0 .015-.016.026-.036.026-.02 0-.037-.011-.037-.026v-.102c0-.058-.053-.116-.093-.152A.383.383 0 0 1 4.39 3.9c.04.041.08.098.08.156v.102c0 .015-.016.026-.036.026-.02 0-.037-.011-.037-.026v-.102c0-.084-.113-.17-.133-.185a.346.346 0 0 1-.153.045c.034.04.065.09.065.14v.102c0 .015-.016.026-.036.026-.02 0-.037-.011-.037-.026v-.102c0-.055-.048-.11-.087-.147a.297.297 0 0 1-.056-.016.18.18 0 0 1-.072-.05.204.204 0 0 1-.089.054c.04.042.083.1.083.159v.102c0 .015-.016.026-.036.026-.02 0-.037-.011-.037-.026v-.102c0-.053-.045-.106-.083-.143a.4.4 0 0 1-.175-.02.177.177 0 0 1-.075-.054.167.167 0 0 1-.016.016c.045.038.128.119.128.2v.103c0 .015-.016.026-.036.026-.02 0-.037-.011-.037-.026v-.102c0-.066-.07-.134-.11-.167a.356.356 0 0 1-.178.025c.035.04.067.09.067.142v.102c0 .015-.016.026-.037.026-.02 0-.036-.011-.036-.026v-.102c0-.092-.136-.187-.137-.187a.024.024 0 0 1-.01-.015.137.137 0 0 1-.016-.018.198.198 0 0 1-.071.052.307.307 0 0 1-.06.02c.037.04.073.094.073.148v.102c0 .015-.016.026-.037.026-.02 0-.036-.011-.036-.026v-.102c0-.051-.043-.104-.08-.14a.348.348 0 0 1-.132-.023.192.192 0 0 1-.061-.039.59.59 0 0 1-.159.189.473.473 0 0 1-.278.1h-.005l.005.017a.254.254 0 0 1-.18-.037v-.01l-.05-.027a.57.57 0 0 1-.227-.232.706.706 0 0 1-.083-.336c0-.171.059-.326.153-.44a.515.515 0 0 1 .254-.168.404.404 0 0 0-.425-.21.057.057 0 1 1-.005-.027.432.432 0 0 1 .458.23.455.455 0 0 1 .095-.01z"/></g></g><path d="M3.413 0a3.413 3.413 0 1 1 0 6.827 3.413 3.413 0 0 1 0-6.827z" style="fill:none"/><path class="fil3" d="m2.136 2.962-.026.009a.403.403 0 0 0-.51-.254l-.009-.027a.431.431 0 0 1 .545.272z"/><path class="fil4" d="M1.657 2.68a.057.057 0 1 1-.107.036.057.057 0 0 1 .107-.036z"/><path class="fil3" d="M5.256 3.528c.04.106.022.199.005.285l-.003.016c-.007.034-.031.058-.063.072a.199.199 0 0 1-.077.016.197.197 0 0 1-.076-.013c-.03-.013-.054-.034-.06-.065l-.003-.012-.003-.013V3.8l.001-.002.005-.024a.78.78 0 0 0 .02-.263L5 3.493l.01-.012a.147.147 0 0 1 .133-.05.138.138 0 0 1 .068.032.158.158 0 0 1 .045.065z"/><path class="fil4" d="M5.048 3.395c.024.078.03.151.028.22a1.293 1.293 0 0 1-.027.195c-.008.043-.039.073-.08.09a.266.266 0 0 1-.102.022.263.263 0 0 1-.102-.017c-.039-.016-.068-.043-.076-.081a2.139 2.139 0 0 1-.013-.064v-.013l.004-.02c.022-.112.046-.232.03-.358l.004-.021a.215.215 0 0 1 .077-.086.155.155 0 0 1 .19.02.25.25 0 0 1 .067.113z"/><path class="fil3" d="M4.744 3.263c.07.184.045.304.015.447l-.013.064c-.01.053-.05.091-.102.115a.354.354 0 0 1-.137.028.35.35 0 0 1-.135-.023c-.05-.02-.087-.054-.097-.102a1.617 1.617 0 0 1-.042-.306.745.745 0 0 1 .044-.282.22.22 0 0 1 .08-.107.211.211 0 0 1 .134-.035.27.27 0 0 1 .136.048c.05.034.092.086.117.153z"/><path class="fil4" d="m4.333 3.204.003.008a.83.83 0 0 1 .003.01v.023a.68.68 0 0 0-.033.232c.002.083.014.17.033.262v.014l-.002.01-.002.01c-.01.054-.05.092-.102.116a.354.354 0 0 1-.137.028.35.35 0 0 1-.135-.023c-.05-.02-.087-.054-.097-.102a1.617 1.617 0 0 1-.042-.306.745.745 0 0 1 .043-.282.263.263 0 0 1 .098-.127.247.247 0 0 1 .136-.043c.048 0 .096.013.137.042.041.028.075.07.097.128z"/><path class="fil3" d="m3.924 3.204.003.008a.83.83 0 0 1 .003.01v.023a.68.68 0 0 0-.033.232c.001.083.014.17.032.262v.014l-.001.01-.002.01c-.01.054-.05.092-.102.116a.354.354 0 0 1-.137.028.35.35 0 0 1-.135-.023c-.05-.02-.087-.054-.097-.102a1.616 1.616 0 0 1-.042-.306.745.745 0 0 1 .043-.282.263.263 0 0 1 .098-.127.247.247 0 0 1 .136-.043c.048 0 .095.013.137.042.04.028.075.07.097.128z"/><path class="fil4" d="m3.509 3.204.003.008a.84.84 0 0 1 .003.01v.023a.68.68 0 0 0-.033.232c.001.083.014.17.032.262v.014l-.002.01-.002.01c-.01.054-.05.092-.102.116a.354.354 0 0 1-.136.028.35.35 0 0 1-.135-.023c-.05-.02-.087-.054-.098-.102a1.617 1.617 0 0 1-.041-.306.745.745 0 0 1 .043-.282.263.263 0 0 1 .098-.127.247.247 0 0 1 .136-.043c.047 0 .095.013.137.042.04.028.075.07.097.128z"/><path class="fil3" d="m3.088 3.204.003.008.004.01v.023a.68.68 0 0 0-.033.232c0 .083.013.17.032.262v.014l-.002.01-.002.01c-.01.054-.05.092-.102.116a.354.354 0 0 1-.137.028.35.35 0 0 1-.135-.023c-.05-.02-.087-.054-.097-.102a1.617 1.617 0 0 1-.042-.306.745.745 0 0 1 .044-.282.263.263 0 0 1 .098-.127.247.247 0 0 1 .135-.043c.048 0 .096.013.137.042.041.028.075.07.097.128z"/><path class="fil5" d="M4.85 3.87c-.015-.01-.015-.027 0-.037a.049.049 0 0 1 .052 0c0 .001.157.11.157.224v.102c0 .015-.016.026-.036.026-.02 0-.037-.011-.037-.026v-.102c0-.092-.136-.187-.137-.187zM4.555 3.87c-.014-.01-.014-.027 0-.037a.049.049 0 0 1 .053 0c0 .001.157.11.157.224v.102c0 .015-.016.026-.036.026-.02 0-.037-.011-.037-.026v-.102c0-.092-.136-.187-.137-.187zM4.261 3.87c-.014-.01-.014-.027 0-.037a.049.049 0 0 1 .053 0c0 .001.157.11.157.224v.102c0 .015-.016.026-.036.026-.02 0-.037-.011-.037-.026v-.102c0-.092-.136-.187-.137-.187zM3.967 3.87c-.014-.01-.014-.027 0-.037a.049.049 0 0 1 .053 0c0 .001.157.11.157.224v.102c0 .015-.016.026-.036.026-.02 0-.037-.011-.037-.026v-.102c0-.092-.136-.187-.137-.187zM3.673 3.87c-.014-.01-.014-.027 0-.037a.049.049 0 0 1 .053 0c0 .001.157.11.157.224v.102c0 .015-.016.026-.036.026-.02 0-.037-.011-.037-.026v-.102c0-.092-.136-.187-.137-.187zM3.38 3.87c-.015-.01-.015-.027 0-.037a.049.049 0 0 1 .052 0c0 .001.157.11.157.224v.102c0 .015-.016.026-.036.026-.02 0-.037-.011-.037-.026v-.102c0-.092-.136-.187-.137-.187zM3.085 3.87c-.014-.01-.014-.027 0-.037a.049.049 0 0 1 .053 0c0 .001.157.11.157.224v.102c0 .015-.016.026-.037.026-.02 0-.036-.011-.036-.026v-.102c0-.092-.136-.187-.137-.187zM2.791 3.87c-.014-.01-.014-.027 0-.037a.049.049 0 0 1 .053 0c0 .001.157.11.157.224v.102c0 .015-.016.026-.037.026-.02 0-.036-.011-.036-.026v-.102c0-.092-.136-.187-.137-.187z"/><path class="fil4" d="M2.208 2.894a.47.47 0 0 1 .276.092c.082.06.15.144.194.245l.002.026a.706.706 0 0 0-.03.239c.004.085.018.176.038.27l-.001.022a.607.607 0 0 1-.19.256.473.473 0 0 1-.279.1h-.027l-.009-.026a.568.568 0 0 0-.11-.2.2.2 0 0 0-.047-.041c.002.036.008.101.016.174l.007.07-.06-.034a.57.57 0 0 1-.227-.232.706.706 0 0 1-.083-.336c0-.171.059-.326.153-.44a.492.492 0 0 1 .377-.185z"/><path d="M1.944 3.34a.252.252 0 0 0 .019-.286.483.483 0 0 0-.124.141.604.604 0 0 0-.075.198.152.152 0 0 0 .053.01c.05 0 .094-.024.127-.062z" style="fill:#3c5e19;fill-rule:nonzero"/><path d="M1.944 3.34a.173.173 0 0 0 .013-.197.333.333 0 0 0-.085.097.416.416 0 0 0-.052.136.106.106 0 0 0 .036.007.116.116 0 0 0 .088-.043z" style="fill:#263238;fill-rule:nonzero"/><path d="M2.207 4.127a.714.714 0 0 0-.14-.252.251.251 0 0 0-.058-.05c.004.044.01.126.02.218l.01.08c.06.035.12.05.179.038l-.01-.034z" style="fill:#3c5e19"/><path class="fil9" d="M2.68 3.146c.012.14.032.147.013.307a4.476 4.476 0 0 0-.023.251c-.035-.132-.026-.123-.023-.256.004-.154-.015-.164-.035-.299a.034.034 0 0 1 .069-.003zM3.1 3.135c.022.244-.025.157-.04.343a.824.824 0 0 0 .006.212c-.049-.095-.046-.103-.048-.214-.004-.192.05-.1.014-.337a.034.034 0 1 1 .069-.004zM3.517 3.149c.028.028.024.198.008.266-.019.079-.033.132-.017.212-.046-.036-.04-.122-.035-.175.02-.184-.002-.134-.022-.323a.034.034 0 1 1 .066.02zM3.938 3.124c.053.247-.076.267-.028.519-.12-.146.023-.288-.036-.493a.034.034 0 0 1 .064-.026zM4.778 3.239c.068.15.007.279.04.447-.084-.05-.028-.282-.097-.407a.034.034 0 0 1 .057-.04zM5.118 3.432c-.002.1.005.266-.028.358a1.914 1.914 0 0 1-.034-.388.034.034 0 0 1 .062.03zM4.341 3.153c.052.157-.022.278-.008.449-.078-.059.003-.284-.052-.415a.034.034 0 1 1 .06-.034z"/><circle class="fil10" cx="3.26" cy="3.18" r=".065"/><circle class="fil10" cx="3.26" cy="3.369" r=".048"/><circle class="fil10" cx="3.26" cy="3.558" r=".031"/><circle class="fil10" cx="3.686" cy="3.18" r=".065"/><circle class="fil10" cx="4.112" cy="3.18" r=".065"/><circle class="fil10" cx="4.53" cy="3.2" r=".065"/><circle class="fil10" cx="4.93" cy="3.343" r=".045"/><circle class="fil10" cx="5.185" cy="3.536" r=".025"/><circle class="fil10" cx="3.686" cy="3.369" r=".048"/><circle class="fil10" cx="4.112" cy="3.369" r=".048"/><circle class="fil10" cx="4.53" cy="3.389" r=".048"/><circle class="fil10" cx="4.93" cy="3.474" r=".033"/><circle class="fil10" cx="5.185" cy="3.611" r=".019"/><circle class="fil10" cx="3.686" cy="3.558" r=".031"/><circle class="fil10" cx="4.112" cy="3.558" r=".031"/><circle class="fil10" cx="4.53" cy="3.578" r=".031"/><circle class="fil10" cx="4.93" cy="3.606" r=".022"/><circle class="fil10" cx="5.185" cy="3.685" r=".012"/><circle class="fil10" cx="2.86" cy="3.18" r=".065"/><circle class="fil10" cx="2.86" cy="3.369" r=".048"/><circle class="fil10" cx="2.86" cy="3.558" r=".031"/></g></svg>