<svg xmlns="http://www.w3.org/2000/svg" viewBox="0 0 300 300" xml:space="preserve"><path fill-rule="evenodd" clip-rule="evenodd" fill="#FEC578" d="M215.754 152.145c-5.079-44.646-29.173-65.787-72.283-63.543-32.953.709-52.677 21.85-58.228 63.661 31.417 5.433 52.677 27.283 64.961 65.669 15.235-41.693 37.086-63.661 65.55-65.787z"/><path fill-rule="evenodd" clip-rule="evenodd" fill="#F0AC54" d="M44.495 239.192h72.52c.591-2.244 1.417-4.488 2.48-6.85 5.787-12.756 16.772-25.748 23.858-32.48-2.835-6.142-6.024-11.575-9.331-16.535-8.622-12.638-19.134-21.378-31.299-26.339-5.433-2.244-11.22-3.661-17.244-4.37-1.181 9.094-1.654 19.134-1.181 30-.473 29.29-16.418 52.558-39.803 56.574M157.644 199.861c2.835-6.142 5.906-11.575 9.331-16.535 8.622-12.638 19.016-21.378 31.181-26.339 5.433-2.244 11.22-3.661 17.362-4.37 1.181 9.094 1.654 19.134 1.181 30 .473 29.291 16.299 52.559 39.803 56.575h-72.638c-.472-2.244-1.299-4.488-2.362-6.85-5.787-12.756-16.771-25.748-23.858-32.481z"/><path fill-rule="evenodd" clip-rule="evenodd" fill="#FEC578" d="M216.345 160.058c.59 7.087.709 14.646.354 22.559.473 29.291 16.299 52.559 39.803 56.575h-72.638c-.472-2.244-1.299-4.488-2.362-6.85-3.543-7.677-8.74-15.236-13.937-21.614-.709-1.89-1.654-3.425-2.717-4.37 2.835-6.142 6.024-11.693 9.449-16.654 8.622-12.52 19.016-21.378 31.181-26.339 3.426-1.417 7.087-2.48 10.867-3.307z"/><path fill-rule="evenodd" clip-rule="evenodd" fill="#EC3D4A" d="M150.439 141.042c-17.126-36.26-17.126-79.724 0-115.984 17.245 36.26 17.245 79.724 0 115.984z"/><path fill-rule="evenodd" clip-rule="evenodd" fill="#FFF" d="M187.29 165.137c4.37-3.189 8.976-5.787 14.055-7.795 1.772 2.48 2.126 5.787.709 8.504-1.417 2.953-4.488 4.725-7.677 4.488-3.19-.118-6.024-2.244-7.087-5.197z"/><path fill="#9E5B25" d="M202.526 155.688c1.299 1.535 2.126 3.425 2.362 5.315.236 1.89-.118 3.898-.945 5.787-.945 1.772-2.362 3.307-4.016 4.252-1.772.945-3.661 1.417-5.669 1.299-2.126-.118-4.016-.827-5.551-2.008-1.535-1.181-2.716-2.835-3.425-4.724l3.78-1.299c.472 1.181 1.181 2.126 2.126 2.835.945.709 2.008 1.181 3.307 1.181 1.181.118 2.362-.236 3.425-.709.945-.709 1.89-1.535 2.362-2.598.59-1.181.709-2.362.59-3.543-.118-1.181-.59-2.244-1.417-3.189l3.071-2.599z"/><path fill-rule="evenodd" clip-rule="evenodd" fill="#9E5B25" d="M157.644 199.861c2.835-6.142 5.906-11.575 9.331-16.535v-.118c-8.15-3.307-14.173-10.512-16.535-17.598-2.244 7.087-8.268 14.173-16.417 17.598 6.732 9.449 12.283 21.024 16.654 34.725 1.772-4.724 3.543-9.213 5.551-13.465l1.772-4.252c-.12-.118-.238-.237-.356-.355z"/><path fill="#9E5B25" d="M134.849 185.097c-1.063.354-2.244-.118-2.598-1.181-.472-.945 0-2.126 1.063-2.599 3.661-1.535 6.732-3.779 9.331-6.496 2.716-2.953 4.842-6.378 5.906-9.803a2.071 2.071 0 0 1 2.598-1.299 2.338 2.338 0 0 1 1.299 1.299c1.063 3.425 3.189 6.969 6.024 9.921 2.598 2.717 5.906 5.079 9.567 6.496 1.063.472 1.535 1.653 1.181 2.598-.473 1.063-1.654 1.535-2.598 1.181-4.37-1.654-8.031-4.37-10.984-7.559-2.126-2.126-3.779-4.488-5.197-6.969-1.181 2.362-2.953 4.725-4.842 6.851-2.955 3.072-6.616 5.789-10.75 7.56z"/><path fill="#9E5B25" d="M149.022 218.168c6.496-20.551 15.354-36.378 26.339-47.598 11.221-11.457 24.567-18.071 40.158-19.842l.472 3.898c-14.646 1.772-27.284 8.031-37.677 18.661-10.63 10.866-19.134 26.22-25.512 46.181l-3.78-1.3z"/><path fill-rule="evenodd" clip-rule="evenodd" fill="#FEC578" d="M44.849 239.192h72.52c.59-2.244 1.417-4.488 2.48-6.85 3.425-7.677 8.74-15.236 13.937-21.614.709-1.89 1.535-3.425 2.599-4.37-2.835-6.142-5.906-11.693-9.331-16.654-8.622-12.52-19.016-21.378-31.299-26.339-3.425-1.417-7.087-2.48-10.748-3.307-.59 7.087-.709 14.646-.472 22.559-.355 29.291-16.3 52.559-39.686 56.575"/><path fill-rule="evenodd" clip-rule="evenodd" fill="#FFF" d="M116.306 165.137c-4.37-3.189-8.976-5.787-14.055-7.795-1.772 2.48-2.126 5.787-.709 8.504 1.417 2.953 4.488 4.725 7.677 4.488 3.189-.118 6.024-2.244 7.087-5.197z"/><path fill="#9E5B25" d="M104.14 158.286c-.827.945-1.299 2.008-1.417 3.189-.118 1.181 0 2.362.591 3.543.472 1.063 1.417 1.89 2.362 2.48 1.063.591 2.244.945 3.425.827 1.299 0 2.362-.472 3.307-1.181.945-.709 1.653-1.654 2.126-2.835l3.779 1.299c-.709 1.89-1.89 3.543-3.425 4.724s-3.425 1.89-5.551 2.008c-2.008.118-3.898-.354-5.669-1.299-1.654-.945-3.071-2.48-4.016-4.252-.827-1.89-1.181-3.898-.945-5.787.236-1.89 1.063-3.779 2.362-5.315l3.071 2.599z"/><path fill="#9E5B25" d="M148.55 219.468c-6.378-20.079-14.882-35.433-25.63-46.299-10.512-10.63-23.15-16.89-37.913-18.543l.472-4.016c15.709 1.772 29.173 8.386 40.394 19.724 11.102 11.339 19.961 27.284 26.575 47.835l-3.898 1.299z"/><path fill-rule="evenodd" clip-rule="evenodd" fill="#EC3D4A" d="M142.998 200.098c4.961 12.047 7.677 17.835 7.677 17.835.236 14.882-4.842 26.575-9.094 33.779-13.11 22.323-34.134 6.732-22.205-19.37 5.197-11.575 14.764-23.386 21.732-30.473.709-.709 1.182-1.181 1.89-1.771z"/><path fill-rule="evenodd" clip-rule="evenodd" fill="#E62936" d="M141.581 251.712c4.252-7.205 9.331-18.898 9.094-33.779 0 0-.709-1.535-2.008-4.606-.945-2.126-2.244-4.961-3.661-8.504v5.787c.236 15-4.961 26.575-9.094 33.78-6.024 10.158-13.583 12.52-19.016 9.567 3.78 10.629 15.945 12.518 24.685-2.245z"/><path fill-rule="evenodd" clip-rule="evenodd" fill="#EC3D4A" d="M158.353 200.098c-4.961 12.047-7.677 17.835-7.677 17.835-.236 14.882 4.842 26.575 9.094 33.779 13.11 22.323 34.134 6.732 22.205-19.37-5.197-11.575-14.764-23.386-21.732-30.473-.709-.709-1.182-1.181-1.89-1.771z"/><path fill-rule="evenodd" clip-rule="evenodd" fill="#E62936" d="M159.77 251.712c-4.252-7.205-9.331-18.898-9.094-33.779 0 0 .709-1.535 2.008-4.606.945-2.126 2.244-4.961 3.779-8.504v5.787c-.354 15 4.842 26.575 9.094 33.78 5.906 10.158 13.465 12.52 18.898 9.567-3.661 10.629-15.945 12.518-24.685-2.245z"/></svg>