<svg xmlns="http://www.w3.org/2000/svg" xml:space="preserve" width="655.359" height="655.359" style="shape-rendering:geometricPrecision;text-rendering:geometricPrecision;image-rendering:optimizeQuality;fill-rule:evenodd;clip-rule:evenodd" viewBox="0 0 6.827 6.827"><defs><clipPath id="id0"><path d="M3.413 0a3.413 3.413 0 1 1 0 6.827 3.413 3.413 0 0 1 0-6.827z"/></clipPath><style>.fil1{fill:#1976d2}.fil7{fill:#212121}.fil6{fill:#e1f5fe}.fil3,.fil5,.fil8{fill:#522d0c;fill-rule:nonzero}.fil5,.fil8{fill:#673b15}.fil5{fill:#78502e}</style></defs><g id="Layer_x0020_1"><path d="M3.413 0a3.413 3.413 0 1 1 0 6.827 3.413 3.413 0 0 1 0-6.827z" style="fill:#42a5f5"/><g style="clip-path:url(#id0)"><g id="_637651672"><path id="_2169335521" class="fil1" d="M2.684 2.708 6.47 6.495 2.684 2.707z"/><path id="_216933624" class="fil1" d="M2.358 3.135 6.145 6.92l-.32.38L2.04 3.516z"/><path id="_216934296" class="fil1" d="m2.04 3.515 3.785 3.787-.005.006-3.787-3.786z"/><path id="_216934368" class="fil1" d="M2.202 4.896 5.99 8.682l-.001.008L2.2 4.903z"/><path id="_216935136" class="fil1" d="M2.201 4.903 5.988 8.69l-.006.005-3.787-3.787z"/><path id="_216934992" class="fil1" d="m2.195 4.908 3.787 3.787-.21.171L1.988 5.08z"/><path id="_216935160" class="fil1" d="m1.987 5.08 3.786 3.786-.003.002-.004.002h-.011l-.003-.002-.003-.002L1.963 5.08l.003.002.003.001.004.001h.007l.003-.002z"/><path id="_216935400" class="fil1" d="m2.716 3.377 3.786 3.787-.357-.243-3.787-3.786z"/><path id="_216934800" class="fil1" d="m2.797 3.981 3.786 3.786-.464-.22L2.333 3.76z"/><path id="_216934896" class="fil1" d="M2.033 3.522 5.82 7.308h-.01L2.026 3.522z"/><path id="_216935208" class="fil1" d="M2.025 3.522 5.81 7.308h-.317L1.708 3.523z"/><path id="_216935304" class="fil1" d="M1.708 3.522 5.494 7.31H5.49l-.003-.002-.003-.002-.003-.002-3.787-3.786.003.002.004.002h.003z"/><path id="_216935352" class="fil1" d="m2.333 3.76 3.786 3.787-.13 1.135-3.787-3.786z"/><path id="_216934776" class="fil1" d="M2.836 3.343 6.622 7.13l.003.003.003.004.002.004.002.004.002.004.001.005v.004l.001.005V7.172l-.002.005-.001.005-.002.004L2.844 3.4l.002-.005.002-.004.001-.005V3.368l-.001-.005-.002-.004-.002-.004-.002-.004-.003-.004z"/><path id="_216936120" class="fil1" d="m2.844 3.4 3.787 3.786-.003.004-.003.004-.003.004-.004.003-.003.003-.004.002-.005.002-.004.002-.004.001h-.005l-.005.001H6.58l-.005-.002-.004-.001-.005-.003L2.78 3.42l.005.002.004.002h.005l.004.002h.01l.004-.001.005-.001.004-.002.004-.002.004-.002.004-.003.004-.003.003-.004.003-.004z"/><path id="_216935928" class="fil1" d="m2.78 3.42 3.785 3.786h-.002v-.001h-.001v-.001H6.56L2.774 3.417h.001v.001h.001l.001.001h.001z"/><path id="_216935784" class="fil1" d="m2.774 3.417 3.787 3.787-.06-.04-3.785-3.787z"/><path id="_216935592" class="fil1" d="m2.716 3.377 3.786 3.787.001.015.002.015.001.015.002.016.001.015.002.015.002.015.001.015.002.015.002.016.001.015.002.015.002.015.002.015.001.015.002.015.002.015.002.015.002.015.002.015.002.014.002.015.002.015.002.015.002.015.002.014.003.015.002.015.002.014.002.015.003.015.002.014-3.786-3.786-.003-.015-.002-.014-.002-.015-.002-.014-.003-.015-.002-.015-.002-.015-.002-.014-.002-.015-.002-.015-.002-.015-.002-.015-.002-.015-.002-.015-.002-.015-.002-.014-.002-.015-.002-.015-.001-.016-.002-.015-.002-.015-.002-.015-.001-.015-.002-.015-.002-.015-.001-.015-.002-.015-.001-.016-.002-.015-.001-.015-.002-.015z"/><path id="_216936072" class="fil1" d="m2.896 3.901 3.787 3.787.004.004.003.005.003.005.002.005.002.005.001.006.001.005V7.741l-.002.006L2.91 3.96l.002-.006v-.006l.001-.006V3.93l-.002-.005-.002-.006-.003-.005-.002-.005-.004-.004z"/><path id="_216935616" class="fil1" d="m2.91 3.96 3.787 3.787-.002.005-.003.006-.003.005-.004.004-.004.005-.004.003-.005.004-.004.003-.006.002-.005.002-.006.001-.005.001H6.628l-.006-.002-3.786-3.787.006.002h.006l.006.001h.006L2.865 4 2.871 4l.005-.002.005-.003.005-.003.005-.003.004-.004.004-.004.004-.004.003-.005.002-.006z"/><path id="_216935952" class="fil1" d="m2.836 4 3.786 3.786-.002-.001h-.002v-.001h-.002v-.001h-.001L2.828 3.996h.001l.001.001h.002l.001.001h.001L2.835 4z"/><path id="_216935736" class="fil1" d="m2.828 3.996 3.787 3.787-.032-.016-3.786-3.786z"/><path id="_216936192" class="fil1" d="m2.797 3.981 3.786 3.786-3.786-3.786z"/><path id="_216936240" class="fil1" d="m2.368 1.937 3.786 3.786.074.297-3.786-3.786z"/><path id="_216936336" class="fil1" d="m2.866 2.554 3.787 3.787-.004.006-.005.006-.005.005-.006.005-.006.004-.006.004-.006.003-.007.002-.007.002h-.007l-.007.001h-.008l-.007-.001-.007-.002-.007-.003-.007-.003-3.786-3.787.007.004.007.002.007.002.007.001h.022l.007-.002.006-.002.007-.003.006-.004.006-.004.006-.005.005-.005.004-.006z"/><path id="_216936360" class="fil1" d="M2.765 2.583 6.55 6.37l-.002-.001-.002-.002h-.002l-.002-.002-.002-.002-.001-.001-.002-.001-.002-.002L2.75 2.573l.002.001.001.002.002.001.002.001.002.002.002.001.002.001z"/><path id="_216936456" class="fil1" d="m2.75 2.573 3.786 3.786-.022-.021-3.787-3.786z"/><path id="_216937032" class="fil1" d="m2.727 2.552 3.787 3.786-.314-.29L2.414 2.26z"/><path id="_216936288" class="fil1" d="M2.414 2.261 6.2 6.048l-.005-.006-3.787-3.786z"/><path id="_216936696" class="fil1" d="m2.362 1.927 3.786 3.786.003.003.002.003.001.004-3.786-3.786-.002-.004-.002-.003z"/><path id="_216936408" class="fil1" d="m2.855 2.466 3.786 3.787.005.005.004.006.004.006.003.007.002.007.002.007v.007l.001.007v.007l-.002.007-.001.008-.003.007-.003.007-3.787-3.787.004-.007.002-.007.002-.007.001-.007v-.022l-.002-.007-.002-.006-.003-.007-.004-.006-.004-.006z"/><path id="_216936960" class="fil1" d="m3.699 2.286 3.786 3.786-.008-.002-.008-.002-.009-.002-.008-.002-.009-.002-.008-.002-.009-.002-.008-.002-.009-.001-.009-.002-.008-.001-.01-.002-.008-.001-.009-.002h-.009l-.009-.002-.009-.001-.009-.001-.009-.001-.009-.001-.009-.001h-.009l-.01-.002H7.266l-.009-.001h-.01l-.009-.001H7.2L3.414 2.248h.039l.008.001h.01l.01.001h.008l.01.001h.009l.009.002h.01l.008.001.01.001.008.001.01.002h.008l.009.002.009.001.009.002.008.001.01.002.008.001.008.002.009.002.009.002.008.001.009.002.008.002.008.002.009.002z"/><path id="_216936984" class="fil1" d="M3.413 2.25 7.2 6.034H7.17l-.009.001h-.019l-.009.001h-.009l-.01.001-.008.001h-.01l-.009.002H7.08l-.009.002h-.009l-.008.002h-.01l-.008.002-.009.002h-.009l-.008.002-.01.002-.008.001-.008.002-.009.002-.008.002-.009.001-.008.002-.009.002-.008.002-.008.002-.008.003-3.787-3.787.009-.002.008-.002.008-.002.009-.002.008-.002.008-.002.009-.002.008-.001.009-.002.009-.001.008-.002.009-.001.009-.002.009-.001.008-.001.01-.002h.008l.01-.002h.008l.01-.002h.008l.01-.001h.009l.009-.001.009-.001H3.366l.01-.001H3.404z"/><path id="_216936504" class="fil1" d="m3.13 2.285 3.786 3.787-.001-.001-3.786-3.786z"/><path id="_216936672" class="fil1" d="M3.129 2.285 6.915 6.07l-.013-.01-.01-.01-.01-.008-3.786-3.787.01.01.01.009z"/><path id="_655946712" class="fil1" d="M3.294 1.794 7.081 5.58H7.08v-.001h-.001L3.293 1.791v.001h.001z"/><path id="_655946400" class="fil1" d="m3.31 1.549 3.786 3.786v.002h.001v.003l-.001.001L3.31 1.555v-.006z"/><path id="_655946424" class="fil1" d="m3.31 1.555 3.786 3.786-.007.009-3.786-3.787z"/><path id="_655946232" class="fil1" d="M3.303 1.563 7.089 5.35l-.002.002-.001.002-.001.001-.001.002v.001l-.002.001-3.786-3.786v-.001l.002-.002.001-.002.001-.001.001-.001.001-.002z"/><path id="_655946376" class="fil1" d="M3.296 1.573 7.082 5.36v.002l-.002.001v.002l-.002.001v.002l-.002.002v.002l-.001.002-3.787-3.787.001-.002.001-.001.001-.002.001-.002.001-.001.001-.002.001-.001z"/><path id="_655946976" class="fil1" d="m3.288 1.586 3.787 3.787-.001.001-.001.002-.001.002-.001.002-.001.002-.001.003v.002l-.002.002-3.786-3.786V1.6l.002-.002v-.002l.001-.002.001-.002.001-.002.001-.002z"/><path id="_655946688" class="fil1" d="m3.281 1.603 3.786 3.786v.002l-.001.002-.001.003v.002l-.002.003v.005l-.002.002-3.786-3.786v-.003l.002-.002v-.005l.002-.002v-.003l.001-.002z"/><path id="_655946448" class="fil1" d="m3.275 1.622 3.786 3.786v.005l-.001.003v.005l-.001.003v.005L3.271 1.643v-.008l.001-.003v-.003l.001-.002v-.003z"/><path id="_655946496" class="fil1" d="m3.272 1.643 3.786 3.786v.022L3.272 1.664v-.019z"/><path id="_655946760" class="fil1" d="m3.272 1.664 3.786 3.787v.008l.001.002v.006l.001.002.001.003-3.786-3.787v-.002l-.001-.003v-.002l-.001-.003V1.67l-.001-.003z"/><path id="_655946256" class="fil1" d="M3.275 1.685 7.06 5.472v.002l.001.003v.002l.002.003v.002l.001.003v.002l.002.003L3.28 1.705v-.002L3.279 1.7l-.001-.002v-.002l-.001-.003-.001-.002v-.003z"/><path id="_655947696" class="fil1" d="m3.28 1.705 3.787 3.787v.002l.002.002v.002l.001.003.001.002.001.002.001.002.002.002-3.787-3.786V1.72l-.002-.002v-.003l-.002-.002v-.002l-.002-.002v-.002z"/><path id="_655947240" class="fil1" d="m3.288 1.723 3.787 3.786v.002l.002.002v.002l.002.002v.001l.002.002.001.002.001.001-3.786-3.786-.001-.002-.001-.001-.001-.002-.002-.002v-.002l-.002-.001v-.002z"/><path id="_655947456" class="fil1" d="m3.297 1.737 3.786 3.786.001.002.001.001.002.002v.001l.002.002v.001l.002.001.001.002-3.786-3.787-.001-.001-.001-.001-.001-.002H3.3v-.002l-.002-.002V1.74z"/><path id="_655947312" class="fil1" d="m3.306 1.748 3.786 3.787h.001v.002l.002.001v.001L3.31 1.753l-.001-.001-.001-.001-.001-.002z"/><path id="_655947000" class="fil1" d="M3.322 1.765 7.108 5.55 3.324 1.767v-.001h-.001z"/><path id="_655947336" class="fil1" d="m3.536 1.56 3.787 3.786.002.003.002.002.003.003.002.004.003.003.002.004-3.786-3.786-.002-.004-.003-.004-.003-.003-.002-.003-.002-.003z"/><path id="_655947504" class="fil1" d="m3.551 1.579 3.786 3.786.002.002.001.002.001.002.002.002v.002l.002.002.001.003.002.002L3.56 1.596v-.003l-.002-.002-.001-.002-.002-.002v-.002l-.002-.003-.002-.002z"/><path id="_655947192" class="fil1" d="m3.561 1.596 3.787 3.786v.002l.002.003.001.002.001.003.001.002.001.003.002.003v.002L3.57 1.616v-.003l-.002-.002v-.003l-.002-.002-.001-.003-.001-.003-.001-.002z"/><path id="_655947048" class="fil1" d="m3.57 1.616 3.787 3.786v.003l.001.003.001.003.001.003v.003l.002.003v.003l.001.003-3.786-3.787v-.003l-.002-.003V1.63l-.001-.002-.001-.003v-.003l-.002-.003z"/><path id="_655947528" class="fil1" d="m3.577 1.64 3.786 3.786v.003l.001.003v.003l.001.003v.006l.001.003v.004L3.58 1.664V1.655l-.001-.003v-.003l-.001-.004v-.003z"/><path id="_655948440" class="fil1" d="m3.58 1.664 3.786 3.787V5.476L3.579 1.69v-.004l.001-.003v-.016z"/><path id="_655948176" class="fil1" d="m3.58 1.69 3.786 3.786v.006l-.001.003v.003l-.001.003-.001.003v.003l-.001.003-3.786-3.786v-.006l.001-.003v-.003l.001-.003v-.003l.001-.003z"/><path id="_655948272" class="fil1" d="M3.576 1.714 7.362 5.5l-.001.003v.003l-.002.003v.003l-.001.002-.001.003-.001.003-.001.002-3.787-3.786.002-.002V1.73l.001-.003.001-.003.001-.002V1.72l.002-.003z"/><path id="_655948416" class="fil1" d="m3.568 1.736 3.787 3.786-.001.003-.001.002-.001.003-.001.002-.001.003-.002.002v.002l-.002.002L3.56 1.755l.001-.002.001-.002.001-.003.001-.002.001-.002.002-.003V1.74z"/><path id="_655947840" class="fil1" d="m3.56 1.755 3.786 3.786-.001.003-.001.002-.001.002-.001.002-.002.002v.001l-.002.002-.001.002L3.55 1.77V1.77l.002-.002.001-.002.001-.002.001-.002.002-.002v-.002z"/><path id="_655948080" class="fil1" d="m3.55 1.77 3.787 3.787-.001.001-.001.002-.001.002-.001.001-.001.001-.001.002H7.33l-.001.002-3.786-3.786V1.78l.001-.002.001-.001.001-.001.001-.002.002-.001v-.002z"/><path id="_655948464" class="fil1" d="m3.543 1.782 3.786 3.786-.008.01L3.535 1.79z"/><path id="_655948344" class="fil1" d="M3.535 1.791 7.32 5.577v.001h-.001L3.534 1.793z"/><path id="_655947984" class="fil1" d="M3.534 1.792 7.32 5.58l.004.005.005.006.004.007.003.006.004.006.003.007.003.007.003.007.002.007.002.008.002.007.002.008.001.008.001.008v.016L3.575 1.906v-.008l-.001-.008-.001-.008-.001-.008-.002-.008-.002-.007-.002-.008-.002-.007-.003-.007-.003-.007-.003-.007-.004-.006-.004-.007-.004-.006-.004-.006z"/><path id="_655948392" class="fil1" d="M3.643 1.957 7.43 5.744l.005.006.006.006.005.007.005.007.004.007.005.008-3.787-3.787-.004-.007-.005-.007-.005-.007-.005-.007-.005-.006z"/><path id="_655948128" class="fil1" d="M3.673 1.998 7.46 5.785l.002.004.002.004.002.004.002.004.002.005.002.004.002.004.002.005.002.005.001.004.002.005.002.004.001.005.001.005.002.005.001.005.001.005.002.005v.005l.002.005v.005l.002.005v.005l.001.006v.005l.002.005v.011l.001.006v.005l.001.006v.005L3.715 2.155v-.017l-.001-.005-.001-.006v-.005l-.001-.005-.001-.006v-.005l-.002-.005v-.005l-.002-.006v-.005l-.002-.005v-.005l-.002-.005-.001-.004-.002-.005-.001-.005-.002-.005-.001-.005-.002-.004-.002-.005-.001-.004-.002-.005-.002-.004-.002-.005-.002-.004-.002-.004-.002-.004-.002-.005z"/><path id="_655949184" class="fil1" d="M3.714 2.155 7.501 5.94 3.714 2.157z"/><path id="_655949040" class="fil1" d="M3.737 2.173 7.523 5.96l.002.002.002.003-3.786-3.786-.002-.003z"/><path id="_655949112" class="fil1" d="m3.741 2.179 3.786 3.786.004.005.003.005.003.006.001.005.002.006v.012l-.002.006-.002.007-.003.006-.005.008-.005.007-.007.008-.009.008-.01.008-.01.009L3.7 2.285l.011-.01.01-.008.008-.008.007-.007.006-.008.004-.007.004-.007.002-.006.001-.007V2.2l-.003-.006-.002-.005-.003-.005z"/><path id="_655948632" class="fil1" d="M3.7 2.285 7.486 6.07 3.698 2.287v-.001H3.7z"/><path id="_655948656" class="fil1" d="m4.1 2.552 3.786 3.786-.023.021-3.786-3.786z"/><path id="_655948776" class="fil1" d="m4.077 2.573 3.786 3.786-.006.005-.006.004-.007.004-.007.003-.006.002-.008.001h-.007l-.007.001h-.007l-.007-.002-.007-.002-.007-.003-.006-.003-.006-.004-.006-.005-.006-.005L3.971 2.57l.005.005.006.005.006.004.007.003.007.003.007.002.007.001h.021l.007-.002.007-.002.007-.003.006-.003.007-.004z"/><path id="_655948560" class="fil1" d="m4.492 1.929 3.786 3.786.002.003.002.003v.011L4.496 1.946v-.011l-.002-.004z"/><path id="_655948584" class="fil1" d="m4.496 1.946 3.786 3.786-.076.305L4.42 2.25z"/><path id="_655948824" class="fil1" d="m4.42 2.25 3.786 3.787-.001.005-3.787-3.786z"/><path id="_655948944" class="fil1" d="m4.418 2.256 3.787 3.786-.006.006L4.412 2.26z"/><path id="_655948992" class="fil1" d="M4.412 2.261 8.2 6.048l-.313.29-3.787-3.786z"/><path id="_655949520" class="fil1" d="M5.132 3.49 8.92 7.276l.002.003.002.003v.004l.001.003-3.786-3.786V3.5l-.002-.003-.001-.003z"/><path id="_655949424" class="fil1" d="M5.138 3.503 8.924 7.29v.004l-.001.004-.002.003-.003.003-.002.002-.004.002-.003.001h-.004L5.119 3.523h.004l.003-.001.003-.002.003-.002.003-.003.001-.003.001-.004z"/><path id="_655949976" class="fil1" d="M4.468 3.135 8.255 6.92l-.354.24-3.786-3.786z"/><path id="_655950024" class="fil1" d="m4.802 3.522 3.786 3.786H8.58L4.793 3.522z"/><path id="_655949472" class="fil1" d="m4.477 3.085 3.786 3.787.01.011-3.786-3.786z"/><path id="_655949832" class="fil1" d="m4.114 3.375 3.787 3.786-.062.043-3.787-3.787z"/><path id="_655949640" class="fil1" d="m4.526 3.707 3.787 3.786.002.023L4.53 3.73z"/><path id="_655949568" class="fil1" d="M4.052 3.417 7.84 7.204l-.005.002-.004.002-.005.002-.004.001h-.005l-.004.001h-.01l-.004-.002-.005-.001-.004-.002-.004-.003-.004-.003-.003-.003-3.786-3.786.003.003.004.003.004.002.004.002.005.002h.004l.005.001H4.035l.004-.001.005-.002.004-.002z"/><path id="_655949736" class="fil1" d="m4.039 3.977 3.786 3.786-3.786-3.786z"/><path id="_655949808" class="fil1" d="m4.039 3.977 3.786 3.786-.04.02-3.787-3.787z"/><path id="_655950192" class="fil1" d="m3.998 3.996 3.787 3.787-.004.002-.007.004-.009.007-.011.008-.013.01-.015.012-.017.012-.018.014-.02.015-.02.016-.021.017-.023.017-.022.018-.024.018-.024.018-.023.019-.024.018-.024.018-.023.017-.023.017-.022.016-.02.016-.02.014-.02.013-.016.012-.016.01-.014.009-.012.007-.01.005-.008.003h-.008L3.468 4.377l.003.001h.005l.008-.003.01-.005.012-.007.014-.01.015-.01.018-.011.018-.013.02-.015.021-.015.022-.016.023-.017.023-.017.023-.018.024-.019.024-.018.024-.018.023-.018.023-.018.023-.017.021-.017.02-.016.02-.015.018-.014.017-.013.015-.011.013-.01.01-.008.01-.007L3.994 4z"/><path id="_655950312" class="fil1" d="m4.631 4.908 3.787 3.787-.006-.005-3.787-3.787z"/><path id="_655950144" class="fil1" d="M4.115 3.375 7.9 7.161l-.002.016v.015l-.002.016-.002.015-.001.015-.002.015-.001.016-.002.015-.001.015-.002.015-.001.015-.002.016-.002.015-.001.015-.002.015-.002.015-.002.015-.001.015-.002.015-.002.014-.002.015-.002.015-.002.015-.002.014-.002.015-.002.015-.002.014-.002.015-.002.015-.002.014-.002.014-.002.015-3.786-3.786.002-.015.002-.014.002-.015.002-.014.002-.015.002-.014.002-.015.002-.015.002-.014.002-.015.002-.015.002-.015.002-.015.001-.015.002-.015.002-.015.002-.014.001-.016.002-.015.002-.015.001-.015.002-.015.002-.015.001-.015.002-.016.001-.015.002-.015.001-.015.001-.016.002-.015.001-.016z"/><path id="_655950552" class="fil1" d="M4.494 3.76 8.28 7.547l-.455.216-3.786-3.786z"/><path id="_655950168" class="fil1" d="m4.529 3.73 3.786 3.786.133 1.154L4.66 4.884z"/><path id="_655950744" class="fil1" d="m4.84 5.08 3.786 3.786-.208-.171L4.63 4.908z"/><path id="_655950576" class="fil1" d="m4.867 5.077 3.786 3.787-.003.002-.003.002-.003.002h-.011l-.004-.002-.003-.002L4.84 5.08l.003.002.004.001.003.001h.008l.003-.002.003-.002z"/><path id="_655950408" class="fil1" d="M4.864 5.05 8.65 8.837l.003.002.002.004.002.003v.011l-.002.003-.002.004-3.786-3.787.002-.003.001-.003.001-.004V5.06l-.002-.004-.002-.003z"/><path id="_655950768" class="fil1" d="m4.487 3.097 3.786 3.786.324.387-3.786-3.786z"/><path id="_655950672" class="fil1" d="M5.119 3.522 8.905 7.31h-.317L4.802 3.521z"/><path id="_637653112" class="fil1" d="M2.684 2.708zm.113 1.273-.464-.22-.13 1.135-.002.007-.006.005-.208.172a.02.02 0 0 1-.024-.03l.202-.166.133-1.154.002-.023.024.007.451.142a7.447 7.447 0 0 1-.06-.479l-.357-.242-.319.38-.006.007h-.325a.02.02 0 0 1 0-.038h.308l.324-.387.01-.012.015.008.342.18.117.062a.048.048 0 1 1-.05.082l-.058-.04c.015.163.035.324.06.479l.096.03a.06.06 0 1 1-.044.11l-.031-.015zm.022-1.539.018.01a.075.075 0 1 1-.087.12l-.023-.02-.313-.29-.006-.006-.001-.005-.076-.305a.02.02 0 0 1 .037-.01l.074.298.377.208zm.88-.156a1.107 1.107 0 0 0-.57 0v-.001c-.072-.054-.062-.09-.038-.123a.242.242 0 0 1 .013-.016.063.063 0 0 0 .013-.016.323.323 0 0 1 .045-.141.224.224 0 0 1 .093-.083c0-.043.016-.082.04-.112a.02.02 0 0 1-.003-.003l-.008-.01a.09.09 0 0 1-.008-.01l-.01-.016a.13.13 0 0 1-.008-.019l-.007-.022-.004-.024v-.026c0-.008.001-.017.003-.025.001-.008.004-.015.006-.023l.01-.02a.145.145 0 0 1 .029-.04l.007-.008a.005.005 0 0 1 .008.007l-.007.008a.07.07 0 0 0-.007.01l-.008.013a.109.109 0 0 0-.007.017c-.003.005-.004.012-.006.019-.001.007-.003.013-.003.02v.022c0 .007.001.015.003.021 0 .007.003.014.005.02l.008.018.01.014.008.011a.062.062 0 0 0 .007.008l.007.007.001.001.002.002a.15.15 0 0 1 .105-.032.15.15 0 0 1 .077.03l.002-.001.007-.007a.062.062 0 0 0 .007-.008l.009-.011a.099.099 0 0 0 .008-.014c.004-.006.006-.012.008-.018.002-.006.005-.013.006-.02.002-.006.002-.014.003-.02v-.022c0-.008-.002-.014-.003-.021l-.006-.02a.109.109 0 0 0-.008-.016l-.007-.013a.07.07 0 0 0-.007-.01l-.007-.008a.005.005 0 0 1 .008-.007l.007.008a.145.145 0 0 1 .03.04l.008.02.007.023c.002.008.002.017.003.025v.026l-.004.024c-.003.008-.004.015-.008.022a.13.13 0 0 1-.008.02l-.01.014a.09.09 0 0 1-.007.012l-.008.009-.001.001c.024.03.04.07.04.114a.224.224 0 0 1 .1.092.353.353 0 0 1 .04.157c0 .002.004.002.009.005.006.006.012.011.018.019.02.026.023.058-.04.106h-.002zm.4.266-.022.02a.075.075 0 1 1-.088-.12l.019-.01.377-.208.074-.297a.02.02 0 0 1 .037.009l-.076.305-.002.005-.006.005-.313.29zm.712.932h.308a.019.019 0 0 1 0 .038h-.326l-.005-.007-.32-.38-.353.24a7.398 7.398 0 0 1-.056.479l.444-.14.023-.007.003.023.132 1.154.203.166a.019.019 0 1 1-.024.03l-.209-.172-.006-.005v-.007l-.13-1.136-.456.217-.04.02c-.03.013-.517.41-.531.38-.014-.029.45-.474.48-.488a.058.058 0 0 1 .007-.003l.103-.032a7.39 7.39 0 0 0 .056-.479l-.062.042a.048.048 0 1 1-.05-.082l.12-.063.34-.179.015-.008.01.012.324.387z"/></g></g><path d="M3.413 0a3.413 3.413 0 1 1 0 6.827 3.413 3.413 0 0 1 0-6.827z" style="fill:none"/><path class="fil3" d="m2.75 2.573-.336-.312-.006-.005-.001-.005-.076-.305a.02.02 0 0 1 .037-.01l.076.305-.007-.01.4.222a.075.075 0 1 1-.087.12zM2.774 3.417l-.429-.291.024-.004-.33.393-.006.007h-.325a.02.02 0 0 1 0-.038h.317l-.015.007.33-.394.01-.012.015.008.459.242a.048.048 0 1 1-.05.082zM2.828 3.996 2.31 3.75l.026-.015-.134 1.162v.007l-.007.005-.208.172a.02.02 0 0 1-.024-.03l.208-.171-.007.012.134-1.161.002-.023.024.007.548.172a.06.06 0 1 1-.044.11zM4.003 3.335l.46-.242.014-.008.01.012.33.394-.015-.007h.317a.019.019 0 0 1 0 .038h-.326l-.005-.007-.33-.393.024.004-.43.291a.048.048 0 1 1-.05-.082zM3.955 3.886l.548-.172.023-.007.003.023.133 1.161-.007-.012.21.171a.019.019 0 1 1-.025.03l-.209-.172-.006-.005v-.007L4.49 3.734l.026.015-.519.247a.06.06 0 1 1-.043-.11zM3.99 2.453l.4-.222-.007.01.076-.304a.02.02 0 0 1 .037.009l-.076.305-.002.005-.006.005-.335.312a.075.075 0 1 1-.088-.12z"/><path d="M4.143 2.708c0 1.294-.327 2.572-.73 2.572-.403 0-.73-1.38-.73-2.572 0-.253.327-.459.73-.459.403 0 .73.206.73.46z" style="fill:#5e3b1c;fill-rule:nonzero"/><path class="fil5" d="M3.031 2.317c-.208.081-.347.226-.347.391 0 .783.141 1.648.352 2.149.206-.482.343-1.312.343-2.149 0-.165-.14-.31-.348-.39zM3.795 2.317c-.208.081-.347.226-.347.391 0 .783.141 1.648.352 2.149.206-.482.343-1.312.343-2.149 0-.165-.14-.31-.348-.39z"/><path class="fil3" d="M3.574 1.906a.224.224 0 0 1 .1.092.353.353 0 0 1 .04.157c0 .002.004.002.009.005.006.006.012.011.018.019.02.026.023.058-.04.106a.47.47 0 0 1-.282.086.499.499 0 0 1-.29-.086c-.072-.054-.062-.09-.038-.123a.242.242 0 0 1 .013-.016.063.063 0 0 0 .013-.016.323.323 0 0 1 .045-.141.224.224 0 0 1 .093-.083c0-.045.017-.085.042-.116a.155.155 0 0 1 .131-.056c.04.004.077.025.104.056.025.03.041.07.042.116z"/><ellipse class="fil6" transform="scale(.60648) rotate(19.201 -7.378 17.56)" rx=".123" ry=".181"/><ellipse class="fil6" transform="matrix(-.57274 .19946 .19946 .57274 3.573 2.064)" rx=".123" ry=".181"/><ellipse class="fil7" transform="matrix(.35474 .12354 -.12354 .35474 3.254 2.064)" rx=".123" ry=".181"/><ellipse class="fil7" transform="matrix(-.35474 .12354 .12354 .35474 3.573 2.064)" rx=".123" ry=".181"/><path class="fil8" d="m3.525 1.548.007.008a.145.145 0 0 1 .03.04l.008.02.007.023c.002.008.002.017.003.025v.026l-.004.024c-.003.008-.004.015-.008.022a.13.13 0 0 1-.008.02l-.01.014a.09.09 0 0 1-.007.012l-.008.009a.02.02 0 1 1-.03-.027l.002-.001.007-.007a.062.062 0 0 0 .007-.008l.009-.011a.099.099 0 0 0 .008-.014c.004-.006.006-.012.008-.018.002-.006.005-.013.006-.02.002-.006.002-.014.003-.02v-.022c0-.008-.002-.014-.003-.021l-.006-.02a.109.109 0 0 0-.008-.016l-.007-.013a.07.07 0 0 0-.007-.01l-.007-.008a.005.005 0 0 1 .008-.007zM3.302 1.548l-.008.008a.145.145 0 0 0-.029.04l-.009.02c-.002.008-.005.015-.006.023-.002.008-.003.017-.003.025v.026c0 .008.003.016.004.024l.007.022a.13.13 0 0 0 .009.02l.009.014a6.903 6.903 0 0 0 .016.02.02.02 0 1 0 .03-.026l-.002-.001-.007-.007a.062.062 0 0 1-.007-.008l-.009-.011a.099.099 0 0 1-.009-.014l-.008-.018-.005-.02c-.002-.006-.002-.014-.003-.02v-.022c0-.008.002-.014.003-.021.002-.007.003-.014.006-.02a.109.109 0 0 1 .007-.016l.008-.013a.07.07 0 0 1 .007-.01l.007-.008a.005.005 0 0 0-.008-.007z"/></g></svg>