<svg xmlns="http://www.w3.org/2000/svg" xml:space="preserve" width="655.359" height="655.359" style="shape-rendering:geometricPrecision;text-rendering:geometricPrecision;image-rendering:optimizeQuality;fill-rule:evenodd;clip-rule:evenodd" viewBox="0 0 6.827 6.827"><defs><clipPath id="id0"><path d="M3.413 0a3.413 3.413 0 1 1 0 6.827 3.413 3.413 0 0 1 0-6.827z"/></clipPath><style>.fil5{fill:#130f0f}.fil1{fill:#5e35b1}.fil13{fill:#616161}.fil11{fill:#ab7165}.fil3{fill:#d5d5d4}.fil7{fill:#fafafa}.fil9{fill:#130f0f;fill-rule:nonzero}</style></defs><g id="Layer_x0020_1"><path d="M3.413 0a3.413 3.413 0 1 1 0 6.827 3.413 3.413 0 0 1 0-6.827z" style="fill:#9575cd"/><g style="clip-path:url(#id0)"><g id="_637655848"><path id="_6376509041" class="fil1" d="M5.064 2.727 8.85 6.514v.005l-.001.003V6.54l-.001.005v.011l-.001.005v.005l-.001.005v.005l-.001.005-.001.005v.005l-.001.004-.001.005v.005l-.002.005v.005l-.001.004-.001.005v.005l-.002.004v.005l-.002.004v.005l-.002.004v.005l-.002.004-.001.004-.001.004-.001.004-.002.005L5.04 2.89l.001-.004.001-.004.002-.004v-.004l.002-.005v-.004l.002-.004.001-.005v-.004l.002-.005v-.005l.002-.004v-.005l.001-.005.001-.004.001-.005v-.005l.001-.005.001-.005V2.8l.001-.005V2.79l.001-.005V2.78l.001-.005V2.77l.001-.005v-.01l.001-.005V2.733l.001-.003v-.002z"/><path id="_637651648" class="fil1" d="m5.04 2.891 3.785 3.787v.003l-.001.003v.002l-.002.003v.003l-.001.003-.001.004-.001.004-.001.004-.001.004-.001.004-.001.005-.001.005-.001.005-.002.005v.005l-.002.006-.001.006-.002.005-.001.006-.001.006-.002.007-.001.006-.002.006v.007l-.002.006-.002.007-.001.007-.002.007-.001.007-.002.007-3.786-3.787.002-.007.001-.007.002-.006v-.007l.002-.007.002-.006.001-.007.002-.006.001-.007.001-.006.002-.006.001-.006.001-.006.002-.005v-.006l.002-.005.001-.005.001-.005.002-.005v-.005l.002-.004V2.92l.002-.004v-.003l.001-.004.001-.003.001-.003V2.9l.001-.003.001-.002v-.002z"/><path id="_637653616" class="fil1" d="m4.966 3.26 3.787 3.787-.001.018-.002.016v.017l-.002.016v.016l-.002.015v.015l-.002.014v.014l-.001.014-.001.013-.001.013v.013l-.002.012v.012l-.001.012v.011l-.001.011-.001.01v.011l-.001.01v.01l-.001.01v.01l-.001.008v.009l-.001.008v.009l-.001.008v.008l-.001.007v.008L4.943 3.639V3.63l.001-.007v-.008l.001-.008V3.59l.001-.01v-.008l.001-.01v-.009l.002-.01v-.02l.001-.011.001-.011V3.49l.001-.012.001-.012v-.012l.002-.013V3.43l.001-.013.001-.014.001-.014.001-.014v-.015l.002-.016.001-.015.001-.016.001-.017.001-.017z"/><path id="_637653856" class="fil1" d="m5.117 2.763 3.786 3.786-.005-.006-.005-.005-.005-.004-.005-.004-.005-.004-.006-.004-.005-.004-.006-.004-.007-.003-3.786-3.787.006.004.006.004.006.004.006.003.005.004.005.005.005.004.005.005z"/><path id="_637653952" class="fil1" d="m5.068 2.724 3.786 3.787-.004-.003-3.787-3.786z"/><path id="_637654240" class="fil1" d="M5.063 2.722 8.85 6.508v.006L5.064 2.728v-.005z"/><path id="_637654504" class="fil1" d="M5.064 2.728 8.85 6.514v.001l.001.002v.002L5.065 2.735v-.005z"/><path id="_637654144" class="fil1" d="M5.003 3.05 8.79 6.835v.003l-.001.004v.004l-.002.004v.003l-.001.004-.001.004v.004l-.002.004v.003l-.001.004v.004l-.002.004v.004l-.001.003v.004L4.99 3.11v-.004l.001-.004.001-.003v-.004l.002-.004v-.004l.001-.004V3.08l.002-.004v-.004L5 3.068 5 3.064v-.003l.002-.004v-.004z"/><path id="_637654000" class="fil1" d="m4.99 3.11 3.787 3.786-.001.006-.001.006-.001.006-.001.005-.001.006-.002.006v.005l-.002.006v.005l-.002.006v.005l-.001.005-.001.006-.001.005-.001.005v.005l-.002.005v.004l-.001.005v.005l-.002.004v.008l-.001.005v.004l-.001.003v.004l-.001.004v.006l-.001.003v.003L4.966 3.261v-.006l.001-.003v-.004l.001-.003v-.008l.001-.004.001-.004v-.004l.001-.004v-.005l.002-.004v-.005l.001-.005v-.005l.002-.005v-.005l.001-.005.001-.005.001-.005.001-.006.001-.005.001-.005.001-.006.001-.006.001-.005.001-.006.001-.006.002-.005v-.006z"/><path id="_637654720" class="fil1" d="m5.279 3.17 3.786 3.786v.034l-.001.016v.041l-.001.023v.026l-.001.026v.028l-.001.03-.001.03-.001.03-.001.032-.002.031v.032l-.003.031-.001.031-.002.03-.002.03-.003.028-.002.027-.003.025-.003.024-.004.021-.003.02-.004.017-.004.014-.005.012-.005.008-.005.005-.005.002-3.787-3.786.006-.002.005-.005.005-.008.004-.012.005-.014.003-.017.004-.02.003-.021.004-.024.002-.026.003-.026.002-.029.002-.03.002-.03.002-.03.002-.031.001-.032.001-.031.002-.032v-.03l.001-.03.001-.03v-.028l.001-.027v-.025l.001-.023V3.22l.001-.017V3.18z"/><path id="_637654048" class="fil1" d="M5.215 3.874 9.002 7.66H9l-.002-.002-3.786-3.786.001.001z"/><path id="_637654312" class="fil1" d="M4.943 3.639 8.73 7.425v.01l-.001.006V7.455l-.001.005V7.474l-.001.004v.017l-.001.005L4.94 3.713v-.025l.001-.005V3.669l.001-.005V3.65l.001-.005z"/><path id="_637655128" class="fil1" d="M4.94 3.713 8.726 7.5v.017l-.001.008v.008l-.001.008v.016l-.001.008v.008l-.001.008v.008l-.001.008v.008l-.001.008v.008l-.001.009v.008l-.001.01-.001.009v.009l-.002.01v.01l-.001.01-.001.011-.001.012-.001.012-.001.012-.001.013-.001.013-.002.014v.014l-.002.016-3.787-3.787.002-.015.001-.014.001-.014.002-.014v-.012l.002-.013v-.011l.002-.012v-.01l.001-.011.001-.01.001-.01v-.01l.001-.009.001-.009v-.009l.001-.008v-.008l.001-.009V3.81l.001-.008v-.007l.001-.008V3.77l.001-.008v-.008l.001-.008v-.016l.001-.009z"/><path id="_637654984" class="fil1" d="m4.557 3.726 3.786 3.786-3.787-3.786z"/><path id="_637655344" class="fil1" d="m4.229 3.528 3.786 3.787-.007.003-.007.004-.006.004-.007.004-.007.003-.007.004-.007.004-.006.003-.007.004-.006.003-.007.003-.006.004-.006.003-.006.003-.006.003-.006.003-.006.003-.005.003-.005.003-.005.002-.005.003-.005.002-.004.002-.004.002-.004.002-.004.002-.003.001-.003.002h-.003l-.002.002h-.004L4.062 3.615h.002l.002-.002h.003l.002-.002.003-.001.004-.002.003-.001.004-.002.004-.002.005-.002.004-.003.005-.002.005-.003.006-.002.005-.003.006-.003.006-.003.005-.003.007-.003.006-.003.006-.004.006-.003.007-.004.007-.003.006-.004.007-.003.007-.004.006-.004.007-.003.007-.004.007-.004z"/><path id="_637654840" class="fil1" d="M4.341 3.744 8.127 7.53h-.012l-.004-.002h-.003l-.004-.002h-.003l-.004-.002-.003-.002-.003-.001-.003-.002-.003-.002-.003-.003-.002-.002-.003-.003-3.786-3.786.002.003.003.002.003.002.003.002.003.002.003.002.003.002.003.001.004.001.003.001.004.001h.004l.004.001h.004z"/><path id="_637655368" class="fil1" d="M4.891 4.325 8.678 8.11l.001.01-3.786-3.787z"/><path id="_637654912" class="fil1" d="M4.062 3.614 7.85 7.4h-.003l-.002.001-.003.001-.002.001h-.003l-.003.002h-.002l-.003.002L4.042 3.62h.002l.003-.002h.003l.003-.001.002-.001h.003l.002-.002z"/><path id="_637654792" class="fil1" d="m4.042 3.62 3.786 3.787-.004.001-.004.001-.004.002-.004.001-.004.002-.004.001-.004.002-.004.001L4.01 3.632l.004-.002.004-.001.004-.002.004-.001.004-.002h.004l.004-.002z"/><path id="_637656088" class="fil1" d="m2.526 2.257 3.786 3.786.003.003L2.529 2.26z"/><path id="_637656208" class="fil1" d="m2.529 2.26 3.786 3.786.001.002.001.001v.002h.001v.001L2.533 2.266v-.002l-.001-.001-.001-.002z"/><path id="_637655920" class="fil1" d="M2.532 2.266 6.32 6.052l.001.003.001.003.001.003v.003l.001.003v.01L2.537 2.29V2.278l-.001-.003-.001-.003-.001-.003z"/><path id="_637655944" class="fil1" d="m3.847 3.672 3.786 3.786h-.019l-.003.001H7.499l-.005-.001-3.786-3.786H3.755l.005.001H3.843z"/><path id="_637656112" class="fil1" d="m3.708 3.672 3.786 3.786H7.48l-.005-.001h-.01l-.005-.001h-.01l-.004-.001H7.44l-.005-.001H7.427l-.005-.001-.005-.001h-.004l-.005-.001h-.005L7.4 7.45h-.005l-.004-.002h-.004l-.005-.001h-.004l-.004-.002h-.004l-.004-.001-.005-.001h-.004l-.003-.002h-.004L3.562 3.653h.004l.004.002h.004l.004.002h.004l.005.001.004.001h.004l.004.001.005.001h.004l.005.001.004.001h.005l.004.001h.005l.005.001h.004l.005.001h.005l.004.001h.005l.005.001h.01l.005.001H3.693l.005.001h.005z"/><path id="_637656136" class="fil1" d="m4.506 4.478 3.786 3.787-.004-.001h-.004l-.005-.001-.004-.001h-.004l-.004-.002h-.004l-.004-.002h-.004l-.004-.002-.003-.001-.004-.002-.003-.001-.004-.002-.003-.002-.003-.002L4.445 4.46l.003.002.003.002.004.001.003.002.004.001.003.002h.004l.004.002.004.001.004.001h.004l.004.002h.004l.004.001h.004z"/><path id="_637655728" class="fil1" d="m4.577 4.572 3.786 3.786-.005-.004-.005-.005-3.786-3.786.005.005z"/><path id="_637656856" class="fil1" d="m4.586 4.49 3.786 3.786h-.008l-.004-.001h-.005l-.006-.001-.006-.001-.006-.001-.005-.001-.006-.001-.006-.001-.006-.001H8.31l-.005-.002h-.005l-.004-.001h-.003L4.506 4.478h.003l.004.001.004.001h.005l.006.002h.005l.006.002h.006l.006.002h.006l.006.001.005.001h.005l.005.001h.004z"/><path id="_637656664" class="fil1" d="m4.638 4.597 3.786 3.786-.004-.001h-.005l-.004-.002-.005-.001-.004-.001-.004-.001-.004-.002-.004-.001-.004-.002-.003-.002-.004-.002-.003-.001-.004-.002-.003-.002-.003-.003-.003-.002-3.786-3.786.003.002.003.002.003.002.003.002.004.002.003.002.004.002.004.001.004.002.004.001.004.002h.004l.005.002h.004l.004.002z"/><path id="_637656952" class="fil1" d="M4.403 4.423 8.19 8.209 4.402 4.423z"/><path id="_637656784" class="fil1" d="m4.445 4.46 3.786 3.786-.006-.003-.006-.005-.006-.004-.005-.004-.005-.005-3.787-3.786.006.004.005.005.006.004.006.004z"/><path id="_637656280" class="fil1" d="m4.556 3.726 3.786 3.786v.001L4.554 3.727z"/><path id="_637656400" class="fil1" d="m4.555 3.727 3.786 3.786-3.786-3.785z"/><path id="_637656568" class="fil1" d="m4.557 3.728 3.786 3.786v.002L4.557 3.73v-.001z"/><path id="_637657384" class="fil1" d="m4.557 3.73 3.786 3.786L4.557 3.73z"/><path id="_637657168" class="fil1" d="m4.43 3.67 3.787 3.787-.002-.002-.002-.002-.002-.001-.002-.002-.002-.002-.002-.001-.002-.002-.001-.002-3.787-3.786.002.002.002.001.002.002.002.002.002.001.002.002.002.002z"/><path id="_637657432" class="fil1" d="m4.277 3.609 3.786 3.786-3.786-3.786z"/><path id="_637657360" class="fil1" d="m4.415 3.657 3.787 3.786v.002l-.001.001v.003L8.2 7.45v.004L4.412 3.668v-.004l.001-.001V3.66l.001-.002z"/><path id="_637657672" class="fil1" d="M4.412 3.674 8.198 7.46l-.001.007-.002.006-.002.007-.001.006-.003.007-.002.006-.003.005-.003.006-.004.005-.005.004-.005.004-.006.003-.007.002-.008.002h-.019L4.341 3.744h.019l.007-.002.007-.002.006-.004.006-.003.004-.005.004-.005.004-.005.003-.006.002-.006.002-.006.002-.006.002-.007.001-.007z"/><path id="_637657408" class="fil1" d="m4.413 3.668 3.786 3.786v.002L4.413 3.669z"/><path id="_637657264" class="fil1" d="m4.413 3.67 3.786 3.786v.003L4.411 3.672z"/><path id="_637658056" class="fil1" d="M4.412 3.672 8.198 7.46v.001L4.412 3.674z"/><path id="_637657840" class="fil1" d="m4.557 3.73 3.786 3.786-.001.004-.002.003-.001.004-.002.004-.002.004-.002.003-.002.004-.002.004-.003.003-.002.004-.003.003-.003.003-.003.003-.004.003-.004.003-.004.002-3.787-3.786.005-.002.004-.003.003-.003.004-.003.003-.003.003-.004.002-.003.003-.004.002-.003.002-.004.002-.004.002-.003.001-.004.002-.004.001-.003z"/><path id="_637658080" class="fil1" d="M4.516 3.784 8.303 7.57l-.005.003-.004.001-.004.002-.004.001-.004.001-.004.001h-.02l-.003-.001-.004-.001-.004-.002-.003-.002-.004-.002-3.786-3.786.003.002.004.002.004.001.003.002h.004l.004.001h.019L4.5 3.79l.004-.001.004-.002.004-.002z"/><path id="_637658392" class="fil1" d="M4.454 3.785 8.24 7.57l-.003-.002-.002-.002-.003-.002-.002-.003-3.787-3.786.003.003.002.002.003.002z"/><path id="_637658176" class="fil1" d="M4.894 4.265 8.681 8.05l-.001.005v.004l-.001.005v.004l-.001.004v.008l-.001.004v.026L4.892 4.325V4.287l.001-.004v-.005l.001-.004v-.005z"/><path id="_637658320" class="fil1" d="m4.918 4.026 3.786 3.787v.005l-.001.005v.005l-.001.005v.006l-.001.005v.006l-.001.006v.005l-.001.006v.006l-.001.006-.001.006v.006l-.001.006v.006l-.001.007-.001.006v.007l-.001.006v.007l-.002.007v.014l-.002.007v.007l-.001.007v.008l-.001.007-.001.008v.007l-.002.008L4.898 4.23v-.008l.002-.008v-.007l.001-.008v-.007l.001-.007.001-.007V4.17l.002-.007V4.15l.002-.007V4.13l.001-.006.001-.007v-.006l.001-.006v-.006l.001-.006v-.006l.001-.006.001-.006v-.006l.001-.005v-.006l.001-.005v-.006l.001-.005v-.005l.001-.006z"/><path id="_637657960" class="fil1" d="m4.898 4.23 3.786 3.786v.012l-.001.005v.004l-.001.004v.003l-.001.004v.003L4.894 4.265V4.26l.001-.003v-.007l.001-.005v-.005l.001-.005z"/><path id="_216467944" class="fil1" d="M4.893 4.334 8.68 8.121l.002.008.001.009.001.01.002.009v.009l.001.01v.018l-.002.009-.002.008-.002.008-.004.007-.005.006-.006.005-.007.004-.008.003-3.786-3.786.008-.003.007-.004.006-.005.005-.007.003-.007.003-.007.002-.009.001-.008V4.37l-.002-.01-.001-.008-.002-.01z"/><path id="_216467872" class="fil1" d="m4.01 3.632 3.786 3.786-.005.002-.004.002-.005.001-.005.002-.004.002-.005.002-.005.001-.005.002-.005.002-.005.001-.005.002-.005.002-.005.001-.005.002-.005.001-.005.002h-.005l-.005.002-.005.002h-.006l-.005.002-.005.001-.005.001-.006.001h-.005l-.005.002H7.66l-.005.001h-.011l-.005.001h-.006L3.847 3.672h.016l.006-.001h.005l.005-.002h.006l.005-.001.005-.001.006-.001.005-.001.005-.001.005-.002.006-.001.005-.001.005-.002.005-.001.005-.002.005-.001.005-.002.005-.001.005-.002.005-.002.005-.001.005-.002.005-.002.004-.001.005-.002.005-.002L4 3.635l.005-.001z"/><path id="_216467896" class="fil1" d="M4.834 4.458 8.62 8.245v.004L4.835 4.463z"/><path id="_216467968" class="fil1" d="m4.798 4.548 3.787 3.786-.005.003-.004.004-.005.003-.004.004-.005.003-.005.004-.005.003-.006.004-.006.003-.006.003-.006.003-.006.002-.007.003-.007.002-.007.002-.008.002-3.786-3.787.007-.001.008-.002.007-.002.006-.003.007-.002.006-.003.006-.003.006-.004.005-.003.006-.003.005-.004.004-.003.005-.004.005-.003.004-.004z"/><path id="_216468016" class="fil1" d="m4.707 4.595 3.786 3.787h-.004l-.005.001H8.48l-.005.001H8.466l-.004.001H8.436l-.004-.001h-.004l-.004-.001-3.786-3.786h.008l.004.001H4.693l.005-.001h.004z"/><path id="_216468328" class="fil1" d="M3.562 3.654 7.35 7.44l-.009-.002-.008-.002-.009-.003-.008-.002-.008-.002-.008-.003-.008-.002-.008-.003-.008-.002-.007-.003-.008-.003-.007-.002-.007-.003-.007-.003-.007-.003-.007-.002-.007-.003-.007-.003-.007-.003-.006-.002-.007-.003-.006-.003-.006-.003-.006-.002-.006-.003-.006-.003-.006-.002-.006-.003-.006-.003-.005-.002-.006-.003-.005-.002L3.34 3.57l.005.003.006.003.005.002.006.003.005.002.006.003.006.003.006.002.006.003.007.003.006.003.007.002.006.003.007.003.006.003.007.002.007.003.007.003.007.003.008.002.007.003.008.003.007.002.008.003.008.002.008.003.008.002.008.003.008.002.008.002.009.003z"/><path id="_216468352" class="fil1" d="m3.34 3.57 3.787 3.787-.008-.004-.008-.004-.007-.003-.008-.003-.007-.003-.006-.003-.007-.003-.006-.002-.005-.003-.006-.002-.005-.001-.005-.002-.005-.001-.004-.001h-.007L3.247 3.534h.007l.004.002h.005l.005.002.005.002.005.002.006.002.006.003.007.002.006.003.007.003.007.004.008.003.008.004z"/><path id="_216467848" class="fil1" d="m3.247 3.535 3.786 3.786H7.03l-.002.002-.001.001-.002.002v.003l-.002.004-.001.004-.001.005-.001.006v.007l-.001.007v.009l-.001.01V7.414L3.231 3.629V3.584l.001-.008.001-.008v-.006l.002-.006V3.55l.002-.005v-.003l.002-.003.002-.002.001-.002h.002z"/><path id="_216468424" class="fil1" d="m3.232 3.629 3.786 3.786v.015l-.001.004v.005l-.001.004-.001.005-.001.005-.001.005-.001.005-.001.006-.001.005-.002.005v.006l-.002.005L3.22 3.704V3.7l.002-.006.001-.005.002-.006v-.005l.002-.005v-.005l.001-.005.001-.005.001-.004v-.005l.001-.004v-.008l.001-.004z"/><path id="_216468592" class="fil1" d="M2.26 2.814 6.048 6.6l-.007-.006-.007-.006-.007-.005-.008-.005-.007-.004-3.787-3.786.008.004.008.005.007.005.007.006z"/><path id="_216469264" class="fil1" d="m1.816 2.49 3.786 3.787-3.786-3.786z"/><path id="_216469096" class="fil1" d="m1.816 2.49 3.786 3.787h-.004L1.812 2.492z"/><path id="_216469288" class="fil1" d="m2.175 3 3.787 3.787-.002.003-.002.003-.002.003-.003.003-.003.004-.003.003-.003.003-.004.003-.004.003-.004.003-.005.003-.004.003-.005.003-.005.003-.005.003-.005.002L2.117 3.05l.005-.003.005-.002.005-.003.004-.003.005-.003.004-.003.005-.003.004-.003.003-.003.004-.004.003-.003.003-.003.003-.003.002-.003.002-.003z"/><path id="_216469240" class="fil1" d="m1.812 2.491 3.786 3.787H5.59l-.007.002-.007.001-.007.001-.008.001-.008.001h-.008l-.008.001h-.03L5.5 6.282l-.006-.001-.007-.002-.006-.003-3.786-3.786.006.003.006.002.007.001.007.001h.008l.007.001h.024l.008-.001.008-.001.007-.001.008-.001.007-.001.007-.001z"/><path id="_216468928" class="fil1" d="m2.047 3.073 3.786 3.786H5.805L5.8 6.857l-.007-.001h-.007l-.007-.002h-.007l-.008-.002h-.008l-.007-.002-.008-.001-.007-.001-3.787-3.787.008.002h.007l.008.002.008.001.007.001h.008l.007.002h.007l.007.001h.006l.006.001h.011l.004.001h.004z"/><path id="_216468760" class="fil1" d="M1.946 3.062 5.733 6.85l-.007-.002h-.007l-.006-.002-.007-.001-.006-.002-.006-.001-.006-.002-.006-.001-.005-.002-.005-.001-.005-.002-.004-.002-.004-.001-.003-.002-.003-.002-.003-.001-3.786-3.787.003.002.003.002.003.002.004.001.004.002.005.001.005.002.005.002.006.001.005.002.007.001.006.001.006.002.007.001.006.001z"/><path id="_216469144" class="fil1" d="M1.864 3.038 5.65 6.825l-.004-.004-.005-.004-.003-.003L1.85 3.027l.004.004.004.004z"/><path id="_216469216" class="fil1" d="M2.93 3.974 6.717 7.76l-.001.008-.002.008v.007l-.001.008-.001.008-.001.007-.001.008v.008l-.002.007v.008l-.001.007v.007l-.001.008-.001.007v.008l-.001.007v.007l-.001.008-.001.007v.008l-.001.007v.007l-.001.008-.001.007v.008l-.001.007v.008l-.002.007v.008l-.001.008v.007l-.001.008-3.787-3.786.001-.008V4.2l.001-.007.001-.008v-.007l.001-.008.001-.007v-.008l.001-.007v-.008l.002-.007v-.015l.001-.007v-.008l.001-.007.001-.008V4.08l.001-.007.001-.008v-.007l.001-.008.001-.007v-.008l.002-.007V4.02l.001-.007.001-.008.001-.008.001-.008.001-.007z"/><path id="_216469312" class="fil1" d="M2.907 4.215 6.694 8v.005l-.001.001v.002L2.907 4.223v-.007z"/><path id="_216468832" class="fil1" d="m2.907 4.223 3.786 3.786v.001L2.907 4.224z"/><path id="_216468976" class="fil1" d="M2.853 4.342 6.64 8.128v.027l-.001.003-.001.003v.003l-.002.004v.003l-.002.003-.001.003-.002.004-3.786-3.787.002-.003.001-.003.001-.003.001-.004.001-.003v-.003l.001-.003v-.004l.001-.003v-.01l.001-.003v-.007z"/><path id="_216469600" class="fil1" d="M2.844 4.394 6.63 8.181l-.001.002-.002.004-.002.003-.002.003-.002.004-.003.003-.002.004-.003.004-.003.003-.003.004-.003.004-.003.003-.004.004-.003.004-.004.003-.004.003L2.8 4.45l.004-.003.003-.004.004-.003.003-.004.004-.003.003-.004.003-.004.003-.004.003-.003.002-.004.003-.003.002-.004.002-.003.002-.004.002-.003z"/><path id="_216469624" class="fil1" d="M1.695 2.491 5.48 6.277h-.002v-.001h-.001L1.692 2.49h.002z"/><path id="_216469864" class="fil1" d="m2.712 3.632 3.786 3.786h-.002l-.004-.002-.003-.002-.005-.003-.005-.004-.005-.004-3.786-3.787.005.005.005.004.004.003.004.002.003.002z"/><path id="_216469648" class="fil1" d="m2.117 3.049 3.786 3.786-.004.003-.005.002-.005.002-.004.002-.005.002-.005.002-.004.002-.005.001-.005.002-.004.001-.004.001-.005.002h-.004l-.004.001h-.003l-.004.001-3.786-3.786h.003l.004-.001h.004l.004-.002h.004l.005-.002.004-.001.005-.002.004-.002.005-.001.005-.002.004-.002.005-.002.005-.003.004-.002z"/><path id="_216469408" class="fil1" d="m2.908 4.224 3.786 3.787-3.786-3.785v-.001z"/><path id="_216469720" class="fil1" d="m2.91 4.226 3.787 3.786.001.002.001.004v.005l.001.006v.022l-.001.007v.008l-.002.008v.006l-.002.007-.001.005-.001.004-.001.002-3.787-3.786.001-.003.002-.004V4.3l.002-.006v-.007l.002-.007v-.008l.001-.008v-.032l-.001-.004z"/><path id="_216469768" class="fil1" d="M3.15 4.445 6.938 8.23l-.001.003-.002.003-.002.004-.003.003-.002.004-.002.004-.003.004-.003.004-.003.004-.004.004-.003.005-.004.004-.003.004-.004.004-.004.004-.005.004-3.786-3.786.004-.004.004-.004.004-.004.004-.004.004-.005.003-.004.003-.004.004-.004.002-.004.003-.004.003-.004.002-.004.002-.004.002-.003.002-.003z"/><path id="_216469816" class="fil1" d="m2.905 4.312 3.787 3.786-.004.004-.003.004-.003.004-.003.002-.004.003-.003.002-.003.002h-.004l-.003.002H6.66l-.003.001H6.638L2.852 4.334h.007l.004.001h.01l.003-.001.003-.001.004-.002.003-.001.003-.002.003-.003.004-.003.003-.003.003-.004z"/><path id="_216469528" class="fil1" d="M2.852 4.335 6.64 8.121v.007L2.853 4.342v-.006z"/><path id="_216469960" class="fil1" d="M3.103 4.507 6.89 8.293l-.003.003-.003.003-.004.003-.003.002-.004.003-.004.002-.003.003-.004.002-.004.002-.004.002-.004.002-.005.002-.004.001-.004.001-.004.002h-.005L3.041 4.54h.004l.005-.002.004-.001.004-.002.004-.001.005-.002.004-.002.003-.002.004-.002.004-.003.004-.002.003-.003.004-.003.003-.002.004-.003z"/><path id="_216470848" class="fil1" d="m3.04 4.54 3.787 3.786-.005.001-.005.001h-.005l-.005.001h-.005l-.005.001h-.044l-.005-.001h-.006L2.956 4.541h.005l.006.001h.005l.006.001h.038l.005-.001h.005l.005-.001h.005z"/><path id="_216470224" class="fil1" d="m2.956 4.542 3.786 3.786h-.005l-.005-.001-.005-.001-.005-.001-.005-.002-.005-.001-.005-.002-.005-.002-.004-.001-.004-.002-.005-.002-.003-.003-.004-.002-.004-.003-.003-.002L2.89 4.516l.003.003.004.003.003.002.004.002.004.002.005.002.004.002.005.002.004.002.005.001.005.001.005.001.006.001.005.001z"/><path id="_216470320" class="fil1" d="m2.8 4.45 3.786 3.786-.003.003-.003.003-.004.002-.003.002-.004.003-.003.002-.004.002-.003.002-.004.002-.004.001-.004.002-.004.001-.004.002h-.004l-.004.002h-.004L2.74 4.48h.005l.004-.002h.004l.004-.002.004-.001.004-.002.004-.001.003-.002.004-.002.004-.002.003-.003.004-.002.003-.002.003-.003.004-.002z"/><path id="_216470584" class="fil1" d="m2.74 4.479 3.787 3.786h-.005l-.004.001h-.004l-.005.001h-.005l-.004.001h-.015l-.005.001H6.45L2.664 4.481h.054l.005-.001h.004l.005-.001h.004z"/><path id="_216470776" class="fil1" d="M2.664 4.482 6.45 8.268h-.008l-.004-.001h-.005l-.004-.002h-.004l-.004-.001-.004-.001-.004-.001-.003-.002-.004-.001-.004-.001-.003-.002-.004-.002-.003-.001-.003-.002-3.786-3.787.003.002.003.002.004.002.003.001.004.002.003.001.004.001.004.001.004.001.004.001.004.001h.004l.004.002H2.66z"/><path id="_216470344" class="fil1" d="m2.603 4.464 3.786 3.787-.005-.004-.005-.003-.004-.004-3.786-3.786.004.003.005.004z"/><path id="_216470440" class="fil1" d="m2.207 2.803 3.787 3.786-.002.003-.001.004-.002.003v.004l-.002.004-.001.003-.001.004-.001.004-.001.005-.001.004-.001.004-.001.004-.001.005-.001.004v.005l-.002.004V6.662l-.002.004v.01l-.001.004v.004l-.001.005v.004l-.001.005v.008l-.001.004V6.72l-.001.004-3.787-3.787v-.004l.001-.004V2.92l.001-.004V2.91l.001-.004V2.898l.001-.004.001-.005v-.004l.001-.005v-.004l.001-.005.001-.004v-.005l.002-.004v-.005l.001-.004.001-.004.001-.005.001-.004.001-.004.001-.004.002-.004V2.82l.002-.003.001-.004.002-.004.001-.003z"/><path id="_216470464" class="fil1" d="m2.224 2.788 3.787 3.786h-.007l-.002.003L6 6.579l-.002.003-.002.003-.002.004-3.787-3.786.002-.004.002-.003.002-.003.002-.003.003-.001.002-.001h.002z"/><path id="_216470728" class="fil1" d="M3.22 3.704 7.006 7.49l-.002.009-.002.008L7 7.515l-.003.009-.002.008-.002.008-.002.007-.002.008-.003.007-.002.006-.001.006-.002.006-.002.005-.001.004-.001.004-.002.003L3.19 3.809l.001-.002.002-.004.001-.004.002-.005.001-.006.002-.006.002-.007.002-.007.002-.007.003-.008.002-.008.002-.008.002-.008.002-.008.003-.009z"/><path id="_216470824" class="fil1" d="m3.19 3.81 3.786 3.786-.001.001V7.6l-.002.002v.003l-.001.003-.001.004-.001.004-.001.004v.005l-.002.004v.005l-.002.006v.005l-.001.006v.005l-.002.006-3.786-3.786V3.87l.002-.006V3.86l.001-.006.001-.005v-.005l.002-.005v-.004l.002-.004v-.004l.001-.004.001-.003.001-.003v-.003l.002-.002z"/><path id="_216470536" class="fil1" d="m2.943 3.645 3.786 3.787v.01l.001.001-3.786-3.786V3.65l-.001-.002v-.001z"/><path id="_216470992" class="fil1" d="M2.182 2.936 5.97 6.723V6.732l-.001.003v.012L2.18 2.96v-.015l.001-.003V2.94z"/><path id="_216471592" class="fil1" d="m1.692 2.49 3.786 3.786h-.002l-.001-.002h-.001l-.002-.002H5.47L5.47 6.27l-.002-.002h-.002L1.68 2.481l.002.001.002.001.001.001.002.001.001.001.002.001h.001z"/><path id="_216471232" class="fil1" d="m1.68 2.482 3.785 3.786-.004-.003-.005-.003-.004-.003-.005-.004-.006-.004-.005-.005-.006-.005-.005-.005-.006-.005-.006-.005-.006-.005-3.786-3.787.006.006.006.005.005.005.006.005.006.005.005.004.005.004.005.004.005.004.005.003z"/><path id="_216470968" class="fil1" d="m3.206 4.295 3.786 3.786v.007l.002.006V8.122l-.001.006-.001.004-.002.005-.001.004-.002.004-.003.004-.002.003-.003.003-.004.003L3.19 4.372l.003-.003.003-.003.003-.003.003-.004.002-.004.001-.004.002-.005v-.005l.001-.005v-.005l.001-.006v-.017L3.206 4.3z"/><path id="_216471016" class="fil1" d="m3.189 4.372 3.786 3.786-.002.001-.003.001-.003.002h-.002l-.003.001h-.008L3.168 4.378h.011l.002-.002h.003l.002-.002z"/><path id="_216470920" class="fil1" d="m3.168 4.377 3.786 3.787V8.185l-.001.004-.001.005-.001.004-.002.005-.002.005-.002.005-.002.006-.003.006-.003.006-3.786-3.786.003-.007.003-.006.002-.005.002-.005.002-.005.001-.005.002-.005v-.004l.001-.004v-.004l.001-.003V4.38z"/><path id="_216471064" class="fil1" d="m2.18 2.96 3.787 3.787V6.76l-.001.006v.005l-.001.005-.001.004-.001.004-.001.003-3.787-3.786.001-.003.001-.004.001-.004.001-.005V2.98l.001-.006v-.007z"/><path id="_216471112" class="fil1" d="M2.944 3.657 6.73 7.443l.001.016.001.014.001.013.001.013v.012l.002.01v.031l.001.008v.047l-.001.007v.008l-.001.007-.001.008-.001.007-.001.008-.001.009-.001.008-.002.01-.001.01-.002.01-.001.01-.002.012-.002.012-.001.013-.002.014L2.93 3.974l.002-.014.002-.013.002-.013.002-.011.001-.01.002-.011.001-.01.001-.009.002-.009v-.008l.002-.008V3.85l.001-.007.001-.008v-.007l.001-.007v-.015l.001-.008V3.755l-.001-.01v-.01l-.001-.01-.001-.012-.001-.013-.001-.013-.001-.015z"/><path id="_216471280" class="fil1" d="M3.185 4.203 6.97 7.989v.003l.002.003v.004l.002.004.001.005.002.006.001.006.002.006.001.007.002.007.001.007.002.007.001.007.002.007v.007l.002.006-3.786-3.786-.002-.007v-.006l-.002-.007-.002-.007L3.2 4.26l-.002-.007-.001-.006-.002-.007-.001-.006-.002-.006-.001-.006-.001-.005-.002-.005V4.21l-.002-.004z"/><path id="_216471376" class="fil1" d="m3.182 4.099 3.786 3.786v.038l.001.009V7.974l.001.004v.01l.001.001-3.786-3.786v-.004l-.001-.003V4.17l-.001-.007V4.107z"/><path id="_216471976" class="fil1" d="m3.176 3.876 3.786 3.786v.016l-.001.003v.035l.001.004v.003L3.176 3.937V3.93l-.001-.004V3.88z"/><path id="_216472216" class="fil1" d="m3.176 3.937 3.786 3.786v.004l.001.003v.003l.001.004v.012l.001.005V7.763l.001.005v.025l.001.006V7.844l.001.006v.035L3.182 4.099v-.07l-.001-.005V3.99l-.001-.005V3.972l-.001-.005v-.012l-.001-.004v-.004l-.001-.003V3.94z"/><path id="_216471832" class="fil1" d="m4.834 4.463 3.787 3.786V8.28l-.001.005-.001.005-.001.005-.002.005-.002.004-.003.005-.003.004-.003.004-.004.004-.005.004L4.81 4.54l.004-.004.005-.004.003-.004.003-.004.003-.005.002-.005.001-.004.002-.005v-.005l.001-.005v-.026z"/><path id="_216472312" class="fil1" d="m4.81 4.54 3.786 3.785-.001.001h-.001l-.002.002-.001.001-.001.001-.002.001-.002.002-.001.001-3.787-3.786.002-.002h.002l.001-.002.002-.001.001-.001.001-.001.002-.001z"/><path id="_216472240" class="fil1" d="M4.864 4.458 8.65 8.244l-.004.002h-.022l-.004-.001-3.786-3.787.003.001h.004l.003.001h.015z"/><path id="_216471856" class="fil1" d="m5.102 2.542 3.786 3.786.01.01.008.011.008.01.008.012.008.01.007.012.007.011.007.011.007.012.007.012.006.011.006.012.006.012.005.012.006.012.005.012.005.013.005.012-3.787-3.786-.004-.013-.005-.012-.005-.012-.006-.012-.005-.012-.006-.012-.006-.012-.007-.012-.006-.011-.007-.012-.007-.011-.007-.011-.008-.012-.007-.01-.008-.011-.009-.011-.008-.01z"/><path id="_216472096" class="fil1" d="M5.222 2.749 9.01 6.535l.004.012.004.013.005.012.003.013.004.013.004.013.003.012.003.013.003.013.003.013.002.013.003.013.002.014.002.013.002.013.001.013.002.014.001.013.002.013v.014l.002.013v.014l.001.013v.027l.001.013v.068l-.001.013L5.279 3.17v-.04l.001-.014v-.054l-.001-.013v-.014l-.002-.013v-.014l-.002-.013-.001-.013-.001-.014-.002-.013-.002-.013-.001-.013-.002-.014-.003-.013-.002-.013-.003-.013-.002-.013-.003-.013-.003-.013-.004-.013-.003-.012-.004-.013-.004-.013-.004-.012-.004-.013z"/><path id="_637655560" class="fil1" d="M5.064 2.728c.001.002.002.012 0 0zm.215.442c-.003.068-.003.706-.064.704-.02-.001-.013-.16-.013-.182v-.525a.806.806 0 0 0-.05-.348c-.029-.06-.05-.074-.084-.095l-.005-.002.001.006-.001.011a.621.621 0 0 1-.024.152 3.228 3.228 0 0 0-.073.37l-.023.378-.003.074c-.005.095-.007.149-.023.313a33.038 33.038 0 0 1-.023.239c-.003.025-.005.044-.003.06l.002.01c.007.043.019.11-.03.123a.052.052 0 0 1-.029 0v.005c.002.028.003.056-.024.076a.512.512 0 0 0-.012.009c-.022.018-.05.04-.091.047a.206.206 0 0 1-.07.002.13.13 0 0 1-.06-.025.077.077 0 0 1-.028-.039.012.012 0 0 0 .007-.004.359.359 0 0 0 .03-.04c-.017 0-.065-.009-.08-.01a.153.153 0 0 1-.061-.019.131.131 0 0 1-.042-.037c-.016-.025-.016-.05.011-.076a.949.949 0 0 0 .067-.075.366.366 0 0 0 .102-.231.782.782 0 0 0-.01-.147c-.004-.033-.008-.063-.007-.093 0-.015-.004-.044-.008-.066l-.001-.01v.001h-.002c-.001.002.003 0 .002.004-.008.019-.017.041-.04.054-.024.012-.044.013-.063 0-.016-.009-.025-.025-.028-.049 0-.01 0-.023.002-.035l.003-.03a.26.26 0 0 1-.016-.013.206.206 0 0 0-.002.011v.001l-.001.003v.002c-.007.035-.016.074-.071.07-.023-.001-.04-.008-.053-.024a.078.078 0 0 1-.015-.054l.002-.029.002-.028-.002-.005-.046-.076a1.94 1.94 0 0 1-.187.092l-.032.012c-.05.018-.105.039-.163.04a2.014 2.014 0 0 1-.14 0 .766.766 0 0 1-.145-.018c-.092-.023-.165-.057-.221-.084a.326.326 0 0 0-.094-.035c-.01 0-.015.024-.015.094a.38.38 0 0 1-.012.075 1.22 1.22 0 0 1-.03.105.327.327 0 0 0-.014.128c.005.033.005.1.006.162 0 .052.001.1.003.104.003.01.015.057.02.092.006.034.003.064-.016.077a.038.038 0 0 1-.021.005c.002.014 0 .034-.017.068a.239.239 0 0 1-.048.062.13.13 0 0 1-.062.033.285.285 0 0 1-.085.002.12.12 0 0 1-.07-.029c-.016-.016-.025-.032-.025-.05 0-.022.01-.038.034-.052.016-.01.032-.04.047-.067.051-.094.085-.326.062-.398-.022-.069-.06-.298-.061-.3v.011c.014.168.009.163-.013.317-.011.084-.014.158-.023.24v.009l.001.003c.012-.004.003.077-.003.086-.017.024-.034.026-.053.023l.001.007c0 .018 0 .035-.009.052a.194.194 0 0 1-.044.056.118.118 0 0 1-.06.029.369.369 0 0 1-.076.003.135.135 0 0 1-.061-.018.095.095 0 0 1-.03-.029.058.058 0 0 1-.01-.028c0-.011.003-.022.009-.031a.064.064 0 0 1 .02-.02l.002-.001a.295.295 0 0 0 .042-.06c.039-.077.1-.23.11-.322 0-.01.002-.014.001-.015A.27.27 0 0 1 2.72 3.9a.256.256 0 0 1-.015-.06c-.002-.025.002-.048.006-.074l.005-.033a.655.655 0 0 0-.004-.1c-.013-.001-.05-.04-.096-.098a1.861 1.861 0 0 1-.222-.356.335.335 0 0 1-.02-.056c-.033-.153-.064-.295-.15-.335-.006-.003-.012.004-.017.015a.445.445 0 0 0-.025.133l-.001.025c-.001.019-.002.032-.006.04-.007.016-.031.034-.058.048a.221.221 0 0 1-.07.024.636.636 0 0 1-.1-.01.238.238 0 0 1-.083-.025.083.083 0 0 1-.027-.03.06.06 0 0 1-.004-.015.088.088 0 0 1 0-.028v-.001l.009-.049.003-.021a.641.641 0 0 0 .013-.09c-.002-.022-.008-.043-.013-.06-.004-.012-.007-.023-.008-.031-.003-.013-.002-.029-.002-.046a.198.198 0 0 0-.002-.048v-.002l-.005-.016a.202.202 0 0 1-.01-.05.646.646 0 0 1-.002-.06h-.004c-.035.006-.086.015-.117 0a.484.484 0 0 1-.101-.086c-.035-.039-.059-.084-.042-.12a.06.06 0 0 1 .005-.008c.014-.021.05-.039.09-.044a.177.177 0 0 1 .098.013c.02.01.04.025.06.039l.042.03a.392.392 0 0 0 .029-.025c.023-.023.05-.05.084-.058a2.21 2.21 0 0 1 .227-.003.16.16 0 0 1 .053.04l.045.042.027-.021c.017-.013.035-.028.053-.038a.17.17 0 0 1 .085-.02c.034 0 .066.01.079.028a.044.044 0 0 1 .008.03c.113.006.23.027.344.048.103.018.203.037.293.042a7.614 7.614 0 0 0 .348.011c.26.002.454-.01.742-.004.06.001.133-.008.208-.017a1.686 1.686 0 0 1 .258-.018h.005c.03 0 .058 0 .084.003a.22.22 0 0 1 .13.055.665.665 0 0 1 .273.339c.05.132.062.277.057.421z"/></g></g><path d="M3.413 0a3.413 3.413 0 1 1 0 6.827 3.413 3.413 0 0 1 0-6.827z" style="fill:none"/><path class="fil3" d="M4.588 4.49c-.015 0-.066-.01-.082-.012a.153.153 0 0 1-.061-.018.131.131 0 0 1-.042-.037c-.016-.025-.016-.05.011-.076a.949.949 0 0 0 .067-.075.366.366 0 0 0 .102-.231.782.782 0 0 0-.01-.147c-.004-.033-.008-.063-.007-.093 0-.015-.004-.044-.008-.066l-.001-.01v.001h-.002c-.001.002.003 0 .002.004-.008.019-.017.041-.04.054-.024.012-.044.013-.063 0-.016-.009-.025-.025-.028-.049 0-.01 0-.023.002-.035l.003-.03a.26.26 0 0 1-.016-.013.206.206 0 0 0-.002.011v.001l-.001.003v.002c-.007.035-.016.074-.071.07-.023-.001-.04-.008-.053-.024a.078.078 0 0 1-.015-.054l.002-.029.002-.028-.002-.005a2.04 2.04 0 0 0-.052-.085c.03-.015.13-.065.162-.084.089.074.154.136.2.196.048.061.076.12.091.187.023.1.035.244.011.376-.02.11-.035.222-.096.29a.012.012 0 0 0-.003.006z"/><path d="M4.966 3.26c-.017.257-.022.37-.026.453-.006.126-.009.18-.042.517a1.362 1.362 0 0 1-.004.035c-.003.025-.005.044-.003.06l.002.01c.007.043.019.11-.03.123a.052.052 0 0 1-.029 0v.005c.002.028.003.056-.024.076a.512.512 0 0 0-.012.009c-.022.018-.05.04-.091.047a.206.206 0 0 1-.07.002.13.13 0 0 1-.06-.025.077.077 0 0 1-.028-.039.012.012 0 0 0 .007-.004c.061-.07.1-.179.12-.294a1.06 1.06 0 0 0 0-.382.497.497 0 0 0-.091-.196 1.32 1.32 0 0 0-.203-.207.012.012 0 0 0-.016 0c-.012.01-.271.154-.304.164-.014.004-.033.01-.052.018-.05.018-.105.039-.163.04a2.014 2.014 0 0 1-.14 0 .766.766 0 0 1-.145-.018c-.092-.023-.165-.057-.221-.084a.326.326 0 0 0-.094-.035c-.01 0-.015.024-.015.094a.38.38 0 0 1-.012.075 1.22 1.22 0 0 1-.03.105.327.327 0 0 0-.014.128c.005.033.005.1.006.162 0 .052.001.1.003.104.003.01.015.057.02.092.006.034.003.064-.016.077a.038.038 0 0 1-.021.005c.002.014 0 .034-.017.068a.239.239 0 0 1-.048.062.13.13 0 0 1-.062.033.285.285 0 0 1-.085.002.12.12 0 0 1-.07-.029c-.016-.016-.025-.032-.025-.05 0-.022.01-.038.034-.052.016-.01.032-.04.047-.067.051-.094.085-.326.062-.398-.022-.069-.06-.298-.061-.3.014.18.01.17-.013.328-.011.084-.014.158-.023.24v.009l.001.003c.012-.004.003.077-.003.086-.017.024-.034.026-.053.023l.001.007c0 .018 0 .035-.009.052a.194.194 0 0 1-.044.056.118.118 0 0 1-.06.029.369.369 0 0 1-.076.003.135.135 0 0 1-.061-.018.095.095 0 0 1-.03-.029.058.058 0 0 1-.01-.028c0-.011.003-.022.009-.031a.064.064 0 0 1 .02-.02l.002-.001a.295.295 0 0 0 .042-.06c.039-.077.1-.23.11-.322 0-.01.002-.014.001-.015A.27.27 0 0 1 2.72 3.9a.256.256 0 0 1-.015-.06c-.002-.025.002-.048.006-.074l.005-.033a.655.655 0 0 0-.004-.1c-.04-.003-.305-.365-.337-.51-.034-.153-.065-.295-.15-.335-.007-.003-.013.004-.018.015a.53.53 0 0 0-.026.158c-.001.019-.002.032-.006.04-.007.016-.031.034-.058.048a.221.221 0 0 1-.07.024.636.636 0 0 1-.1-.01.238.238 0 0 1-.083-.025.083.083 0 0 1-.027-.03.07.07 0 0 1-.004-.043v-.001l.009-.049c.007-.043.018-.1.016-.112-.002-.021-.008-.042-.013-.06-.004-.011-.007-.022-.008-.03-.003-.013-.002-.029-.002-.046a.198.198 0 0 0-.002-.048v-.002l-.005-.016a.202.202 0 0 1-.01-.05.646.646 0 0 1-.002-.06h-.004c-.035.006-.086.015-.117 0a.484.484 0 0 1-.101-.086c-.035-.039-.058-.084-.042-.12a.06.06 0 0 1 .005-.008c.014-.021.05-.039.09-.044a.177.177 0 0 1 .098.013c.02.01.04.025.06.039l.042.03a.17.17 0 0 0 .028-.025c.024-.023.051-.05.085-.058a2.21 2.21 0 0 1 .227-.003.16.16 0 0 1 .053.04.65.65 0 0 0 .05.046c.178-.052.389-.014.591.023.103.018.203.037.293.042.469.026.688-.002 1.09.007.06.001.134-.008.208-.017a1.686 1.686 0 0 1 .263-.018c.081 0 .15 0 .215.058a.665.665 0 0 1 .272.339c.05.132.062.277.057.421-.003.068-.003.706-.064.704-.02-.001-.013-.16-.013-.182v-.525a.806.806 0 0 0-.05-.348.183.183 0 0 0-.089-.097c.004.032 0-.015 0 .017a.621.621 0 0 1-.024.152 4.051 4.051 0 0 0-.073.37z" style="fill:#fffffe"/><path class="fil5" d="M2.616 3.535a1.86 1.86 0 0 1-.222-.356.235.235 0 0 1 .14-.028c.079.017.08.169.068.281-.002.022.029.074.023.088a.068.068 0 0 1-.009.015z"/><path d="m2.182 2.936-.001.025c-.001.019-.002.032-.006.04-.007.016-.031.034-.058.048a.221.221 0 0 1-.07.024.636.636 0 0 1-.1-.01.238.238 0 0 1-.083-.025.083.083 0 0 1-.027-.03.07.07 0 0 1-.004-.043v-.001l.009-.049.003-.021c.02-.018.027-.03.062-.03s.058.03.076.062c.01-.025.051-.045.09-.042.04.003.074.04.11.052z" style="fill:#d49385"/><path class="fil5" d="m4.943 3.639-.003.074c-.005.095-.007.149-.022.313-.058.016-.157-.042-.184-.09-.037-.067.07-.163.157-.225.017-.012.035-.067.05-.072h.002zM4.73 2.352h.005c.03 0 .058 0 .084.003.169.063.234.22.25.37l-.006-.003c.004.032 0-.015 0 .017a.621.621 0 0 1-.024.152c-.005.017-.02.084-.036.158-.007-.006-.02-.025-.036-.08-.025-.085-.123-.065-.178-.058-.056.007-.15-.059-.207-.021-.058.037-.175-.018-.192-.08-.018-.063-.05.006-.135-.052-.085-.057-.004-.112.044-.11.05.003.062-.006.087-.059.025-.052.12-.046.156-.037.036.009.064.047.154.032.09-.016.09-.094.04-.152-.03-.035-.02-.063-.006-.08zM3.298 2.386c.081.003.155.004.224.005a.098.098 0 0 1 .033.033c.018.14-.167.078-.162.165.006.086-.08.078-.18.03-.102-.048-.107.081-.099.212.008.131-.118.11-.197.108-.08.021-.17.102-.288.012-.12-.039-.195-.177-.195-.177-.09-.334.194-.484.337-.372.041.033.089.066.142.065.106-.004.255-.055.385-.081zM4.492 3.552a2.042 2.042 0 0 0-.11-.102.012.012 0 0 0-.016 0c-.012.01-.271.154-.304.164a.417.417 0 0 0-.02.006c-.18.023-.372.01-.363-.08-.017-.12.184-.068.18-.141-.006-.074.12-.078.21-.036.09.04.098-.03.09-.142-.007-.112.123-.066.194-.063.071.002.166-.075.272-.042.106.034.14.154.14.154.018.023.025.356-.273.282z"/><path class="fil7" d="M1.882 2.545c.02 0 .035.02.035.044 0 .025-.016.045-.035.045-.02 0-.036-.02-.036-.045 0-.024.016-.044.036-.044z"/><path d="M1.882 2.565c.01 0 .02.01.02.024s-.01.024-.02.024-.02-.01-.02-.024c0-.013.01-.024.02-.024z" style="fill:#424242"/><path class="fil9" d="M3.328 3.228c-.086-.052-.023-.21.046-.22.094-.013.055-.112.18-.124.114-.012.218.087.19.199-.026.111-.099.153-.19.13-.092-.023-.127.077-.226.015zM3.886 2.726c.089-.004.198-.093.145-.162-.053-.07-.198-.1-.256-.031-.058.068-.072.203.111.193zM3.09 3.48c.047-.002.126.024.174.012.049-.012.067-.061.04-.097-.01-.012-.067-.01-.084-.02-.089-.06-.217-.126-.266-.067-.039.046-.058.177-.009.214.026.02.082-.04.146-.043zM2.201 2.731c.058-.001.022 0 .083-.015.06-.014.137-.157.103-.203-.012-.014-.118.052-.118 0 .002-.134-.177-.107-.239-.034-.049.058-.073.222-.01.269.032.024.1-.012.181-.017z"/><path class="fil7" d="M2.134 2.54c.02 0 .036.02.036.045 0 .024-.016.044-.036.044-.02 0-.035-.02-.035-.044 0-.025.016-.045.035-.045z"/><path d="M2.134 2.561c.01 0 .02.01.02.024 0 .012-.01.023-.02.023s-.018-.01-.018-.023.008-.024.018-.024z" style="fill:#212121"/><ellipse class="fil11" cx="1.913" cy="2.957" rx=".02" ry=".026"/><ellipse class="fil11" cx="2.04" cy="2.973" rx=".02" ry=".026"/><path d="M2.117 3.049c.027-.014.051-.032.058-.048.004-.008.005-.021.006-.04l.001-.025a.169.169 0 0 1-.035-.018.293.293 0 0 1-.034.08c-.05.059-.21.024-.28-.005 0 .005.002.01.004.015.006.012.014.02.027.03.012.01.046.018.082.024.04.007.086.012.1.01a.221.221 0 0 0 .07-.023z" style="fill:#c98576"/><path class="fil13" d="M1.816 2.49a1.083 1.083 0 0 1 .035-.179.019.019 0 0 1-.004.003l-.042-.03c-.02-.013-.04-.028-.06-.038a.177.177 0 0 0-.098-.013c-.04.005-.076.023-.09.044a.06.06 0 0 0-.005.008c-.017.036.007.081.041.12a.484.484 0 0 0 .102.086c.031.015.082.006.117 0h.004zM2.303 2.463c-.07-.023-.03-.13-.032-.136.007-.013.03-.027.041-.037.017-.013.035-.028.053-.038a.17.17 0 0 1 .085-.02c.034 0 .066.01.079.028a.044.044 0 0 1 .003.006c.015.028-.005.068-.035.104-.064.078-.094.098-.19.094h-.004z"/><path class="fil3" d="M2.93 3.974c.022-.154.027-.15.014-.317a.614.614 0 0 1-.146-.01c-.057-.015-.042-.02-.11-.053a.238.238 0 0 1-.07-.062.064.064 0 0 1-.002.003c.046.057.083.097.096.097a.655.655 0 0 1 .004.101l-.005.034c-.004.025-.008.048-.006.074.002.017.008.039.015.059a.27.27 0 0 0 .027.058l-.002.015c-.008.093-.07.245-.11.323a.295.295 0 0 1-.041.059h-.001a.064.064 0 0 0-.021.02.053.053 0 0 0-.008.032c0 .01.003.02.008.028.007.01.017.02.03.03.017.01.04.015.062.017.026.002.055 0 .076-.003a.118.118 0 0 0 .06-.029.194.194 0 0 0 .044-.056.115.115 0 0 0 .008-.059c.019.003.036.001.053-.023.006-.009.015-.09.003-.086 0-.004-.002 0-.001-.003v-.008c.009-.083.012-.157.023-.241z"/></g></svg>