<svg xmlns="http://www.w3.org/2000/svg" xml:space="preserve" width="655.359" height="655.359" style="shape-rendering:geometricPrecision;text-rendering:geometricPrecision;image-rendering:optimizeQuality;fill-rule:evenodd;clip-rule:evenodd" viewBox="0 0 6.827 6.827"><defs><clipPath id="id0"><path d="M3.413 0a3.413 3.413 0 1 1 0 6.827 3.413 3.413 0 0 1 0-6.827z"/></clipPath><style>.fil8{fill:#558b2f}.fil7{fill:#689f38}.fil1{fill:#e9cd78}.fil3{fill:#558b2f;fill-rule:nonzero}</style></defs><g id="Layer_x0020_1"><path d="M3.413 0a3.413 3.413 0 1 1 0 6.827 3.413 3.413 0 0 1 0-6.827z" style="fill:#ffe082"/><g style="clip-path:url(#id0)"><g id="_637652776"><path id="_2169312721" class="fil1" d="m2.68 2.779 3.786 3.786v.001L2.68 2.78v-.001z"/><path id="_216931104" class="fil1" d="m4.08 4.217 3.785 3.786v.02l-.001.021-.002.02-.003.021-.003.02-.004.02-.004.02-.006.019-.005.02-.007.018-.007.019-.007.019-.009.018-.008.018-.01.018-.009.018-.01.017-.01.018-.012.017-.01.016-.013.017-.012.016-.012.017-.013.016-.013.015-.014.016-.013.015-.014.015-.014.015-.015.014-.014.014-.015.014L3.79 4.778l.015-.014.014-.014.015-.015.014-.014.014-.015.013-.016.014-.015.013-.016.012-.016.013-.016.012-.016.012-.017.011-.017.011-.017.01-.017.01-.018.01-.017.01-.018.008-.018.008-.019.008-.018.007-.02.006-.018.006-.02.005-.019.005-.02.004-.02.003-.02.003-.02.002-.02v-.02z"/><path id="_216933504" class="fil1" d="m3.79 4.778 3.786 3.786v.01l-.001.004v.004l-.002.004v.003l-.001.004-.001.003L3.784 4.81l.001-.003.001-.004.001-.003v-.004l.002-.004V4.783z"/><path id="_216933696" class="fil1" d="m3.784 4.81 3.787 3.786-.025.02-.025.02-.026.02-.026.018-.027.02-.027.018-.027.018-.027.018-.028.017-.029.017-.028.017-.029.016-.029.016-.03.016-.029.015-.03.015-.03.015-.03.014-.03.014-.03.014-.03.013-.031.012-.031.013-.03.012-.032.012-.03.01-.031.012-.031.01-.03.01-.032.01-.03.01-.03.008L2.853 5.28l.03-.009.031-.01.03-.009.032-.01.03-.01.031-.011.031-.012.03-.011.032-.012.03-.013.03-.013.031-.013.03-.013.031-.014.03-.014.03-.015.03-.015.03-.015.029-.016.029-.016.029-.016.028-.017.028-.017.028-.018.028-.017.027-.019.027-.018.027-.019.026-.019.025-.02.026-.02z"/><path id="_216933384" class="fil1" d="m4.18 3.447 3.786 3.786-.004.016-.004.016-.005.016-.004.017-.004.017-.004.018-.005.018-.004.019-.004.019-.005.02-.004.02-.004.02-.004.02-.004.023-.004.022-.004.023-.003.023-.004.025-.003.024-.003.026-.003.026-.003.027-.003.028-.002.029-.002.029-.002.03-.002.031-.001.032-.001.033v.033l-.001.035v.035L4.078 4.217v-.07l.002-.034v-.032l.002-.032.002-.031.002-.03.002-.03.002-.028.003-.028.003-.027.003-.026.003-.026.003-.025.004-.024.003-.023.004-.023.004-.023.004-.021.004-.022.004-.02.004-.02.004-.02.005-.019.004-.018.004-.018.005-.018.004-.017.004-.017.004-.016.005-.016z"/><path id="_216933600" class="fil1" d="m3.308 1.558 3.786 3.786.005.006.003.006.003.007v.008L3.32 1.585v-.008l-.003-.007-.003-.007z"/><path id="_216933528" class="fil1" d="M3.319 1.585 7.105 5.37v.2L3.32 1.787z"/><path id="_216933672" class="fil1" d="m3.693 1.917 3.786 3.786v.001L3.694 1.919v-.001z"/><path id="_216933408" class="fil1" d="m3.805 2.025 3.787 3.787.01.01.008.011.01.01.008.012.008.011.007.012.008.012.006.012.007.012.006.013.006.014.005.013.005.014.004.015.004.015.003.016.003.017.002.017.002.017.001.019.001.019v.02L3.92 2.335v-.02l-.001-.019-.001-.018-.002-.018-.002-.017-.003-.016-.004-.016-.003-.015-.005-.015-.004-.014-.006-.014-.005-.013-.006-.013-.007-.012-.007-.013-.007-.011-.008-.012-.008-.011-.008-.011-.009-.011-.01-.011z"/><path id="_216933912" class="fil1" d="m3.92 2.336 3.786 3.786v.017l.001.016.001.015.002.016.001.014.002.015.003.014.002.014.003.013.004.013.003.013.004.013.005.012.004.012.005.012.004.011.006.012.005.011.005.011.006.01.006.012.006.01.006.01.006.01.006.011.007.01.006.01.007.01.006.01.007.01.007.01.007.01-3.787-3.786-.006-.01-.007-.01-.007-.01-.007-.01-.006-.01-.007-.01-.006-.01-.006-.01-.007-.01-.006-.011-.006-.01-.005-.011-.006-.011-.005-.011-.006-.011-.005-.012-.005-.011-.004-.012-.005-.012-.004-.013-.004-.012-.003-.013-.004-.013-.003-.014-.003-.013-.002-.014-.002-.015-.002-.015-.001-.015-.001-.015v-.016z"/><path id="_216933456" class="fil1" d="M4.062 2.723 7.85 6.509l.006.01.006.01.007.009.006.01.007.009.006.01.006.01.007.01.006.01.006.01.006.01.006.01.006.01.005.011.006.011.006.011.005.012.005.011.005.012.005.012.005.012.004.012.005.013.004.013.004.013.004.013.003.014.003.014.003.015.003.015.003.015.002.015-3.786-3.786-.002-.016-.003-.015-.003-.014-.003-.015-.003-.014-.004-.014-.003-.013-.004-.014-.004-.012-.005-.013-.004-.012-.005-.013-.005-.012-.005-.011-.005-.012-.006-.01-.005-.012-.006-.01-.006-.011-.005-.011-.006-.01-.006-.01-.007-.01-.006-.01-.006-.01-.006-.01-.007-.01-.006-.01-.006-.01-.007-.01-.006-.009z"/><path id="_216933480" class="fil1" d="M4.224 3.095 8.01 6.88l.001.011.002.011v.011l.001.011v.011l.001.01v.032l-.001.011V7l-.002.011v.01l-.002.011-.001.01-.002.011-.002.011-.002.01-.002.011L8 7.095l-.002.011-.002.01-.003.012-.002.011-.003.011-.003.012-.003.011-.003.012-.003.012-.003.012-.003.012-.003.012L4.18 3.447l.003-.013.003-.012.003-.012.003-.011.003-.012.003-.012.003-.01.002-.012.003-.011.002-.011.003-.011.002-.011.002-.01.002-.012.002-.01.002-.01.001-.011.002-.01v-.011l.002-.011v-.01l.002-.011V3.129l-.002-.012v-.01z"/><path id="_637652752" class="fil1" d="M4.18 3.447c-.044.166-.1.387-.1.77 0 .222-.132.413-.29.561a.117.117 0 0 1-.006.032 2.632 2.632 0 0 1-.93.47c-.159-.141-.198-.424-.198-.622-.026-.644-.13-1.343.024-1.88v.002a3.236 3.236 0 0 1-.029-.301v-.131c0-.157.074-.298.192-.4a.68.68 0 0 1 .4-.16v-.203a.038.038 0 0 1 .076 0v.2a.707.707 0 0 1 .365.125l.004.004a.763.763 0 0 1 .005.003v.001c.134.12.227.203.227.418 0 .177.07.28.142.387a.808.808 0 0 1 .162.372c.016.12-.01.22-.044.352z"/></g></g><path d="M3.413 0a3.413 3.413 0 1 1 0 6.827 3.413 3.413 0 0 1 0-6.827z" style="fill:none"/><path class="fil3" d="m3.723 4.825.002-.005-.071-.031c.104-.206.029-.447-.133-.598a2.555 2.555 0 0 0-.147-.123 2.309 2.309 0 0 1-.481-.486 1.634 1.634 0 0 1-.237-.552c-.002-.065.023-.131.036-.196.04.233.117.505.264.711.136.19.253.32.377.42-.234-.327-.365-.725.294-1.34a.463.463 0 0 0 .125-.258c.021-.118-.034-.38-.068-.457.139.125.236.205.236.426 0 .177.07.28.142.387a.808.808 0 0 1 .162.372c.016.12-.01.22-.044.352-.044.166-.1.387-.1.77 0 .252-.17.464-.355.618v-.007a.002.002 0 0 0-.002-.003z"/><path d="M3.299 1.785a.68.68 0 0 1 .394.132c.035.073.104.34.082.462a.472.472 0 0 1-.127.263c-.673.63-.516 1.03-.278 1.365a2.124 2.124 0 0 1-.408-.425c-.244-.342-.299-.862-.31-1.103v-.131c0-.157.073-.298.191-.4a.699.699 0 0 1 .456-.163z" style="fill:#33691e;fill-rule:nonzero"/><path d="M3.299 1.785a.63.63 0 0 1 .106.01.039.039 0 0 1 .008.023c0 .036-.059.066-.132.066-.073 0-.133-.03-.133-.066 0-.007.002-.013.005-.019a.744.744 0 0 1 .146-.014z" style="fill:#2a5918;fill-rule:nonzero"/><path class="fil3" d="M3.243 1.585a.038.038 0 0 1 .076 0v.217a.038.038 0 0 1-.076 0v-.217z"/><path d="M3.784 4.81a2.632 2.632 0 0 1-.93.47c-.159-.141-.198-.424-.198-.622-.026-.644-.13-1.343.024-1.88.07.209.104.54.226.71.176.248.357.393.508.513.15.12.275.217.327.414.02.072.066.333.043.395z" style="fill:#689f38;fill-rule:nonzero"/><path class="fil7" d="M3.872 2.863c-.029.312-.217.534-.423.757a.036.036 0 1 1-.023-.067c.029-.048.017-.033.062-.087.161-.194.288-.342.313-.603a.036.036 0 1 1 .071 0zM3.935 3.372c.003.184-.174.38-.286.505a.036.036 0 1 1-.06-.04c.1-.115.277-.299.274-.464a.036.036 0 1 1 .072-.001zM3.733 4.163a.036.036 0 0 1-.026-.043c.046-.053.251-.337.257-.337.02.001.035.018.033.038-.019.083-.188.36-.264.342z"/><path class="fil8" d="M2.878 3.908c.05.18.34.329.507.375h.003a.036.036 0 1 1 .005.071.06.06 0 0 1-.023 0c-.195-.044-.505-.227-.563-.434a.036.036 0 1 1 .07-.012zM2.874 4.356c.11.178.235.21.445.219a.036.036 0 0 1 0 .071c-.242-.01-.38-.05-.508-.257a.036.036 0 0 1 .063-.033zM2.968 4.74c.08.1.175.11.297.12a.036.036 0 1 1 0 .072c-.157-.013-.257-.028-.358-.154a.036.036 0 0 1 .061-.038z"/></g></svg>