<svg xmlns="http://www.w3.org/2000/svg" xml:space="preserve" width="655.359" height="655.359" style="shape-rendering:geometricPrecision;text-rendering:geometricPrecision;image-rendering:optimizeQuality;fill-rule:evenodd;clip-rule:evenodd" viewBox="0 0 6.827 6.827" version="1.0"><defs><clipPath id="id0"><path d="M3.413 0a3.413 3.413 0 1 1 0 6.827 3.413 3.413 0 0 1 0-6.827z"/></clipPath><style>.fil12{fill:#6d912a}.fil10{fill:#757575}.fil3{fill:#82ad32}.fil5{fill:#90bd3f}.fil6{fill:#a1db4d}.fil1{fill:#ad1457}.fil7{fill:#fefefe}</style></defs><g id="Layer_x0020_1"><path d="M3.413 0a3.413 3.413 0 1 1 0 6.827 3.413 3.413 0 0 1 0-6.827z" style="fill:#c2185b"/><g style="clip-path:url(#id0)"><g id="_637667752"><path id="_4602506321" class="fil1" d="m4.341 3.492 3.787 3.786-.004-.004-.004-.002-.005-.003-.004-.001-.005-.001-.005-.001h-.02l-.002.001-3.786-3.786h.002l.003-.001H4.32l.005.001.004.002.005.002.004.003z"/><path id="_460250200" class="fil1" d="M6.189 7.29zM2.402 3.502z"/><path id="_460252840" class="fil1" d="m4.719 2.236 3.786 3.786v.01l.002.011.002.01.002.01.002.008.003.01.004.008.003.009.004.008.004.008.004.008.005.008.004.008.005.008.004.008.005.008.004.008.004.008.004.008.004.008.004.008.003.009.003.008.003.009.002.009.002.009.001.01v.01l.001.01v.01l-.002.01-.002.011-3.786-3.786.002-.011.001-.01v-.031l-.001-.01-.002-.009-.002-.008-.003-.01-.003-.008-.003-.008-.004-.008-.004-.008-.004-.008-.004-.008-.005-.008-.004-.008-.005-.008-.004-.008-.005-.008-.004-.008-.004-.008-.004-.008-.004-.009-.004-.008-.003-.009-.003-.009-.003-.01-.002-.009-.001-.01-.002-.01z"/><path id="_460253128" class="fil1" d="M4.803 2.521 8.59 6.307l-.001.005-.003.004-.002.004-.003.004-.003.003-.004.003-.004.003-.004.003L4.779 2.55l.004-.003.004-.003.004-.003.003-.004.003-.004.002-.004.002-.004z"/><path id="_460252984" class="fil1" d="m4.779 2.55 3.786 3.786-.001.001-.002.002v.001l-.001.002-.001.002V6.357L4.776 2.57l-.001-.001v-.003l-.001-.001v-.008l.001-.001.001-.002.001-.001.001-.002z"/><path id="_460252792" class="fil1" d="m4.778 2.57 3.786 3.786v.023l-.001.003v.003l-.002.003v.003l-.002.003v.002l-.002.003-.002.002-.002.002-3.786-3.786.002-.002.001-.003.002-.002.001-.003.001-.002.001-.003.001-.003v-.003l.001-.003v-.016l.001-.003z"/><path id="_460252960" class="fil1" d="m4.767 2.617 3.786 3.786-.004.002-.004.002-.005.002-.004.002-.004.002-.004.001-.005.002-.004.002-3.786-3.786.004-.002.005-.002.004-.002.004-.002.004-.002.004-.001.004-.002z"/><path id="_460253080" class="fil1" d="m4.733 2.632 3.786 3.786-.008.002-.008.001-.008.001h-.008l-.008.001h-.032l-.008-.001-.008-.002-.007-.001-.008-.002-.007-.002-.008-.003-.007-.003-3.786-3.786.007.003.007.003.008.002.007.002.008.001.008.001.008.001.008.001H4.7l.008-.001.008-.001.008-.002z"/><path id="_460252408" class="fil1" d="M4.608 2.623 8.394 6.41h-.002l-.001-.001L4.603 2.62h.001v.001h.002z"/><path id="_460253320" class="fil1" d="M4.604 2.621 8.39 6.408h-.005l-.003.001-.003.001-.002.001-.003.002-.002.001-.002.002-3.786-3.787.002-.001.002-.002.002-.001.003-.001.002-.001h.003l.003-.001z"/><path id="_460253752" class="fil1" d="M4.584 2.63 8.37 6.415 4.584 2.629z"/><path id="_460253776" class="fil1" d="M4.584 2.63 8.37 6.415l-.001.003-.002.003-.001.003-.002.003-.001.003-.002.003-.002.002-.002.003-.001.003-.002.003-.001.003-.002.003-.001.003-.001.004v.003l-.002.004-3.786-3.786v-.004l.002-.004v-.003l.002-.003.001-.003.002-.003.001-.003.002-.003.002-.003.002-.003.001-.002.002-.003.002-.003.001-.003.002-.003z"/><path id="_460253728" class="fil1" d="m4.561 2.679 3.786 3.786v.004L4.56 2.683z"/><path id="_460253440" class="fil1" d="m4.56 2.683 3.787 3.786V6.5l-.001.016-.001.017-.002.017-.001.018-.003.018-.002.019-.003.018-.003.02-.003.02-.004.019-.004.02-.004.02-.004.02-.005.02-.005.02-.005.02-.005.02-.005.02-.006.019-.005.02-.006.018-.006.019-.006.018-.006.018-.006.017-.006.017-.006.016-.006.016-.007.015-.006.014L4.43 3.263l.006-.014.006-.015.007-.016.006-.016.006-.017.006-.017.006-.018.006-.018.006-.02.005-.018.006-.02.005-.019.006-.02.005-.02.005-.02.005-.02.004-.02.005-.02.004-.02.004-.02.003-.02.004-.019.003-.019.003-.019.002-.018.002-.019.002-.017.002-.018V2.73l.001-.017v-.015z"/><path id="_460253272" class="fil1" d="m4.436 3.25 3.786 3.786.001.001-3.786-3.786z"/><path id="_460253152" class="fil1" d="M4.534 3.318 8.32 7.105l.005.005.005.006.005.005.005.006.005.005.005.006.005.005.005.006.005.005-3.787-3.786-.005-.005-.004-.006-.005-.005-.005-.006-.005-.005-.005-.006-.005-.006-.005-.005z"/><path id="_460253248" class="fil1" d="m5.258 3.396 3.786 3.786.004.004.003.004.003.005.003.004.003.005.002.005.001.005.002.005v.005l.001.006v.011L5.28 3.455v-.017l-.002-.005v-.005l-.003-.005-.002-.005-.002-.005-.003-.005-.003-.004-.003-.004z"/><path id="_460253704" class="fil1" d="M5.28 3.455 9.066 7.24v.008l-.002.003-.001.003-.002.003-.002.003-.003.002-.003.002L5.267 3.48l.003-.002.002-.002.003-.003.002-.003.001-.003.001-.003v-.004z"/><path id="_460253632" class="fil1" d="m5.267 3.479 3.786 3.786-.007.005-3.787-3.786z"/><path id="_460254592" class="fil1" d="m5.233 3.502 3.786 3.786-3.786-3.786z"/><path id="_460254088" class="fil1" d="m5.233 3.502 3.786 3.786-.005.004-.005.003-.005.003L9 7.3l-.004.002-.004.002-.003.002-.003.002L5.2 3.523l.003-.002.003-.002.004-.002.004-.003.004-.002.005-.003.004-.004z"/><path id="_460254280" class="fil1" d="M5.26 3.484 9.045 7.27l.001.004.002.004v.004l.001.004.001.004V7.317l-.001.004v.005l-.001.004-.001.005v.004L5.26 3.553v-.005l.001-.004.001-.005v-.004l.001-.005v-.004l.001-.005V3.5l-.002-.004v-.004l-.002-.004z"/><path id="_460254472" class="fil1" d="m5.17 3.534 3.787 3.787h-.003l-.001-.001h-.004l-.002-.001H8.93l-.004.001-.005.001-.005.002-.006.001-3.787-3.786.006-.002h.006l.005-.002h.004l.004-.001H5.168l.001.001z"/><path id="_460254520" class="fil1" d="M5.2 3.523 8.986 7.31v.004l.001.003v.033l-.001.004v.003l-.001.004v.004l-.001.003-3.787-3.786v-.004l.002-.003v-.008l.001-.003v-.004l.001-.004V3.526z"/><path id="_460254664" class="fil1" d="m5.118 3.54 3.787 3.786-.01-.009-.01-.007-.011-.007-.012-.006-.012-.005-.014-.005-.013-.003-.014-.004-.015-.002-.015-.002h-.015l-.016-.001h-.032l-.016.001-.016.002-.017.002-.016.003-.016.003-.016.003-.016.004-.016.004-.016.005-.015.005-.015.005-.014.006-.014.005-.014.006-.012.007-.013.006-.011.007-.01.007L4.665 3.57l.01-.007.012-.007.012-.006.013-.007.014-.006.013-.006.015-.005.015-.005.015-.005.015-.005.016-.004.016-.004.016-.004.017-.003.016-.002.016-.002.017-.002.016-.001h.048l.015.001.015.002.014.002.015.003.013.004.013.005.013.005.011.006.012.006.01.008z"/><path id="_460254328" class="fil1" d="M5.123 3.538 8.91 7.324h-.002v.002h-.002v.001h-.001L5.119 3.541l.001-.001.002-.001z"/><path id="_460254064" class="fil1" d="m4.666 3.57 3.786 3.786-.003.002-.003.002-.002.001-.003.002h-.003l-.002.002-.003.002-.002.001-3.787-3.786.003-.002.002-.001.003-.001.003-.002.002-.001.003-.002.003-.001z"/><path id="_460254232" class="fil1" d="m4.644 3.582 3.787 3.786-.003.001-.004.001-.003.001h-.004l-.003.001H8.41l-.003.001H8.382l-.004-.001-.003-.001L4.59 3.585h.003l.003.001H4.6l.003.001h.022l.004-.001h.003l.004-.001.003-.001h.003z"/><path id="_460254016" class="fil1" d="M4.543 3.565 8.329 7.35h-.002L4.541 3.565z"/><path id="_460254376" class="fil1" d="M4.57 3.573 8.356 7.36l-.003-.001-.004-.001-.003-.001-.003-.001-.004-.001-.003-.001H8.33L4.544 3.566h.006l.003.001.003.001.004.001.003.001.003.001z"/><path id="_460255192" class="fil1" d="M4.589 3.585 8.375 7.37l-.003-.001-.002-.002h-.003l-.002-.002-.002-.001-.003-.001-.002-.002-3.786-3.787.002.002.002.002.003.001.002.001.002.001.003.001z"/><path id="_460254736" class="fil1" d="M4.54 3.565 8.328 7.35H8.32l-.003.002-.002.001-.003.002-.002.002-.002.002-.002.002L4.52 3.576l.001-.002.002-.003.003-.002.002-.001.003-.002h.003l.003-.001z"/><path id="_460255000" class="fil1" d="m4.401 3.563 3.786 3.786-3.786-3.786z"/><path id="_460254760" class="fil1" d="M4.421 3.563 8.208 7.35h-.002l-.001-.001h-.006l-.002-.001h-.01L4.402 3.564h.003l.001-.001h.014l.001.001z"/><path id="_460254880" class="fil1" d="m4.401 3.563 3.787 3.786L4.4 3.563z"/><path id="_460255312" class="fil1" d="m4.237 3.495 3.786 3.787-.002.001-.002.003-.002.002-.002.003-.002.003-.002.003-.002.003-.002.003-3.786-3.786.002-.004.002-.003.002-.003.002-.003.002-.002.002-.003.002-.002z"/><path id="_460255144" class="fil1" d="m4.22 3.517 3.787 3.786-.002.004L8 7.312l-.005.006-.006.006-.008.007-.008.007-.01.007-.01.008-.011.008-.012.008-.012.008-.013.009-.014.008-.014.009-.014.008-.014.009-.014.008-.015.009-.014.008-.014.008-.014.008-.014.007-.013.007-.013.007-.012.006-.011.006-.01.005-.01.004-.01.004-.007.004-.007.002-.006.002L3.88 3.729l.006-.002.006-.003.008-.003.009-.004.01-.004.01-.006.012-.005.012-.006.013-.007.013-.007.013-.008.014-.007.015-.008.014-.008.014-.009.015-.008.014-.009.014-.009.014-.008.013-.009.013-.008.013-.009.012-.008.01-.008.011-.007.01-.008.008-.007.008-.006.006-.006.005-.006.004-.005z"/><path id="_460255360" class="fil1" d="M4.362 3.534 8.148 7.32 4.36 3.532z"/><path id="_460255432" class="fil1" d="M4.385 3.567 8.17 7.353l-.002-.002-3.786-3.786z"/><path id="_460254952" class="fil1" d="m4.293 3.48 3.786 3.787-.003.001-.004.002H8.07l-.004.002h-.003l-.004.002h-.003l-.004.002h-.003l-.004.001-.003.001h-.004l-.003.002H8.03l-.003.001h-.004L4.237 3.496h.003l.004-.001h.004l.003-.001.004-.001h.003l.004-.002h.003l.004-.001.003-.001.004-.001.003-.001.004-.001.003-.002h.003z"/><path id="_460255600" class="fil1" d="m4.36 3.533 3.787 3.786-.002-.002-.003-.002-.002-.002-3.786-3.786.002.002.002.002z"/><path id="_460255936" class="fil1" d="m4.401 3.563 3.786 3.786-.001.002h-.002l-.002.002H8.17L4.385 3.567H4.396l.002-.002h.001z"/><path id="_460256200" class="fil1" d="m4.428 3.575 3.786 3.787h-.002L8.21 7.36h-.003l-.001-.001h-.002v-.001h-.001L4.416 3.571h.001l.001.001h.001l.002.001h.003l.002.001z"/><path id="_460255576" class="fil1" d="M4.383 3.565 8.169 7.35l-.003.003-.004.002-.003.001-.004.002-.004.001-.004.002h-.004l-.004.002h-.005l-.004.001h-.004l-.005.001h-.004l-.004.001H8.104L4.318 3.583h.004l.004-.001H4.335l.004-.001h.005l.004-.002h.004l.005-.001.004-.002h.004l.004-.002.003-.002.004-.002.003-.002z"/><path id="_460255864" class="fil1" d="M4.455 3.6 8.24 7.387l-.003.003-.004.003-.003.003-.004.002-.005.002-.004.002-.004.001-.005.001-.005.002H8.2l-.005.001H8.19l-.005.001H8.18l-.005.001H8.17L4.383 3.624h.015l.005-.001.005-.001h.005l.005-.002h.005l.004-.002.005-.002.004-.001.004-.002.004-.003.004-.002.004-.003z"/><path id="_460255744" class="fil1" d="m4.439 3.678 3.786 3.786-.001-.001-.002-.001-.003-.001h-.002l-.002-.002v-.001L4.427 3.672h.001l.002.002h.002l.002.002h.002z"/><path id="_460255792" class="fil1" d="m4.52 3.576 3.786 3.786V7.381l-.001.007v.006l-.001.007v.006l-.002.007-.001.006-.001.007-.002.006-.002.006-.002.006-.002.006-.003.005-.003.006-3.787-3.787.004-.005.002-.006.003-.005.002-.006.002-.006.001-.007.002-.006v-.006l.002-.007v-.006l.001-.007v-.006l.001-.007V3.582z"/><path id="_460255816" class="fil1" d="m4.5 3.675 3.786 3.787h-.002l-.002.002-.001.002-.002.001v.001l-.002.001h-.002l-.002-.001-3.786-3.786h.005l.001-.001.001-.001.002-.002.001-.001z"/><path id="_460255696" class="fil1" d="m4.487 3.682 3.786 3.786L4.486 3.68z"/><path id="_460256032" class="fil1" d="m4.448 3.677 3.786 3.787h-.008L4.438 3.678h.007z"/><path id="_460256128" class="fil1" d="m4.451 3.73 3.787 3.785-.002.002-.002.002h-.001l-.001.002H8.23l-.001.002h-.001L4.44 3.737h.002l.001-.002h.001l.002-.002.002-.002h.001z"/><path id="_460256848" class="fil1" d="m4.441 3.737 3.787 3.786-.004.002-.003.002-.003.002-.003.002-.004.001-.003.002h-.007L4.415 3.75h.004l.003-.002.003-.001.003-.002.003-.002.004-.001.003-.002z"/><path id="_460256272" class="fil1" d="m4.486 3.681 3.787 3.786v.005l-.001.004-.001.005-.002.004-.002.004-.002.004-.002.005-.002.004-.003.004-.003.003-.003.004-.003.004-.003.004-.004.003-.003.004-.003.004-3.787-3.787.004-.003.003-.004.003-.003.004-.004.003-.004.003-.004.003-.004.002-.004.003-.004.002-.004.002-.004.002-.004.001-.005.001-.004.001-.004z"/><path id="_460256416" class="fil1" d="m3.88 3.729 3.786 3.786h-.002l-.002.001h-.003l-.001.001h-.001L3.87 3.731h.004l.001-.001h.001l.002-.001z"/><path id="_460256464" class="fil1" d="m3.87 3.73 3.787 3.787-.003.001-.002.001-.003.002h-.002l-.003.002h-.002l-.002.001h-.002L3.852 3.738h.004l.002-.001.003-.001.002-.002h.003l.002-.002z"/><path id="_460256296" class="fil1" d="m3.852 3.738 3.786 3.786V7.551l-.001.004V7.564l-.001.005v.012l-.001.005v.008L3.847 3.808V3.795l.001-.004V3.782l.001-.004V3.765l.001-.005v-.017z"/><path id="_460256896" class="fil1" d="m3.436 3.712 3.786 3.786-.019-.008-.018-.008-.017-.007-.018-.008-.016-.008-.017-.008-.016-.008-.016-.007-.015-.008-.016-.008-.015-.007-.015-.008-.015-.007-.015-.008-.015-.007-.015-.008-.016-.007-.015-.008-.016-.007-.016-.008-.016-.007-.016-.008-.017-.007-.018-.008-.018-.007-.018-.008-.02-.007-.019-.008-.02-.007-.02-.008-.023-.007-.022-.008-3.786-3.786.022.007.022.008.02.008.021.007.02.008.019.007.018.008.018.007.017.008.017.007.017.008.016.007.016.008.016.007.015.007.015.008.016.007.015.008.015.008.015.007.015.008.015.007.016.008.015.007.016.008.016.008.016.008.017.007.017.008.018.008.018.008z"/><path id="_460256368" class="fil1" d="M3.595 3.93 7.38 7.716l-.003.003-.002.002-.002.002-.002.002-.003.002-.002.002-.002.002-.002.002-3.786-3.787.002-.001.002-.002.002-.002.002-.002.003-.002.002-.002.002-.002z"/><path id="_460256656" class="fil1" d="m3.577 3.946 3.786 3.787-.004.002-.005.002-.004.002-.003.002-.004.002-.004.003-.004.002-.003.002-3.787-3.786.004-.002.004-.003.004-.002.003-.002.004-.002.004-.003.004-.002z"/><path id="_460256512" class="fil1" d="M3.545 3.964 7.332 7.75l-.004.002-.004.002-.004.003-.003.002-.004.002-.004.002-.003.001-.005.001L3.515 3.98l.004-.001.004-.002.004-.001.003-.002.004-.003.004-.002.003-.002z"/><path id="_460256728" class="fil1" d="m3.515 3.98 3.786 3.785-.004.004-.005.003-.005.003-.005.002-.005.002-.005.002-.006.002-.005.003-3.786-3.787.005-.002.005-.002.005-.002.005-.002.006-.003.005-.002.004-.003z"/><path id="_460256800" class="fil1" d="M3.513 3.765 7.299 7.55l-.002-.002-.002-.002-.002-.002-.002-.002-.002-.002-.002-.001-.002-.002-.002-.002L3.497 3.75l.002.002.002.001.002.002.002.002.002.002.002.002.002.002z"/><path id="_460257184" class="fil1" d="m2.888 3.469 3.786 3.786-.007-.001-.008-.001-.007-.002h-.007l-.008-.002H6.63l-.007-.001-.007-.001-.007-.001h-.007l-.008-.001-.007-.001H6.58l-.007-.001h-.014l-.007-.001H6.53l-.007-.001H6.46l-.007.001h-.008L2.658 3.456h.022l.007-.001H2.772l.008.001h.007l.007.001H2.8l.007.001h.007l.007.002h.008l.007.001.007.001.007.001.007.001.008.001.007.001.007.001z"/><path id="_460257352" class="fil1" d="m3.42 4.03 3.786 3.786-.003.004-.003.003-.002.003-.003.004-.002.003-.002.003-.002.004-.002.004L3.4 4.057l.001-.003.003-.004.002-.003.002-.004.002-.003.003-.003.003-.004z"/><path id="_460257304" class="fil1" d="m3.4 4.057 3.787 3.787-.003.003-.003.004-.003.004-.003.003-.002.004-.003.003-.002.004-.003.003-.003.003-.003.004-.002.003-.003.003-.003.003-.004.004-.003.003-.004.003L3.354 4.11l.004-.003.003-.003.003-.003.003-.003.003-.003.003-.004.003-.003.003-.003.002-.004.003-.003.002-.003.003-.004.003-.004.003-.003.003-.004z"/><path id="_460257544" class="fil1" d="m2.658 3.456 3.786 3.786H6.44l-.004.001H6.43l-.004.001h-.004l-.004.001h-.004l-.004.001h-.003l-.004.001H6.4l-.004.001h-.004l-.004.001h-.004l-.004.001-3.786-3.786h.008l.004-.001h.004l.004-.001h.003l.004-.001.004-.001h.004l.004-.001h.004l.004-.001h.004l.004-.001h.005z"/><path id="_460257064" class="fil1" d="m3.497 3.75 3.786 3.786-.003-.002-.003-.002-.004-.002-.003-.003-.004-.002-.004-.003-.004-.003-.005-.003-.004-.002-.004-.003-.004-.003-.004-.002-.004-.002-.004-.002-.004-.002-.003-.002-3.786-3.786.003.001.004.002.003.002.004.003.004.002.005.003.004.002.004.003.004.003.004.003.004.002.004.003.004.002.004.003.003.002z"/><path id="_460257256" class="fil1" d="M2.594 3.464 6.38 7.25l-.005.001-.005.001-.005.001-.006.001-.005.001H6.35l-.005.002h-.005l-.006.001-.005.001-.005.001-.005.001h-.005l-.006.002-.005.001-.005.001L2.511 3.48l.005-.001.005-.001.005-.001.006-.001.005-.001.005-.001h.005l.005-.002h.006l.005-.001.005-.001.005-.001.005-.001.006-.001.005-.001z"/><path id="_460257040" class="fil1" d="M2.454 3.49 6.24 7.277 2.454 3.49z"/><path id="_460257280" class="fil1" d="M2.395 3.505 6.18 7.292h-.004L2.391 3.508z"/><path id="_460257088" class="fil1" d="M2.4 3.504 6.186 7.29 2.398 3.504z"/><path id="_460257592" class="fil1" d="M2.454 3.49 6.24 7.278 2.452 3.491z"/><path id="_460258336" class="fil1" d="m2.391 3.507 3.786 3.786h-.003l-.004.001-.004.001-.004.001-.004.001-.003.001-.004.001-.004.001-3.786-3.786h.004l.003-.002.004-.001.004-.001.004-.001.003-.001h.004z"/><path id="_460258432" class="fil1" d="m2.069 3.833 3.786 3.786v.001L2.07 3.834z"/><path id="_460257880" class="fil1" d="M2.07 3.834 5.855 7.62v.003l.001.001h-.001l-.002-.001-3.786-3.786.002.001v-.002z"/><path id="_460258168" class="fil1" d="m2.35 3.516 3.786 3.786-.027.006-.027.006-.026.007-.026.007-.027.009-.026.009-.026.01-.026.01-.025.01-.026.012-.026.012-.025.012-.025.013-.025.013-.026.013-.025.014-.024.013-.025.014-.025.014-.025.015-.024.014-.025.014-.024.014-.025.015-.024.014-.024.014-.024.013-.024.014-.024.013-.024.013-.024.012-.024.013-3.786-3.787.024-.012.023-.012.024-.013.024-.014.025-.013.024-.014.024-.014.024-.014.025-.014.024-.014.024-.014.025-.015.025-.014.024-.014.025-.014.025-.014.025-.013.025-.013.025-.013.026-.013.025-.012.026-.012.025-.012.026-.01.026-.01.026-.01.026-.01.026-.008.027-.008.026-.006.027-.007z"/><path id="_460258456" class="fil1" d="M3.155 4.336 6.94 8.122l-.003-.003-.003-.003-.003-.002-.004-.003-.003-.002-.003-.002-3.786-3.786.003.002.003.002.003.002.003.003.004.003z"/><path id="_460258504" class="fil1" d="m3.136 4.32 3.786 3.787-.004-.001-.003-.003-3.787-3.786.004.002z"/><path id="_460258000" class="fil1" d="m3.187 4.372 3.787 3.786-.004.003-.003.003-.004.003-.004.003-.004.002-.005.002-.004.001-.005.002-.005.001-.005.001h-.005l-.005.001-.005.001h-.01l-.006.001-3.786-3.786h.01l.006-.001h.005l.005-.001.005-.001.005-.001.005-.001.004-.002.005-.002.005-.001.004-.003.004-.002.004-.003.003-.003z"/><path id="_460258288" class="fil1" d="M3.208 4.474 6.994 8.26l-.004.002-.003.001-.003.002-.003.002-.003.002-.004.001-.003.001h-.004L3.181 4.485h.004l.003-.001.003-.002.003-.001.003-.002.004-.002.003-.002z"/><path id="_460257928" class="fil1" d="m3.605 3.9 3.787 3.786-.001.004-.001.004-.001.004-.002.004-.001.003-.002.004-.001.004-.002.003L3.595 3.93l.001-.004.002-.003.002-.004.001-.004.002-.003v-.004l.002-.004z"/><path id="_460258024" class="fil1" d="m3.848 3.808 3.786 3.786-.001.001-.002.005v.01l-.002.012v.016l-.002.02v.13l.002.031.002.032.002.033.003.033.003.033.005.032.004.033.006.03.007.031.007.029.008.027.009.025.01.022.01.02.013.017.013.014-3.786-3.786-.013-.014-.012-.017-.011-.02-.01-.023-.01-.024-.008-.027-.007-.03-.006-.03-.006-.03-.005-.033-.004-.033-.003-.033-.003-.033-.002-.032-.002-.032-.002-.031V3.852l.002-.016.001-.013.001-.009.002-.005z"/><path id="_460258624" class="fil1" d="M3.475 4 7.26 7.785l-.004.001-.003.002-.004.002-.003.002-.004.001-.003.002-.004.002-.003.002-.003.002-.004.002-.003.002-.004.002-.003.002-.003.002-.004.002-.003.002L3.419 4.03l.004-.002.003-.002.004-.002.003-.002.004-.002.003-.002.003-.002.004-.002.003-.002.003-.002.004-.002.003-.002.004-.001.003-.002L3.471 4z"/><path id="_460258552" class="fil1" d="M3.354 4.111 7.14 7.898l-.003.002-.002.003-.002.003-.002.003-.001.003-.002.004v.004l-.002.003v.004l-.002.004v.004l-.002.004-.001.003-.002.004-.002.003-.002.003-3.786-3.786.002-.003.002-.004.001-.003.002-.004V4.15l.002-.004V4.14l.002-.004v-.004l.002-.003.001-.004.002-.003.002-.004.002-.003.002-.002z"/><path id="_460258864" class="fil1" d="M4.074 4.464 7.86 8.251l.01.01.007.01.007.011.005.01.003.01.002.01.001.01v.01l-.002.01-.002.008-.004.01-.004.008-.006.008-.006.008-.007.008-.008.007-.009.007-.009.007-.01.006-.01.006-.01.005-.011.005-.011.004-.012.004-.011.003-.012.003-.012.002-.011.002-.012.001h-.035l-.011-.002-.01-.002-.011-.003-.01-.004-.008-.005-.008-.006-.008-.007L3.83 4.64l.007.007.008.005.01.005.009.004.01.004.01.002.012.002h.035l.011-.001.012-.002.012-.002.011-.003.012-.003.011-.004.011-.005.011-.004.01-.006.011-.005.01-.007.009-.006.008-.007.008-.007.007-.008.007-.008.005-.008.005-.009.004-.009.002-.009.002-.01v-.019l-.003-.01-.003-.01-.005-.01-.007-.01-.008-.011z"/><path id="_460258720" class="fil1" d="m2.51 3.479 3.787 3.786H6.288l-.003.001h-.003l-.003.001h-.003l-.003.002H6.27l-.003.001h-.003l-.003.001-.003.001h-.002l-.003.001H6.25L2.464 3.489h.003l.002-.001.003-.001h.003l.003-.002h.003l.003-.001h.002l.003-.001.003-.001h.003L2.5 3.48h.006l.003-.001z"/><path id="_460258936" class="fil1" d="M2.464 3.488 6.25 7.274 2.462 3.488z"/><path id="_460258984" class="fil1" d="m2.463 3.488 3.786 3.786-3.786-3.786z"/><path id="_460258792" class="fil1" d="m2.463 3.488 3.786 3.786-3.787-3.786z"/><path id="_460259128" class="fil1" d="m2.462 3.488 3.786 3.787-3.786-3.787z"/><path id="_460259200" class="fil1" d="m2.462 3.488 3.786 3.787h-.001L2.461 3.489z"/><path id="_460259272" class="fil1" d="m2.46 3.489 3.787 3.786L2.46 3.489z"/><path id="_460258672" class="fil1" d="m2.46 3.489 3.787 3.786h-.001L2.46 3.49z"/><path id="_460259800" class="fil1" d="m2.46 3.489 3.786 3.786L2.459 3.49z"/><path id="_460259872" class="fil1" d="m2.46 3.489 3.786 3.786h-.001L2.459 3.49z"/><path id="_460259752" class="fil1" d="m2.459 3.49 3.786 3.786-3.787-3.787z"/><path id="_460259776" class="fil1" d="m2.458 3.49 3.787 3.786h-.001L2.457 3.49z"/><path id="_460259896" class="fil1" d="m2.457 3.49 3.787 3.786L2.456 3.49z"/><path id="_460259680" class="fil1" d="m2.457 3.49 3.786 3.786L2.456 3.49z"/><path id="_460259944" class="fil1" d="m2.456 3.49 3.787 3.786L2.455 3.49z"/><path id="_460260040" class="fil1" d="m2.456 3.49 3.786 3.786L2.455 3.49z"/><path id="_460259392" class="fil1" d="m2.455 3.49 3.787 3.786H6.24L2.455 3.49z"/><path id="_460259512" class="fil1" d="M2.455 3.49 6.24 7.277 2.453 3.49z"/><path id="_460260544" class="fil1" d="m3.329 4.166 3.786 3.786v.003l-.002.003v.006l-.001.003v.003l-.001.003v.006l-.001.003v.007l-.001.003v.007l-.001.005v.004l-.001.005v.005l-.002.005v.006l-.001.006-.001.006-.001.007-.002.008v.008l-.002.008-.002.01-.002.009-.002.01-.002.011-.003.012-3.786-3.786.003-.012.002-.011.002-.01.002-.01.001-.01.002-.008.001-.008.001-.007.002-.007v-.007l.001-.006.001-.005V4.23l.001-.005.001-.004V4.213l.001-.004v-.003l.001-.004v-.006l.001-.003v-.006l.001-.003v-.003l.001-.003v-.003l.001-.003V4.17z"/><path id="_460260616" class="fil1" d="m2.453 3.49 3.786 3.787-3.787-3.786z"/><path id="_460260520" class="fil1" d="M2.452 3.49 6.24 7.278 2.451 3.491z"/><path id="_460260064" class="fil1" d="m2.452 3.491 3.786 3.786L2.45 3.491z"/><path id="_460260304" class="fil1" d="m2.451 3.491 3.787 3.786L2.45 3.492z"/><path id="_460260400" class="fil1" d="m2.45 3.491 3.787 3.787L2.45 3.49z"/><path id="_460260112" class="fil1" d="m2.45 3.491 3.786 3.787L2.45 3.492z"/><path id="_460260328" class="fil1" d="m2.45 3.492 3.786 3.786-3.787-3.786z"/><path id="_460260640" class="fil1" d="m2.449 3.492 3.786 3.786-3.786-3.786z"/><path id="_460260160" class="fil1" d="m2.449 3.492 3.786 3.786h-.002L2.447 3.493z"/><path id="_460260736" class="fil1" d="M2.447 3.492 6.233 7.28 2.446 3.492z"/><path id="_460261024" class="fil1" d="M2.446 3.492 6.233 7.28h-.001L2.445 3.493z"/><path id="_460260832" class="fil1" d="m2.445 3.493 3.787 3.786-3.787-3.786z"/><path id="_460261456" class="fil1" d="m2.445 3.493 3.787 3.786H6.23L2.444 3.493z"/><path id="_460260880" class="fil1" d="m2.444 3.493 3.787 3.786-3.787-3.786z"/><path id="_460261528" class="fil1" d="m2.444 3.493 3.787 3.786h-.002L2.443 3.493z"/><path id="_460260856" class="fil1" d="M2.443 3.493 6.23 7.28 2.441 3.494z"/><path id="_460261264" class="fil1" d="M2.442 3.493 6.228 7.28 2.442 3.493z"/><path id="_460260928" class="fil1" d="M2.442 3.493 6.228 7.28 2.44 3.494z"/><path id="_460261384" class="fil1" d="M2.441 3.494 6.227 7.28 2.441 3.494z"/><path id="_460261096" class="fil1" d="M2.44 3.494 6.228 7.28 2.44 3.494z"/><path id="_460261720" class="fil1" d="M2.44 3.494 6.226 7.28 2.44 3.494z"/><path id="_460262176" class="fil1" d="M2.44 3.494 6.226 7.28h-.001L2.439 3.494z"/><path id="_460261600" class="fil1" d="M2.439 3.494 6.225 7.28 2.439 3.494z"/><path id="_460262248" class="fil1" d="M2.439 3.494 6.225 7.28h-.001L2.438 3.495z"/><path id="_460262224" class="fil1" d="m2.438 3.494 3.786 3.787-3.787-3.787z"/><path id="_460262320" class="fil1" d="m2.437 3.494 3.787 3.787h-.001L2.437 3.495z"/><path id="_460262104" class="fil1" d="M2.437 3.495 6.223 7.28 2.436 3.495z"/><path id="_460261648" class="fil1" d="M2.436 3.495 6.223 7.28h-.001L2.436 3.495z"/><path id="_460261744" class="fil1" d="M2.436 3.495 6.222 7.28 2.434 3.495z"/><path id="_460261816" class="fil1" d="M2.435 3.495 6.221 7.28 2.434 3.495z"/><path id="_460262728" class="fil1" d="m2.434 3.495 3.787 3.786-3.787-3.786z"/><path id="_460262896" class="fil1" d="M2.434 3.495 6.22 7.281 2.433 3.496z"/><path id="_460262920" class="fil1" d="M2.433 3.495 6.22 7.282 2.432 3.495z"/><path id="_460262584" class="fil1" d="m2.433 3.495 3.786 3.787-3.787-3.786z"/><path id="_460262680" class="fil1" d="M2.432 3.496 6.22 7.282h-.002L2.431 3.496z"/><path id="_460262632" class="fil1" d="m2.431 3.496 3.786 3.786L2.43 3.496z"/><path id="_460262848" class="fil1" d="m2.43 3.496 3.787 3.786L2.43 3.496z"/><path id="_460263064" class="fil1" d="m2.43 3.496 3.786 3.786-3.787-3.786z"/><path id="_460262968" class="fil1" d="m2.43 3.496 3.786 3.786-3.787-3.786z"/><path id="_460263040" class="fil1" d="m2.429 3.496 3.786 3.786-3.787-3.786z"/><path id="_460262464" class="fil1" d="m2.428 3.496 3.787 3.787-3.787-3.787z"/><path id="_460263184" class="fil1" d="m2.428 3.496 3.786 3.787-3.787-3.786z"/><path id="_460263280" class="fil1" d="m2.427 3.497 3.786 3.786-3.786-3.786z"/><path id="_460263328" class="fil1" d="m2.427 3.497 3.786 3.786-3.787-3.786z"/><path id="_460263352" class="fil1" d="m3.301 4.338 3.786 3.786V8.138l.001.005.002.006.001.005.001.005.001.005-3.786-3.786v-.005l-.002-.005-.002-.006v-.005L3.3 4.35V4.342z"/><path id="_460231288" class="fil1" d="m2.426 3.497 3.786 3.786-3.786-3.786z"/><path id="_460231240" class="fil1" d="m2.426 3.497 3.786 3.786-3.787-3.786z"/><path id="_460230976" class="fil1" d="M2.425 3.497 6.21 7.283 2.425 3.497z"/><path id="_460230904" class="fil1" d="M2.425 3.497 6.21 7.283H6.21L2.424 3.498z"/><path id="_460231024" class="fil1" d="M2.424 3.497 6.21 7.284 2.424 3.497z"/><path id="_460231384" class="fil1" d="M2.424 3.497 6.21 7.284h-.001L2.423 3.498z"/><path id="_460231528" class="fil1" d="m2.423 3.498 3.786 3.786h-.001L2.42 3.498z"/><path id="_460231264" class="fil1" d="m2.421 3.498 3.787 3.786L2.42 3.498z"/><path id="_460231360" class="fil1" d="m2.421 3.498 3.787 3.786h-.001L2.42 3.498z"/><path id="_460231576" class="fil1" d="m2.42 3.498 3.787 3.786L2.42 3.498z"/><path id="_460231144" class="fil1" d="m2.42 3.498 3.787 3.786h-.001L2.419 3.499z"/><path id="_539058240" class="fil1" d="m2.42 3.498 3.786 3.787-3.787-3.787z"/><path id="_539058672" class="fil1" d="m2.42 3.498 3.785 3.787-3.787-3.786z"/><path id="_539058864" class="fil1" d="m2.418 3.499 3.787 3.786-3.787-3.786z"/><path id="_539058696" class="fil1" d="m2.418 3.499 3.786 3.786L2.416 3.5z"/><path id="_539058912" class="fil1" d="m2.417 3.499 3.786 3.786L2.417 3.5z"/><path id="_539058360" class="fil1" d="m2.417 3.499 3.786 3.786L2.415 3.5z"/><path id="_539058648" class="fil1" d="m2.416 3.5 3.786 3.785L2.414 3.5z"/><path id="_539058720" class="fil1" d="m2.415 3.5 3.786 3.786L2.415 3.5z"/><path id="_539058312" class="fil1" d="M2.415 3.5 6.2 7.286 2.413 3.5z"/><path id="_539058480" class="fil1" d="M2.414 3.5 6.2 7.286 2.414 3.5z"/><path id="_539059440" class="fil1" d="M2.414 3.5 6.2 7.286 2.412 3.5z"/><path id="_539059416" class="fil1" d="m2.413 3.5 3.786 3.786L2.412 3.5z"/><path id="_539059104" class="fil1" d="M2.412 3.5 6.2 7.286 2.411 3.5z"/><path id="_539059080" class="fil1" d="m2.412 3.5 3.786 3.786L2.41 3.5z"/><path id="_539059368" class="fil1" d="m2.411 3.5 3.787 3.787L2.41 3.5z"/><path id="_539058936" class="fil1" d="m2.41 3.5 3.787 3.787L2.41 3.5z"/><path id="_539059152" class="fil1" d="m2.41 3.5 3.786 3.787L2.41 3.501z"/><path id="_539058984" class="fil1" d="m2.41 3.5 3.786 3.787-3.787-3.786z"/><path id="_539059512" class="fil1" d="m2.409 3.501 3.786 3.786-3.786-3.786z"/><path id="_539059392" class="fil1" d="m2.409 3.501 3.786 3.786-3.787-3.786z"/><path id="_539059224" class="fil1" d="m2.408 3.501 3.786 3.787L2.408 3.5z"/><path id="_539059920" class="fil1" d="m2.408 3.501 3.786 3.787h-.001L2.407 3.502z"/><path id="_539060160" class="fil1" d="m2.407 3.502 3.786 3.786-3.786-3.786z"/><path id="_539060088" class="fil1" d="m2.407 3.502 3.786 3.786h-.001L2.406 3.502z"/><path id="_539059896" class="fil1" d="m2.406 3.502 3.786 3.786-3.787-3.786z"/><path id="_539060040" class="fil1" d="m2.405 3.502 3.787 3.786H6.19L2.405 3.502z"/><path id="_539060424" class="fil1" d="M2.405 3.502 6.19 7.288 2.404 3.502z"/><path id="_539060232" class="fil1" d="M2.404 3.502 6.191 7.29H6.19L2.403 3.503z"/><path id="_539059728" class="fil1" d="M2.403 3.503 6.19 7.289 2.403 3.503z"/><path id="_539060064" class="fil1" d="M2.403 3.503 6.19 7.289h-.001L2.402 3.503z"/><path id="_539059800" class="fil1" d="M2.402 3.503 6.19 7.289h-.002L2.401 3.503z"/><path id="_539060904" class="fil1" d="M2.401 3.503 6.187 7.29 2.401 3.503z"/><path id="_539060832" class="fil1" d="M2.401 3.503 6.187 7.29 2.4 3.505z"/><path id="_539061216" class="fil1" d="M2.4 3.503 6.186 7.29 2.4 3.504z"/><path id="_539060496" class="fil1" d="M2.4 3.504 6.184 7.29 2.4 3.504z"/><path id="_539060568" class="fil1" d="M2.399 3.504 6.185 7.29 2.397 3.504z"/><path id="_539061168" class="fil1" d="M2.398 3.504 6.184 7.29 2.398 3.505z"/><path id="_539060808" class="fil1" d="m2.398 3.504 3.786 3.787-3.787-3.786z"/><path id="_539060544" class="fil1" d="M2.397 3.505 6.183 7.29 2.397 3.505z"/><path id="_539060736" class="fil1" d="M2.397 3.505 6.183 7.29 2.395 3.505z"/><path id="_539060520" class="fil1" d="M2.396 3.505 6.182 7.29 2.396 3.505z"/><path id="_539060976" class="fil1" d="m2.396 3.505 3.786 3.786-3.787-3.786z"/><path id="_539061312" class="fil1" d="m3.3 4.412 3.786 3.786h-.012l-.002-.001H7.07L3.284 4.41h.004l.002.001h.004l.002.001h.002z"/><path id="_539061672" class="fil1" d="m3.342 4.446 3.786 3.786-.002-.002-.003-.003-.003-.002-.003-.002-.003-.002-.002-.002-.003-.002-.003-.002-.003-.002L7.1 8.21l-.003-.003-.002-.002-.003-.002-.003-.003-3.786-3.786.003.003.002.002.003.002.003.002.003.002.003.002.003.002.002.002.003.002.003.003.003.002.003.002.002.002z"/><path id="_539061240" class="fil1" d="m3.32 4.387 3.785 3.786.004.004.003.004.003.004.002.004.002.005.002.005.002.005.002.005.001.005.002.005v.005l.002.006.001.005-3.786-3.786-.001-.006-.001-.005-.002-.005-.001-.005-.002-.005-.001-.006-.002-.005-.002-.004-.002-.005-.003-.004-.002-.005-.003-.004z"/><path id="_539061480" class="fil1" d="M2.36 3.514 6.148 7.3l-.008.002-3.786-3.786z"/><path id="_539061576" class="fil1" d="m2.353 3.515 3.786 3.787h-.003L2.35 3.518z"/><path id="_539061264" class="fil1" d="m2.35 3.517 3.786 3.786h-.001L2.348 3.517z"/><path id="_539061456" class="fil1" d="M3.284 4.41 7.07 8.196l-.004.003-.005.002-.004.002-.004.001h-.005l-.004.001h-.008L3.25 4.419h.012l.004-.001.005-.001.004-.002.005-.002z"/><path id="_539061840" class="fil1" d="M3.205 4.393 6.99 8.18l-.003-.003-3.786-3.786z"/><path id="_539061336" class="fil1" d="m4.111 4.671 3.787 3.786v.007l-.001.002v.003L4.11 4.682V4.68l.001-.001v-.005z"/><path id="_539061696" class="fil1" d="M4.11 4.682 7.896 8.47l-.003-.003-.002-.002-.003-.002-.003-.002-.003-.003-.003-.003-.003-.002-.004-.004-3.786-3.786.003.003.003.003.004.003.003.002.002.003.003.002.003.002z"/><path id="_539062080" class="fil1" d="m4.086 4.662 3.786 3.786-.002-.002-.003-.002-.002-.002-.003-.002-.003-.001-.002-.002-.003-.002-.002-.002-3.786-3.786.002.002.002.002.003.001.003.002.002.002.003.002.003.002z"/><path id="_539062008" class="fil1" d="m4.09 4.626 3.786 3.786.002.003.001.003.002.002.002.003.002.003.001.002.002.003.001.003.002.002.001.003.001.003.001.003.001.003.001.003.001.003v.003L4.112 4.671v-.003l-.001-.003v-.003l-.002-.003-.001-.003-.001-.003-.002-.003-.001-.003-.002-.002-.001-.003-.002-.003-.001-.002-.002-.003-.002-.003-.001-.003z"/><path id="_539062056" class="fil1" d="M3.215 4.468 7 8.254v.001h-.002v.001l-.001.001h-.001l-.001.002h-.001l-.001.001-3.786-3.786v-.001h.001l.001-.001.001-.001h.001l.001-.002z"/><path id="_539062176" class="fil1" d="m3.25 4.419 3.786 3.786v.004l-.002.004-.001.003-.002.004-.002.004-.002.004-.002.003-.002.004-.003.003-.003.004-.002.003-.003.004-.003.003-.003.003-.003.003L7 8.261 3.214 4.475l.003-.003.003-.003.003-.003.002-.004.003-.003.003-.003.003-.004.002-.003.003-.004.002-.004.002-.003.002-.004.002-.004v-.004l.002-.004z"/><path id="_637667152" class="fil1" d="M4.401 3.563zm-1.999-.06zm.164-.2c.119-.048.348-.078.441-.148.294-.138.557-.289 1.015-.24a.116.116 0 0 0 .046-.006.521.521 0 0 0 .173-.52c-.014-.25.003-.183.149-.226.134-.04.25-.017.329.073.003.113.108.165.084.285a.055.055 0 0 1-.024.029.018.018 0 0 0-.006.013c0 .002 0 .005.002.007h.003c0 .018 0 .035-.011.047l-.034.015a.21.21 0 0 1-.129-.01.036.036 0 0 0-.02.007c-.006.018-.02.03-.023.05v.004c.003.155-.066.431-.132.58a.085.085 0 0 0 .007-.014.032.032 0 0 0 .015.01h.002c.082.034.114.118.179.153.007.008.02.008.03.005.142-.044.378-.13.498-.07.05.009.126.046.12.108 0 .011-.005.019-.013.024l-.008.005c.01.02.006.045.002.069-.008-.02-.02-.031-.028-.05v-.001a.775.775 0 0 1-.033.021.145.145 0 0 1-.003.058c-.007-.018-.018-.03-.026-.047-.008 0-.014-.005-.048.004-.003.001-.005.005-.005.001-.096-.093-.341-.043-.452.03-.008.007-.015.008-.022.013a.104.104 0 0 1-.055.003c-.008-.004-.014-.005-.019-.012-.01-.002-.018-.006-.026-.006l-.001-.002H4.54a.025.025 0 0 0-.021.011.197.197 0 0 1-.02.1c-.007.002-.007.01-.013.006-.001.023-.02.045-.038.063a.1.1 0 0 0 .002-.016.163.163 0 0 1-.01.008c-.01.004-.016.012-.026.012.001-.01.016-.022.021-.034.01-.006.005-.02.012-.024l.005-.001v-.002a.055.055 0 0 1-.005-.01h-.009c-.004-.004-.014-.004-.011-.01.003-.009.003-.02.008-.023.01-.004.01-.012.018-.017l.004-.009a.07.07 0 0 0-.003-.019c-.017.019-.046.022-.072.023.017-.012.026-.027.043-.039a.05.05 0 0 1 .002-.009c-.005 0-.01-.001-.012-.003a.048.048 0 0 1 .005-.009.04.04 0 0 0-.02 0c-.004.004-.01.005-.016.004l-.002-.002c-.017.013-.042.015-.065.017.017-.012.025-.028.042-.04a.05.05 0 0 1 .002-.008l-.001-.001c-.006-.005-.014-.011-.012-.018-.002-.042-.045-.036-.056-.034a.295.295 0 0 1-.056.014c-.006.005-.01.013-.016.022-.017.044-.289.197-.34.212a.054.054 0 0 1-.01.002c-.007.002-.014.007-.02.007 0 .024-.001.048-.003.07-.014-.013-.032.746.18.645.008-.006.014-.013.022-.01.147.115-.011.223-.132.226-.064 0-.118-.028-.108-.104.024-.08-.103-.389-.122-.44a1.493 1.493 0 0 0-.083-.225c-.001.01-.006.02-.01.03-.007.008-.013.011-.018.016-.013.005-.021.012-.032.018-.01.005-.018.013-.03.015-.012.01-.026.014-.04.02l-.056.03c-.007.01-.013.018-.018.028-.017.02-.027.038-.047.054-.017.012-.013.04-.025.055-.01.036-.001.044-.028.172-.003.01.004.028.006.04.024.012.032.043.038.07-.014-.014-.03-.02-.045-.036-.006 0-.011 0-.016-.002a.049.049 0 0 1-.034.009c-.004.02-.02.04-.036.056v-.007a.172.172 0 0 1-.006.006c-.01.004-.017.011-.027.011.001-.009.017-.021.022-.034.008-.005.005-.019.01-.024h.004l.001-.01c-.008-.01-.008-.02-.016-.026h.002a.41.41 0 0 1-.017-.02c-.016.02-.046.023-.073.025.017-.012.026-.027.043-.04 0-.005.002-.01.004-.014a.127.127 0 0 0-.025-.021c-.022-.005-.03-.052-.015-.075.008-.01.048-.024.055-.031l.02-.03c.008-.007.004-.018.013-.023.015-.027.015-.067.039-.088 0-.01.008-.007.01-.014.018-.017.033-.03.045-.047a.137.137 0 0 1 .045-.057c.017-.015.024-.037.04-.054.001-.014.013-.019.016-.027.015-.017.027-.033.04-.046.004-.014.02-.017.026-.029.011-.002.01-.016.024-.019.006-.004.012-.013.019-.016a.295.295 0 0 0-.016-.015c-.015-.01-.044-.03-.061-.038-.203-.085-.304-.162-.548-.243a1.006 1.006 0 0 0-.23-.013c-.024.001-.043.006-.064.008-.028.006-.056.009-.083.015-.017 0-.033.006-.047.009h-.003l-.001.001h-.003l-.001.001h-.003l-.001.001h-.003l-.002.001h-.002l-.002.001H2.44l-.001.001h-.003l-.002.001H2.43v.001h-.005l-.001.001H2.42v.001h-.003l-.001.001h-.004V3.5h-.004v.001h-.003l-.001.001h-.002l-.002.001h-.002l-.001.001h-.002v.001h-.001l-.004.002c-.01 0-.02.005-.03.007l-.008.001-.003.002h-.002.002c-.287.05-.549.253-.803.38.228-.244.914-.56 1.02-.595zM4.111 4.67l-.001.011c-.008-.006-.015-.01-.024-.02-.006-.006-.015-.01-.02-.015.009-.004.005-.018.01-.021.006-.003.011-.003.014 0 .009.015.019.027.021.045zM2.07 3.834c.003.005.002.005-.001.003.001-.002 0-.006.001-.003z"/></g></g><path d="M3.413 0a3.413 3.413 0 1 1 0 6.827 3.413 3.413 0 0 1 0-6.827z" style="fill:none"/><path class="fil3" d="M3.605 3.886c.003.016-.004.03-.01.044-.007.008-.013.011-.018.016-.013.005-.021.012-.032.018-.01.005-.018.013-.03.015-.012.01-.026.014-.04.02l-.056.03c-.007.01-.013.018-.018.028-.017.02-.027.038-.047.054-.017.012-.013.04-.025.055-.01.036-.001.044-.028.172-.004.013.01.044.006.051-.074.086-.118-.036-.171-.068-.022-.005-.03-.052-.015-.075.008-.01.048-.024.055-.031l.02-.03c.008-.007.004-.018.013-.023.015-.027.015-.067.039-.088 0-.01.008-.007.01-.014.018-.017.033-.03.045-.047a.137.137 0 0 1 .045-.057c.017-.015.024-.037.04-.054.001-.014.013-.019.016-.027.015-.017.027-.033.04-.046.004-.014.02-.017.026-.029.011-.002.01-.016.024-.019.01-.006.017-.024.033-.016.025.005.039.024.049.043.005.019.014.031.02.048.005.01.009.021.009.03z"/><path d="M2.068 3.837c.003.002.004.002.001-.003l-.001.003z" style="fill:#424242;fill-rule:nonzero"/><path class="fil3" d="M5.28 3.455c0 .011-.005.019-.013.024-.132.09-.068.038-.144.06-.003 0-.005.004-.005 0-.096-.093-.341-.043-.452.03-.008.007-.015.008-.022.013a.104.104 0 0 1-.055.003c-.008-.004-.014-.005-.019-.012-.01-.002-.018-.006-.026-.006-.007-.015-.004-.034-.014-.048-.007-.019-.02-.026-.03-.044-.006-.023-.013-.043-.033-.054-.008-.01-.01-.025-.018-.034-.001-.008-.002-.015-.01-.02-.015-.01-.037-.004-.05-.008.01-.007.003-.026.016-.034.006-.018.021-.029.031-.042.01-.005.01-.018.017-.025.082.035.114.12.179.154.007.008.02.008.03.005.142-.044.378-.13.498-.07.05.009.126.046.12.108z"/><path class="fil5" d="M4.803 2.521a.054.054 0 0 1-.028.03c-.04.004-.089.018-.123-.001-.005-.004-.008-.009-.014-.013-.031-.015-.076-.007-.108-.024a.259.259 0 0 1-.101-.047c-.008-.01-.02-.016-.025-.026-.01-.011-.026-.011-.04-.01-.006.004-.015.003-.016.005-.004.007-.002.018.004.018.01-.004.025-.013.037-.004.01.012.023.022.035.033.006.004.011.009.017.011.016.013.036.018.053.026.063.026.129.017.177.057.036.002.073-.005.107-.006 0 .018 0 .035-.011.047l-.034.015a.21.21 0 0 1-.125-.009c-.006-.002-.01-.007-.017-.011-.013-.015-.03-.02-.044-.032a.088.088 0 0 0-.065-.016.101.101 0 0 1-.077-.011c-.011-.008-.028-.002-.034-.014-.01-.002-.015.006-.023.006-.006.006-.016.008-.022.014.002.006.01 0 .018-.001.004-.005.01-.01.014-.005.014.01.036.008.048.02.04.025.086-.004.122.016.01.004.014.011.023.014.008.009.015.009.022.016.005.003.01.004.01.01-.005.018-.02.03-.022.05a7.628 7.628 0 0 1-.135.588c-.011.01-.017.023-.027.03-.007.015-.017.027-.022.043-.006.008-.005.018-.015.022-.082-.018-.16.027-.24 0-.03-.003-.055.002-.081.005.005-.013.019-.018.021-.032.011-.007.015-.026.025-.034.01-.019.018-.035.022-.057.004-.013.011-.026.016-.04.013-.018.04-.016.047-.034.001-.006-.004-.006-.005-.005-.01.003-.018.009-.027.011-.015.004-.02.014-.03.023-.006.027-.018.045-.025.07-.004.004-.005.01-.008.012-.005.015-.019.021-.02.037-.005.01-.015.015-.019.025-.009.011-.025.02-.028.032.01.013.027.008.04.007.059-.017.114.015.173.002.065-.011.129-.002.19-.003.02.002.027.018.032.035 0 .006-.01.005-.01.012-.009.046.015.104-.031.131-.005.008-.012.01-.02.008-.012-.011-.013-.026-.023-.034-.006-.005-.014-.011-.012-.018-.002-.058-.084-.025-.051-.036-.04.016-.083.019-.124.026l-.116.028c-.049.006-.1.019-.147.006-.035-.008-.068-.016-.085-.043-.012-.013-.02-.034-.013-.047.012-.017.005-.04.016-.053 0-.033.006-.066.011-.096a.274.274 0 0 1 .02-.072.073.073 0 0 0 .004-.06c-.011-.014-.007-.037-.016-.05-.005 0-.011 0-.01.004.012.05.017.095-.009.141-.013.053-.009.111-.026.164a.082.082 0 0 0-.006.064c.008.012.02.018.028.028a.164.164 0 0 0 .056.028.04.04 0 0 1 .02.005c.065.018.132.001.193-.013.045-.006.087-.026.127-.022-.01.028-.303.208-.35.214 0-.04-.007-.08-.023-.119-.005-.008-.009-.016-.015-.022-.005-.01-.012-.015-.014-.024-.015-.02-.028-.037-.043-.05-.004-.013-.014-.02-.019-.03-.007-.015-.019-.022-.024-.034-.009-.011-.012-.025-.021-.035-.008-.015-.017-.03-.023-.05-.004-.008-.001-.015-.009-.02-.015-.071.012-.144-.007-.212-.007.001-.007.009-.008.015.015.07-.02.14.004.205.006.042.03.068.045.101.01.01.01.023.02.03.013.02.026.042.042.06.019.015.027.032.042.051.043.058.035.141.03.21-.014-.012-.032.747.18.646.008-.006.014-.013.022-.01.147.115-.011.223-.132.226-.064 0-.118-.028-.108-.104.024-.08-.103-.389-.122-.44-.044-.149-.113-.355-.252-.413-.203-.085-.304-.162-.548-.243a1.006 1.006 0 0 0-.23-.013c-.024.001-.043.006-.064.008-.028.006-.056.009-.083.015-.017 0-.033.006-.047.009-.025.007-.049.01-.073.019-.01 0-.02.005-.03.007-.291.049-.557.254-.814.383.228-.244.914-.56 1.02-.595.118-.047.347-.077.44-.147.294-.138.557-.289 1.015-.24.016.002.031-.002.046-.006a.521.521 0 0 0 .173-.52c-.014-.25.003-.183.149-.226.134-.04.25-.017.329.073.003.113.108.165.084.285z"/><path class="fil6" d="M3.498 3.75c-.014-.008-.045-.03-.062-.038-.203-.085-.304-.162-.548-.243a1.006 1.006 0 0 0-.23-.013c-.024.001-.043.006-.064.008-.028.006-.056.009-.083.015-.017 0-.033.006-.047.009-.024.007-.046.01-.07.017a.465.465 0 0 0-.044.012h-.002c.02-.017.23-.09.259-.094.138-.052.349-.025.485.029.089.03.35.222.41.287-.001.012.002.012-.004.012z"/><path class="fil3" d="M4.52 3.56c0 .037 0 .083-.02.115-.007.003-.007.01-.013.007-.014-.014-.035-.003-.048-.004-.004-.004-.014-.004-.011-.01.003-.009.003-.02.008-.023.01-.004.01-.012.018-.017.004-.005.003-.016.013-.016.014-.003.019-.013.026-.024.005-.018.015-.027.008-.049-.003-.005-.005-.007-.003-.012.006-.005.003-.014.005-.02a.094.094 0 0 1 .017.054z"/><path class="fil5" d="M4.494 3.499c-.01.004-.008.016-.01.026a.09.09 0 0 1-.017.071c-.007 0-.015.006-.018 0-.002-.01-.009-.014-.015-.019-.006-.002-.015-.002-.018-.005.005-.011.015-.019.022-.03.005-.003.009-.005.007-.01.008-.034-.005-.072.008-.1a.036.036 0 0 1 .025.027c0 .017.015.026.016.04z"/><path class="fil7" d="M4.477 3.694a.097.097 0 0 1-.036.043c-.01.004-.016.012-.026.012.001-.01.016-.022.021-.034.01-.006.005-.02.012-.024.009 0 .02-.007.028 0v.003z"/><path d="M4.45 2.33c0 .003-.005.007-.009.005-.01-.008-.025-.006-.032-.014-.03-.005-.058-.012-.073-.038-.005-.008-.002-.015-.008-.02-.01 0-.018.014-.026.01-.003-.003-.004-.008-.002-.008.023-.004.028-.035.053-.035.01-.004.013 0 .02 0 .026.01.043.028.052.052.004.01.005.024.015.031.003.008.007.013.01.018z" style="fill:#373435"/><path class="fil7" d="M4.419 2.312c-.003.001-.005-.005-.008-.005 0-.001.003-.004.004-.001.001 0 .005.003.004.006z"/><path d="M4.406 2.28c0 .007-.007.012-.014.015a.05.05 0 0 1-.043-.017c-.002-.013-.007-.028 0-.034.01-.001.02 0 .027.002 0 .01-.014.022-.01.04.019.004.039-.01.035-.012.001.001.005.003.005.005z" style="fill:#e6d9a2"/><path class="fil7" d="M4.395 2.26c-.001.005-.009.003-.013.006-.002-.002.002-.007.004-.01.004 0 .009 0 .009.004z"/><path class="fil10" d="M4.394 3.553c-.015.023-.047.027-.076.029.017-.012.025-.028.042-.04.002-.013.009-.02.007-.03.015.007.013.027.025.036.002.001.002.005.002.005z"/><path class="fil7" d="m4.111 4.671-.001.011c-.008-.006-.015-.011-.024-.02-.006-.006-.015-.01-.02-.015.009-.004.005-.018.01-.021.006-.003.011-.003.014 0 .009.015.019.027.021.045z"/><path class="fil6" d="M4.584 2.63c-.016-.014-.05-.042-.07-.045-.04-.005-.061-.003-.099-.003 0 .22-.033.51-.173.689-.01.012-.14.08-.097.09.066.018.16-.02.22 0 .073-.037.207-.488.195-.693.004-.002.02-.032.024-.039zM4.22 3.517c-.017.046-.321.216-.347.213-.002-.04-.014-.114-.036-.138-.004-.025 0-.055.114-.032.082-.006.1-.012.18-.028.012-.003.05-.015.061-.015h.029z"/><path d="M4.391 2.268c-.004 0-.006.002-.006.005 0 .002.002.004.006.004s.006-.002.006-.004c0-.003-.002-.005-.006-.005z" style="fill:#c1503b"/><path class="fil12" d="M4.547 2.58a.088.088 0 0 0-.065-.016.101.101 0 0 1-.077-.011c-.011-.008-.028-.002-.034-.014-.01-.002-.015.006-.023.006-.006.006-.016.008-.022.014.002.006.01 0 .018-.001.004-.005.01-.01.014-.005.014.01.036.008.048.02a.069.069 0 0 0 .022.008l.05.001a.087.087 0 0 1 .05.007l.012.007a.21.21 0 0 1 .02.014c.004.003.009.005.013.01.005.002.01.003.01.01a.036.036 0 0 1 .021-.009l-.013-.01c-.013-.014-.03-.02-.044-.03zM4.494 2.519c.063.026.129.017.177.057.035.002.07-.004.104-.006a.017.017 0 0 1-.002-.007c0-.005.002-.01.006-.013a.054.054 0 0 1-.004.001c-.04.004-.089.018-.123-.001-.005-.004-.008-.009-.014-.013-.031-.015-.076-.007-.108-.024a.259.259 0 0 1-.101-.047c-.008-.01-.02-.016-.025-.026-.01-.011-.026-.011-.04-.01-.006.004-.015.003-.016.005-.004.007-.002.018.004.018.01-.004.025-.013.037-.004.01.012.024.022.035.033.006.004.011.009.017.011.016.013.036.018.053.026zM4.058 3.533c-.049.006-.1.019-.147.006-.035-.008-.068-.016-.085-.043-.012-.013-.02-.034-.013-.047.012-.017.005-.04.016-.053 0-.033.006-.066.011-.096a.274.274 0 0 1 .02-.072.073.073 0 0 0 .004-.06c-.011-.014-.007-.037-.016-.05-.005 0-.011 0-.01.004.012.05.017.095-.009.141-.013.053-.009.111-.026.164a.082.082 0 0 0-.006.064c.008.012.02.018.028.028a.164.164 0 0 0 .056.028.04.04 0 0 1 .02.005l.05.007h.001a.744.744 0 0 0 .128-.016l.014-.004a.226.226 0 0 0 .031-.006l.026-.007a.229.229 0 0 1 .041-.01H4.2l.02.001c.006-.009.01-.017.017-.022l-.063.01-.116.028z"/><path class="fil12" d="M4.05 3.382c.059-.017.114.015.173.002.065-.011.129-.002.19-.003.02.002.027.018.032.035 0 .006-.01.005-.01.012-.009.046.015.104-.031.132a.023.023 0 0 1-.003.003.04.04 0 0 1 .02 0c.006-.007.012-.013.017-.021.005-.003.009-.005.007-.01.008-.034-.005-.072.008-.1a.036.036 0 0 1 .025.027c0 .017.015.026.016.04-.01.004-.008.016-.01.026a.09.09 0 0 1-.017.071l-.013.003a.07.07 0 0 1 .004.02c.001-.004.003-.007.009-.007.014-.003.019-.013.026-.024.005-.018.015-.027.008-.049-.003-.005-.005-.007-.003-.012.006-.005.003-.014.005-.02a.094.094 0 0 1 .017.054v.015a.025.025 0 0 1 .023-.011c-.006-.015-.004-.033-.013-.046-.007-.019-.02-.026-.03-.044-.006-.023-.013-.043-.033-.054-.008-.01-.01-.025-.018-.034-.001-.008-.002-.015-.01-.02-.015-.01-.037-.004-.05-.008.01-.007.003-.026.016-.034.006-.018.021-.029.031-.041.008-.004.012-.017.015-.024a.032.032 0 0 1-.015-.01.085.085 0 0 1-.007.013l-.019.022a.525.525 0 0 0-.033.055c-.005.007-.005.015-.011.02l-.001.002h-.002c-.083-.018-.161.027-.242 0-.029-.003-.054.002-.08.005.005-.013.019-.018.021-.032.011-.007.015-.026.025-.034.01-.019.018-.035.022-.057.004-.013.011-.026.016-.04.013-.018.04-.016.047-.034.001-.006-.004-.006-.005-.005-.01.003-.018.009-.027.011-.015.004-.02.014-.03.023-.006.027-.018.045-.025.07-.004.004-.005.01-.008.012-.005.015-.019.021-.02.037-.005.01-.015.015-.019.025-.009.011-.025.02-.028.033.01.012.027.007.04.006zM3.819 3.566c-.015-.02-.028-.037-.043-.05-.004-.013-.014-.02-.019-.03-.007-.015-.019-.022-.024-.034-.009-.011-.012-.025-.021-.035-.008-.015-.017-.03-.023-.05-.004-.008-.001-.015-.009-.02-.015-.071.012-.144-.007-.212-.007.001-.007.009-.008.015.015.07-.02.14.004.205.006.042.03.068.045.101.01.01.01.023.02.03.013.02.026.042.042.06.019.015.027.032.042.051.029.04.035.09.034.141.005 0 .012-.005.02-.007a.32.32 0 0 0-.024-.119c-.005-.008-.009-.016-.015-.022-.005-.01-.012-.015-.014-.024z"/><path class="fil10" d="M4.46 3.594c-.016.024-.048.028-.077.03.017-.013.026-.028.043-.04.001-.013.008-.02.006-.03.016.007.014.027.026.035l.001.005zM4.486 3.672c.005.028-.017.052-.037.073.005-.02 0-.037.005-.057-.008-.011-.008-.02-.016-.027.016-.005.028.01.043.009l.005.002zM5.187 3.5c.02.02.015.053.01.081-.007-.02-.02-.031-.028-.05-.012-.005-.017-.013-.028-.014.01-.013.03-.007.041-.016.002-.002.005 0 .005 0zM5.25 3.472c.02.02.016.052.01.08-.007-.019-.02-.03-.027-.05-.013-.005-.018-.013-.028-.014.01-.013.03-.006.04-.016h.006z"/><path class="fil7" d="M3.243 4.43a.097.097 0 0 1-.035.044c-.01.004-.017.011-.027.011.001-.009.017-.021.022-.034.008-.005.005-.019.01-.024.01 0 .021-.006.029 0v.004z"/><path class="fil10" d="M3.19 4.367c-.015.024-.047.027-.076.029.017-.012.026-.027.043-.04.001-.013.008-.02.006-.03.016.007.014.028.026.036l.001.005zM3.25 4.402c.005.028-.016.052-.036.073.004-.02 0-.037.004-.057-.008-.011-.008-.02-.016-.027.016-.006.029.01.043.009l.005.002zM3.305 4.377c.026.012.034.043.04.072-.014-.015-.03-.022-.045-.037-.013 0-.021-.005-.031-.002.005-.016.025-.017.032-.03l.004-.003z"/></g></svg>