<svg xmlns="http://www.w3.org/2000/svg" viewBox="0 0 300 300" xml:space="preserve"><path fill-rule="evenodd" clip-rule="evenodd" fill="#8F4A11" d="M197.624 128.464c23.15 4.37 45.827-9.567 52.441-32.244-1.772-1.063-3.543-2.126-5.433-3.071-14.527-1.418-29.882 10.984-47.008 35.315zM103.963 128.464c-23.15 4.37-45.827-9.567-52.441-32.244 1.772-1.063 3.543-2.126 5.433-3.071 14.528-1.418 29.882 10.984 47.008 35.315z"/><path fill-rule="evenodd" clip-rule="evenodd" fill="#9E5B25" d="M197.624 128.464c16.89-20.669 32.48-36.732 47.008-35.315-17.835-9.213-39.331-6.968-55.157 8.15l-8.74-14.646 30.472-50.787c-18.898-3.543-37.205 18.189-60.709 60l-1.063-1.772c-23.15-40.63-41.102-61.772-59.646-58.228l30.472 50.787-8.74 14.646C93.924 84.645 69.593 83.7 50.932 96.22c5.787 19.961 24.094 33.189 44.291 33.071A45.782 45.782 0 0 1 51.522 96.22c1.772-1.063 3.543-2.126 5.433-3.071.709-.118.354-.118.945-.118 14.055-.118 29.764 12.283 46.063 35.433-.118 0-.236.118-.354.118h-.354v21.26c0 13.465 1.063 11.339 6.968 23.031 7.913 15.945 14.055 32.953 18.189 51.024 13.11 11.929 31.535 11.693 44.055 0 4.252-18.071 10.276-35.079 18.307-51.024 5.787-11.693 6.851-9.567 6.851-23.031v-6.024c-3.78 2.244-8.386 2.48-12.284.59 2.953-7.204 6.968-12.519 12.283-15.944z"/><path fill-rule="evenodd" clip-rule="evenodd" fill="#8F4A11" d="m150.617 266.771 12.992-28.465c-7.677 4.488-18.307 4.252-26.102 0l13.11 28.465z"/><path fill-rule="evenodd" clip-rule="evenodd" fill="#4E2F12" d="M171.64 227.794c.236-1.299.59-2.598.827-3.898-12.756 10.63-31.299 10.63-44.055 0 .354 1.299.59 2.598.827 3.898 1.772 4.606 4.724 8.15 8.268 10.512 7.795 5.197 18.425 5.315 26.102 0 3.543-2.362 6.378-5.905 8.031-10.512z"/><path fill-rule="evenodd" clip-rule="evenodd" fill="#8F4A11" d="M149.435 94.094c-23.15-40.63-41.102-61.772-59.646-58.228l9.567 15.945c11.22 3.071 22.677 14.764 35.551 34.016l1.063 1.063 11.93 5.55 2.598 9.449c0-.118 0-.118.118-.236l.472-5.433 4.724-7.087 10.158-3.307c12.874-19.252 24.331-30.945 35.551-34.016l9.685-15.945c-18.898-3.543-37.205 18.189-60.709 60l-1.062-1.771z"/><path fill="#4E2F12" d="M136.68 209.015c-.591-.945-.354-2.126.59-2.717s2.126-.354 2.717.59c.945 1.417 1.89 2.835 2.835 4.134 1.063 1.299 2.126 2.598 3.189 3.78.827.827.709 2.126-.118 2.835-.709.827-2.008.709-2.835-.118-1.181-1.299-2.244-2.598-3.425-4.016-1.064-1.417-2.009-2.953-2.953-4.488zM160.892 206.889c.59-.945 1.89-1.181 2.835-.59.827.59 1.181 1.772.591 2.717a60.13 60.13 0 0 1-3.071 4.488c-1.063 1.417-2.244 2.717-3.425 4.016-.709.827-2.008.945-2.835.118-.827-.709-.827-2.008-.118-2.835 1.063-1.181 2.244-2.48 3.189-3.78 1.062-1.3 2.007-2.717 2.834-4.134zM148.491 221.889c0-1.063.827-2.008 2.008-2.008 1.063 0 2.008.945 2.008 2.008v7.795c0 1.063-.945 2.008-2.008 2.008-1.181 0-2.008-.945-2.008-2.008v-7.795z"/><path fill-rule="evenodd" clip-rule="evenodd" fill="#FFF" d="M197.624 142.164c.118-9.449.118-13.937 0-13.701a33.056 33.056 0 0 0-12.756 17.126c4.489 2.481 10.158.946 12.756-3.425z"/><path fill="#4E2F12" d="M196.561 126.81c.945-.591 2.126-.354 2.717.59.59.945.354 2.244-.591 2.835-3.189 2.008-5.905 4.843-8.15 8.386-2.362 3.661-4.134 8.15-5.551 13.346-.236 1.063-1.299 1.772-2.362 1.417-1.063-.236-1.772-1.299-1.417-2.362 1.417-5.669 3.425-10.512 5.906-14.527 2.598-4.134 5.787-7.323 9.448-9.685z"/><path fill="#4E2F12" d="M196.561 142.046c.945-.591 2.244-.236 2.835.709.472.945.236 2.126-.709 2.717-2.126 1.299-4.606 2.008-6.969 2.126a15.15 15.15 0 0 1-7.205-1.417c-.945-.472-1.417-1.654-.945-2.717.473-.945 1.654-1.417 2.717-.945a10.056 10.056 0 0 0 5.197 1.063c1.772 0 3.544-.591 5.079-1.536z"/><path fill-rule="evenodd" clip-rule="evenodd" fill="#FFF" d="M104.317 142.164c-.118-9.449-.118-13.937 0-13.701 6.142 4.134 10.63 10.157 12.756 17.126-4.488 2.481-10.157.946-12.756-3.425z"/><path fill="#4E2F12" d="M103.254 130.235c-.945-.59-1.181-1.89-.591-2.835.591-.945 1.772-1.181 2.717-.59 3.78 2.362 6.85 5.551 9.449 9.685 2.598 4.016 4.488 8.858 6.024 14.527.236 1.063-.354 2.126-1.417 2.362-1.063.354-2.244-.354-2.48-1.417-1.417-5.197-3.189-9.685-5.551-13.346-2.245-3.543-4.962-6.378-8.151-8.386z"/><path fill="#4E2F12" d="M103.254 145.472c-.945-.59-1.181-1.772-.591-2.717.591-.945 1.772-1.299 2.717-.709 1.535.945 3.307 1.535 5.079 1.535a10.488 10.488 0 0 0 5.315-1.063c.945-.473 2.126 0 2.599.945.472 1.063.118 2.244-.945 2.717a14.957 14.957 0 0 1-7.087 1.417c-2.48-.118-4.843-.826-7.087-2.125z"/></svg>