<svg xmlns="http://www.w3.org/2000/svg" xml:space="preserve" width="655.359" height="655.359" style="shape-rendering:geometricPrecision;text-rendering:geometricPrecision;image-rendering:optimizeQuality;fill-rule:evenodd;clip-rule:evenodd" viewBox="0 0 6.827 6.827"><defs><clipPath id="id0"><path d="M3.413 0a3.413 3.413 0 1 1 0 6.827 3.413 3.413 0 0 1 0-6.827z"/></clipPath><style>.fil1{fill:#0288d1}.fil4{fill:#33292a}.fil5{fill:#a47654}</style></defs><g id="Layer_x0020_1"><path d="M3.413 0a3.413 3.413 0 1 1 0 6.827 3.413 3.413 0 0 1 0-6.827z" style="fill:#29b6f6"/><g style="clip-path:url(#id0)"><g id="_637666504"><path id="_4487586401" class="fil1" d="m2.578 3.692 3.786 3.786-3.786-3.786z"/><path id="_448758472" class="fil1" d="M2.354 2.665 6.14 6.45h-.001l-.001.002-.002.001-.001.003-.002.002-.003.004-.003.003-.003.004-.005.005-.005.005-.005.006-.005.005-.006.005-.005.006-.006.005-.006.005-.007.005-.006.006-.007.004-.007.005-.007.005-.007.004-.008.004-.008.003-.008.004-.008.003-.01.002-.008.002-.01.002h-.009l-.01.001h-.02l-.01-.002-.012-.002-.011-.003-.012-.004-.012-.004-.012-.006-.013-.006L2.073 2.75l.013.006.012.005.012.005.012.003.011.003.011.002.01.002h.041l.009-.002.009-.002.008-.003.009-.003.008-.003.008-.003.007-.004.008-.005.007-.004.007-.005.007-.005.006-.005.006-.005.007-.005.005-.006.006-.005.006-.005.005-.006.005-.005.005-.005.005-.005.003-.004.003-.004.002-.003.002-.003.002-.002.001-.002h.002z"/><path id="_460242736" class="fil1" d="M2.99 1.955 6.778 5.74v.01l-.002.01v.009l-.002.01-.001.008-.001.01-.001.009-.001.009-.002.009v.008l-.002.009-.001.008-.001.009-.002.008-.001.008-.001.009-.002.008-.001.007-.002.008-.001.008-.002.007-.001.008-.002.007-.001.007-.002.007-.002.007-.001.007-.002.007-.002.006-.002.007-.002.006-.002.006-3.786-3.786.002-.006.002-.006.002-.007.002-.006.001-.007.002-.007.002-.007.001-.007.002-.007.002-.008.001-.007.002-.007.001-.008.002-.008v-.008l.002-.008.002-.008.001-.008.001-.008.002-.009v-.008l.002-.009.001-.009.001-.009.001-.009.002-.009v-.009l.002-.01v-.009l.002-.009v-.01z"/><path id="_460242424" class="fil1" d="m2.52 2.737 3.785 3.786-.004-.004-.006-.005-.006-.005-.006-.004-.006-.004-.007-.005-.007-.004-.007-.004-.008-.004-.007-.004-.008-.003-.007-.004-.008-.003-.007-.003-.008-.003-.007-.003-.007-.002-.007-.002-.007-.002-.006-.001-.006-.002h-.006l-.005-.001H6.14L2.354 2.665h.017l.006.001.006.001.006.002.007.002.007.002.007.002.007.003.007.003.008.003.007.003.008.003.008.004.007.004.008.004.007.004.007.004.007.004.006.005.006.004.006.005.005.004z"/><path id="_460243696" class="fil1" d="M6.277 6.913zM2.491 3.127z"/><path id="_460243312" class="fil1" d="M4.545 4.693 8.33 8.48v.009l-.001.008v.01l-.002.008-.001.009-.001.008-.002.009-.001.008-.002.009-.002.008-.002.009-.003.008-.002.008-.003.009-.002.008-.003.008-.004.008-.003.008-.003.008-.004.008-.004.008-.004.008-.004.008-.005.008-.004.008-.005.007-.005.008-.005.008-.005.007-.006.008-.006.007-.006.007-3.786-3.786.006-.007.006-.008.005-.007.006-.008.005-.007.005-.008.005-.008.004-.007.005-.008.004-.008.004-.008.004-.008.003-.008.004-.008.003-.008.003-.008.003-.008.003-.009.003-.008.002-.008.003-.009.002-.008.002-.008.001-.009.002-.009.001-.008.002-.009V4.73l.002-.01v-.008l.001-.009z"/><path id="_460243888" class="fil1" d="M2.073 2.75 5.86 6.534l-.016-.007-.015-.009-.014-.009L5.8 6.5l-.012-.01-3.786-3.787.011.01.013.01.014.01.016.008z"/><path id="_460243288" class="fil1" d="M4.445 4.954 8.23 8.74l-.003.007-.003.007-.005.007-.004.006-.005.006-.006.006-.006.006-.006.006-.007.005-.007.006-.007.005-.007.005-.008.005-.007.005-.008.004-.008.005-3.786-3.786.008-.005.007-.005.008-.004.007-.005.008-.005.007-.005.007-.006.006-.005.007-.006.006-.006.005-.006.005-.006.005-.006.004-.007.004-.007z"/><path id="_460243648" class="fil1" d="m4.538 4.57 3.786 3.786.007.018.008.018.008.018.008.016.007.016.008.015.008.015.007.014.008.014.007.014.007.013.006.013.006.013.006.012.005.013.005.012.004.013.003.013.003.012.002.013.001.014.001.013v.014l-.002.015-.002.015-.003.015-.004.016-.006.017-.006.018-.008.018-.01.019-.01.02-.005.011-.003.011-.003.01-.001.011v.01l.002.01.002.01.004.009.004.009.006.008.006.008.007.008-3.786-3.787-.007-.007-.006-.008-.006-.009-.005-.008-.003-.01-.003-.009-.001-.01v-.02l.003-.011.004-.011.005-.011.01-.02.01-.02.007-.018.007-.017.005-.017.005-.016.003-.016.002-.015.001-.014v-.028l-.001-.013-.002-.013-.003-.013-.004-.012-.004-.013-.004-.012-.005-.013-.006-.013-.006-.012-.007-.013-.007-.013-.007-.014L4.6 4.7l-.008-.014-.007-.015-.008-.015-.008-.016-.008-.017-.007-.017-.008-.018z"/><path id="_460243336" class="fil1" d="M4.913 5.033 8.7 8.819l-.003-.003-.004-.003-.004-.003-3.786-3.787.004.003.004.004z"/><path id="_460243192" class="fil1" d="M4.348 5.045 8.134 8.83l-.004.003-.003.002-.004.003-.004.003-.004.002-.004.003-.004.002-.004.003-.003.003-.005.002-.004.003-.004.002-.004.003-.004.002-.004.003-.004.002-3.787-3.786.005-.002.004-.003.004-.002.004-.003.004-.002.004-.003.004-.003.004-.002.004-.003.004-.002.004-.003.004-.003.004-.002.003-.003.004-.003z"/><path id="_460243264" class="fil1" d="m4.313 5.108 3.786 3.786.004.005.004.004.004.005.003.005.002.006.002.005.002.007.001.006v.023L4.335 5.174V5.15l-.001-.007-.002-.006-.002-.006-.003-.005-.003-.005-.003-.005-.004-.005z"/><path id="_460243432" class="fil1" d="M4.335 5.174 8.121 8.96v.011l-.002.005v.006l-.002.005-.002.005-.002.005-.002.005-3.787-3.786.003-.005.002-.005.002-.005v-.005l.002-.006v-.005l.002-.006z"/><path id="_460243528" class="fil1" d="m3.082 4.276 3.786 3.787-.001.005-.002.006v.007l-.002.009v.009l-.002.01v.01l-.001.012-.001.012v.013l-.001.014v.013l-.001.015V8.227l-.001.015v.075l-.001.015v.183l-.001.016v.035l-.001.018v.038l-.002.018v.02l-.001.02-.001.019-.001.02-.001.02-.002.019-.001.02-.002.019-.001.019-.002.019-.002.018-.003.019-.002.017-.003.018-.003.016-.003.016-.003.016-.004.015-.003.014-.004.013-.005.012-3.786-3.786.004-.012.004-.014.004-.014.004-.014.003-.016.003-.016.003-.017.003-.017.002-.018.002-.018.003-.019.001-.018.002-.02.002-.019.001-.02.002-.02v-.019l.002-.02v-.02l.001-.019.001-.019v-.019l.001-.019v-.018l.001-.018V4.728l.001-.016v-.196l.001-.015v-.06l.001-.015V4.397l.001-.014.001-.013v-.013l.001-.012.001-.012v-.01l.002-.01v-.01l.002-.008.001-.007.001-.006z"/><path id="_460243744" class="fil1" d="M3.195 4.364 6.98 8.151l-.006-.006-.006-.005-.006-.005-.006-.005-.006-.005-.006-.005-.006-.005-.006-.005-.006-.005-.007-.004-.006-.005-.007-.005-.006-.005-.006-.004-.007-.005-.007-.005-.006-.005-.007-.004-3.786-3.787.007.005.006.005.007.005.006.004.007.005.006.005.007.005.006.004.006.005.007.005.006.005.006.005.006.005.006.005.006.005.006.005.006.005z"/><path id="_460244464" class="fil1" d="m3.649 4.94 3.786 3.786-.004-.003-.004-.003-.004-.004-.004-.003-.004-.004-.005-.004-.004-.003-.005-.004-.005-.004-.005-.004-.005-.005-.005-.004-.005-.004-.006-.004-.005-.005-.006-.004-.005-.005-.006-.004-.006-.005-.006-.005-.005-.004-.006-.005-.006-.005-.006-.004-.006-.005-.006-.005-.006-.005-.006-.004-.006-.005-.006-.005-.006-.004-.006-.005-.006-.005-.006-.005-.005-.004-.006-.005-.006-.004-.006-.005-.005-.004-.006-.005-.006-.004-.005-.005-.005-.004-.006-.004-.005-.005-.005-.004-.005-.004-.005-.004-.005-.004-.005-.004-.005-.004-.004-.004-.004-.004-.005-.004-.004-.003-.004-.004-.003-.003L3.35 4.697l.004.004.004.004.004.003.004.004.005.004.004.003.005.004.005.004.004.004.005.005.005.004.006.004.005.004.005.005.006.004.005.004.006.005.005.004.006.005.006.004.006.005.005.005.006.004.006.005.006.005.006.004.006.005.006.005.006.004.006.005.006.005.006.005.006.004.006.005.005.005.006.004.006.005.006.005.006.004.005.005.006.004.006.005.005.004.005.005.006.004.005.004.005.004.005.004.005.004.005.004.004.004.005.004.004.003.004.004.004.003.004.004z"/><path id="_460244416" class="fil1" d="m4.324 5.216 3.787 3.786-.003.004-.003.004-.003.004-.003.003-.003.003-.004.003-.003.003-.004.002-.004.002-.004.002-.005.002-.004.002-.005.002-.004.001-.005.001-.005.001-.005.001-.005.001h-.005l-.004.002h-.015l-.005.001h-.055l-.007.001h-.081l-.011.001h-.047l-.013.001h-.052l-.013.001h-.042l-.014.001h-.043l-.014.001h-.019l-.019.001-.02.001-.02.002-.02.001-.02.001-.022.002-.02.001-.022.002h-.022l-.022.002h-.021l-.022.001h-.065l-.021-.002-.022-.002-.02-.003-.02-.003-.021-.004-.02-.005-.02-.006-.018-.007-.018-.008-.018-.008-.017-.01-.016-.011-.015-.013L3.25 5.198l.016.012.016.011.017.01.018.01.018.007.019.007.019.005.02.005.02.004.02.004.021.002.021.002.022.002h.021l.022.001h.043l.022-.001.022-.001.021-.002h.022l.021-.002.021-.002.02-.001.021-.002h.02l.02-.002h.019l.019-.001h.028l.015-.001h.056l.013-.001h.04l.013-.001h.049l.012-.001h.063l.009-.001H4.218l.005-.001h.01l.005-.001h.005l.005-.001.005-.001h.005l.005-.002.005-.001.004-.001.005-.002.005-.001.004-.002.004-.002.004-.002.004-.002.004-.003.004-.002.004-.003.003-.003.003-.004.003-.003.003-.004z"/><path id="_460244440" class="fil1" d="m3.018 5.223 3.786 3.786-.002.007-.004.006-.003.006-.004.005-.005.005-.004.004-.005.004-.005.003-.006.003-.005.003-.006.002-.006.002-.007.001-.006.002h-.007l-.007.001-.007.001h-.058l-.007-.001h-.008l-.007-.001h-.007l-.007-.001h-.014L2.821 5.273h.014l.007.001h.014l.007.001h.008l.007.001h.007l.008.001h.043l.007-.002h.006l.007-.002.006-.002.006-.001.006-.003.006-.002.006-.003.005-.004.005-.003L3 5.25l.005-.004.003-.006.004-.005.003-.006z"/><path id="_460244344" class="fil1" d="M2.821 5.274 6.607 9.06h-.015l-.008-.001-.009-.001-.01-.001-.008-.002-.01-.002-.01-.002-.01-.002-.01-.003-.009-.003-.01-.003-.01-.003-.009-.004-.01-.004-.008-.005-.009-.004-.008-.005-.008-.005-.007-.006L6.422 9 2.635 5.212l.007.006.008.005.008.006.008.005.009.004.009.004.009.004.01.004.01.004.009.003.01.003.01.003.01.002.009.002.01.002.009.001.009.002h.008l.009.001.008.001z"/><path id="_460244512" class="fil1" d="m4.912 5.08 3.786 3.787v.004l-.001.005v.004l-.002.005v.004l-.001.005v.004l-.002.004v.004l-.001.004v.004l-.002.004v.004l-.001.004-.001.004-.002.004v.004l-.002.004-.001.003-.002.004-.001.004-.002.004-.002.003-.002.004-.002.004-.002.004-.002.003-.003.004-.002.004-.003.003-.003.004-.003.004-3.786-3.787.003-.003.003-.004.003-.004.002-.003.003-.004.002-.004.002-.003.002-.004.002-.004.002-.004.002-.003.001-.004.001-.004.002-.004.001-.003.001-.004.001-.004.001-.004.001-.004.001-.004v-.004l.002-.004V5.12l.001-.004V5.11l.002-.004v-.004l.001-.004v-.005l.002-.004v-.005z"/><path id="_460244320" class="fil1" d="m4.867 5.207 3.786 3.787-.01.009-.01.008-.01.006-.012.006-.013.004-.013.003-.013.002-.014.001H8.529l-.014-.003-.015-.003-.014-.004-.014-.004-.014-.006-.014-.006L8.431 9l-.012-.008-.012-.009-.01-.01L4.61 5.188l.011.01.012.008.012.008.013.008.014.006.013.005.015.005.014.004.015.003.014.002h.043l.013-.002.013-.003.013-.005.011-.005.011-.007.01-.007z"/><path id="_460244032" class="fil1" d="m4.921 5.032 3.786 3.786.003.003.002.003v.017l-.002.004-.001.005-.002.004-.003.004-.002.005-.003.004-3.786-3.786.002-.004.003-.005.002-.004.002-.005.002-.004.001-.005.001-.004v-.012l-.002-.003z"/><path id="_460244272" class="fil1" d="m2.858 1.558 3.786 3.787.004.004.002.002.002.003.002.004.004.005.004.006.004.007.005.008.005.008.006.01.006.01.006.01.007.013.006.012.006.013.007.013.006.015.007.014.006.015.006.016.006.016.005.016.005.017.004.017.004.017.003.018.003.017.002.018.001.018V5.741L2.99 1.955l.001-.018V1.9l-.001-.018-.002-.018-.003-.018-.003-.017-.004-.017-.004-.017-.005-.017-.006-.016-.005-.016-.006-.016-.006-.015-.007-.015-.006-.014-.007-.013-.006-.013-.007-.013-.006-.011-.006-.011-.006-.01-.006-.01-.005-.009-.005-.007-.005-.007-.003-.006-.004-.005-.002-.004-.003-.003v-.002h-.001z"/><path id="_460243984" class="fil1" d="M2.953 2.218 6.74 6.005l.007.008.008.008.008.01.008.01.01.01.008.011.01.012.009.012.01.013.01.014.01.014.01.014.011.015.011.016.011.016.012.016.011.017.012.017.012.018.013.018.012.018.012.019.013.019.013.02.013.019.013.02.014.02.013.02.014.02.013.021.014.021.028.042.03.044.032.045.034.046.034.047.037.048.037.05.038.05.04.05.04.052.04.052.04.052.042.053.042.053.041.053.042.053.04.053.041.052.04.052.04.052.039.051.037.05.037.05.035.05.034.047.032.046.031.046.029.044.027.043.024.04.023.04.02.038.005.01.005.01.005.01.005.01.005.01.005.01.004.01.005.011.004.01.004.01.005.01.004.01.004.01.004.01.003.01.004.011.004.01.003.01.003.01.004.01.003.01.003.01.002.01.003.01.003.01.002.01.002.01.003.01.002.01.002.01.001.009.002.01-3.786-3.787-.002-.01-.002-.01-.002-.009-.002-.01-.002-.01-.002-.01-.003-.01-.002-.01-.003-.01-.003-.01-.003-.01-.003-.01-.003-.01-.003-.01-.004-.01-.003-.01-.004-.01-.004-.01-.004-.01-.003-.01-.005-.01-.004-.01-.004-.01-.005-.01-.004-.01-.005-.01-.004-.01-.005-.011-.005-.01-.005-.01-.005-.01-.005-.01-.02-.038-.023-.04-.025-.04-.026-.043-.03-.044-.03-.046-.032-.046-.034-.048-.035-.049-.037-.05-.038-.05-.038-.051-.04-.052-.04-.052-.04-.053-.042-.052-.041-.053-.042-.053-.041-.053-.041-.053-.041-.052-.04-.052-.04-.052-.04-.05-.038-.05-.038-.05-.036-.048-.035-.048-.033-.046-.032-.044-.03-.044-.028-.042-.014-.02-.014-.022-.013-.02-.014-.02-.013-.02-.013-.02-.013-.02-.013-.02-.013-.019-.012-.018-.013-.019-.012-.018-.012-.017-.012-.017-.011-.017-.012-.017-.011-.016-.011-.015-.01-.015-.011-.015-.01-.014-.01-.013-.01-.013-.01-.012-.01-.012-.008-.011-.009-.011-.008-.01-.008-.01-.008-.008z"/><path id="_637667296" class="fil1" d="M2.578 3.692zm-.087-.565zm.455-.916c.075.073.205.27.353.494.29.44.925 1.152 1.126 1.543.055.11.096.218.113.321.078.206.191.261.074.48-.064.12.137.2.21.165.057-.027.065-.097.094-.16.007-.016-.003-.022-.014-.03.037.005.026.035.01.057-.009.05-.01.087-.045.126-.092.104-.37-.01-.287-.175.08-.16.03-.223-.035-.339a.433.433 0 0 1-.1.261c-.015.038-.056.067-.097.09a.71.71 0 0 1-.064.042c.036.024.055.042.051.088a.103.103 0 0 1-.01.042c-.026.045-.093.045-.14.045l-.353.005c-.196.003-.489.069-.622-.113-.069-.093-.037-.187.103-.197.11-.008.23-.014.336-.016a6.58 6.58 0 0 0-.17-.137c-.063-.05-.124-.098-.15-.127a.26.26 0 0 1-.064-.142.3.3 0 0 1 .006-.08c-.054-.082-.118-.126-.19-.178-.015.05-.012.298-.013.393 0 .142-.003.428-.05.554-.028.075-.126.052-.197.051-.077 0-.243-.047-.212-.144a.066.066 0 0 1 .056-.048c.055-.01.092-.07.09-.123-.001-.053.013-.76.015-.907.004-.18-.103-.233-.192-.36-.073-.104-.13-.255-.087-.565.016-.117.056-.31.046-.362-.01-.049-.148-.107-.183-.1-.003 0-.006.008-.016.019-.05.052-.128.135-.265.065-.184-.078-.137-.29-.155-.445l-.002-.002a.079.079 0 0 1-.015-.034v-.003a.112.112 0 0 1 .026-.083.135.135 0 0 1 .175-.033c.005.003.033-.009.04-.013.066-.038.112-.137.174-.17.052-.027.129-.05.351-.043l.125-.35a.04.04 0 0 1 .07-.01s.148.2.129.392c-.01.104-.024.19-.045.256z"/></g></g><path d="M3.413 0a3.413 3.413 0 1 1 0 6.827 3.413 3.413 0 0 1 0-6.827z" style="fill:none"/><path d="M4.534 4.558c.078.215.197.268.078.49-.064.122.137.2.21.166.057-.027.065-.097.094-.16.007-.016-.003-.022-.014-.03.037.005.026.035.01.057-.009.05-.01.087-.045.126-.092.104-.37-.01-.287-.175.104-.209-.013-.253-.095-.463a.025.025 0 1 1 .049-.01z" style="fill:#2b2122"/><path class="fil4" d="M4.425 4.248c.164.321.2.64-.14.838.026.018.053.037.05.08-.001.038-.01.062-.042.079a.238.238 0 0 1-.107.016l-.354.005c-.196.003-.489.069-.622-.113a.182.182 0 0 1-.032-.063.098.098 0 0 1 .009-.073c.018-.033.058-.056.126-.061a6.454 6.454 0 0 1 .336-.016 6.58 6.58 0 0 0-.17-.137c-.062-.05-.118-.094-.143-.12a.242.242 0 0 1-.063-.226c-.054-.084-.119-.128-.191-.18-.031.095.015.733-.064.946-.028.075-.126.052-.197.051-.077 0-.243-.047-.212-.144a.066.066 0 0 1 .056-.048c.055-.01.092-.07.09-.123l.008-.515.007-.392c.007-.341-.395-.241-.269-.992.023-.134.043-.253.036-.293v-.002c-.01-.047-.142-.105-.183-.1-.003 0-.006.008-.016.019-.05.052-.128.135-.265.065-.184-.078-.137-.29-.155-.445a.085.085 0 0 1-.014-.08.125.125 0 0 1 .023-.042.14.14 0 0 1 .039-.033.135.135 0 0 1 .137.001c.089-.013.14-.145.213-.184.052-.027.129-.05.351-.043l.125-.35a.04.04 0 0 1 .07-.01s.148.2.129.392a1.767 1.767 0 0 1-.045.256c.075.073.205.27.353.494.29.44.925 1.152 1.126 1.543z"/><path class="fil4" d="M1.904 2.278a.17.17 0 0 0 .007.013c.04.067.12.096.177.064.058-.032.072-.113.032-.18a.17.17 0 0 0-.018-.025.135.135 0 0 0-.198.075.092.092 0 0 0 0 .053z"/><path class="fil5" d="M1.918 2.304c.018.155-.029.367.155.445.137.07.215-.013.265-.065.01-.011.013-.019.016-.02.041-.004.174.054.183.101v.002c.007.04-.013.16-.036.293a2.101 2.101 0 0 0-.01.067l.006-.012c.032-.05.016-.027.055-.064.041-.039.112-.069.156-.094l.004-.002c.092-.053.13-.073.163-.18.02-.065 0-.178-.07-.203-.065-.024-.096-.014-.16-.03l-.01-.005c-.102-.05-.108.008-.2-.11-.071-.094-.18-.086-.21-.136-.048-.076-.006-.154-.001-.233-.036.043-.073.085-.121.092h-.001a.17.17 0 0 1 .018.025c.04.067.026.148-.032.18-.058.032-.137.003-.177-.064a.17.17 0 0 1-.007-.013c.003.01.007.018.014.026z"/><path d="M3.966 4.542c-.3-.206-.715-.346-.701-.008.005.05.03.105.07.148.026.027.082.072.144.12.063.05.131.105.17.138a5.088 5.088 0 0 0-.336.016c-.068.005-.108.028-.126.06a.098.098 0 0 0-.009.074.182.182 0 0 0 .032.063c.133.182.426.116.622.113l.353-.005a.238.238 0 0 0 .108-.016c.032-.017.04-.04.043-.078.001-.04-.02-.06-.045-.076-.006 0-.027.002-.02-.003.117-.076.464-.166-.305-.546z" style="fill:#3b3031"/><path class="fil5" d="M3.018 5.223c.056-.15.05-.507.051-.74-.004-.005-.008-.01-.009-.014a.201.201 0 0 1-.074-.043c-.07-.043-.13-.193-.1-.246.077-.144.019-.152-.066-.25a1.328 1.328 0 0 1-.122-.164c-.01-.017-.07-.048-.12-.074.086.123.196.18.192.36l-.007.392-.008.515c.002.052-.035.114-.09.123a.066.066 0 0 0-.056.048c-.03.097.135.143.212.144.071.001.17.024.197-.051zM3.942 5.15c-.262 0-.073-.105-.193-.137a.349.349 0 0 0-.072-.014c-.27-.01-.282.036-.274-.05l-.09.007c-.068.005-.108.028-.126.06a.098.098 0 0 0-.009.074.182.182 0 0 0 .032.063c.133.182.426.116.622.113l.354-.005a.238.238 0 0 0 .107-.016c.03-.016.04-.038.042-.071-.13-.058-.233-.025-.382-.025h-.01z"/><path d="M2.51 2.144c-.033.02-.047.058-.03.085.016.026.056.031.09.011.032-.02.046-.058.03-.085-.016-.026-.056-.031-.09-.01z" style="fill:#a5d6a7"/><path d="M2.508 2.141a.085.085 0 0 0-.036.043.054.054 0 0 0 .004.047.055.055 0 0 0 .04.025.086.086 0 0 0 .055-.013.086.086 0 0 0 .036-.042.055.055 0 0 0-.003-.048.055.055 0 0 0-.041-.025.085.085 0 0 0-.055.013zm-.027.044a.075.075 0 0 1 .031-.038.075.075 0 0 1 .048-.01c.015.001.028.009.036.02a.048.048 0 0 1 .003.042.075.075 0 0 1-.032.038.075.075 0 0 1-.047.011.048.048 0 0 1-.036-.022.048.048 0 0 1-.003-.041z" style="fill:#212121;fill-rule:nonzero"/><path d="M2.52 2.16c-.022.014-.03.039-.02.056.01.018.037.021.06.008.021-.014.03-.039.02-.056-.011-.018-.038-.021-.06-.008z" style="fill:#424242"/><path d="M2.537 2.163a.012.012 0 1 0 .013.02.012.012 0 0 0-.013-.02z" style="fill:#e0e0e0"/><path d="M2.843 1.731c.026.098.016.202.03.306 0 .009.007.052-.006.038-.036-.037-.127-.08-.1-.125l.004-.007c.036-.061.037-.073.054-.136.009-.033.005-.032.009-.052 0-.006.003.001.006-.02 0-.002.004-.003.003-.004z" style="fill:#2b2021"/></g></svg>