<svg xmlns="http://www.w3.org/2000/svg" xml:space="preserve" width="655.359" height="655.359" style="shape-rendering:geometricPrecision;text-rendering:geometricPrecision;image-rendering:optimizeQuality;fill-rule:evenodd;clip-rule:evenodd" viewBox="0 0 6.827 6.827" xmlns:xlink="http://www.w3.org/1999/xlink"><defs><linearGradient id="id1" gradientUnits="userSpaceOnUse" x1="3.381" y1="5.098" x2="3.163" y2="4.742"><stop offset="0" style="stop-color:#f48381"/><stop offset=".71" style="stop-color:#f38180"/><stop offset=".988" style="stop-color:#f37f80"/><stop offset="1" style="stop-color:#f05b7a"/></linearGradient><linearGradient id="id2" gradientUnits="userSpaceOnUse" xlink:href="#id1" x1="3.049" y1="5.148" x2="2.807" y2="4.751"/><linearGradient id="id3" gradientUnits="userSpaceOnUse" x1="4.373" y1="3.904" x2="4.202" y2="3.846"><stop offset="0" style="stop-color:#f15f5b"/><stop offset=".71" style="stop-color:#ef5d5a"/><stop offset=".988" style="stop-color:#ed5b5a"/><stop offset="1" style="stop-color:#c94155"/></linearGradient><clipPath id="id0"><path d="M3.413 0a3.413 3.413 0 1 1 0 6.827 3.413 3.413 0 0 1 0-6.827z"/></clipPath><style>.fil1{fill:#6a1b9a}.fil10{fill:#90a4ae}.fil3{fill:#b0bec5}</style></defs><g id="Layer_x0020_1"><path d="M3.413 0a3.413 3.413 0 1 1 0 6.827 3.413 3.413 0 0 1 0-6.827z" style="fill:#8e24aa"/><g style="clip-path:url(#id0)"><g id="_637668232"><path id="_5390362321" class="fil1" d="M5.272 2.136 9.06 5.922l.004.006.002.005.001.006v.011l-.003.006-.003.006-.004.006-.004.007-.005.006L5.26 2.194l.006-.006.004-.006.004-.006.003-.006.002-.006v-.017l-.003-.006z"/><path id="_539036088" class="fil1" d="M5.003 2.132 8.789 5.92l.002.003.001.004.001.005.001.005v.018l-.002.006-.001.007-.002.007-.002.008-.002.008-.003.008-.003.008-.003.008-.003.008-.003.009-3.787-3.787.004-.008.003-.008.003-.009.003-.008.002-.008.003-.007.002-.008.002-.007v-.007l.002-.007V2.14l-.002-.004z"/><path id="_539036952" class="fil1" d="M4.1 2.835 7.888 6.62l.003.005.003.005.002.005.002.006.001.006v.006l.001.007v.014l-.001.007-.001.008-.002.007L4.11 2.911l.001-.008.001-.007.001-.007V2.86l-.001-.006-.002-.005-.002-.006-.003-.005z"/><path id="_539037000" class="fil1" d="m2.528 1.645 3.786 3.786.006.007.005.008L2.539 1.66l-.006-.008z"/><path id="_539037024" class="fil1" d="m2.539 1.66 3.786 3.786.017.029.017.027.016.025.015.024.015.023.014.021.014.02.014.02.013.018.013.018.013.017.012.016.013.016.013.016.012.015.013.015.012.014.013.015.014.015.013.015.014.015.014.015.015.016.015.017.016.017.017.017.017.02.018.019.019.02.02.022.02.023.022.024L3.02 2.264 3 2.24l-.02-.023-.02-.022-.02-.02-.017-.02-.018-.019-.016-.018-.016-.017-.015-.016-.015-.016-.014-.016-.014-.015-.014-.015-.013-.014-.013-.015-.013-.015-.012-.015-.013-.015-.012-.015-.013-.016-.012-.016-.013-.017-.013-.018-.013-.018-.014-.02-.014-.02-.014-.022-.015-.022-.015-.024-.016-.026-.017-.027z"/><path id="_539037048" class="fil1" d="m3.857 3.008 3.787 3.786.002.004.003.004.002.005.002.005.001.007.001.007v.007l.001.009v.009l-.001.009-.001.01-.002.01-3.786-3.786.002-.01v-.01l.001-.01V3.04l-.001-.007-.001-.006-.002-.005-.002-.005-.003-.004z"/><path id="_539036664" class="fil1" d="M3.021 2.264 6.808 6.05l.03.035.028.033.025.03.022.028.02.027.017.024.015.023.013.022.01.02.01.02.007.017.007.018.004.017.004.016.002.016.002.016v.016l.001.016V6.496l-.001.018v.063l.001.023.002.026.003.027.003.029.006.031.006.034.008.036-3.786-3.786-.008-.036-.007-.034-.005-.031-.004-.03-.002-.027-.002-.025-.001-.023V2.626l-.002-.016-.002-.016-.004-.017-.005-.016-.006-.018-.007-.018-.01-.02-.01-.02-.013-.021-.015-.023-.018-.025-.02-.026-.021-.028-.025-.03-.028-.033z"/><path id="_539038032" class="fil1" d="m2.529 2.94 3.786 3.786-.001-.001-.002-.001-.001-.001-.002-.001-.001-.001-.001-.001-.002-.001h-.001L2.517 2.931h.002l.001.002h.002l.001.002h.002l.001.001.002.001z"/><path id="_539038056" class="fil1" d="m2.517 2.932 3.787 3.786-.002-.001L2.516 2.93z"/><path id="_539037840" class="fil1" d="m2.596 3.759 3.786 3.786-.01-.004-.01-.004-.01-.005-.01-.005-.01-.005-.009-.006-.008-.006-.008-.006-.007-.007-3.787-3.786.008.006.008.007.008.006.009.006.01.005.009.005.01.005.01.004z"/><path id="_539038152" class="fil1" d="m3.501 4.69 3.787 3.787-.004.001-.003.002-.003.001-.004.002-.003.001-.004.002-.004.001-.003.002h-.004l-.004.002-.004.001-.004.002H7.24l-.004.002-.004.001-.004.001-3.786-3.786.004-.001.004-.001.004-.001.004-.002h.004l.004-.002.004-.001.003-.002.004-.001.004-.002.003-.001.004-.001.003-.002.004-.001.003-.002z"/><path id="_539037624" class="fil1" d="m3.205 4.757 3.786 3.786-.001-.002h-.006l-.003.002-.004.002-.004.003-.005.003-3.786-3.786.004-.003.005-.003.004-.002.003-.002h.005z"/><path id="_539037960" class="fil1" d="m3.24 4.819 3.786 3.786-.003-.002-.003-.002-3.786-3.786.003.002z"/><path id="_539037672" class="fil1" d="m3.217 4.79 3.787 3.785h-.002L3.214 4.787h.001z"/><path id="_539037696" class="fil1" d="M3.182 4.765 6.968 8.55l-.004.003-.004.003-.003.003-.004.003-.004.004-.005.003-.004.004-.004.004-.004.003-.004.003-.003.004-.004.003-.004.003-.003.003-.004.002-.003.002-3.786-3.786.003-.002.003-.003.004-.002.004-.003.003-.003.004-.004.004-.003.004-.004.004-.003.004-.004.004-.003.004-.004.004-.003.004-.003.004-.003z"/><path id="_539037816" class="fil1" d="m2.34 4.29 3.787 3.786-.004-.001-.004-.001-.004-.002H6.11l-.004-.002-.004-.001-.004-.002-.004-.001-.004-.002-.005-.001-.004-.002-.004-.001-.004-.002-.005-.002-.004-.002-.005-.002-.004-.002-.005-.002-.005-.002-.004-.002-.005-.003-.005-.002-.005-.003-.006-.002-.005-.003-.006-.003-.005-.003-.006-.003-.006-.003-.006-.004-.006-.003-.007-.004-3.786-3.786.006.004.007.003.006.003.006.004.005.003.006.003.006.003.005.002.005.003.005.003.005.002.005.002.005.003.005.002.005.002.004.002.005.002.004.002.004.002.005.001.004.002.004.002.004.001.004.002.004.001.005.001.004.002h.004l.004.002.004.001.004.001z"/><path id="_539037888" class="fil1" d="m2.188 4.222 3.786 3.786-.006-.003L5.963 8l-.006-.005L2.17 4.21l.005.005.006.004z"/><path id="_539037528" class="fil1" d="M3.271 4.825 7.057 8.61l-.002.009-.003.007-.001.007-.002.006v.005l-.001.004V8.66l.002.001-3.786-3.786-.001-.002-.001-.002V4.87l-.001-.003v-.008l.002-.005.001-.005.002-.007.002-.008z"/><path id="_539038800" class="fil1" d="m2.898 4.702 3.786 3.786-.006.005-.006.004-.006.005-.006.004-.006.005-.006.004-.007.005-.006.005-.006.004-.006.005-.006.004-.006.005-.006.004-.006.005-.007.004-.006.005-.006.004-.006.005-.006.004-.006.005-.006.004-.006.004-.006.005-.006.004-.006.005-.006.004-.006.004-.006.005-.006.004-.005.004-.006.004-.006.005-3.786-3.787.005-.004.006-.004.006-.004.006-.005.006-.004.006-.004.006-.005.006-.004.006-.004.006-.005.006-.004.006-.005.006-.004.006-.005.006-.004.006-.004.006-.005.006-.004.006-.005.007-.005.006-.004.006-.005.006-.004.006-.005.006-.004.006-.005.006-.004.007-.005.006-.005.006-.004.006-.005z"/><path id="_539038944" class="fil1" d="m3.31 4.9 3.787 3.786.005.005.006.005.005.007.006.007.005.009.006.01.006.01L3.35 4.953l-.006-.01-.006-.01-.006-.009-.005-.007-.006-.007-.005-.006z"/><path id="_539038440" class="fil1" d="M3.121 4.815 6.907 8.6l-.007.005-.008.005-.008.005-.007.004-.007.003-.007.004-.007.003-.007.003-.006.002-.007.002-.006.002-.006.002-.006.001-.005.001-.006.001H6.8L3.015 4.859h.011l.006-.002.006-.001.006-.002.006-.002.007-.002.006-.002.007-.003.007-.003.007-.004.007-.004.007-.004.008-.004.007-.005z"/><path id="_539038536" class="fil1" d="m2.577 4 3.786 3.786-.001-.001-.002-.001-3.786-3.787.001.002z"/><path id="_539038824" class="fil1" d="m3.22 4.915 3.785 3.787-.008.004-.006.006-.004.007-.002.007v.022l.002.007.001.007.001.005.001.004v.003h-.004L6.98 8.77l-.007-.006L3.188 4.98l.007.005.004.004h.005V4.98l-.002-.006L3.2 4.97v-.007l-.002-.007V4.94l.003-.007.004-.007.006-.006z"/><path id="_539038512" class="fil1" d="m2.966 4.849 3.787 3.786-.004-.002-.004-.003-.004-.003-.003-.002L2.95 4.838l.004.003.004.003.003.002z"/><path id="_539038488" class="fil1" d="m3.015 4.858 3.786 3.787-.002.006-.003.006-.003.007-.002.006-.003.006-.002.005-.002.006-.002.005-.002.005-.001.004-.001.004v.003l-.001.003v.005L2.991 4.93v-.011l.002-.004.001-.005.002-.004.002-.006L3 4.895l.002-.006.002-.006.003-.006.003-.006.002-.006z"/><path id="_539038680" class="fil1" d="M2.955 4.96 6.74 8.748l-.004-.004-.005-.002-.006-.003-.006-.002-.008-.002-3.786-3.786.008.002.006.002.006.002.005.003z"/><path id="_539038896" class="fil1" d="m2.926 4.948 3.786 3.786H6.71l-.003.002-.004.003-.003.005-.004.005-.003.006-.004.006-.003.007-.003.007-.002.008-.002.007-.001.006-.001.006v.01l.001.003L2.891 5.03l-.001-.003V5.01l.002-.007.002-.007.002-.007.003-.007.003-.007.003-.006.004-.006.003-.006.004-.004.003-.003.004-.002z"/><path id="_539038224" class="fil1" d="m1.985 4.458 3.786 3.786-.007-.001-.008-.002-.008-.001-.008-.002-.008-.002-.008-.002-.009-.003-.008-.002-.009-.003-.008-.003-.009-.003-.008-.003-.009-.003-.008-.003-.008-.004-.008-.003-.008-.004-.007-.004-.008-.004-.007-.004-.006-.004-.007-.005-.005-.004-.006-.005L1.8 4.384l.005.005.006.004.006.004.007.005.007.004.007.004.008.004.008.003.008.004.008.003.008.004.008.003.009.003.008.003.009.003.009.003.008.002.008.002.009.003.008.002.008.001.008.002.008.002z"/><path id="_539039040" class="fil1" d="M2.146 4.392 5.932 8.18l-.006-.002-.005-.002-.006-.002-.006-.002-.005-.002-.006-.002-.006-.002-.005-.003-.006-.002-.005-.002-.006-.002-.005-.002-.006-.002-.005-.002-.006-.003-.005-.002L2.057 4.36l.005.002.005.002.006.002.005.003.006.002.005.002.006.002.006.002.005.002.006.002.005.002.006.002.006.002.005.002.006.002z"/><path id="_539039592" class="fil1" d="m2.057 4.359 3.786 3.786-.003-.001-.004-.002-.005-.002-.005-.002-.005-.003-.006-.003-.006-.003-.007-.003-.006-.004-.007-.004-.007-.004-.008-.004-.007-.005-.007-.004-.007-.005-.007-.005-.007-.005-.007-.005-.006-.005-.006-.005-3.787-3.786.006.005.007.005.007.005.006.005.007.005.008.005.007.004.007.005.007.004.007.004.007.004.007.003.007.004.006.003.006.003.005.002.005.003.004.002.004.001z"/><path id="_539038992" class="fil1" d="m3.038 4.96 3.786 3.787.003.003.004.004.003.003.002.004.003.004.002.004.002.005.001.005.001.005.001.006v.019l-.002.007-.002.007-.003.008-.003.009-.004.008-3.786-3.786.004-.009.003-.008.002-.008.002-.008.002-.007v-.006l.001-.007v-.011l-.002-.005-.001-.005-.002-.005-.002-.004-.003-.004-.003-.004-.003-.004-.003-.003z"/><path id="_539039112" class="fil1" d="M2.705 4.844 6.49 8.631l-.007.005-.007.005-.008.005-.007.005-.007.005-.008.005-.008.006-.007.005-.008.005-.008.005-.008.005-.007.005-.008.005-.008.005-.008.005-.008.005-.008.005-.008.005-.008.005-.008.005-.008.005-.008.005-.008.005-.008.005-.008.005-.008.005-.008.004-.008.005-.008.005-.007.005-.008.005-.008.004-3.786-3.786.008-.005.007-.005.008-.004.008-.005.008-.005.008-.005.007-.005.008-.004.008-.005.008-.005.008-.005.008-.005.008-.005.008-.005.008-.005.008-.005.008-.005.008-.005.008-.005.008-.005.008-.005.008-.005.008-.005.008-.006.007-.005.008-.005.007-.005.008-.005.007-.005.007-.005.008-.005z"/><path id="_539039088" class="fil1" d="m2.89 5.029 3.787 3.786.002.003v.003h-.003l-.002-.001-.002-.002-.003-.002-3.787-3.787.003.003.003.001.002.002h.002v-.003z"/><path id="_539039496" class="fil1" d="M3.235 5.055 7.02 8.841h-.002l-.004-.001H7.01l-.005.002-.006.001-.007.002-.007.002-.007.001h-.006l-.006.001h-.004l-.004-.002L3.172 5.06l.003.002h.017L3.2 5.06l.007-.001.006-.002.007-.001.005-.002h.008z"/><path id="_539038968" class="fil1" d="M3.243 4.931 7.03 8.717l-.006-.005-.008-.005-.01-.005L3.22 4.915l.01.006.008.005z"/><path id="_539039616" class="fil1" d="m2.951 5.076 3.787 3.786h-.003l-.004.002-.007.002-.009.004-.011.005L2.917 5.09l.012-.005.01-.004.006-.002.004-.002z"/><path id="_539039664" class="fil1" d="m1.718 4.761 3.786 3.786h-.006l-.006.001h-.006l-.006.001h-.063l-.006-.001h-.007l-.007-.002h-.006l-.007-.002-.006-.001-.006-.002-.005-.001-.005-.002-.005-.002-.005-.003-.004-.002-.003-.003-3.787-3.786.004.002.004.003.005.002.004.002.006.002.005.002.006.002h.006l.006.002.007.001.007.001h.006l.007.001h.007l.007.001h.061l.006-.001z"/><path id="_539039208" class="fil1" d="m1.833 4.877 3.786 3.786-.009.004-.009.003-.008.003-.009.003-.009.003-.009.004-.008.003-.009.003-.009.003-.008.002-.009.003-.008.003-.008.003-.008.002-.008.003-.008.002-.008.002-.008.002-.007.002-.007.002-.007.002-.007.002-.006.001-.006.001-.006.002h-.006l-.005.001-.005.001H5.39L1.603 4.943h.021l.005-.002h.006l.006-.002.006-.001.006-.002.007-.001.007-.002.007-.002.007-.002.008-.002.007-.002.008-.003.008-.002.008-.003.009-.002.008-.003.009-.003.008-.003.009-.003.009-.003.008-.003.009-.003.009-.003.008-.003.01-.003.008-.004z"/><path id="_539039400" class="fil1" d="m2.039 4.941 3.786 3.786-.009.004-.009.004-.009.004-.009.004-.009.004-.01.004-.008.004-.01.004-.009.004-.01.004-.008.004-.01.004-.009.003-.009.004-.008.004-.01.003-.008.004-.008.003-.009.003-.008.003-.008.003-.008.003-.007.003-.007.003-.007.002-.007.003-.007.002-.006.002-.005.002-.006.002-.005.002-.005.002-3.786-3.787.005-.001.005-.002.005-.002.006-.002.006-.002.007-.002.006-.003.007-.002.008-.003.007-.003.008-.003.008-.003.008-.003.008-.003.009-.004.008-.003.01-.004.008-.003.01-.004.008-.004.01-.003.009-.004.009-.004.01-.004.008-.004.01-.004.009-.004.009-.004.01-.004.008-.004.01-.004z"/><path id="_539039904" class="fil1" d="m1.782 5.044 3.786 3.787-.01.003-.01.002-.008.001h-.022l-.006-.001-.005-.003-.005-.002-.004-.003L1.712 5.04l.004.003.004.003.005.002.006.002h.022l.01-.001.009-.003z"/><path id="_539040096" class="fil1" d="m1.776 4.554 3.787 3.787-.005-.002-.006-.002-.007-.003-.007-.004-.008-.004-.008-.004-.009-.005-.008-.005-.007-.005-.008-.005-3.786-3.787.007.006.008.005.008.005.008.005.009.004.007.004.008.003.007.003.006.003z"/><path id="_539040144" class="fil1" d="m1.858 4.576 3.787 3.786h-.006l-.005-.002-.005-.001-.005-.001-.005-.002h-.005l-.006-.002-.005-.001-.005-.002-.005-.001-.005-.002-.005-.001-.005-.002-.005-.001-.005-.002-.005-.001-3.787-3.787.005.002.005.002.006.001.005.002.005.001.005.002.005.001.005.001.005.002.005.001.005.001.006.001.005.002h.005l.005.002z"/><path id="_539040120" class="fil1" d="m2.196 4.99 3.786 3.786-.008.003-.01.004-.009.004-.01.004-.01.004-.01.005-.012.005-.011.005-.012.006-.012.005-.012.006-.012.005-.012.006-.013.006-.012.005-.013.006-.012.005-.013.005-.012.005-.013.005-.012.005-.012.004-.011.004-.012.004-.011.003-.011.003-.01.002-.01.002-.01.002h-.01l-.009.001h-.008L1.842 5.119h.017l.01-.002.009-.001.01-.002.01-.002.012-.003.01-.004.012-.003.012-.004.012-.005.012-.004.012-.005.013-.005.012-.005.013-.006.012-.005.013-.006.012-.005.013-.006.012-.006.012-.005.012-.006.012-.005.01-.005.012-.005.01-.005.01-.004.01-.005.01-.004.01-.003z"/><path id="_539040288" class="fil1" d="M1.603 4.942 5.389 8.73l-.008-.001-.007-.002-.006-.002-.006-.002-.005-.004-3.786-3.786.005.003.006.003.006.002.007.002z"/><path id="_539039784" class="fil1" d="m1.842 5.119 3.786 3.786h-.003l-.001-.002-3.786-3.786.001.001z"/><path id="_539040336" class="fil1" d="M2.456 5.004 6.242 8.79l-.01.007-.011.007-.012.007-.011.007-.013.007-.012.008-.013.007-.013.008-.014.007-.013.008-.014.008-.014.008-.015.007-.014.008-.014.007-.015.007-.014.008-.015.007-.015.006-.014.007-.015.006-.014.006-.015.006-.014.006-.014.005-.014.004-.014.005-.013.003-.013.004-.013.003-.013.002-.012.002-3.787-3.786.013-.002.012-.003.013-.002.013-.004.014-.004.014-.004.014-.005.014-.005.014-.005.014-.006.015-.006.014-.006.015-.007.015-.007.014-.007.015-.007.014-.007.015-.008.014-.007.014-.008.014-.007.014-.008.014-.008.013-.008.014-.007.012-.008.013-.007.012-.007.012-.008.012-.007.01-.006z"/><path id="_539040360" class="fil1" d="m2.025 5.202 3.787 3.786H5.79l-.006-.002-.005-.003-3.787-3.786L2 5.2l.007.002h.008z"/><path id="_539040384" class="fil1" d="m2.917 5.089 3.787 3.786H6.662l-.004-.002h-.002L2.869 5.085l.003.001h.004l.005.001h.005l.006.001h.024z"/><path id="_539040432" class="fil1" d="M2.994 5.09 6.78 8.878l-.004.003-.005.002-.005.003-.006.002-.006.002-.006.002-.006.002-.006.002-.006.001h-.005l-.006.001h-.01l-.004-.001-.004-.002-.003-.002-3.786-3.787.003.003.004.001.004.001.005.001h.01l.006-.001.006-.002.006-.001.006-.002.006-.002.006-.002.005-.003.006-.002.004-.003z"/><path id="_539040048" class="fil1" d="m3.046 5.062 3.786 3.786-.004.007-.004.005-.004.005-.005.005-.006.003-.005.004-.005.002-.005.002-.005.001-.004.001h-.007L2.992 5.096l.001.001h.01l.005-.002.005-.002.005-.003.005-.003.005-.004.005-.004.005-.005.004-.006z"/><path id="_539040744" class="fil1" d="m3.35 4.953 3.786 3.786.006.013.003.01.002.01v.01l-.002.008-.003.007-.005.006-.005.006-.005.005-.006.005-.007.004-.006.003-.006.004-.005.004-.005.003-.004.003-3.786-3.786.004-.003.004-.004.006-.003.006-.004.006-.004.006-.004.006-.004.006-.005.005-.006.004-.006.003-.007.002-.008v-.01l-.001-.01-.004-.01z"/><path id="_539041176" class="fil1" d="M3.302 5.054 7.088 8.84l-.004.005-.005.004-.006.004-.006.003-.006.003-.006.003-.005.001-.006.002H7.03l-.004-.003L3.24 5.076l.003.002h.005l.004.001h.006l.005-.002.006-.002.006-.002.006-.003.006-.004.005-.004.005-.004z"/><path id="_539040504" class="fil1" d="m2.733 4.169 3.786 3.786-.022-.01-.02-.01-.021-.011-.02-.01-.019-.01-.017-.01-.017-.01-.016-.01-.015-.008-.014-.01-.013-.008-.012-.008-.01-.008-.01-.007-.009-.007L2.498 4.03l.008.007.01.008.01.008.012.008.013.008.014.01.015.009.016.009.017.01.018.01.019.01.02.01.02.01.021.01z"/><path id="_539040528" class="fil1" d="M2.593 3.982 6.379 7.77l-.017-.013-.015-.012-.013-.011-3.786-3.787.013.012.015.012z"/><path id="_539041056" class="fil1" d="M2.832 4.198 6.62 7.985l-.005-.002-.006-.001-.006-.001-.006-.002-.006-.001-.006-.002-.007-.001-.006-.002-.007-.002-.007-.002-.006-.002-.007-.002-.006-.002-.007-.002-.006-.003-.006-.003L2.733 4.17l.006.003.006.002.006.003.007.002.007.002.006.002.007.002.006.002.007.001.007.002.006.002.006.001.006.001.006.002.005.001z"/><path id="_539040936" class="fil1" d="m3.442 4.712 3.786 3.786-.005.005-.005.005-.005.005-.005.005-.006.005-.005.004-.005.005-.006.005-.005.005-.006.004-.005.005-.006.004-.006.005-.005.004-.006.004-.006.004-.005.004-.006.004-.005.003-.006.004-.005.003-.006.003-.005.003-.006.002-.005.003-.005.002-.005.002-.005.002-.005.001-.005.002h-.005l-.005.001-3.786-3.786h.005l.004-.002.005-.001.005-.001.005-.002.006-.002.005-.002.005-.003.005-.002.006-.003.005-.003.006-.004.005-.003.006-.004.006-.003.005-.004.006-.004.005-.004.006-.005.006-.004.005-.005.006-.004.005-.005.006-.004.005-.005.006-.005.005-.005.005-.005.005-.004.006-.005.005-.005z"/><path id="_539040672" class="fil1" d="M2.601 3.773 6.387 7.56h-.002l-.001-.002-3.786-3.786.001.001z"/><path id="_539041080" class="fil1" d="M2.604 3.774 6.39 7.56h-.002L2.6 3.772h.002v.001z"/><path id="_539040552" class="fil1" d="M2.549 3.574 6.335 7.36l-.003-.002-.003-.001-.003-.003-.003-.002-.003-.002-3.786-3.787.003.003.003.002.003.002.003.002z"/><path id="_539041224" class="fil1" d="m2.593 3.431 3.786 3.786-.015-.01-.014-.011-.013-.012-.013-.012-3.786-3.786.012.012.014.011.014.011z"/><path id="_539041464" class="fil1" d="m3.878 4.369 3.786 3.786-.01.016-.011.015-.01.015-.01.014-.008.013-.009.012-.008.012-.009.011-.008.01-.008.011-.009.01-.008.01-.008.008-.009.01-.009.008-.009.008-.01.008-.01.008-.01.008-.01.008-.012.008-.012.008-.013.008-.014.008-.014.008-.015.009-.017.008-.017.01-.018.009-.02.01-.02.01-.021.01L3.5 4.69l.022-.01.02-.01.02-.01.018-.01.017-.009.016-.009.016-.008.014-.009.014-.008.012-.008.013-.008.011-.007.011-.008.01-.008.01-.008.01-.008.009-.009.009-.008.008-.009.009-.009.008-.01.008-.01.009-.01.008-.01.008-.011.009-.012.009-.013.009-.013.009-.013.01-.015.01-.015z"/><path id="_539041272" class="fil1" d="m2.486 2.565 3.786 3.787.007.006.006.008-3.786-3.787-.007-.007z"/><path id="_539041920" class="fil1" d="m3.267 2.997 3.786 3.786.005.02.005.02.005.02.005.02.005.02.006.02.005.02.006.02.006.019.007.02.006.019.007.019.007.019.007.019.008.018.008.019.008.018.009.018.009.018.01.017.009.017.01.017.01.016.012.016.011.016.012.015.012.015.013.015.013.014-3.786-3.786-.013-.014-.013-.015-.012-.015-.012-.015-.012-.016-.01-.016-.011-.016-.01-.017-.01-.017-.01-.018-.008-.017-.009-.018-.008-.019-.008-.018-.008-.019-.007-.018-.007-.02-.007-.019-.007-.02-.006-.019-.006-.02-.006-.019-.006-.02-.005-.02-.005-.02-.006-.02-.005-.02-.004-.02z"/><path id="_539041320" class="fil1" d="m4.22 3.856 3.787 3.786-.015.01-.015.012-.014.012-.013.013-.014.014-.013.014-.012.015-.013.016-.012.016-.011.017-.012.017-.011.017-.011.018-.01.018-.011.018-.01.018-.01.018-.01.018-.01.019-.01.018-.009.018-.01.018-.008.018-.01.017-.008.018-.009.016-.009.017-.009.016-.008.015-.009.015-.008.014-.01.013-3.785-3.786.008-.014.009-.014.009-.014.008-.016.009-.016.009-.016.009-.017.008-.017.01-.017.009-.018.009-.018.01-.018.009-.018.01-.019.01-.018.01-.018.01-.019.01-.018.01-.018.012-.017.01-.018.012-.017.012-.016.012-.016.012-.016.013-.015.013-.014.013-.014.014-.013.014-.012.015-.012z"/><path id="_539041344" class="fil1" d="M4.407 3.272 8.193 7.06l-.002.007-.003.006-.002.007-.003.006-.003.006-.003.006-.004.006-.003.006-.003.006-.004.006-.003.005-.004.006-.004.005-.003.005-.004.005-.004.005-.004.005-.004.005-.004.005-.005.005-.004.004-.004.005-.005.004-.004.005-.005.004-.005.005-.004.004-.005.004-.005.004-.005.004-.005.005-.005.004-3.786-3.787.005-.004.005-.004.005-.004.005-.004.004-.004.005-.005.005-.004.004-.004.005-.005.004-.004.005-.005.004-.005.004-.004.004-.005.005-.005.004-.005.004-.005.003-.005.004-.005.004-.006.004-.005.003-.006.004-.005.003-.006.003-.006.003-.006.003-.006.003-.006.003-.007.003-.006.003-.007z"/><path id="_539041968" class="fil1" d="m4.34 3.48 3.786 3.785.008.009.007.009.007.01.006.01.005.01.006.01.004.01.004.01.003.012.003.011.002.011.002.012.001.011v.046l-.003.011-.002.012-.003.01-.003.012-.004.01-.004.011-.005.01-.006.01-.006.01-3.786-3.786.006-.01.005-.01.005-.01.005-.01.004-.011.003-.011.003-.012.002-.01.002-.012v-.012l.001-.011v-.023l-.001-.012-.002-.011-.002-.011-.003-.011-.003-.011-.004-.011-.005-.01-.005-.011-.005-.01-.006-.01-.007-.01-.007-.008z"/><path id="_539041368" class="fil1" d="m4.366 3.78 3.787 3.786.001.006.001.007.001.008v.04l-.001.009v.008l-.002.008v.008l-.002.007v.014l-.001.005L4.363 3.9v-.006l.001-.006.001-.007.001-.007v-.008l.002-.008V3.85l.001-.009.001-.008v-.04l-.002-.007z"/><path id="_539041536" class="fil1" d="M4.363 3.9 8.15 7.686v.005l-.001.004-.001.005-.002.005-.001.006-.001.005-.002.006-.002.005-.002.006-.002.005-.002.006-.002.005-.003.005-.002.006-.002.005-.003.005-.002.004-.002.005-.002.004-.002.003-.002.004-.002.003-.002.003-.002.002-.001.001-.001.002h-.002L4.314 4.015h.002l.002-.002.001-.002.002-.002.001-.002.002-.003L4.327 4l.002-.004.003-.004.002-.004.002-.005.002-.005.003-.005.002-.005.002-.005.003-.006.002-.005.002-.006.002-.005.002-.006.001-.005.002-.006.001-.005.001-.005.001-.005.001-.005z"/><path id="_539041560" class="fil1" d="m4.364 3.758 3.787 3.787v.017l.001.003v.001L4.367 3.78v-.008l-.001-.004V3.759z"/><path id="_539041704" class="fil1" d="M4.376 2.613 8.163 6.4l.002.004.002.003.002.004.002.005v.004l.002.006v.017L4.388 2.656V2.638l-.001-.005-.002-.005-.001-.004-.002-.004-.002-.004z"/><path id="_539042760" class="fil1" d="m4.698 2.304 3.786 3.787.003.004.002.004.002.005.001.006v.025l-.002.007-.001.008-3.786-3.787.001-.007.001-.007.001-.007V2.324l-.001-.006-.002-.005-.002-.005z"/><path id="_539042184" class="fil1" d="m5.151 2.31 3.786 3.786-.02.016-.021.018-.023.02-.024.023-.024.024-.026.025-.026.028-.027.028-.027.03-.028.031-.028.032-.028.033-.029.034-.028.034-.028.035-.028.036-.028.035-.027.036-.027.036-.026.036-.025.035-.024.035-.024.035-.022.034-.021.033-.02.032-.018.032-.017.03-.015.029-.013.027-.012.026-.01.025-3.786-3.787.01-.024.011-.026.014-.028.015-.029.017-.03.018-.031.02-.032.02-.034.023-.034.023-.034.025-.035.025-.036.026-.035.026-.036.028-.036.027-.036.028-.035.029-.035.028-.034.028-.034.029-.033.028-.032.028-.031.027-.03.027-.029.026-.027.026-.026.024-.024.024-.022.022-.02.022-.018z"/><path id="_539042592" class="fil1" d="m5.26 2.194 3.787 3.787-.003.005-.003.006-.004.006-.004.006-.004.006-.006.007-.005.007-.007.007-.007.007-.008.008-.008.008-.009.008-.01.008-.01.008-.01.01-.012.008L5.151 2.31l.012-.01.01-.008.01-.008.01-.009.009-.008.008-.007.008-.008.007-.007.006-.008.006-.006.005-.007.005-.006.004-.007.004-.006.003-.005z"/><path id="_637668088" class="fil1" d="M4.983 2.244c.037-.04.176-.149.233-.135.079.02.073.053.045.085a.35.35 0 0 1-.11.116c-.208.159-.653.711-.744.963a.373.373 0 0 1-.125.164c.12.057.148.217.08.319l.002.002.002.022c.01.031 0 .092-.003.12-.003.046-.053.14-.048.11.006-.037-.033-.08-.056-.105a.408.408 0 0 1-.038-.05c-.161.108-.251.375-.343.514-.117.176-.139.204-.377.321a.318.318 0 0 1-.06.022c-.051.051-.121.108-.17.113-.031.098.015.006.079.128.036.07-.03.082-.048.101-.023.023-.073.04-.067.003.002-.016-.078.028-.065-.01.003-.01.049-.013.066-.036.028-.04.037-.068-.017-.096-.05.023.011.1-.031.064-.014-.012-.029-.068-.01-.08a.122.122 0 0 0 .062-.08.05.05 0 0 1-.02-.025c-.005-.012-.005.004-.012-.025a.47.47 0 0 1-.002-.01c-.002-.008-.012-.004-.024.006-.02.014-.045.04-.06.05a.226.226 0 0 1-.107.043c-.015.034-.028.068-.024.072.023.02.1.035.055.132-.017.035-.067.042-.052.029-.022.013-.068.029-.082.014.02-.016.076-.047.005-.016-.002 0-.085.002-.029-.013.052-.013.121-.113.038-.128-.017-.003-.044.067-.035.081.02.034-.127-.087.044-.126.018-.004.024-.027.031-.054-.042-.023-.062-.083-.068-.147l-.193.142c-.075.055-.169.11-.249.16-.11.069-.301.18-.43.198-.065.008-.034-.05-.003-.078.048-.043.112-.091.173-.134-.088.032-.269.134-.354.129-.034-.003.127-.126.197-.178a3.083 3.083 0 0 1-.257.103c-.114.038-.095-.077-.01-.132a.655.655 0 0 1 .06-.035.9.9 0 0 1-.23.065c-.042-.003-.055-.033-.052-.075.003-.037.037-.052.071-.068.022-.01.06-.025.097-.038-.06.005-.17.006-.171-.041-.003-.054.019-.055.069-.077.029-.012.133-.04.242-.067a.732.732 0 0 1-.082-.022c-.022-.007-.099-.043-.092-.073.014-.058.2-.04.238-.03l.063.007c-.078-.014-.202-.056-.211-.115-.013-.085.11-.02.14-.015.061.012.115.039.17.05l.062.014-.09-.033c-.031-.013-.176-.085-.151-.138.022-.048.06-.023.1-.009.08.029.183.049.266.068.029.007.05.01.07.01a.643.643 0 0 1-.153-.068c-.03-.017-.07-.073-.024-.079.01 0 .095.036.125.041.063.01.135.03.197.041.085.015.242.027.34-.012A.01.01 0 0 1 2.83 4.2h.002c-.026-.007-.068-.015-.1-.03-.236-.112-.355-.216-.155-.17a.01.01 0 0 1 .008-.018l.008.001c-.193-.136-.027-.184.011-.208h-.003a.01.01 0 0 1-.005-.015c-.116-.038-.178-.16-.076-.18a.577.577 0 0 1 .029-.005c-.017-.008-.033-.025-.04-.057-.015-.072.073-.064.093-.07a.105.105 0 0 1-.008-.013l-.001-.003c-.163-.112-.211-.306-.043-.227a.01.01 0 0 1 .001-.01 1.332 1.332 0 0 1-.053-.087c-.136-.244-.027-.198.031-.168a1.918 1.918 0 0 1-.012-.007.01.01 0 1 1 .013-.017l.005.004a.827.827 0 0 1-.112-.21c-.082-.204.009-.21.076-.13a.01.01 0 0 1 .003 0 40.312 40.312 0 0 0-.149-.235c-.072-.107-.097-.342-.002-.259l.046.04a.01.01 0 0 1 .008-.005c-.02-.031-.092-.126-.1-.2-.013-.103.03-.11.083-.097-.007-.162.096-.254.15-.163.19.312.248.338.483.604.344.387.152.334.246.733.05.213.118.43.279.563.012-.034.027-.069.042-.103.043-.13.129-.278.15-.322.087-.182.148-.157.128-.04.074-.14.184-.282.215-.273.034.01.036.049.028.089.03-.061.064-.117.092-.155.142-.194.188-.166.186-.1.073-.13.224-.361.279-.363.041-.001.046.031.037.07a.822.822 0 0 1 .192-.198c.137-.093.125-.01.088.08z"/></g></g><path d="M3.413 0a3.413 3.413 0 1 1 0 6.827 3.413 3.413 0 0 1 0-6.827z" style="fill:none"/><path class="fil3" d="m3.691 3.754.333-.076c.116-.19.315-.216.383-.405.091-.252.536-.804.744-.963a.35.35 0 0 0 .11-.116c.028-.032.034-.065-.045-.085-.057-.014-.196.095-.233.135.037-.09.05-.172-.088-.08a.822.822 0 0 0-.192.2c.009-.04.004-.072-.037-.07-.055 0-.206.231-.279.362.002-.066-.044-.094-.186.1a1.156 1.156 0 0 0-.092.155c.008-.04.006-.078-.028-.089-.031-.009-.14.133-.215.272.02-.116-.04-.141-.127.04-.022.045-.108.193-.151.323-.065.148-.12.314-.052.331a.693.693 0 0 0 .155-.034z"/><path d="m2.994 4.777.054.013a.604.604 0 0 0-.057.14c.023.02.1.035.055.132-.02.04-.079.044-.045.024-.015.013-.073.036-.089.02.02-.017.076-.048.005-.017-.002 0-.085.002-.029-.013.052-.013.121-.113.038-.128-.017-.003-.044.067-.035.081.02.034-.127-.087.044-.126.027-.006.027-.056.046-.096.005-.01.01-.019.013-.03z" style="fill:url(#id2)"/><path d="m3.256 4.745.023.055c-.046.137.002.022.07.153.037.07-.03.082-.047.101-.023.023-.073.04-.067.003.002-.016-.078.028-.065-.01.003-.01.049-.013.066-.036.028-.04.037-.068-.017-.096-.05.023.011.1-.031.064-.014-.012-.029-.068-.01-.08.034-.02.058-.049.063-.088a.243.243 0 0 1 .015-.066z" style="fill:url(#id1)"/><path d="M3.668 3.635c-.252-.11-.34-.378-.401-.638-.094-.399.098-.346-.246-.733-.235-.266-.294-.292-.482-.604-.055-.091-.158 0-.151.163-.053-.013-.096-.006-.084.097.015.12.196.295.047.165-.095-.083-.07.152.002.26.01.014.204.32.16.255-.066-.101-.179-.11-.09.11a.906.906 0 0 0 .137.243c-.003.01-.239-.162-.062.154.016.03.038.064.064.102-.184-.093-.134.111.036.225.045.03-.108-.01-.088.083.025.118.178.029.01.062-.104.02-.037.147.083.182.067.02-.295.058.05.26-.3-.09-.183.023.08.148.039.019.094.026.116.034-.096.05-.27.038-.362.022-.063-.01-.135-.031-.198-.041-.03-.005-.116-.042-.125-.04-.046.005-.006.061.024.078.07.039.11.056.153.068a.336.336 0 0 1-.07-.01c-.083-.02-.185-.04-.265-.068-.04-.014-.08-.039-.101.01-.025.052.12.124.152.137.028.012.058.023.089.033-.021-.004-.042-.01-.062-.013-.055-.012-.109-.04-.17-.051-.03-.006-.153-.07-.14.015.009.059.133.101.211.115a1.617 1.617 0 0 1-.063-.006c-.038-.011-.224-.03-.238.03-.007.029.07.065.092.072a.734.734 0 0 0 .082.022c-.109.026-.213.055-.242.067-.05.022-.072.023-.07.077.003.047.113.046.172.041a1.248 1.248 0 0 0-.097.038c-.034.016-.068.031-.07.068-.004.042.009.072.052.075a.901.901 0 0 0 .23-.065.655.655 0 0 0-.062.035c-.084.055-.103.17.011.132.048-.015.164-.06.257-.103-.07.052-.23.175-.197.178.085.005.266-.097.354-.13-.06.044-.125.092-.173.135-.031.028-.062.086.002.078.13-.018.32-.13.431-.198.08-.05.174-.105.249-.16l.193-.142c.01.116.067.218.223.113.026-.018.08-.076.085-.056.009.042.009.022.015.035.03.078.145-.007.22-.082a.318.318 0 0 0 .06-.022c.238-.117.26-.145.377-.321.101-.153.2-.463.395-.542.174-.07.165-.339-.013-.399-.316-.106-.327.149-.592.207z" style="fill:#cfd8dc"/><path class="fil3" d="M3.182 4.765c.012-.01.022-.014.024-.006l.002.01c.166-.137.16-.216.185-.407a.7.7 0 0 1-.211.403z"/><path d="M4.173 3.563c.021.02.016.05-.007.06-.047.022-.082-.042-.041-.067.019-.011.03-.01.048.007z" style="fill:#eceff1"/><path d="M4.16 3.575c.012.01.01.026-.003.032-.025.011-.043-.022-.022-.036.01-.006.017-.005.026.004z" style="fill:#263238"/><path d="M4.364 3.758c-.046-.047-.12.028-.156-.012-.01.08-.006.094.051.159.023.025.062.068.056.104-.005.03.045-.063.048-.11.002-.027.014-.088.003-.119a.175.175 0 0 1-.002-.022z" style="fill:url(#id3)"/><path class="fil3" d="M2.898 4.703c.168-.096.316-.166.421-.39-.09.21-.096.28-.42.39z"/><path class="fil10" d="M2.401 2.14c.204.107.24.188.37.38.008.011.01.015.021.021l-.011-.014c-.136-.21-.15-.284-.371-.406a.01.01 0 1 0-.009.02zM2.508 2.58c.198.127.352.17.545.278-.206-.09-.36-.14-.557-.26a.01.01 0 1 1 .012-.017zM2.53 2.915c.192.129.427.223.567.415-.16-.18-.378-.268-.58-.398a.01.01 0 1 1 .013-.017zM2.566 3.19c.252.195.384.122.59.365-.233-.234-.346-.156-.602-.348a.01.01 0 0 1 .012-.016zM2.613 3.426c.06.114.478.103.462.25-.021-.154-.406-.105-.481-.242a.01.01 0 0 1 .019-.008zM2.582 3.573c.142.014.436.074.522.2-.112-.115-.368-.167-.523-.179a.01.01 0 1 1 0-.02zM2.61 3.754c.257.09.34-.014.569.17-.253-.17-.312-.064-.578-.15a.01.01 0 1 1 .008-.02zM2.585 3.98c.133.032.53.007.568.09a.032.032 0 0 1 .002.022c-.002-.011-.003-.018-.011-.028-.054-.061-.43-.034-.566-.064a.01.01 0 0 1 .007-.02zM2.83 4.2c.18-.075.213-.062.405-.05-.188.007-.219-.01-.394.067a.01.01 0 1 1-.01-.018zM2.41 1.827c.012.06.37.408.45.518.04.054.038.054.106.157l-.06-.08-.054-.072c-.089-.115-.447-.443-.462-.522a.01.01 0 1 1 .02-.001z"/></g></svg>