<svg xmlns="http://www.w3.org/2000/svg" xml:space="preserve" width="655.359" height="655.359" style="shape-rendering:geometricPrecision;text-rendering:geometricPrecision;image-rendering:optimizeQuality;fill-rule:evenodd;clip-rule:evenodd" viewBox="0 0 6.827 6.827"><defs><clipPath id="id0"><path d="M3.413 0a3.413 3.413 0 1 1 0 6.827 3.413 3.413 0 0 1 0-6.827z"/></clipPath><style>.fil1{fill:#64b5f6}.fil3{fill:#6b5b50}.fil6{fill:#897769}.fil4{fill:#aa978a}</style></defs><g id="Layer_x0020_1"><path d="M3.413 0a3.413 3.413 0 1 1 0 6.827 3.413 3.413 0 0 1 0-6.827z" style="fill:#bbdefb"/><g style="clip-path:url(#id0)"><g id="_637664344"><path id="_2161408881" class="fil1" d="m4.488 2.207 3.787 3.786.008.01.007.01.008.01.006.012.006.012.006.012.005.013.005.013.004.014-3.786-3.786-.004-.014-.005-.013-.005-.013-.006-.012-.006-.012-.007-.011-.007-.011-.008-.01z"/><path id="_216140408" class="fil1" d="m4.67 2.4 3.785 3.787.012.014.011.014.01.016.01.015.01.017.01.017.008.017.008.018.007.018.007.018.007.02.006.018.005.02.005.018.005.02.004.02.004.019.004.019.003.02.003.018.002.02.002.018.002.018.001.018.001.018v.018L4.818 2.866l-.001-.017-.001-.018-.002-.018-.001-.018-.002-.02-.003-.018-.002-.02-.003-.018-.004-.02-.004-.02-.004-.019-.005-.019-.005-.02-.006-.018-.006-.02-.006-.018-.007-.018-.008-.018-.007-.018-.009-.018-.009-.016-.01-.017-.01-.016-.01-.015-.011-.014z"/><path id="_216141800" class="fil1" d="m4.817 2.866 3.786 3.787.004.042.005.04.005.036.004.034.005.032.005.03.005.026.005.026.005.023.005.022.006.02.005.019.005.017.006.017.005.016.006.016.005.015.006.014.006.015.005.014.006.015.006.016.006.015.006.017.007.017.006.019.006.02.006.02.007.024.006.024.007.027.006.028-3.786-3.786-.006-.029-.007-.026-.006-.025-.007-.022-.006-.022-.007-.02-.006-.018-.006-.017-.006-.017-.006-.016-.006-.015-.006-.015-.006-.014-.005-.015-.006-.015-.006-.015-.005-.015-.006-.016-.005-.017-.005-.018-.006-.019-.005-.02-.005-.021-.005-.024-.005-.025-.005-.027-.005-.03-.005-.03-.005-.035-.004-.037-.005-.04z"/><path id="_216141128" class="fil1" d="m5.28 3.61 3.786 3.786-.008.003-.009.002-.009.002-.008.002-.009.002-.009.001-.008.002-.009.002-.008.001-.009.001-.009.002h-.008l-.009.002-.008.001-.009.001H8.93l-.009.002h-.017l-.009.001h-.008l-.009.001h-.076l-.008-.001-3.786-3.786h.025l.008.001h.068l.009-.001.008-.001h.009l.008-.001.009-.001.008-.001.009-.001.009-.001.008-.002h.009l.008-.002.009-.002.009-.001.008-.002.009-.002.008-.001.01-.002.008-.002.008-.003z"/><path id="_216141200" class="fil1" d="m5.007 3.637 3.786 3.786v.004l.001.002v.004l.001.002v.001l.001.002L5.01 3.652V3.65l-.001-.002v-.004l-.001-.002V3.64z"/><path id="_216142448" class="fil1" d="m4.352 3.41 3.786 3.787-.004-.005-.005-.004-.005-.004-.006-.004-.006-.003-.006-.004-.007-.003-.006-.004-.007-.003-.008-.003-.007-.003-.008-.003-.008-.003-.009-.002-.008-.003-.01-.003-.008-.002-.01-.003-.009-.003-.01-.002-.009-.003-.01-.002-.01-.003-.01-.002-.01-.003-.01-.002-.011-.003-.011-.003-.01-.002-.011-.003L4.102 3.32l.011.003.01.003.011.003.01.002.011.003.01.003.01.002.01.003.01.002.01.003.01.002.01.003.009.002.009.003.008.003.009.002.008.003.008.003.008.003.008.003.007.003.007.003.007.003.007.004.006.003.006.004.005.004.006.004.004.004z"/><path id="_216142256" class="fil1" d="m4.063 3.44 3.786 3.786-.002.018v.02l-.002.023-.001.024-.001.026v.028l-.001.03-.001.03v.268l.001.035.001.034.001.033.001.033.001.032.001.03.002.03v.028l.002.027.002.025.002.023.001.021.002.019.002.016.002.014.002.012-3.786-3.787-.002-.01-.002-.015-.002-.016-.002-.02-.002-.02-.001-.023-.002-.025-.001-.027-.002-.028-.001-.03-.001-.03-.001-.032-.001-.033-.001-.034v-.033l-.002-.035V3.578l.002-.027v-.026L4.06 3.5v-.022l.002-.02z"/><path id="_216142064" class="fil1" d="M4.102 3.32 7.89 7.107l-.001.003-.001.003-.001.003-.001.003-.001.003-.001.003v.003l-.002.004v.003l-.002.003v.003l-.002.003v.003l-.002.003v.003l-.001.004L4.087 3.37l.001-.003.001-.003.001-.003.001-.003.001-.003.001-.003.001-.004v-.003l.002-.003V3.34l.002-.003v-.003L4.1 3.33v-.003l.001-.003z"/><path id="_216142016" class="fil1" d="m4.763 3.592 3.786 3.786h-.004l-.004-.002-.004-.001-.005-.002-.004-.001-.004-.001-.004-.002-.004-.001-.005-.002-.004-.001-.004-.001-.004-.002-.004-.001-.005-.002-.004-.001-.004-.002-.004-.001-.004-.002-.004-.001-.005-.002-.004-.001-.004-.002-.004-.002-.004-.001-.004-.002-.005-.001-.004-.002-.004-.002-.004-.001-.004-.002-.004-.002-.004-.001-3.787-3.787.005.002.004.002.004.001.004.002.004.002.004.001.004.002.004.002.005.001.004.002.004.001.004.002.004.001.004.002.005.002.004.001.004.002.004.001.004.001.004.002.005.001.004.002.004.001.004.002.004.001.005.001.004.002.004.001.004.001.005.002h.004z"/><path id="_216142280" class="fil1" d="m4.535 4.233 3.787 3.786.005.01.006.008.007.007-3.787-3.786-.007-.008-.006-.008z"/><path id="_216142136" class="fil1" d="M4.663 4.096 8.45 7.882l-.006-.006-.006-.004-.007-.004-.007-.002-.008-.002h-.024l-.008.002-.008.003-.008.003-.007.004-.007.005-.007.005-.007.006-.006.007-.006.007-.005.008-.004.009-.003.009-.003.009-.002.01v.032l.003.012.004.012.005.012-3.787-3.786-.005-.012-.003-.012-.003-.012v-.011l-.001-.01v-.011l.003-.01.002-.01.004-.009.004-.008.005-.008.006-.007.006-.007.006-.006.007-.006.008-.004.007-.004.008-.004.008-.002.008-.002h.008l.008-.001h.008l.007.002.008.003.007.004.006.004z"/><path id="_216141920" class="fil1" d="m4.63 3.544 3.786 3.787H8.4l-.007.001h-.02l-.006.001h-.035l-.006-.001h-.005l-.005-.001-3.786-3.786h.01l.005.001H4.615l.007-.001z"/><path id="_216141968" class="fil1" d="m4.532 3.545 3.786 3.787h-.002V7.33H8.31L4.523 3.543h.006v.001h.002z"/><path id="_216142208" class="fil1" d="M4.523 3.544 8.31 7.33l-.007-.001-.007-.001-.006-.002-.006-.001-.006-.002-.006-.002-.005-.002-.006-.002-.005-.002-.005-.003-.005-.003-.005-.003-.005-.003-.005-.003-.004-.004-.005-.003-.005-.004-.004-.004-.005-.005-.004-.004-.005-.005-3.786-3.786.005.005.004.004.005.004.004.004.005.004.004.004.005.003.005.004.005.003.005.003.005.003.005.002.005.003.005.002.006.002.006.002.006.002.006.001.006.002h.007z"/><path id="_216142376" class="fil1" d="m4.766 3.976 3.786 3.786.003.004.003.005.002.006L4.773 3.99l-.001-.007-.003-.004z"/><path id="_216143120" class="fil1" d="m4.087 3.37 3.787 3.787-.002.004-.001.004-.001.004-.002.004-.001.005-.002.004-.001.004-.002.004-.001.005-.002.004-.001.005-.002.004-.002.004-.002.005-.001.004-.002.005-3.786-3.787.001-.004.002-.005.002-.004.002-.004.001-.005.002-.004.001-.004.002-.005.002-.004.001-.004.002-.005v-.004l.002-.004.002-.004.001-.005z"/><path id="_216142928" class="fil1" d="M4.773 3.99 8.56 7.778l.001.008v.01l.001.008v.018l-.002.009-.002.008-.002.01-.002.008-.003.008-.003.008-.003.008-.004.007-.004.008-.004.006-.004.007-.004.005-.005.006-.004.004-.005.005-.004.003-.004.003-.005.002-.004.001h-.008l-.004-.001-.003-.002-.004-.004L4.69 4.144l.003.003.004.003H4.7l.004.001h.004l.004-.001.004-.003.005-.002.004-.004.005-.004.004-.005.004-.005.005-.006.004-.006.004-.007.004-.007.003-.007.004-.008.003-.008.003-.009.002-.008.002-.009.002-.009.001-.008v-.01l.001-.008v-.01L4.775 4z"/><path id="_216143144" class="fil1" d="m5.01 3.652 3.786 3.786.006.035.006.035.005.034.005.033.003.033.003.033.002.032.002.031v.091l-.002.03-.003.028-.003.027-.004.027-.005.026-.006.025-.006.024-.008.024-.008.023-.009.021-.01.021-.01.02-.012.019-.013.017-.013.017-.015.016-.015.014-.016.014-.018.012-.018.011-.019.01L4.83 4.435l.02-.01.017-.011.017-.012.017-.014.015-.014.014-.016.014-.017.012-.018.012-.018.01-.02.01-.021.01-.022.008-.022.008-.024.006-.024.006-.025.005-.026.004-.027.003-.028.002-.028.002-.029.001-.03v-.06l-.002-.032-.002-.032-.003-.033-.004-.033-.004-.034-.005-.034-.006-.034z"/><path id="_216142976" class="fil1" d="M4.83 4.435 8.614 8.22l-.02.009-.019.007-.02.006-.019.004-.02.004-.019.002H8.44l-.018-.003-.018-.004-.018-.004-.017-.006-.017-.006-.017-.008-.016-.008-.015-.01-.015-.01-.015-.01-.013-.012-.013-.012-3.786-3.787.013.013.013.011.014.011.015.01.016.01.016.008.016.007.017.007.018.005.018.005.018.003.019.003.018.001h.039l.02-.003.019-.003.02-.005.019-.006.02-.007z"/><path id="_216143168" class="fil1" d="m4.078 4.318 3.786 3.787.003.01.003.01.003.009.003.008.003.009.004.008.004.007.004.007.004.007.005.007.004.006.005.006.004.005.005.006.004.005.005.005.004.005.005.004.004.005.005.004.004.005.004.004.004.004.003.005.004.004.003.004.003.004.002.005.003.004.002.005.001.004.002.005-3.787-3.786-.001-.005-.002-.005-.002-.004-.002-.005-.002-.004-.003-.004-.004-.004-.003-.005-.004-.004-.003-.004-.004-.004-.005-.005-.004-.004-.004-.005-.005-.004-.004-.005-.005-.005-.005-.005-.004-.006-.005-.006-.004-.005-.005-.007-.004-.006-.004-.007L4.1 4.38l-.004-.008-.004-.008-.003-.008-.004-.009-.003-.009-.002-.01z"/><path id="_216143192" class="fil1" d="m3.508 3.872 3.787 3.786-.034.01-.032.01-.032.01-.03.009-.03.008-.03.008-.028.008-.027.007-.027.006-.026.007-.025.006-.024.005-.024.005-.023.005-.022.004-.022.004-.02.003-.021.003-.02.003-.019.002-.019.002h-.018l-.017.002h-.066l-.015-.001-.015-.001-.014-.002-.014-.002-.014-.003L2.801 3.99l.014.002.014.003.014.001.015.002h.015L2.89 4h.05l.017-.001.018-.002.019-.002.019-.002.02-.002.02-.003.021-.004.022-.003.022-.005.023-.004.023-.005.025-.006.025-.006.026-.006.026-.007.028-.007.028-.007.03-.008.029-.009.03-.009.032-.009.033-.01z"/><path id="_216143024" class="fil1" d="m4.051 4.598 3.786 3.786H7.822L4.036 4.598H4.049z"/><path id="_216142664" class="fil1" d="m4.036 4.598 3.786 3.786v.011l.001.005V8.435l-.001.006v.006l-.001.006-.001.006-.001.007-.001.006-.002.007L4.03 4.693l.001-.007.001-.006.001-.007.001-.006.001-.006v-.007l.001-.006v-.011l.001-.006v-.028z"/><path id="_216142832" class="fil1" d="m4.03 4.693 3.786 3.786h-.045L3.985 4.693z"/><path id="_216143240" class="fil1" d="M3.985 4.693 7.77 8.479h-.34L3.645 4.693z"/><path id="_216142904" class="fil1" d="M3.645 4.693 7.43 8.479h-.036L3.61 4.693z"/><path id="_216143504" class="fil1" d="M4.193 4.505 7.98 8.29v.005l.001.005.001.005v.004l.001.005V8.333l-.002.004v.004l-.002.004-.002.003-.003.004-.003.003-.003.004-.003.003-.005.003-.004.003-.005.002-.006.003-.007.002-.007.002-.007.002-.008.001-.01.002h-.009l-.01.002H7.837L4.051 4.598H4.1l.01-.002h.01l.01-.002.008-.002.007-.001.007-.002.007-.003.005-.002.006-.003.004-.002.004-.003.004-.004.003-.003.003-.003.002-.004.002-.004.002-.004.001-.004v-.004l.002-.004V4.524l-.001-.005v-.004l-.002-.005z"/><path id="_216143528" class="fil1" d="m1.973 3.258 3.786 3.787-.005.006-.006.007-.005.006-.006.006-.006.005-.006.006-.006.005-.006.005-.006.005-.006.005-.007.004-.006.004-.007.004-.006.004-.007.003-.006.004-3.787-3.787.007-.003.007-.004.006-.003.007-.004.006-.004.006-.005.007-.004.006-.005.006-.005.006-.005.006-.006.006-.006.005-.006.006-.006.006-.006z"/><path id="_216144104" class="fil1" d="m1.875 3.337 3.787 3.787-.007.003-.007.003-.008.003-.007.002-.007.002-.007.003-.007.001-.007.002-.008.002H5.59l-.007.002h-.008l-.007.002h-.022L1.76 3.363h.022l.007-.001.007-.001.008-.001.007-.002.007-.001.007-.002.008-.002.007-.002.007-.002.007-.003.007-.002.007-.003z"/><path id="_216143360" class="fil1" d="m2.801 3.99 3.786 3.786-.002.011-.003.011-.002.011-.003.011-.003.01-.002.011-.003.01-.003.01-.003.011-.003.01-.003.01-.003.01-.003.01-.002.01-.003.01-.003.009-.003.01-.003.009-.003.009-.002.01-.003.008-.003.01-.002.008-.003.01-.002.008-.002.009-.003.008-.002.009-.002.008-.002.009-.002.008-.001.008-3.787-3.786.002-.008.002-.009.002-.008.002-.009.002-.008.002-.009.003-.008.002-.01.003-.008.002-.009.003-.009.002-.01.003-.008.003-.01.003-.009.003-.01.002-.009.003-.01.003-.01.003-.01.003-.009.003-.01.003-.01.003-.01.002-.01.003-.011.003-.01.003-.011.002-.011.003-.01L2.8 4z"/><path id="_216143672" class="fil1" d="M1.76 3.363 5.546 7.15H5.52l-.006-.002h-.007l-.007-.001-.006-.001-.007-.002-.006-.001-.007-.002-.006-.001-.007-.002-.006-.002-.007-.002-.006-.002-.006-.003-.007-.002-.006-.003-.006-.003-.006-.002-.006-.003-.006-.003-.006-.004-.006-.003-.006-.003-.006-.004-.005-.003-.006-.004-.005-.004-.006-.004-.005-.004L1.56 3.293l.005.004.005.004.006.004.005.003.006.004.006.003.006.004.005.003.006.003.006.003.006.003.007.003.006.003.006.002.006.003.007.002.006.002.006.003.007.002.006.001.007.002.006.002.007.001.006.001.007.001.007.001.006.001h.007l.007.001h.006l.007.001z"/><path id="_216143600" class="fil1" d="m1.56 3.293 3.787 3.786-.003-.002L1.558 3.29z"/><path id="_216143480" class="fil1" d="m2.813 4.546 3.786 3.786h-.298L2.515 4.546z"/><path id="_216143936" class="fil1" d="M2.515 4.546 6.3 8.332l.003.005.004.005.003.005.003.006.002.006.002.007.002.006.002.008.001.007.001.008v.009l.001.009v.02l-.002.01-.001.01-3.786-3.785.001-.012.001-.01v-.037l-.001-.008-.001-.008-.002-.007-.002-.007-.002-.006-.003-.006-.003-.006-.003-.005-.003-.006z"/><path id="_216143624" class="fil1" d="m2.536 4.668 3.786 3.786-.001.034-3.787-3.786z"/><path id="_216143816" class="fil1" d="m2.534 4.702 3.787 3.786h-.035L2.5 4.702z"/><path id="_216144512" class="fil1" d="m2.5 4.702 3.786 3.786h-.359L2.141 4.702z"/><path id="_216144728" class="fil1" d="m2.14 4.702 3.787 3.786h-.036L2.105 4.702z"/><path id="_216144368" class="fil1" d="m2.718 4.296 3.787 3.786.005.006.005.006.006.006-3.786-3.787-.006-.005-.005-.006z"/><path id="_216144176" class="fil1" d="M2.812 4.372 6.598 8.16l.006.005.005.005.004.006.005.006.004.006.003.007.003.008.003.008.003.008.001.01.002.01v.046l-.002.013-3.787-3.786.002-.014.001-.012V4.45l-.002-.01-.002-.009-.002-.008-.003-.008-.003-.008-.004-.007-.004-.006-.004-.006-.005-.006-.005-.006z"/><path id="_216144464" class="fil1" d="m2.848 4.511 3.787 3.786-.002.035-3.786-3.786z"/><path id="_216144848" class="fil1" d="m2.847 4.546 3.786 3.786H6.6L2.813 4.546z"/><path id="_637664320" class="fil1" d="M2.64 2.423c.402.166.695.034 1.018-.09a.552.552 0 0 1 .17-.085.338.338 0 0 1 .148-.014.615.615 0 0 1 .21-.096c.185-.045.316.026.358.175l.042.021c.168.09.224.35.23.532.049.47.108.4.18.717.082.013.174.02.284.027a.87.87 0 0 1-.273.027l.003.015c.073.374.027.684-.18.783-.209.098-.435-.038-.447-.24-.011-.171.167-.275.293-.236.047.014.09-.004.097.032.02.09-.07.211-.092.137-.032-.11-.205-.027-.146.105.048.105.283.043.318-.195.02-.137-.005-.35-.09-.446a1.406 1.406 0 0 1-.134-.048.528.528 0 0 1-.098 0v.001l-.008-.001c-.073-.01-.105-.048-.163-.125-.038-.05-.142-.068-.258-.099a3.69 3.69 0 0 1-.04.12c-.016.18-.007.773.016.878.024.112.104.135.115.187.011.052.007.097-.142.093h-.015a.33.33 0 0 1-.006.095H3.61v-.036c.032-.284-.077-.47-.1-.785-.363.111-.564.146-.708.118-.026.119-.065.218-.083.306.055.067.152.065.13.215v.035H2.514c.019.025.03.06.02.122v.034H2.104v-.036c-.03-.124-.021-.307-.041-.498-.016-.158.074-.08.069-.338-.012-.177-.112-.273-.14-.422-.009-.05-.016-.1-.02-.15a.266.266 0 0 1-.213.105.332.332 0 0 1-.2-.07.036.036 0 0 1 .044-.057.26.26 0 0 0 .156.056.196.196 0 0 0 .16-.081.537.537 0 0 0 .05-.115c.015-.363.198-.673.67-.673z"/></g></g><path d="M3.413 0a3.413 3.413 0 1 1 0 6.827 3.413 3.413 0 0 1 0-6.827z" style="fill:none"/><path class="fil3" d="m2.29 3.148.016.104c.028.149.127.244.14.421.004.259-.086.18-.07.339.02.19.012.374.042.498v.036H2.847l.001-.035c.022-.15-.075-.148-.13-.215.033-.16.135-.358.104-.647.034.035.066.065.099.091v-.592h-.63zM4.066 3.415c-.021.143-.012.792.012.903.024.112.104.135.115.187.011.052.007.097-.142.093-.149-.003-.21-.003-.173-.136.038-.133-.037-.545-.125-.646-.088-.1.037-.652.313-.401z"/><path class="fil4" d="M4.203 3.298c-.13.014-.232-.074-.302-.17-.134-.187-.2-.393-.149-.618.023-.1.07-.146.148-.216a.615.615 0 0 1 .286-.155c.212-.053.353.048.37.242a1.5 1.5 0 0 1-.111.682c-.038.1-.116.235-.242.235z"/><path d="M1.56 3.293a.036.036 0 0 1 .044-.057.26.26 0 0 0 .156.056.196.196 0 0 0 .16-.081c.032-.042.103-.271.103-.323a.036.036 0 0 1 .071 0c0 .174-.06.292-.118.367a.266.266 0 0 1-.216.109.332.332 0 0 1-.2-.071z" style="fill:#6b5b50;fill-rule:nonzero"/><path class="fil6" d="M4.817 2.866c.051.502.115.389.193.786.073.374.027.684-.18.783-.209.098-.435-.038-.447-.24-.011-.171.167-.275.293-.236.047.014.09-.004.097.032.02.09-.07.211-.092.137-.032-.11-.205-.027-.146.105.048.105.283.043.318-.195.027-.186-.03-.512-.204-.495-.176.016-.206-.014-.29-.124-.102-.136-.68-.035-.68-.577.008-.713.546-.7.907-.508.168.09.224.35.23.532z"/><path class="fil3" d="M4.362 2.783a.114.114 0 1 1 .018.228.114.114 0 0 1-.018-.228z"/><path d="M4.37 2.805a.102.102 0 1 1 .016.204.102.102 0 0 1-.016-.204z" style="fill:#fff"/><path d="M4.426 2.859a.036.036 0 1 1 .005.072.036.036 0 0 1-.005-.072z" style="fill:#4d4d4d"/><path class="fil3" d="M4.532 3.545a.484.484 0 0 1-.178-.19.406.406 0 0 1-.057-.241.013.013 0 0 0-.026-.005.432.432 0 0 0 .06.258c.024.046.056.091.094.13.047.042.088.045.107.048z"/><path class="fil6" d="M4.008 3.231c-.102.258-.32.377-.478.15-.165-.235-.063-.6.17-.818a.537.537 0 0 1 .01-.008h-.005l.012-.071a.809.809 0 0 1 .057-.195c-.37.132-.685.32-1.133.134-.606 0-.737.508-.648.985.028.15.128.245.14.422.005.258-.085.18-.069.338.02.19.011.374.041.498v.036H2.534l.002-.034c.021-.151-.076-.148-.13-.216.032-.16.135-.358.103-.647.216.22.344.269 1 .067.023.314.132.501.1.785v.036h.421c.027-.14-.026-.225-.124-.239-.024-.244.053-.421.038-.677-.01-.185.138-.376.138-.519-.025-.008-.05-.018-.074-.027z"/><path class="fil4" d="M3.845 3.655c-.13.017-.232-.09-.301-.206a1.049 1.049 0 0 1-.15-.75.474.474 0 0 1 .148-.263.829.829 0 0 1 .147-.126.552.552 0 0 1 .139-.062c.213-.064.353.058.37.294.021.287-.023.545-.11.828-.038.121-.117.285-.242.285z"/><path d="M4.379 3.313c.339.232.497.273.901.297-.34.09-.666-.047-.952-.223-.002-.044.017-.066.05-.074z" style="fill:#bdbdbd"/></g></svg>