<svg xmlns="http://www.w3.org/2000/svg" xml:space="preserve" width="2048" height="2048" style="shape-rendering:geometricPrecision;text-rendering:geometricPrecision;image-rendering:optimizeQuality;fill-rule:evenodd;clip-rule:evenodd"><defs><style>.fil0,.fil1,.fil2{fill:#212121}.fil0,.fil2{fill-rule:nonzero}.fil2{fill:#66bb6a}</style></defs><g id="Layer_x0020_1"><g id="_418062176"><path id="_418062104" class="fil0" d="M1725 820.053c-6.522-11.91-22.089-22.239-41.215-30.952-22.182-10.107-48.733-17.441-73.116-22.649l-16.04-3.425-6.585-15.2c-13.012-30.034-35.081-55.637-62.93-73.626-27.065-17.484-59.61-27.682-94.643-27.682-3.995 0-6.31.011-6.817.03-.832.032-2.965.184-6.467.46h-.25l-1.803.13-20.5-5.75-1.428-1-.06.083c-14.69-10.235-30.615-18.034-47.301-23.247-16.688-5.215-34.35-7.895-52.52-7.895-10.215 0-20.073.803-29.513 2.394a174.004 174.004 0 0 0-28.156 7.182l.027.077-1.668.597h-21.375l-1.674-.597.014-.039a173.65 173.65 0 0 0-28.267-7.219c-9.444-1.59-19.309-2.395-29.526-2.395-16.324 0-32.137 2.104-47.018 6.199-14.816 4.075-29.22 10.256-42.789 18.425l-.055-.092-1.85 1.122-12.065 7.315-13.435-3.941-2.134-.626.01-.033c-6.173-1.793-12.752-3.275-19.687-4.434a176.577 176.577 0 0 0-20.333-2.223l-11.316-.563-71.136-3.541 49.885-50.71 7.942-8.072a504.037 504.037 0 0 0 4.788-4.95 481.422 481.422 0 0 0 4.679-4.979c6.852-7.372 13.226-14.727 18.843-21.719 5.32-6.62 10.11-13.146 14.112-19.245h.124c4.168-6.345 8.366-13.561 10.424-20.75 1.3-4.536 1.611-9.1-.106-13.151-3.024-7.141-13.441-13.205-26.602-18.117-24.618-9.188-56.142-12.232-77.91-12.232-5.038 0-8.656.05-10.816.148-3.58.163-6.941.395-10.053.691-12.116 1.167-23.55 3.424-34.22 6.742-10.374 3.225-19.656 7.313-27.77 12.232l-2.346 1.423-14.7 8.912-15.425-7.287-2.483-1.173-.125-.125c-15.683-7.51-32.673-13.24-50.835-17.16-18.005-3.884-37.063-5.842-57.043-5.842-6.027 0-10.898.09-14.573.268a314.2 314.2 0 0 0-14.771 1.051c-26.666 2.563-51.447 7.71-74.177 15.383-22.097 7.458-42.27 17.384-60.354 29.716h-.126l-2.02 1.373-12.782 8.68-14.593-4.556-2.334-.729.01-.034c-8.039-2.457-17.01-4.104-26.78-4.926-10.341-.87-20.96-.794-31.714.24-23.313 2.244-59.548 11.259-87.642 26.329-15.704 8.423-27.751 17.748-29.627 26.598l-.024-.005c-1 4.95.804 10.15 3.3 14.626 3.623 6.495 9.232 12.345 12.296 15.54 4.584 4.783 10.194 10.028 16.524 15.47 6.708 5.767 14.011 11.602 21.583 17.227 7.503 5.573 21.1 15.253 38.002 25.417 16.667 10.02 36.508 20.502 56.654 27.844h.124l2.25.826 14.06 5.162 5.065 14.213.757 2.126.04-.015c5.927 16.563 12.176 32.67 18.7 48.21 6.76 16.103 13.444 30.865 19.999 44.167 12.05 24.468 24.484 46.239 37.204 65.177 12.414 18.48 25.161 34.36 38.15 47.507a216.459 216.459 0 0 0 12.663 11.847l.061-.072c4.917 4.232 9.196 7.661 12.797 10.25h.126l1.985 1.439 12.408 8.998.718 15.503.107 2.322h.006c1.161 23.572 7.582 46.385 18.503 67.018 10.909 20.607 26.342 38.979 45.542 53.697l1.822 1.389 11.56 8.814.94 14.56.141 2.176h.008c1.703 24.893 9.51 49.076 22.287 70.633 12.889 21.747 30.698 40.702 52.275 54.93h.125l2.283 1.507 14.376 9.497v258.627a10.32 10.32 0 0 0 3.039 7.311 10.316 10.316 0 0 0 7.31 3.04 10.32 10.32 0 0 0 7.308-3.043 10.316 10.316 0 0 0 3.043-7.308v-250.122l51.626 40.49 8.207 6.437a169.304 169.304 0 0 0 26.427 16.958c9.12 4.728 18.91 8.68 29.302 11.819l3.61 1.092 22.75 6.886v264.924c0 2.847 1.164 5.434 3.04 7.31a10.316 10.316 0 0 0 7.309 3.04c2.846 0 5.434-1.163 7.311-3.04a10.316 10.316 0 0 0 3.04-7.31h.125l.002-235.095v-27.238l26.876-4.262 4.298-.681.249-.126c4.572-.699 9.228-1.615 13.926-2.736 4.938-1.178 9.502-2.456 13.656-3.82h.125l2.101-.678 12.994-4.193 12.007 6.568 1.935 1.059h.125c12.698 7.012 26.369 12.393 40.616 16.038a176.909 176.909 0 0 0 43.83 5.504v.125c11.83 0 23.827-1.254 35.654-3.69 11.425-2.352 22.852-5.958 33.958-10.75h.125l2.021-.86 12.632-5.375 12.493 5.375 1.998.86c11.117 4.792 22.55 8.399 33.976 10.753 11.422 2.351 23.406 3.562 35.636 3.562v.125c2.466 0 5.566-.1 9.284-.3 3.113-.166 6.329-.423 9.62-.765l5.59-.58 35.252-3.657v156.353c0 2.843 1.164 5.43 3.041 7.308a10.322 10.322 0 0 0 7.309 3.043c2.845 0 5.433-1.163 7.31-3.04a10.319 10.319 0 0 0 3.04-7.31h.125l.001-152.198v-17.034l14.126-9.466 2.163-1.45-.04-.057c3.49-2.35 6.59-4.56 9.248-6.603 3.107-2.384 5.885-4.649 8.29-6.762l.25-.25 1.276-1.089 17.875-7.5 1.672-.152.375-.125a174.422 174.422 0 0 0 15.885-2.008 173.235 173.235 0 0 0 15.553-3.46l6.42-1.736 40.251-10.885v319.258c0 2.847 1.164 5.433 3.04 7.31a10.319 10.319 0 0 0 7.31 3.04 10.32 10.32 0 0 0 7.308-3.045 10.313 10.313 0 0 0 3.042-7.305h.126v-328.42l9-22.25 1.452-1.486.126-.125c15.144-15.45 26.863-33.2 34.767-52.32 7.84-18.967 11.95-39.506 11.95-60.698 0-11.525-1.193-22.791-3.559-33.714a160.662 160.662 0 0 0-10.722-32.352v-.125l-.94-2.101-5.817-13 5.817-13.001.94-2.101v-.125a160.565 160.565 0 0 0 10.722-32.354c2.366-10.926 3.559-22.196 3.559-33.73 0-16.332-2.404-32.246-7.08-47.323-4.7-15.15-11.742-29.726-20.994-43.302l-1.172-1.719-5.125-23.5.365-2.05.125-.375c.068-.363.101-.52.114-.563l.108-.667 8.634-53.27 42.491 33.144c15.93 12.426 33.253 25.28 48.575 32.958 9.298 4.66 16.578 7.464 19.02 6.218l.052.1c.496-.27 1.129-.865 1.89-1.77 1.567-1.862 3.154-4.587 4.743-8.156 2.679-6.012 4.008-11.438 3.986-16.233-.018-3.88-1.06-7.721-3.125-11.49v-.124zm-14.715-88.951c30.473 13.883 56.597 32.742 70.663 58.355l.053-.03c7.18 13.1 10.807 27.134 10.875 41.99.066 13.947-3.099 28.145-9.487 42.484-3.93 8.826-8.695 16.561-14.241 23.156-6.338 7.531-13.587 13.4-21.692 17.545v.125c-16.886 8.615-35.145 8.518-53.811 2.957a221.068 221.068 0 0 1 3.75 40.492c0 15.91-1.696 31.691-5.061 47.229a222.175 222.175 0 0 1-10.316 34.08 222.366 222.366 0 0 1 10.316 34.079 222.68 222.68 0 0 1 5.06 47.215c0 29.294-5.83 58.045-16.95 84.947-9.669 23.39-23.321 45.216-40.594 64.609v315.743h.124c0 20.512-8.337 39.101-21.793 52.555-13.46 13.461-32.054 21.796-52.558 21.796-20.513 0-39.105-8.334-52.56-21.791-13.458-13.458-21.792-32.048-21.792-52.56v-238.332l-.36.042a203.711 203.711 0 0 1-4.736 3.749l-.495.379-.002 135.678h.126c0 20.515-8.334 39.104-21.792 52.562-13.455 13.456-32.047 21.79-52.56 21.79-20.505 0-39.1-8.334-52.56-21.794-13.453-13.456-21.792-32.044-21.792-52.558v-87.216c-14.517-.279-29.34-1.977-44.132-5.023-12.363-2.547-24.38-5.976-35.853-10.244-11.465 4.267-23.482 7.695-35.847 10.241a240.571 240.571 0 0 1-48.405 4.942v.125c-20.17 0-40.21-2.547-59.582-7.504a236.482 236.482 0 0 1-45.378-16.71c-1.353.377-2.695.736-4.027 1.08l-.002 208.793h.126c0 20.512-8.334 39.103-21.792 52.56-13.458 13.458-32.051 21.792-52.561 21.792-20.512 0-39.103-8.334-52.56-21.792-13.456-13.457-21.79-32.048-21.79-52.56v-218.374a236.214 236.214 0 0 1-13.92-6.115v126.005c0 20.514-8.339 39.103-21.794 52.558-13.46 13.46-32.053 21.795-52.559 21.795-20.512 0-39.103-8.334-52.56-21.791-13.455-13.458-21.79-32.047-21.79-52.562v-225.007c-24.507-18.5-44.86-41.413-60.057-67.055-15.735-26.548-26.06-56.133-29.883-86.902-22.329-19.028-40.54-41.85-53.916-67.116a223.817 223.817 0 0 1-24.75-80.9c-2.537-2-4.923-3.96-7.15-5.879v-.125a281.052 281.052 0 0 1-16.476-15.4c-15.668-15.858-30.921-34.83-45.65-56.758-14.412-21.459-28.267-45.651-41.454-72.427a867.857 867.857 0 0 1-21.75-47.666 1010.213 1010.213 0 0 1-15.756-39.945c-20.182-8.333-39.313-18.602-55.642-28.42-19.305-11.608-34.746-22.6-43.253-28.917-9.042-6.719-17.525-13.483-25.082-19.978-7.924-6.811-15.059-13.495-21.023-19.72-5.059-5.274-14.316-14.93-22.047-28.791-8.84-15.847-14.875-35.824-10.025-58.745v-.125c6.38-30.096 31.024-53.051 61.876-69.6 35.812-19.21 82.088-30.71 111.892-33.578 15.18-1.46 29.563-1.619 42.966-.49 9.52.8 18.837 2.253 27.892 4.351 20.025-12.416 41.926-22.64 65.584-30.626 27.22-9.187 56.761-15.339 88.428-18.382 6.16-.59 12.098-1.028 17.77-1.302 7.11-.345 12.979-.518 17.574-.518 24.34 0 47.91 2.461 70.543 7.345a293.159 293.159 0 0 1 52.057 16.41c9.268-4.666 18.99-8.58 29.129-11.733 14.539-4.521 30.314-7.614 47.218-9.243 4.48-.428 8.925-.742 13.304-.941 5.824-.265 10.354-.399 13.565-.399 27.004 0 66.983 4.101 100.16 16.484 28.234 10.538 52.182 27.33 63.102 53.115 8.308 19.587 7.759 38.282 2.856 55.402-4.138 14.448-11.47 27.28-18.635 38.195l.086.057c-2.862 4.364-6.18 9.054-9.878 13.98a240.465 240.465 0 0 1 34.17-12.216c20.888-5.747 42.339-8.7 63.768-8.7 13.257 0 26.633 1.14 40.026 3.397a236.575 236.575 0 0 1 30.05 7.116 236.975 236.975 0 0 1 30.05-7.117c13.387-2.256 26.756-3.396 40.013-3.396 24.428 0 48.484 3.7 71.518 10.897a236.708 236.708 0 0 1 57.027 26.554c4.545-.176 7.393-.261 8.6-.261 47.635 0 92.054 13.974 129.143 37.933 33.605 21.709 61.189 51.7 79.702 87.007 23.598 5.718 48.48 13.396 70.969 23.644zm-111.69 108.552c-.018.124-.03.195 0 .007v-.007z"/><path id="_418062368" class="fil0" d="m1007.39 620.228-39.874 43.133c-5.207 180.905-54.826 276.977-142.351 300.632-85.04 22.984-201.581-29.16-344.077-143.218l39.751-49.75c126.085 100.922 224.032 148.46 287.825 131.217 59.353-16.04 92.677-96.319 95.39-252.124l8.501-21.125 48.084-52.015 46.75 43.25z"/><ellipse id="_418061936" class="fil1" cx="612.064" cy="629.129" rx="27.937" ry="42.869"/><ellipse id="_418062512" class="fil1" cx="782.95" cy="606.916" rx="27.937" ry="42.869"/></g><path class="fil2" d="M1000.22 797.483c-5.523 16.707 3.543 34.728 20.25 40.25 16.707 5.524 34.728-3.543 40.25-20.25.317-.951 1.157-2.38 2.416-4.15 3.89-5.47 9.85-10.693 16.436-14.042 24.473-12.437 24.365 22.954 74.788 22.165 20.475-.32 38.24-7.973 62.721-21.17 15.533-8.353 21.353-27.718 13-43.251-8.352-15.533-27.718-21.353-43.25-13-15.943 8.593-26.388 13.559-33.47 13.67-6.108.095-14.131-3.97-27.17-13.242-5.188-3.69-10.822-6.48-16.778-8.463-19.728-6.567-40.46-2.924-58.591 6.291-15.807 8.034-30.196 20.7-39.685 34.043-4.721 6.64-8.476 13.817-10.917 21.149zM1398.97 849.299c-11.322-13.53-31.47-15.321-45-4-13.53 11.323-15.321 31.47-4 45l.889 1.059 24.5-20.5-24.512 20.572a32.317 32.317 0 0 0 2.072 2.242c6.306 7.609 11.19 14.57 6.236 21.228-15.145 20.355-9.62 36.146 8.895 49.927 5.522 4.11 12.211 7.234 19.742 10.747 5.982 2.793 15.502-12.402 14.58-3.013-1.726 17.535 11.09 33.15 28.625 34.876 17.534 1.726 33.15-11.09 34.875-28.625 2.947-29.955-18.404-44.824-39.504-55.442 9.04-29.058-6.709-49.248-24.618-70.612a32.494 32.494 0 0 0-1.88-2.473l-.043.036-.857-1.022zM1177.84 937.098c-17.465-2.347-33.528 9.91-35.875 27.376-2.347 17.465 9.91 33.528 27.376 35.874 7.87 1.056 22.115 4.25 33.564 8.969-8.713 25.762 3.011 39.563 21.802 50.284 4.453 2.54 8.202 4.02 12.05 5.536 2.223.875-4.722-1.862-4.944-1.387-7.455 15.947-.572 34.92 15.375 42.376 15.948 7.455 34.921.571 42.376-15.376 25.052-53.446 5.46-69.91-18.103-80.404a43.11 43.11 0 0 0 .516-3.02c1.547-11.522-1.406-21.693-7.726-30.636a32.077 32.077 0 0 0-2.615-3.617l-24.57 20.503 24.5-20.5c-5.008-6.002-11.706-11.145-19.352-15.51-19.58-11.17-49.73-18.503-64.374-20.468zM984.982 1044.33c-16.707 5.523-25.773 23.544-20.25 40.25 2.466 7.462 24.878 49.255 59.562 53.35-1.41 14.478 5.407 24.855 23.622 30.487 55.747 17.138 30.777-91.818-4.726-93.155-.173-3.097-.747-6.431-2.049-10.331-7.343-22.015-21.623-32.117-56.159-20.601zM1386.54 1090.11c-16.775-5.315-34.685 3.976-40 20.75-5.315 16.776 3.975 34.686 20.75 40.001.916.29 2.704-3.112 4.487-7.171-5.49 20.026-2.224 37.472 32.689 49.449.843 3.944 2.402 8.308 4.855 13.18 7.938 15.74 27.136 22.064 42.875 14.126 40.41-20.38 35.524-65.787-12.43-82.98.45-17.083-10.585-33.791-53.226-47.355zM839.764 1011.13c-16.569-6.074-34.925 2.432-41 19-14.257 2.25 26.284 114.49 75.063 113.806 17.604 1.105 32.771-12.271 33.875-29.876.071-1.117.078-.802.218-2.611 1.257-16.33 1.883-24.458-11.556-38.897 11.39-20.912 9.823-37.005-56.6-61.422z"/></g><path style="fill:none" d="M0 0h2048v2048H0z"/></svg>