<svg xmlns="http://www.w3.org/2000/svg" xml:space="preserve" width="655.359" height="655.359" style="shape-rendering:geometricPrecision;text-rendering:geometricPrecision;image-rendering:optimizeQuality;fill-rule:evenodd;clip-rule:evenodd" viewBox="0 0 6.827 6.827"><defs><clipPath id="id0"><path d="M3.413 0a3.413 3.413 0 1 1 0 6.827 3.413 3.413 0 0 1 0-6.827z"/></clipPath><style>.fil1{fill:#b0bec5}.fil6{fill:#e65100}.fil13{fill:#eceff1}.fil8{fill:#ef6c00}.fil10{fill:#fb8c00}</style></defs><g id="Layer_x0020_1"><path d="M3.413 0a3.413 3.413 0 1 1 0 6.827 3.413 3.413 0 0 1 0-6.827z" style="fill:#cfd8dc"/><g style="clip-path:url(#id0)"><g id="_637664440"><path id="_2161446321" class="fil1" d="m3.127 3.801 3.787 3.786-3.786-3.786z"/><path id="_216144584" class="fil1" d="M6.912 7.586zM3.126 3.8z"/><path id="_216146072" class="fil1" d="m3.01 3.74 3.786 3.787-.003-.002-3.786-3.787z"/><path id="_216145976" class="fil1" d="M3.012 3.741 6.8 7.528l-.019-.01L2.994 3.73z"/><path id="_216146096" class="fil1" d="M2.758 3.605 6.544 7.39 2.758 3.605z"/><path id="_216146192" class="fil1" d="M2.758 3.605 6.544 7.39h-.003L6.54 7.39l-.001-.001h-.002l-.001-.001h-.002l-.001-.001L2.745 3.6h.004l.001.001h.002l.001.001h.002l.001.001z"/><path id="_216146000" class="fil1" d="m4.337 2.897 3.787 3.787h-.001L4.337 2.897z"/><path id="_216146024" class="fil1" d="M5.203 3.407 8.99 7.193l.017.018.014.017.013.016.01.013.01.012.006.01.004.007.003.005v.002L5.28 3.507v-.003L5.276 3.5l-.005-.007-.006-.01-.009-.011-.01-.014-.013-.015-.014-.017z"/><path id="_216146120" class="fil1" d="m5.28 3.507 3.786 3.786-.002.004-.002.004-.002.004-.003.004-.002.004-.003.004-.003.003-.003.004L5.26 3.538l.003-.004.003-.004.002-.004.003-.004.002-.003.003-.004.002-.004z"/><path id="_216146216" class="fil1" d="m5.26 3.538 3.787 3.786-.008.01-3.786-3.786z"/><path id="_216146288" class="fil1" d="M5.253 3.548 9.04 7.334l-.002.004-.003.004-.004.004-.003.004-.004.004-.003.004-.004.004-.004.005-.004.004-.004.004L9 7.379l-.004.004-.004.003-.004.004-.003.004-.004.003L5.195 3.61l.003-.003.004-.003.004-.004.004-.004.004-.003.003-.004.004-.005.004-.004.004-.004.004-.004.004-.004.004-.004.003-.004.003-.004.003-.004z"/><path id="_216146360" class="fil1" d="m5.195 3.61 3.787 3.787-.025.021L5.17 3.632z"/><path id="_216145856" class="fil1" d="m5.17 3.632 3.787 3.786-.007.006-.007.006-.007.005-.007.005-.006.005-.007.005-.006.005-.007.005-.006.004-.007.005-.007.005-.006.004-.007.005-.008.005-.007.004-.008.005-3.786-3.786.008-.005.007-.005.007-.004.007-.005.007-.005.007-.004.007-.005.006-.005.007-.004.006-.005.006-.005.007-.005.007-.005.006-.006.007-.005z"/><path id="_216146696" class="fil1" d="m5.061 3.711 3.786 3.786-3.786-3.786z"/><path id="_216146552" class="fil1" d="m5.06 3.711 3.787 3.786-.048.03L5.013 3.74z"/><path id="_216146912" class="fil1" d="m5.013 3.74 3.786 3.786-.106.056-3.786-3.786z"/><path id="_216146720" class="fil1" d="m4.907 3.796 3.786 3.786-.11.05-3.787-3.787z"/><path id="_216146792" class="fil1" d="M4.796 3.845 8.582 7.63l-.062.024L4.734 3.87z"/><path id="_216146960" class="fil1" d="M4.734 3.869 8.52 7.655l-.004.002-.005.002-.005.002-.006.002-.005.001-.006.002-.005.002-.006.002-.006.003-.006.002-.007.002-.006.002-.006.002-.007.002-.006.002-.007.002-.006.002-.007.002-.006.002-.007.002-.006.002-.006.002-.007.002-.006.002-.006.002-.006.001-.006.002-.005.002-.006.001-.005.002-.005.001-.005.001L4.545 3.93l.005-.001.005-.001.006-.002.005-.001.006-.002.006-.002.006-.002.006-.001.006-.002.006-.002.007-.002.006-.002.007-.002.006-.002.007-.002.006-.002.007-.002.006-.002.006-.002.007-.002.006-.003.006-.002.006-.002.006-.002.006-.002.006-.002.006-.002.005-.002.005-.002.005-.002.005-.001z"/><path id="_216146816" class="fil1" d="m4.545 3.93 3.787 3.785-.135.033L4.411 3.96z"/><path id="_216146984" class="fil1" d="m4.411 3.961 3.786 3.787-.068.013-3.786-3.787z"/><path id="_216146528" class="fil1" d="m4.343 3.974 3.786 3.787h-.006l-.007.002H8.11l-.007.002h-.006l-.007.002h-.006l-.007.002H8.07l-.007.002h-.006l-.007.002h-.007l-.007.002h-.007l-.007.001-.007.001-.007.001h-.007l-.007.002h-.007l-.006.001h-.007l-.007.002h-.014l-.006.001-.007.001h-.006l-.007.001H7.914l-.01.001h-.008l-.01.001h-.01l-.009.001h-.019l-.009.001H7.801l-.009.001h-.065l-.01-.001h-.019l-.008-.001h-.01l-.01-.001h-.009l-.009-.001-.01-.001h-.009l-.009-.002h-.01L3.829 3.996l.01.001h.01L3.856 4h.019l.009.002h.019l.009.001h.019l.009.001H4.072l.01-.001H4.1l.01-.001h.009L4.128 4h.006L4.141 4h.006l.007-.001h.006l.007-.001.007-.001h.007l.006-.001.007-.001h.007l.007-.002h.007l.007-.001.007-.001h.007l.007-.002h.007l.007-.002h.006l.007-.001.007-.001.007-.001.007-.001.006-.001.007-.001.007-.001.006-.001.007-.002h.006l.006-.002z"/><path id="_216147080" class="fil1" d="m3.828 3.997 3.787 3.786-.126-.015-3.786-3.786z"/><path id="_216147296" class="fil1" d="m3.703 3.982 3.786 3.786-.058-.01-3.786-3.786z"/><path id="_216147848" class="fil1" d="M3.645 3.972 7.43 7.758l-.064-.013L3.581 3.96z"/><path id="_216147920" class="fil1" d="m3.581 3.959 3.786 3.786-.05-.012L3.53 3.947z"/><path id="_216147320" class="fil1" d="m3.53 3.947 3.786 3.786-.06-.016L3.47 3.931z"/><path id="_216147344" class="fil1" d="m3.47 3.931 3.786 3.786-.109-.034-3.786-3.786z"/><path id="_216147896" class="fil1" d="m3.361 3.897 3.786 3.786-.066-.023-3.786-3.787z"/><path id="_216147248" class="fil1" d="M3.295 3.873 7.081 7.66l-.07-.029-3.786-3.786z"/><path id="_216147224" class="fil1" d="M3.225 3.845 7.01 7.63l-.052-.023-3.786-3.786z"/><path id="_216147392" class="fil1" d="m3.173 3.822 3.786 3.786-3.786-3.786z"/><path id="_216147464" class="fil1" d="M3.173 3.822 6.959 7.61l-.014-.007-3.787-3.787z"/><path id="_216147656" class="fil1" d="M3.134 3.804 6.92 7.59l-.007-.003L3.126 3.8z"/><path id="_216148256" class="fil1" d="m3.159 3.816 3.786 3.786-.031-.015-3.786-3.786z"/><path id="_216148448" class="fil1" d="m3.127 3.8 3.786 3.787L3.125 3.8z"/><path id="_216148496" class="fil1" d="m3.126 3.8 3.786 3.786L3.126 3.8z"/><path id="_216148688" class="fil1" d="m3.126 3.8 3.786 3.786-.003-.001-3.786-3.786z"/><path id="_216148520" class="fil1" d="M3.123 3.799 6.91 7.585l-.105-.055-3.787-3.786z"/><path id="_216148400" class="fil1" d="M3.017 3.744 6.804 7.53 6.8 7.53 3.015 3.743z"/><path id="_216148640" class="fil1" d="M3.016 3.743 6.802 7.53l-.004-.003-3.786-3.786z"/><path id="_216148160" class="fil1" d="m3.012 3.741 3.786 3.786h-.002L3.01 3.74z"/><path id="_216148424" class="fil1" d="M2.994 3.731 6.78 7.518l-.043-.026L2.95 3.706z"/><path id="_216148592" class="fil1" d="m2.85 3.647 3.787 3.786h-.002L2.85 3.645z"/><path id="_216149000" class="fil1" d="M2.88 3.664 6.666 7.45l-.03-.016-3.785-3.787z"/><path id="_216149408" class="fil1" d="m2.95 3.706 3.787 3.786-.07-.041L2.88 3.664z"/><path id="_216149048" class="fil1" d="m2.849 3.646 3.786 3.786-.036-.018-3.786-3.786z"/><path id="_216149264" class="fil1" d="m2.813 3.628 3.786 3.786-.035-.015-3.787-3.787z"/><path id="_216149312" class="fil1" d="M2.777 3.612 6.564 7.4l-.002-.001H6.56l-.002-.002h-.001l-.002-.001h-.002l-.002-.001-.002-.001-3.786-3.786h.002l.002.001h.001l.002.001.002.001h.002l.002.002z"/><path id="_216149192" class="fil1" d="m2.763 3.607 3.786 3.786h-.001L2.76 3.605h.001z"/><path id="_216148760" class="fil1" d="m2.761 3.606 3.786 3.786h-.003L2.758 3.604z"/><path id="_216149432" class="fil1" d="M2.752 3.603 6.54 7.389h.002v.001h.002l.001.001-3.786-3.786h-.002v-.001h-.003z"/><path id="_216148880" class="fil1" d="m2.745 3.6 3.787 3.787H6.53L2.745 3.6z"/><path id="_216149120" class="fil1" d="m2.744 3.6 3.787 3.787h-.002L2.743 3.6z"/><path id="_216148928" class="fil1" d="M2.743 3.6 6.53 7.386l-.012-.003-3.786-3.787z"/><path id="_216149624" class="fil1" d="m2.731 3.596 3.786 3.787h-.001v-.001h-.002L2.727 3.595h.002v.001h.001z"/><path id="_216149840" class="fil1" d="m2.727 3.595 3.787 3.787h-.002V7.38h-.003L2.722 3.593h.003l.001.001z"/><path id="_216149816" class="fil1" d="M2.722 3.594 6.51 7.38h-.003L2.72 3.593h.001l.001.001z"/><path id="_216149720" class="fil1" d="m2.05 3.068 3.786 3.786-.01-.008-.01-.008-.01-.008-.01-.007-.01-.008-.011-.007-.011-.009-.012-.008-.011-.009-.012-.009-.012-.008-.012-.01-.012-.009-.012-.009-.012-.009-.012-.009-.011-.009-.012-.009-.01-.008-.011-.009-.01-.008-.011-.008-.01-.007-.009-.007-.008-.007-.008-.006-.008-.006-.006-.005-.006-.005-.005-.004-.004-.003-.004-.003-.002-.002-.002-.001-3.787-3.787.002.002.003.002.003.002.005.004.005.004.006.004.006.006.008.005.008.007.008.006.01.008.009.007.01.008.01.008.011.008.011.01.012.008.011.009.012.009.012.009.012.01.012.008.012.01.012.008.011.009.012.009.012.008.01.008L2 3.03l.01.008.01.007.01.007.01.008z"/><path id="_216149552" class="fil1" d="m2.573 3.588 3.786 3.786h-.005l-.006.002-.005.001-.005.002-.006.001-.005.002-.005.001-.006.002-.005.002-.005.002-.006.002-.005.002-.005.002-.006.002-.005.003-.005.002-.006.002-.005.003-.005.003-.005.002-.005.003-.005.003-.005.003-.005.003-.005.003-.005.003-.004.003-.005.003-.005.003-.004.004-.005.003-.004.003L2.41 3.663l.004-.003.005-.004.004-.003.005-.003.004-.003.005-.004.005-.003.005-.003.005-.003.005-.002.005-.003.005-.003.005-.003.005-.002.005-.003.005-.002.006-.003.005-.002.005-.002.006-.003.005-.002.005-.002.006-.002.005-.001.005-.002.006-.002.005-.001.006-.002.005-.001.005-.001.005-.001z"/><path id="_216149576" class="fil1" d="m2.41 3.663 3.786 3.786-.086.065-3.786-3.786z"/><path id="_216149888" class="fil1" d="M2.324 3.728 6.11 7.514l-.003.003-.003.002-.004.002-.004.003-.004.002-.004.003-.004.003-.004.003-.005.002-.004.003-.005.003-.004.003-.005.003-.005.003-.004.002-.005.003-.005.003-.005.003-.005.003-.004.002-.005.003-.005.003-.004.002-.005.003-.004.002-.004.002-.005.002-.004.002-.004.002-.003.002-.004.002-.003.001-3.787-3.786.004-.002.003-.001.004-.002.004-.002.004-.002.004-.002.005-.002.004-.003.005-.002.004-.003.005-.002.004-.003.005-.003.005-.002.005-.003.005-.003.004-.003.005-.003.005-.003.004-.002.005-.003.005-.003.004-.003.005-.003.004-.002.004-.003.004-.003.004-.002.004-.003.003-.002.004-.003z"/><path id="_216114920" class="fil1" d="m2.187 3.808 3.787 3.786-.005.002-.005.003-.004.002-.005.002-.005.002-.004.002-.005.002-.005.002-.004.002-.005.002-.005.002-.004.002-.005.002-.004.001-.005.002-.005.002-.004.002-.005.001-.004.002-.005.001-.004.002-.005.002-.004.001-.005.002-.004.001-.005.002H5.85l-.005.002-.004.002-.005.001-.004.001-.005.002-3.786-3.787.004-.001.005-.001.004-.002.005-.001.004-.001.005-.002.004-.001.005-.002.004-.001.005-.002.004-.001.005-.002.004-.001.005-.002.005-.002.004-.001.005-.002.004-.002.005-.002.005-.002.004-.001.005-.002.004-.002.005-.002.005-.002.004-.002.005-.002.005-.002.004-.003.005-.002.005-.002z"/><path id="_216114200" class="fil1" d="M2.04 3.863 5.828 7.65l-.006.001-3.786-3.786z"/><path id="_216114488" class="fil1" d="M2.035 3.865 5.82 7.651l-.016.004-.016.004-.016.004-.015.003-.016.003-.015.003-.015.002-.016.002-.015.002-.015.001-.014.001-.015.001h-.015l-.014.001h-.056L5.54 7.68l-.014-.001-.013-.002-.013-.001-.013-.002-.012-.002-.013-.002-.012-.002-.012-.002-.012-.003-.011-.002-.012-.003-.01-.003-.011-.003-3.787-3.787.011.004.011.003.011.002.012.003.012.003.012.002.012.002.012.002.013.002.013.002.013.001.013.001.013.001.014.001h.014l.014.001h.042l.015-.001.014-.001.015-.001.015-.002.015-.001.015-.002.016-.003.015-.002.016-.003.015-.003.016-.004.016-.004z"/><path id="_216114680" class="fil1" d="m1.594 3.866 3.787 3.787h-.003l-.002-.002h-.003l-.003-.002h-.003l-.004-.002-.003-.002-.004-.001-.004-.002-.003-.001-.004-.002-.003-.001-.003-.002-.002-.001-.002-.002-.002-.001-3.786-3.786.001.001.002.002.003.001.003.002.003.001.003.002.004.001.004.002.003.001.004.002h.003l.004.002.003.001.003.001h.002z"/><path id="_216114176" class="fil1" d="M2.72 3.593 6.506 7.38l-.005-.001-.004-.001-.005-.001-.004-.001-.005-.001-.004-.001h-.005l-.004-.002H6.46l-.005-.001h-.004l-.005-.001h-.005l-.004-.001H6.39l-.004.001h-.005l-.005.001h-.004l-.005.001-.005.001-.005.001-3.786-3.786.005-.001h.005l.004-.002h.01l.004-.001h.005l.005-.001H2.665l.005.001h.004l.005.001.005.001h.004l.005.002h.004l.005.001.004.001.005.001.004.001z"/><path id="_637663960" class="fil1" d="M3.128 3.801zm-.002 0zm-.114-.06H3.01l-.003-.003.005.003zm-.254-.136-.006-.002a.84.84 0 0 1 .006.002zm.4-.555c.243-.104.563-.208.948-.185.075.005.158.016.231.032.6.133.95.597.943.61a.282.282 0 0 1-.02.031l-.007.01a.523.523 0 0 1-.058.062l-.025.022a1.071 1.071 0 0 1-.109.08l-.048.028-.106.056-.11.049-.063.024a2.182 2.182 0 0 1-.189.06l-.134.032-.068.013a1.916 1.916 0 0 1-.514.023l-.126-.015-.058-.01-.064-.013-.05-.012-.061-.016-.109-.034-.066-.024-.07-.028-.052-.023-.015-.007-.03-.014.006.003-.008-.004h.001-.001l-.003-.001-.106-.055-.002-.001-.003-.002-.018-.01-.044-.025-.07-.042-.03-.017H2.85l-.036-.02-.036-.015a.61.61 0 0 0-.014-.005l-.002-.001-.003-.001a.515.515 0 0 0-.013-.005h-.002l-.012-.004h-.004l-.005-.002H2.72a.338.338 0 0 0-.148-.006.395.395 0 0 0-.162.075l-.086.065a1.028 1.028 0 0 1-.283.135l-.006.002a.812.812 0 0 1-.44.001.185.185 0 0 1-.048-.02l.035-.002c.132-.016.32-.132.408-.227.096-.105.25-.235.25-.235-.016-.06-.114-.263-.22-.338-.106-.075-.287-.219-.287-.219.186-.018.359.053.516.146.11.064.237.159.323.212a.338.338 0 0 0 .129.055c.077.005.234-.091.458-.188z"/></g></g><path d="M3.413 0a3.413 3.413 0 1 1 0 6.827 3.413 3.413 0 0 1 0-6.827z" style="fill:none"/><path d="M5.28 3.508c.007-.014-.433-.604-1.174-.65a2.029 2.029 0 0 0-.947.188c-.224.097-.381.195-.459.19-.16-.01-.544-.463-.967-.418 0 0 .181.146.287.222.106.075.204.282.22.342 0 0-.154.131-.25.237-.096.106-.312.237-.443.232.025.025.437.167.846-.172.176-.146.338-.1.474-.02.136.08.534.348 1.118.353.585.005 1.179-.282 1.295-.504z" style="fill:#ff9100"/><path d="M4.337 2.891a2.173 2.173 0 0 0-.634.073c-.433.12-.766.353-.867.467a.941.941 0 0 1-.198.153.366.366 0 0 0-.245.095c-.069.057-.138.1-.205.133-.047.02-.097.04-.148.057-.266.075-.476 0-.493-.018.13.005.347-.126.443-.232.096-.106.25-.237.25-.237-.016-.06-.114-.267-.22-.342-.106-.076-.287-.222-.287-.222a.563.563 0 0 1 .06-.003c.4 0 .754.411.907.421.078.005.235-.093.459-.19.242-.106.563-.211.947-.188.08.005.158.017.231.033z" style="fill:#ffab40"/><path d="M3.173 3.827zm0 0h-.001.001zm-.014-.007-.004-.001h.002l.001.001zm-.016-.007-.003-.001-.012-.006-.003-.002h.001l.001.001.014.007h.001l.001.001zm-.03-.015H3.11h.001zm-.002 0v-.001m-.015-.007-.012-.006.012.006zm-.028-.015-.012-.006.002.001.01.005zm-.012-.006h-.001m-.038-.02v-.001l.003.002-.003-.002zm0-.001zm0 0h-.001l-.003-.002-.003-.002-.003-.002.009.005m-.009-.005-.003-.001.003.001zm-.003-.001zm0 0-.01-.006.003.002.004.002.003.001zm-.013-.008-.009-.005m0 0-.003-.002.002.002zm-.003-.002-.003-.001.003.001zm-.003-.001-.003-.002.003.002zM2.97 3.72l-.003-.002.006.004-.003-.002zm-.003-.002-.003-.001.003.001zm.024.014.002.001.001.001m.06.033zM2.806 3.627a.414.414 0 0 0-.028-.012l.005.002a.552.552 0 0 1 .018.007l.005.003.005.002-.005-.002z" style="fill:#f4faf8"/><path class="fil6" d="M4.004 4.012h.044l.009-.001h.018l.008-.001H4.1l.008-.001.019-.002h.007l.02-.002h.005l.02-.002h.003c.05-.005.1-.012.148-.02h.004a2.08 2.08 0 0 0 .02-.004l.005-.001.02-.004.006-.001.019-.004.006-.001.019-.004.006-.002c.006 0 .012-.002.018-.004l.008-.001a2.19 2.19 0 0 0 .017-.004l.007-.002.018-.005.007-.002.017-.004.008-.002.017-.005.007-.002.017-.005.006-.001a2.01 2.01 0 0 0 .018-.006l.006-.001.018-.006.005-.002.018-.005.004-.002.082-.028.005-.002.013-.006.009-.003.014-.005.008-.003.013-.006.009-.003.012-.006.009-.004.012-.005.01-.004.01-.005.01-.004.011-.005.01-.005.01-.005.01-.004.01-.005.009-.005a1.46 1.46 0 0 0 .01-.005l.01-.005.01-.005.008-.005.01-.005.009-.005.01-.005.007-.005.01-.005.009-.006.008-.005.01-.006.007-.004.016-.01.007-.005.01-.006.007-.004.008-.006.007-.005.008-.006.007-.004.008-.006.007-.005a.95.95 0 0 0 .007-.006l.006-.005a1.008 1.008 0 0 0 .033-.027l.006-.005a.766.766 0 0 0 .023-.022l.005-.005a.512.512 0 0 0 .006-.005l.005-.005a.457.457 0 0 0 .005-.006l.004-.005.005-.005.004-.005.005-.006.004-.004.004-.006.003-.004.005-.007a3.92 3.92 0 0 1-.722.13 4.061 4.061 0 0 1-.399.018c-.302 0-.606-.026-.82-.05-.24-.029-.433-.068-.582-.068a.641.641 0 0 0-.083.005 2.064 2.064 0 0 1-.017.01.41.41 0 0 1 .163.04l.005.003.003.001.002.001h.001l.001.001.004.002h.001l.005.003.006.003a.77.77 0 0 1 .032.018h.001l.001.001.004.002.002.002h.001l.001.001h.002v.001l.002.001h.001l.003.002v.001h.002l.002.002.003.002h.002l.001.002.003.001.001.001.002.001.001.001h.002l.007.005.001.001.002.001.001.001h.002v.001h.001l.002.002h.002l.001.002h.002l.001.002h.002l.002.002h.001l.002.002.005.003h.002l.001.002h.002l.002.002h.002l.001.002h.002l.002.002.002.001.001.001.002.001.002.001.002.001.002.001.002.001.002.002h.001l.002.002.003.001.006.004.003.002.003.001.002.002h.001l.008.005h.001l.002.001.001.001.01.005.003.002.006.004.004.002.011.006h.001l.001.001.012.006.011.007.005.002.008.004.003.002.011.006.003.001h.001l.012.007.003.002.008.004.004.002.004.001.01.005.004.002.011.006.003.001.012.006.004.002.012.005.004.002.013.006.003.001.014.006.002.001.015.007.003.001.014.006.003.001.015.007h.002l.015.007h.002l.016.007h.003l.016.007.003.001.016.006.004.001.015.006.005.001.014.005.003.001.016.006.005.001.016.006h.004c.005.003.011.004.017.006l.005.002.016.005h.004l.018.006.019.005.005.002.017.004.005.001.018.005.004.001.019.005h.004l.02.005h.001l.019.004.004.001.02.004.004.001.02.004h.004l.02.004h.004l.02.004h.004l.02.004h.003l.021.003h.004l.021.003h.005l.021.003h.005l.022.003h.002l.022.002h.004l.023.002h.003l.023.001h.004l.023.002h.075zm-.762-.155.015.007m.306.097.02.005"/><path d="M2.592 3.587a.321.321 0 0 1 .046-.003l.017-.01a.407.407 0 0 0-.063.013z" style="fill:#c8e09a"/><path class="fil8" d="M5.28 3.508a2.4 2.4 0 0 1-.796.204c-.411.041-.76.049-1.07.012-.37-.043-.67-.249-.842-.134a.42.42 0 0 1 .295.07c.136.08.534.347 1.118.352.584.005 1.178-.282 1.295-.504z"/><path d="M2.867 3.66s.478.261 1.058.315c.419.039 1.07-.232 1.136-.26-.251.16-.666.3-1.076.297-.584-.005-.982-.272-1.118-.353z" style="fill:#d96609"/><path class="fil10" d="m2.514 3.56-.024.005a.683.683 0 0 0-.066.019 1.319 1.319 0 0 0-.222.104c-.088.05-.188.111-.305.15a.471.471 0 0 1-.186.027 1.058 1.058 0 0 1-.126-.016.252.252 0 0 1-.022.002l.05.014a.7.7 0 0 0 .114.02c.011.001.022.003.034.003l.037-.001a.805.805 0 0 0 .237-.071c.053-.026.106-.057.158-.089.105-.064.21-.13.32-.167z"/><path class="fil10" d="M2.443 3.527s-.017 0-.047.004a.507.507 0 0 0-.12.036c-.048.02-.1.05-.156.079l-.042.021-.045.02a.19.19 0 0 1-.096.018l.013.003a.127.127 0 0 0 .039.004.283.283 0 0 0 .058-.01c.022-.006.047-.013.072-.024.05-.02.103-.05.157-.079a1.01 1.01 0 0 1 .167-.072zM2.45 3.466l-.005-.002c-.004-.002-.01-.005-.017-.006a.187.187 0 0 0-.063-.004c-.026.002-.054.008-.084.014-.03.005-.06.013-.092.002l.005.004a.819.819 0 0 1 .006.006l.01.006c.015.008.04.013.067.012a.434.434 0 0 0 .086-.014c.03-.007.057-.015.088-.018zM2.474 3.416s-.008-.002-.02-.008a.27.27 0 0 1-.048-.028c-.018-.013-.04-.03-.067-.045a.224.224 0 0 0-.044-.019.133.133 0 0 0-.05-.004l.007.002.016.008.05.034c.02.015.041.032.068.046a.172.172 0 0 0 .043.016.088.088 0 0 0 .045-.002zM2.501 3.359l-.009-.007c-.006-.004-.015-.009-.025-.018a.583.583 0 0 1-.076-.078c-.015-.017-.03-.036-.049-.056a.393.393 0 0 0-.063-.058.292.292 0 0 0-.082-.041c-.029-.01-.059-.017-.089-.024l.042.021c.027.014.065.031.101.059.037.028.07.07.11.11.04.04.088.079.14.092zM2.545 3.275l-.015-.01a4.796 4.796 0 0 1-.043-.032 1.97 1.97 0 0 1-.14-.126c-.056-.053-.122-.118-.209-.169a.468.468 0 0 0-.144-.055 3.464 3.464 0 0 0-.077-.012 3.418 3.418 0 0 0-.078-.006l.078.017c.024.007.054.014.086.024l.024.008.025.011c.017.007.034.017.051.026.035.02.07.046.104.074.035.028.07.059.106.09.07.062.149.125.232.16z"/><path class="fil6" d="M4.402 3.68s-.162.09-.252.09c-.091 0-.05.115.074.118.124.003.235-.168.178-.208z"/><path class="fil8" d="M4.782 3.413c0 .046.048.083.094.083.034 0 .073-.037.073-.083 0-.046-.045-.083-.091-.083-.047 0-.076.037-.076.083z"/><path d="M4.797 3.413a.068.068 0 1 0 .136 0 .068.068 0 0 0-.136 0z" style="fill:#fefefe"/><path d="M4.831 3.413a.034.034 0 1 0 .068 0 .034.034 0 0 0-.068 0z" style="fill:#282928"/><path class="fil6" d="M5.195 3.613s-.107.026-.128-.075c0 0-.009.156.128.075zM4.813 3.184l-.015.004-.019.005-.024.009a.372.372 0 0 0-.134.092.308.308 0 0 0-.061.093.25.25 0 0 0 .027.247.392.392 0 0 0 .1.09l-.013-.013a.765.765 0 0 1-.034-.036.304.304 0 0 1-.042-.06l-.01-.02-.007-.02-.006-.024-.003-.011-.001-.012a.279.279 0 0 1 .06-.201.478.478 0 0 1 .182-.143z"/><path class="fil13" d="M3.127 3.801zM2.744 3.6zM3.01 3.74l.002.001-.005-.003z"/></g></svg>