<svg xmlns="http://www.w3.org/2000/svg" xml:space="preserve" width="655.359" height="655.359" style="shape-rendering:geometricPrecision;text-rendering:geometricPrecision;image-rendering:optimizeQuality;fill-rule:evenodd;clip-rule:evenodd" viewBox="0 0 6.827 6.827"><defs><clipPath id="id0"><path d="M3.413 0a3.413 3.413 0 1 1 0 6.827 3.413 3.413 0 0 1 0-6.827z"/></clipPath><style>.fil3{fill:#263238}.fil10{fill:#546e7a}.fil9{fill:#78909c}.fil1{fill:#d81b60}.fil4,.fil6,.fil8{fill:#182329;fill-rule:nonzero}.fil6,.fil8{fill:#37474f}.fil8{fill:#90a4ae}</style></defs><g id="Layer_x0020_1"><path d="M3.413 0a3.413 3.413 0 1 1 0 6.827 3.413 3.413 0 0 1 0-6.827z" style="fill:#f06292"/><g style="clip-path:url(#id0)"><g id="_637653304"><path id="_2169525121" class="fil1" d="m3.795 2.2 3.786 3.786-.004.003-.004.003-.005.003-.004.002L7.559 6l-.004.003-.005.002-.005.003-.004.002-.005.003-.005.002-.005.003-.006.002-.005.003-.005.002-.005.002-.006.003-.005.002-.005.002-.006.002-.005.002-.006.003-.006.002-.005.002-.006.002-.006.002-.005.002-.006.002-.006.002-.005.001-.006.002-.006.002-3.786-3.786.005-.002.006-.002.006-.002.006-.002.005-.002.006-.002.006-.002.005-.002.006-.002.006-.002.005-.002.006-.002.005-.002.006-.002.005-.003.005-.002.006-.002.005-.003.005-.002.005-.002.005-.003.005-.002.005-.003.005-.002.005-.003.005-.003.004-.002.005-.003.004-.003.005-.002.004-.003z"/><path id="_216952656" class="fil1" d="M5.795 7.133zM2.01 3.347z"/><path id="_216919320" class="fil1" d="M7.444 5.527zM3.658 1.74z"/><path id="_216918864" class="fil1" d="m3.609 1.627 3.786 3.786.003.004.003.003.003.004.002.003.003.004.003.003.002.004.003.004.002.004.002.004.002.004.002.004.002.004.002.004.002.004.002.004.001.004.002.004v.005l.002.004.001.004.001.005.001.004.001.005v.004l.001.005v.004l.001.005L3.658 1.74V1.731l-.002-.004v-.005l-.001-.004-.001-.005-.001-.004-.001-.004L3.65 1.7l-.002-.004-.001-.004-.002-.004-.001-.004-.002-.005-.002-.004-.002-.004-.002-.004-.002-.004-.002-.003-.003-.004-.002-.004-.003-.004-.002-.003-.003-.004-.003-.004-.002-.003-.003-.004z"/><path id="_216918744" class="fil1" d="M3.872 1.997 7.66 5.783l.001.007.002.006v.007l.002.007v.006l.001.007v.033l-.002.007v.006l-.002.007-.002.006-.002.006-3.786-3.786.002-.006.002-.007.001-.006.001-.007.001-.006v-.007l.001-.006V2.03l-.001-.007-.001-.006-.002-.007-.001-.007z"/><path id="_216918888" class="fil1" d="m3.871 2.102 3.786 3.786-.002.007-.003.007-.003.007-.003.006-.003.007-.004.006-.004.007-.005.006-.005.006-.005.006-.006.006-.006.006-.006.005-.006.006-.007.005-.008.005L3.795 2.2l.007-.005.007-.006.007-.005.006-.006.006-.005.006-.006.005-.006.005-.006.004-.007.005-.006.003-.006.004-.007.003-.006.003-.007.003-.007z"/><path id="_216918648" class="fil1" d="M3.629 2.274 7.415 6.06l.003.004.003.004.003.004.003.004.004.004.003.004.003.005.002.004.003.004.003.005.003.004.003.005.003.004.003.005.002.005.003.005-3.786-3.787-.003-.004-.003-.005-.003-.005-.002-.004-.003-.005-.003-.004-.003-.005-.003-.004-.003-.005-.003-.004-.003-.004-.003-.004-.003-.004-.003-.004-.003-.004z"/><path id="_216919296" class="fil1" d="m4.505 2.937 3.787 3.786.004.012.004.011.004.012.004.012.004.012.004.012.004.011.004.012.004.012.004.012.004.013.004.012.004.012.004.012.004.012.004.013.004.012.003.012.004.013.004.012.004.012.004.013.003.012.004.013.004.012.003.013.004.012.004.013.003.013.004.012.003.013.004.013-3.786-3.787-.004-.012-.004-.013-.003-.013-.004-.012-.003-.013-.004-.012-.004-.013-.003-.012-.004-.013-.004-.012-.003-.013-.004-.012-.004-.013-.004-.012-.004-.012-.004-.013-.003-.012-.004-.012-.004-.012-.004-.013-.004-.012-.004-.012-.004-.012-.004-.012-.004-.012-.004-.012-.004-.012-.004-.011-.004-.012-.004-.012-.005-.012z"/><path id="_216919368" class="fil1" d="m4.196 2.345 3.786 3.786.011.012.01.013.011.013-3.786-3.786-.01-.013-.011-.013z"/><path id="_216918984" class="fil1" d="m4.228 2.383 3.786 3.786.001.001.001.002.001.001.001.002.002.001v.002l.002.001v.001L4.238 2.394l-.001-.001-.002-.002V2.39l-.002-.002v-.001l-.002-.002h-.001z"/><path id="_216919392" class="fil1" d="M4.677 1.685 8.463 5.47l.004.006.003.006.001.008v.007L4.685 1.712v-.008l-.002-.007-.002-.006z"/><path id="_216919920" class="fil1" d="M4.685 1.712 8.47 5.498l-.051.514-3.786-3.786z"/><path id="_216920064" class="fil1" d="M4.634 2.226 8.42 6.012v.005l-.002.004-.002.004-.002.004-.003.004-.003.003-.003.003-.004.002-3.786-3.786.003-.003.004-.002.003-.004.003-.003.002-.004.002-.004V2.23z"/><path id="_216919800" class="fil1" d="m3.658 1.74 3.786 3.787v.005L3.658 1.746z"/><path id="_216920088" class="fil1" d="M4.304 2.495 8.091 6.28l.007.011.006.012.007.012.007.012.007.012.006.012.007.013.006.012.007.013.007.013.006.013.006.014.007.013.006.014.007.013.006.014.006.014.006.014.007.015.006.014.006.015.006.014.006.015.006.015.006.015.006.015.006.015.006.016.005.015.006.016.006.015.006.016-3.787-3.786L4.5 2.92l-.006-.016-.006-.015-.006-.016-.006-.015-.005-.015-.006-.015-.006-.015-.006-.015-.006-.015-.006-.015-.007-.014-.006-.015-.006-.014-.006-.014-.006-.014-.007-.014-.006-.014-.006-.013-.007-.014-.006-.013-.007-.013-.006-.013-.007-.013-.006-.012-.007-.013-.007-.012-.006-.012-.007-.012-.007-.012-.007-.012z"/><path id="_216919944" class="fil1" d="M8.604 7.133zM4.818 3.347z"/><path id="_216919680" class="fil1" d="m5.09 3.437 3.786 3.786.002.003.002.003.002.003.001.003.002.004v.003l.001.004v.011l-.002.004-3.786-3.786.001-.004v-.018l-.002-.004-.001-.003-.002-.003-.002-.003z"/><path id="_216919968" class="fil1" d="M5.098 3.475 8.884 7.26v.003l-.003.004-.002.003-.002.003-.002.002-.003.003-.003.002-.003.002-.003.001-.004.001-.003.001h-.004l-.004.001h-.007l-.004-.002L5.051 3.5h.004l.003.002h.008l.003-.001h.004l.003-.002.004-.002.003-.001.003-.002.002-.003.003-.002.002-.003.002-.004.002-.003z"/><path id="_216919536" class="fil1" d="m5.051 3.499 3.786 3.786-.244-.078-3.786-3.786z"/><path id="_216920112" class="fil1" d="m4.807 3.421 3.786 3.786-.151.008-3.786-3.786z"/><path id="_216920520" class="fil1" d="m2.22 1.684 3.787 3.787.004.006.003.006.001.008-3.786-3.786-.002-.008-.003-.007z"/><path id="_216920760" class="fil1" d="m2.536 2.493 3.786 3.786-.312-.238-3.786-3.786z"/><path id="_216920736" class="fil1" d="m4.794 4.873 3.787 3.786h-.005l-.004.002h-.004l-.005.001-.005.001-.004.001h-.005l-.005.002L4.758 4.88l.005-.001.004-.001.005-.001.005-.001h.004l.005-.002h.004z"/><path id="_216920808" class="fil1" d="m3.808 4.27 3.787 3.787-.005.01-.004.01-.004.009-.005.01-.004.008-.005.01-.004.008-.005.01-.005.008-.005.009-.004.008-.005.009-.005.008-.005.008-.006.008-.005.008-.005.008-.005.008-.006.007-.005.008-.006.007-.005.007-.006.007-.005.007-.006.007-.006.006-.006.007-.005.006-.006.006-.006.006-.006.006-.006.006L3.642 4.52l.006-.005.006-.006.006-.006.006-.006.006-.007.006-.006.006-.007.005-.006.006-.007.006-.007.005-.007.006-.008.005-.007.005-.008.006-.007.005-.008.005-.008.005-.008.005-.008.005-.008.005-.009.005-.008.005-.01.005-.008.004-.009.005-.009.005-.009.004-.01.004-.009.005-.009.004-.01z"/><path id="_216920280" class="fil1" d="M4.166 4.683 7.953 8.47l.007.028-3.786-3.786z"/><path id="_216920400" class="fil1" d="M4.174 4.71 7.96 8.498l.001.002.002.002.001.002.001.003.001.002.001.003v.002l.001.003-3.786-3.787v-.002l-.001-.003-.001-.002-.001-.003-.001-.002-.001-.002-.002-.002z"/><path id="_216920184" class="fil1" d="m2.177 3.452 3.787 3.786-.158-.03L2.02 3.42z"/><path id="_216920592" class="fil1" d="m2.02 3.421 3.786 3.786-.244.078L1.776 3.5z"/><path id="_216920712" class="fil1" d="m3.03 4.27 3.787 3.787-.005.008-.005.008-.005.007-.005.008-.006.008-.005.007-.005.008-.005.007-.006.008-.005.007-.005.008-.005.007-.006.007-.005.008-.006.007-.005.007-.005.007-.006.008-.005.007-.006.007-.005.007-.006.007-.005.007-.006.007-.006.007-.005.007-.006.006-.005.007-.006.007-.006.007-.005.006-.006.007-3.786-3.786.005-.007.006-.007.006-.006.005-.007.006-.007.006-.007.005-.007.006-.006.005-.007.006-.007.005-.007.006-.007.005-.007.006-.008.005-.007.006-.007.005-.007.006-.008.005-.007.005-.007.006-.008.005-.007.005-.008.005-.007.006-.008L3 4.317l.005-.008.005-.007.005-.008.006-.008.005-.007z"/><path id="_216920640" class="fil1" d="m4.758 4.88 3.786 3.786-.018.003-.019.003-.019.002H8.47l-.019.001h-.037l-.02-.002-.018-.002-.019-.002-.018-.004-.02-.004-.018-.004-.019-.005-.018-.006-.019-.006-.019-.007-.018-.007-.019-.008-.018-.008-.019-.01-.018-.009-.019-.01-.018-.01-.018-.011-.019-.012-.018-.012-.018-.012-.018-.013-.018-.013-.018-.014-.017-.015-3.787-3.786.018.014.018.014.018.014.018.013.018.012.018.012.018.012.019.01.018.011.018.01.019.01.018.009.019.008.019.008.018.007.019.007.018.006.02.006.018.005.019.004.018.004.02.003.018.003.019.002.018.001.02.001h.036l.02-.002.018-.002.018-.002z"/><path id="_216920160" class="fil1" d="M3.642 4.52 7.43 8.307l-.005.012-.005.012-.004.012-.005.012-.006.012-.005.01-.006.011-.005.01-.006.011-.007.01-.006.01-.006.008-.007.01-.007.007-.007.008-.007.008-.007.007-.007.007-.008.006-.008.006-.007.006-.008.005-.008.005-.008.004-.008.004-.009.003-.008.003-.009.002-.008.002h-.009l-.008.002H7.197l-.009-.001-.008-.001-.009-.002-.008-.002-.009-.003-.008-.003-.008-.004-.008-.004-.008-.005-.008-.005-.008-.006-.008-.006-.007-.006-.008-.007-3.786-3.786.008.007.007.006.008.006.007.006.008.005.008.004.008.005.009.003.008.004.008.002.009.003.008.001.009.002h.035l.009-.002.008-.001.009-.003.008-.002.008-.004.009-.003.008-.005.008-.004.007-.005.008-.006.008-.006.007-.006.008-.007.007-.007.007-.008.007-.008.007-.008.006-.009.007-.009.006-.01.006-.01.006-.01.006-.01.006-.01.005-.012.005-.011.005-.012.005-.012.005-.012z"/><path id="_216921648" class="fil1" d="M4.255 5.237 8.04 9.023v.015l-.003.007-.004.006-.005.006-.006.004-.006.003-.008.002L4.223 5.28l.007-.002.007-.003.006-.005.005-.005.003-.006.003-.007.001-.007z"/><path id="_216921600" class="fil1" d="m1.776 3.499 3.786 3.786-.004.001h-.004l-.003.001h-.008l-.003-.002h-.003l-.004-.002-.003-.002-.003-.002-.002-.003L1.738 3.49l.003.003.003.002.003.001.003.002.004.001.003.001h.015z"/><path id="_216921672" class="fil1" d="M2.672 4.683 6.46 8.47l-.018.015-.018.014-.018.013-.018.013-.018.012-.018.012-.018.012-.018.01-.019.011-.018.01-.019.01-.018.009-.019.008-.018.008-.019.007-.019.007-.018.006-.019.006-.019.005-.018.004-.02.004-.018.004-.019.002-.018.002-.02.002H5.943l-.019-.001-.019-.002-.018-.003-.019-.003L2.081 4.88l.019.003.018.002.019.002.018.002H2.212l.018-.002.02-.002.018-.003.019-.003.018-.004.019-.004.019-.005.018-.006.02-.006.018-.007.018-.007.019-.008.019-.008.018-.01.019-.009.018-.01.018-.01.019-.011.018-.012.018-.012.018-.012.018-.013.018-.014.018-.014z"/><path id="_216921216" class="fil1" d="m2.73 4.75 3.786 3.786-.071.498-3.786-3.786z"/><path id="_216921288" class="fil1" d="m2.659 5.248 3.786 3.786-.002.007-.003.007-.004.006-.006.005-.006.003-.007.003-.007.001h-.008L2.616 5.28h.008l.007-.001.007-.003.006-.004.005-.004.005-.006.003-.007z"/><path id="_216921120" class="fil1" d="m2.616 5.28 3.786 3.786-.007-.002-.007-.003-.006-.004L2.596 5.27l.006.005.007.003z"/><path id="_216920928" class="fil1" d="m2.768 4.597 3.787 3.786-.039.153L2.73 4.75z"/><path id="_216921024" class="fil1" d="m2.081 4.88 3.786 3.786-.005-.001-.004-.001h-.005l-.005-.002h-.004L5.84 8.66l-.005-.001h-.004L2.045 4.872h.004l.004.001.005.001.004.001h.005l.004.002h.005z"/><path id="_216921312" class="fil1" d="M2.045 4.873 5.83 8.659l-.011-.002-.01-.002-.01-.002-.01-.001-.008-.002-.008-.002-.007-.002-.007-.002-.006-.002-.006-.003-.005-.002-.005-.003-.004-.003-3.786-3.786.004.003.005.003.005.002.005.003.007.002.007.002.007.002.008.002.008.001.01.002.01.002.01.002z"/><path id="_216921480" class="fil1" d="m4.223 5.28 3.786 3.786h-.007l-.008-.001-.007-.003-.006-.003-.005-.005L4.19 5.268l.005.004.006.004.007.003h.007z"/><path id="_216921552" class="fil1" d="m4.182 4.73 3.786 3.786.073.507-3.786-3.786z"/><path id="_216922248" class="fil1" d="m2.858 4.502 3.786 3.786-.006.006-.005.006-.006.006-.005.007-.006.006-.005.006-.006.006-.005.006-.006.006-.006.006-.005.005-.006.006-.005.006-.006.006-.006.005-.005.006-3.787-3.786.006-.006.006-.006.005-.005.006-.006.006-.006.005-.006.006-.006.005-.006.006-.006.006-.006.005-.006.006-.006.005-.006.006-.006.005-.006z"/><path id="_216922272" class="fil1" d="M2.224 2.255 6.01 6.04l-.003-.002-.004-.003L2.217 2.25l.003.002z"/><path id="_216921792" class="fil1" d="M2.229 1.705 6.015 5.49l.05.495L2.278 2.2z"/><path id="_216922056" class="fil1" d="M3.21 2.274 6.997 6.06l-.006-.002-.006-.002-.006-.001-.006-.002-.005-.002-.006-.002-.006-.002-.005-.002-.006-.002-.005-.002-.006-.003-.006-.002-.005-.002-.005-.002-.006-.002-.005-.003-.006-.002-.005-.002-.005-.003-.005-.002-.005-.003-.005-.002-.005-.003-.005-.002-.005-.003-.004-.002L6.852 6l-.005-.003-.004-.002-.004-.003-.005-.003-.004-.003L3.044 2.2l.004.003.004.003.005.002.004.003.005.003.004.002.005.003.005.003.005.002.005.003.005.002.005.003.005.002.005.002.005.003.006.002.005.002.005.003.006.002.005.002.006.002.005.002.006.002.005.002.006.002.006.002.006.002.005.002.006.002.006.002.005.002z"/><path id="_216921720" class="fil1" d="m4.903 4.69 3.786 3.787.002.015.002.013v.013l.002.012.001.01v.011l.001.01v.032l-.002.006v.006l-.003.005-.002.005-.002.005-.003.004-.004.004-.003.003-.005.003-.004.003-.006.002-.005.003-.007.002-.006.002-.008.002-.008.002-.008.002-.01.001-.01.002-.01.002-.01.002-3.787-3.786.011-.002.01-.002.01-.002.01-.002.008-.001.008-.002.007-.002.007-.002.006-.002.006-.003.005-.002.005-.003.004-.003.004-.004.004-.003.002-.005.003-.004.002-.005.002-.005.001-.006.001-.007V4.8l.001-.007V4.764l-.001-.01-.001-.01-.001-.012-.002-.013-.001-.014z"/><path id="_216921744" class="fil1" d="M3.044 2.2 6.83 5.986l-.007-.005-.007-.005-.007-.006-.006-.005-.006-.006-3.786-3.786.006.005.006.006.007.005.007.006z"/><path id="_216921936" class="fil1" d="m4.656 3.429 3.786 3.786.012.048.013.048.012.048.011.048.012.048.01.048.011.047.01.047.01.047.01.046.01.046.01.045.008.045.009.044.008.043.008.043.008.041.007.04.007.04.007.04.006.037.006.036.006.035.005.034.005.033.005.03.004.03.004.029.004.026.003.025.003.024.003.021-3.786-3.786-.003-.022-.003-.023-.003-.025-.004-.027-.004-.028-.004-.03-.005-.03-.005-.033-.006-.034-.005-.035-.006-.037-.007-.037-.006-.039-.007-.04-.008-.04-.007-.042-.008-.042-.008-.043-.01-.044-.008-.045-.01-.045-.009-.046-.01-.046-.01-.047-.01-.047-.01-.048-.012-.047-.011-.048-.012-.048-.012-.048-.012-.048z"/><path id="_216921840" class="fil1" d="m3.826 1.898 3.786 3.786.004.006.004.006.004.006.003.006.004.006.003.006.003.007.003.006.003.006.003.006.002.006.003.007.002.006.002.006.002.007.002.006-3.787-3.786-.001-.007-.002-.006-.002-.006-.002-.007-.003-.006-.002-.006-.003-.006-.003-.006-.003-.007-.003-.006-.004-.006-.003-.006-.004-.006-.003-.006-.004-.006z"/><path id="_216922344" class="fil1" d="m3.792 1.854 3.786 3.787.004.005.005.005.004.006.005.005.004.005.004.006.004.005.004.006-3.786-3.786-.004-.006-.004-.005-.004-.006-.005-.005-.004-.006-.004-.005-.005-.005z"/><path id="_216921984" class="fil1" d="M4.615 2.255 8.4 6.04l-.31.24-3.787-3.786z"/><path id="_637653736" class="fil1" d="M4.818 3.347zm-2.809 0zM3.658 1.74zm.168.158a.315.315 0 0 1 .046.099.19.19 0 0 1 0 .105.187.187 0 0 1-.077.098.636.636 0 0 1-.166.074c.017.02.032.044.047.07a.791.791 0 0 1 .047-.045.39.39 0 0 1 .132-.08c.137-.045.262.023.373.164a.884.884 0 0 1 .009.011L4.56 2.2l.05-.495a.038.038 0 0 1 .074.007l-.051.514a.038.038 0 0 1-.02.029l-.31.24c.074.12.14.273.201.442.045.123.086.256.124.391l.189.019.007.001.249.08a.038.038 0 0 1-.023.07l-.244-.077-.151.008c.135.512.22 1.042.247 1.262.02.16.013.16-.109.182a2.07 2.07 0 0 0-.036.007c-.198.038-.403-.042-.592-.197l.008.028a.037.037 0 0 1 .008.018l.073.508a.038.038 0 0 1-.075.01L4.11 4.75l-.038-.153a2.083 2.083 0 0 1-.262-.326.726.726 0 0 1-.167.25c-.046.135-.128.225-.223.225-.094 0-.176-.09-.222-.226a.726.726 0 0 1-.166-.25 2.083 2.083 0 0 1-.263.327l-.038.153-.071.498a.038.038 0 1 1-.075-.01l.073-.509a.037.037 0 0 1 .008-.018l.007-.028c-.188.155-.393.235-.591.197a2.07 2.07 0 0 0-.036-.007c-.122-.022-.129-.023-.109-.182.027-.217.11-.734.241-1.24l-.157-.03-.244.078a.038.038 0 0 1-.023-.072l.248-.079a.04.04 0 0 1 .008-.001l.202-.02c.037-.135.078-.267.123-.39.06-.17.128-.323.202-.444l-.312-.238a.038.038 0 0 1-.019-.03l-.051-.513a.038.038 0 1 1 .075-.007l.05.495.323.194a.85.85 0 0 1 .01-.011c.11-.141.234-.209.372-.163a.39.39 0 0 1 .132.079c.017.014.032.029.047.044a.482.482 0 0 1 .047-.07.636.636 0 0 1-.166-.073.187.187 0 0 1-.076-.098.19.19 0 0 1-.001-.105.316.316 0 0 1 .046-.1.522.522 0 0 1 .168-.15v-.005a.19.19 0 0 1 .062-.128.255.255 0 0 1 .206-.066c.057.006.109.03.147.066a.19.19 0 0 1 .062.126v.006a.522.522 0 0 1 .168.152z"/></g></g><path d="M3.413 0a3.413 3.413 0 1 1 0 6.827 3.413 3.413 0 0 1 0-6.827z" style="fill:none"/><ellipse class="fil3" cx="3.419" cy="2.699" rx=".341" ry=".539"/><path class="fil4" d="M2.154 1.712a.038.038 0 1 1 .075-.007l.05.495.346.208c.017.01.023.033.013.051-.011.018-.036.082-.053.07l-.36-.274a.038.038 0 0 1-.02-.03l-.051-.513zM4.61 1.705a.038.038 0 0 1 .075.007l-.051.514a.038.038 0 0 1-.02.029l-.337.26c-.017.011-.065-.038-.076-.056a.038.038 0 0 1 .013-.051l.347-.208.05-.495zM2.659 5.248a.038.038 0 1 1-.075-.01l.073-.509a.037.037 0 0 1 .008-.018l.096-.37a.038.038 0 0 1 .06.045l-.09.364-.072.498zM4.255 5.237a.038.038 0 0 1-.075.01L4.11 4.75l-.09-.364a.038.038 0 0 1 .06-.045l.095.37a.037.037 0 0 1 .008.018l.073.508zM1.776 3.499a.038.038 0 0 1-.023-.072l.248-.079a.038.038 0 0 1 .008-.001l.247-.024a.038.038 0 0 1 .04.034c.003.02-.035.105-.055.107L2.02 3.42l-.244.078zM5.074 3.427a.038.038 0 0 1-.023.072l-.244-.078-.263.013c-.021-.002-.016-.057-.014-.077a.038.038 0 0 1 .04-.034l.248.024.007.001.249.08z"/><path class="fil3" d="M3.855 4.138c-.082.285-.246.479-.436.479-.189 0-.353-.194-.435-.479.076-.12.145-.244.206-.37.094-.194.172-.516.23-.725.057.209.135.531.229.725.06.126.13.25.206.37z"/><path d="M3.652 4.49c-.044.152-.132.256-.233.256-.1 0-.188-.104-.232-.256.041-.063.078-.13.11-.197.05-.103.092-.275.122-.386.031.111.073.283.123.386.032.068.069.134.11.197z" style="fill:#37474f"/><path class="fil6" d="M3.013 1.898a.523.523 0 0 1 .174-.155c.009.135.087.418.135.56a.85.85 0 0 1-.278-.103.187.187 0 0 1-.076-.098.19.19 0 0 1-.001-.105.316.316 0 0 1 .046-.1zM3.826 1.898a.523.523 0 0 0-.174-.155 2.936 2.936 0 0 1-.135.56.85.85 0 0 0 .278-.103.187.187 0 0 0 .076-.098.19.19 0 0 0 .001-.105.315.315 0 0 0-.046-.1z"/><path d="M3.181 1.742a.19.19 0 0 1 .062-.128.255.255 0 0 1 .206-.066c.057.006.109.03.147.066a.19.19 0 0 1 .062.126v.012a2.225 2.225 0 0 1-.143.546.98.98 0 0 1-.192 0 2.225 2.225 0 0 1-.142-.546v-.01z" style="fill:#1b262b;fill-rule:nonzero"/><path class="fil8" d="M2.858 4.502c-.234.268-.512.43-.777.378a2.07 2.07 0 0 0-.036-.007c-.122-.022-.129-.023-.109-.182.036-.293.175-1.135.398-1.754.08-.226.174-.423.277-.554.111-.141.235-.209.373-.163a.39.39 0 0 1 .132.079c.293.254.35.68.266 1.113a2.444 2.444 0 0 1-.524 1.09z"/><path class="fil9" d="M2.83 4.478a2.398 2.398 0 0 0 .516-1.073c.074-.37.053-.814-.253-1.08a.358.358 0 0 0-.12-.072c-.14-.046-.252.047-.334.152a1.331 1.331 0 0 0-.143.235c-.05.1-.091.204-.13.309-.06.166-.11.337-.154.509a10.291 10.291 0 0 0-.24 1.237c-.003.017-.016.106-.004.12.01.012.069.02.083.023l.037.007c.024.005.05.007.074.008a.643.643 0 0 0 .34-.094c.125-.072.235-.173.329-.28z"/><path class="fil10" d="M2.841 2.434c0 .12-.02.552.018.636-.052-.053-.04-.535-.041-.636a.012.012 0 1 1 .023 0zM3.19 2.945c-.278.185-.472.2-.772.43l-.03.025c.241-.246.516-.288.788-.475a.012.012 0 0 1 .013.02z"/><path class="fil10" d="M2.506 3.312c-.002.286-.24.67-.306.965.04-.306.284-.663.282-.965a.012.012 0 1 1 .024 0zM3.145 3.495c-.058.047-.517.409-.533.411.004-.002.007-.003.01-.006.141-.135.347-.298.504-.419a.012.012 0 0 1 .02.014z"/><path class="fil10" d="M2.835 3.73c-.14-.003-.24.049-.382.058.13-.028.25-.08.382-.082a.012.012 0 1 1 0 .023zM2.759 3.818c-.024.246-.15.536-.212.794.044-.283.166-.53.188-.794a.012.012 0 1 1 .024 0z"/><path class="fil10" d="M2.633 4.331c-.106.09-.443.282-.575.323.14-.067.444-.24.556-.337a.012.012 0 0 1 .019.014zM2.838 2.737a8.16 8.16 0 0 1-.403.369c.08-.104.278-.274.386-.385a.012.012 0 0 1 .017.016z"/><path class="fil8" d="M4.758 4.88c-.265.051-.543-.11-.777-.378a2.443 2.443 0 0 1-.524-1.09c-.085-.434-.027-.859.266-1.113a.39.39 0 0 1 .132-.08c.137-.045.262.023.373.164.103.13.196.328.277.554.223.619.362 1.46.398 1.754.02.16.013.16-.109.182a2.07 2.07 0 0 0-.036.007z"/><path class="fil9" d="m4.751 4.845.037-.007c.014-.002.074-.011.083-.022.012-.015-.001-.104-.003-.12a10.296 10.296 0 0 0-.241-1.237 5.91 5.91 0 0 0-.155-.51 2.974 2.974 0 0 0-.129-.31 1.332 1.332 0 0 0-.143-.234c-.082-.105-.194-.198-.334-.152a.358.358 0 0 0-.12.072c-.306.266-.327.71-.254 1.08a2.398 2.398 0 0 0 .516 1.073c.094.108.204.21.328.28.103.06.22.1.341.095a.483.483 0 0 0 .074-.008z"/><path class="fil10" d="M4.027 2.434c.001.12.02.552-.018.636.052-.053.04-.535.042-.636a.012.012 0 1 0-.024 0zM3.68 2.945c.276.185.47.2.77.43l.03.025c-.24-.246-.516-.288-.788-.475a.012.012 0 1 0-.013.02z"/><path class="fil10" d="M4.363 3.312c.001.286.24.67.306.965-.041-.306-.285-.663-.283-.965a.012.012 0 1 0-.023 0zM3.723 3.495c.059.047.517.409.534.411-.004-.002-.007-.003-.01-.006a6.704 6.704 0 0 0-.505-.419.012.012 0 0 0-.019.014z"/><path class="fil10" d="M4.033 3.73c.14-.003.24.049.383.058-.13-.028-.25-.08-.383-.082a.012.012 0 1 0 0 .023zM4.11 3.818c.023.246.15.536.211.794-.043-.283-.166-.53-.188-.794a.012.012 0 0 0-.024 0z"/><path class="fil10" d="M4.235 4.331c.107.09.444.282.575.323a3.535 3.535 0 0 1-.556-.337.012.012 0 0 0-.019.014zM4.03 2.737c.124.121.273.258.403.369-.079-.104-.277-.274-.386-.385a.012.012 0 0 0-.017.016z"/></g></svg>