<svg xmlns="http://www.w3.org/2000/svg" xml:space="preserve" width="655.359" height="655.359" style="shape-rendering:geometricPrecision;text-rendering:geometricPrecision;image-rendering:optimizeQuality;fill-rule:evenodd;clip-rule:evenodd" viewBox="0 0 6.827 6.827"><defs><clipPath id="id0"><path d="M3.413 0a3.413 3.413 0 1 1 0 6.827 3.413 3.413 0 0 1 0-6.827z"/></clipPath><style>.fil1{fill:#aed581}.fil9{fill:#039be5;fill-rule:nonzero}.fil3,.fil4,.fil7{fill:#29b6f6;fill-rule:nonzero}.fil3,.fil4{fill:#388e3c}.fil3{fill:#3d3d3f}.fil10,.fil11,.fil6{fill:#4fc3f7;fill-rule:nonzero}.fil10,.fil11{fill:#bdbdbd}.fil10{fill:#d0d0d0}</style></defs><g id="Layer_x0020_1"><path d="M3.413 0a3.413 3.413 0 1 1 0 6.827 3.413 3.413 0 0 1 0-6.827z" style="fill:#c5e1a5"/><g style="clip-path:url(#id0)"><g id="_637654600"><path id="_4605890241" class="fil1" d="m3.62 1.733 3.786 3.786-.001.007-.002.008-.004.006-.004.005-.006.005-.006.003-.007.003h-.008L3.582 1.77h.008l.007-.003.006-.003.006-.005.004-.005.004-.007.002-.007z"/><path id="_460589264" class="fil1" d="M5.203 3.012 8.99 6.798l.003.003-3.787-3.786z"/><path id="_460591736" class="fil1" d="m5.205 3.015 3.787 3.786.001.005v.012l-.002.003-.002.004-.003.003-.004.002-3.786-3.786.003-.003.003-.003.003-.003.001-.004.001-.004V3.02z"/><path id="_460591592" class="fil1" d="M5.196 3.044 8.982 6.83l-.06.03-3.786-3.787z"/><path id="_460591448" class="fil1" d="m5.216 3.09 3.787 3.787.002.003.002.003.002.004V6.896L5.222 3.109v-.008l-.001-.004-.002-.003z"/><path id="_460591808" class="fil1" d="M5.222 3.11 9.01 6.895l-.001.004-.002.004-.003.003L9 6.909l-.003.002-.004.002H8.984L5.198 3.127h.008l.004-.002.004-.002.003-.002.002-.004.002-.003z"/><path id="_460591904" class="fil1" d="m3.609 1.706 3.786 3.786.004.006.004.006.002.007v.008L3.62 1.733l-.001-.008-.002-.007-.004-.006z"/><path id="_460591928" class="fil1" d="m3.582 1.77 3.786 3.786h-.04L3.542 1.77z"/><path id="_460591664" class="fil1" d="m3.542 1.77 3.786 3.786-.003.005-.003.004-.003.005-.002.004-.003.005-.002.004-.003.005-.002.005-.002.004-.002.005-.002.005-.002.005-.002.005-.002.005-.002.005-.001.005-.002.005-.001.005-.002.005-.001.005-.001.005-.001.006-.001.005-.001.005v.006l-.001.005-.001.005V5.7l-.001.006v.011L3.492 1.931v-.017l.001-.005v-.006l.001-.005v-.006l.002-.005v-.005l.002-.006v-.005l.002-.005.001-.005.001-.005.002-.006.001-.005.002-.005.002-.005.001-.005.002-.005.002-.004.002-.005.003-.005.002-.005.002-.004.003-.005.002-.005.003-.004.002-.005.003-.004.003-.005z"/><path id="_460592024" class="fil1" d="m3.928 2.119 3.786 3.786.01.01.008.011.008.012.007.011.007.013.007.012.005.013.006.013.004.013.004.014.003.014.003.014.002.014v.015l.001.015-3.786-3.787v-.014L4 2.283 4 2.269l-.003-.015-.003-.014-.004-.013-.005-.014L3.98 2.2l-.006-.012-.006-.013-.007-.012-.007-.011-.008-.012-.009-.01z"/><path id="_460591376" class="fil1" d="m3.268 1.77 3.786 3.786h-.032L3.236 1.77z"/><path id="_460592192" class="fil1" d="m3.236 1.77 3.786 3.786h-.008l-.007-.003-.006-.003-.005-.005L3.209 1.76l.006.005.006.003.007.002z"/><path id="_460592504" class="fil1" d="M3.942 2.492 7.73 6.278v.01l-.001.01-.001.01-.001.009-.002.01-.002.009-.003.01-.002.008-.003.01-.004.009-.004.009-.004.009-.004.008-.005.01-.005.008-.006.008-.005.009-.006.008-.007.008-.006.008-.007.008-.008.008-.007.007-.008.008-.008.007-.008.007-.009.007-.009.007-.009.007-.009.007-.01.006-.01.006L3.77 2.757l.01-.006.01-.007.01-.006.008-.007.009-.007.009-.007.008-.007.008-.007.008-.008.007-.008.007-.007.007-.008.007-.008.006-.008.006-.009.006-.008.006-.009.005-.008.004-.009.005-.009.004-.009.004-.009.003-.009.003-.009.003-.01.003-.009.002-.009.001-.01.002-.01v-.009l.001-.01z"/><path id="_460592672" class="fil1" d="M4.332 3.003 8.12 6.789l.003.007.004.007.004.008.003.007.004.008.004.007.003.008.004.008.003.008.003.007.004.008.003.008.003.008.004.009.003.008.003.008.003.009.003.008.004.009.003.008.003.009.003.008.002.01.003.008.003.009.003.009.003.009.003.009.002.01.003.008.003.01.002.009-3.786-3.786-.002-.01-.003-.009-.003-.01-.003-.008-.002-.01-.003-.008-.003-.01-.003-.008-.003-.009-.003-.009-.003-.009-.003-.008-.003-.009-.003-.008-.003-.009-.003-.008-.003-.008-.004-.009-.003-.008-.003-.008-.003-.008-.004-.008-.003-.008-.004-.008-.003-.007-.004-.008-.003-.008-.004-.007-.003-.007-.004-.008-.004-.007z"/><path id="_460592216" class="fil1" d="m4.801 3.607 3.787 3.787v.016L4.802 3.624v-.015z"/><path id="_460592360" class="fil1" d="M4.434 3.269 8.22 7.055l.003.008.002.008.002.008.002.008.002.008.003.009.002.008.002.008.002.009.002.008.002.009.002.008.002.008.002.009.002.009.002.008.001.009.002.009.002.008.002.009.002.009.001.009.002.008.002.01.002.008.001.009.002.009.002.009.001.009.002.009.001.009.002.009-3.786-3.786-.002-.01-.001-.008-.002-.01-.002-.008-.001-.01-.002-.008-.002-.01-.001-.008-.002-.009-.002-.009-.002-.009-.001-.008-.002-.009-.002-.009-.002-.008-.002-.01-.002-.008-.002-.008-.002-.009-.001-.008-.002-.009-.002-.008-.003-.009-.002-.008-.002-.008-.002-.009-.002-.008-.002-.008-.002-.008-.002-.008-.003-.008z"/><path id="_460592528" class="fil1" d="m4.98 3.916 3.786 3.787.002.004.002.004v.004l.002.004v.017L4.986 3.949v-.016l-.001-.005-.002-.004-.001-.004z"/><path id="_460592600" class="fil1" d="M5.275 4.02 9.06 7.806l.002.003.002.004.001.004L5.28 4.031l-.001-.004-.002-.004z"/><path id="_460592168" class="fil1" d="M4.773 3.55 8.56 7.335l.006.006.005.008.005.007.004.009.004.009.002.009.002.01L4.8 3.607l-.001-.01-.003-.009-.003-.008-.004-.009-.005-.008-.005-.007z"/><path id="_460592432" class="fil1" d="M4.802 3.624 8.588 7.41l.178.293-3.787-3.787z"/><path id="_460592480" class="fil1" d="M5.262 4.055 9.048 7.84l-.066.009-3.787-3.787z"/><path id="_460592888" class="fil1" d="m5.266 4.126 3.786 3.786-.002.003-.003.003-.004.002-.003.002H9.027l-.004-.002-3.786-3.786.004.002h.012l.004-.002.003-.002.003-.003z"/><path id="_460592912" class="fil1" d="m4.74 3.706 3.787 3.787h-.003l-.003.001-.003.001-.003.001h-.003l-.003.001h-.003l-.003.001-3.786-3.786h.003l.003-.001h.003l.003-.001.003-.001h.003l.002-.002z"/><path id="_460592840" class="fil1" d="m4.717 3.712 3.786 3.786-.195.02-3.786-3.786z"/><path id="_460593416" class="fil1" d="M5.237 4.134 9.023 7.92l-.276-.15L4.96 3.984z"/><path id="_460593584" class="fil1" d="M4.96 3.984 8.747 7.77l-.005.002-.004.001-.004.001h-.005l-.004.001H8.716l-.004-.002-.004-.001-.004-.002-.004-.002-.003-.002-.004-.003-.003-.003-3.786-3.787.003.003.003.003.004.003.004.002.004.002.004.001.004.001H4.948l.004-.001.004-.001z"/><path id="_460592960" class="fil1" d="M3.054 2.766 6.84 6.552l-.01-.006-.01-.007-.01-.006-.01-.007-.01-.007-.01-.007-.008-.007-.009-.008-.008-.007-.008-.008-.008-.008-3.786-3.786.007.008.009.007.008.008.009.007.008.008.01.007.01.007.009.007.01.006.01.007z"/><path id="_460593080" class="fil1" d="m4.522 3.732 3.786 3.786.003.02.002.018.002.019.002.018.002.019.002.019.002.019.001.018.002.02.002.018.001.019.002.019.001.019.002.018.001.02.001.018.002.019v.018l.002.019.001.018.001.019.001.018.001.019v.018l.002.019v.018l.001.018v.018l.002.018v.036l.001.017-3.786-3.786v-.018l-.001-.017v-.018l-.001-.018-.001-.018v-.018l-.002-.019v-.018l-.001-.018-.001-.019-.001-.018-.001-.019-.001-.018-.001-.019-.002-.019v-.018l-.002-.02-.001-.018-.002-.019-.001-.019-.002-.018-.001-.02-.002-.018-.002-.019-.002-.019-.001-.018-.002-.02-.002-.018-.002-.019-.002-.018-.003-.02z"/><path id="_460593128" class="fil1" d="m4.696 4.467 3.786 3.786v.002l-.001.002-.001.002v.002l-.002.002v.002l-.001.001-.001.002-3.787-3.786.001-.002.001-.002.001-.002.001-.001v-.002l.001-.002.001-.002z"/><path id="_460593248" class="fil1" d="M4.6 4.533 8.387 8.32H8.378l-.003-.001h-.003l-.003-.001-.003-.001-.003-.001-3.787-3.786h.003l.003.001.003.001h.003l.003.001h.006z"/><path id="_460593344" class="fil1" d="m4.567 4.526 3.786 3.786V8.463l-.001.015v.031l-.001.014V8.552l-.001.014v.014l-.001.013v.014l-.001.012v.013l-.001.012v.012l-.001.011v.012l-.001.01v.01l-.002.011v.02l-.001.008v.009L4.554 4.961v-.009l.001-.009v-.01l.001-.01v-.01l.001-.01v-.01l.001-.012.001-.011v-.012l.001-.012v-.013l.001-.013v-.013l.001-.013v-.028l.001-.014v-.03l.001-.015v-.031l.001-.015V4.543z"/><path id="_460593752" class="fil1" d="M4.729 4.854 8.515 8.64l.102.131-3.786-3.786z"/><path id="_460593728" class="fil1" d="m4.576 4.529 3.787 3.786-.01-.003-3.786-3.786z"/><path id="_460593992" class="fil1" d="m4.69 4.482 3.786 3.786.046.34L4.736 4.82z"/><path id="_460593680" class="fil1" d="m4.736 4.821 3.786 3.786V8.625l-.002.004-.001.004-.002.004-.002.003-3.786-3.786.002-.004.001-.004.002-.003.001-.005v-.004l.001-.004v-.004z"/><path id="_460593896" class="fil1" d="m4.875 5.042 3.787 3.786.043.056-3.786-3.787z"/><path id="_460594040" class="fil1" d="m4.692 4.875 3.786 3.786H8.464l-.004-.002-.004-.001-.004-.002-.004-.003-.003-.002-.003-.003-3.787-3.786.004.002.003.003.004.002.004.002.004.002.004.001h.004l.005.001z"/><path id="_460594160" class="fil1" d="m4.915 5.127 3.786 3.786-.003.003-.004.001h-.012l-.004-.002-.003-.002-3.787-3.786.004.002.004.002h.012l.004-.002z"/><path id="_460593800" class="fil1" d="m4.919 5.097 3.786 3.787.002.003.002.004v.012l-.002.004-.002.003-.004.003-3.786-3.786.003-.003.003-.003.001-.004.001-.004v-.008L4.92 5.1z"/><path id="_460594184" class="fil1" d="m4.962 5.026 3.786 3.787.002.003.002.004v.012L4.966 5.046V5.033l-.002-.003z"/><path id="_460594256" class="fil1" d="m4.966 5.046 3.786 3.786-.002.004-.002.004-.003.002-.003.003-.004.001-.004.001h-.008L4.94 5.06l.004.001h.008l.004-.003.003-.002.003-.003.002-.003z"/><path id="_460594496" class="fil1" d="m4.94 5.06 3.786 3.787-.064-.019-3.787-3.786z"/><path id="_460594616" class="fil1" d="m2.506 3.008 3.786 3.786-.249-.114-3.786-3.786z"/><path id="_460594808" class="fil1" d="M2.257 2.894 6.043 6.68l-.002-.001-.003-.002-.003-.001-.002-.002-.003-.001-.003-.002-.002-.002-.002-.002-3.787-3.786.003.002.002.002.003.001.002.002.003.002.003.001.002.001z"/><path id="_460594880" class="fil1" d="m2.236 2.88 3.787 3.787-.233.196-3.786-3.787z"/><path id="_460594400" class="fil1" d="m1.69 3.073 3.787 3.786-.06-.03-3.786-3.785z"/><path id="_460594448" class="fil1" d="M2.004 3.076 5.79 6.862l-.004.003-.004.003-.004.002-.004.001-.004.001-.004.001H5.748l-.004-.002-.004-.001-.004-.002-.004-.003-.003-.003-.004-.003L1.94 3.073l.003.003.004.003.004.002.004.002.004.002.004.001h.004l.005.001H1.984l.004-.002.004-.002.004-.002L2 3.08z"/><path id="_460594784" class="fil1" d="m2.11 3.712 3.786 3.786H5.89l-.003-.001h-.003l-.003-.002h-.003l-.003-.001-.002-.001-3.787-3.787.003.001.003.001.003.001h.003l.003.001.003.001h.003z"/><path id="_460594712" class="fil1" d="M1.631 4.063 5.418 7.85l-.067-.01-3.786-3.785z"/><path id="_460594472" class="fil1" d="M1.59 4.134 5.376 7.92l-.004.002H5.36l-.004-.002-.003-.002-3.787-3.786.004.002.003.002H1.586z"/><path id="_460594688" class="fil1" d="M2.185 4.834 5.971 8.62v.005l-.002.004-.001.005-.002.003-.003.004-.002.004-.003.003-.004.003-.003.002-.004.003-.004.002-.004.001-.004.001-.005.001H5.921L2.135 4.875H2.15l.004-.002.004-.002.004-.002.004-.002.003-.003.003-.002.003-.004.003-.003.002-.004.002-.004.002-.004.001-.004z"/><path id="_460594664" class="fil1" d="m1.951 5.042 3.787 3.786-.065.019L1.887 5.06z"/><path id="_460595720" class="fil1" d="M1.565 4.055 5.351 7.84l-.004-.001-.004-.002-.003-.002-3.786-3.787.003.003.004.002z"/><path id="_460595360" class="fil1" d="m2.086 3.706 3.787 3.787-.158.26-3.786-3.787z"/><path id="_460595672" class="fil1" d="M1.866 3.984 5.653 7.77l-.277.15L1.59 4.134z"/><path id="_460595600" class="fil1" d="M2.423 5.085 6.209 8.87h-.006l-.005.002h-.006l-.005.001h-.005l-.004.001h-.004l-.003.001L2.384 5.09h.004l.004-.001h.004l.005-.001h.005l.005-.002h.006z"/><path id="_460595648" class="fil1" d="m1.887 5.06 3.786 3.787h-.012l-.004-.002-.003-.003-3.786-3.786.003.002.004.002.004.001h.004z"/><path id="_460595864" class="fil1" d="M1.941 5.123 5.728 8.91l-.003.003-.004.002-.004.002h-.012l-.004-.001-.003-.003-3.786-3.786.003.002.004.002h.012l.004-.002.003-.002z"/><path id="_460595216" class="fil1" d="m2.135 4.875 3.786 3.786-.193.249L1.94 5.123z"/><path id="_460595336" class="fil1" d="m2.384 5.09 3.787 3.786h-.008l-.007.001H6.126l-.005-.001-.004-.002h-.004l-.004-.003-.004-.002-.003-.002-.003-.002-3.786-3.787.003.003.003.002.004.002.004.002.004.001.004.001.005.001h.005l.006.001h.026z"/><path id="_460595408" class="fil1" d="m1.629 3.127 3.786 3.786h-.008l-.004-.002-.004-.002-.003-.002L1.61 3.12l.003.002.003.002.004.001.004.001z"/><path id="_460595168" class="fil1" d="M1.63 3.044 5.418 6.83l-.003-.002L1.627 3.04z"/><path id="_460596464" class="fil1" d="m1.929 3.966 3.786 3.786-.003.004-.003.004-.003.003-.003.003-.004.002-.004.002-.004.002-.004.001-.004.001h-.004l-.005.001H5.665l-.004-.002-.004-.001-.004-.002-3.787-3.786.005.002.004.001.004.001H1.897l.004-.001.004-.001.004-.002.004-.002.003-.003.004-.003.003-.003.003-.003z"/><path id="_460596656" class="fil1" d="m2.274 4.521 3.787 3.786-.024.008L2.25 4.529z"/><path id="_460596488" class="fil1" d="m2.25 4.529 3.787 3.786h-.003l-.003.002h-.003l-.003.001h-.006l-.003.001h-.003L2.226 4.533H2.235l.003-.001h.003l.003-.002h.003z"/><path id="_460596296" class="fil1" d="M2.226 4.533 6.013 8.32l-.042.301-3.786-3.786z"/><path id="_460596344" class="fil1" d="m2.988 4.75 3.786 3.787-.014.017-.014.016-.015.016-.015.016-.015.015-.015.015-.016.015-.015.014-.016.014-.015.013-.016.013-.016.013-.017.012-.016.012-.017.011-.016.01-.017.011-.017.01-.017.01-.017.009-.017.008-.018.008-.017.008-.018.007-.017.006-.018.006-.018.006-.018.004-.018.005-.018.004-.018.003-.018.002L2.458 5.08l.019-.003.018-.003.018-.003.018-.005.018-.005.018-.005.018-.006.017-.006.018-.007.017-.008.018-.008.017-.009.017-.009.017-.009.017-.01.017-.01.016-.011.017-.012.016-.011.016-.013.016-.012.016-.013.016-.014.016-.013.015-.015.016-.014.015-.015.015-.016.015-.015.014-.016.015-.017z"/><path id="_460595984" class="fil1" d="m2.458 5.08 3.787 3.786-.007.001h-.005l-.005.001-.004.001h-.005l-.003.001h-.004l-.003.001-3.786-3.786h.003l.004-.001h.003l.004-.001h.005l.005-.001.005-.001z"/><path id="_460596008" class="fil1" d="M4.555 4.96 8.34 8.748v.01l-.001.01-.001.01-.001.01v.008l-.002.008v.008l-.002.007-.001.006-.002.006-.001.006-.002.005-.001.005-.002.005-.003.004-.002.003-.002.004-.003.003-.003.002-.004.002-.003.002-.004.002-.004.001-.005.002h-.005l-.005.001h-.031l-.008-.001L4.457 5.09h.015l.006.001H4.501l.005-.002h.004l.005-.002.004-.002.003-.002.003-.002.003-.003.003-.003.003-.003.002-.004.002-.004.002-.004.002-.005.002-.005.001-.006.002-.006v-.007l.002-.007v-.007l.002-.008V5l.002-.009v-.01l.001-.01z"/><path id="_460596392" class="fil1" d="m4.457 5.09 3.786 3.786h-.007l-.005-.001h-.004l-.005-.002h-.006l-.005-.001h-.006L4.418 5.084h.006l.006.001.005.001h.005l.005.001.004.001h.004z"/><path id="_460596152" class="fil1" d="M4.418 5.085 8.205 8.87h-.007l-.004-.001H8.19l-.004-.002h-.011l-.006-.002L4.383 5.08h.006l.006.002H4.404l.004.001h.004l.003.001z"/><path id="_460596560" class="fil1" d="M1.94 3.073 5.724 6.86l-.31.054-3.786-3.786z"/><path id="_460596632" class="fil1" d="M2.319 3.734 6.105 7.52l-.209-.022L2.11 3.712z"/><path id="_460597304" class="fil1" d="m3.42 4.935 3.787 3.787h-.015l-.014-.001-.015-.001-.015-.002-.014-.002-.014-.002-.015-.002-.014-.003-.014-.004-.014-.003-.014-.004-.014-.005-.014-.005-.014-.005-.014-.005-.013-.006-.014-.006-.013-.007-.014-.006-.013-.008-.013-.007L6.9 8.63l-.013-.008-.013-.008-.013-.009-.013-.009-.012-.009-.013-.01-.012-.01-.012-.01-.013-.01-.012-.01L2.988 4.75 3 4.76l.012.01.013.01.012.01.012.01.013.009.013.009.013.009.012.008.013.008.014.008.013.007.013.007.013.007.014.007.013.006.014.006.014.005.014.005.013.005.014.004.014.004.015.004.014.003.014.003.014.003.015.002.014.002.015.001.014.001.015.001z"/><path id="_460597208" class="fil1" d="m3.853 4.75 3.786 3.787-.012.01-.012.01-.012.01-.013.01-.012.01-.013.01-.012.008-.013.009-.013.008-.013.008-.013.008-.013.007-.014.008-.013.006-.013.007-.014.006-.014.006-.013.005-.014.005-.014.005-.014.005-.014.004-.014.003-.014.004-.015.003-.014.002-.014.002-.015.002-.014.002h-.015l-.014.001h-.015L3.42 4.936H3.45l.015-.002.014-.001.014-.002.015-.002.014-.003.014-.003.015-.003.014-.004.014-.004.014-.004.014-.005.013-.005.014-.005.014-.006.013-.006.014-.007.013-.007.013-.007.014-.007.013-.008.013-.008.013-.008.012-.009.013-.009.013-.01.012-.009.013-.01.012-.01.012-.01z"/><path id="_460596848" class="fil1" d="m4.383 5.08 3.786 3.786-.018-.002-.018-.003-.019-.004-.018-.005-.018-.004-.017-.006-.018-.006-.018-.006-.017-.007-.018-.008-.017-.008-.017-.008-.017-.01-.017-.009-.017-.01-.017-.01-.017-.011-.016-.011-.017-.012-.016-.012-.016-.013-.016-.013-.016-.013-.015-.014-.016-.014L3.957 4.86l.015.015.016.013.016.014.016.013.016.012.016.013.017.011.016.012.017.01.016.011.017.01.017.01.017.008.018.009.017.008.017.008.018.007.018.006.017.006.018.005.018.005.018.005.018.003.019.003z"/><path id="_460597400" class="fil1" d="M4.674 4.372 8.46 8.158l.006.007.005.007.005.008.004.009.003.008.002.01.001.008v.019l-.001.01-.003.009-3.786-3.786.002-.01.002-.01V4.43l-.001-.01-.003-.008-.003-.009-.003-.008-.005-.008-.005-.007z"/><path id="_460596872" class="fil1" d="M3.492 1.93 7.28 5.718V5.744l.001.004v.004l.001.004v.005l.002.004v.004l.001.005.001.004.001.004.001.004.001.004.001.004.001.004.002.004v.005l.002.004.002.003.001.004.002.004.001.004.002.004.001.004.002.004.002.004.002.003.002.004-3.787-3.786-.001-.004-.002-.004-.002-.003-.002-.004-.002-.004-.001-.004-.002-.004-.001-.004-.002-.004-.001-.004-.001-.004-.002-.004-.001-.004-.001-.004-.001-.004L3.5 2 3.5 1.996l-.001-.005-.001-.004v-.004l-.002-.004v-.004l-.001-.005v-.004l-.001-.004V1.953l-.001-.005V1.935z"/><path id="_460596776" class="fil1" d="M5.264 4.102 9.05 7.89l.002.003.002.004v.012l-.002.004-3.786-3.786.001-.004.001-.005V4.11l-.002-.003z"/><path id="_460597280" class="fil1" d="m4.89 3.01 3.787 3.786.002.003.002.004.002.004.002.004.001.004v.004L4.902 3.032 4.9 3.028l-.001-.004-.002-.004-.002-.003-.002-.004z"/><path id="_460596920" class="fil1" d="M4.6 2.744 8.388 6.53l.003.003.003.004.003.004.002.004.002.004.003.005-3.787-3.786-.002-.005-.002-.004-.003-.004-.002-.004-.003-.004z"/><path id="_460596944" class="fil1" d="M4.888 3.073 8.674 6.86l-.004.003-.003.003-.004.003-.004.002-.004.001-.004.001-.004.001H8.629l-.004-.002-.004-.001-.004-.002-.004-.003-.004-.003-3.786-3.786.004.003.004.002.004.002.004.002.004.001h.004l.005.001H4.865l.004-.002.004-.002.004-.002.004-.002.003-.003z"/><path id="_460597136" class="fil1" d="m4.823 3.076 3.786 3.786-.232-.195L4.59 2.881z"/><path id="_460597904" class="fil1" d="M4.003 2.312 7.789 6.1v.024l-.002.006v.007l-.001.005-.001.006-.001.006-.001.006-.002.006-.001.006-.002.006-.001.005-.002.006-.002.006-.002.005-.002.006-.002.005-.003.005-.002.006-.003.005-.002.005-.003.005-.003.005-.003.005-.003.005-.003.005-.003.005-.003.005-.004.005-.003.004L3.942 2.49l.004-.005.003-.004.004-.005.003-.005.003-.005.003-.005.003-.005.003-.005.003-.005.002-.005.003-.006.002-.005.002-.005.003-.006.002-.005.002-.006.002-.005.001-.006.002-.006.002-.005.001-.006.001-.006.002-.006v-.006L4 2.355V2.35l.001-.006v-.006l.001-.006v-.012z"/><path id="_460597688" class="fil1" d="m4.59 2.88 3.787 3.787-.003.002-.002.002-.003.002-.002.001-.003.002-.003.001-.002.002-.003.001L4.57 2.894l.002-.002.003-.001.003-.001.002-.002.003-.002.002-.001.003-.002z"/><path id="_460598072" class="fil1" d="M3.942 2.489 7.73 6.275v.003L3.942 2.492V2.49z"/><path id="_460598000" class="fil1" d="M4.57 2.894 8.356 6.68l-.237.11-3.787-3.787z"/><path id="_460598048" class="fil1" d="m5.28 4.03 3.786 3.787v.008l-.002.004-.002.004-.003.003-.003.002-.004.002h-.004L5.262 4.056l.004-.001.004-.002.003-.003.003-.003.002-.003.001-.004.001-.004z"/><path id="_460597952" class="fil1" d="m4.616 2.768 3.787 3.786v.002l.001.002.001.002v.002l.001.002.001.002v.002l.001.002-3.786-3.787v-.002L4.62 2.78v-.002l-.001-.002-.001-.002-.001-.002V2.77z"/><path id="_460597712" class="fil1" d="m5.198 3.127 3.786 3.786-.31-.054-3.786-3.786z"/><path id="_637654480" class="fil1" d="m4.622 2.783.262.22c.01.008.015.018.017.03l.164.028.112-.055a.021.021 0 1 1 .019.038l-.06.029.07.012a.021.021 0 0 1-.008.042l-.31-.054a.048.048 0 0 1-.065.003l-.233-.195a.095.095 0 0 1-.02.013l-.238.109c.04.076.074.166.102.266.024.085.044.178.06.275l.203-.021a.095.095 0 0 1 .105.101l.177.292c.007.01.009.022.007.033l.146.08.124-.016a.021.021 0 0 1 .006.042l-.067.008.062.034a.021.021 0 1 1-.02.037l-.277-.15a.048.048 0 0 1-.062-.018l-.158-.26a.095.095 0 0 1-.023.006l-.195.02c.024.199.037.405.042.593l.07.022a.095.095 0 0 1 .055.135l.047.34a.047.047 0 0 1-.007.032l.102.131.12.035a.021.021 0 1 1-.011.04l-.065-.018.044.055a.021.021 0 1 1-.034.026l-.193-.248a.048.048 0 0 1-.05-.04L4.6 4.532a.095.095 0 0 1-.024-.004l-.01-.003c.001.188-.005.344-.011.435-.008.117-.015.136-.098.129a.957.957 0 0 1-.074-.01c-.196-.025-.378-.15-.53-.33a.654.654 0 0 1-.432.185.654.654 0 0 1-.433-.184c-.152.18-.334.304-.53.33a2.177 2.177 0 0 0-.074.009c-.082.007-.09-.012-.098-.13a6.481 6.481 0 0 1-.012-.439l-.024.008a.095.095 0 0 1-.024.004l-.04.301a.048.048 0 0 1-.05.041l-.195.248a.021.021 0 1 1-.033-.026l.043-.055-.064.018a.021.021 0 1 1-.012-.04l.12-.035.103-.131a.047.047 0 0 1-.007-.033l.046-.339a.095.095 0 0 1 .056-.135l.084-.026c.006-.187.018-.39.042-.587l-.209-.022a.095.095 0 0 1-.024-.006l-.157.26a.048.048 0 0 1-.063.018l-.276.15a.021.021 0 1 1-.02-.037l.061-.034-.066-.008a.021.021 0 1 1 .006-.042l.124.016.146-.08a.047.047 0 0 1 .006-.033l.178-.292a.096.096 0 0 1 .105-.101l.216.022a2.71 2.71 0 0 1 .061-.276c.027-.098.06-.186.099-.26l-.249-.115a.095.095 0 0 1-.02-.013l-.233.195a.048.048 0 0 1-.065-.003l-.31.054a.021.021 0 1 1-.008-.042l.07-.012-.06-.03a.021.021 0 0 1 .019-.037l.112.055.164-.029a.047.047 0 0 1 .016-.029l.263-.22a.095.095 0 0 1 .132-.062l.28.129a.317.317 0 0 1 .355-.073l.037.014a.837.837 0 0 1 .045-.025c-.114-.066-.186-.163-.187-.272a.288.288 0 0 1 .382-.422.566.566 0 0 1 .036-.01.286.286 0 0 0-.017-.292h-.032a.038.038 0 0 1 0-.075h.346a.038.038 0 0 1 0 .075h-.04a.286.286 0 0 0-.018.293.57.57 0 0 1 .034.008.288.288 0 0 1 .385.418v.003c0 .105-.067.199-.173.265.021.01.042.022.062.034a.678.678 0 0 1 .037-.014.314.314 0 0 1 .35.069l.271-.125a.095.095 0 0 1 .132.062z"/></g></g><path d="M3.413 0a3.413 3.413 0 1 1 0 6.827 3.413 3.413 0 0 1 0-6.827z" style="fill:none"/><path class="fil3" d="M4.616 2.768a.095.095 0 0 1-.046.126l-.52.238a.095.095 0 0 1-.079-.173l.52-.238a.095.095 0 0 1 .125.047z"/><path class="fil3" d="M4.89 3.07a.048.048 0 0 0-.006-.067l-.287-.241a.048.048 0 1 0-.062.073l.288.241c.02.017.05.014.067-.006z"/><path class="fil3" d="M5.222 3.11a.021.021 0 0 0-.017-.025l-.338-.058a.021.021 0 1 0-.008.041l.339.059a.021.021 0 0 0 .024-.018z"/><path class="fil3" d="m5.094 3.094.102-.05a.021.021 0 1 0-.019-.038l-.132.064.05.024zM4.801 3.607a.095.095 0 0 1-.084.105l-.568.06a.095.095 0 1 1-.02-.19l.568-.06c.052-.005.099.033.104.085z"/><path class="fil3" d="M4.964 3.982a.048.048 0 0 0 .015-.066l-.195-.32a.048.048 0 1 0-.08.05l.194.32c.014.022.043.03.066.016z"/><path class="fil3" d="M5.266 4.126a.021.021 0 0 0-.009-.03l-.302-.163a.021.021 0 0 0-.02.037l.302.164c.01.006.023.002.029-.008z"/><path class="fil3" d="m5.15 4.07.112-.015a.021.021 0 1 0-.006-.042l-.145.019.038.037zM4.696 4.467a.095.095 0 0 1-.12.062l-.544-.172a.095.095 0 0 1 .057-.182l.545.172c.05.016.078.07.062.12z"/><path class="fil3" d="M4.695 4.875a.048.048 0 0 0 .04-.054l-.05-.372a.048.048 0 0 0-.094.013l.05.372a.048.048 0 0 0 .054.04z"/><path class="fil3" d="M4.915 5.127c.01-.007.011-.02.004-.03l-.212-.27a.021.021 0 0 0-.033.026l.211.27c.008.01.02.011.03.004z"/><path class="fil3" d="m4.83 5.03.11.03a.021.021 0 1 0 .011-.04l-.14-.04.02.05zM2.21 2.768a.095.095 0 0 0 .047.126l.519.238a.095.095 0 0 0 .08-.173l-.52-.238a.095.095 0 0 0-.126.047z"/><path class="fil3" d="M1.937 3.07a.048.048 0 0 1 .005-.067l.288-.241a.048.048 0 1 1 .061.073l-.287.241a.048.048 0 0 1-.067-.006z"/><path class="fil3" d="M1.604 3.11a.021.021 0 0 1 .017-.025l.34-.058a.021.021 0 1 1 .006.041l-.338.059a.021.021 0 0 1-.025-.018z"/><path class="fil3" d="m1.733 3.094-.102-.05a.021.021 0 0 1 .019-.038l.131.064-.048.024zM2.025 3.607c-.005.053.033.1.085.105l.568.06a.095.095 0 0 0 .02-.19l-.568-.06a.095.095 0 0 0-.105.085z"/><path class="fil3" d="M1.863 3.982a.048.048 0 0 1-.016-.066l.195-.32a.048.048 0 1 1 .082.05l-.195.32a.048.048 0 0 1-.066.016z"/><path class="fil3" d="M1.56 4.126a.021.021 0 0 1 .01-.03l.301-.163a.021.021 0 0 1 .02.037l-.301.164a.021.021 0 0 1-.03-.008z"/><path class="fil3" d="m1.677 4.07-.112-.015a.021.021 0 1 1 .006-.042l.145.019-.039.037zM2.13 4.467c.017.05.07.078.12.062l.545-.172a.095.095 0 0 0-.057-.182l-.545.172a.095.095 0 0 0-.062.12z"/><path class="fil3" d="M2.131 4.875a.048.048 0 0 1-.04-.054l.05-.372a.048.048 0 0 1 .095.013l-.05.372a.048.048 0 0 1-.055.04z"/><path class="fil3" d="M1.912 5.127a.021.021 0 0 1-.004-.03l.211-.27a.021.021 0 0 1 .034.026l-.212.27a.021.021 0 0 1-.03.004z"/><path class="fil3" d="m1.996 5.03-.109.03a.021.021 0 1 1-.012-.04l.141-.04-.02.05z"/><path class="fil4" d="M2.536 3.692c0-.562.396-1.018.885-1.018.488 0 .884.456.884 1.018s-.396 1.243-.884 1.243c-.489 0-.885-.68-.885-1.243z"/><path d="M3.492 1.93c0-.072.028-.138.072-.189h-.318a.286.286 0 0 1-.057.43h.432a.287.287 0 0 1-.129-.24z" style="fill:#155219;fill-rule:nonzero"/><path class="fil4" d="M3.942 2.492c0 .2-.24.362-.537.362-.297 0-.538-.162-.538-.362 0-.2.24-.442.538-.442.297 0 .537.242.537.442z"/><path class="fil6" d="M4.003 2.312a.288.288 0 1 1-.576 0 .288.288 0 0 1 .576 0zM3.378 2.312a.288.288 0 1 1-.576 0 .288.288 0 0 1 .576 0z"/><path class="fil7" d="M3.928 2.312a.213.213 0 1 1-.426 0 .213.213 0 0 1 .426 0zM3.303 2.312a.213.213 0 1 1-.426 0 .213.213 0 0 1 .426 0z"/><path d="M3.62 1.733c0 .02-.017.037-.038.037h-.346a.038.038 0 0 1 0-.075h.346c.02 0 .038.017.038.038z" style="fill:#1b5e20;fill-rule:nonzero"/><path class="fil9" d="M3.853 2.312a.138.138 0 1 1-.276 0 .138.138 0 0 1 .276 0zM3.228 2.312a.138.138 0 1 1-.276 0 .138.138 0 0 1 .276 0z"/><path class="fil10" d="M3.187 4.453c-.177.333-.438.59-.729.627a2.177 2.177 0 0 0-.074.01c-.082.007-.09-.012-.098-.13-.019-.27-.036-1.133.121-1.691.04-.141.09-.264.156-.354.067-.094.15-.153.251-.162a.36.36 0 0 1 .158.024c.2.073.327.225.393.418.062.182.07.398.035.62a2.057 2.057 0 0 1-.213.638z"/><path class="fil11" d="M3.09 4.303c-.126.238-.313.423-.522.45a1.58 1.58 0 0 0-.025.003l-.028.003c-.059.006-.064-.008-.07-.092-.014-.195-.026-.814.087-1.214a.816.816 0 0 1 .111-.253c.049-.068.108-.11.18-.117a.258.258 0 0 1 .114.017.463.463 0 0 1 .282.3c.044.13.05.286.025.444a1.475 1.475 0 0 1-.153.459z"/><path class="fil10" d="M3.654 4.453c.177.333.438.59.729.627a2.179 2.179 0 0 1 .074.01c.083.007.09-.012.098-.13.019-.27.036-1.133-.12-1.691-.04-.141-.091-.264-.156-.354-.068-.094-.151-.153-.252-.162a.36.36 0 0 0-.158.024.645.645 0 0 0-.393.418 1.32 1.32 0 0 0-.035.62c.034.218.109.441.213.638z"/><path class="fil11" d="M3.75 4.303c.127.238.314.423.523.45.012 0 .02.002.025.003l.028.003c.06.006.064-.008.07-.092.014-.195.026-.814-.086-1.214a.816.816 0 0 0-.112-.253c-.049-.068-.108-.11-.18-.117a.258.258 0 0 0-.114.017.463.463 0 0 0-.281.3.947.947 0 0 0-.026.444c.024.157.078.318.153.459z"/></g></svg>