<svg xmlns="http://www.w3.org/2000/svg" xml:space="preserve" width="655.359" height="655.359" style="shape-rendering:geometricPrecision;text-rendering:geometricPrecision;image-rendering:optimizeQuality;fill-rule:evenodd;clip-rule:evenodd" viewBox="0 0 6.827 6.827" xmlns:xlink="http://www.w3.org/1999/xlink"><defs><linearGradient id="id1" gradientUnits="userSpaceOnUse" x1="2.076" y1="3.235" x2="2.197" y2="3.235"><stop offset="0" style="stop-color:#a45e3c"/><stop offset=".161" style="stop-color:#754733"/><stop offset="1" style="stop-color:#462f2a"/></linearGradient><linearGradient id="id2" gradientUnits="userSpaceOnUse" x1="2.291" y1="3.039" x2="2.351" y2="3.039"><stop offset="0" style="stop-color:#462f2a"/><stop offset=".871" style="stop-color:#3f312f"/><stop offset="1" style="stop-color:#373435"/></linearGradient><linearGradient id="id3" gradientUnits="userSpaceOnUse" xlink:href="#id2" x1="1.969" y1="3.044" x2="1.908" y2="3.044"/><linearGradient id="id4" gradientUnits="userSpaceOnUse" x1="2.218" y1="3.047" x2="2.265" y2="3.047"><stop offset="0" style="stop-color:#373435"/><stop offset=".2" style="stop-color:#3e3230"/><stop offset="1" style="stop-color:#462f2a"/></linearGradient><linearGradient id="id5" gradientUnits="userSpaceOnUse" xlink:href="#id4" x1="2.041" y1="3.051" x2="1.995" y2="3.051"/><clipPath id="id0"><path d="M3.413 0a3.413 3.413 0 1 1 0 6.827 3.413 3.413 0 0 1 0-6.827z"/></clipPath><style>.fil6{fill:none;fill-rule:nonzero}.fil1{fill:#512da8}.fil14,.fil5{fill:#373435;fill-rule:nonzero}.fil5{fill:#b83209}.fil4,.fil7,.fil8{fill:#bf360c;fill-rule:nonzero}.fil4,.fil8{fill:#d84315}.fil8{fill:#e64a19}.fil11,.fil15,.fil9{fill:#f4511e;fill-rule:nonzero}.fil15,.fil9{fill:#fefefe}.fil9{fill:#ff8a65}</style></defs><g id="Layer_x0020_1"><path d="M3.413 0a3.413 3.413 0 1 1 0 6.827 3.413 3.413 0 0 1 0-6.827z" style="fill:#7e57c2"/><g style="clip-path:url(#id0)"><g id="_637663792"><path id="_2161208481" class="fil1" d="m5.089 4.227 3.786 3.786.005.007.005.006.005.007.005.007.005.007.004.007.005.007.004.006.005.007.005.007.004.007.005.007.005.006.005.007.006.006.006.007-3.787-3.787-.005-.006-.006-.006-.005-.007-.005-.006-.005-.007-.005-.007-.004-.007-.005-.007-.004-.007-.005-.007-.005-.007-.004-.006-.005-.007L5.1 4.24l-.005-.007z"/><path id="_216120968" class="fil1" d="M5.263 4.41 9.05 8.196l-.004.001-.005.001h-.02l-.004-.002-.005-.002-3.786-3.786.004.002.005.001h.005l.005.001h.015z"/><path id="_216122984" class="fil1" d="m3.917 3.157 3.786 3.786.003.003.003.004.003.004.003.003.003.004-3.786-3.786-.003-.004-.003-.004-.003-.003-.003-.004z"/><path id="_216123224" class="fil1" d="M3.655 3.005 7.44 6.792l-.005.001-.005.002h-.005l-.005.002-.005.001-.005.001-.005.001-.005.001-3.787-3.786.005-.001.005-.001.006-.001.005-.001.005-.001.005-.002.005-.001z"/><path id="_216123128" class="fil1" d="M3.746 3.044 7.532 6.83h-.021l-.006-.001H7.5l-.005.001-.005.003-3.786-3.787.004-.002.005-.001h.017l.006.001h.005z"/><path id="_216122768" class="fil1" d="m3.723 3.052 3.786 3.786v.001h-.001l-.001.001h-.002L3.719 3.055h.002l.001-.001z"/><path id="_216123104" class="fil1" d="m3.637 3.017 3.786 3.787H7.42v.001h-.003l-.001.001h-.003L3.627 3.022h.002l.001-.001h.003l.001-.001h.001l.001-.001z"/><path id="_216123272" class="fil1" d="M3.644 3.021 7.43 6.807l-.001.001-.002.001-.001.001-.002.001H7.42l-.002.002h-.004L3.628 3.027h.005l.002-.001.002-.001.002-.001.002-.001.002-.001z"/><path id="_216122936" class="fil1" d="m4.156 3.54 3.786 3.787.002.007.003.006.002.006.002.007.003.006.003.006.002.006.003.007.003.006.003.006.003.006.002.006.003.007.003.006.002.006.003.007L4.197 3.64l-.002-.006-.003-.006-.002-.007-.003-.006-.003-.006-.003-.006-.002-.006-.003-.007-.003-.006-.003-.006-.002-.006-.003-.006-.002-.007-.003-.006-.002-.007z"/><path id="_216122816" class="fil1" d="m5.09 4.474 3.786 3.787-.003-.001-.003-.001-.002-.001-.003-.002h-.003l-.003-.002-.003-.001-.003-.001-.003-.001-.003-.001-.003-.001H8.84l-.003-.001H8.829L5.043 4.462H5.057l.003.002h.003l.004.001.003.002h.003l.003.002.003.001.002.001.003.001.003.001z"/><path id="_216122720" class="fil1" d="m2.631 2.109 3.786 3.786.004.004.004.005.003.004.003.005.003.005.003.005.002.005.002.005.001.004.002.005-3.787-3.786V2.15l-.002-.005-.002-.004-.003-.005-.002-.005-.003-.005-.003-.005-.003-.004-.004-.005z"/><path id="_216123560" class="fil1" d="m2.657 2.156 3.787 3.786v.006l.002.006.001.006.002.007.001.006.001.006.001.006.002.006v.006l.002.007.001.006.001.006.002.006v.006l.002.006.001.007-3.786-3.787-.001-.006-.001-.006-.002-.006V2.23l-.002-.006-.001-.007-.001-.006-.002-.006v-.006l-.002-.006-.001-.007-.002-.006v-.006l-.002-.006-.001-.006z"/><path id="_216124016" class="fil1" d="M3.534 2.984 7.32 6.771l-.004.002-.004.002-.005.002-.005.001-.005.001-.005.002-.005.001-.005.002-3.786-3.786.005-.002.005-.002h.005l.005-.002.005-.001.005-.002.004-.002z"/><path id="_216123992" class="fil1" d="m3.53 2.998 3.786 3.787h-.002l-.002.001-.001.001-.002.001-.001.002h-.001l-.001.002h-.001L3.518 3.008l.001-.001.002-.001v-.002h.002L3.524 3 3.526 3h.002z"/><path id="_216124064" class="fil1" d="m2.677 2.254 3.786 3.787v.003l.001.003V6.072l-.001.003v.004l-.001.003v.004l-.001.003v.007L2.673 2.31v-.007l.001-.003v-.004l.001-.003v-.007l.001-.004v-.007l.001-.004V2.258z"/><path id="_216123584" class="fil1" d="M3.547 3.003 7.334 6.79H7.33v.001H7.33l-.002.001L3.54 3.006h.003v-.001h.001l.002-.001z"/><path id="_216123896" class="fil1" d="M3.423 2.963 7.209 6.75h-.005l-.005.001h-.006l-.005.002-.005.002-.005.002-.004.002-.005.002-3.786-3.786.004-.002.005-.003.005-.002.005-.001.005-.001.005-.001.006-.001z"/><path id="_216123392" class="fil1" d="M2.675 2.362 6.462 6.15v.021l-.001.007v.007l-.002.008v.007l-.002.008-.002.007-.001.007-.002.007-.002.007-.002.007-.002.007-.003.007-.002.006-3.786-3.786.002-.007.002-.006.003-.007.002-.007.002-.007.002-.007.001-.007.002-.008.001-.007.001-.007.001-.008v-.007l.001-.007v-.015z"/><path id="_216123632" class="fil1" d="M4.78 4.492 8.568 8.28l-.001-.001-.002-.001h-.002l-.002-.002h-.002l-.002-.002h-.002l-.002-.002-3.786-3.786.002.001.002.001.002.001.002.001h.002l.002.002h.001z"/><path id="_216123680" class="fil1" d="m4.766 4.485 3.787 3.786v.003l.002.003.001.002.002.002-3.786-3.786-.002-.002-.002-.003v-.002z"/><path id="_216123848" class="fil1" d="m4.78 4.502 3.787 3.786h-.003l-.001-.001H8.56l-.002-.001h-.003L4.769 4.498h.003l.001.001h.005l.001.001z"/><path id="_443445560" class="fil1" d="m4.77 4.5 3.787 3.787.002.002.002.002.001.003.002.002.002.002.001.003.002.002-3.787-3.786-.001-.003-.002-.002-.001-.002-.002-.003-.002-.002-.001-.002z"/><path id="_443445992" class="fil1" d="M2.655 2.476 6.44 6.262l-.003.007-.003.008-.002.008-.002.008-.003.008-.002.008-.001.008-.002.008-.002.008-.002.008-.003.008-.002.008-.002.008-.003.007-.003.008-.003.008L2.616 2.6l.004-.007.003-.008.002-.008.003-.008.002-.007.002-.008.002-.009.002-.008.002-.008.002-.008.002-.008.002-.008.003-.007.002-.008.003-.008z"/><path id="_443446016" class="fil1" d="m3.172 2.95 3.786 3.786-.004.003-.004.002-.005.003-.004.003-.005.003-.004.003-.004.003-.004.003-3.786-3.786.004-.003.004-.004.004-.003.005-.002.004-.003.004-.003.005-.003z"/><path id="_443445632" class="fil1" d="m3.173 2.97 3.786 3.787-.003.002-.003.001-.003.002-.003.002-.003.002-.003.001-.003.002-.004.002-3.786-3.787.003-.001.004-.002.003-.002.003-.001.003-.002.003-.002.003-.002z"/><path id="_443445656" class="fil1" d="m4.666 4.467 3.786 3.786-.002-.002H8.45L4.662 4.463l.002.001z"/><path id="_443445752" class="fil1" d="M4.662 4.464 8.45 8.25v.003l.001.002.001.002.002.003.001.002.002.002.002.002.002.002-3.786-3.786-.002-.002-.002-.002-.002-.002-.001-.003-.002-.002-.001-.002-.001-.003z"/><path id="_443445800" class="fil1" d="m4.651 4.44 3.787 3.786.002.005.004.005.003.004.004.005.004.004.003.005.003.005.002.006-3.787-3.786-.001-.006-.003-.005-.003-.005-.004-.004-.004-.005-.004-.005-.003-.005z"/><path id="_443445968" class="fil1" d="M4.674 4.482 8.46 8.268h-.002l-.003-.001-.002-.001-.003-.001-.002-.001-.003-.001-.002-.001-.002-.001-3.786-3.787.002.001.002.001.003.002h.002l.002.002h.003l.002.001z"/><path id="_443446088" class="fil1" d="M4.655 4.474 8.44 8.261v.001l.001.002.001.002v.002l.001.002v.002l.002.002v.001L4.66 4.49v-.002l-.001-.001-.001-.002v-.002l-.001-.002v-.002l-.002-.002z"/><path id="_443445512" class="fil1" d="m3.039 2.936 3.786 3.786v.005l-.002.003v.002l-.002.002-.002.002-.001.003-.002.002L3.03 2.955l.002-.003.001-.002.002-.002v-.002l.002-.003.001-.002v-.003z"/><path id="_443445464" class="fil1" d="M3.053 2.946 6.84 6.733v.008L3.053 2.954v-.006z"/><path id="_443446328" class="fil1" d="m3.086 2.95 3.786 3.786v.003l-.001.003-.002.003-.002.002-.002.002-.002.002-.003.002-.002.002L3.072 2.97l.002-.002.003-.002.002-.002.002-.002.002-.003.002-.002v-.003z"/><path id="_443446424" class="fil1" d="m4.548 4.449 3.786 3.786-.002-.001v-.002H8.33l-.002-.002-.001-.001-.001-.001-.002-.002L4.538 4.44l.001.001.002.002h.001l.001.002.002.001.001.001z"/><path id="_443446448" class="fil1" d="m4.529 4.412 3.786 3.786.003.005.003.004.003.005.003.005.002.004.003.005.002.005.001.005L4.55 4.45l-.001-.005-.002-.005-.003-.005-.003-.005-.003-.004-.003-.005-.002-.004z"/><path id="_443446280" class="fil1" d="M4.46 4.362 8.246 8.15l-.003-.003-.003-.003-3.786-3.786.003.003z"/><path id="_443446304" class="fil1" d="m4.46 4.397 3.787 3.787-.003-.003-.002-.002-.003-.001L4.452 4.39l.003.002.003.002z"/><path id="_443446952" class="fil1" d="M4.452 4.391 8.24 8.178v.002l.002.002.001.002.001.003.001.002v.002l.002.003v.002L4.46 4.41v-.003l-.001-.002-.001-.002-.001-.003-.001-.002-.001-.002-.001-.002z"/><path id="_443446808" class="fil1" d="M4.454 4.357 8.24 8.143l-.001.002-.001.003v.006l.001.004.001.003.002.004.002.004.001.004.002.004.002.004.002.004.002.004.002.003.001.003.001.003L4.471 4.41 4.47 4.41l-.001-.003-.002-.003-.002-.004-.002-.004-.002-.004-.002-.004-.002-.004-.001-.004-.002-.004-.001-.004-.001-.003V4.359z"/><path id="_443446232" class="fil1" d="m4.538 4.44 3.786 3.786.001.002h.001l.001.002.001.002.001.002.002.001v.002l.002.001-3.786-3.786-.002-.001v-.002l-.002-.001v-.002l-.002-.002-.001-.001-.001-.002z"/><path id="_443446568" class="fil1" d="m4.547 4.452 3.786 3.786h-.004l-.003-.001-.004-.002-.004-.002-.004-.002-.004-.003-.004-.003-.004-.003-.004-.003-.004-.004-.003-.003-3.786-3.786.003.003.004.003.004.004.004.003.004.003.004.003.004.002.004.002.003.002h.004z"/><path id="_443446640" class="fil1" d="m4.38 4.333 3.787 3.786-.004-.003-3.787-3.787z"/><path id="_443447096" class="fil1" d="m2.616 2.601 3.787 3.787-.004.006-.004.007-.004.006-.004.006-.004.006-.005.006-.004.005-.004.006-.004.005-.004.006-.003.006-.003.006-.003.007-.001.007-.001.007v.007L2.564 2.701v-.007l.001-.008.002-.007.002-.006.003-.006.004-.006.003-.006.004-.006.004-.005.005-.006.004-.005.005-.006.004-.006.004-.006.004-.007z"/><path id="_443447384" class="fil1" d="m2.564 2.701 3.787 3.786v.015l-.001.007-.002.007-.002.006-.002.006-.002.006-.003.006-.003.005-.004.006-.003.005-.005.005-.004.006-.004.005-.005.006-.005.005L2.52 2.797l.005-.006.004-.005.005-.006.004-.005.004-.005.004-.006.004-.005.003-.006.003-.005.002-.006.002-.006.002-.007.001-.006.001-.007v-.007z"/><path id="_443447000" class="fil1" d="M2.712 2.849 6.5 6.635l-.002.004-.002.004-.002.003-.003.003-.004.003-.003.002-.004.002-.004.002-3.786-3.786.004-.002.003-.002.004-.002.004-.003.003-.003.002-.004.002-.003z"/><path id="_443447144" class="fil1" d="m2.713 2.867 3.786 3.786-.001.002-.003.003-.002.002-.003.002-.002.002-.003.003-.003.002-.002.003-3.786-3.786.002-.003.003-.003.002-.002.003-.002.003-.002.002-.003.002-.002z"/><path id="_443447744" class="fil1" d="m2.864 2.887 3.787 3.786-.003.003-.003.003-.003.003-.003.003-.004.002-.003.003-.004.003-.003.003-3.786-3.787.003-.002.003-.003.004-.003.003-.003.004-.002.003-.003.003-.003z"/><path id="_443447072" class="fil1" d="m2.867 2.898 3.786 3.786v.002l-.001.001v.002l-.001.001v.002H6.65l-.001.002-3.786-3.786v-.001l.001-.002v-.001l.001-.001V2.9l.001-.001z"/><path id="_443447312" class="fil1" d="m2.88 2.905 3.786 3.786-.002.001v.002h-.002v.002l-.002.002h-.001l-.001.002-.001.001L2.87 2.915v-.001l.002-.001V2.91l.002-.001v-.001l.002-.002h.001z"/><path id="_443447360" class="fil1" d="m2.888 2.915 3.786 3.786-.001.003-.002.003-.003.003-.002.003-.003.003-.002.003-.003.002-.002.003-3.787-3.786.003-.003.002-.003.003-.002.003-.003.002-.003.002-.003.002-.003z"/><path id="_443447528" class="fil1" d="M2.723 2.879 6.51 6.665l-.002.002-.002.001-.002.002-.003.002-.002.002-.002.001-.002.002-.003.002-3.786-3.787.002-.001.003-.002.002-.002.002-.001.002-.002.002-.002.002-.002z"/><path id="_443447624" class="fil1" d="m2.788 2.869 3.786 3.786-.001.003-.002.003-.003.003-.002.003-.003.002-.002.003-.003.003-.002.003-3.787-3.786.003-.003.002-.003.003-.003.003-.003.002-.002.003-.003.002-.003z"/><path id="_443447696" class="fil1" d="M2.792 2.884 6.578 6.67l-.002.002v.001l-.002.002v.002l-.002.001v.002l-.001.002-.001.002-3.786-3.787v-.001l.001-.002.001-.002.001-.002V2.89l.002-.002.001-.002z"/><path id="_443448248" class="fil1" d="m2.802 2.89 3.786 3.787v.003l-.003.003-.002.002-.003.002-.003.002-.003.002-.003.001-.003.002-3.786-3.786.003-.002.003-.002.003-.001.003-.002.003-.002.002-.003.002-.002z"/><path id="_443448104" class="fil1" d="m2.914 2.938 3.787 3.786.001.002.001.001.001.002.001.002h.001l.001.002-3.786-3.786-.001-.001-.001-.002-.001-.001-.001-.002-.001-.002z"/><path id="_443448416" class="fil1" d="m3.927 4.003 3.786 3.786v.014l-.001.006V7.822l.001.007.001.006.002.007v.006l.002.006.002.006.002.006.002.006.002.007.002.006.002.006.002.006.002.006.002.006.002.006.003.006.002.006.002.006.001.006.002.006.002.006.001.007.002.006v.006l.002.007v.006l.001.007L3.97 4.204v-.007l-.001-.006-.001-.007-.002-.006V4.17l-.002-.006-.002-.006-.002-.006-.002-.006-.002-.006-.002-.006-.002-.006-.002-.007-.002-.006-.002-.006-.003-.006-.002-.006-.002-.006-.002-.006-.002-.006-.001-.006-.002-.006-.001-.006-.002-.007V4.05l-.002-.006v-.007l-.001-.006v-.02z"/><path id="_443448296" class="fil1" d="m4.08 4.157 3.786 3.786v.01L4.08 4.166v-.008z"/><path id="_443447840" class="fil1" d="M4.145 4.247 7.93 8.034l-.003-.003-.003-.003-.003-.002-.003-.003-.003-.002L4.13 4.235l.003.002.003.003.003.002.003.003z"/><path id="_443447984" class="fil1" d="m3.94 3.999 3.787 3.786h-.002l-.001.001h-.002l-.001.002h-.004l-.002.001h-.002L3.927 4.003h.006L3.935 4h.001L3.938 4l.001-.001z"/><path id="_443448200" class="fil1" d="M4.15 4.244 7.935 8.03V8.04L4.15 4.254V4.245z"/><path id="_443448080" class="fil1" d="m3.946 3.93 3.786 3.787-.003-.002-.002-.002-.003-.001h-.002L7.72 7.71h-.003L3.931 3.924h.002l.003.001h.002l.002.002.003.001z"/><path id="_443448008" class="fil1" d="m3.931 3.924 3.786 3.787v.002l.001.001v.001L3.932 3.93v-.004z"/><path id="_443448152" class="fil1" d="M4.024 4.085 7.81 7.872v.001l-.001.001v.002h-.001L4.022 4.09v-.002h.001v-.002z"/><path id="_443449160" class="fil1" d="m3.932 3.93 3.786 3.786V7.742l.001.004.001.005.001.004v.005l.002.004v.005l.002.004v.004l.001.004.001.004-3.786-3.786-.001-.004V3.99l-.002-.004v-.005l-.001-.004-.001-.004-.001-.005-.001-.004V3.96l-.002-.005V3.933z"/><path id="_443448968" class="fil1" d="M4.035 4.07 7.82 7.858v.027L4.034 4.098v-.024z"/><path id="_443449064" class="fil1" d="m4.089 4.15 3.786 3.786v.02l.001.003L4.09 4.173V4.17l-.001-.003v-.015z"/><path id="_443449136" class="fil1" d="M4.154 4.22 7.94 8.006v.015l.001.005.001.005v.005l.001.005v.005L4.157 4.259v-.01l-.001-.005-.001-.004-.001-.005v-.01z"/><path id="_443448536" class="fil1" d="m4.279 4.278 3.786 3.786-.003-.003-3.786-3.786z"/><path id="_443448920" class="fil1" d="m4.228 4.297 3.786 3.786-.002-.002-.002-.002-.003-.001-.002-.001-.002-.001L4.217 4.29h.002l.002.002.002.001.003.002z"/><path id="_443449184" class="fil1" d="m4.21 4.221 3.785 3.786v.011l.001.005v.006l.002.005v.005L8 8.044l.002.006.002.005.001.005.003.005.002.005.002.005.002.005.003.004.002.005-3.786-3.786-.002-.005-.003-.005-.002-.004-.003-.005-.002-.005-.002-.005-.002-.005-.001-.006-.002-.005-.001-.005-.002-.005v-.006l-.001-.005v-.011z"/><path id="_443449208" class="fil1" d="m2.52 2.797 3.786 3.786-.005.006-.004.005-.005.005-.005.006-.005.005-.005.005-.005.005-.005.005L2.48 2.839l.005-.005.005-.005.005-.005.005-.006.005-.005.004-.005.005-.006z"/><path id="_443448872" class="fil1" d="m2.48 2.839 3.787 3.786-.002.001-.001.001-.002.002-.002.001-.001.002-.002.001v.006l.001.002-3.786-3.786-.002-.002v-.004l.001-.002.001-.002.002-.001.002-.002.002-.001.001-.001z"/><path id="_443449016" class="fil1" d="m1.737 2.179 3.786 3.786.006.006.006.007.006.006.006.006.005.006.005.006.005.006-3.786-3.786-.005-.006-.005-.006-.006-.006-.005-.006-.006-.007-.006-.006z"/><path id="_443449520" class="fil1" d="M1.94 2.493 5.727 6.28l.001.004.002.004.002.005.002.004.001.005.002.004.001.005.002.004.001.005.002.004.001.005.001.004.002.005v.005l.002.004v.005L1.963 2.565v-.004l-.002-.005v-.004l-.002-.005-.001-.004-.001-.005-.002-.004-.001-.005-.002-.004-.001-.005-.002-.004-.002-.005-.001-.004-.002-.005-.002-.004z"/><path id="_443449976" class="fil1" d="M3.061 3.845 6.847 7.63 3.061 3.845z"/><path id="_443450024" class="fil1" d="M3.06 3.845 6.848 7.63H6.82l-.004.001h-.014l-.004.001H6.79L3.004 3.848h.018l.003-.001H3.054l.003-.001z"/><path id="_443449448" class="fil1" d="m3.01 3.867 3.787 3.786h-.014l-.005-.001h-.005L6.77 7.65H6.76l-.005-.001h-.033L2.936 3.865l.005-.001h.004l.005-.001H2.97l.004.001h.005l.005.001h.004l.005.001h.004l.005.001h.005z"/><path id="_443449664" class="fil1" d="m2.932 3.882 3.786 3.786.001.001.001.001v.001l.001.001.001.001.001.002h.001L2.938 3.89l-.002-.001v-.002l-.001-.001-.001-.001-.001-.001z"/><path id="_443450048" class="fil1" d="M1.605 2.73 5.39 6.517l-.004-.004-.005-.004-.005-.004-.004-.004-3.786-3.787.004.004.005.004.004.004z"/><path id="_443450000" class="fil1" d="M2.807 3.915 6.593 7.7l-.003-.003-.004-.003-.004-.003-.003-.003-.004-.002-.004-.003-.004-.002-.004-.002-.005-.002-.004-.002-.004-.001-.005-.002L2.76 3.887l.004.001.005.002.004.002.004.002.004.002.005.002.003.002.004.003.004.003.004.003.003.003z"/><path id="_443449616" class="fil1" d="m2.711 3.88 3.786 3.786-.006-.006-.007-.005-.008-.005L2.69 3.864l.007.004.007.006z"/><path id="_443449400" class="fil1" d="M2.763 3.89 6.55 7.675l.003.003.002.005.002.006v.006l.002.005v.006l.003.004-3.787-3.786-.001-.005-.002-.005V3.91l-.002-.005-.001-.006-.002-.005z"/><path id="_443449808" class="fil1" d="m1.92 2.44 3.785 3.786.002.004.001.003.002.003.001.004.001.003.002.003.001.003.002.004v.003l.002.003.002.004v.003l.002.003.001.004.002.003v.004L1.94 2.493V2.49l-.002-.003-.001-.004-.001-.003-.002-.004-.001-.003-.001-.003-.002-.004-.001-.003-.002-.003v-.003l-.002-.004-.002-.003-.001-.003-.001-.004z"/><path id="_443449328" class="fil1" d="m3.357 4.09 3.786 3.787-.004-.003-.003-.004-.004-.003-.004-.003-.004-.002-.003-.003-.004-.002-.004-.003-.004-.002-.004-.002-.004-.002-.004-.002-.004-.002-.004-.001-.004-.002-.005-.001-.004-.002-.004-.001-.004-.002-.004-.001-.005-.002-.004-.001-.004-.001-.005-.002-.004-.001-.005-.001-.004-.002-.004-.001-.005-.002-.004-.001-.005-.002-.005-.002L3.224 4.03l.005.002.004.001.005.002.004.001.005.002.004.001.005.002.004.001.004.001.005.002.004.001.004.001.005.002.004.001.004.002.004.001.004.002.004.001.005.002.004.002.004.002.004.002.004.002.004.002.003.002.004.003.004.002.004.003.004.003.003.003.004.003z"/><path id="_443450720" class="fil1" d="M3.224 4.03 7.01 7.816l-.008-.003-.008-.004-.008-.005-.008-.005-.007-.005-.008-.006-.007-.006-.007-.006-3.786-3.787.007.007.007.006.007.006.008.005.008.005.008.005.008.004z"/><path id="_443450696" class="fil1" d="M2.937 3.865 6.723 7.65l.002.002.001.001.001.002.002.002.001.001.001.002.002.001-3.787-3.786-.001-.001-.001-.002-.002-.002V3.87l-.002-.002-.001-.002z"/><path id="_443450456" class="fil1" d="m2.883 3.878 3.786 3.786h-.005l-.006-.002h-.005l-.005-.002h-.01l-.006-.001h-.005L2.84 3.873h.017l.005.001h.005l.005.002h.005z"/><path id="_443450672" class="fil1" d="m2.84 3.873 3.787 3.786.001.003.002.003.002.004.002.003.002.003.001.004.001.003.001.004L2.853 3.9v-.004l-.002-.004-.002-.003-.002-.003-.002-.004-.002-.003-.001-.003z"/><path id="_443450312" class="fil1" d="M2.69 3.864 6.476 7.65l.003.004.004.003.003.003L2.7 3.874l-.004-.003-.003-.004z"/><path id="_443450216" class="fil1" d="m1.906 3.152 3.786 3.786v-.001H5.69L1.904 3.15h.001v.001z"/><path id="_443450768" class="fil1" d="m1.916 3.262 3.786 3.786-.001.003-.002.003-.002.003-.003.002-.003.002-.003.002-.003.002-.003.001L1.895 3.28 1.9 3.28l.003-.002.003-.002.003-.002.003-.002.002-.003.001-.003z"/><path id="_443450816" class="fil1" d="M2.571 3.945 6.357 7.73v.006l.001.003v.015l.001.003v.022L2.572 3.994V3.948z"/><path id="_443450120" class="fil1" d="M1.804 3.09 5.59 6.876H5.59l-.002-.002h-.001l-.002-.002h-.001l-.001-.002-.002-.001-.001-.001-3.786-3.786h.001l.001.002h.002l.001.002.001.001.002.001.001.001z"/><path id="_443450192" class="fil1" d="M1.809 3.093 5.595 6.88l-.001-.001h-.001l-.001-.001-.001-.001H5.59L1.804 3.09l.001.001h.001l.001.001h.001z"/><path id="_443451152" class="fil1" d="M2.542 4.055 6.328 7.84l-.001.005-.002.004-.002.005-.002.004-.003.004-.002.004-.002.005-.002.004L2.525 4.09l.002-.004.003-.005.002-.004.002-.004.003-.005.002-.004.001-.005z"/><path id="_443451416" class="fil1" d="M2.554 4.011 6.34 7.797v.004l-.002.004v.007l-.001.005v.034l.001.004v.004l.002.003-3.787-3.786v-.004l-.001-.004v-.004L2.55 4.06v-.008l-.001-.004V4.026l.001-.004.001-.004.001-.003z"/><path id="_443450888" class="fil1" d="m2.556 4 3.787 3.787v.007l.001.004v.019L2.558 4.03v-.022l-.001-.004z"/><path id="_443451080" class="fil1" d="m3.576 4.273 3.786 3.786-.003.002-.003.002-.003.002-.003.001-.004.002-.003.002-.003.001-.003.002-.004.002-.003.002-.003.002-.003.001-.003.002-.003.002-.003.002-.003.003-3.786-3.787.003-.002.003-.002.003-.002.003-.002.003-.002.003-.002.003-.001.003-.002.004-.002.003-.002.003-.001.003-.002.004-.002.003-.001.003-.002z"/><path id="_443451512" class="fil1" d="m3.02 3.858 3.787 3.786h-.004l-.002.001h-.003l-.002.001h-.002L3.008 3.86h.005l.002-.001h.004v-.001z"/><path id="_443451128" class="fil1" d="m3.633 4.204 3.786 3.787-.003.005L7.413 8l-.003.005-.004.006-.003.005-.004.005-.004.005-.004.005-.004.005-.004.004-.004.004-.004.004-.004.003-.003.003-.003.002-.003.002-3.786-3.786.003-.002.003-.002.003-.003.004-.003.004-.004.003-.004.004-.005.004-.004.004-.005.004-.005.004-.005.004-.006.004-.005.003-.005.003-.005z"/><path id="_443450960" class="fil1" d="m3.008 3.86 3.786 3.786.001.002.001.002v.002l.001.001-3.786-3.786v-.002H3.01v-.002l-.001-.001V3.86z"/><path id="_443450936" class="fil1" d="M3.526 4.302 7.312 8.09l-.003.002-.004.003-.003.003L7.3 8.1l-.003.003-.003.003-.003.003-.003.003-.003.003-.003.003-.003.003-.002.003-.003.003-.003.003-.004.003-.003.002L3.477 4.35l.003-.003.003-.003.003-.003.003-.003.003-.003.003-.003.003-.003.003-.003.003-.003.003-.003.003-.003.003-.003.003-.002.003-.003.003-.003z"/><path id="_443451008" class="fil1" d="m2.946 3.876 3.786 3.786-.001.001-.002.002h-.001l-.002.002h-.003l-.002.001h-.003L2.932 3.882h.005l.001-.001h.002l.002-.002h.001l.002-.002z"/><path id="_443451296" class="fil1" d="m2.938 3.89 3.786 3.786h-.02l-.003-.002h-.004l-.004-.002-.004-.001-.003-.002h-.004l-.003-.002-.004-.001-.003-.001H6.67L2.883 3.877h.003l.003.002h.003l.004.002.004.001.003.001.004.002h.004l.003.002h.004l.004.002H2.935z"/><path id="_443452184" class="fil1" d="m3.477 4.35 3.786 3.785-.003.003-.004.003-.004.003-.003.003-.004.002-.004.003-.003.003-.004.002-.003.003-.004.003-.003.003-.004.003-.003.003-.003.003-.003.003-.003.004L3.42 4.396l.003-.004.004-.003.003-.004.003-.003.003-.003.004-.003.003-.002.004-.003.003-.003.004-.002.004-.003.003-.003.004-.002.004-.003.003-.003z"/><path id="_443451776" class="fil1" d="m2.853 3.9 3.786 3.786h-.004l-.001-.001h-.003L2.845 3.897h.002l.002.001h.003z"/><path id="_443451896" class="fil1" d="M3.828 4.562 7.614 8.35v.004l-.002.005v.004l-.002.005v.004l-.002.005-.001.004-.001.004-.002.005-.001.004-.001.004-.002.005-.002.004-.001.004-.002.004-.001.004-.002.004-.002.005-.002.004-.002.004-.001.004-.002.004-.002.004-.002.004-.002.004-.002.004-.002.005-.002.004-.001.004-.002.004-.002.004-.002.004-3.786-3.786.002-.004.001-.004.002-.004.002-.005.002-.004.002-.004.002-.004.002-.004.002-.004.002-.004.001-.004.002-.004.002-.005.002-.004.002-.004.001-.004.002-.004.002-.004.001-.004.002-.005.001-.004.002-.004.001-.004.001-.005.002-.004.001-.005.001-.004.001-.004.001-.005.001-.004.001-.005z"/><path id="_443451800" class="fil1" d="m2.846 3.899 3.786 3.786.001.001.001.001.001.002.002.002v.001l.002.001-3.786-3.786-.001-.001-.001-.001-.001-.002h-.001L2.848 3.9 2.847 3.9z"/><path id="_443451656" class="fil1" d="m2.853 3.907 3.786 3.786-.005-.002-.004-.002-.004-.003-.004-.002-.004-.003-.005-.003-.004-.003-.005-.002-3.786-3.786.005.002.004.003.004.002.005.003.004.003.004.003.004.002z"/><path id="_443451848" class="fil1" d="m2.818 3.887 3.786 3.786-.004-.001-.003-.001-.005-.002h-.004l-.004-.002-.005-.001-.004-.001-.004-.001-3.786-3.786h.004l.004.002h.004l.005.002.004.001.004.001.004.002z"/><path id="_443452232" class="fil1" d="M2.796 3.885 6.582 7.67l.003.003.002.003.003.003.002.004.001.003.002.003.001.004.002.003.001.004.002.004.001.003.002.003.001.003L2.82 3.928l-.002-.003-.001-.003-.002-.004-.001-.003-.001-.004-.002-.003-.001-.004-.002-.003-.002-.004-.002-.003-.002-.003-.002-.003z"/><path id="_443451920" class="fil1" d="m2.707 3.88 3.787 3.787.003.004.003.003.003.004-3.786-3.786-.003-.004-.003-.004z"/><path id="_443452088" class="fil1" d="m3.421 4.396 3.787 3.786-.004.004-.003.005-.003.004-.003.005-.003.004-.003.005-.003.005-.002.004-.003.005-.003.005-.002.005-.003.005-.003.005-.002.004-.002.005-.003.005-3.786-3.786.002-.005.003-.005.002-.005.003-.005.002-.004.003-.005.003-.005.002-.005.003-.005.003-.004.003-.005.003-.005.003-.004.003-.005.003-.004z"/><path id="_443452160" class="fil1" d="m3.711 4.717 3.786 3.786-.004.001-.004.002-.004.001-.004.002-.004.002-.004.001-.004.002-.004.001-.004.002-.004.001-.004.001-.005.001h-.004l-.004.001h-.01L3.644 4.735H3.658l.004-.001.004-.001.005-.001.004-.002.004-.001.004-.002.004-.001.004-.002.004-.001.004-.002.004-.002.004-.001z"/><path id="_443452256" class="fil1" d="M1.665 2.845 5.452 6.63l-.005-.005-.005-.004-.005-.004-.003-.003-.004-.003-.003-.003-.003-.002-3.786-3.786.003.002.003.003.003.003.004.003.005.004.004.004z"/><path id="_443452856" class="fil1" d="m2.717 3.892 3.786 3.786-.004-.001-.004-.002-.004-.002-.004-.002-.004-.002-.004-.002-.004-.001-.004-.002-3.787-3.786.005.001.004.002.004.002.004.002.004.002.004.001.004.002z"/><path id="_443452784" class="fil1" d="m1.904 3.15 3.787 3.787H5.69v-.001h-.002v-.001h-.001v-.001h-.002v-.001L1.898 3.147H1.9l.002.001h.001v.001h.002z"/><path id="_443452424" class="fil1" d="m1.898 3.147 3.787 3.786h-.001l-.001-.001h-.001V6.93H5.68V6.93h-.001L1.892 3.142h.001l.001.001.002.001.001.001z"/><path id="_443452592" class="fil1" d="M1.892 3.143 5.68 6.93l-.007-.004-.006-.003-.005-.004-.005-.003-.005-.003-.005-.003-.004-.003-.004-.002-.005-.003-.004-.003-.005-.002-.004-.003-.006-.003-.005-.003-.006-.003-.007-.004L1.81 3.094l.006.003.006.004.006.003.005.002.005.003.005.003.004.003.004.002.005.003.004.003.005.003.004.003.005.003.006.003.006.004z"/><path id="_443452472" class="fil1" d="m2.699 3.89 3.786 3.786-.004-.002-.003-.001-.004-.002-.004-.001-.004-.001-.004-.001-.003-.001h-.004L2.668 3.88h.004l.004.001.004.001.004.002.004.001.003.001.004.002z"/><path id="_443452640" class="fil1" d="M2.703 3.903 6.489 7.69h-.007l-.006-.002-.007-.001-.006-.002-.006-.002-.007-.003-.006-.002-.006-.002-.007-.003-.006-.002-.006-.002-.007-.002-.006-.001-.007-.001H6.386L2.6 3.877H2.613l.007.001.006.002.006.001.007.003.006.002.006.002.007.003.006.002.006.003.007.002.006.001.006.002h.007z"/><path id="_443452880" class="fil1" d="m2.766 3.927 3.787 3.787v.029l-.002.004v.004l-.001.004-.002.004v.004l-.002.003-.001.002-.002.002-3.786-3.786.001-.002.002-.003.001-.003.001-.003.001-.004.001-.004.001-.004v-.004l.002-.005V3.93z"/><path id="_443452688" class="fil1" d="M2.774 3.934 6.56 7.72l-.002-.001-.001-.001-.001-.001-.002-.001L2.768 3.93h.001l.002.001v.001l.002.001z"/><path id="_443452712" class="fil1" d="m3.34 4.528 3.786 3.786-.003.002-.003.002-.003.001-.003.001-.003.001-.003.001-.004.001-.003.001h-.003l-.003.001-.003.001-.003.001-.003.001-.003.001-.003.002-.003.001-3.786-3.786.003-.002.002-.001.003-.001.003-.001.003-.001h.003l.004-.002h.003l.003-.001h.003l.004-.002h.003l.003-.002.003-.001.003-.002z"/><path id="_443453096" class="fil1" d="m2.775 3.925 3.787 3.786v.01L2.774 3.935v-.008z"/><path id="_443453360" class="fil1" d="M1.81 3.094 5.596 6.88 1.808 3.093z"/><path id="_443453432" class="fil1" d="m2.623 3.887 3.786 3.786h-.003l-.002.001h-.008l-.002.001h-.005L2.603 3.89h.012l.003-.001h.002z"/><path id="_443453144" class="fil1" d="m2.604 3.89 3.787 3.787v.001l.002.001v.001L2.609 3.894l-.002-.001v-.001z"/><path id="_443453312" class="fil1" d="m2.611 3.897 3.786 3.786-.005.003-.004.005-.004.005-.003.005-.001.007-.002.006v.068L2.59 3.995V3.99l.001-.006v-.028L2.59 3.95v-.014l.001-.007.001-.007.002-.006.003-.006.003-.005.005-.004z"/><path id="_443420984" class="fil1" d="M3.212 4.574 6.998 8.36l-.012-.002L3.2 4.57z"/><path id="_443421272" class="fil1" d="M2.57 3.992 6.358 7.78l.001.003.001.004v.003l.001.004v.014l.001.003v.007l.001.004.001.003.001.004.002.003.002.004-3.786-3.786-.002-.004-.002-.004-.001-.003-.001-.004v-.003l-.001-.004V4.01l-.001-.004v-.003l-.001-.004-.001-.003z"/><path id="_443420888" class="fil1" d="M2.572 3.994 6.36 7.78h-.001L2.57 3.992h.001z"/><path id="_443421320" class="fil1" d="m2.582 4.049 3.786 3.786-.003-.002L2.58 4.046z"/><path id="_443421632" class="fil1" d="m3.14 4.56 3.786 3.786-.005-.001-.004-.002-.005-.001-.004-.001-.005-.002-.004-.001-.004-.002-.005-.002-3.786-3.786.004.002.005.001.004.002.005.001.004.002.005.001.004.001z"/><path id="_443421560" class="fil1" d="M3.104 4.548 6.89 8.334l-.005-.003-.005-.003L3.094 4.54l.004.004z"/><path id="_443421512" class="fil1" d="m3.141 4.56 3.787 3.786h-.002L3.14 4.56z"/><path id="_443421368" class="fil1" d="m2.525 4.09 3.787 3.786-.002.003-3.786-3.787z"/><path id="_443421128" class="fil1" d="M2.524 4.092 6.31 7.88 2.524 4.094z"/><path id="_443421416" class="fil1" d="M2.524 4.093 6.31 7.88v.003l-.001.001v.002l-.001.001v.003l-.001.002L2.52 4.106v-.007l.001-.001v-.002l.001-.001z"/><path id="_443421584" class="fil1" d="M1.885 3.513 5.67 7.299 5.67 7.3h-.001v.001L1.881 3.516h.001v-.001h.001v-.001z"/><path id="_443422160" class="fil1" d="m2.278 4.065 3.786 3.786v.002l-.001.001-.001.002-.001.001v.001L2.273 4.072V4.07h.001v-.001l.001-.001.001-.001v-.001z"/><path id="_443421704" class="fil1" d="M2.274 4.072 6.06 7.858l-.002.004-.002.004-.002.004-.002.004-.002.003-.001.004-.002.004-.002.004-.002.004-.001.004-.002.004-.002.004-.001.004-.002.003-.001.004-.002.004-.001.004-.002.004-.001.004-.002.004-.001.004-.002.004-.001.004-.001.004-.002.005-.001.004-.001.004-.002.004-.001.004-.002.004v.004l-.002.004-3.787-3.786.002-.005.001-.004.002-.004v-.004l.002-.004.002-.004.001-.004.001-.004.002-.004.001-.004.002-.004.001-.004.001-.004.002-.004.001-.004.002-.004.001-.004.002-.004.001-.004.002-.004.002-.004.001-.004.002-.003.002-.004.001-.004.002-.004.002-.004.002-.004.002-.004.002-.003.002-.004z"/><path id="_443422400" class="fil1" d="M2.223 4.199 6.01 7.985l-.002.005-.002.006-.002.006-.002.005L6 8.013l-.002.006-.002.005-.002.006-.002.006-.001.006-.002.006-.002.005-.002.006-.002.006-.002.006-.002.006-.002.006-.001.005-.002.006-.002.006-.001.006-.002.006-.001.006-.002.006-.001.006-.002.006-.001.005-.001.006-.001.006-.002.006v.006l-.001.006L2.17 4.384l.001-.005.001-.006.001-.006.001-.006.002-.006.001-.006.001-.006.002-.005.001-.006.002-.006.001-.006.002-.006.002-.006.001-.006.002-.006.002-.006.002-.005.002-.006.002-.006.001-.006.002-.006.002-.006.002-.005.002-.006.002-.006.002-.006.002-.005.002-.006.002-.006.002-.005.002-.006z"/><path id="_443422112" class="fil1" d="m2.033 4.317 3.786 3.786-3.786-3.785z"/><path id="_443422304" class="fil1" d="m2.17 4.384 3.787 3.787-.001.004v.004l-.001.004-.001.004v.004l-.002.005V8.2l-.001.004v.004l-.001.004-.001.004v.004l-.002.005v.004l-.001.004v.004l-.002.004v.004l-.001.004-.001.005v.004l-.002.004v.004l-.001.004-.001.004v.004l-.002.004v.004l-.001.004-.001.005-.001.004v.004L2.145 4.516v-.004l.002-.004v-.004L2.15 4.5l.001-.004v-.004l.002-.004v-.004l.001-.004.001-.005v-.004l.002-.004v-.004l.001-.004.001-.004V4.45l.002-.004v-.005l.001-.004v-.004l.002-.004v-.004l.001-.004v-.004l.001-.005.001-.004v-.004l.002-.004v-.008l.002-.004z"/><path id="_443421896" class="fil1" d="M2.374 4.663 6.16 8.449l-.005.001H6.14l-.005-.002H6.13l-.004-.002H6.12L2.334 4.66h.01l.005.002h.005l.005.002h.01z"/><path id="_443421776" class="fil1" d="m2.334 4.66 3.787 3.786h-.004l-.004.002-.004.002-.004.002-.003.001-.004.002-.004.001-.004.001-3.787-3.786h.005l.004-.002.004-.002.003-.002.004-.002.003-.001.004-.001z"/><path id="_443421968" class="fil1" d="m2.146 4.516 3.786 3.787-.001.006-.002.005-.003.006-.002.005-.004.005-.004.004-.005.004-.005.004L2.12 4.555l.005-.003.005-.004.004-.004.003-.005.003-.005.003-.006.001-.006z"/><path id="_443421728" class="fil1" d="m2.07 4.563 3.785 3.786h-.004l-.004.001h-.004l-.004.002h-.004l-.003.001h-.004l-.003.002H5.82l-.003.002-.004.001-.003.002-.004.001-.003.002-.004.002-.004.002L2.01 4.58l.004-.003.003-.001.004-.002.004-.002.003-.001.003-.001.004-.001.003-.001.004-.001.003-.001.004-.001h.004l.004-.001.004-.001h.004z"/><path id="_443422040" class="fil1" d="m2.12 4.555 3.786 3.787h-.002l-.003.002h-.003l-.004.002-.004.001-.004.002h-.004l-.004.002h-.004l-.004.001h-.012l-.002-.002L2.07 4.564l.002.001h.002l.003.001h.011l.004-.002h.004l.004-.002h.004l.004-.002.003-.001.004-.002h.002z"/><path id="_443422136" class="fil1" d="M2.014 3.743 5.8 7.529v.006l-.001.002v.004L2.011 3.754V3.75l.001-.002v-.005z"/><path id="_443422880" class="fil1" d="m2.462 4.339 3.786 3.786-.002.004v.004l-.002.004-.001.004-.002.004v.004l-.002.004v.004l-.002.004v.004l-.002.004v.004l-.001.005v.004l-.002.004v.008l-.001.004-.001.004v.004l-.001.004v.008l-.001.004V8.231l-.001.004V8.244l-.001.004V8.257L2.438 4.47V4.457l.001-.004v-.008l.001-.005v-.008l.001-.004v-.004l.001-.004v-.004l.001-.005v-.004l.002-.004v-.008l.002-.004v-.004l.001-.004.001-.004.001-.004.001-.004.001-.004.001-.004.001-.004.001-.004.002-.004v-.004l.002-.004z"/><path id="_443422736" class="fil1" d="m2.44 4.47 3.785 3.787V8.315l.001.007v.007l.001.007v.014l.001.008v.007l.001.007-3.786-3.786v-.007l-.001-.008v-.014L2.44 4.55v-.007l-.001-.008v-.014l-.001-.007V4.478z"/><path id="_443422928" class="fil1" d="m2.443 4.586 3.786 3.786v.015l-.001.004-.001.004-.001.004-.002.003-.001.004-.002.003-.003.003-.003.003-.002.003-.004.003-.003.002-.004.003-.005.003-3.786-3.786.004-.003.004-.003.004-.003.003-.003.003-.003.003-.003.002-.003.002-.003.002-.003.002-.004V4.61l.002-.004V4.59z"/><path id="_443422832" class="fil1" d="M2.303 4.67 6.09 8.458H6.08l-.005-.002H6.07l-.006-.002-.004-.001-.005-.001-.003-.001-3.787-3.787.004.001.004.001.005.002.005.001.006.001.005.001h.004z"/><path id="_443422952" class="fil1" d="M2.266 4.663 6.053 8.45l-.006-.002h-.005l-.005-.002-.005-.001-.005-.002-.005-.001-.005-.002-.004-.001-.005-.002-.004-.002L6 8.433l-.005-.003-.004-.003-.004-.003-.004-.003-.005-.004-3.786-3.786.004.004.005.003.004.003.004.003.004.002.005.003.004.002.005.002.004.001.005.002.005.001.004.001.005.002.006.001.005.001z"/><path id="_443422640" class="fil1" d="m2.192 4.631 3.786 3.786-.005.003-.006.002h-.012L5.95 8.42l-.005-.002-.006-.003-.005-.004-3.786-3.786.005.003.005.004.006.002.006.001.006.001h.006l.005-.002z"/><path id="_443422544" class="fil1" d="m2.01 4.58 3.786 3.787-.003.002-.004.001-.004.001H5.78l-.005.001H5.763L1.977 4.584h.021l.004-.001.004-.002z"/><path id="_443422784" class="fil1" d="m1.976 4.585 3.786 3.786H5.753l-.004-.001h-.006l-.003-.001h-.003L1.95 4.582h.003l.003.001h.006l.003.001h.007z"/><path id="_443423048" class="fil1" d="m1.977 4.585 3.786 3.786-3.787-3.785z"/><path id="_443423168" class="fil1" d="M1.95 4.582 5.738 8.37h-.011l-.003-.001h-.004l-.003-.001h-.004l-.003-.001-.004-.001-.003-.001-.004-.001-.003-.002-.003-.001-.004-.002-.003-.001-.002-.002-3.787-3.787.003.002.003.002.003.002.004.001.003.001.003.001.004.001.003.001.004.001h.003l.004.001h.007l.004.001h.003z"/><path id="_443423240" class="fil1" d="m1.879 4.551 3.786 3.786-.003-.002-.003-.001-3.786-3.786.003.001z"/><path id="_443423816" class="fil1" d="m1.896 4.568 3.787 3.787-.004-.003-3.786-3.786z"/><path id="_443423768" class="fil1" d="m1.872 4.547 3.786 3.786H5.65l-.002.002-.002.001-.002.002-.002.002-3.786-3.787.002-.002.002-.001.002-.002h.004l.001-.001h.002z"/><path id="_443423864" class="fil1" d="m1.873 4.548 3.786 3.786-3.787-3.786z"/><path id="_443423216" class="fil1" d="M2.411 4.643 6.197 8.43l-.004.003-.004.003-.005.003-.004.003-.005.003-.005.002-.005.002-.005.001-3.786-3.786.005-.002.005-.001.005-.003.004-.002.005-.003.005-.003.004-.003z"/><path id="_443423504" class="fil1" d="m2.021 3.746 3.786 3.786v.002l.001.002v.007l.001.002v.001L2.023 3.76v-.007l-.001-.002v-.003z"/><path id="_443423288" class="fil1" d="m1.963 3.67 3.786 3.786-.005-.004-.005-.005-3.786-3.786.005.004z"/><path id="_443423576" class="fil1" d="M1.905 3.593 5.69 7.379l-.003-.002-.003-.002H5.68L1.893 3.587H1.9l.003.003z"/><path id="_443423192" class="fil1" d="m1.911 3.506 3.787 3.786h-.005l-.004.002-.004.002-.004.003-.004.003-.004.003-.004.003-.004.002-3.786-3.786.003-.003.004-.002.004-.003.004-.004.004-.002.005-.003.004-.001z"/><path id="_443423624" class="fil1" d="m1.915 3.548 3.786 3.786-.002.001-.002.002-.003.002-.002.001-.003.002-.002.001-.003.002-.002.001L1.895 3.56l.003-.002h.003l.002-.002.003-.002.002-.002.002-.001.003-.002z"/><path id="_443423672" class="fil1" d="M2.514 4.162 6.3 7.95l-.002.005-.002.005-.002.006-.002.005-.002.006-.002.005-.001.005-.002.006-.001.005-.002.006-.002.006-.001.005-.002.006-.001.005-.001.006-.002.005-.001.006-.002.005-.001.006-.002.006-.001.005-.002.006-.001.005-.002.006-.001.005-.002.006-.001.005-.002.006-.002.005-.001.006-.002.005-.002.006-3.786-3.786.001-.006.002-.005.002-.006.002-.005.001-.006.002-.005.002-.006.001-.005.002-.006.001-.006.002-.005.001-.006.002-.005.001-.006.001-.005.002-.006.001-.006.002-.005.001-.006.002-.005.001-.006.002-.005.001-.006.002-.005L2.5 4.2l.001-.005.002-.006.002-.005.002-.006.002-.005.002-.005z"/><path id="_443423984" class="fil1" d="m2.52 4.106 3.787 3.786v.011l-.001.003v.018l-.001.004v.003l-.001.003v.004l-.002.004v.003L6.3 7.95 2.514 4.162V4.16l.002-.004v-.003l.002-.004v-.01l.001-.004v-.017l.001-.004v-.004z"/><path id="_443424224" class="fil1" d="m3.198 4.571 3.787 3.786h-.008l-.003-.001-.004-.001h-.003l-.004-.001-.003-.001h-.004l-.004-.001-.003-.001h-.004l-.003-.002h-.004l-.003-.001H6.93l-.003-.002L3.14 4.56h.004l.003.002h.004l.003.001.004.001h.004l.003.001.004.001h.003l.004.001.003.001h.004l.004.001h.003l.004.002z"/><path id="_443424248" class="fil1" d="m3.377 4.47 3.786 3.787-.002.004-.002.004-.001.004-.002.004-.002.004-.002.003-.002.004-.002.004-.002.004-.002.003-.003.004-.002.003-.003.004-.003.003-.003.003-.004.002L3.34 4.528l.003-.003.004-.003.003-.003.002-.003.003-.003.002-.004.003-.004.002-.003.002-.004.002-.004.002-.004.002-.004.001-.004.002-.003.002-.004z"/><path id="_443424296" class="fil1" d="m3.61 4.725 3.786 3.787h-.007l-.004.001-.004.001-.004.001h-.005l-.004.001h-.004L3.577 4.73H3.586l.004-.001.004-.001.004-.001.004-.001h.004z"/><path id="_443424080" class="fil1" d="M3.512 4.69 7.3 8.475l-.008-.001-.006-.003-.006-.004-3.786-3.786.005.004.007.003z"/><path id="_443424368" class="fil1" d="m3.577 4.73 3.787 3.786H7.36l-.005-.002-.004-.001-.005-.002-.005-.002-.006-.002-.005-.002-.005-.003L7.32 8.5l-.005-.003-.004-.003-.004-.004-3.786-3.786.004.003.004.003.005.003.005.003.005.003.005.002.005.002.006.002.005.001.004.002h.005z"/><path id="_443424488" class="fil1" d="m3.291 4.546 3.786 3.786-.004.004-.004.004-.004.004-.003.005-.003.004-.004.004-.005.004-.006.002-3.786-3.786.006-.003.004-.003.004-.004.004-.004.003-.005.004-.004.004-.005z"/><path id="_443424344" class="fil1" d="m3.2 4.571 3.786 3.787-3.787-3.786z"/><path id="_443424656" class="fil1" d="m3.258 4.577 3.786 3.786-.003.001h-.003l-.003.001h-.017l-.003-.001-.003-.001H7.01l-.002-.001-.003-.001H7l-.003-.001-3.786-3.786h.005l.003.001.003.001h.003l.003.001.003.001h.005l.003.001h.012l.003-.001z"/><path id="_443424560" class="fil1" d="M3.644 4.735 7.43 8.52h-.004l-.005-.002-.004-.002-.004-.001-.004-.002-.005-.001-.004-.001h-.004L3.61 4.725h.004l.004.002.004.001.005.002.004.001.004.002h.005z"/><path id="_443425064" class="fil1" d="m3.778 4.698 3.786 3.786H7.56l-.004.002h-.004l-.004.002h-.005l-.004.002-.004.001-.004.001-.005.002-.004.001-.004.002h-.004l-.005.002-.004.002h-.004l-.004.002-3.786-3.786.004-.002h.004l.004-.002.004-.001.005-.002.004-.001.004-.001.004-.002.005-.001.004-.001.004-.002h.004l.004-.002h.005l.004-.001z"/><path id="_443424920" class="fil1" d="m1.776 2.222 3.786 3.786.004.004.003.003.003.004.003.003.002.003.003.003.002.003.003.003-3.787-3.786-.002-.003-.002-.003-.003-.003-.003-.003-.002-.003-.003-.004-.004-.003z"/><path id="_443425136" class="fil1" d="m1.798 2.248 3.787 3.786.004.006.005.006.005.006.005.006.005.006.005.006.005.006.004.006.005.006.005.007.004.006.005.006.004.006.005.007.004.006.005.006-3.787-3.786-.004-.006-.004-.007-.005-.006-.004-.006-.005-.006-.005-.007-.004-.006-.005-.006-.005-.006-.004-.006-.005-.006-.005-.006-.005-.006-.005-.006-.005-.006z"/><path id="_443425040" class="fil1" d="M1.873 2.346 5.66 6.132l.003.005.003.006.004.005.003.006.003.006.003.006.003.006.003.006.002.006.003.006.003.006.002.007.003.006.002.006.003.006.002.005L1.92 2.44l-.002-.006-.003-.006-.002-.006-.003-.006-.002-.006-.003-.006-.003-.006-.003-.006-.002-.006-.003-.006-.003-.006-.003-.006-.004-.006-.003-.005-.003-.006z"/><path id="_443424728" class="fil1" d="m2.168 2.565 3.786 3.786.002.004.002.004.001.003.001.002.002.002v.001L2.177 2.581v-.002l-.002-.001-.001-.003-.002-.002-.001-.004z"/><path id="_443425112" class="fil1" d="M3.874 4.401 7.66 8.187l-.001.006-.001.005-.002.005-.001.005-.001.005-.002.005-.001.005-.002.005-.002.005-.001.005-.002.004-.002.005-.001.005-.002.005-.002.005-.002.006L3.849 4.48l.002-.005.001-.005.002-.005.002-.005.002-.005.002-.005.001-.005.002-.005.001-.004.002-.005.001-.005.002-.005.001-.005.001-.005.002-.006z"/><path id="_443425352" class="fil1" d="m3.849 4.481 3.786 3.787-.002.005-.002.005-.002.005-.001.005-.002.005-.001.005-.002.005-.001.005-.001.005-.001.005-.001.005-.001.005-.001.005-.001.005-.001.005-.001.006-3.786-3.787v-.005l.001-.005.001-.005.001-.006.001-.005.001-.005.002-.005v-.005l.002-.005.001-.005.002-.005.001-.005.002-.005.002-.005.002-.005z"/><path id="_443425160" class="fil1" d="m3.923 4.306 3.786 3.786-.004.006-.003.006-.004.005-.003.006-.004.006-.003.005-.004.006-.003.006-.003.006-.004.006-.003.006-.002.006-.003.006-.002.006-.002.007-.002.006-3.786-3.786.001-.006.002-.007.003-.006.002-.006.003-.006.003-.006.003-.006.004-.006.003-.006.004-.006.003-.005.004-.006.003-.006.004-.006.003-.005z"/><path id="_443425448" class="fil1" d="m4.84 4.45 3.787 3.786.002.004.004.004-3.786-3.786-.004-.004z"/><path id="_443424776" class="fil1" d="M3.412 2.974 7.198 6.76l-.002.001-.003.001-.002.001-.002.001-.002.002h-.002l-.002.002H7.18L3.394 2.983h.002l.002-.002h.003l.002-.002h.002l.002-.002.002-.001z"/><path id="_443426216" class="fil1" d="M2.674 2.31 6.46 6.096V6.136l.001.003v.01L2.676 2.362v-.016l-.001-.003v-.03z"/><path id="_443425832" class="fil1" d="m3.307 2.948 3.786 3.786-.005.002-.005.002-.006.002-.005.002-.005.001-.005.003-.005.002-.005.003-3.786-3.786.005-.003.005-.003.005-.002.005-.002.005-.002.005-.001.006-.002z"/><path id="_443426048" class="fil1" d="m3.301 2.96 3.787 3.786-.004.003-.004.002-.004.003-.003.002-.004.002-.004.003-.004.002-.004.002L3.27 2.979l.004-.002.004-.003.003-.002.004-.002.004-.003.004-.002.004-.003z"/><path id="_443426096" class="fil1" d="M4.663 4.448 8.45 8.235l-.002-.003-.003-.002-.003-.003-.003-.001L4.65 4.439l.003.002.004.002.002.003z"/><path id="_443425856" class="fil1" d="m4.276 4.275 3.786 3.786V8.074l.001.004v.003l.002.003v.003l.002.003v.003l.002.003.001.004.002.003v.003l.002.003.001.003-3.786-3.787-.001-.003-.002-.003v-.003l-.002-.003-.001-.003-.001-.003-.002-.003v-.003l-.002-.003v-.003l-.001-.004v-.003l-.001-.003v-.007z"/><path id="_443425928" class="fil1" d="m4.387 4.385 3.786 3.786-.002-.001-.002-.002-.002-.001-.002-.002h-.003L4.376 4.377l.003.001.002.001.002.002.002.001z"/><path id="_443426240" class="fil1" d="M3.97 4.204 7.756 7.99V8.008l-.002.005-.002.006-.001.005-.003.005-.002.005-.003.005-.003.005-.003.005-.003.005-.003.005-.003.004-.003.005-.004.005-3.786-3.786.003-.005.004-.005.003-.005.003-.004.003-.005.003-.005.003-.005.003-.005.002-.005.002-.005.002-.006.002-.005V4.22l.002-.005V4.21z"/><path id="_443425496" class="fil1" d="m2.505 2.868 3.787 3.786L2.504 2.87v-.001z"/><path id="_443425664" class="fil1" d="m3.935 4.287 3.786 3.786-.001.002-.002.003-.002.002-.001.002-.002.003-.001.002-.002.003-.001.002-3.786-3.786.001-.003.002-.002.001-.002.002-.003.001-.002.002-.003.001-.002z"/><path id="_443425952" class="fil1" d="M4.209 4.293 7.995 8.08v.008L4.209 4.303v-.008z"/><path id="_443426072" class="fil1" d="M4.215 4.298 8 8.085l-.002-.002-.002-.002-.002-.002-3.786-3.786.002.002.002.001z"/><path id="_443426600" class="fil1" d="m4.217 4.29 3.786 3.786v.002l.002.002v.003l.001.002v.002l.001.003.001.002v.003L4.222 4.309v-.005L4.22 4.3 4.22 4.3v-.003l-.002-.002v-.002z"/><path id="_443426480" class="fil1" d="m4.376 4.33 3.787 3.786v.02l.002.004v.004l.002.004v.003l.002.004.001.004.002.003.001.004.002.004.001.004.002.004L4.39 4.39l-.001-.004-.002-.003-.001-.004-.001-.004-.002-.004-.001-.003-.002-.004V4.36l-.002-.003v-.004l-.001-.004-.001-.004v-.012z"/><path id="_443426840" class="fil1" d="m4.289 4.325 3.786 3.787-.001-.002h-.002l-.001-.002h-.002l-.001-.002h-.001l-.002-.002h-.001L4.278 4.316v.001l.002.001.002.001.001.001.002.001.001.001.001.001z"/><path id="_443426624" class="fil1" d="m4.278 4.317 3.786 3.786v.002l.001.001.001.002v.002l.001.002v.002l.001.002.001.001-3.786-3.786V4.33l-.002-.001v-.004l-.001-.002V4.32l-.002-.002z"/><path id="_443426576" class="fil1" d="m4.406 4.366 3.787 3.786-.005-.004-3.786-3.786z"/><path id="_443426720" class="fil1" d="m4.46 4.41 3.786 3.786-.003-.002-.004-.003-.004-.003-.003-.002-.003-.003-.004-.003-.003-.002-.003-.003-.004-.003-.003-.003-.003-.003-.003-.002-.003-.003-.004-.003-.003-.003-.003-.003-3.787-3.786.004.003.003.003.003.003.003.002.004.003.003.003.003.003.003.003.004.002.003.003.003.003.004.002.003.003.004.003.003.002z"/><path id="_443426768" class="fil1" d="m4.376 4.378 3.786 3.786.001.002v.002l.001.002v.004l.001.002v.003L4.38 4.393V4.384l-.001-.003-.001-.001z"/><path id="_443426864" class="fil1" d="m4.283 4.331 3.786 3.786-.003-.003-.003-.003-.004-.003-.003-.003-.003-.003-.004-.003-.003-.003-.003-.003-.004-.003-3.786-3.786.003.003.004.003.003.003.003.003.004.003.003.003.003.003.004.003z"/><path id="_443426936" class="fil1" d="m4.38 4.393 3.785 3.786-.004-.002-.005-.003-.005-.003-.005-.004-.004-.004-.005-.004-3.786-3.786.005.004.004.004.005.003.004.004.005.002z"/><path id="_443427680" class="fil1" d="M4.575 4.444 8.361 8.23l-.002-.002-.003-.002-.003-.002-.003-.003-.002-.002-.003-.002-.003-.002-.003-.002-.003-.002-.003-.002-.003-.002-.002-.002-.004-.002-.003-.002-.003-.001-.003-.002L4.53 4.412l.003.002.003.001.003.002.003.002.003.001.003.002.003.002.003.002.003.003.003.002.002.002.003.002.003.002.003.003.002.002z"/><path id="_443427152" class="fil1" d="m4.583 4.45 3.786 3.786h-.001l-.001-.001-.002-.001v-.001h-.002V8.23h-.001L4.575 4.444l.001.001h.001l.001.002.002.001.002.001z"/><path id="_443427080" class="fil1" d="m4.66 4.49 3.787 3.785-.005-.001-.005-.002-.005-.002-.006-.002-.005-.002-.005-.002-.005-.002-.005-.003-.005-.002-.005-.003-.005-.003-.004-.002-.005-.003-.004-.003-.005-.003-.004-.004L4.583 4.45l.004.003.004.003.005.003.004.003.005.003.005.003.005.003.005.002.005.002.005.003.005.002.005.002.005.002.005.002.005.002z"/><path id="_443427536" class="fil1" d="M4.782 4.517 8.57 8.303l-.006-.001-.005-.001-.006-.002-.006-.001-.005-.002-.006-.002-.006-.001-.006-.002-.005-.003-.006-.002-.005-.002L8.5 8.28l-.005-.002-.005-.003-.005-.003-.005-.003-3.786-3.786.005.003.005.003.005.002.005.003.005.003.006.002.006.002.005.002.006.002.006.002.005.002.006.001.006.002.005.001.006.002z"/><path id="_443427104" class="fil1" d="M4.695 4.484 8.481 8.27l-.003-.002-.003-.003-.003-.003-3.786-3.786.003.003.003.002z"/><path id="_443427344" class="fil1" d="m3.31 2.97 3.786 3.787-.002.001-.002.001-.002.002h-.002l-.003.002h-.002l-.002.002h-.002L3.292 2.98h.003l.002-.002h.002l.002-.002h.002l.003-.002.002-.001z"/><path id="_443427320" class="fil1" d="M4.75 4.443 8.536 8.23l.002.003.002.003.002.003.001.003.002.003.002.003.002.003.001.003.002.003.002.004.002.003.002.003.002.003.002.003.003.003.002.003-3.786-3.787-.003-.003-.002-.003-.002-.003-.002-.003-.002-.003-.002-.003-.002-.003-.002-.003-.002-.003-.001-.003-.002-.003-.002-.004-.002-.003-.002-.003-.001-.003z"/><path id="_443427440" class="fil1" d="m3.426 2.98 3.786 3.786H7.21l-.001.001h-.001l-.001.002h-.002l-.001.001-3.786-3.786.001-.001h.001l.001-.001.001-.001h.001l.001-.001z"/><path id="_443427488" class="fil1" d="m5.043 4.462 3.786 3.786.003.004.003.004L5.05 4.47l-.003-.004z"/><path id="_443427584" class="fil1" d="m5.076 4.486 3.786 3.786H8.86l-.003-.001h-.004L8.85 8.27l-.004-.001h-.003l-.003-.002h-.004L5.05 4.48h.007l.003.002h.003l.004.001h.003l.004.001z"/><path id="_443427632" class="fil1" d="m4.197 3.641 3.787 3.787.002.006.002.005.003.006.003.005.003.006L8 7.46l.003.005.004.005.003.004.004.005.004.005.003.005.004.005.004.005.003.005.004.005L4.25 3.724l-.004-.006-.004-.005-.003-.005-.004-.004-.004-.005-.003-.005-.004-.005-.003-.005-.004-.005-.003-.005-.003-.005-.003-.005-.003-.005-.003-.006-.002-.006z"/><path id="_443428112" class="fil1" d="m5.065 4.488 3.787 3.787h-.004l-.003-.002H8.84l-.003-.001-.004-.001h-.003l-.004-.001h-.003L5.037 4.484h.011l.003.001.004.001.003.001h.004z"/><path id="_443427800" class="fil1" d="M4.25 3.724 8.036 7.51l.004.005.004.006.004.006.003.005.004.006.004.006.004.005.004.006.004.005.005.005.004.005.005.005L4.298 3.79l-.004-.005-.005-.005-.004-.005-.004-.006-.004-.005-.004-.006-.004-.005-.004-.006-.004-.006-.004-.005-.003-.006z"/><path id="_443428184" class="fil1" d="m5.05 4.491 3.786 3.786H8.83l-.005-.002-.006-.001-.006-.001-.006-.001-.005-.001-.006-.001-.005-.001-.006-.002h-.006l-.005-.002-.006-.001-.006-.002-.005-.001-.006-.002-.006-.002-3.786-3.786.006.002.005.001.006.002.006.001.005.002h.006l.006.002.005.001.006.001.006.001.005.001.006.002h.006l.005.002h.006z"/><path id="_443428424" class="fil1" d="m3.793 3.07 3.786 3.787H7.564l-.002.001-3.786-3.786h.008l.002-.001h.005z"/><path id="_443428232" class="fil1" d="m4.993 4.491 3.786 3.787h-.003l-.003-.001h-.004l-.003-.002h-.003l-.004-.001-.003-.001-.003-.001-3.786-3.786h.003l.003.001.003.001.004.001.003.001h.003l.004.001z"/><path id="_443428400" class="fil1" d="m4.98 4.496 3.787 3.786h-.005L8.76 8.28h-.003l-.002-.001-.003-.001H8.75l-.002-.002-3.786-3.786h.002l.002.002h.002l.003.001h.002l.003.001h.002z"/><path id="_443428496" class="fil1" d="m3.786 3.077 3.786 3.787h-.01L3.776 3.078H3.785z"/><path id="_443427848" class="fil1" d="m3.817 3.1 3.786 3.786h-.005l-.002.001H7.59L3.804 3.103h.002l.002-.001h.006l.001-.001z"/><path id="_443427968" class="fil1" d="m4.07 3.316 3.786 3.787-.002-.003-.003-.002-.003-.002-.003-.002-.003-.002-.003-.001-.004-.002h-.003L4.046 3.301l.003.001.003.001.004.002.003.002.003.002.002.002.003.002z"/><path id="_443428016" class="fil1" d="m4.12 3.407 3.786 3.787.002.004.002.004v.004l.002.004.002.004v.004l.002.005.001.004.002.004v.004l.002.004v.004l.002.004v.005l.002.004v.004l.002.004v.004l.002.005v.004l.002.004v.004l.002.004v.004l.002.005v.004l.002.004v.004l.002.004v.005l.002.004.001.004-3.786-3.786-.001-.004-.001-.005-.001-.004-.002-.004V3.52l-.002-.004V3.51l-.002-.004v-.004l-.002-.004v-.004l-.002-.005v-.004l-.001-.004-.001-.004-.001-.004-.001-.004-.001-.005-.001-.004-.001-.004-.002-.004v-.004l-.002-.004V3.44l-.002-.004-.001-.004-.002-.004v-.004l-.002-.004-.002-.004-.001-.005z"/><path id="_443429168" class="fil1" d="m4.046 3.302 3.786 3.786.003.003-3.787-3.786z"/><path id="_443428904" class="fil1" d="m3.932 3.175 3.786 3.786.004.006.003.006.004.005.003.005.004.005.004.005-3.786-3.786-.004-.005-.004-.005-.004-.005-.003-.006-.004-.005z"/><path id="_443428976" class="fil1" d="m3.97 3.215 3.786 3.786v.004L3.97 3.219z"/><path id="_443429312" class="fil1" d="M4.044 3.273 7.83 7.059l.007.007.005.007.005.007.004.007.003.008.002.008L4.07 3.316l-.002-.007-.003-.008-.004-.007-.005-.007-.006-.007z"/><path id="_443429264" class="fil1" d="m4.09 3.345 3.785 3.786.003.004.002.004.003.003.002.004.002.004.002.004.002.004.002.003.002.004.002.004.001.004.002.004.002.004.001.004.002.004.001.005L4.12 3.407l-.001-.004-.002-.004-.002-.004-.001-.004-.002-.004-.002-.004-.002-.004-.001-.004-.002-.004-.002-.004-.002-.003-.003-.004-.002-.004-.002-.004-.002-.003z"/><path id="_443429288" class="fil1" d="m5.177 4.45 3.786 3.786-.005.002-.005.001-.004.001-.005.002h-.005l-.004.002-.005.001-.005.002h-.004l-.005.002h-.005l-.005.001h-.005l-.005.001h-.01L5.099 4.465h.016l.005-.001h.005l.005-.002h.004l.005-.002h.005l.004-.002.005-.001.005-.002h.004l.005-.002.005-.002z"/><path id="_443428712" class="fil1" d="m4.08 3.333 3.785 3.786.003.003.003.003.002.003.002.003L4.09 3.345l-.002-.003-.003-.003-.002-.003z"/><path id="_443428928" class="fil1" d="m5.28 4.434 3.786 3.787H9.05l-.003-.001H9.016L5.23 4.435h.047z"/><path id="_443428664" class="fil1" d="m5.13 4.48 3.787 3.786h-.005l-.001-.001h-.002L5.121 4.478h.002l.001.001h.005z"/><path id="_443429048" class="fil1" d="m5.136 4.486 3.786 3.786H8.92l-.003-.001h-.003L8.91 8.27h-.002l-.003-.002h-.003l-.003-.001h-.003l-.003-.001-.003-.001h-.003l-.003-.002h-.002l-.003-.001-.003-.001-3.787-3.787.003.001.003.001.003.001h.003l.003.002h.003l.003.001h.003l.003.001.002.001h.003l.003.001.003.001h.003l.003.001z"/><path id="_443429648" class="fil1" d="m4.976 4.502 3.787 3.786h-.005l-.004-.002h-.005l-.004-.002H8.74l-.004-.002-.005-.001-.004-.001-.004-.002-.005-.001-.004-.002-.004-.001-.005-.002-.004-.001-.004-.002-.005-.002-.004-.001-.004-.002-.004-.002-.004-.002-.005-.002-.004-.002-.004-.002-.004-.002-.004-.002-.004-.002-.004-.002-.004-.002-.004-.002-.004-.002-.004-.002-.004-.002L4.84 4.449l.004.003.004.002.004.002.004.002.004.002.004.002.005.002.004.002.004.002.004.002.004.002.004.002.004.002.005.002.004.001.004.002.004.002.005.002.004.001.004.002.005.001.004.002.004.001.005.001.004.002h.005l.004.002.004.001.005.001.004.001h.005z"/><path id="_443429456" class="fil1" d="M4.874 4.479 8.66 8.265h-.002l-.003-.001-.003-.001H8.65l-.003-.002h-.002L8.64 8.26h-.003L4.852 4.472h.002l.003.001.003.001h.003l.003.002h.003l.002.001z"/><path id="_443429552" class="fil1" d="M4.868 4.484 8.654 8.27l-.007-.002-.008-.002-.007-.002-.008-.002-.007-.003-.008-.003-.007-.002-.008-.003-.007-.003-.007-.003-.008-.003-.007-.003-.007-.003-.007-.002-.008-.002-.007-.002L4.75 4.442l.007.002.007.003.008.002.007.003.007.003.007.002.008.003.007.003.007.003.008.003.007.003.008.003.007.002.008.002.007.002z"/><path id="_443429480" class="fil1" d="m5.06 4.196 3.787 3.786.007.008.007.008.007.007.007.008-3.786-3.786-.007-.008-.007-.008-.007-.007z"/><path id="_443429768" class="fil1" d="m5.278 4.432 3.786 3.786.002.003L5.28 4.434z"/><path id="_443429984" class="fil1" d="m5.269 4.445 3.786 3.786h-.063l-.006.001-.006.001-.005.001-.006.001-.006.002L5.177 4.45l.006-.001.005-.001.006-.001.006-.001h.005l.006-.001H5.263z"/><path id="_637663816" class="fil1" d="M5.225 4.408c.015.012.044.012.055.026-.018 0-.033-.002-.05 0 .012.004.028.003.039.011-.032 0-.061-.003-.092.005-.027.007-.048.015-.078.015a.07.07 0 0 1 .032.015l-.009-.002.014.008c-.016-.003-.03-.007-.047-.012-.013-.004-.032-.015-.046-.012.006.012.022.017.033.024L5.05 4.48l.016.007c-.009 0-.018-.005-.028-.004.004.002.008.006.013.007-.031-.007-.06-.01-.091-.02.01.007.022.015.034.02-.009 0-.018-.003-.026-.005l.014.01c-.007 0-.014-.003-.02-.005a.045.045 0 0 1 .015.01.439.439 0 0 1-.136-.052.088.088 0 0 0 .034.03l-.022-.006.016.01c-.041-.007-.08-.03-.118-.04.01.016.018.034.03.05-.002-.003-.01-.005-.014-.008.002.008.01.012.015.017l-.012-.003c.005.005.01.012.013.018a.254.254 0 0 1-.087-.033c-.017-.012-.026-.036-.044-.045.006.014.022.024.025.04l-.014-.015c.001.007.007.012.012.018-.007-.001-.014-.005-.02-.008.003.004.004.01.006.015a.25.25 0 0 1-.077-.039l-.008-.006c-.015-.012-.03-.025-.046-.032.007.012.017.024.02.038l-.011-.01c.003.003.005.009.009.012-.019-.001-.046-.028-.057-.042-.012-.017-.02-.04-.036-.053-.009.01.012.042.017.054-.005-.008-.01-.016-.019-.02a.074.074 0 0 1 .008.019c-.02-.013-.036-.029-.054-.044-.013-.01-.018-.029-.03-.037-.001.024.008.04.015.062a.03.03 0 0 0-.015-.013c.003.004.002.011.003.015-.027-.012-.048-.044-.066-.066-.012-.015-.023-.039-.037-.052-.003.018.007.034.013.05l-.011-.008.005.014c-.017-.017-.037-.03-.05-.053-.01-.019-.012-.04-.024-.057a.16.16 0 0 0 .024.082.041.041 0 0 0-.016-.013.098.098 0 0 1 .005.019.047.047 0 0 0-.013-.016v.009a.292.292 0 0 1-.033-.053.12.12 0 0 0-.022-.03c-.002.014.004.027.003.04l-.008-.015v.01c-.005-.01-.015-.015-.022-.022-.01-.01-.01-.024-.016-.036-.007-.014-.014-.035-.022-.046v.023c-.002-.006-.005-.011-.01-.016l.001.01a.314.314 0 0 1-.037-.066c-.004-.01-.004-.02-.008-.03v.027l-.011-.013-.002.005c-.018-.036-.035-.07-.05-.106-.007-.015-.01-.034-.02-.047-.009-.01-.015-.012-.02-.013v.005c-.004.022.006.05.009.07-.004 0-.008.005-.014.004-.01.073.039.13.043.2.002.034-.017.058-.035.084a.297.297 0 0 0-.012.019c-.018.03-.041.06-.05.095a.554.554 0 0 1-.024.08.365.365 0 0 0-.021.081c-.008.05-.03.091-.05.136-.022.003-.046.012-.067.019-.023.006-.04.02-.067.018-.012-.002-.023-.01-.034-.01-.01 0-.02.006-.033.005-.019-.004-.062-.02-.065-.04-.043-.001-.037-.076-.013-.097.035-.03.088-.022.128-.042.044-.022.06-.06.07-.105l.006-.031.002-.012V4.4c.002-.004.002-.009.003-.013v-.003l.001-.013v-.031l-.001-.008-.002-.007a.11.11 0 0 0-.004-.015c-.011-.031-.038-.061-.057-.088l-.012-.016a.215.215 0 0 1-.057.068c-.017.01-.035.017-.05.03-.019.013-.032.031-.05.046-.018.016-.039.027-.055.047a.451.451 0 0 0-.044.075c-.01.02-.018.043-.037.057-.015.01-.036.009-.049.018-.013.008-.016.026-.033.031-.016.006-.031 0-.046-.003L3.2 4.57l-.001.001c-.02-.004-.039-.007-.058-.012H3.14a.252.252 0 0 1-.036-.012c-.032-.014-.033-.058-.016-.085.028-.045.076-.018.117-.037a.227.227 0 0 0 .107-.088c.015-.024.034-.041.052-.062.017-.02.02-.044.026-.068.015-.053.008-.079-.033-.117-.04-.038-.084-.043-.133-.06-.045-.018-.08-.06-.11-.096-.015-.017-.029-.033-.038-.052a.326.326 0 0 1-.015-.038c-.02 0-.038 0-.057.002.005.005.012.008.017.01l-.013.003c.002.002.002.005.003.007-.026 0-.049-.008-.075-.003.004.003.007.009.01.012-.004.003-.007.006-.014.006l.006.007c-.015.006-.04-.008-.055-.011-.015-.003-.027-.006-.043-.005.003.008.012.016.013.027l-.008-.002.008.009c-.012-.004-.022-.015-.035-.02a.273.273 0 0 0-.033-.01c.023.011.025.034.034.051a.12.12 0 0 0-.06-.041c.014.004.01.027.016.038v.01c-.002-.003-.007-.004-.009-.008.004.012-.001.048-.01.057-.003-.045-.025-.097-.066-.12.007.01.02.017.027.028-.01-.004-.021-.01-.033-.014l.015.011c-.01-.003-.02-.008-.03-.009.01.01.023.015.034.023-.036 0-.067-.028-.103-.025.007.004.015.007.023.009a.177.177 0 0 1-.02.002l.008.008c-.032.016-.015.07-.02.098-.011-.014-.009-.036-.02-.05a.289.289 0 0 1 .001.049l-.001-.002c.007.02-.001.037.01.057-.015-.012-.015-.034-.025-.048.002.01.002.02.002.03l-.004-.02a.14.14 0 0 0 0 .065l-.012-.021c-.003.013-.011.023-.017.035v.002l-.001.001a.052.052 0 0 0-.003.013c-.002.02 0 .037-.007.056-.023.057-.032.119-.052.177a.45.45 0 0 0-.023.131c-.002.04.002.076.004.116 0 .029-.008.04-.032.057a.13.13 0 0 1-.037.02c-.014.004-.027-.003-.04-.003-.011 0-.018.01-.03.01-.01.001-.03-.005-.038-.007a.144.144 0 0 1-.074-.032c-.03.019-.069-.02-.063-.05.005-.026.057-.044.08-.055.033-.016.046-.035.054-.072l.001-.005c.003-.014.005-.026.01-.04a.108.108 0 0 0 .01-.048c-.004-.038-.003-.075-.003-.113l.002-.082a.664.664 0 0 0-.005-.1l-.004.006c-.022.04-.036.083-.05.127-.02.06-.044.123-.054.185a2.88 2.88 0 0 1-.024.132c-.004.017-.01.031-.026.04-.01.004-.048.016-.05.007a.145.145 0 0 0-.06.018c-.01.005-.021.005-.033.004h-.001c-.009 0-.017-.002-.025-.003a.101.101 0 0 1-.055-.014c-.008-.006-.015-.018-.023-.02h-.001c-.005-.002-.01 0-.015.005-.02-.02-.022-.072.003-.09.014-.01.034-.01.05-.013a.073.073 0 0 0 .05-.021c.017-.014.043-.022.054-.043a.22.22 0 0 0 .019-.069.655.655 0 0 0 .003-.032c.005-.068.034-.127.041-.195.005-.055.013-.11.006-.165a.521.521 0 0 0-.019-.087c-.01-.033-.03-.06-.043-.092l.002.014-.01-.017c.001.004-.001.009-.001.011-.012-.015-.02-.035-.03-.052a.226.226 0 0 0-.004-.007l-.001-.001-.014-.025a.158.158 0 0 1-.032-.033c-.006-.008-.022-.05-.038-.048a.048.048 0 0 0 .022-.04c-.006.003-.012.009-.02.012.006-.017.02-.036.016-.054-.012-.001-.022.013-.032.018l.006-.011-.003.002a.159.159 0 0 0 .024-.114c-.004-.017-.012-.026-.02-.04-.005-.009-.006-.007-.006-.015s.014-.008.003-.019c.001-.001.003 0 .004-.002.003-.01.018-.014.023-.024.008-.012.005-.025.006-.04-.003.01-.011.015-.02.02.019-.029.018-.046.017-.079 0-.02.005-.037-.006-.05l-.003-.002-.006-.003-.006-.004c-.036-.022-.045-.03-.082-.05h-.001c-.002 0-.004-.002-.005-.003a.093.093 0 0 1-.011-.008.171.171 0 0 1-.035-.058.865.865 0 0 1-.048-.131c-.039-.05-.068-.067-.076-.076a.09.09 0 0 1-.018-.041c-.002-.01 0-.028-.005-.037-.006-.012-.024-.021-.032-.033a.17.17 0 0 1-.022-.05.318.318 0 0 1-.01-.094V2.541c0-.026.002-.053.001-.079 0-.011-.001-.022.001-.033.003-.013.009-.024.008-.037-.001-.023-.006-.045-.004-.07.001-.03.015-.058.018-.088.003-.024.003-.052.013-.074.044-.097.14 0 .192.062l.022.026c.027.031.052.064.075.098.019.027.033.063.046.094.008.018.015.035.021.053.01.024.019.048.023.072.006-.005.017.001.03.01l.003-.001c.048-.01.048-.008.077-.01.03-.002.049.002.064.005l.005.001c.011.002.019.002.026-.005.005.012.008.016.01.017l.005-.022c.008-.02.027-.037.037-.056l.035-.064c.03-.052.067-.1.102-.15a.87.87 0 0 1 .143-.138c.017-.013.034-.028.054-.04.012-.008.035-.023.05-.02.027.007.048.04.053.064l.02.098c.004.018-.002.038-.003.056-.002.018 0 .035.001.052a.284.284 0 0 1-.02.114c-.017.04-.02.086-.039.125-.017.038-.053.058-.052.1.002.041-.018.066-.044.096-.013.014-.025.03-.04.042-.006.005-.03.016.025.029h.001c.065.025.143-.001.206-.019-.002.01-.013.02-.023.023l.024-.005c-.003.007-.014.01-.02.019.011-.002.02-.007.03-.007a.201.201 0 0 1-.017.013c.019-.002.067-.032.082-.023-.003.008-.013.014-.019.023.008 0 .015-.006.023-.008-.004.004-.006.009-.008.013l.018-.006c-.002.008-.012.012-.02.017.03.002.055-.01.082-.021-.006.008-.017.015-.025.022.009-.004.017-.01.028-.011l-.004.01c.005-.002.012-.002.016-.003-.003.002-.006.007-.008.01h.017c-.004.008-.012.016-.019.023.013-.001.033-.006.044-.001.005.002.006.01.009.01.008.004.014 0 .023 0 .032 0 .063-.001.094-.011 0 .007-.005.012-.009.019.008-.003.015-.008.023-.009v.008c.007 0 .013-.006.02-.006.004 0 .007.004.013.002 0 .009-.008.013-.014.019.018.007.033-.004.05-.009.016-.005.034-.004.05-.01-.011.007-.024.014-.034.023.011.002.023-.003.035-.003l-.025.014c.053-.001.106-.044.159-.036-.014.006-.029.008-.041.017A.153.153 0 0 0 3.3 2.96c-.01.007-.02.014-.03.019a.112.112 0 0 1 .039-.009l-.018.01c.044-.008.085-.016.13-.017a.089.089 0 0 0-.04.012c.01 0 .02-.002.03-.001l-.018.008c.01 0 .021-.004.032-.003l-.007.005c.034 0 .082-.014.115 0-.008.008-.027.009-.038.014h.034c-.006.002-.009.006-.012.009.01-.002.02-.005.03-.004l-.007.003c.021-.006.043-.004.065-.003.015 0 .035-.003.049.002a.292.292 0 0 1-.04.01c.006.002.015.002.022.002l-.01.004h.017a.03.03 0 0 1-.016.006.215.215 0 0 1 .063.004c.017.003.04.003.055.013-.012.003-.03-.006-.042.002.006.002.013.003.019.006a.008.008 0 0 1-.004.002c.024.003.057.004.074.017a.11.11 0 0 0-.017.001l.01.005h-.01c.014.009.03.013.041.023l-.013.002c.05.005.1.031.128.073.01.016.017.03.033.04l.003.003.002-.003v.004c.035.022.092.056.1.097a.078.078 0 0 0-.024-.014c.013.015.031.026.043.043a.28.28 0 0 1 .031.062c.017.044.023.089.036.134.01.035.029.066.041.1.012.033.033.055.053.083.02.03.04.061.069.084.034.026.069.054.105.078.025.016.05.038.077.05a.39.39 0 0 0 .1.027.38.38 0 0 1 .104.025c.036.015.071.033.108.046a.646.646 0 0 1 .276.193c.029.034.047.075.078.107.017.017.035.026.052.04.015.013.026.028.044.036a.061.061 0 0 1-.038-.002z"/></g></g><path d="M3.413 0a3.413 3.413 0 1 1 0 6.827 3.413 3.413 0 0 1 0-6.827z" style="fill:none"/><path d="M2.224 4.208c.014-.044.028-.087.05-.128.007-.015.02-.026.026-.041.007-.019.005-.04.004-.06a.283.283 0 0 0-.046-.136c-.02-.034-.027-.074-.063-.1-.03-.022-.071-.033-.105-.05-.025-.012-.043-.027-.07-.032-.012-.003-.024-.002-.035-.006-.01-.003-.017-.01-.027-.01 0 .024.013.04.024.06.01.018.018.038.03.054l.002-.012.01.017-.003-.014c.014.032.033.06.043.093a.54.54 0 0 1 .019.089c.007.055-.001.11-.006.167-.007.068-.036.128-.041.197a.294.294 0 0 1-.022.102c-.011.02-.037.03-.054.043a.074.074 0 0 1-.05.022c-.017.002-.036.003-.05.013-.025.018-.023.071-.003.091.017-.018.026.006.04.015.014.012.035.014.054.015.02.001.042.008.059-.002a.14.14 0 0 1 .06-.018c.002.01.04-.003.05-.008.016-.008.022-.023.026-.04.009-.043.017-.088.024-.133.01-.063.034-.128.054-.188z" style="fill:#d13d10;fill-rule:nonzero"/><path class="fil4" d="M2.118 4.004c-.002-.052.002-.108-.011-.158 0 .005-.003.01-.003.016-.01-.013-.009-.031-.011-.046 0 .006-.003.013-.004.02a1.233 1.233 0 0 1-.061-.13.235.235 0 0 0-.01 0l.005.001a.081.081 0 0 1-.03-.02.056.056 0 0 1-.03-.014c.005.011.013.022.02.033.01.017.017.037.029.053l.002-.012.01.017-.003-.014c.014.032.033.06.043.093a.54.54 0 0 1 .019.089c.007.055-.001.11-.006.167-.007.068-.036.128-.041.197l-.003.033c.03-.053.066-.105.076-.165a.708.708 0 0 0 .01-.16z"/><path class="fil5" d="M1.872 4.562a.025.025 0 0 1-.002-.006V4.55l-.001-.004v-.013a.08.08 0 0 1 .008-.02.048.048 0 0 1 .012-.013l.013-.007a.14.14 0 0 0 .005-.002l.008-.004a.22.22 0 0 1 .029-.012l.004-.002.013-.003h.003l-.002.003v.001h-.003a.036.036 0 0 0-.01.003l-.003.001-.017.007-.012.005-.008.004a.135.135 0 0 1-.005.002.05.05 0 0 0-.013.007.044.044 0 0 0-.01.012.076.076 0 0 0-.008.019.034.034 0 0 0 0 .012V4.555l.002.005-.003.002zm.087-.09V4.47zm0-.001zM1.976 4.6l-.006-.007a.066.066 0 0 1-.017-.026.041.041 0 0 1 0-.02.034.034 0 0 1 .01-.017.058.058 0 0 1 .021-.011.144.144 0 0 1 .023-.005c.005 0 .01-.002.016-.004a.12.12 0 0 1 .01-.003v.004a.118.118 0 0 0-.009.003c-.005.002-.011.004-.017.004a.14.14 0 0 0-.022.005.054.054 0 0 0-.02.01.03.03 0 0 0-.007.015.037.037 0 0 0-.001.018c.003.01.01.017.016.024l.006.007-.003.003z"/><path class="fil4" d="m3.55 4.102-.143-.092c-.038-.025-.064-.065-.09-.102-.024-.034-.038-.087-.064-.119-.036.009-.087.026-.125.025v.003c-.004 0-.01.003-.015.002.003.003.006.008.01.01-.006-.002-.011 0-.017.002l.005.005a1.207 1.207 0 0 1-.054.002c.004.013.013.039.019.051.01.02.023.036.037.052.03.036.066.08.111.097.05.018.094.023.133.061.04.04.048.065.033.119-.007.024-.009.05-.026.069-.018.02-.037.038-.052.062a.227.227 0 0 1-.107.09c-.04.018-.089-.009-.117.037-.017.027-.016.072.016.085.034.015.072.02.108.027.015.002.03.01.046.003.016-.006.02-.023.033-.031.014-.01.034-.007.049-.018.02-.014.027-.038.037-.058a.44.44 0 0 1 .045-.076c.015-.02.036-.031.055-.048.017-.014.03-.033.049-.047.015-.012.033-.02.05-.03a.21.21 0 0 0 .061-.08c-.027-.037-.048-.076-.087-.101z"/><path class="fil6" d="M3.142 4.574c-.002-.007-.01-.009-.014-.013a.056.056 0 0 1-.012-.016.035.035 0 0 1 .004-.038.065.065 0 0 1 .046-.023c.014 0 .016 0 .03-.002"/><path class="fil7" d="M3.14 4.574c0-.003-.004-.005-.007-.007a.037.037 0 0 1-.006-.004.065.065 0 0 1-.008-.008.038.038 0 0 1-.009-.03c.001-.007.004-.013.009-.019a.066.066 0 0 1 .047-.024h.012c.005 0 .009 0 .017-.002v.004a.117.117 0 0 1-.017.002h-.012a.062.062 0 0 0-.044.022.032.032 0 0 0-.007.018.034.034 0 0 0 .007.026.06.06 0 0 0 .008.008.034.034 0 0 0 .005.003c.004.003.007.005.009.01l-.004.001z"/><path class="fil6" d="M3.2 4.585a.049.049 0 0 1-.012-.034c0-.015.01-.021.023-.027l.032-.01"/><path class="fil7" d="M3.199 4.586a.047.047 0 0 1-.01-.016.06.06 0 0 1-.003-.019c0-.008.003-.014.007-.018a.046.046 0 0 1 .017-.01.386.386 0 0 1 .033-.011l.001.003a.918.918 0 0 1-.033.011.042.042 0 0 0-.015.01.021.021 0 0 0-.006.015c0 .007.001.012.003.018.002.005.005.01.009.014l-.003.003z"/><path class="fil8" d="M3.97 3.213c-.04.068-.04.152-.04.232-.001.085-.023.169-.026.254-.002.053-.007.106-.007.159 0 .021-.006.056.016.068.016.01.023-.003.038.017.01.014.014.032.02.048.016.037.034.071.051.108l.002-.005c.002.003.008.008.01.012V4.08c.005.01.005.02.01.03a.338.338 0 0 0 .036.066v-.009a.14.14 0 0 1 .01.016.067.067 0 0 1-.001-.024c.008.012.016.033.022.047.005.012.007.026.016.037.007.007.017.012.023.022v-.01l.007.016c0-.014-.005-.027-.003-.04a.114.114 0 0 1 .022.03c.009.019.019.034.033.052v-.008c.005.004.01.01.013.015a.13.13 0 0 0-.005-.019.043.043 0 0 1 .016.014.164.164 0 0 1-.024-.083c.012.017.015.039.025.057.012.024.032.037.049.054l-.005-.014c.003.003.008.005.01.008-.005-.016-.015-.033-.012-.05.014.013.025.037.037.053.018.022.04.053.066.066 0-.004 0-.011-.003-.015a.03.03 0 0 1 .015.013c-.007-.022-.016-.038-.014-.062.011.008.016.026.03.037.017.015.033.03.053.044a.07.07 0 0 0-.008-.018c.009.003.014.011.019.02-.005-.013-.026-.046-.017-.055.017.013.024.036.036.053.011.014.039.041.057.043-.003-.004-.006-.01-.01-.013l.012.01c-.003-.013-.013-.025-.02-.038.02.009.037.026.054.039.022.017.05.03.077.04l-.005-.016.019.008c-.005-.006-.01-.011-.012-.019l.015.016c-.004-.016-.02-.026-.026-.04.018.009.027.032.044.045a.25.25 0 0 0 .087.033.094.094 0 0 0-.013-.018l.012.003c-.006-.004-.013-.01-.015-.017.004.003.012.005.015.007-.013-.015-.02-.033-.031-.05.039.011.077.034.118.042a.687.687 0 0 1-.016-.012l.022.007a.084.084 0 0 1-.034-.03.44.44 0 0 0 .136.053.046.046 0 0 0-.015-.011.089.089 0 0 0 .02.005l-.014-.01c.008.002.017.005.026.006-.012-.006-.023-.014-.034-.021.031.01.06.013.091.02-.005-.001-.01-.005-.013-.007.01 0 .019.003.028.004l-.016-.008c.01.002.018.005.027.005-.011-.007-.027-.011-.033-.024.014-.002.033.009.047.013.015.006.03.009.046.012l-.014-.008.009.002a.068.068 0 0 0-.031-.015c.029 0 .05-.008.077-.015.031-.008.06-.006.092-.005-.011-.008-.027-.007-.04-.011.018-.003.033 0 .051 0-.01-.015-.04-.015-.055-.026a.06.06 0 0 0 .038.001c-.018-.008-.029-.023-.044-.036-.017-.014-.036-.024-.051-.04-.032-.033-.05-.074-.08-.11a.651.651 0 0 0-.275-.195c-.037-.013-.072-.03-.108-.046a.371.371 0 0 0-.104-.026.372.372 0 0 1-.1-.026c-.028-.013-.052-.035-.077-.052-.036-.023-.071-.052-.105-.078-.03-.023-.048-.055-.07-.086-.019-.027-.04-.05-.052-.083-.012-.035-.03-.066-.04-.102-.014-.045-.02-.09-.037-.135a.3.3 0 0 0-.03-.063c-.013-.018-.031-.028-.044-.043a.078.078 0 0 1 .024.014c-.008-.042-.065-.076-.1-.099v-.003z"/><path class="fil9" d="M5.28 4.447c-.01-.015-.04-.015-.055-.026a.06.06 0 0 0 .038.001c-.018-.008-.029-.023-.044-.036-.017-.014-.036-.024-.051-.04-.028-.03-.046-.065-.07-.097-.03-.008-.06-.02-.094-.03a.47.47 0 0 0 .082.04c-.04-.007-.08-.02-.118-.026.008.01.018.016.025.026-.015.002-.032-.007-.048-.01.012.007.023.017.034.025-.026.004-.048-.013-.072-.017.024.03.067.035.094.061a.919.919 0 0 1-.17-.045c.002.024.04.032.042.055-.015.002-.028-.004-.044-.006.01.018.036.026.052.038-.02.002-.038-.006-.057-.007.03.027.075.03.107.055a.853.853 0 0 1-.264-.033c.006.01.015.017.022.025-.02.002-.037-.01-.055-.014l.017.018c-.016-.004-.029-.017-.045-.021.02.013.04.036.054.056-.032-.023-.079-.04-.115-.056l.033.065-.011-.006.008.015a.251.251 0 0 0 .085.045l-.005-.015.019.008c-.005-.006-.01-.011-.012-.019l.015.016c-.004-.016-.02-.026-.026-.04.018.009.027.032.044.045a.25.25 0 0 0 .087.033.094.094 0 0 0-.013-.018l.012.003c-.006-.004-.013-.01-.015-.017.004.003.012.005.015.007-.013-.015-.02-.033-.031-.05.039.011.077.034.118.042a.687.687 0 0 1-.016-.012l.022.007a.084.084 0 0 1-.034-.03.44.44 0 0 0 .136.053.046.046 0 0 0-.015-.011.089.089 0 0 0 .02.005l-.014-.01c.008.002.017.005.026.006-.012-.006-.023-.014-.034-.021.031.01.06.013.091.02-.005-.001-.01-.005-.013-.007.01 0 .019.003.028.004l-.016-.008c.01.002.018.005.027.005-.011-.007-.027-.011-.033-.024.014-.002.033.009.047.013.015.006.03.009.046.012l-.014-.008.009.002a.068.068 0 0 0-.031-.015c.029 0 .05-.008.077-.015.031-.008.06-.006.092-.005-.011-.008-.027-.007-.04-.011.018-.003.033 0 .051 0z"/><path d="M3.95 3.877c0-.009-.004-.017-.005-.025.006.004.01.01.016.015.002-.007-.005-.016-.008-.024.007.004.012.01.018.015-.001-.004-.001-.01-.003-.013.006.004.012.014.018.018-.003-.025-.027-.046-.034-.07-.004-.015-.003-.03-.003-.045.006.014.018.027.031.032a.023.023 0 0 0-.003-.016c.006.007.011.016.02.017 0-.011-.006-.022-.009-.033.004.005.01.007.013.01 0-.02-.013-.04-.022-.055.018.01.028.035.047.046a.46.46 0 0 0-.036-.066l.014.013c0-.014-.011-.026-.015-.039l.006.005a.029.029 0 0 0-.004-.02l.012.011a.2.2 0 0 1-.006-.018c.014.007.04.037.055.044-.017-.014-.056-.047-.053-.07.012.003.018.02.028.025-.002-.014-.014-.025-.017-.04a.12.12 0 0 1 .014.014.365.365 0 0 0-.003-.033c0-.006-.006-.018-.005-.025.015.01.036.058.056.075-.012-.022-.046-.073-.056-.096.01.003.014.017.022.024 0-.013-.01-.023-.007-.037.005.004.008.01.01.016 0-.01-.007-.019-.006-.029.016.01.026.052.048.06-.023-.022-.034-.06-.044-.084-.005-.012-.007-.021-.01-.034-.004-.01-.012-.035-.013-.045.004.01.043.074.048.089a.414.414 0 0 0-.021-.064l.006.007a.147.147 0 0 0-.017-.051l-.009-.029s-.008-.046-.022-.06c.006.005.014.012.022.014.001-.024-.039-.039-.039-.063a.136.136 0 0 0-.014-.027 1.461 1.461 0 0 1-.005-.003c-.016-.01-.023-.025-.033-.04a.18.18 0 0 0-.128-.075l.013-.002c-.012-.01-.027-.014-.04-.022h.009l-.01-.006a.077.077 0 0 1 .017-.001c-.017-.014-.05-.014-.074-.017a.014.014 0 0 1-.011 0h.01a.01.01 0 0 0 .005-.003l-.02-.005c.012-.008.03 0 .043-.003-.015-.01-.038-.01-.054-.012a.226.226 0 0 0-.063-.004.029.029 0 0 0 .015-.007h-.017c.005 0 .007-.002.01-.003a.06.06 0 0 1-.023-.003.31.31 0 0 0 .04-.01c-.013-.005-.033-.001-.048-.002-.022 0-.044-.002-.065.003L3.547 3c-.01-.001-.02.001-.029.003.003-.003.006-.007.012-.008l-.034-.001c.011-.005.03-.006.037-.013-.032-.015-.08 0-.114-.001l.007-.005c-.01 0-.021.002-.032.004l.018-.01-.029.002a.086.086 0 0 1 .04-.012c-.046 0-.087.01-.13.016.005-.002.012-.005.016-.009a.11.11 0 0 0-.038.008l.03-.018a.15.15 0 0 1-.035.005c.012-.01.027-.012.04-.017-.052-.008-.105.035-.158.036l.025-.014c-.012 0-.024.005-.036.002l.035-.023c-.015.007-.035.006-.05.01-.017.006-.032.017-.05.01.006-.006.014-.01.014-.02-.006.002-.01-.002-.014-.001-.006 0-.012.005-.019.006v-.008c-.008 0-.015.005-.023.008.004-.006.009-.011.009-.019a.351.351 0 0 1-.094.012c-.008 0-.015.003-.023 0-.003-.001-.004-.008-.01-.01-.01-.006-.03 0-.043 0 .007-.007.015-.015.02-.023H2.87c.002-.002.005-.008.008-.01-.004 0-.011 0-.016.003.002-.003.002-.008.004-.01-.01 0-.02.007-.028.011.008-.007.02-.015.025-.022-.027.01-.052.023-.082.021.008-.005.018-.009.02-.017l-.018.006c.002-.005.003-.01.008-.013-.007.001-.015.007-.023.008.006-.01.016-.015.02-.024-.017-.008-.064.022-.083.024l.017-.014c-.01 0-.019.006-.03.007.006-.008.017-.012.02-.019l-.024.005c.01-.003.021-.013.024-.022-.064.018-.142.044-.207.02a.093.093 0 0 0-.007.01.242.242 0 0 0-.025.092c-.002.02 0 .039-.007.058-.007.019-.015.026-.031.04-.039.033-.085.053-.116.095-.014.017-.028.033-.04.052-.005.011-.013.02-.018.032-.004.009-.006.017-.012.025a.214.214 0 0 1-.05.04c-.015.01-.031.01-.048.012-.02.003-.038.008-.056-.001-.014-.007-.022-.019-.037-.025a.089.089 0 0 1-.034-.026c-.01-.013-.016-.029-.026-.042a.207.207 0 0 0-.058-.054c-.012-.007-.02-.017-.034-.022.011.013.006.03.006.051 0 .032.002.05-.018.078.01-.003.018-.008.02-.018 0 .014.003.028-.005.04-.006.01-.02.014-.023.024 0 .001-.003 0-.004.002.011.012-.003.011-.003.019 0 .009.001.006.005.015.008.015.017.023.02.041a.16.16 0 0 1-.023.116.025.025 0 0 1 .003-.003l-.006.011c.01-.005.02-.019.032-.018.003.018-.01.038-.016.055l.02-.013a.047.047 0 0 1-.022.04c.016-.002.032.041.038.05a.16.16 0 0 0 .032.034c.01.007.02.013.03.013.008.009.02.018.03.021l-.005-.002a.216.216 0 0 1 .081.026l-.007-.001c.006.004.016.006.024.01-.005.003-.014.002-.02.003.033.007.092.015.11.047.02.038.031.077.049.117.01.022.02.04.019.064 0 .02-.002.04 0 .06l.004.042a.725.725 0 0 1 .005.103 2.155 2.155 0 0 0-.002.082c0 .038-.001.076.002.114a.111.111 0 0 1-.01.05c-.005.015-.007.029-.01.045-.008.037-.02.057-.054.073-.023.01-.076.03-.08.055-.006.031.033.07.063.05.023.022.044.027.074.034.009.002.028.007.037.007.012 0 .02-.01.032-.01.012-.002.025.006.039.002a.134.134 0 0 0 .037-.02c.024-.016.033-.029.032-.058-.002-.04-.006-.076-.004-.117a.465.465 0 0 1 .023-.133c.02-.059.03-.121.051-.179.008-.019.005-.037.008-.057.002-.02.016-.033.02-.052l.012.022a.144.144 0 0 1 .001-.066c.002.006.003.015.003.02.002-.01.001-.02 0-.03.01.014.01.036.025.049-.012-.02-.004-.038-.011-.058l.001.002a.331.331 0 0 0 0-.05c.01.015.008.037.019.052.005-.028-.012-.084.02-.1-.003-.002-.006-.007-.009-.008l.02-.002a.118.118 0 0 1-.022-.01c.035-.002.067.026.103.026-.011-.008-.025-.014-.035-.023.01 0 .02.005.03.01a.564.564 0 0 1-.014-.012c.012.003.022.01.033.014-.007-.011-.02-.019-.027-.029.041.024.062.076.067.122.008-.01.013-.045.01-.057.001.003.006.005.008.007v-.01c-.005-.01-.002-.034-.016-.038a.123.123 0 0 1 .06.042c-.01-.017-.011-.04-.034-.052l.033.01c.012.005.023.016.035.02l-.008-.01c.002.002.006.002.008.003-.001-.01-.01-.019-.013-.028.016 0 .028.002.043.006.015.003.04.017.055.011l-.006-.007c.007 0 .01-.003.014-.006-.003-.004-.006-.01-.01-.013.026-.005.049.003.075.003l-.003-.007.013-.002a.064.064 0 0 1-.017-.01l.057-.003c.018 0 .036 0 .054-.002l-.005-.005c.006 0 .01-.003.017-.002-.004-.002-.007-.007-.01-.01.005.001.01-.002.016-.002v-.003c.037.002.075-.014.11-.022.026.032.034.075.058.11.026.036.061.082.099.107l.138.093c.039.025.068.063.095.1l.012.017c.02.027.046.057.057.09.016.042.004.093-.006.138-.009.046-.025.083-.069.106-.04.02-.093.013-.127.043-.025.021-.03.096.012.097.003.02.046.037.065.04.013.002.023-.004.033-.004.01 0 .022.009.034.01.026.002.044-.012.067-.019.021-.006.046-.015.067-.018.02-.046.042-.087.05-.138a.378.378 0 0 1 .02-.082.583.583 0 0 0 .026-.081c.008-.036.031-.065.049-.096.019-.034.05-.062.047-.104-.004-.07-.052-.129-.043-.203.006 0 .01-.003.014-.004-.003-.02-.013-.049-.009-.07-.006-.027-.004-.058-.005-.08l.023.021z" style="fill:#ffab91;fill-rule:nonzero"/><path class="fil11" d="M3.948 3.373a.462.462 0 0 1 .066.051c-.025-.033-.041-.08-.062-.118.007.007.018.012.024.019-.004-.024-.031-.041-.043-.064l.014.007c-.011-.021-.038-.04-.055-.054.01.002.02.003.031.009a.103.103 0 0 1-.031-.031c.006 0 .015 0 .021.002a.28.28 0 0 1-.021-.029c.012.001.026.004.04.008a.18.18 0 0 0-.128-.075l.013-.002c-.012-.01-.027-.014-.04-.022h.009l-.01-.006a.077.077 0 0 1 .017-.001c-.017-.014-.05-.014-.074-.017a.014.014 0 0 1-.011 0h.01a.01.01 0 0 0 .005-.003l-.02-.005c.012-.008.03 0 .043-.003-.015-.01-.038-.01-.054-.012a.226.226 0 0 0-.063-.004.029.029 0 0 0 .015-.007h-.017c.005 0 .007-.002.01-.003a.06.06 0 0 1-.023-.003.31.31 0 0 0 .04-.01c-.013-.005-.033-.001-.048-.002-.022 0-.044-.002-.065.003L3.547 3c-.01-.001-.02.001-.029.003.003-.003.006-.007.012-.008l-.034-.001c.011-.005.03-.006.037-.013-.032-.015-.08 0-.114-.001l.007-.005c-.01 0-.021.002-.032.004l.018-.01-.029.002a.086.086 0 0 1 .04-.012c-.046 0-.087.01-.13.016.005-.002.012-.005.016-.009a.11.11 0 0 0-.038.008l.03-.018a.15.15 0 0 1-.035.005c.012-.01.027-.012.04-.017-.052-.008-.105.035-.158.036l.025-.014c-.012 0-.024.005-.036.002l.035-.023c-.015.007-.035.006-.05.01-.017.006-.032.017-.05.01.006-.006.014-.01.014-.02-.006.002-.01-.002-.014-.001-.006 0-.012.005-.019.006v-.008c-.008 0-.015.005-.023.008.004-.006.009-.011.009-.019a.351.351 0 0 1-.094.012c-.009 0-.015.003-.023 0-.003-.001-.004-.008-.01-.01-.01-.006-.03 0-.043 0 .007-.007.015-.015.02-.023H2.87c.002-.002.005-.008.008-.01-.004 0-.011 0-.016.003.002-.003.002-.008.004-.01-.01 0-.02.007-.028.011.008-.007.02-.015.025-.022-.027.01-.052.023-.082.021.008-.005.018-.009.02-.017l-.018.006c.002-.005.003-.01.008-.013-.007.001-.015.007-.023.008.006-.01.016-.015.02-.024-.017-.008-.064.022-.083.024l.017-.014c-.01 0-.019.006-.03.007.006-.008.017-.012.02-.019l-.024.005c.01-.003.021-.013.024-.022-.064.018-.142.044-.207.02a.093.093 0 0 0-.007.01.242.242 0 0 0-.025.092c-.002.02 0 .039-.007.058-.007.019-.015.026-.031.04-.039.033-.085.053-.116.095-.014.017-.028.033-.04.052-.005.011-.013.02-.018.032-.004.009-.006.017-.012.025a.142.142 0 0 1-.016.015c.006.023.006.05.009.068.007.048.018.106.02.155a.034.034 0 0 1-.022-.018c.005.01.009.023.007.035l-.016-.015c0 .01 0 .02-.002.03l-.007-.005c0 .044.024.089.04.129a.179.179 0 0 1-.027-.014c.005.008.01.016.012.025l-.01-.004c.007.019.006.038.013.056.007.015.017.027.026.041.021.037.04.08.052.12.035.117.01.242-.005.358l.005-.004c0 .019.007.036.007.055.002-.002 0-.003.002-.005.02.028-.01.112-.033.137-.013.013-.028.023-.04.035l-.002.006c-.008.037-.02.057-.054.073-.023.01-.076.03-.08.055-.006.031.033.07.063.05.023.022.044.027.074.034.009.002.028.007.037.007.012 0 .02-.01.032-.01.012-.002.025.006.039.002a.134.134 0 0 0 .037-.02c.024-.016.033-.029.032-.058-.002-.04-.006-.076-.004-.117a.465.465 0 0 1 .023-.133c.02-.059.03-.121.051-.179.008-.019.005-.037.008-.057a.068.068 0 0 1 .009-.025.465.465 0 0 1-.016-.104c-.003-.057.022-.11.024-.167a.07.07 0 0 0 .02.024c-.003-.008-.003-.018-.005-.026.01 0 .021.01.033.013-.006-.012-.01-.025-.017-.037.012.005.022.012.033.014a.136.136 0 0 1-.013-.025c.068.038.166.036.242.034-.015-.01-.029-.02-.044-.028.02.006.049.016.07.009-.005-.007-.006-.013-.014-.018a.217.217 0 0 0 .078 0c-.005-.005-.003-.011-.014-.015.042.019.104.01.15.01.02 0 .05.008.068 0a.127.127 0 0 0-.023-.017.087.087 0 0 0 .035.003c-.003-.003-.006-.008-.013-.01.054.003.106.012.148.05.048.041.055.114.096.16-.008-.012-.013-.032-.008-.044.017.027.03.057.059.074-.007-.008-.017-.017-.019-.029.028.022.05.054.08.077l.08.062c.045.033.089.06.117.109a.214.214 0 0 1 .029.125c.01.04-.001.085-.01.126-.009.046-.025.083-.069.106-.04.02-.093.013-.127.043-.025.021-.03.096.012.097.003.02.046.037.065.04.013.002.023-.004.033-.004.01 0 .022.009.034.01.026.002.044-.012.067-.019.021-.006.046-.015.067-.018.02-.046.042-.087.05-.138a.378.378 0 0 1 .02-.082.583.583 0 0 0 .026-.081c.008-.036.031-.065.049-.096l.026-.04a.369.369 0 0 0-.083-.217c.007.006.017.01.024.017-.005-.016-.012-.034-.016-.05l.017.014c.002-.019-.006-.037-.01-.055.004.003.01.005.013.01-.058-.057-.062-.228-.043-.3.005.005.018.013.021.018 0-.023-.002-.065.03-.046.006-.018-.001-.07.032-.054.033-.062.02-.135-.018-.192.02.008.033.025.05.034-.006-.017-.016-.033-.021-.05a.18.18 0 0 0 .028.023c-.002-.02-.02-.037-.025-.056z"/><path class="fil9" d="M1.94 3.17c.026.016.041.033.059.055.01.013.016.029.026.042.008.012.022.02.034.026.015.006.023.018.037.025.018.01.037.004.056.001.017-.002.033-.003.048-.012a.214.214 0 0 0 .05-.04c.006-.008.008-.016.012-.025.005-.012.013-.021.019-.032.01-.02.025-.035.039-.052.031-.042.077-.062.116-.095.016-.014.024-.021.03-.04.007-.02.006-.038.008-.058a.242.242 0 0 1 .025-.091.093.093 0 0 1 .007-.011h-.001V2.86c-.054-.012-.03-.023-.024-.03.014-.012.026-.027.039-.041.026-.03.046-.056.044-.097-.001-.043.035-.063.052-.101.019-.04.022-.087.039-.128a.294.294 0 0 0 .02-.114c0-.018-.003-.035-.001-.053.001-.018.007-.038.003-.057l-.02-.099c-.005-.025-.026-.058-.053-.065-.015-.003-.038.012-.05.02-.02.012-.037.027-.055.041a.66.66 0 0 0-.135.133c-.036.05-.073.101-.104.156-.013.022-.024.045-.036.067-.01.02-.03.037-.038.058-.007.016-.004.035-.018.004-.016.016-.037-.006-.096 0-.026.082-.09-.017-.109 0-.006-.033-.02-.066-.033-.097-.014-.035-.03-.077-.05-.108a1.725 1.725 0 0 0-.082-.115c-.039-.05-.163-.204-.214-.09-.01.022-.01.05-.013.075-.003.03-.017.06-.018.09-.002.024.003.047.004.07 0 .013-.005.025-.008.037-.002.012-.001.022 0 .034l-.002.079c0 .04-.002.078.01.116a.176.176 0 0 0 .022.051c.008.013.026.022.032.034.005.009.003.027.005.037a.092.092 0 0 0 .018.042c.007.01.037.027.076.077 0 .02.04.115.048.133.008.02.02.043.035.058.005.004.011.009.017.012.037.02.046.027.082.05l.015.01c.014.004.022.014.034.02z"/><path class="fil4" d="M1.647 2.24s0 .002-.002.003c-.004.007-.005.017-.008.025-.003.007-.007.014-.008.022-.001.007 0 .015-.004.021l-.001-.002c-.002.015-.008.031-.009.046l-.004.075c-.002.042.004.085 0 .126l-.004-.018c-.003.026-.007.06.003.084.011.027.013.05.035.071.01.01.023.025.027.038.004.015.012.023.021.036.01.013.029.043.05.04-.006-.005-.014-.008-.019-.015.018.009.035.014.055.008h.002c.019-.008.032-.028.04-.044.01-.021.057-.09.05-.11 0 .002.003.004.004.005a.016.016 0 0 1-.003-.008c.005 0 .007.004.01.008a.256.256 0 0 0 0-.04c-.001-.01-.004-.019-.004-.029 0-.01-.005-.018-.008-.028-.003-.01-.003-.015-.01-.023-.002-.005-.06-.074-.045-.065-.013-.012 0-.007.007 0-.01-.01-.014-.028-.019-.041a.546.546 0 0 0-.062-.12c-.022-.033-.043-.065-.085-.072a.036.036 0 0 0-.009.007z"/><path class="fil8" d="M2.506 2.235h-.002a.233.233 0 0 0-.096.08c-.029.04-.059.08-.08.124l.001-.008c-.004.004-.005.01-.008.015-.01.017-.023.032-.033.048-.02.03-.049.069-.055.105l.005-.004c-.003.007-.007.015-.007.024 0-.007.006-.011.008-.017 0 .008-.003.018-.005.026l.01-.02c-.008.021.006.067.024.077l-.001-.007.014.008a.041.041 0 0 1-.005-.016c.022.008.042.024.065.03a.114.114 0 0 0 .098-.018.145.145 0 0 0 .04-.035.31.31 0 0 0 .02-.032c.009-.013.023-.03.027-.044-.006.003-.01.008-.017.009.001-.01.01-.016.015-.023l-.015.012c.021-.034.047-.064.052-.105a.755.755 0 0 0 .002-.115l-.001.002a.239.239 0 0 0-.001-.063.102.102 0 0 0-.012-.042c-.011-.02-.025-.019-.043-.011z"/><path class="fil11" d="M1.988 2.58c-.002.026-.02.049-.028.074-.01.03-.023.06-.035.09-.012.028-.027.046-.043.07a.082.082 0 0 1 .018-.002c-.001.002-.002.007-.004.009a.102.102 0 0 1 .02-.003c-.013.015-.027.024-.042.036.006 0 .01.003.015.004-.004 0-.008.003-.012.004.004 0 .009.004.013.004l-.004.003.016.003c-.002.002-.004.008-.007.01.011 0 .024-.008.034-.014-.007.008-.012.017-.017.026a.232.232 0 0 1 .046-.006c.027 0 .042-.01.066.004h-.006c0 .001.005.003.005.005l-.004.004c.03.002.066 0 .091.015-.003-.005-.005-.011-.009-.015.032.003.048.033.046.063.008-.017.01-.038.02-.053v.016c.013-.014.02-.032.036-.043.026-.016.053-.01.08-.018a.183.183 0 0 0-.02-.008.15.15 0 0 1 .063.01.053.053 0 0 1-.005-.02l.012.006c-.002-.003-.004-.009-.007-.012l.018.014c0-.004 0-.01-.002-.016l.002.002c-.026-.053-.083-.081-.115-.129a.52.52 0 0 1-.055-.096.346.346 0 0 1-.017-.054.33.33 0 0 0-.078-.009c-.036.002-.031 0-.083.01-.014.002-.006.013-.008.005v.01zM2.437 3.048a.11.11 0 0 0-.017-.041l-.001.004c-.002-.004-.004-.008-.008-.01 0 .002 0 .004.002.005-.01-.005-.016-.011-.028-.011l.001-.004h-.004l.006-.01c-.01.011-.029.015-.043.019a.11.11 0 0 1-.043 0c-.027-.004-.058-.006-.078.012l.007-.033-.003.003c.007-.014.004-.035.005-.05l-.002.005c-.001-.006.005-.012.003-.018a.07.07 0 0 1-.011.017v-.003l-.003.005-.002-.001-.002.023c-.001.014-.006.03-.008.044 0 .013-.003.028-.003.043a.063.063 0 0 0 .002.027c.004.018 0 .04.012.055.01.013.02.025.026.04.004.008.004.015.006.023 0 .004.002.013.004.016.004.005.01.003.014.006a.013.013 0 0 1 .005.006.168.168 0 0 0 .007-.01c.01-.02.025-.035.039-.052l.044-.044c.005-.005.044-.026.065-.044l.002-.003.005-.004.001-.001v-.014z"/><path class="fil11" d="M2.043 2.997c0-.01-.005-.022-.006-.032 0-.007-.003-.013-.003-.02 0 .002.003.004.004.005 0-.008-.013-.02-.016-.027-.002.002.002.01.003.013l-.004-.004v.004l-.004-.003c.001.006.005.012.002.018l-.003-.005c.004.01-.004.024-.004.035l.001-.005c0 .011.007.023.01.033-.02-.012-.049-.01-.074-.007a.121.121 0 0 1-.045 0C1.89 3 1.87 2.994 1.86 2.983c.002.004.006.008.006.011h-.004s0 .002.002.003c-.013 0-.019.006-.03.012l.002-.005c-.004.002-.006.006-.008.01l-.001-.005a.106.106 0 0 0-.017.042c-.002.01 0 .026-.005.035a.07.07 0 0 0 .005.004c.038.02.047.027.083.05l.006.003a.047.047 0 0 1 .009.006c.014.005.022.015.034.022.02.013.035.026.05.043.002 0 .005-.001.007-.004.003-.003.004-.011.005-.015.002-.009.002-.016.006-.024.007-.014.018-.026.027-.04.012-.015.008-.037.013-.055a.056.056 0 0 0-.001-.037c-.002-.014-.005-.027-.005-.042zM2.221 2.715l.013.01c-.013-.023-.027-.041-.034-.067a.328.328 0 0 1-.011-.067c0-.02.01-.041.02-.058.023-.035.054-.067.08-.102.016-.022.029-.049.045-.073.01-.014.014-.03.021-.046.012-.025.029-.06.053-.075-.003.003-.007.007-.007.012.025-.015.039-.048.058-.07l.038-.039h.001l-.011.008a.64.64 0 0 0-.13.129c-.035.05-.071.099-.102.151l-.035.066c-.01.019-.029.035-.037.056-.006.016-.004.034-.017.047a.037.037 0 0 1-.01.007.286.286 0 0 0 .015.044.43.43 0 0 0 .045.08c.02.028.048.047.07.072-.006-.014-.021-.03-.027-.037-.012-.016-.028-.033-.038-.048zM1.792 2.24l.015.03c0-.003 0-.006-.002-.009.01.01.012.028.02.04.008.013.018.028.023.044l-.002-.013c.01.013.012.032.021.046.013.02.026.037.037.057.019.034.017.072.016.112 0-.004.002-.007.004-.01l.01.016a.087.087 0 0 1 .007.042.463.463 0 0 1-.003.078c0 .013.002.027 0 .041l-.001.014.002-.004.026-.068c.006-.02.02-.037.02-.057a.14.14 0 0 0 0-.024l-.006-.003c-.008-.002-.007 0-.013-.005a.047.047 0 0 1-.009-.017.292.292 0 0 1-.008-.035c-.005-.03-.018-.059-.03-.087-.013-.03-.027-.068-.046-.095a1.42 1.42 0 0 0-.113-.143.1.1 0 0 0 .015.025l.017.025z"/><path d="M2.24 3.04c0-.012 0-.02.008-.026-.017.009-.027.03-.027.03-.004.005 0 .005.004.008.007.006.008.01.01.018 0 .01.005.01.014.009a.256.256 0 0 0 .017-.002.04.04 0 0 1-.026-.038z" style="fill:url(#id4);fill-rule:nonzero"/><path d="M2.333 3.03c.002-.002.015-.01.018-.026l-.021.005h-.017c.006.008.004.02.004.03 0 .015-.015.029-.026.036a.102.102 0 0 0 .028-.014c.005-.004.024-.033.014-.03z" style="fill:url(#id2);fill-rule:nonzero"/><path class="fil14" d="M2.317 3.04c.001-.011.002-.023-.004-.03a.297.297 0 0 0-.03-.004.057.057 0 0 0-.035.008c-.007.007-.008.014-.008.025 0 .018.01.032.026.038h.011l.014-.002c.01-.007.023-.008.026-.036z"/><path class="fil15" d="M2.292 3.027a.015.015 0 1 1-.031 0 .015.015 0 0 1 .03 0z"/><path d="M2.02 3.044c0-.011-.002-.02-.009-.026.017.01.028.03.028.03.003.005 0 .005-.005.009-.007.005-.008.008-.01.017 0 .01-.004.01-.014.009a.262.262 0 0 1-.016-.002.04.04 0 0 0 .025-.037z" style="fill:url(#id5);fill-rule:nonzero"/><path d="M1.926 3.035c-.002-.003-.015-.012-.018-.027l.021.005h.017c-.006.008-.004.02-.004.03 0 .015.016.029.027.036a.102.102 0 0 1-.029-.014c-.005-.004-.024-.032-.014-.03z" style="fill:url(#id3);fill-rule:nonzero"/><path class="fil14" d="M1.942 3.044c-.001-.01-.002-.023.004-.03a.295.295 0 0 1 .03-.004.057.057 0 0 1 .035.008c.007.007.008.015.008.026a.04.04 0 0 1-.025.037h-.012l-.013-.002c-.011-.007-.024-.008-.027-.035z"/><path class="fil15" d="M1.968 3.032a.015.015 0 1 0 .03 0 .015.015 0 0 0-.03 0z"/><path class="fil14" d="M2.103 3.242c-.008-.006-.018-.005-.027-.002.001.017.02.021.038.026a.032.032 0 0 0-.011-.024zM2.173 3.24c-.012.005-.01.017-.003.026.008-.001.016-.003.02-.008a.043.043 0 0 0 .006-.017.044.044 0 0 0-.023-.001z"/><path d="M2.188 3.218a.12.12 0 0 0-.055-.019c-.014-.001-.026.003-.04.007-.011.004-.012.011-.016.022a.03.03 0 0 0-.001.012c.009-.003.019-.004.027.002a.032.032 0 0 1 .011.024l.013.004s.022.002.024 0c.004 0 .013 0 .019-.004-.007-.009-.01-.021.003-.026a.044.044 0 0 1 .023.001c.001-.009 0-.017-.008-.023z" style="fill:url(#id1);fill-rule:nonzero"/><path class="fil6" d="M2.139 3.245s-.002.045.001.051"/><path class="fil6" d="M2.079 3.305s.046.005.06-.01c.014.012.05.015.063.011"/><path class="fil4" d="M2.187 4.645a.025.025 0 0 1-.002-.006v-.01c-.001-.004-.002-.009 0-.013a.08.08 0 0 1 .007-.02.048.048 0 0 1 .012-.013l.013-.007a.144.144 0 0 0 .005-.002l.009-.004a.22.22 0 0 1 .029-.012l.003-.002a.032.032 0 0 1 .013-.003h.003l-.002.003v.001h-.002a.036.036 0 0 0-.01.003l-.004.001-.017.007-.012.005-.008.004a.14.14 0 0 1-.005.003.05.05 0 0 0-.013.006.044.044 0 0 0-.01.012.076.076 0 0 0-.008.02v.015l.001.005.001.005-.003.002zm.087-.09v-.001zm0-.001zM3.515 4.704a.025.025 0 0 1-.002-.006.047.047 0 0 1 0-.01c-.001-.004-.002-.008 0-.013a.08.08 0 0 1 .008-.02.048.048 0 0 1 .011-.013l.013-.007a.133.133 0 0 0 .005-.002l.009-.004a.218.218 0 0 1 .029-.012l.003-.001a.032.032 0 0 1 .013-.004h.003l-.001.003-.002.002h-.001a.036.036 0 0 0-.01.002l-.004.002-.017.006-.012.006-.008.004a.142.142 0 0 1-.005.002c-.004.002-.009.003-.012.006a.044.044 0 0 0-.011.013.076.076 0 0 0-.007.018.034.034 0 0 0 0 .012V4.697l.002.005-.004.002zm.088-.09zm0 0v-.001zM2.291 4.683l-.006-.007a.066.066 0 0 1-.017-.025.041.041 0 0 1 0-.021.034.034 0 0 1 .01-.017.058.058 0 0 1 .021-.01.144.144 0 0 1 .023-.005l.016-.005a.118.118 0 0 1 .01-.003v.004a.118.118 0 0 0-.009.003l-.017.005a.14.14 0 0 0-.022.004.054.054 0 0 0-.02.01.03.03 0 0 0-.007.015.037.037 0 0 0 0 .018c.002.01.008.017.015.024a.213.213 0 0 1 .006.007l-.003.003zM3.62 4.742a.207.207 0 0 0-.007-.007.066.066 0 0 1-.017-.025.041.041 0 0 1 .001-.02.034.034 0 0 1 .01-.018.058.058 0 0 1 .02-.01.144.144 0 0 1 .023-.005c.005 0 .01-.003.016-.005a.118.118 0 0 1 .01-.002v.003a.118.118 0 0 0-.009.003l-.016.005a.14.14 0 0 0-.022.004.054.054 0 0 0-.02.01.03.03 0 0 0-.008.015.037.037 0 0 0 0 .019c.002.01.009.016.015.023a.213.213 0 0 1 .006.007l-.003.003z"/></g></svg>