<svg xmlns="http://www.w3.org/2000/svg" xml:space="preserve" width="655.359" height="655.359" style="shape-rendering:geometricPrecision;text-rendering:geometricPrecision;image-rendering:optimizeQuality;fill-rule:evenodd;clip-rule:evenodd" viewBox="0 0 6.827 6.827"><defs><clipPath id="id0"><path d="M3.413 0a3.413 3.413 0 1 1 0 6.827 3.413 3.413 0 0 1 0-6.827z"/></clipPath><style>.fil4{fill:#33691e}.fil1{fill:#bdbdbd}</style></defs><g id="Layer_x0020_1"><path d="M3.413 0a3.413 3.413 0 1 1 0 6.827 3.413 3.413 0 0 1 0-6.827z" style="fill:#e0e0e0"/><g style="clip-path:url(#id0)"><g id="_637663072"><path id="_4434296001" class="fil1" d="m2.851 1.601 3.787 3.787.011.012.01.014.01.015.01.017.007.017.007.018.006.02.004.02.003.02.002.023v.046l-.003.024L2.92 1.848l.003-.025v-.046l-.002-.022-.003-.02-.005-.02-.005-.02-.007-.018-.008-.018-.009-.016-.01-.015-.01-.014z"/><path id="_443429816" class="fil1" d="m3.219 2.06 3.786 3.787.019.02.018.022.017.02.017.022.017.022.016.021.017.022.016.022.015.022.016.022.016.022.016.022.016.022.017.021.017.022.017.021.018.021.018.021.019.02L3.54 2.469l-.02-.02-.018-.021-.017-.021-.018-.021-.016-.022-.017-.022-.016-.021-.016-.022-.016-.022-.016-.022-.016-.022-.016-.022-.016-.022-.016-.022-.017-.021-.017-.022-.017-.02-.019-.022z"/><path id="_443435768" class="fil1" d="m4.656 3.936 3.787 3.786-.004.016-.004.016-.004.014-.005.015-.005.013-.006.013-.006.013-.007.012-.007.012-.008.01-.008.011-.009.01-.01.01-.009.009-.01.009-.01.008-.011.007-.011.008-.012.007-.012.006-.012.006-.013.006-.013.005-.014.004-.014.005-.014.004-.015.003-.015.004-.015.003-.016.002-.016.002-.016.002-3.787-3.786.017-.002.016-.002.015-.003.016-.003.015-.003.014-.003.015-.004.014-.005.013-.005.013-.005.013-.005.013-.006.012-.007.012-.007.01-.007.012-.008.01-.008.01-.008.01-.01.009-.01.008-.01.009-.01.007-.01.008-.012.007-.012.006-.013.006-.013.005-.014.005-.014.004-.015.004-.015z"/><path id="_443435960" class="fil1" d="M2.787 3.684 6.573 7.47l-.006.013-.006.012-.007.013-.006.012-.007.013-.006.012-.007.012-.006.012-.007.012-.007.012-.007.012-.006.012-.007.012-.007.011-.007.012-.007.011-.007.012-.008.011-.007.012-.007.011-.008.011-.007.011-.007.011-.008.011-.008.011-.007.011-.008.01-.008.011-.008.01-.007.011-.008.01-.008.011-3.787-3.786.008-.01.008-.01.008-.011.008-.01.008-.012.008-.01.007-.011.008-.011.007-.011.008-.011.007-.011.008-.011.007-.012.007-.01.007-.012.007-.012.007-.011.007-.012.007-.012.007-.011.007-.012.007-.012.007-.012.006-.012.007-.012.007-.012.006-.013.007-.012.006-.012.006-.013.007-.013z"/><path id="_443436320" class="fil1" d="m2.182 3.95 3.786 3.785-.005-.004-.006-.003-.007-.003-.007-.002-.009-.002H5.892L2.105 3.935h.013l.01-.001h.011l.01.001.007.002.008.002.006.002.006.004z"/><path id="_443436440" class="fil1" d="m2.464 4.809 3.787 3.786h-.008l-.007-.001-.007-.002-.005-.003-.005-.004L2.433 4.8l.004.003.006.003.007.002.007.002z"/><path id="_443436680" class="fil1" d="m1.95 4.069 3.787 3.786H5.73l-.006-.001-.006-.002-.006-.002-.005-.003-.004-.003-3.787-3.787.005.004.005.003.005.002.006.002h.007z"/><path id="_443436344" class="fil1" d="m2.216 5.268 3.786 3.786-.007.006-.008.004-.007.002h-.007l-.005-.001-.006-.003-3.786-3.786.005.002.006.002h.007l.007-.002.007-.004z"/><path id="_443436368" class="fil1" d="m2.105 3.935 3.787 3.786-.005.001H5.88l-.003-.003-3.786-3.786.003.002h.003l.004.001z"/><path id="_443436632" class="fil1" d="m2.217 3.902 3.786 3.786.004.005.004.004.004.005.004.005.004.005.004.006.003.005.003.006.004.006.003.006.003.007.003.006.003.007.003.007-3.786-3.786-.003-.007-.003-.007-.003-.006-.003-.007-.004-.006-.003-.006-.003-.006-.004-.006-.003-.005-.004-.005-.004-.005-.004-.005-.004-.005z"/><path id="_443436848" class="fil1" d="m3.176 3.99 3.786 3.786-.019-.001-.018-.002-.018-.003-.018-.003-.017-.004-.017-.004-.016-.005-.015-.005-.016-.006-.015-.006-.014-.007-.014-.008-.013-.008-.013-.008-.013-.01-.012-.009-.012-.01-.011-.01L2.904 3.88l.012.01.011.01.013.01.012.008.013.009.014.008.014.007.014.007.015.007.015.006.016.005.016.005.017.004.017.004.017.003.018.002.019.002z"/><path id="_443436728" class="fil1" d="m2.65 4.072 3.785 3.786.004.004.002.005-3.786-3.786-.003-.005z"/><path id="_443436824" class="fil1" d="M2.655 4.08 6.44 7.868v.002l-.001.001-.003.002-.003.001-.005.002-.005.002-.006.001-.007.002-.008.002-.008.002-.01.003-.008.002-.01.003-.01.004-.01.003-.01.004-.007.003-.006.002-.006.003-.007.002-.006.003-.006.003-.006.003-.007.003-.006.002-.007.003-.006.003-.006.003-.007.002-.006.003-.006.002-.007.003-.006.002-.006.002-.006.002-.006.002-.006.002-.006.002-.006.001-.006.002H6.18l-.006.001-.005.001H6.143L2.357 4.175h.005l.005.001h.022l.006-.002H2.4l.005-.002.006-.001.006-.002.006-.002.007-.002.006-.002.006-.002.006-.002.006-.003.007-.002.006-.003.006-.003.007-.002.006-.003.007-.003.006-.003.006-.003.007-.002.006-.003.006-.003.006-.003.007-.002.006-.003.006-.002.01-.004.01-.004.01-.003.01-.003.01-.003.008-.002.009-.002.007-.002.007-.002.007-.002.005-.001.004-.002.004-.001.002-.002.002-.001z"/><path id="_443436944" class="fil1" d="m2.357 4.176 3.786 3.786-.016-.002-.016-.004-.014-.004-.013-.004-.012-.005-.01-.006-.011-.006-.01-.006-.01-.006-.008-.007-.008-.006-.009-.007-.008-.007-.008-.006-.008-.007-.008-.006-.009-.006-.008-.006-.01-.005-.01-.005-.01-.004-.012-.003-.012-.003-.013-.003-.014-.001h-.032l-.019.001-.02.003-.02.003-.023.005-.025.006-3.786-3.786.025-.006.022-.005.022-.004.02-.002.017-.001h.033l.014.001.013.002.012.003.012.004.01.004.01.005.01.005.008.006.009.006.008.006.008.006.008.007.008.007.008.006.009.007.008.006.01.007.01.006.01.006.011.005.012.005.013.005.014.004.015.003z"/><path id="_443437544" class="fil1" d="M2.802 4.844 6.588 8.63l-.01-.008-.009-.007-.01-.006-.01-.005-.01-.005-.01-.005-.01-.004-.01-.003-.011-.003-.011-.002-.011-.002-.011-.001-.011-.001h-.012l-.011-.001h-.035l-.011.002h-.012l-.012.002-.012.001-.012.002-.012.001-.013.002-.012.002-.012.001-.013.002-.012.002-.012.001L2.464 4.81l.013-.002.012-.001.013-.002.012-.002.012-.001.012-.002.012-.002.013-.001.012-.001.011-.002h.012l.012-.001.012-.001h.045l.012.002.01.001.012.002.01.002.011.003.01.003.01.004.011.004.01.005.01.006.01.006.01.007z"/><path id="_443437568" class="fil1" d="M3.047 4.954 6.834 8.74H6.81l-.024-.001h-.048l-.024.001-.025.002-.024.002-.024.002-.025.004-.025.003-.025.005-.025.005-.025.005-.025.007-.026.007-.025.008-.026.01-.026.01-.026.01-.026.011-.027.013-.027.013-.027.015-.027.016-.027.016-.028.018-.028.02-.028.02-.028.02-.029.023-.028.024-.03.025-3.786-3.786.03-.025.028-.024.029-.023.028-.021.028-.02.028-.02.028-.017.027-.017.027-.015.027-.015.027-.013.026-.013.027-.012.026-.01.026-.01.026-.009.025-.008.026-.007.025-.007.025-.006.025-.005.025-.004.025-.004.024-.003.025-.002.024-.002.024-.002h.025l.024-.001h.048z"/><path id="_443437328" class="fil1" d="m2.667 5.272 3.786 3.786-.005.003-.005.001H6.434L6.43 9.06l-.004-.002-.003-.003L2.636 5.27l.004.003.004.002.004.001.004.001h.005l.005-.002z"/><path id="_443437040" class="fil1" d="m3.2 5.011 3.787 3.787-.018.005-.018.006-.018.006-.017.006-.018.006-.018.006-.017.006-.017.007-.018.007-.017.007-.017.007-.017.007-.017.008-.017.007-.017.008-.016.008-.017.009-.017.008-.016.008-.016.01-.017.008-.016.01-.016.008-.016.01-.016.01-.016.01-.016.01-.016.01-.015.01-.016.01-.015.011-.016.011-3.786-3.786.015-.01.016-.012.015-.01.016-.01.016-.01.016-.01.015-.01.016-.01.017-.01.016-.01.016-.008.016-.01.017-.008.016-.008.017-.009.016-.008.017-.008.017-.008.017-.007.017-.008.017-.007.017-.007.017-.007.017-.007.018-.007.017-.006.018-.007.017-.006.018-.006.018-.005.018-.006z"/><path id="_443437352" class="fil1" d="m4.325 4.2 3.787 3.787-.03.053-.03.05-.027.049-.027.045-.025.043-.024.04-.024.039-.024.036-.023.034-.023.032-.023.03-.023.029-.024.026-.024.026-.026.023-.026.022-.028.021-.029.02-.03.018-.033.017-.035.017-.037.015-.039.015-.042.014-.044.013-.048.013-.05.012-.054.012-.058.012-.06.012-.066.011-.07.012L3.2 5.01 3.27 5l.065-.012.061-.011.058-.012.054-.012.05-.012.048-.013.044-.014.042-.013.04-.015.036-.016.034-.016.033-.017.03-.019.03-.02.028-.02.026-.022.025-.024L4 4.707l.024-.027.023-.028.023-.03.023-.032.023-.034.024-.037.023-.038.025-.04.025-.043.026-.046.028-.048.029-.05z"/><path id="_443437232" class="fil1" d="M4.124 2.689 7.91 6.475l.006.007.006.006.005.007.006.008.005.007.005.008.004.007.005.008.004.008.004.009.004.008.004.009.003.008.004.009.003.009.004.009.003.009.004.008.003.01.003.009.003.009.004.009.003.009.003.008.003.01.004.008.003.009.004.009.003.008.004.009-3.786-3.787-.004-.008-.004-.009-.003-.008-.004-.01-.003-.008-.003-.009-.003-.009-.004-.009-.003-.009-.003-.009-.003-.009-.004-.009-.003-.009-.003-.009-.004-.009-.003-.008-.004-.01-.004-.008-.003-.008-.004-.009-.005-.008-.004-.008-.004-.008-.005-.008-.005-.007-.005-.008-.005-.007-.005-.007-.006-.007z"/><path id="_443437256" class="fil1" d="m4.892 3.787 3.786 3.787-.004.015-.004.014-.005.013-.005.012-.006.011-.005.01-.006.01-.006.01-.007.008-.007.007-.006.007-.008.006-.007.006-.007.004-.008.005-.008.003-.008.004-.008.002-.008.002-.008.002-.009.002H8.53l-.009.001h-.035l-.009-.001H8.47l-.01-.002-.008-.001-.008-.002-3.787-3.786.009.001.009.002h.008l.01.002H4.7l.009.001h.034l.009-.002.008-.001.009-.002.008-.002.008-.003.008-.003.008-.004.007-.004.008-.005.007-.005.007-.006.007-.007.007-.008.006-.008.007-.009.005-.01.006-.01.006-.011.005-.013.004-.013.005-.014z"/><path id="_443437208" class="fil1" d="m4.768 2.935 3.786 3.787.015.021.014.022.014.022.012.023.012.023.01.023.01.024.01.025.008.024.007.025.007.025.006.026.006.026.004.026.005.026.003.027.003.027.002.028.002.028v.027l.001.029v.057l-.002.029-.001.029-.002.03-.003.029-.003.03-.003.03-.004.03-.004.03-.005.03-3.786-3.786.005-.03.004-.03.003-.03.004-.03.003-.03.002-.03.002-.03.002-.029.001-.028V3.406l-.002-.027-.003-.028-.002-.027-.004-.027-.004-.026-.005-.027-.005-.025-.006-.026-.007-.025-.008-.025-.008-.025-.01-.024-.009-.024-.01-.023-.012-.023L4.81 3l-.013-.022-.014-.022z"/><path id="_443437496" class="fil1" d="M4.625 2.691 8.41 6.478l.02.023.02.025.02.027.018.03.018.031.017.034.016.036.014.038-3.786-3.787-.015-.038-.015-.035-.017-.034-.018-.032-.019-.03-.019-.027-.02-.025z"/><path id="_637663504" class="fil1" d="M4.768 2.935c.165.227.174.526.124.852-.042.165-.143.164-.236.15-.032.172-.155.246-.33.264-.336.582-.364.687-1.126.81-.19.058-.37.143-.533.261-.027.016-.054-.019-.025-.041.116-.115.254-.204.405-.277-.253-.01-.519.039-.83.314-.044.038-.073-.022-.042-.058a.94.94 0 0 1 .645-.349c-.096-.1-.223-.069-.356-.052-.042.002-.062-.045-.012-.062a.704.704 0 0 1 .281-.033c-.07-.244.094-.485.443-.724-.205-.013-.328-.122-.39-.306a2.123 2.123 0 0 1-.227.368c.032.01.087 0 .096.029.003.009-.05.014-.105.036-.065.026-.14.068-.193.06-.183-.026-.133-.179-.406-.108-.038.002-.064-.036-.02-.058.09-.052.182-.034.273-.013-.01-.051-.03-.07-.099-.063-.024.008-.03-.034.004-.044.086-.037.126.017.157.09l.248-.421c-.05-.427-.137-.85-.414-1.253-.147-.239-.177-.443-.115-.62.174-.067.363-.063.554-.046.189-.202.413-.055.38.207.348.151.428.427.641.64.134.1.427.108.551.189.071.061.092.173.132.262.014-.496.375-.418.525-.004z"/></g></g><path d="M3.413 0a3.413 3.413 0 1 1 0 6.827 3.413 3.413 0 0 1 0-6.827z" style="fill:none"/><path d="M4.656 3.936c-.032.173-.155.247-.33.265-.336.582-.364.687-1.126.81-.19.058-.37.143-.533.261-.027.016-.054-.019-.025-.041.116-.115.254-.204.405-.277-.253-.01-.519.039-.83.314-.044.038-.073-.022-.042-.058a.94.94 0 0 1 .645-.349c-.096-.1-.223-.069-.356-.052-.042.002-.062-.045-.012-.062a.704.704 0 0 1 .281-.033c-.07-.244.094-.485.443-.724-.205-.013-.328-.122-.39-.306a2.123 2.123 0 0 1-.227.368c.032.01.087 0 .096.029.003.009-.05.014-.105.036-.065.026-.14.068-.193.059-.183-.025-.133-.178-.406-.107-.038.002-.064-.036-.02-.058.09-.052.182-.034.273-.013-.01-.051-.03-.07-.099-.063-.024.008-.03-.034.004-.044.086-.037.126.017.157.09l.248-.421c-.05-.427-.137-.85-.414-1.253-.147-.239-.177-.443-.115-.62.174-.067.363-.063.554-.046.189-.202.413-.055.38.207.348.151.428.427.641.64.134.1.427.108.551.189.071.061.092.173.132.262.014-.496.375-.418.525-.004.165.227.174.526.124.852-.042.165-.144.164-.236.15z" style="fill:#558b2f"/><path class="fil4" d="M2.812 3.619a.603.603 0 0 0 .053-.172c.067.214.262.387.514.46-.058.02-.09.032-.147.055-.265-.016-.392-.156-.42-.343zM3.08 4.46c.33-.395.462-.473.993-.55-.548.143-.582.194-.993.55zM2.826 4.77c.556.21 1.143-.259 1.454-.695-.377.421-.924.79-1.454.694z"/><path class="fil4" d="M4.292 3.917c-.387.347-.667.615-1.205.725.526-.125.769-.413 1.205-.725zM2.504 3.238c-.039-.716-.459-.897-.492-1.221.068.17.369.473.476.774-.121-.457-.473-.64-.484-.997.077.18.19.315.29.447.215.285.31.617.21.997zM2.144 1.678c.646-.013.885.415 1.271.889.32.392.586.016 1.063 1.104-.656-1.085-.847-.73-1.1-1.017-.355-.402-.601-.889-1.234-.976zM2.752 2.279c.02.063.017.137.058.19.028.036.093.02.128.05.036.028.04.085.074.115.045.039.094.034.134.078.123.135.206.33.346.448.18.15.423.21.616.343.14.095.251.226.377.339-.137-.102-.263-.219-.41-.306-.213-.127-.455-.19-.647-.348-.14-.114-.202-.302-.316-.442-.033-.04-.099-.042-.137-.079-.03-.03-.021-.087-.051-.117-.03-.03-.12-.038-.137-.063-.006.061-.063.137-.072.206-.007.053.028.104.014.156-.018.066-.053.11-.093.166.026-.055.069-.105.079-.166.009-.053-.032-.107-.025-.161.01-.073.063-.134.074-.207.01-.067-.008-.135-.012-.202zM4.409 2.69c.053.409.115.658.244 1.047-.083-.351-.164-.697-.244-1.047zM4.789 3.047c.12.263.068.52-.003.829.038-.276.069-.592.003-.829zM4.737 3.712c.046-.424-.033-.678-.189-1.017.135.34.19.657.189 1.017zM2.284 1.825h-.072a.556.556 0 0 0-.207-.122c.1.005.19.062.28.122z"/><ellipse cx="2.346" cy="1.982" rx=".104" ry=".114" style="fill:#a5d6a7"/><path d="M2.349 1.93a.063.063 0 1 1 0 .125.063.063 0 0 1 0-.126zm.014.027a.023.023 0 1 1-.043.01.038.038 0 0 0 .029.063.038.038 0 0 0 .014-.073zm-.01-.098c.063 0 .113.056.113.125 0 .068-.05.124-.112.124s-.113-.056-.113-.124c0-.07.05-.125.113-.125zm-.006.023c.05 0 .092.046.092.102 0 .056-.041.101-.092.101-.05 0-.092-.045-.092-.101 0-.056.041-.102.092-.102z" style="fill:#212121"/></g></svg>