<svg xmlns="http://www.w3.org/2000/svg" viewBox="0 0 300 300" xml:space="preserve"><path fill-rule="evenodd" clip-rule="evenodd" fill="#FBCB43" d="M203.825 129.113c45.354-8.74 69.567-33.543 60.827-64.724-12.874-4.843-30.472.472-51.85 20.433-4.016 3.78-8.622 8.504-12.992 2.244-3.425-4.843-4.961-32.362-5.787-40.512-2.244.945-4.725 1.181-7.087.473-.827 8.858-2.362 35.315-5.787 40.039-1.535 2.244-3.779 3.425-6.85 3.661-6.732-1.063-11.457-9.213-14.528-24.331-2.126-8.74-16.535-8.74-18.543 0-3.071 15.118-7.795 23.268-14.528 24.331-3.071-.236-5.315-1.417-6.85-3.661-3.425-4.724-4.961-31.181-5.905-40.039-2.244.709-4.725.472-6.969-.473-.827 8.15-2.362 35.669-5.787 40.512-4.37 6.26-8.976 1.535-12.992-2.244-21.378-19.961-39.095-25.276-51.85-20.433-8.74 31.181 15.472 55.984 60.827 64.724-.827 28.11 7.795 55.748 24.685 78.543-10.512 63.543 67.677 63.543 57.284 0 16.887-22.795 25.509-50.433 24.682-78.543z"/><path fill-rule="evenodd" clip-rule="evenodd" fill="#DEAA1D" d="M121.857 207.657c-10.512 63.543 67.677 63.543 57.284 0a125.924 125.924 0 0 0 24.685-77.008l-1.535-12.047-7.205 3.898c.236 6.26.591 12.52.354 18.78-1.181 20.669-8.268 40.63-20.787 57.52 8.858 53.622-57.165 53.622-48.307 0-14.291-19.252-21.496-42.52-20.906-66.26l.59-10.512-8.149-3.307-.827 11.929c-.355 27.518 8.267 54.684 24.803 77.007zM94.455 89.664a1305.577 1305.577 0 0 1-2.362 12.638C69.534 80.806 50.4 70.885 34.81 72.42c0 0 .945-2.834 2.953-8.504 16.298-4.015 35.196 4.607 56.692 25.748zM206.66 89.664c1.535 8.386 2.244 12.638 2.244 12.638 22.559-21.496 41.693-31.417 57.283-29.882 0 0-.945-2.834-2.953-8.504-16.299-4.015-35.196 4.607-56.574 25.748z"/><path fill-rule="evenodd" clip-rule="evenodd" fill="#8A6B17" d="M134.376 234.113c2.48 2.008 6.614 2.362 11.457.827-1.417-5.551-3.898-8.622-6.85-9.567-6.615-1.89-9.449 4.842-4.607 8.74z"/><path fill-rule="evenodd" clip-rule="evenodd" fill="#F14112" d="M126.463 116.593c2.716 0 4.961 2.126 4.961 4.843s-2.244 4.961-4.961 4.961-4.843-2.244-4.843-4.961 2.127-4.843 4.843-4.843z"/><path fill-rule="evenodd" clip-rule="evenodd" fill="#FBCB43" d="M111.345 27.893c5.315 0 9.685 4.37 9.685 9.803 0 5.315-4.37 9.685-9.685 9.685-5.433 0-9.803-4.37-9.803-9.685a9.779 9.779 0 0 1 9.803-9.803zM189.652 27.893c-5.315 0-9.803 4.37-9.803 9.803 0 5.315 4.488 9.685 9.803 9.685 5.433 0 9.803-4.37 9.803-9.685a9.779 9.779 0 0 0-9.803-9.803z"/><path fill-rule="evenodd" clip-rule="evenodd" fill="#8A6B17" d="M166.621 234.113c-2.48 2.008-6.732 2.362-11.457.827 1.417-5.551 3.898-8.622 6.85-9.567 6.614-1.89 9.449 4.842 4.607 8.74z"/><path fill-rule="evenodd" clip-rule="evenodd" fill="#F14112" d="M174.534 116.593c-2.717 0-4.961 2.126-4.961 4.843s2.244 4.961 4.961 4.961 4.842-2.244 4.842-4.961-2.125-4.843-4.842-4.843zM150.321 108.798c2.716 0 4.843 2.244 4.843 4.961s-2.126 4.961-4.843 4.961-4.961-2.244-4.961-4.961c.001-2.717 2.245-4.961 4.961-4.961z"/><path fill="#DEAA1D" d="M129.416 138.798c-.118-1.181.709-2.126 1.89-2.244 1.063 0 2.008.827 2.126 1.89.945 10.748 2.244 20.669 3.898 29.409 1.654 8.858 3.543 16.654 5.788 23.386.354 1.063-.118 2.244-1.181 2.598a2.072 2.072 0 0 1-2.598-1.299c-2.362-6.969-4.252-14.882-5.906-23.858a311.5 311.5 0 0 1-4.017-29.882zM167.566 138.444c.118-1.063 1.063-1.89 2.126-1.89 1.181.118 1.89 1.063 1.89 2.244-1.063 10.984-2.362 20.905-4.016 29.882s-3.661 16.89-5.906 23.858a2.071 2.071 0 0 1-2.598 1.299c-1.063-.354-1.535-1.535-1.181-2.598 2.244-6.732 4.134-14.528 5.787-23.386 1.653-8.74 2.953-18.661 3.898-29.409z"/><path fill="#DEAA1D" d="M105.676 94.389c1.063-.354 2.126.236 2.48 1.299.354 1.063-.236 2.126-1.299 2.48-4.606 1.535-8.504 3.898-11.102 6.496-1.535 1.654-2.598 3.307-2.953 5.079-.354 1.535-.118 3.189.827 4.606.945 1.535 2.598 2.953 4.961 4.134.827.472 1.181 1.299 1.063 2.126-1.417 15.236-.118 30.59 3.898 45.118 4.016 14.528 10.748 28.346 19.843 40.748.354.473.472.945.354 1.536-3.189 20.079 2.598 33.425 11.457 40.158 4.488 3.425 9.921 5.197 15.236 5.197 5.433 0 10.748-1.771 15.354-5.197 8.858-6.732 14.646-20.079 11.457-40.158-.118-.59 0-1.181.354-1.536 9.094-12.402 15.827-26.22 19.842-40.748 4.016-14.646 5.315-29.882 3.898-45.236-.118-.827.354-1.535 1.063-2.008 2.362-1.181 4.016-2.598 4.961-4.134.945-1.417 1.181-3.071.827-4.606-.354-1.772-1.417-3.425-2.953-5.079-2.598-2.598-6.496-4.961-11.102-6.496-1.063-.354-1.654-1.417-1.299-2.48.236-1.063 1.417-1.654 2.48-1.299 5.315 1.654 9.685 4.37 12.756 7.441 2.126 2.244 3.543 4.606 4.134 7.087.472 2.599.118 5.197-1.536 7.677-1.063 1.772-2.835 3.425-5.315 4.843 1.417 15.354 0 30.709-4.016 45.354-4.134 14.764-10.866 28.819-20.079 41.339 3.307 21.378-3.189 35.788-13.11 43.228-5.197 4.016-11.457 6.024-17.717 6.024-6.142 0-12.402-2.008-17.717-6.024-9.803-7.441-16.299-21.85-12.992-43.228-9.213-12.52-15.945-26.575-20.079-41.339-4.016-14.646-5.433-30-4.134-45.354-2.362-1.417-4.134-3.071-5.197-4.843-1.654-2.48-2.126-5.079-1.535-7.677.591-2.48 2.008-4.842 4.134-7.087 2.953-3.071 7.441-5.788 12.756-7.441z"/><path fill-rule="evenodd" clip-rule="evenodd" fill="#FFF" d="M97.408 141.042a6660.65 6660.65 0 0 0 1.063 10.039c3.898 6.142 11.811 8.268 18.307 4.961-3.543-7.913-10.866-13.582-19.37-15z"/><path d="M104.613 144.586c0-1.063.945-2.008 2.008-2.008 1.181 0 2.008.945 2.008 2.008v6.142c0 1.063-.827 2.008-2.008 2.008-1.063 0-2.008-.945-2.008-2.008v-6.142z"/><path fill="#DEAA1D" d="M96.936 143.05c-1.063-.354-1.772-1.417-1.535-2.48.236-1.063 1.299-1.771 2.362-1.535 6.732 1.535 11.811 4.37 15.709 8.386 3.78 4.134 6.496 9.331 8.504 16.063.354 1.063-.236 2.126-1.299 2.48-1.063.354-2.126-.236-2.48-1.299-1.89-6.142-4.252-10.866-7.677-14.409-3.309-3.544-7.679-5.907-13.584-7.206z"/><path fill="#DEAA1D" d="M115.951 154.153c.945-.472 2.126 0 2.599.945.472 1.063.118 2.244-.945 2.717-3.78 1.772-8.15 2.244-12.047 1.181-3.78-1.063-7.087-3.307-8.858-6.968-.591-.945-.118-2.244.827-2.717.945-.473 2.244-.118 2.716.945 1.299 2.48 3.661 4.134 6.378 4.842 2.952.826 6.378.472 9.33-.945z"/><path fill="#DEAA1D" d="M104.613 144.586c0-1.063.945-2.008 2.008-2.008 1.181 0 2.008.945 2.008 2.008v6.142c0 1.063-.827 2.008-2.008 2.008-1.063 0-2.008-.945-2.008-2.008v-6.142z"/><path fill-rule="evenodd" clip-rule="evenodd" fill="#FFF" d="M203.353 141.042c-.709 6.732-1.063 10.039-1.063 10.039-4.016 6.142-11.929 8.268-18.425 4.961 3.661-7.913 10.866-13.582 19.488-15z"/><path d="M192.014 144.586c0-1.063.945-2.008 2.008-2.008 1.063 0 2.008.945 2.008 2.008v6.142c0 1.063-.945 2.008-2.008 2.008-1.063 0-2.008-.945-2.008-2.008v-6.142z"/><path fill="#DEAA1D" d="M202.88 139.034c1.063-.236 2.126.473 2.362 1.535a2.115 2.115 0 0 1-1.417 2.48c-6.024 1.299-10.394 3.661-13.701 7.205s-5.669 8.268-7.677 14.409c-.236 1.063-1.417 1.654-2.48 1.299-1.063-.354-1.653-1.417-1.299-2.48 2.126-6.732 4.725-11.929 8.622-16.063 3.898-4.014 8.858-6.849 15.59-8.385z"/><path fill="#DEAA1D" d="M183.038 157.814c-.945-.472-1.417-1.653-.945-2.717.473-.945 1.654-1.417 2.717-.945 2.953 1.417 6.26 1.772 9.331.945 2.717-.709 5.079-2.362 6.378-4.842a1.889 1.889 0 0 1 2.598-.945c1.063.472 1.417 1.772.945 2.717-1.89 3.661-5.197 5.905-8.976 6.968-3.898 1.063-8.269.591-12.048-1.181z"/><path fill="#DEAA1D" d="M192.014 144.586c0-1.063.945-2.008 2.008-2.008 1.063 0 2.008.945 2.008 2.008v6.142c0 1.063-.945 2.008-2.008 2.008-1.063 0-2.008-.945-2.008-2.008v-6.142z"/></svg>