<svg xmlns="http://www.w3.org/2000/svg" xml:space="preserve" width="655.359" height="655.359" style="shape-rendering:geometricPrecision;text-rendering:geometricPrecision;image-rendering:optimizeQuality;fill-rule:evenodd;clip-rule:evenodd" viewBox="0 0 6.827 6.827"><defs><clipPath id="id0"><path d="M3.413 0a3.413 3.413 0 1 1 0 6.827 3.413 3.413 0 0 1 0-6.827z"/></clipPath><style>.fil1{fill:#29b6f6}.fil3{fill:#3e2723}.fil4{fill:#4e342e}.fil7{fill:#6d4c41}</style></defs><g id="Layer_x0020_1"><path d="M3.413 0a3.413 3.413 0 1 1 0 6.827 3.413 3.413 0 0 1 0-6.827z" style="fill:#81d4fa"/><g style="clip-path:url(#id0)"><g id="_637662952"><path id="_4434376881" class="fil1" d="m4.051 1.609 3.787 3.786.01.013.012.013.01.014.012.013.01.014.01.014.01.015.01.014.009.015.01.015.008.016.008.015.009.016.008.017.007.016.007.017.007.018.007.017.006.019.006.018.005.019.005.019.005.02.004.02.004.02.004.02.003.022-3.787-3.786-.003-.022-.003-.02-.004-.02-.004-.02-.005-.02-.005-.02-.005-.018-.006-.019-.007-.018-.006-.017-.007-.018-.007-.017-.008-.017-.008-.016-.008-.016-.008-.016-.01-.015-.008-.015-.01-.015-.01-.015-.01-.014-.01-.014-.01-.014-.01-.014-.011-.013-.011-.013z"/><path id="_443437712" class="fil1" d="m4.391 2.128 3.786 3.786.005.006.005.006.005.006.004.007.004.007.004.007.003.007.003.008.003.008.002.008.002.009.002.009.002.009-3.787-3.786-.001-.01-.002-.009-.002-.008-.003-.009-.002-.008-.003-.007-.004-.008-.003-.007-.004-.006-.005-.007-.004-.006-.005-.006z"/><path id="_443437904" class="fil1" d="M4.434 2.225 8.221 6.01 4.433 2.225z"/><path id="_443437880" class="fil1" d="M4.434 2.225 8.22 6.01l.048.14-3.786-3.787z"/><path id="_443438480" class="fil1" d="m4.946 2.625 3.787 3.786.02.024.02.026.017.026.017.028.015.029.015.03.013.031.011.033.01.034.009.035.007.037.005.038.004.04.002.04v.043L5.113 3.119v-.043l-.002-.04-.004-.04-.005-.038-.008-.037-.008-.035-.01-.034-.012-.033-.013-.031-.014-.03-.015-.03-.017-.027-.018-.026-.02-.026z"/><path id="_443438672" class="fil1" d="M5.112 3.119 8.9 6.905v.334L5.112 3.453z"/><path id="_443438984" class="fil1" d="m4.169 4.517 3.786 3.786H7.95l-.005-.001h-.006L7.933 8.3H7.9l-.007.001-.007.001-.008.001-.007.001-.007.001-.007.002-.007.001-.007.002-.006.001-.007.002-.006.001-.006.002-.006.002-.006.002-.005.002-.005.002-.005.002-.004.002-.003.002-.004.002-.003.002-.002.002-.001.003-3.787-3.787.002-.002.002-.002.003-.002.003-.002.004-.002.004-.002.005-.002.005-.002.005-.002.005-.002.006-.002.006-.002.007-.002.006-.001.007-.002.007-.001.007-.002h.007l.007-.002.007-.001.007-.001h.007l.007-.001.007-.001h.038l.006.001z"/><path id="_443438576" class="fil1" d="M3.987 4.553 7.774 8.34l.002.02.001.02.002.02.002.02.001.021.002.02.001.02.001.021.001.02.001.021v.02l.001.021v.02l.001.021V8.73l-.001.02v.02l-.002.022v.02l-.002.02-.001.022-.002.02-.002.021-.002.02-.002.021-.002.021-.002.02-.003.022L3.983 5.21l.002-.02.003-.021.002-.02.002-.022.002-.02.002-.021.001-.02L4 5.045 4 5.025l.001-.02.001-.021v-.021l.001-.02v-.021l.001-.021V4.799l-.001-.021-.001-.02L4 4.736 4 4.717l-.001-.021-.002-.02-.001-.021-.001-.02-.002-.02-.002-.021-.002-.02z"/><path id="_443438600" class="fil1" d="M5.112 3.453 8.9 7.239l-.006.06-.006.059-.006.059-.007.058-.007.058-.007.058-.008.057-.008.057-.009.057-.009.056-.009.055-.01.056-.01.055-.01.054-.011.055-.011.053-.012.054-.012.053-.013.053-.012.052-.013.052-.014.052-.014.05-.014.052-.014.05-.015.05-.016.05-.015.05-.016.049-.016.049-.017.048-.017.048-3.786-3.786.017-.048.016-.049.017-.048.016-.05.015-.049.015-.05.015-.05.015-.05.014-.051.014-.052.013-.051.013-.052.013-.053.013-.052.012-.053.011-.054.011-.054L5 4.252l.01-.055.011-.054.01-.056.01-.056.008-.056.009-.056.008-.057.008-.057.007-.058.007-.058.007-.059.006-.058.006-.06z"/><path id="_443438648" class="fil1" d="m4.749 5.172 3.786 3.786-.017.004-.017.004-.018.004-.018.003-.02.003-.018.003-.02.003-.02.002-.021.002-.02.001-.022.001-.021.001-.022.001h-.107l-.022-.002-.021-.001-.021-.002-.02-.002-.021-.002-.02-.002-.02-.003-.02-.003-.018-.004-.018-.003-.018-.004-.017-.004-.016-.005-.016-.005L4.12 5.162l.016.005.016.004.017.005.018.003.018.004.019.003.019.003.02.003.02.003.02.002.02.002.022.001.02.002h.022l.022.002H4.516l.022-.002.02-.001.022-.002.02-.002.02-.002.02-.002.02-.003.019-.003.018-.003.018-.004.017-.004z"/><path id="_443439104" class="fil1" d="m2.865 4.237 3.787 3.787-.01.02-.011.021-.01.021-.011.021-.01.02-.011.022-.011.02-.01.02-.011.021-.011.021-.01.02-.012.021-.01.02-.011.021-.01.021-.011.02-.011.021-.01.021-.011.02-.01.022-.011.02-.01.021-.011.021-.01.021-.01.021-.011.021-.01.021-.01.022-.01.021-.01.022-.01.021-.01.022-3.786-3.786.01-.022.01-.022.01-.021.01-.022.01-.02.01-.022.01-.021.01-.021.01-.021.01-.021.011-.02.01-.022.011-.02.011-.021.01-.02.011-.022.011-.02.01-.02.011-.021.011-.021.01-.02.012-.021.01-.02.011-.021.01-.021.011-.02.01-.021.012-.021.01-.02.01-.022.011-.02z"/><path id="_443438744" class="fil1" d="m3.206 4.89 3.787 3.785-.004.008-.003.008-.003.007-.002.008-.003.008-.002.007-.002.008-.002.007-.001.008-.002.008-.001.007-.001.008-.001.008-.001.007v.008l-.001.008-3.787-3.786v-.008l.001-.008.001-.007.001-.008.001-.008.002-.007.001-.008.002-.008.002-.007.002-.008.002-.008.003-.007.002-.008.003-.008.003-.007z"/><path id="_443439224" class="fil1" d="m3.177 5.012 3.787 3.786h-.005l-.005-.002H6.945l-.005-.001-.004-.001H6.93l-.005-.001h-.005l-.004-.001h-.005l-.005-.001h-.005l-.004-.001h-.005l-.005-.001h-.005l-.004-.001h-.005l-.005-.001-.005-.001H6.86l-.005-.001-.004-.001h-.005l-.004-.002h-.005l-.004-.001-.005-.001-.004-.001-.004-.001-.004-.001L3.029 4.99l.004.002h.005l.004.002h.004l.005.001.004.001.005.001h.004l.005.001.005.001h.004L3.083 5l.005.001h.004l.005.001h.005l.005.001h.004l.005.001h.005l.005.001h.004l.005.001h.005l.005.001h.004l.005.001h.005l.005.002H3.173z"/><path id="_443439272" class="fil1" d="m3 4.552 3.786 3.786-.006-.006-.007-.006-.007-.005-.008-.006-.007-.005-.007-.006-.008-.005-.007-.005-.007-.006-.007-.005-.007-.005-.007-.006-.007-.005-.006-.006-3.786-3.786.006.005.006.006.007.005.007.006.008.005.007.005.007.006.008.005.007.005.007.006.007.005.007.006.007.006z"/><path id="_443438816" class="fil1" d="m2.97 4.261 3.786 3.787-.006-.002-.006-.002-.007-.002-.006-.001-.006-.002-.007-.002-.006-.001-.007-.002-.006-.001-.007-.002-.006-.001-.007-.002h-.007l-.006-.002-.007-.001-.007-.001-3.787-3.787.007.001.007.002h.007l.007.002.006.002.007.001.007.001.006.002.007.002.006.001.006.002.007.001.006.002.006.002.007.002z"/><path id="_443440064" class="fil1" d="m3.286 4.81 3.786 3.786-.005.005-.006.004-.005.005-.006.004-.005.004-.006.004-.005.004-.006.004-.005.005-.005.004-.005.005-.004.005-.005.006L7 8.661l-.004.007-.003.008-3.787-3.787.004-.007.004-.007.004-.006.004-.006.005-.005.005-.005.005-.005.005-.004.005-.004.006-.004.005-.004.006-.004.006-.005.005-.004.006-.005z"/><path id="_443439968" class="fil1" d="m3.983 5.211 3.786 3.787-.02.005-.022.006-.023.006-.023.005-.024.006-.024.005-.025.005-.025.005-.026.004-.026.004-.027.004-.027.003-.027.003-.027.002-.027.002-.027.002h-.027l-.027.001h-.053l-.027-.002-.026-.002-.025-.003-.025-.004-.025-.004-.024-.005-.023-.006-.023-.006-.021-.008-.021-.009-.02-.009-.02-.01L3.196 5.21l.02.01.02.01.02.009.022.007.023.007.023.006.024.005.024.004.025.004.026.003.026.002.026.001h.027l.027.001h.027l.027-.001.027-.002.027-.002.027-.002.027-.003.027-.004.026-.003.027-.004.025-.005.026-.004.025-.005.024-.005.024-.006.023-.005.022-.006.022-.006z"/><path id="_443439416" class="fil1" d="m2.616 4.94 3.787 3.787.004.004.005.005.004.005.004.005.004.005.003.006.003.007.003.006.002.007.002.007.001.008.001.008.001.009V8.837l-.001.01-.001.01-.002.012-3.787-3.787.002-.01.002-.011v-.01l.001-.01V5.014l-.002-.008-.001-.008-.002-.007-.003-.007-.002-.007-.003-.006-.003-.006-.004-.005-.004-.006-.004-.005-.005-.004z"/><path id="_443439848" class="fil1" d="M2.65 5.082 6.435 8.87l-.02.003-.02.003-.021.002-.021.002-.022.003-.022.002-.022.001-.023.002h-.023l-.023.002h-.023l-.024.001H6.15l-.024.001H6.03l-.024-.001-.023-.001-.024-.001-.023-.001-.024-.001-.022-.002-.023-.001-.023-.002-.022-.002-.021-.002-.022-.002-.02-.002-.02-.002-.02-.002-3.787-3.787.02.003.02.002.021.002.021.002.022.002.022.002.023.001.022.002.023.001.023.001.024.002h.023l.024.001h.024l.023.001h.143l.023-.001.023-.001.023-.002.023-.001.022-.002.022-.002.021-.002.022-.002.02-.003.02-.003z"/><path id="_637662616" class="fil1" d="M3.992 1.547a.833.833 0 0 1 .265.51c.09.025.164.067.177.168l.048.14c.336.087.636.294.63.754v.334a6.838 6.838 0 0 1-.363 1.719 1.352 1.352 0 0 1-.629-.01.408.408 0 0 1 0-.255c.053-.042.132-.059.177-.108l-.001-.003c-.035-.075-.082-.173-.127-.28-.053-.01-.167.015-.182.037.022.216.025.437-.004.658-.217.064-.588.117-.787 0-.062-.178.034-.277.109-.373a.4.4 0 0 0-.019-.029c-.029.028-.062.039-.08.08a.348.348 0 0 0-.029.123c-.048-.008-.103-.01-.148-.022-.03-.104-.053-.169-.075-.281.022-.044.061-.07.078-.118-.042-.078-.178-.107-.169-.198.004-.038.079-.117.107-.132-.034-.009-.067-.018-.105-.024-.11.224-.231.437-.334.669.084.014.14.056.118.176a2.895 2.895 0 0 1-.717 0c-.04-.058-.059-.137-.079-.216V4.7c-.01-.284.277-.4.305-.638.016-.14-.06-.286-.05-.423.017-.224.167-.333.434-.326a.994.994 0 0 1-.063-.43c.02-.26.15-.552.422-.569h.043l.086-.05c.226-.317.505-.582.913-.716h.049z"/></g></g><path d="M3.413 0a3.413 3.413 0 1 1 0 6.827 3.413 3.413 0 0 1 0-6.827z" style="fill:none"/><path class="fil3" d="M2.944 2.312c.176.024.268.137.37.197a.652.652 0 0 0-.285-.245l.001-.001-.086.05z"/><path class="fil4" d="M2.158 4.06c-.028.238-.315.355-.305.64v.166c.02.079.039.158.079.216.21.026.51.035.717 0 .023-.12-.034-.162-.118-.176.103-.232.224-.445.334-.669.046.007.085.02.126.03.001-.072.02-.143.035-.214a.366.366 0 0 1 .013-.067c-.051-.06-.104-.118-.154-.179a2.312 2.312 0 0 1-.192-.261 1.417 1.417 0 0 1-.117-.233c-.288-.017-.45.092-.467.325-.01.137.065.283.049.423z"/><path d="M2.48 2.883c-.04.516.335.876.54 1.12-.016.125-.064.247-.05.354.028.202.25.338.335.481-.075.096-.171.195-.109.373.199.117.57.064.787 0 .077-.576-.068-1.156-.187-1.63.083.093.151.286.187.461.08-.013.14-.05.206-.078-.025.092-.126.12-.138.206-.011.083.066.222.108.324.049.116.101.225.138.305-.045.05-.124.066-.177.108a.408.408 0 0 0 0 .255c.163.052.455.056.629.01.183-.512.308-1.08.363-1.72V3.12c.006-.464-.3-.67-.638-.757 0 .076-.022.129-.02.206-.036-.007-.042.017-.078.01.03.034.104.07.088.118-.073.006-.163.047-.177.079.093-.025.18-.056.305-.05-.03.17-.113.288-.256.344-.18-.047-.327-.205-.196-.402-.11.087-.302.03-.374-.06-.006-.055.032-.066.04-.107-.036-.05-.077-.165-.03-.236.16.006.306.028.442.059.062-.043.149-.061.216-.098-.013-.101-.086-.143-.177-.167a.833.833 0 0 0-.265-.511h-.049c-.409.135-.688.4-.914.717.11.066.21.144.285.245-.108-.072-.204-.209-.413-.196-.272.017-.402.309-.422.57z" style="fill:#5d4037"/><path class="fil4" d="M2.863 4.393c-.009.09.127.12.169.198-.017.049-.056.074-.078.118.022.112.046.177.075.281.045.013.1.014.148.022a.348.348 0 0 1 .03-.123c.02-.048.061-.055.092-.094a.956.956 0 0 0-.049-.057c-.037-.04-.075-.078-.11-.118A.645.645 0 0 1 3 4.394c-.007-.022-.018-.107-.021-.13v-.005c-.017-.003-.111.091-.116.134z"/><path class="fil3" d="M4.228 2.52c-.054.008-.034.071-.03.117.014-.016.056-.003.07-.02-.004-.042-.03-.062-.04-.098zM4.257 2.52c.018.028.031.06.05.088.011-.012.034-.011.059-.01-.03-.034-.053-.072-.109-.079z"/><path d="M4.123 2.684a.27.27 0 0 1-.18.025.314.314 0 0 1-.18-.098l-.001-.001v-.002c-.004-.03.004-.046.02-.07a.1.1 0 0 0 .018-.037c-.042-.062-.072-.173-.028-.24l.002-.002h.002c.15.006.296.026.441.059.063-.044.143-.06.21-.095l.005-.003.052.15-.006-.002c0 .068-.021.132-.019.2v.006h-.006a.057.057 0 0 0-.037.004.073.073 0 0 1-.027.006c.033.031.095.067.08.114l-.002.003h-.003a.306.306 0 0 0-.056.01.278.278 0 0 0-.11.056l.025-.007c.041-.012.082-.023.124-.03a.643.643 0 0 1 .145-.01l.005.001v.005c-.03.16-.105.287-.26.348h-.002c-.096-.025-.198-.086-.236-.182a.234.234 0 0 1 .024-.208zm.23-.2c.027-.04.042-.089.062-.133a.925.925 0 0 1-.26.033c-.102.001-.204-.005-.305-.007 0 .009.002.017.005.025.024.061.125.102.177.141.06-.018.095-.061.144-.096l.002-.002h.002l.06.017a.394.394 0 0 0 .113.023zm-.086.042c.014.024.026.05.04.075.013-.008.032-.009.048-.008-.026-.031-.046-.059-.088-.067zm-.065.102c.018-.009.05-.002.06-.012-.003-.037-.027-.058-.038-.091a.034.034 0 0 0-.02.013c-.014.02-.005.063-.002.09z" style="fill:#a1887f"/><path class="fil3" d="M3.838 2.37c0 .088.123.13.191.181.064-.02.102-.065.15-.1.062.012.11.039.182.04.03-.044.046-.101.07-.151-.163.055-.376.035-.593.03z"/><path class="fil4" d="M3.78 3.55c.08.294.168.658.206 1.007.005-.027.163-.059.201-.033a3.78 3.78 0 0 1-.013-.03c-.047-.102-.131-.241-.119-.324.014-.087.124-.127.151-.22-.073.03-.13.063-.218.077-.039-.175-.117-.383-.209-.477z"/><path class="fil7" d="M3.962 3.279c.09.246.238.5.361.73.007.013.038.08.046.09v-.1c.043.115.072.272.105.36.017-.015.004-.039.037-.067.024.022-.033.214 0 .349l.006.02a.322.322 0 0 1 .009.063l.004-.012c-.07.08.126-.176.109-.566l-.001-.02c-.003-.057 0-.117 0-.175v.104c0-.248.126-.415.116-.647-.002-.032-.005-.063-.005-.095 0 .028-.003.113.003.134.023-.264.089-.33.033-.571-.004-.02-.006-.006-.006-.035-.01-.003-.004-.005-.011-.016-.016.014-.033.149-.045.177-.01-.011-.024-.032-.034-.042a.316.316 0 0 0-.076.116c-.073-.17-.052.156-.154.045-.052-.057-.085.025-.145.06l-.033-.015c-.038-.017-.056-.016-.088-.043-.063.029.017.102-.28-.033l-.01-.005c-.015-.007-.022-.017-.027-.02l-.003.01c.001.047.078.174.089.204z"/><path class="fil7" d="M4.296 4.796c.242-.006.314-.086.314-.328 0-.003-.008-.007-.008-.01 0-.12-.097-.391-.12-.507a6.39 6.39 0 0 1-.011-.401c-.036.003-.496-.453-.6-.48a.376.376 0 0 0-.118-.016c-.025.031-.071.013-.091.07-.012.002.147.432.131.441.086.1.158.296.195.462.089-.014.145-.047.218-.076-.027.092-.137.132-.15.219-.013.083.071.222.118.324l.013.03a.053.053 0 0 0-.018-.007c.045.106.092.204.127.279z"/></g></svg>