<svg xmlns="http://www.w3.org/2000/svg" xml:space="preserve" width="655.359" height="655.359" style="shape-rendering:geometricPrecision;text-rendering:geometricPrecision;image-rendering:optimizeQuality;fill-rule:evenodd;clip-rule:evenodd" viewBox="0 0 6.827 6.827"><defs><clipPath id="id0"><path d="M3.413 0a3.413 3.413 0 1 1 0 6.827 3.413 3.413 0 0 1 0-6.827z"/></clipPath><clipPath id="id1" style="clip-rule:nonzero"><path d="M4.497 3.332c.152.081.326.176.345.298.008.046-.048.074-.147.09-.492.052-.992.036-1.486.025l-.127-.002a.472.472 0 0 1-.34-.147.508.508 0 0 1-.142-.353c0-.093.035-.177.093-.24a.334.334 0 0 1 .162-.097c-.061.212 1.218.074 1.642.426z"/></clipPath><style>.fil15{fill:#44691a}.fil5{fill:#6e6742}.fil1{fill:#ff8a65}.fil3,.fil9{fill:#365414;fill-rule:nonzero}.fil9{fill:#44691a}</style></defs><g id="Layer_x0020_1"><path d="M3.413 0a3.413 3.413 0 1 1 0 6.827 3.413 3.413 0 0 1 0-6.827z" style="fill:#ffab91"/><g style="clip-path:url(#id0)"><g id="_637651432"><path id="_6559592161" class="fil1" d="m5.276 2.673 3.787 3.786.003.016L5.28 2.688z"/><path id="_655958784" class="fil1" d="m5.28 2.688 3.786 3.787-.004.027-.004.027-.006.028-.006.027-.007.026-.008.027-.01.026-.01.026-.012.025-.012.025-.014.025-.015.024-.017.024-.018.023-.019.023-.02.022-.022.022-.024.021-.025.02-.027.02-.028.02-.03.018-.032.018-.033.017-.036.016-.037.015-.039.015-.04.014-.044.013-.045.012-.047.01-.049.01L4.54 3.356l.05-.01.046-.01.045-.013.043-.013.041-.013.039-.015.037-.015.035-.016.034-.017.032-.018.03-.019L5 3.177l.027-.02.025-.02.023-.021.022-.022.021-.022.02-.023.017-.023.016-.024.016-.024.013-.025.013-.025.012-.026.01-.025.01-.026.008-.027.007-.027.006-.027.006-.027.004-.027z"/><path id="_655959768" class="fil1" d="M4.785 3.523 8.57 7.31l.008.009.008.009.007.01.006.009.006.01.006.009.004.01.004.01.004.01.003.01.002.01L4.842 3.63l-.002-.01-.002-.01-.004-.01-.004-.01-.005-.01-.005-.01-.006-.01-.007-.009-.007-.01-.007-.008z"/><path id="_655959720" class="fil1" d="M4.842 3.63 8.63 7.416v.016l-.002.004v.004l-.003.004-.002.003-.002.004-.003.003-.003.003-.003.004-.004.003-.004.003-.004.003-.004.003-.005.002-.006.003-.005.003-.006.002-.006.002-.007.003-.006.002-.007.002-.008.002-.007.002-.008.002-.008.002-.008.002-.009.001-.009.002-.009.001L4.695 3.72l.009-.001.009-.002.008-.002.009-.001.008-.002.008-.002.007-.002.007-.002.007-.002.007-.003.007-.002.006-.002.006-.003.005-.002.005-.003.005-.003.005-.003.004-.002.004-.004.004-.003.003-.003.003-.003.003-.003.002-.004.002-.003.002-.004.001-.004.001-.004v-.012z"/><path id="_655959576" class="fil1" d="M4.695 3.72 8.48 7.506l-.006.001h-.007l-.006.001-.007.001H8.45l-.007.001-.006.001h-.007l-.006.001h-.006l-.007.001-.006.001h-.007l-.006.001h-.007l-.006.001H8.37l-.006.001-.006.001h-.007l-.006.001h-.007l-.006.001h-.007l-.006.001h-.007l-.006.001H8.3l-.006.001h-.006l-.007.001h-.006L4.488 3.738H4.501l.007-.001h.006l.007-.001h.006l.007-.001h.006l.006-.001h.007l.006-.001h.007l.006-.001h.007l.006-.001h.007l.006-.002H4.611l.006-.001h.007l.006-.001.007-.001h.006l.007-.001h.006l.007-.002h.012l.007-.002h.006z"/><path id="_655959624" class="fil1" d="M2.934 2.362 6.721 6.15l-.047.01-.048.007-.049.006-.049.004-.05.002h-.1l-.052-.002-.05-.003-.051-.004-.05-.005-.05-.006-.05-.007-.049-.006-.048-.007-.047-.007-.046-.007-.045-.007-.043-.006-.042-.006-.04-.006-.04-.004-.036-.004-.035-.002-.032-.001h-.03l-.028.001-.025.004-.022.005-.02.007-.016.01-.013.01L1.632 2.34l.013-.011.016-.01.02-.006.022-.006.025-.003.028-.002h.03l.032.002.035.002.036.004.039.004.04.005.042.006.044.007.045.007.046.007.047.007.048.006.049.007.05.006.05.006.05.005.05.005.051.003.051.002h.101l.05-.002.05-.004.048-.006.048-.008z"/><path id="_655959792" class="fil1" d="m4.07 3.755 3.786 3.786H7.81l-.023.001h-.302l-.023-.001h-.046l-.023-.001h-.024l-.023-.001h-.023L7.3 7.537h-.046l-.024-.001h-.023l-.023-.001h-.023l-.023-.001-.023-.001-3.786-3.786h.046l.023.001h.023l.023.001h.023l.023.001h.024l.023.001h.023l.023.001h.046l.024.001h.046l.023.001h.07l.023.001H4.047z"/><path id="_655960704" class="fil1" d="M4.139 3.754 7.925 7.54l-.007.01-.007.009-.007.01-.007.009-.006.01-.007.009-.006.009-.007.009-.006.01-.006.008-.006.01-.005.008-.005.009-.006.008-.005.009-.004.008-.005.008-.004.008-.003.008-.004.008-.003.007-.003.007-.002.007-.002.007-.002.006-.001.007-.001.006v.021l.002.004-3.786-3.786L4.013 4l-.001-.005V3.97l.002-.006.001-.006.002-.007.003-.007.003-.007.003-.008.003-.007.004-.008.004-.008.005-.008.004-.009.005-.008.005-.009.006-.008.005-.01.006-.008.006-.01.006-.008.006-.01.007-.009.006-.01.007-.008.007-.01.007-.01.007-.009z"/><path id="_655960080" class="fil1" d="M4.014 4.003 7.8 7.79l.002.004.002.002-3.786-3.786-.002-.003z"/><path id="_655960152" class="fil1" d="m4.172 4.036 3.786 3.787.003.003.002.003v.008l-.001.004-3.787-3.786.002-.004v-.008l-.003-.003z"/><path id="_655960536" class="fil1" d="m4.274 4.48 3.787 3.786h-.003l-.004-.001h-.017L4.25 4.478H4.268l.003.001z"/><path id="_655960776" class="fil1" d="m4.25 4.478 3.787 3.787H8.02l-.008-.001h-.008l-.007-.002-.007-.001-.007-.002-.007-.003-.006-.004-.006-.004-.005-.005-3.786-3.787.005.006.006.004.006.004.007.003.006.002.008.001.007.001h.007l.008.001h.008z"/><path id="_655960488" class="fil1" d="M4.175 4.055 7.962 7.84l-.003.004-.003.003-.004.002-.005.002-.005.001-.005.001H7.93l-.005-.001L4.14 4.067h.016l.005-.001.005-.002.004-.003.003-.003z"/><path id="_655960728" class="fil1" d="m4.14 4.067 3.786 3.786h-.002l-.002-.001h-.003l-.004-.002H7.91l-.005-.002H7.9l-.006-.002-.006-.001-.007-.001-.006-.002h-.007L7.86 7.84h-.008l-.007-.001L4.06 4.053h.007l.007.001.007.001.007.001.007.001.007.001.006.002h.006l.005.002.005.001.005.001h.003l.003.002h.004z"/><path id="_655960464" class="fil1" d="m4.06 4.053 3.786 3.786H7.827L4.04 4.051h.017z"/><path id="_655960560" class="fil1" d="m4.04 4.052 3.787 3.786h-.032l-.006-.002-.005-.001-.006-.002-.005-.002-.004-.002-.005-.003-.004-.004-3.787-3.786.005.003.004.004.005.002.005.002.005.002h.006l.006.002H4.027l.007.001z"/><path id="_655960104" class="fil1" d="m4.347 3.747 3.786 3.786h-.02l-.006.001h-.02l-.006.001h-.02l-.006.001H8.036l-.007.001H8.003l-.007.001H7.97l-.006.001h-.033l-.006.001-3.786-3.786H4.165l.006-.001h.033l.006-.001h.02l.006-.001H4.262l.007-.001H4.288l.007-.001H4.308l.006-.001h.02l.006-.001z"/><path id="_655960656" class="fil1" d="M4.218 4.393 8.004 8.18l.002.005.003.004-3.786-3.786-.003-.004z"/><path id="_655961472" class="fil1" d="m4.488 3.738 3.787 3.786-.011.022-.012.021-.012.023-.012.022-.012.023-.012.023-.012.024-.013.023-.012.024-.013.023-.012.024-.012.024-.012.023-.012.023-.01.023-.012.023-.01.023-.01.022-.01.022-.009.021-.008.02-.007.021-.007.02-.006.018-.005.019-.004.017-.004.016-.002.016-.001.015v.014l.001.012.002.012-3.786-3.787-.002-.011-.001-.013V4.341l.003-.016.003-.016.005-.018.005-.018.006-.019.006-.02.008-.02.008-.02.009-.021.01-.022.01-.022.01-.023.01-.023.012-.023.012-.023.012-.024.012-.023.012-.024.012-.024.013-.023.012-.024.013-.023.012-.023.012-.023.012-.023.012-.022.011-.022z"/><path id="_655960920" class="fil1" d="m4.416 4.483 3.786 3.786-.001.003-.002.004-.002.002-.002.003-.002.002-.003.002-.003.002-.002.002H8.18l-.003.002h-.016l-.004-.001-3.786-3.786h.003l.004.001H4.392l.003-.001.003-.002.003-.001.003-.002.003-.002.002-.002.002-.003.002-.003.002-.003z"/><path id="_655960944" class="fil1" d="M4.372 4.504 8.158 8.29l-.002-.001h-.003l-.004-.002-.004-.002-.005-.001-.006-.002-.007-.002-.007-.002-.008-.002-.008-.002-.008-.002-.01-.002-.008-.002-.009-.001-.008-.001-3.787-3.787.01.002h.008l.009.003.008.001.009.002.008.002.007.002.008.002.006.002.006.002.006.002.004.002h.004l.003.002h.001z"/><path id="_655961256" class="fil1" d="m2.21 2.877 3.787 3.786.005.005.006.006.005.005.005.006.005.006.005.006.005.005.005.006.004.007-3.786-3.787-.005-.006-.004-.006-.005-.006-.005-.005-.005-.006-.005-.006-.006-.005-.005-.006z"/><path id="_655961232" class="fil1" d="m1.632 2.34 3.786 3.786-.006.006-.004.008-.005.007-.003.008-.003.01-.002.008-.002.01v.033l.001.012.002.013.002.013.003.014.004.014.005.015.005.016.006.016.006.017.007.018.008.018.008.019.01.02.01.02.01.02.01.022.012.022.013.023.013.024.013.024.014.025.015.026-3.786-3.786-.015-.026-.014-.025-.014-.025-.013-.023-.012-.023-.012-.022-.01-.022-.011-.02-.01-.021-.009-.02-.008-.018-.008-.019-.007-.017-.007-.017-.005-.016-.006-.016-.004-.015-.004-.014-.003-.014-.003-.014-.001-.012-.001-.012-.001-.012v-.01l.001-.011.002-.01.002-.009.003-.009.003-.008.004-.008.005-.007z"/><path id="_655961400" class="fil1" d="m2.28 3.46 3.787 3.786-.023.073-3.786-3.786z"/><path id="_655961040" class="fil1" d="m2.438 3.57 3.786 3.786-.005-.002-.006-.001-.005-.002-.006-.002-.005-.002-.005-.002-.006-.002-.005-.002-.005-.002-.005-.003-.005-.002-.005-.003-.005-.003-.005-.003-.005-.003-.005-.003-.005-.004-.004-.003-.005-.003-.005-.004-.004-.004-.005-.004-.004-.004-.004-.004-3.787-3.786.005.004.004.004.005.004.004.004.005.003.004.004.005.003.005.003.005.004.004.003.005.003.005.003.005.002.005.003.006.002.005.003.005.002.005.002.006.002.005.002.005.002.006.001.005.002z"/><path id="_655961424" class="fil1" d="m2.248 3.57 3.786 3.786-.002.007-.002.008-.003.008-.002.008-.002.008-.003.008-.002.008-.003.008-.003.008-.002.007-.003.008-.003.008L6 7.457l-.004.007-.003.007-.003.007-3.787-3.786.004-.007.003-.007.003-.007.003-.008.003-.007.003-.008.003-.008.003-.008.002-.007.003-.008.002-.009.003-.007.002-.008.002-.008.002-.008z"/><path id="_655961544" class="fil1" d="m2.258 3.533 3.786 3.786v.004l-.002.004-.001.004-.002.005v.005l-.002.004-.002.005-.001.006-3.786-3.787.001-.005.001-.005.002-.005.001-.004.001-.005.002-.004v-.004z"/><path id="_655960848" class="fil1" d="m2.556 3.576 3.787 3.786-.004.009-.005.009-.004.009-.004.009-.004.009-.004.008-.004.01-.005.008-.004.01-.004.008-.004.009-.004.009-.004.008-.004.008-.003.008-.004.008-.003.008-.004.008-.003.007-.003.007-.003.006-.003.006-.002.006-.003.006-.002.005-.002.005-.001.004-.002.004-.001.003-.001.002v.003l-.001.001-3.786-3.786v-.004l.002-.003v-.003l.002-.003.002-.005.002-.004.002-.005.002-.006.003-.006.003-.006.003-.007.003-.007.003-.007.003-.007.004-.008.003-.008L2.5 3.7l.004-.008.004-.009.004-.008.004-.01.004-.008.004-.009.004-.009.005-.009.004-.009.004-.009.004-.009.004-.008.004-.01z"/><path id="_655961688" class="fil1" d="m2.695 3.68 3.787 3.786-.005-.002-.005-.002-.005-.002-.005-.002-.005-.002-.005-.002-.004-.003-.005-.002-.005-.003-.004-.002-.005-.003-.005-.003-.004-.003-.005-.003-.004-.003-.004-.003-.005-.004-.004-.003-.004-.004-.004-.003-.005-.004-.004-.004-.004-.003-3.786-3.787.004.004.004.004.004.004.004.003.005.004.004.003.004.003.005.004.004.003.005.003.004.003.005.003.004.002.005.003.005.003.004.002.005.003.005.002.005.002.005.002.004.002.005.002z"/><path id="_655962336" class="fil1" d="m2.204 3.692 3.787 3.786-.006.01-.005.008-.006.008-.005.007-.007.006-.006.006-.007.005-.007.004-.007.003-.008.002-.008.001h-.016l-.01-.003-.009-.003-.01-.005-3.786-3.786.01.005.01.003.008.002.009.001h.016l.008-.003.007-.003.007-.004.007-.005.006-.006.006-.006.006-.008.006-.008.005-.008z"/><path id="_655962024" class="fil1" d="m2.088 3.741 3.787 3.786-.005-.002-.005-.003-.005-.003-.005-.002-.004-.003-.005-.002-.005-.003-.004-.003-.005-.002-.004-.003-.005-.002-.004-.003-.005-.003-.004-.002-.004-.003-.005-.002-3.786-3.787.004.003.005.003.004.002.005.003.004.002.005.003.004.003.005.002.004.003.005.002.004.003.005.003.005.002.005.003.004.002z"/><path id="_655961760" class="fil1" d="M2.854 3.683 6.64 7.469l-.003.001-.003.001-.003.001h-.004l-.003.002h-.003l-.003.001h-.004L2.828 3.69l.003-.001h.004l.003-.002h.003l.003-.001.004-.001.003-.001z"/><path id="_655961592" class="fil1" d="m2.828 3.69 3.786 3.786v.002l-.002.002-.001.002-.001.002v.002l-.002.002v.003L2.82 3.704v-.001l.001-.001V3.7l.002-.002v-.002l.002-.002v-.002z"/><path id="_655961736" class="fil1" d="m1.981 3.679 3.787 3.786-.014-.009-.013-.009-.013-.008-.013-.01-.012-.008-.012-.01-.012-.008-.012-.009-.01-.009-.011-.009-.01-.009-.01-.009-3.787-3.786.01.01.01.008.011.009.011.009.012.009.011.009.012.009.013.008.012.01.013.008.014.009z"/><path id="_655962264" class="fil1" d="M2.015 3.7 5.8 7.485l-.034-.02L1.981 3.68z"/><path id="_655962288" class="fil1" d="m2.078 4.1 3.786 3.787v.005l-.003.005-.003.005-.005.003-.005.003-.006.003-.007.001H5.83L2.042 4.126h.007l.007-.002.006-.002.005-.003.004-.004.004-.004.002-.005z"/><path id="_655961616" class="fil1" d="M2.293 4.526 6.08 8.312l-.001.007-.003.006-.003.006-.004.005-.006.004-.006.003-.006.002h-.007L2.258 4.56h.007l.006-.002.006-.003.005-.004.005-.005.003-.006.002-.006z"/><path id="_655962048" class="fil1" d="m2.258 4.559 3.786 3.786h-.007l-.006-.003-.006-.003-3.786-3.787.005.004.007.002z"/><path id="_655961904" class="fil1" d="m2.458 3.796 3.786 3.786v.007l-.001.003v.004l-.001.004v.004l-.001.004v.004l-.001.004v.004l-.001.005V7.634l-.001.005v.005l-.001.004v.01l-.001.005v.005l-.001.005v.011l-.001.005v.01l-.001.005v.01l-.001.005v.01l-.002.006-.004.005-.005.006-.007.006-.008.006-.01.007-.011.006-.013.007-.013.006-.015.007-.015.006-.016.007-.016.006-.017.007-.017.006-.017.006-.017.006-.017.006-.016.005-.017.006-.015.005-.016.004-.014.005-.013.004-.012.004-.011.003-.01.003-.008.002-.007.002-.005.002h-.003L2.077 4.102l.004-.002.005-.001.006-.002.009-.002.01-.003.01-.004.013-.003.013-.004.014-.005.015-.005.016-.005.016-.005.017-.006.017-.005.017-.006.017-.006.017-.007.017-.006.016-.007.016-.006.015-.007.015-.006.013-.007.012-.006.012-.007.01-.006.008-.006.007-.006.005-.006.003-.005.002-.006v-.015l.001-.005v-.01l.001-.005v-.011l.001-.005v-.005l.001-.005v-.01l.001-.005v-.005l.001-.005V3.848l.001-.005V3.84l.001-.005V3.83l.001-.004V3.82l.001-.004V3.81l.001-.004v-.003l.001-.004z"/><path id="_655963104" class="fil1" d="m2.821 3.704 3.786 3.787-.002.007-.003.008-.003.01-.004.011-.004.012-.005.014-.005.014-.005.015-.006.016-.006.016-.006.017-.006.017-.006.017-.007.018-.006.018-.006.018-.007.017-.006.018-.006.017-.006.016-.006.017-.005.015-.005.015-.005.014-.004.013-.004.012-.004.01-.003.01-.003.008-.002.007v.005l-.002.004L2.673 4.13v-.003l.002-.005.002-.007.003-.008.003-.01.003-.01.004-.012.005-.013.005-.014.005-.015.005-.016.006-.016.006-.017.006-.017.006-.017.006-.018.007-.017.006-.018.007-.018.006-.017.006-.018.006-.016.006-.017.006-.015.005-.015.005-.015.005-.013.004-.012.004-.011.003-.01.003-.008z"/><path id="_655962816" class="fil1" d="m3.22 4.366 3.787 3.786v.005l.002.005.003.005.004.005.005.005L3.235 4.39l-.005-.005-.004-.005-.003-.005-.002-.005z"/><path id="_655962480" class="fil1" d="M2.042 4.126 5.83 7.912h-.007l-.007-.002-.005-.003-.005-.003-3.787-3.786.005.003.006.003.006.001z"/><path id="_655962552" class="fil1" d="M2.673 4.13 6.46 7.917V7.93l-.001.005v.004l-.001.005v.006l-.001.005v.006l-.001.005v.006l-.001.006v.012l-.001.006v.006l-.001.007V8.022l-.001.006v.007l-.001.006v.014l-.001.006v.014l-.001.006v.014l-.001.006v.007l-.002.007-.003.007-.005.008-.007.007-.009.008-.01.008-.01.009-.013.008-.014.009-.014.008-.015.009-.016.008-.016.008-.017.009-.017.008-.017.008-.017.008-.017.007-.017.007-.016.007-.016.007-.015.006-.014.006-.014.005-.012.005-.01.004-.01.004-.009.003-.006.003-.005.002H6.08l-.001.001-3.787-3.786h.001l.003-.002.005-.002.007-.002.008-.003.01-.004.01-.004.013-.005.013-.005.015-.006.015-.006.015-.007.017-.007.016-.007.017-.008.017-.007.018-.008.017-.008.016-.009.017-.008.015-.009.016-.008.014-.009.013-.008.013-.009.011-.008.01-.008.008-.008.007-.008.006-.007.003-.008.001-.007V4.308l.001-.006V4.289l.001-.007v-.007l.001-.006v-.014l.001-.006v-.014l.001-.006v-.006l.001-.007v-.012l.001-.006v-.006l.001-.006V4.18l.001-.006V4.17l.001-.006v-.01l.001-.005v-.004l.001-.005v-.004z"/><path id="_655962864" class="fil1" d="M3.154 4.184 6.94 7.971l-.007-.003-.007-.002-.007-.003-.007-.003-.007-.002-.007-.003-.007-.003-.007-.003-.007-.002-.007-.003-.007-.003-.006-.003-.007-.002-.006-.003-.006-.003-.006-.003-.006-.002-.005-.003-.005-.002-.005-.003-.005-.002-.004-.003-.004-.002-.004-.002-.003-.002-.003-.002-.002-.002-.003-.002-3.786-3.787.002.002.003.002.003.002.003.002.004.003.004.002.004.002.005.003.004.002.006.003.005.002.006.003.006.003.006.003.006.002.007.003.006.003.007.003.007.002.007.003.007.003.007.003.007.002.007.003.007.003.007.002.007.003z"/><path id="_655962600" class="fil1" d="m3.23 4.21 3.785 3.786V8.015l-.001.005v.01l-.001.005v.015l-.001.005v.015l-.001.005v.01l-.001.005v.015l-.001.005v.019l-.001.005V8.152L3.22 4.366V4.343l.001-.005V4.324l.001-.005v-.015l.001-.005v-.015l.001-.005v-.015l.001-.005v-.01l.001-.005v-.015l.001-.005v-.01z"/><path id="_655962936" class="fil1" d="m3.413 4.51 3.786 3.786h-.003l-.004-.001-.005-.002-.006-.002-.007-.002-.008-.003-.009-.003-.009-.004-.01-.004-.01-.004-.011-.004-.011-.005-.012-.005-.012-.005-.011-.005-.012-.006-.012-.005-.011-.006-.012-.005-.01-.006-.011-.005-.01-.006-.01-.005-.009-.005-.008-.005-.007-.005-.007-.004-.005-.004-.004-.004-3.787-3.787.005.004.005.005.006.004.008.005.008.005.009.005.01.005.01.006.01.005.011.005.011.006.012.005.012.006.011.005.012.006.012.005.011.005.012.004.01.005.01.004.01.004.01.003.009.004.008.003.007.002.006.002.005.001.004.001z"/><path id="_655962672" class="fil1" d="m3.448 4.476 3.787 3.787-.001.007-.003.006-.003.006-.004.005-.006.004-.005.003-.007.001h-.007L3.413 4.51h.007l.006-.003.006-.003.005-.004.005-.005.003-.005.002-.007z"/><path id="_655962960" class="fil1" d="M3.004 3.736 6.79 7.523l-.005-.001-.005-.001-.005-.001-.005-.001-.005-.001-.004-.001-.005-.002H6.75l-.005-.002-.005-.002-.005-.001-.005-.001-.004-.002-.005-.002-.005-.001-.004-.002-.005-.001-.005-.002-.004-.002-.005-.002-.005-.002-.004-.002-.005-.002-.004-.002-.005-.002-.004-.002-.005-.002-.004-.002-.005-.003-.004-.002-.004-.002-.005-.003-3.786-3.786.004.002.005.003.004.002.004.002.005.003.004.002.005.002.004.002.005.002.004.002.005.002.005.002.004.002.005.002.005.001.004.002.005.002.005.001.004.002.005.001.005.002.005.001.005.001.005.002.004.001.005.001.005.001.005.001.005.002h.005l.005.001z"/><path id="_655963032" class="fil1" d="m3.236 4.13 3.786 3.787V7.926l-.001.005v.006l-.001.005-.001.006v.006l-.001.006-3.786-3.786v-.012l.001-.006V4.15l.001-.005V4.14l.001-.005z"/><path id="_655963080" class="fil1" d="m3.291 4.188 3.787 3.786-.001.006-.003.006-.003.004-.004.004-.006.004L7.055 8l-.006.002h-.007L3.256 4.216h.007l.006-.002.006-.002.005-.004.005-.004.003-.005.002-.005z"/><path id="_655963176" class="fil1" d="m3.256 4.216 3.786 3.786h-.007L7.032 8H7.03l-.004-.002H7.02l-.005-.002L3.23 4.21h.005l.004.002.004.001.004.001h.003l.003.001h.002z"/><path id="_655963224" class="fil1" d="m4.407 4.446 3.786 3.786.003.003.002.002.002.003.001.003.001.003.001.003.001.003v.014l-.002.003-3.786-3.786.001-.003v-.004l.001-.003v-.007l-.001-.003V4.46l-.002-.003-.002-.003-.002-.003-.002-.003z"/><path id="_655963248" class="fil1" d="m3.275 3.95 3.787 3.787-.002.007-.002.007-.002.008-.002.007-.001.007-.002.007-.002.007-.001.006-.002.007-.002.007-.001.006-.002.007-.001.006-.001.006-.002.006-.001.006-.001.006-.002.006v.005l-.002.006-.001.005-.001.005-.001.005v.004l-.002.005v.004l-.001.004v.004l-.002.004v.01L3.235 4.13v-.006l.001-.003v-.004l.001-.004.001-.004.001-.004V4.1l.002-.005v-.004l.002-.005V4.08l.002-.005.001-.006.001-.005.002-.006.001-.006.001-.006.002-.006.001-.006.002-.007.001-.006.002-.007.001-.007L3.263 4l.002-.007.001-.007.002-.007.002-.007.002-.007.001-.007z"/><path id="_655963296" class="fil1" d="m3.329 3.748 3.786 3.786-.002.006-.001.005-.002.006-.001.006-.002.006-.002.006-.001.006-.002.006-.002.006-.001.007-.002.006-.002.006-.001.006-.002.007-.002.006-.001.007-.002.006-.002.007-.002.006-.001.007-.002.007-.002.006-.001.007-.002.006-.002.007-.001.007-.002.006-.002.007-.002.006-.001.007-.002.006-.001.007L3.275 3.95l.002-.007.002-.006.001-.007.002-.007.002-.006.001-.007.002-.006.002-.007.001-.006.002-.007.002-.007.001-.006.002-.007.002-.006.002-.007.001-.006.002-.007.002-.006.001-.007.002-.006.002-.006.002-.007.001-.006.002-.006.001-.006.002-.006.002-.006.001-.006.002-.006.001-.006.002-.006z"/><path id="_637651480" class="fil1" d="M3.15 2.796c.23-.012 2.151-.29 2.13-.108-.035.295-.205.566-.74.667.14.076.285.164.302.275.008.046-.048.074-.147.09a5.74 5.74 0 0 1-.207.018c-.115.225-.302.538-.27.655.004.017.017.017.033.017h.031c.055.007.113.029.113.029a.034.034 0 0 1-.023.065s-.051-.02-.098-.025h-.023c-.045 0-.081-.001-.1-.068-.019-.07.093-.3.156-.513.017-.058.03-.109.04-.152-.07.004-.139.006-.208.008-.075.1-.143.202-.125.25.004.008.014.008.026.009h.026a.634.634 0 0 1 .093.016c.014.004.022.015.016.026-.005.01-.02.015-.035.012 0 0-.042-.011-.08-.014l-.02-.001c-.036 0-.066 0-.08-.039-.014-.036.058-.147.11-.258-.247.004-.495-.002-.741-.007-.017.06-.036.134-.054.203-.02.078-.035.148-.04.18a1.217 1.217 0 0 0-.003.043c.034.009.06.014.06.014-.001.016-.017.028-.036.028a.153.153 0 0 1-.027-.006 7.37 7.37 0 0 0-.008.156c-.002.052.227.11.227.11a.034.034 0 0 1-.035.034c-.024-.001-.263-.102-.262-.13l.003-.196c-.074-.026-.16-.063-.16-.077.002-.097.004-.241.01-.37a.467.467 0 0 1-.15-.054.253.253 0 0 1-.026.007.09.09 0 0 0-.007.014c-.021.068-.145.399-.148.426-.005.044-.01.122-.013.191-.003.073-.367.204-.367.205a.034.034 0 0 1-.068-.003s.363-.119.365-.181a3.99 3.99 0 0 1 .015-.22c.004-.034.01-.136.03-.217l.06-.225a.311.311 0 0 1-.139-.104c-.042.092-.096.206-.098.22-.005.033-.01.094-.013.147-.004.056-.367.157-.367.158 0 .014-.017.026-.036.025-.019 0-.034-.013-.033-.027 0 0 .363-.092.366-.14a2.38 2.38 0 0 1 .014-.169c.004-.027.011-.105.031-.168a4.92 4.92 0 0 1 .018-.053.272.272 0 0 1-.157-.109l-.023.073-.01.036a.636.636 0 0 1-.044.123c-.027.05-.063.077-.116.049a1.782 1.782 0 0 1-.073-.042l-.034-.02c-.147-.094-.237-.19-.283-.291-.058-.127-.049-.26-.002-.41l.002-.007a.3.3 0 0 1 .038-.077c-.189-.322-.234-.5-.146-.596.098-.107.8.111 1.344.064-.493.12-1.178-.158-1.302-.023-.063.069-.01.222.152.502a.278.278 0 0 1 .268-.058l.007.002a.41.41 0 0 1 .197.143.225.225 0 0 1 .03-.063 1.08 1.08 0 0 1 .376-.01.254.254 0 0 1 .207-.013.117.117 0 0 1 .01-.006c.044-.023.14-.033.27-.04z"/></g></g><path d="M3.413 0a3.413 3.413 0 1 1 0 6.827 3.413 3.413 0 0 1 0-6.827z" style="fill:none"/><path class="fil3" d="M3.625 3.606a.356.356 0 0 1-.115-.07c-.003-.012.008-.022.023-.024.002 0 .723-.067.767-.025.056.04-.326.412-.286.516.004.01.014.01.026.01h.026a.634.634 0 0 1 .093.016c.014.004.022.015.016.026-.005.01-.02.015-.035.012 0 0-.042-.011-.08-.014h-.02c-.036-.001-.066-.001-.08-.04-.016-.04.076-.172.126-.295.044-.107.057-.17.05-.177-.024-.023-.51.065-.51.065zM3.305 3.353c.016-.008.037-.003.046.011.01.014.003.032-.013.04 0 0-.126.057-.136.082-.008.021-.05.15-.084.262a1.42 1.42 0 0 0-.04.15 3.017 3.017 0 0 0-.014.198c-.003.043.227.092.227.092 0 .016-.016.028-.035.028-.024 0-.263-.085-.263-.109.005-.187.007-.545.044-.644.018-.047.267-.11.268-.11zM2.684 3.294c.016-.007.037-.002.046.01.01.013.003.03-.013.037 0 0-.102.105-.111.127-.022.052-.145.306-.148.328-.005.033-.01.094-.013.147-.004.056-.367.157-.367.158 0 .014-.017.026-.036.025-.019 0-.034-.013-.033-.027 0 0 .363-.092.366-.14a2.38 2.38 0 0 1 .014-.169c.004-.027.011-.105.031-.168.034-.103.08-.232.089-.252.017-.043.174-.076.175-.076z"/><path d="M4.497 3.332c.152.081.326.176.345.298.008.046-.048.074-.147.09-.492.052-.992.036-1.486.025l-.127-.002a.472.472 0 0 1-.34-.147.508.508 0 0 1-.142-.353c0-.093.035-.177.093-.24a.334.334 0 0 1 .162-.097c-.061.212 1.218.074 1.642.426z" style="fill:#a79d6c;fill-rule:nonzero"/><g style="clip-path:url(#id1)"><g id="_637668784"><path id="_6376693601" class="fil5" d="M2.959 3.725c.245.011.29-.28.275-.467-.003-.03-.015-.054-.02-.08.018.003.039.066.041.078.046.226-.02.534-.298.534l.002-.065z"/><path id="_637669336" class="fil5" d="M3.28 3.745c.245.011.29-.28.274-.467-.002-.03-.014-.054-.02-.08.018.003.04.066.042.078.046.227-.02.534-.298.534l.002-.065z"/><path id="_637669744" class="fil5" d="M3.617 3.74c.219.01.26-.25.245-.417-.002-.027-.013-.049-.017-.072.016.003.035.059.037.07.04.202-.018.477-.266.476l.001-.058z"/><path id="_637669552" class="fil5" d="M3.913 3.757c.219.01.26-.249.246-.416-.003-.027-.013-.049-.018-.072.016.003.035.059.037.07.041.202-.018.476-.266.476l.001-.058z"/><path id="_637669624" class="fil5" d="M4.171 3.748c.22.01.26-.249.246-.416-.003-.027-.013-.049-.018-.072.016.003.035.059.037.07.041.202-.018.476-.266.476l.001-.058z"/><path id="_637668856" class="fil5" d="M4.393 3.74c.177.008.21-.2.198-.335-.002-.022-.01-.04-.014-.058.013.002.028.047.03.056.033.163-.015.384-.215.384l.001-.047z"/><path id="_637668568" class="fil5" d="M4.586 3.728c.148.007.176-.169.166-.282-.001-.018-.009-.033-.012-.048.011.001.024.04.025.047.028.137-.012.323-.18.322l.001-.039z"/></g></g><path d="M4.497 3.332c.152.081.326.176.345.298.008.046-.048.074-.147.09-.492.052-.992.036-1.486.025l-.127-.002a.472.472 0 0 1-.34-.147.508.508 0 0 1-.142-.353c0-.093.035-.177.093-.24a.334.334 0 0 1 .162-.097c-.061.212 1.218.074 1.642.426z" style="fill:none;fill-rule:nonzero"/><path d="M1.81 2.884a.034.034 0 1 1-.06.035c-.2-.338-.25-.523-.16-.621.098-.107.8.111 1.344.064-.493.12-1.178-.158-1.302-.023-.066.072-.005.238.177.545z" style="fill:#243b09;fill-rule:nonzero"/><path class="fil3" d="M3.741 3.704a.447.447 0 0 1-.141-.123.034.034 0 0 1 .028-.04c.002 0 .887-.117.94-.043.07.069-.399.715-.35.895.004.017.017.017.033.017h.031c.055.007.113.029.113.029a.034.034 0 0 1-.023.065s-.051-.02-.098-.025h-.023c-.045 0-.081-.001-.1-.068-.019-.07.093-.3.156-.513.054-.185.07-.294.06-.308-.028-.039-.624.114-.626.114zM3.462 3.479a.034.034 0 0 1 .033.06s-.126.07-.135.099c-.009.026-.051.18-.085.313-.02.078-.035.148-.04.18a4.292 4.292 0 0 0-.014.235c-.002.052.227.11.227.11a.034.034 0 0 1-.035.034c-.024-.001-.263-.102-.262-.13.004-.224.006-.651.044-.77.017-.055.266-.13.267-.131z"/><path d="M2.699 2.865c.047.062.077.27.077.363 0 .093-.03.178-.077.24a.26.26 0 0 1-.207.107.26.26 0 0 1-.206-.107.393.393 0 0 1-.077-.24c0-.093.03-.301.077-.363.117-.023.307-.036.413 0z" style="fill:#4c7320;fill-rule:nonzero"/><path class="fil9" d="M2.78 2.826a.29.29 0 0 1 .235.135.523.523 0 0 1 .088.3.523.523 0 0 1-.088.299.29.29 0 0 1-.236.134.29.29 0 0 1-.235-.134.523.523 0 0 1-.089-.3c0-.116.034-.222.089-.3a.29.29 0 0 1 .235-.134z"/><path d="M2.879 2.836c.044-.023.14-.033.27-.04.232-.012 2.152-.29 2.13-.108-.04.343-.263.653-1.031.703-.07-.005-1.302-.184-1.342-.22-.035-.032-.157-.265-.027-.335z" style="fill:#557d27;fill-rule:nonzero"/><path class="fil9" d="M1.698 3.388c-.058-.127-.049-.26-.002-.41a.294.294 0 0 1 .143-.174.278.278 0 0 1 .22-.02.415.415 0 0 1 .239.213.44.44 0 0 1 .026.324l-.066.212-.01.036a.636.636 0 0 1-.044.123c-.027.05-.063.077-.116.049-.213-.114-.334-.229-.39-.353z"/><path class="fil3" d="M2.9 3.479a.034.034 0 1 1 .032.06s-.102.137-.11.165c-.022.068-.146.399-.149.426-.005.044-.01.122-.013.191-.003.073-.367.204-.367.205a.034.034 0 0 1-.068-.003s.363-.119.365-.181a3.99 3.99 0 0 1 .015-.22c.004-.034.01-.136.03-.217.034-.134.081-.301.09-.328.017-.055.174-.098.174-.098z"/><path d="M1.98 3.68c.067-.179.019-.15-.111-.248h.001c-.022-.014-.02-.053-.016-.076.003.043-.008.053.068.086.132.056.166.107.12.273L1.98 3.68z" style="fill:#365414"/><ellipse transform="matrix(.47945 -.14713 .14713 .47945 1.857 3.11)" rx=".212" ry=".366" style="fill:#212121"/><ellipse transform="matrix(.38476 -.11807 .11807 .38476 1.834 3.075)" rx=".212" ry=".366" style="fill:#424242"/><ellipse transform="matrix(.09938 -.0305 .0305 .09938 1.777 3.052)" rx=".212" ry=".366" style="fill:#eee"/><path class="fil15" d="M2.88 3.115c.141-.067.25-.125.527-.178.227-.044.238-.036.465-.035.244.001.15-.022.354-.064.04-.009.234.007.303.004.16-.006.348-.04.477-.145-.014.022-.009.017-.033.035-.179.135-.44.162-.657.145-.138-.01-.106.023-.243.058-.153.04-.37-.001-.573.041-.376.08-.399.101-.597.2l-.023-.06z"/><path class="fil15" d="M3.416 2.975c.2.107.175.2.44.245l.043.008a.336.336 0 0 1-.2-.012 1.35 1.35 0 0 1-.345-.223l.062-.018z"/><path class="fil15" d="M3.563 3.082c.108.003.211-.024.286-.02l.106.02c-.156.019-.25.056-.402.064l.01-.064zM3.992 2.912c.142.111.28.202.424.318.03.025.03.024.064.05-.079-.015-.488-.29-.535-.323l.047-.045z"/><path class="fil15" d="M4.256 3.116c.077.034.248.01.336.026l.11.032c-.104 0-.365.017-.446-.013v-.045zM4.255 2.853zm0 0c.035.062.417.15.488.154.067.004.171-.013.218 0a.887.887 0 0 1-.218.034c-.09.002-.503-.065-.55-.168l.062-.02z"/><path class="fil15" d="M4.58 2.982c.175-.053.076-.044.236-.113.09-.039.213-.078.31-.034.006.003.013.007.012.014l-.007-.002c-.09-.024-.211.023-.29.064-.159.083-.07.036-.236.097l-.025-.026z"/><path class="fil15" d="M4.911 2.849c.06.052.174.088.254.079-.046.068-.232.014-.294-.029l.04-.05z"/></g></svg>