<svg xmlns="http://www.w3.org/2000/svg" xml:space="preserve" width="655.359" height="655.359" style="shape-rendering:geometricPrecision;text-rendering:geometricPrecision;image-rendering:optimizeQuality;fill-rule:evenodd;clip-rule:evenodd" viewBox="0 0 6.827 6.827"><defs><clipPath id="id0"><path d="M3.413 0a3.413 3.413 0 1 1 0 6.827 3.413 3.413 0 0 1 0-6.827z"/></clipPath><style>.fil5{fill:#424242}.fil6{fill:#575757}.fil7{fill:#636363}.fil1{fill:#9ccc65}</style></defs><g id="Layer_x0020_1"><path d="M3.413 0a3.413 3.413 0 1 1 0 6.827 3.413 3.413 0 0 1 0-6.827z" style="fill:#c5e1a5"/><g style="clip-path:url(#id0)"><g id="_637662880"><path id="_4434394641" class="fil1" d="M2.211 4.435 5.997 8.22v.011L6 8.236l.002.004.002.005.004.005.003.005.004.006.005.005.004.006.005.006.005.005.006.006.005.006.006.006.005.005.006.006.005.005.006.005.005.005.005.005.005.004.004.004.004.004.004.003L2.314 4.56l-.004-.004-.004-.003-.004-.004-.005-.005-.005-.004-.005-.005-.006-.005-.005-.006-.006-.005-.005-.006-.006-.005-.005-.006-.006-.006-.005-.006-.005-.005-.005-.006-.004-.005-.004-.006-.004-.005-.003-.005-.003-.005-.002-.004-.001-.005-.001-.004v-.003z"/><path id="_443439344" class="fil1" d="M5.685 8.42zM1.898 4.632z"/><path id="_443440304" class="fil1" d="M5.004 2.148 8.79 5.934 5.004 2.148z"/><path id="_443440136" class="fil1" d="M5.187 2.242 8.974 6.03l.004.004.003.005.004.005.003.005.003.005.003.005.003.005.002.005.003.005-3.787-3.787-.002-.005-.003-.005-.002-.005-.003-.004-.003-.005-.004-.005-.003-.005-.004-.005z"/><path id="_443440712" class="fil1" d="m5.215 2.286 3.787 3.787v.003l.002.001v.004l.001.001.001.002v.001L5.22 2.3v-.003l-.001-.002-.001-.001V2.29l-.001-.001-.001-.002z"/><path id="_443440088" class="fil1" d="m5.22 2.3 3.787 3.785.001.005.002.005V6.1l.002.005v.005l.001.005v.004l.001.005-3.786-3.786v-.01l-.002-.005V2.32l-.001-.005-.002-.005-.001-.005z"/><path id="_443440496" class="fil1" d="m5.228 2.338 3.786 3.786v.014l-.001.005v.005l-.002.004-.001.005-.001.004-3.787-3.786.002-.004v-.005l.002-.004v-.005l.001-.005V2.343z"/><path id="_443440592" class="fil1" d="M5.222 2.375 9.01 6.161l-.002.004-.001.003-.001.003-.002.003-.002.003L9 6.18l-.001.003-.002.003-.003.003-.002.003-.002.003-.003.002-.002.003-.003.002-.003.003-.003.002-3.786-3.786.003-.002.003-.003.002-.002.003-.003.002-.003.003-.002.002-.003.002-.003.002-.003.002-.003.002-.003.002-.003.001-.003.002-.003.001-.004z"/><path id="_443440784" class="fil1" d="m5.189 2.42 3.786 3.787-.087.076-3.786-3.786z"/><path id="_443440112" class="fil1" d="m5.102 2.497 3.786 3.786-.002.002-.001.001-.002.001-.002.002h-.003l-.002.002h-.002l-.003.001-3.786-3.786h.002l.003-.001.002-.001.002-.002h.002l.002-.002.002-.002z"/><path id="_443441264" class="fil1" d="m5.085 2.506 3.786 3.786-.066.017-3.786-3.786z"/><path id="_443441000" class="fil1" d="m5.019 2.523 3.786 3.786-.003.005-.002.005-.002.005-.002.005-.002.005-.002.004-.002.005-.002.005-.001.005-.002.004-.001.005-.002.004v.005l-.002.004-.001.005-.001.004-3.786-3.786v-.004l.002-.005v-.004l.002-.005.002-.004.001-.005.002-.005.001-.004.002-.005.002-.005.002-.005.002-.005.002-.004.002-.005.002-.005z"/><path id="_443441288" class="fil1" d="m4.992 2.598 3.786 3.786-.001.005-.001.005v.004l-.001.005-.001.004V6.445l.002.004v.004L4.99 2.666v-.003l-.001-.004-.001-.004v-.008l-.001-.004V2.62l.001-.004v-.005l.002-.004v-.005z"/><path id="_443441192" class="fil1" d="m4.99 2.666 3.786 3.787L4.99 2.666z"/><path id="_443441384" class="fil1" d="m4.99 2.666 3.786 3.787v.002L4.992 2.669z"/><path id="_443441600" class="fil1" d="m4.99 2.669 3.787 3.786.002.009.001.009.003.008.002.008.002.008.003.008.002.007.003.008.003.006.003.007.003.006.003.006.004.006.003.006.004.005.004.006L5.036 2.78l-.004-.005-.004-.005-.003-.006-.004-.006-.003-.006-.003-.006-.003-.007-.003-.007-.003-.007-.003-.007-.002-.008-.003-.008-.002-.008-.002-.008-.002-.01z"/><path id="_443441432" class="fil1" d="m5.036 2.781 3.786 3.787.004.004.003.005L5.043 2.79l-.004-.004z"/><path id="_443441528" class="fil1" d="m5.206 2.836 3.787 3.787.004.006.003.006.002.007-3.786-3.786-.002-.007-.003-.007z"/><path id="_443441576" class="fil1" d="m5.216 2.856 3.786 3.786.012.08-3.787-3.786z"/><path id="_443441120" class="fil1" d="m5.25 2.958 3.787 3.786.003.004.003.004.003.004.002.004.003.004.002.005.002.005.002.006.003.006.002.007.003.008-3.787-3.787-.002-.007L5.274 3l-.003-.006-.002-.006-.002-.005-.003-.005-.002-.004-.003-.005-.002-.003-.003-.004z"/><path id="_443441768" class="fil1" d="m5.278 3.014 3.787 3.787-3.787-3.786z"/><path id="_443441984" class="fil1" d="M5.278 3.015 9.065 6.8v.004l.001.005V6.82l-.002.005-.002.005-.002.004-.003.004L5.27 3.05l.003-.003.002-.005.002-.004.001-.005V3.02z"/><path id="_443442344" class="fil1" d="m5.27 3.05 3.787 3.787-.006.006-.005.006-.006.006-.005.005-.006.006-.005.005-.006.005-.005.005-.006.005-.005.004-.006.005-.005.004-.006.004-.006.004-.005.004-.006.004-.005.003-.006.004-.005.003-.006.003-.006.003-.005.003-.006.002-.005.003-.006.003-.005.002-.006.002-.006.002-.005.002-.006.002-.005.002-.006.001L5.093 3.17l.005-.001.006-.002.005-.002.006-.002.006-.002.005-.002.006-.003.005-.002.006-.003.006-.003.005-.002.006-.003.005-.003.006-.004.005-.003.006-.004.006-.003.005-.004.006-.004.005-.004.006-.005.005-.004.006-.005.005-.004.006-.005.005-.005.006-.006.006-.005.005-.006.006-.005.005-.006z"/><path id="_443441624" class="fil1" d="m5.093 3.17 3.786 3.785-.005.002-.005.001-.005.001-.005.002h-.005l-.005.002h-.005l-.005.001-.005.001h-.005l-.005.002h-.01l-.005.001H8.8l-.005.001H8.73l-.005-.001H8.72L4.934 3.18h.01l.005.001h.015l.005.001H5.018l.005-.001h.005l.005-.001h.005l.005-.001.005-.001h.005l.005-.002h.005l.005-.002h.005l.005-.002.005-.001.005-.001z"/><path id="_443441936" class="fil1" d="M4.934 3.181 8.72 6.968H8.72L4.932 3.182z"/><path id="_443442008" class="fil1" d="m4.933 3.182 3.786 3.786h-.001L4.93 3.184h.001z"/><path id="_443441888" class="fil1" d="m4.931 3.183 3.787 3.786-.205.107-3.787-3.787z"/><path id="_443441816" class="fil1" d="m4.726 3.29 3.787 3.786-.021.013-.021.015-.021.015-.022.015-.021.016-.022.017-.021.017-.022.017-.021.017-.021.018-.022.019-.02.018-.021.019-.02.019-.02.019-.02.019-.02.02-.018.019-.018.019-.017.02-.017.019-.016.019-.015.019-.014.019-.014.019-.012.018-.012.018-.01.019-.01.017-.008.018-.008.017-.006.016L4.176 3.86l.006-.017.007-.017.009-.017.01-.018.01-.018.012-.018.012-.019.014-.018.014-.02.015-.019.016-.019.017-.019.017-.02.018-.019.019-.02.019-.018.02-.02.02-.019.02-.018.02-.02.021-.018.021-.018.022-.018.021-.017.022-.018.021-.017.022-.016.021-.016.021-.016.022-.014.02-.015z"/><path id="_443442056" class="fil1" d="m4.176 3.859 3.786 3.786v.007l-.002.006v.006l-.002.006-.001.005-.001.005-.002.004-.001.004-3.787-3.786.002-.004.001-.004.002-.005v-.005l.002-.006.001-.006.001-.006z"/><path id="_443442080" class="fil1" d="m4.166 3.902 3.787 3.786-.002.005-.003.006-.002.006-.002.006-.003.007-.002.008-.003.008-.003.008-.003.008-.002.01-.003.009-.003.01-.003.01-.003.01-.003.01-.004.011-.003.011-.003.011-.003.012-.003.011-.003.012-.003.011-.003.012-.004.012-.003.012-.003.012-.003.012-.002.012-.003.012-.003.012-.003.011-.002.012-3.787-3.786.003-.012.003-.012.002-.011.003-.012.003-.012.003-.012.003-.012.003-.012.003-.012.003-.012.003-.012.004-.011.003-.012.003-.011.003-.011.003-.011.003-.011.003-.01.003-.01.003-.01.003-.01.003-.01.003-.009.003-.008.003-.009.002-.008.003-.007.002-.007.003-.006.002-.006.002-.006z"/><path id="_443442320" class="fil1" d="m4.075 4.22 3.787 3.787-.001.004-.001.005-.001.004-.001.004-.001.004v.004l-.002.005v.004L4.067 4.254V4.25l.002-.004v-.004l.002-.004v-.004l.001-.005.001-.004z"/><path id="_443442440" class="fil1" d="m4.068 4.254 3.786 3.787-.001.006-.001.007-.002.006-.001.006-.001.006-.002.006v.006l-.002.006-.001.006-.001.005-.001.005-.001.005v.005l-.002.005v.005l-.001.004-.001.004v.004l-.001.004v.004l-.001.003v.007l-.001.002V8.171L4.047 4.385v-.022l.001-.003v-.004l.001-.004v-.004l.001-.004.001-.004v-.005l.002-.005v-.005l.002-.005v-.005l.002-.006v-.005l.002-.006.001-.006.001-.006.002-.006v-.006l.002-.007.002-.006z"/><path id="_443442800" class="fil1" d="M4.047 4.385 7.833 8.17l.002.003.002.003.002.002.001.003.002.003.001.004.002.003.001.003.002.004.002.004.001.003.002.004.001.004.002.004.002.004.001.004L4.073 4.44l-.002-.004-.001-.004-.002-.004-.002-.004-.001-.004-.002-.004-.001-.003-.002-.004-.001-.003-.002-.004-.002-.003-.001-.003-.002-.003-.001-.003-.002-.002z"/><path id="_443442560" class="fil1" d="m4.073 4.44 3.786 3.786.003.007.002.006.003.007.002.006.003.007.003.006.003.007.003.007.004.006.003.007.003.006.004.006.004.006.004.005.004.006.004.005-3.786-3.787-.005-.005-.004-.005-.004-.005-.003-.006-.004-.006-.003-.007-.004-.006-.003-.007-.003-.006-.003-.007-.003-.006-.003-.007-.003-.007-.002-.006-.003-.007z"/><path id="_443442656" class="fil1" d="M4.125 4.54 7.91 8.325l.003.003.002.002L4.13 4.545l-.003-.003z"/><path id="_443442392" class="fil1" d="m4.186 4.586 3.786 3.786.004.004.003.004.002.004.002.005.002.004-3.786-3.786-.002-.005-.002-.004-.002-.004-.003-.004z"/><path id="_443442824" class="fil1" d="m4.199 4.607 3.786 3.786.001.005v.005l.001.004V8.416l-.002.004-.002.004-.002.003-.002.004-.003.003-.003.003-.004.003-.004.003-.005.002-.005.003-.005.002-3.786-3.786.005-.003.005-.002.004-.002.005-.003.003-.003.004-.003.003-.003.002-.004.002-.003.002-.004V4.63l.002-.004V4.617L4.2 4.612z"/><path id="_443442872" class="fil1" d="M4.164 4.664 7.95 8.45h-.002l-.003.001-.002.001H7.94l-.002.002h-.003l-.003.001H7.93l-.003.001-.003.001H7.92l-.003.001h-.004l-.003.001h-.003l-.004.001-3.786-3.786h.003l.004-.001h.003l.003-.001h.004l.003-.001h.003l.003-.002h.006l.002-.002h.003l.003-.001h.002l.002-.002z"/><path id="_443442896" class="fil1" d="m3.545 4.109 3.787 3.786-.02.003-.021.003-.02.003-.021.003-.021.002-.02.003-.022.003-.02.002-.021.003-.021.002-.021.003-.021.002-.022.002-.02.002-.022.002-.02.002-.022.002-.021.001-.022.002-.02.001-.022.001-.021.001-.022.001-.021.001h-.043l-.021.001h-.063l-.022-.001-.021-.001L2.87 4.157l.022.001.02.001h.129l.021-.001h.021l.022-.002.02-.001.022-.001.021-.002.022-.001.02-.002.022-.002.021-.002.021-.002.021-.002.021-.002.021-.003.021-.002.021-.003.021-.002.02-.003.022-.003.02-.003.02-.003.021-.002.02-.003z"/><path id="_443442944" class="fil1" d="M3.812 4.617 7.6 8.403l-.003.001-.003.002H7.59l-.003.001-.003.001-.004.001-.003.001h-.003L3.787 4.626l.004-.001.003-.001h.003L3.8 4.62h.003l.003-.002h.003z"/><path id="_443443016" class="fil1" d="M4.117 4.674 7.903 8.46l-.007.001h-.008l-.007.002h-.017l-.008.001h-.009l-.009.001h-.075l-.01-.001h-.009l-.01-.001-.009-.001-.01-.001-.008-.001-.01-.001-.008-.001-.009-.002-.008-.001-.008-.002-.008-.001-.008-.002-.007-.002-.007-.002-.007-.002-3.786-3.786.007.002.007.002.007.002.007.001.008.002.009.002.008.001.009.001.008.002h.01l.009.002h.009l.01.001.009.001h.01l.009.001h.019l.01.001h.055l.009-.001h.008l.008-.001h.008l.008-.001.008-.001z"/><path id="_443443232" class="fil1" d="M3.787 4.625 7.574 8.41H7.57l-.003.001-.003.001H7.56l-.004.002H7.55l-.004.001H7.54l-.004.001-.004.001H7.524l-.004.001h-.004l-.005.001H7.502l-.005.001H7.43L3.643 4.635h.077l.005-.001h.004l.005-.001h.008l.005-.001h.004l.004-.001h.004l.004-.002h.007l.004-.001.003-.001h.004l.003-.002z"/><path id="_443443832" class="fil1" d="M3.643 4.635 7.43 8.421H7.403l-.005-.001h-.005l-.006-.001h-.011l-.005-.001h-.006l-.005-.002h-.011l-.006-.001-3.786-3.787.005.001h.006l.006.001h.005l.006.001h.005l.006.001H3.6l.005.001h.011l.005.001h.016z"/><path id="_443443520" class="fil1" d="m3.557 4.628 3.786 3.787-.006-.002-.007-.002-.005-.003-.005-.004-3.786-3.786.005.004.005.003.006.002z"/><path id="_443443280" class="fil1" d="m3.84 4.658 3.787 3.786-.004-.002-.003-.002-3.786-3.786.003.002z"/><path id="_443443544" class="fil1" d="m1.648 3.226 3.787 3.787-.003.008-.003.008-.003.009-.002.008-.003.01-.002.008-.002.009-.001.008-.002.01-.002.008v.01l-.002.008v.01l-.001.008v.01l-.001.009V7.182l.001.01V7.2l.002.01v.009l.002.01.002.009.002.01.002.01.002.01.003.01.003.01.003.01.003.01-3.786-3.787-.004-.01-.003-.01-.002-.01-.003-.01-.002-.01-.002-.01-.002-.01-.002-.009-.001-.01-.002-.01v-.009l-.001-.01v-.009l-.001-.009v-.037l.001-.01.001-.008.001-.01.001-.008.002-.01.001-.008.002-.009.002-.008.002-.01.002-.008.003-.008.003-.009.002-.008z"/><path id="_443443856" class="fil1" d="m1.647 3.522 3.786 3.786.001.004v.018l-.002.003v.004l-.003.003-.002.003-.002.003-.003.002-.002.002-.004.002-.003.002-.003.002-3.787-3.787.004-.001.003-.002.003-.002.003-.002.003-.003.002-.003.002-.002.002-.004.001-.003.001-.003.001-.004V3.526z"/><path id="_443443448" class="fil1" d="m2.214 4.208 3.787 3.786L6 7.998v.004l-.001.004v.004l-.001.005v.004l-.001.005V8.033l-.001.005v.081l.001.005v.015l.001.004v.005L2.212 4.362v-.014l-.001-.005v-.02l-.001-.005v-.085l.001-.004v-.005l.001-.004.001-.004v-.004z"/><path id="_443443736" class="fil1" d="m2.212 4.362 3.786 3.786v.012L6 8.166V8.215l-.001.003v.003L2.21 4.435v-.003l.001-.003v-.003l.001-.004v-.054z"/><path id="_443443808" class="fil1" d="M6.112 8.357zM2.325 4.57z"/><path id="_443443328" class="fil1" d="M2.329 4.573 6.115 8.36l.003.003.002.003.002.004.002.004.001.004v.004l.001.005L2.34 4.6v-.004l-.001-.004-.001-.004-.002-.004-.002-.004-.003-.003z"/><path id="_443443400" class="fil1" d="m2.34 4.6 3.786 3.787v.007l-.003.007-.003.007-.005.005-.006.005-.006.003-.007.002H6.09L2.302 4.638h.008l.007-.002.006-.004.006-.004.004-.006.004-.006.002-.007z"/><path id="_443444336" class="fil1" d="M2.302 4.637 6.09 8.424l-.35-.004-3.785-3.786z"/><path id="_443444000" class="fil1" d="M1.954 4.634 5.74 8.42h-.055L1.898 4.632z"/><path id="_443444552" class="fil1" d="m1.898 4.633 3.787 3.786h-.007l-.006-.002-.005-.002-.005-.004-3.786-3.786.005.003.005.003.006.001z"/><path id="_443444288" class="fil1" d="m2.871 4.157 3.787 3.787-.02-.001-.022-.002-.02-.001-.02-.002-.021-.002-.02-.002-.021-.002-.02-.003-.02-.003-.021-.003-.02-.004-.02-.003-.02-.004-.02-.005-.02-.004-.02-.005-.02-.005-.02-.006-.02-.006-.02-.006-.019-.006-.02-.007-.018-.007-.02-.008-.019-.007-.019-.008-.018-.009-.02-.009-.018-.01-.018-.009-.019-.01-.018-.01L2.24 3.989l.018.01.018.01.019.01.018.009.02.009.018.008.02.008.018.008.02.008.019.007.019.006.02.007.019.006.02.006.02.005.02.006.02.004.019.005.02.004.02.004.02.004.02.004.02.003.021.003.02.002.021.003.02.002.021.002.02.002.021.001.02.001z"/><path id="_443444240" class="fil1" d="M1.623 3.57 5.41 7.355h-.004l-.004.001H5.388l-.004-.002-.003-.001-.003-.002-.003-.002-.003-.002L1.586 3.56l.003.003.003.002.003.001.003.002h.003l.004.002h.015z"/><path id="_443444192" class="fil1" d="m2.24 3.989 3.787 3.786-.002.004-.002.004-.001.004-.001.005-.001.005-.002.005v.006l-.001.006-.001.006v.006l-.001.006v.007l-.001.007v.014l-.001.007v.015l-.001.008v.008l-.001.008v.008l-.001.008v.008l-.001.008-.001.008-.001.008-.001.008-.001.008-.001.008-.002.008-.001.008-3.787-3.786.002-.008.001-.008.002-.008v-.008l.002-.009V4.16l.001-.008.001-.008v-.008l.001-.008V4.12l.001-.007v-.016l.001-.007v-.015l.001-.007V4.06l.001-.007v-.007l.001-.006v-.006l.001-.006.001-.006.001-.006.001-.005.001-.005L2.236 4l.001-.004.002-.004z"/><path id="_637662424" class="fil1" d="M2.325 4.57zm-.427.063zm.082-1.859a.828.828 0 0 1 .258-.097 2.19 2.19 0 0 1 .516-.034c.187.006.342.046.496.085.2.05.4.101.664.074l.071-.007.238-.097c-.019-.096.04-.15.138-.15.014 0 .028.001.04.004l.005-.014c.014-.04.022-.062.044-.08.03-.025.067-.024.158-.022h.001l.152-.267a.037.037 0 0 1 .034-.021h.213c.06.007.11.031.148.063a.217.217 0 0 1 .064.088.13.13 0 0 1 .008.039.097.097 0 0 1-.04.083l-.086.076a.037.037 0 0 1-.017.01l-.066.016a.362.362 0 0 0-.027.075.15.15 0 0 0-.002.068v.003c.01.049.025.085.046.112a.17.17 0 0 0 .07.054.037.037 0 0 1 .016.01l.016.017.005-.012a.037.037 0 0 1 .073.006l.011.08c.002 0 .003.002.004.003.026.023.034.033.047.075a.037.037 0 0 1-.007.036.371.371 0 0 1-.178.12.444.444 0 0 1-.159.011l-.002.001h.001-.002l-.205.107c-.219.144-.492.395-.55.57a.203.203 0 0 1-.01.043 2.457 2.457 0 0 0-.119.483c.01.013.017.033.026.055a.348.348 0 0 0 .052.1.153.153 0 0 0 .023.02.253.253 0 0 0 .024.016.052.052 0 0 1 .027.03c.007.028-.006.047-.035.058a.223.223 0 0 1-.047.01.785.785 0 0 1-.276-.016c-.01-.003-.019-.016-.028-.038v-.003a.564.564 0 0 1-.17.018 1.039 1.039 0 0 1-.086-.007.037.037 0 0 1-.034-.034.271.271 0 0 1 .01-.125c.007-.02.013-.038-.013-.131a.037.037 0 0 1-.001-.016l.001-.011c.004-.056.022-.176.025-.202-.217.031-.447.059-.674.048a1.364 1.364 0 0 1-.63-.168c-.02.039-.01.134-.027.219-.008.04-.005.106-.002.154.002.033.003.06-.001.073-.01.031.114.135.114.136a.037.037 0 0 1-.023.066l-.348-.003-.056-.001a.037.037 0 0 1-.036-.029c-.017-.07.017-.165.001-.219-.007-.091-.03-.147-.044-.227a.735.735 0 0 1 .004-.285l-.099-.327a.473.473 0 0 1-.062-.109.342.342 0 0 1-.014-.21.435.435 0 0 0-.001.295.037.037 0 0 1-.071.024.512.512 0 0 1 .035-.42c.08-.15.225-.27.369-.352z"/></g></g><path d="M3.413 0a3.413 3.413 0 1 1 0 6.827 3.413 3.413 0 0 1 0-6.827z" style="fill:none"/><path d="M1.98 2.774a.037.037 0 0 1 .037.065.867.867 0 0 0-.34.323.44.44 0 0 0-.03.36.037.037 0 0 1-.071.024.512.512 0 0 1 .035-.42.942.942 0 0 1 .369-.352z" style="fill:#636363;fill-rule:nonzero"/><path d="m4.401 2.552.005-.014c.014-.04.022-.062.044-.08.03-.025.067-.024.158-.022h.001l.152-.267a.037.037 0 0 1 .034-.021h.213c.06.007.11.031.148.063a.217.217 0 0 1 .06.075.12.12 0 0 1 .006.09.097.097 0 0 1-.033.045l-.087.076a.037.037 0 0 1-.017.01l-.066.016a.362.362 0 0 0-.027.075.15.15 0 0 0-.002.068v.003c.01.049.025.085.046.112a.17.17 0 0 0 .07.054.037.037 0 0 1 .016.01l.016.018.005-.013a.037.037 0 0 1 .073.006l.011.08a.132.132 0 0 1 .051.079.037.037 0 0 1-.007.035.371.371 0 0 1-.178.12.444.444 0 0 1-.159.011l-.464.241s-.155.149-.24.283c-.055.085-.05.165-.064.197a2.457 2.457 0 0 0-.119.483c.01.013.017.033.026.055a.348.348 0 0 0 .052.1.153.153 0 0 0 .023.02.253.253 0 0 0 .024.016.052.052 0 0 1 .027.03c.007.028-.006.047-.035.058a.223.223 0 0 1-.047.01.785.785 0 0 1-.276-.016c-.01-.004-.02-.017-.029-.04a.564.564 0 0 1-.17.018 1.039 1.039 0 0 1-.085-.008.037.037 0 0 1-.034-.034.271.271 0 0 1 .01-.125c.007-.02.013-.038-.013-.131a.037.037 0 0 1-.001-.016l.027-.213c-.218.031-.448.059-.675.048a1.364 1.364 0 0 1-.63-.168c-.02.039-.01.134-.027.219-.008.04-.005.106-.002.154.002.033.003.06-.001.073-.01.031.114.135.114.136a.037.037 0 0 1-.023.066l-.404-.004a.037.037 0 0 1-.036-.029c-.017-.07.017-.165.001-.219-.013-.168-.082-.217-.04-.512l-.1-.327a.473.473 0 0 1-.06-.109.342.342 0 0 1-.025-.125c0-.064.018-.132.056-.206.037-.072.094-.15.173-.24a.673.673 0 0 1 .371-.189 2.19 2.19 0 0 1 .516-.034c.187.006.342.046.496.085.2.05.4.101.664.074l.071-.007.238-.097c-.019-.096.04-.15.138-.15.014 0 .028.001.04.004z" style="fill:#727272"/><path class="fil5" d="m2.019 2.838-.002.001.002-.001zM4.471 2.766z"/><path class="fil6" d="M4.65 2.795c-.064.015-.042.13.013.176.107.09.2.083.33.078.026-.001.023.028.092.01.04-.011.018.023.092-.024.003-.002.011-.004.013-.008.014 0 .04-.064.041-.087a.993.993 0 0 0-.004-.004l-.011-.08a.037.037 0 0 0-.073-.006l-.005.012-.016-.017a.037.037 0 0 0-.016-.01.17.17 0 0 1-.07-.054.256.256 0 0 1-.045-.112v-.003a.15.15 0 0 1 0-.068.362.362 0 0 1 .028-.075l.066-.017a.037.037 0 0 0 .017-.01l.087-.075a.097.097 0 0 0 .039-.083l-.024.002c-.038.013-.1.03-.104.073-.017.01.012.018-.035.022-.05.004-.063.022-.077.06-.008.021-.054 0-.05.082 0 .033-.102.003-.105.053-.005.088-.01.054-.078.107-.027.02.011.03-.1.056l-.004.002z"/><path class="fil7" d="M4.72 2.684c-.035.025-.035.049-.075.077-.025.019-.04.067-.034.098 0-.03.01-.057.04-.064l.005-.002c.11-.026.072-.036.099-.056.068-.053.073-.02.078-.107.003-.05.106-.02.104-.053-.003-.082.043-.06.051-.082.014-.038.027-.056.077-.06.047-.004.018-.012.035-.022.005-.043.066-.06.104-.073.003 0 .013-.003.024-.002a.13.13 0 0 0-.008-.039c-.027-.003-.065.026-.092.029-.008 0-.016.01-.019.018-.022.004-.069.053-.117.067-.055.017-.03.052-.074.076-.013.007-.001.035-.049.059-.035.017.011.038-.08.06-.046.01-.005.033-.068.076zM5.19 3.027c.014 0 .04-.064.041-.087l-.004-.004-.011-.08a.037.037 0 0 0-.073-.006l-.005.012c.014.08-.135.118-.196.123-.074.007-.073.002-.14-.004a1.138 1.138 0 0 1-.154-.025l.015.015c.107.09.2.083.33.078.026-.001.023.028.092.01.04-.011.018.023.092-.024.003-.002.011-.004.013-.008z"/><ellipse transform="matrix(.43853 .36147 -.33235 .32817 4.412 2.754)" rx=".121" ry=".118" style="fill:#eceff1"/><ellipse class="fil6" transform="matrix(.20275 .16712 -.15366 .15173 4.412 2.754)" rx=".121" ry=".118"/><path d="M4.933 3.182c-.089.002-.217.036-.34.04a.322.322 0 0 0-.227.084c-.135.133-.104.103-.233.258l-.007.01c-.056.067-.05.171-.059.266-.007.084.048.21.027.292a.933.933 0 0 0-.019.089c.028-.124.07-.27.091-.319.027-.233.561-.661.767-.72z" style="fill:#6e6e6e"/><path class="fil6" d="M3.813 4.62c-.002-.09-.034-.192-.034-.308 0-.067-.015-.193.01-.25a.168.168 0 0 0 .008-.051c-.018.005-.119.085-.252.098-.004.032-.03.211-.025.229.026.093.02.11.013.131a.271.271 0 0 0-.01.125.037.037 0 0 0 .034.034c.03.004.059.006.086.007a.564.564 0 0 0 .17-.018v.003zM1.898 4.633zm.042-.536c-.023-.086-.008-.195-.022-.234-.036-.103-.15-.23-.194-.317l.099.327c-.05.299.033.338.051.505.016.053-.029.155-.012.226.004.017.02.029.036.029h.056l-.003-.007c-.03-.074.017-.09.008-.113-.042-.107.013-.302-.019-.416z"/></g></svg>