<svg xmlns="http://www.w3.org/2000/svg" xml:space="preserve" width="655.359" height="655.359" style="shape-rendering:geometricPrecision;text-rendering:geometricPrecision;image-rendering:optimizeQuality;fill-rule:evenodd;clip-rule:evenodd" viewBox="0 0 6.827 6.827"><defs><clipPath id="id0"><path d="M3.413 0a3.413 3.413 0 1 1 0 6.827 3.413 3.413 0 0 1 0-6.827z"/></clipPath><style>.fil4{fill:#4e342e}.fil1{fill:#e9bb77}</style></defs><g id="Layer_x0020_1"><path d="M3.413 0a3.413 3.413 0 1 1 0 6.827 3.413 3.413 0 0 1 0-6.827z" style="fill:#ffcc80"/><g style="clip-path:url(#id0)"><g id="_637662352"><path id="_4627548241" class="fil1" d="m4.811 1.774 3.787 3.787v.002l.002.003.001.003.002.005.002.005.002.006.003.006.003.007.002.008.003.007.003.008.003.009.003.008.003.008.003.009-3.787-3.787-.002-.008-.003-.008-.003-.009-.003-.008-.003-.008-.003-.008-.003-.007-.002-.007-.003-.007-.002-.006-.002-.005-.002-.004-.002-.004v-.002l-.002-.002z"/><path id="_462754848" class="fil1" d="m4.846 1.868 3.787 3.787.002.008.002.008.003.008.002.009.002.008.002.008.001.008.002.008.001.007.001.006.001.006.001.005v.004l.001.003v.002L4.87 1.967v-.003l-.001-.003-.001-.004v-.005l-.002-.005-.001-.007-.002-.007-.001-.007-.002-.008-.002-.008-.002-.008-.002-.009-.002-.008-.002-.009z"/><path id="_462757416" class="fil1" d="m5.002 1.992 3.786 3.786-.003.008-.004.008-.005.009-.006.008-.005.009-.007.008-.006.008-.006.008-.006.007-.005.007-.006.005-.004.005-.004.004-.003.003-.002.002v.001L4.929 2.092h.001l.002-.003.003-.003.004-.004.004-.005.005-.006.006-.006.006-.007.006-.008.006-.008.006-.008.006-.009.005-.008.005-.009L4.998 2z"/><path id="_462757464" class="fil1" d="m5.237 2.487 3.786 3.786-.002.007-.003.006-.004.007-.006.006-.007.005-.007.005-.008.005-.009.005-.009.004-.009.003-.01.003-.009.003-.009.002-.009.001h-.008l-.008.001L5.12 2.55h.008l.008-.001.009-.001.01-.002.009-.003.009-.003.01-.003.008-.005.009-.004.008-.005.007-.005.007-.006.005-.006.005-.006.003-.006z"/><path id="_462757704" class="fil1" d="m5.057 2.517 3.786 3.786h-.064l-.007.001H8.76l-.007.001-.006.001h-.006l-.006.001-.005.001-.005.001-.005.001-.005.002-.004.001-.004.002-.004.001-.002.002-.003.002-3.786-3.787.002-.001.003-.002.004-.002.003-.001.005-.002h.004l.005-.002h.006l.005-.002h.006l.006-.001h.006l.006-.001h.007l.006-.001H5l.006-.001H5.056z"/><path id="_462757536" class="fil1" d="m5.12 2.55 3.786 3.786h-.007l-.007-.002-.006-.002-.006-.002-.006-.002-.005-.003-.005-.003-.004-.003-.004-.003-.003-.003-.003-.002-.002-.003-.002-.002-.002-.001-3.786-3.787.001.002.002.002.003.002.003.003.003.003.004.003.004.003.005.003.005.002.006.003.006.002.006.002.007.001z"/><path id="_462757344" class="fil1" d="M4.912 2.534 8.698 6.32l-.002.002-.002.002-.002.002-.002.002-.002.002-.002.002-.002.002-.002.003-.002.002-.002.003-.002.003-.002.003-.001.004-.002.003-.002.004v.005l-.002.004-.001.005-.001.006v.005l-.001.007v.048l.002.01.001.01.002.012.002.012.002.012L4.887 2.71l-.002-.013-.002-.012-.002-.01-.001-.011-.001-.01-.001-.01v-.009l-.001-.008V2.598l.002-.006v-.005l.002-.005v-.005l.002-.004.002-.004.001-.004.002-.003.002-.003.002-.003.002-.003.002-.003.002-.002.002-.002.002-.002.002-.003.002-.002.002-.002.002-.002z"/><path id="_462757560" class="fil1" d="m4.887 2.709 3.786 3.786.003.013.002.012.001.012.002.012.001.011v.01l.002.011v.039l-.002.008v.009l-.002.008-.001.008-.002.008-.002.008-.002.007-.003.007-.002.007-.003.007-.003.007-.004.006-.003.007-.004.006-.004.006-.004.006-.005.006-.004.006-.005.006-.005.005-.005.006-3.786-3.786.005-.006.005-.006.005-.005.004-.006.005-.006.004-.006.004-.006.004-.007.003-.006.003-.007.004-.006.002-.007.003-.007.003-.007.002-.008.002-.007.001-.008.002-.008.001-.008.001-.009v-.009l.001-.009V2.78l-.001-.011-.001-.011-.002-.012-.002-.012-.002-.012z"/><path id="_462757584" class="fil1" d="m4.833 2.973 3.786 3.786-.01.011-.01.01-.008.009-.008.008-.008.007-.006.006-.006.005-.006.005-.004.004-.004.003-.004.003-.002.002-.002.001-.002.001h-.001L4.752 3.05v-.001l.002-.001.002-.002.003-.002.003-.002.004-.003.005-.004.005-.005.006-.005.007-.006.007-.007.008-.008.01-.01.008-.01z"/><path id="_462757800" class="fil1" d="m4.806 3.107 3.786 3.787.008.008.007.008.007.008.008.009L4.835 3.14l-.007-.008-.007-.008-.008-.009z"/><path id="_462757128" class="fil1" d="m4.835 3.14 3.787 3.787.003.004L4.84 3.144z"/><path id="_462757296" class="fil1" d="M4.848 3.154 8.634 6.94l.005.006.005.006.006.007.005.007.004.007.005.008.004.009.003.009.003.009.001.01v.019l-.002.01-3.787-3.786.002-.01.001-.01v-.01l-.002-.01-.002-.009-.003-.008-.004-.009-.005-.008-.005-.007-.005-.007-.005-.007-.005-.006z"/><path id="_462758376" class="fil1" d="m4.758 3.277 3.787 3.786-.005-.005-.005-.006-.006-.006-.006-.006-.007-.007-.007-.007-.007-.007-.008-.007-.008-.007-.008-.007-.008-.006-3.787-3.787.009.007.008.007.008.007.007.007.008.007.007.007.007.007.006.006.006.006.005.006z"/><path id="_462758232" class="fil1" d="M4.58 3.122 8.366 6.91h-.002l-.002.001-.003.001-.004.002-.005.002-.006.002-.007.003-.007.002-.008.003-.008.003-.01.004-.009.003-.01.004-.01.004-.011.004-.012.004-.011.004-.012.004-.013.005-.012.004-.013.004-.013.005-.012.004-.013.005-.013.004-.013.004-.013.004-.013.005-.013.004-.012.003-.012.004-3.787-3.786.013-.004.012-.004.013-.004.013-.004.012-.004.013-.004.013-.005.013-.004.013-.004.013-.005.013-.004.012-.005.012-.004.012-.004.012-.004.011-.005.011-.004.01-.003.01-.004.01-.004.01-.003.008-.003.008-.003.007-.003.007-.002.005-.002.005-.002.004-.002.004-.001.002-.001h.002z"/><path id="_462758112" class="fil1" d="M4.683 3.205 8.47 6.992l-.009-.007-.008-.007-.01-.007-.008-.007-.009-.007-.008-.007-.009-.006-.007-.007-.008-.006-.007-.005-.005-.005-.006-.004-.004-.004-.003-.002-.002-.002L4.58 3.122l.003.002.003.003.004.003.005.005.006.005.007.005.007.006.008.006.008.007.009.007.009.007.009.007.008.007.009.007z"/><path id="_462758160" class="fil1" d="m4.886 3.261 3.787 3.786-.002.006-.002.005-.002.006-.002.006-.002.007-.002.006-.003.007-.002.007-.003.006-.003.007-.003.007-.003.007-.004.007-.003.007-.004.007-.003.006-.004.007-.004.006-.004.007-.004.005-.005.006-.004.006-.004.005-.005.005-.005.004-.004.004-.005.004-.005.003-.005.003-.005.002-.005.001-.005.002-3.786-3.787h.005l.005-.002.005-.003.005-.002.005-.004.005-.003.004-.004.005-.005.004-.005.005-.005.004-.005.004-.006.005-.006.004-.006.004-.006.003-.007.004-.006.004-.007.003-.007.003-.007.004-.007.003-.007.003-.007.002-.007.003-.006.003-.007.002-.007.002-.006.002-.006.002-.006.002-.006z"/><path id="_462758280" class="fil1" d="m4.77 3.434 3.787 3.787-.01.001h-.01l-.008.001h-.016l-.007-.002L8.5 7.22l-.005-.002-.005-.002-.005-.002-.003-.002-.003-.002-.003-.003L4.69 3.421l.002.002.003.003.004.002.004.002.005.002.006.001.006.002h.007l.007.002h.017l.01-.001z"/><path id="_462758088" class="fil1" d="m4.277 3.228 3.787 3.786-.012.004-.012.003-.01.004-.011.003-.01.003-.01.003-.009.003-.009.003-.008.003-.008.003-.008.002-.007.003-.007.002-.007.003-.006.002-.006.002-.006.002-.005.002-.005.002-.005.002-.004.002-.005.001-.004.002-.003.001-.004.002-.003.001-.003.001-.003.002h-.003l-.002.002h-.002l-.003.002-3.786-3.786.002-.001.003-.001.002-.001.003-.002h.003l.003-.002.003-.002.003-.001.004-.001.004-.002.004-.002.005-.001.005-.002.005-.002.005-.002.006-.002.006-.002.006-.003.007-.002.006-.002.008-.003.007-.003.008-.002.009-.003.009-.003.009-.003.01-.003.01-.003.01-.004.011-.003.012-.003z"/><path id="_462758448" class="fil1" d="m4.078 3.298 3.786 3.786-.004.002-.005.003-.006.004-.006.004-.006.005-.007.006-.006.006-.006.006-.006.006-.006.007-.005.006-.005.007-.004.006-.003.007-.002.006v.005L4 3.384l.001-.006.002-.006.003-.006.004-.006.004-.007.006-.007.005-.006.006-.006.007-.007.006-.005.006-.006.007-.005.006-.004.005-.004.006-.003z"/><path id="_462758472" class="fil1" d="M4 3.384 7.786 7.17v.014l-.001.007-.001.007-.001.009-.001.01-.001.01-.002.01-.001.011-.002.012-.001.013-.002.012-.001.013-.002.013-.002.014-.002.013-.002.013-.002.014-.002.013-.002.013-.002.012-.002.012-.002.012-.002.011-.002.01-.002.01-.002.01-.002.008-.002.007-.001.006-.002.005L3.95 3.708l.001-.005.002-.006.002-.008.002-.008.002-.009.002-.01.002-.01.002-.011.002-.012.002-.012.002-.013.002-.013.002-.013.002-.013.002-.013.002-.014.002-.013.001-.013.002-.013.002-.013.001-.012.002-.012.001-.011.001-.011.001-.01.002-.01v-.008l.001-.008v-.006L4 3.392v-.005z"/><path id="_462758568" class="fil1" d="m3.95 3.708 3.787 3.786-.001.003-.001.002-.001.002-.001.003-.002.002-.001.003-.001.003-.002.002-.002.003-.001.003-.002.003-.002.003-.002.003-.002.003-.002.003-.002.003L3.925 3.75l.003-.003.002-.003.002-.003.002-.003.002-.003.001-.002.002-.003.002-.003.001-.003.002-.002.001-.003.001-.002.002-.003v-.002l.002-.003z"/><path id="_462757920" class="fil1" d="m3.415 3.617 3.787 3.786-.004-.004-.004-.003-.005-.004-.005-.003-.005-.004-.006-.003-.006-.004-.007-.003-.007-.003-.008-.003-.008-.003-.008-.003-.01-.003-3.786-3.786.01.003.008.002.008.004.008.003.007.003.006.003.007.003.005.004.006.003.005.004.004.003.005.004z"/><path id="_462759120" class="fil1" d="M3.164 3.486 6.95 7.272l-.001.001-.001.001-.001.001-.002.002-.002.002-.002.002-.002.003-.003.003-.003.004-.003.004-.003.006-.004.005-.004.007-.004.007-.005.007-.005.009-.005.01-.006.01-.006.01-.006.013-.007.013-.007.014-.007.015-.007.016-.008.017-.008.019-.009.019-.009.02-.009.023-.01.023L3.016 3.77l.01-.023.01-.022.008-.02.008-.02.009-.018.007-.017.008-.016.007-.015.007-.014.007-.013.006-.012.006-.012.005-.01.006-.01.005-.008.004-.008.005-.007.004-.006.003-.006.004-.005.003-.004.003-.004.003-.003.002-.003.002-.003.002-.002.001-.001.002-.001v-.001h.001v-.001z"/><path id="_462758904" class="fil1" d="M2.883 4.035 6.67 7.822l-.03.008-3.787-3.786z"/><path id="_462758928" class="fil1" d="M2.56 4.363 6.346 8.15l-.02.012-.02.011-.02.011-.021.01-.02.01-.02.01-.021.01-.02.008-.02.008-.021.007-.02.007-.02.007-.02.006-.02.006-.02.005-.02.005-.02.005-.02.004-.02.003-.02.004-.02.003-.019.002-.019.003-.02.002-.018.001-.02.002H5.81l-.019.002h-.074L1.93 4.528h.074l.019-.001.018-.002h.02l.018-.003.02-.002.02-.002.019-.002.02-.003.019-.004.02-.004.02-.004.02-.004.019-.005.02-.005.02-.006.02-.006.02-.007.02-.007.02-.008.021-.008.02-.008.02-.01.021-.009.02-.01.02-.01.021-.011.02-.012z"/><path id="_462759144" class="fil1" d="m2.809 5.037 3.786 3.786-.008.003-.01.002-.008.002-.009.002-.009.002-.008.002-.009.001-.008.001h-.023l-.007-.001-.007-.002-.007-.003-.006-.003-.005-.004-3.786-3.787.005.005.006.003.007.003.006.001.008.002h.023l.008-.001.009-.001.008-.002.009-.002.009-.002.008-.002.01-.003z"/><path id="_462759024" class="fil1" d="M3.333 3.574 7.12 7.36l-.01-.003-.009-.003-.009-.003-.009-.003-.008-.004-.008-.003-.008-.004-.008-.003-.008-.004-.007-.004-.007-.003-.007-.004-.007-.004-.006-.003-.006-.004-.006-.003-.005-.004-.005-.003-.005-.003-.005-.003-.004-.003-.004-.003-.003-.002-.004-.002-.002-.003-.003-.001-.002-.002-.002-.001-.001-.001-.001-.001H6.95L3.164 3.485l.001.001.002.001.002.002.002.001.002.002.003.002.003.003.004.002.004.003.004.003.004.003.005.003.005.003.006.003.006.004.006.003.006.004.007.004.006.003.008.004.007.004.007.003.008.004.008.003.009.004.008.003.009.004.009.003.009.003z"/><path id="_462758880" class="fil1" d="m3.925 3.751 3.787 3.787-.006.007-.006.008-.007.008-.007.008-.008.008-.008.009-.008.009-.01.008-.009.01-.01.008-.01.01-.01.009-.012.01-.011.009-.012.01-.012.009-.013.01-.013.009-.014.01-.014.009-.014.01-.015.009-.015.01-.015.008-.016.01-.016.009-.017.009-.016.009-.018.008-.017.009-.018.008-.018.008-3.786-3.786.018-.008.018-.008.017-.009.017-.009.017-.009.017-.009.016-.009.015-.009.016-.01.015-.009.015-.009.014-.01.014-.009.013-.01.014-.009.012-.01.013-.01.012-.009.011-.009.011-.01.011-.009.01-.009.01-.009.01-.009.008-.009.009-.008.008-.009.008-.008.007-.008.006-.008.007-.008z"/><path id="_462759240" class="fil1" d="m3.015 3.771 3.787 3.787-.004.009-.004.009-.003.008-.004.01-.004.008-.003.009-.004.008-.004.009-.004.009-.004.008-.004.009-.004.008-.004.008-.004.009-.004.008-.004.008-.004.009-.004.008-.004.008-.005.008-.004.008-.004.008-.005.008-.004.008-.004.008-.005.008-.004.008-.005.007-.004.008-.005.008-.005.007-.004.008-3.787-3.787.005-.007.005-.008.004-.007.005-.008.004-.008.005-.008.004-.007.005-.008.004-.008.005-.008.004-.008.004-.008.004-.008.005-.008.004-.009.004-.008.004-.008.004-.008.004-.009.004-.008.004-.009.004-.008.004-.009.004-.008.003-.009.004-.009.004-.008.004-.01.004-.008.003-.009.004-.009z"/><path id="_462758616" class="fil1" d="M2.52 4.135 6.306 7.92l-.038.01-3.786-3.786z"/><path id="_462758664" class="fil1" d="M2.853 4.044 6.64 7.83 2.853 4.044z"/><path id="_462758784" class="fil1" d="M2.883 4.036 6.67 7.822l-.008.012-.008.013-.008.012-.009.012-.008.012-.009.012-.008.011-.01.012-.008.011-.01.012-.008.01-.01.012-.01.01-.009.011-.01.01-.01.011-.01.01-.01.01-.01.01-.01.01-.012.01-.01.009-.012.01-.01.008-.012.01-.012.008-.011.009-.012.008-.012.009-.013.008-.012.008-.013.008L2.56 4.363l.013-.007.012-.008.012-.009.012-.008.012-.008.012-.01.012-.008.01-.009.012-.009.011-.01.011-.009.01-.01.011-.01.01-.009.011-.01.01-.01.01-.01.01-.011.01-.01.009-.012.01-.01.009-.012.009-.01.009-.012.008-.012.009-.011.009-.012.008-.012.008-.012.008-.013.009-.012z"/><path id="_462759000" class="fil1" d="m3.53 4.037 3.787 3.786-.022.01-.021.01-.021.01-.02.009-.02.01-.02.009-.018.009-.018.01-.018.008-.017.01-.016.008-.016.009-.015.009-.015.008-.014.009-.014.008-.012.009-.013.008-.011.008-.011.009-.01.008-.01.008-.009.008-.008.008-.008.008-.007.008-.006.007-.005.008-.005.008-.004.007-.004.008-.002.007L3.12 4.31l.003-.007.003-.008.004-.007.005-.008.006-.008.006-.008.007-.007.008-.008.008-.008.009-.008.01-.008.01-.009.01-.008.012-.008.012-.008.013-.009.014-.008.014-.009.014-.009.016-.008.015-.01.017-.008.017-.01.017-.008.019-.01.018-.009.02-.009.02-.01.02-.009.02-.01.022-.009z"/><path id="_462760128" class="fil1" d="m2.919 4.948 3.786 3.786-.003.009-.004.009-.005.008-.005.007-.006.007-.006.007-.007.006-.007.006-.008.005-.008.005-.008.004-.008.004-.009.004-.008.003-.009.003-.009.002L2.81 5.037l.009-.003.008-.002.009-.004.009-.003.008-.004.008-.005.008-.004.008-.006.007-.005.007-.006.006-.007.006-.007.005-.008.005-.008.004-.008z"/><path id="_462759600" class="fil1" d="m1.93 4.528 3.786 3.786H5.7l-.018-.001-.018-.001-.017-.001-.017-.002h-.016l-.016-.002-.016-.002-.016-.002-.015-.001-.014-.002-.015-.002-.013-.002-.014-.002-.013-.002-.012-.003-.012-.002-.012-.002-.01-.002-.01-.003-.01-.002-.01-.003-.009-.002-.008-.002-.007-.003-.007-.002-.006-.002-.006-.002-.004-.002-.004-.002-.004-.002-.003-.002-3.786-3.787.003.002.003.002.004.002.005.002.006.003.006.002.007.002.007.002.008.003.009.002.01.003.009.002.01.002.011.003.012.002.012.002.012.002.013.002.013.003.014.002.014.002.015.001.015.002.016.002.015.001.017.002.016.001.017.001.017.001.018.001.017.001z"/><path id="_462759456" class="fil1" d="m3.12 4.31 3.787 3.786-.003.01-.003.01-.005.013-.004.016-.006.017-.006.018-.006.02-.007.023-.007.022-.008.024-.008.025-.008.026-.008.026-.009.027-.008.026-.009.027-.008.027-.009.026-.008.027-.008.025-.008.025-.007.024-.008.023-.007.021-.006.02-.006.02-.005.016-.005.015-.004.013-.004.011-.002.009-.002.006-3.786-3.786.002-.006.002-.009.004-.01.004-.014.004-.015.006-.017.006-.019.006-.02.007-.022.007-.022.008-.024.008-.025.008-.026.008-.026.009-.026.008-.027.009-.027.008-.027.009-.026.008-.026.008-.026.008-.025.007-.024.008-.023.007-.021.006-.02.006-.02.005-.017.005-.015.004-.013.004-.011z"/><path id="_462759480" class="fil1" d="m5.04 2.163 3.786 3.786.005.006.004.005.005.007.005.007.005.007.004.007.005.007.004.007.004.006.003.006.004.005.002.004.002.003.001.002-3.786-3.785v-.001l-.001-.002-.002-.003-.003-.005-.003-.005-.003-.005-.004-.007-.005-.006-.004-.007-.005-.008-.004-.007-.005-.006-.005-.007-.005-.006z"/><path id="_462760032" class="fil1" d="m5.265 2.41 3.787 3.786-.005.005-.004.005-.003.004-.003.004-.002.005-.002.004-.002.004-.001.004-.001.005-.001.004-.001.005v.005l-.002.005v.006l-.001.006-.001.006-3.786-3.786v-.006l.001-.006.001-.006v-.005l.002-.005v-.005l.001-.005.001-.004.002-.004.001-.005.002-.004.003-.004.003-.004.003-.004.004-.005z"/><path id="_462759672" class="fil1" d="M5.025 1.893 8.81 5.68v.005l-.001.004-.001.005-.001.006-.001.006-.002.007-.001.007-.002.008-.002.008-.002.009-.002.008-.003.009-.002.008-.003.008-3.786-3.786.003-.008.002-.009.003-.008.002-.009.002-.008.002-.008.001-.008.002-.007.001-.007.002-.007v-.005l.001-.005.001-.004v-.005z"/><path id="_462759864" class="fil1" d="m5.272 2.367 3.786 3.787.003.004.003.003.001.004.001.004v.008l-.003.005-.002.004-.004.005-.005.005L5.265 2.41l.005-.005.004-.005.003-.005.002-.004v-.012l-.002-.004-.002-.004z"/><path id="_637662184" class="fil1" d="M5.036 2.159a.596.596 0 0 1 .057.084s.108.07.146.098c.038.028.056.04.026.07-.025.025-.023.04-.028.076-.006.036-.077.064-.117.063-.039-.002-.063-.033-.063-.033s-.124-.004-.145.017c-.021.02-.051.037-.025.175.026.138.002.203-.054.264s-.081.076-.081.076.045.047.083.091c.018.02.067.065.051.121-.015.056-.06.164-.115.173-.055.01-.084-.01-.084-.019 0-.023.041-.017.054-.04.013-.022.005-.036.008-.055.004-.023.02-.03.02-.03s-.042-.05-.086-.085c-.044-.034-.103-.083-.103-.083s-.173.067-.303.106c-.129.039-.177.06-.199.07-.022.01-.076.057-.078.086-.002.03-.03.275-.05.324a.19.19 0 0 1-.025.043c-.058.08-.2.2-.394.286-.236.105-.386.194-.41.273l-.202.638c-.015.05-.064.076-.11.089-.046.013-.096.026-.124.001-.028-.025-.017-.068-.017-.068s.087-.025.123-.098c.056-.116.167-.778.167-.778l.336-.17.054-.029c.07-.038.092-.14.093-.194 0-.053-.007-.097-.108-.127-.1-.03-.17-.088-.17-.088s-.044.031-.148.285a1.694 1.694 0 0 1-.132.265l-.03.008.03-.008a.985.985 0 0 1-.323.327 1.136 1.136 0 0 1-.63.165c-.193-.005-.344-.04-.369-.06-.024-.02-.016-.046.012-.042.028.004.236.035.511-.052.178-.056.298-.12.398-.229l.038-.01-.038.01c.055-.06.104-.132.153-.224.14-.26.16-.465.277-.75.132-.322.315-.552.665-.628.321-.07.545.01.804-.033.22-.037.226-.238.247-.286a.288.288 0 0 1 .075-.105s-.01-.104.008-.167c.032-.108.1-.178.1-.178s.021.05.035.094a.801.801 0 0 1 .023.099l.07-.035c.034-.017.086-.039.086-.039s-.008.056-.023.099a.38.38 0 0 1-.073.1s.073.033.107.067z"/></g></g><path d="M3.413 0a3.413 3.413 0 1 1 0 6.827 3.413 3.413 0 0 1 0-6.827z" style="fill:none"/><path d="m2.896 4.9.208-.613s.06-.078.21-.157c.151-.08.586-.283.62-.453.034-.17.045-.357.045-.357l.601-.225.214.179.04.065s.065-.075.024-.14c-.041-.066-.13-.153-.13-.153s.149-.144.145-.227c-.003-.083-.045-.221.006-.285.052-.064.182-.038.182-.038s.047.048.11.027c.064-.02.062-.097.062-.097l.02-.055-.17-.115s-.043-.076-.099-.111a1.044 1.044 0 0 0-.12-.063s-.022-.163-.032-.198a1.175 1.175 0 0 0-.025-.078s-.073.07-.083.157c-.01.087-.01.187-.01.187s-.043.012-.078.124c-.034.113-.073.224-.201.259-.129.035-.572-.032-.872.05-.3.081-.51.28-.687.77-.177.489-.266.92-.813 1.05l-.112.08s.14.038.319-.01c.178-.05.49-.226.614-.486.125-.26.26-.535.26-.535s.218.092.254.127c.036.035.097.072.04.249-.026.084-.459.309-.459.309l-.154.728.07.034z" style="fill:#6d4c41"/><path class="fil4" d="M2.482 4.145c.055-.06.104-.132.153-.224.14-.26.16-.465.277-.75.132-.322.315-.552.665-.628.321-.07.545.01.804-.033.22-.037.226-.238.247-.286a.288.288 0 0 1 .075-.105s-.01-.104.008-.167c.032-.108.1-.178.1-.178s.021.05.035.094a.801.801 0 0 1 .023.099l.07-.035c.034-.017.086-.039.086-.039s-.008.056-.023.099a.38.38 0 0 1-.073.1s.073.033.107.067a.596.596 0 0 1 .057.084s.108.07.146.098c.038.028.056.04.026.07-.025.025-.023.04-.028.076-.006.036-.077.064-.117.063-.039-.002-.063-.033-.063-.033s-.124-.004-.145.017c-.021.02-.051.037-.025.175.026.138.002.203-.054.264s-.081.076-.081.076.045.047.083.091c.018.02.067.065.051.121-.015.056-.06.164-.115.173-.055.01-.084-.01-.084-.019 0-.023.041-.017.054-.04.013-.022.005-.036.008-.055.004-.023.02-.03.02-.03s-.042-.05-.086-.085l-.103-.083s-.173.067-.303.106c-.129.039-.177.06-.199.07-.022.01-.076.057-.078.086-.002.03-.03.275-.05.324a.19.19 0 0 1-.025.043l-.094.026a.349.349 0 0 0 .079-.127c.028-.086-.002-.273.001-.395s.01-.17.01-.17l.03-.008s.034.056.132.02c.097-.036.238-.08.28-.095-.031-.126.098-.31.18-.378-.039.074-.159.236-.084.315.022.023.058.07.158.148.1.079.204.138.204.138l.012.064s.014-.019.02-.04c.005-.02-.003-.045-.04-.085-.039-.04-.242-.237-.252-.253-.01-.016-.02-.025-.02-.025l.062.002s.039-.06.082-.107c.043-.046.066-.071.081-.121s.037-.09.037-.09h.006s-.019.085-.012.145c.006.059.016.102-.02.154-.035.052-.094.104-.094.104L4.71 3s.08-.084.102-.117c.043-.066.028-.11.022-.15-.015-.107.03-.207.03-.207s-.038-.038-.054-.078a.276.276 0 0 1-.018-.087s.047.05.117.07a.919.919 0 0 0 .136.016l.017-.008s.002.042.042.06c.04.017.084-.006.092-.031.009-.025-.001-.054-.001-.054l-.02-.013-.006-.03.064.019s.02-.015-.016-.035a7.137 7.137 0 0 1-.144-.088s-.044-.082-.081-.108c-.047-.032-.131-.049-.131-.049l-.021.065a.09.09 0 0 0-.055.001s-.023-.075-.021-.14a.424.424 0 0 1 .023-.133s.006.07.011.1a.222.222 0 0 0 .032.073s.015-.05.003-.115c-.01-.065-.032-.133-.032-.133s-.051.068-.064.144c-.013.077.002.2.002.2s-.029-.014-.05.026a.669.669 0 0 0-.051.134c-.015.05-.04.182-.204.227-.164.044-.516-.031-.825.035-.316.069-.52.359-.573.46-.098.181-.14.325-.219.538-.073.196-.088.302-.237.509a.745.745 0 0 1-.016.022l-.082.022zm.225-.061c.046-.083.112-.214.15-.344.104-.35.248-.562.248-.562s.011.072.035.129a.364.364 0 0 0 .16.197c.106.063.185.07.19.182a.268.268 0 0 1-.081.206l-.115.032a4.57 4.57 0 0 0 .054-.029c.07-.038.092-.14.093-.194 0-.053-.007-.097-.108-.127-.1-.03-.17-.088-.17-.088s-.044.031-.148.285a1.694 1.694 0 0 1-.132.265l-.075.02c.147-.227.17-.43.17-.43s-.105.223-.149.304c-.03.055-.064.106-.095.146l-.027.008z"/><path class="fil4" d="M4.93 2.218s.028 0 .055.011a.12.12 0 0 1 .043.034l-.01.01L5 2.26l-.01.032s-.027-.015-.04-.032c-.013-.018-.02-.043-.02-.043zM2.564 4.123a.87.87 0 0 1-.293.227l-.027.063s-.045.018-.077.027a3.757 3.757 0 0 0-.108.033s.097-.001.21-.032a.966.966 0 0 0 .539-.385l.075-.02a.985.985 0 0 1-.323.327 1.136 1.136 0 0 1-.63.165c-.193-.005-.344-.04-.369-.06-.024-.02-.016-.046.012-.042.028.004.236.035.511-.052.178-.056.298-.12.398-.229l.082-.022zm.17-.047c-.042.056-.076.092-.076.092l.05-.084.026-.008zm.675-.184a.273.273 0 0 1-.044.035l-.367.229-.13.594.026.1s.133-.426.149-.473c.016-.046.035-.11.035-.11s.021-.007.048-.027c.027-.021.09-.08.29-.189.147-.08.314-.165.415-.274l.094-.026c-.058.08-.2.2-.394.286-.236.105-.386.194-.41.273l-.202.638c-.015.05-.064.076-.11.089-.046.013-.096.026-.124.001-.028-.025-.017-.068-.017-.068s.087-.025.123-.098c.056-.116.167-.778.167-.778l.336-.17.115-.032z"/></g></svg>