<svg xmlns="http://www.w3.org/2000/svg" xml:space="preserve" width="655.359" height="655.359" style="shape-rendering:geometricPrecision;text-rendering:geometricPrecision;image-rendering:optimizeQuality;fill-rule:evenodd;clip-rule:evenodd" viewBox="0 0 6.827 6.827"><defs><clipPath id="id0"><path d="M3.413 0a3.413 3.413 0 1 1 0 6.827 3.413 3.413 0 0 1 0-6.827z"/></clipPath><style>.fil9{fill:#247328}.fil10{fill:#4e342e}.fil1{fill:#b0bec5}.fil6{fill:#ef5350}.fil4{fill:#ffa726}.fil12{fill:#ffd180}</style></defs><g id="Layer_x0020_1"><path d="M3.413 0a3.413 3.413 0 1 1 0 6.827 3.413 3.413 0 0 1 0-6.827z" style="fill:#cfd8dc"/><g style="clip-path:url(#id0)"><g id="_637659664"><path id="_4421175441" class="fil1" d="m1.94 2.756 3.786 3.786h-.038l-.005.001-.006.001-.005.001-.006.002-.005.001-.006.002-.006.002-.006.002-.006.003L1.851 2.77l.006-.003.006-.002.006-.002.005-.002.006-.001.005-.002h.006l.005-.002h.006l.005-.001h.027z"/><path id="_442117424" class="fil1" d="m4.577 3.546 3.787 3.786.016.018.014.018.013.016.01.016.01.016L4.64 3.63l-.009-.016-.01-.016-.013-.017-.015-.017z"/><path id="_442118096" class="fil1" d="m4.64 3.63 3.787 3.786.022.043-3.786-3.786z"/><path id="_442119032" class="fil1" d="m4.663 3.673 3.786 3.786h-.005l-.005.002h-.004l-.005.001-.005.001H8.42l-.005.001-.005.001h-.005l-.005.001-.005.001H8.39l-.005.001H8.38l-.005.001-.006.001h-.005l-.005.001h-.005l-.005.001h-.011l-.005.001h-.005l-.006.001h-.011l-.005.001h-.011l-.005.001h-.006L4.498 3.69h.016l.006-.001h.011l.005-.001h.011l.005-.001h.005l.005-.001h.006l.005-.001h.005l.005-.001h.005l.005-.001h.005l.006-.002h.01l.005-.001.005-.001h.005l.005-.002h.005l.004-.001h.005l.005-.002h.005z"/><path id="_442119296" class="fil1" d="m4.498 3.69 3.786 3.786-.018.001h-.131l-.02-.001-.019-.001-.02-.002-.019-.001-.019-.002-.02-.002-.02-.002-.019-.002-.02-.002-.019-.003-.02-.002-.019-.003-.02-.003-.019-.004-.02-.003-.018-.004-.02-.003-.019-.004-.019-.005-.019-.004-.019-.004-.018-.005-.019-.005-.018-.005L3.886 3.62l.019.005.018.005.019.004.019.005.019.004.019.004.019.004.02.004.019.004.019.003.02.003.019.004.02.002.019.003.02.003.02.002.019.002.02.002.019.002.02.002.019.001.019.001.02.001.019.001h.019l.019.001h.093z"/><path id="_442118696" class="fil1" d="m2.01 2.303 3.786 3.786.005.005.005.005.005.005.004.006.004.005.004.005.005.006.003.006.004.006.004.006.004.006.003.006.003.006.004.007.003.006.003.007.003.006.003.007.002.007.003.007.003.007.002.007.002.007.003.007.002.007.002.007-3.786-3.786-.002-.007-.003-.008-.002-.007-.002-.007-.003-.007-.002-.007-.003-.006-.003-.007-.002-.007-.003-.007-.003-.006-.004-.007-.003-.006-.003-.006-.004-.006-.003-.007-.004-.006-.004-.005-.004-.006-.004-.006-.004-.005-.004-.006-.005-.005-.004-.005-.005-.005z"/><path id="_442119056" class="fil1" d="m2.75 3.566 3.786 3.786-.026-.014-.02-.015-.017-.014-3.786-3.787.016.015.02.014z"/><path id="_442118840" class="fil1" d="m1.85 2.77 3.787 3.787-.016.008-.015.008-.014.01-.013.01-.012.012-.011.012-.01.013-.01.014-.01.013-.007.015-.007.014-.007.015-.006.015-.006.015-.005.015-.004.014-.004.015-.003.014-.004.014-.002.014-.003.012-.002.013-.002.011-.002.011-.001.01-.002.009v.008l-.002.006-.002.006v.004l-.002.003-.002.001-3.786-3.786.002-.002v-.002l.002-.005.002-.005v-.007l.002-.008.002-.008.001-.01.002-.011.002-.012.002-.012.002-.013.003-.013.003-.014.004-.014.004-.015.004-.015.005-.015.006-.015.006-.014.006-.015.008-.015.008-.014.008-.014.01-.013.01-.013.012-.012.012-.012.013-.01.014-.01.015-.009z"/><path id="_442119176" class="fil1" d="M3.271 4.632 7.057 8.42v.004L3.273 4.637v-.004z"/><path id="_442119224" class="fil1" d="M3.203 4.63 6.99 8.418l.002.005.004.004L7 8.43 3.213 4.643 3.21 4.64l-.003-.005z"/><path id="_442119368" class="fil1" d="m3.231 4.677 3.786 3.786h-.002l-.003-.002-.002-.002-.003-.002-3.786-3.786.002.002.003.002h.002z"/><path id="_442118648" class="fil1" d="m2.522 4.187 3.786 3.786v.007l.002.006.003.007.004.005.005.005-3.787-3.786-.004-.005-.004-.006-.003-.006-.002-.006z"/><path id="_442118768" class="fil1" d="M2.782 4.304 6.568 8.09l.002.007.003.006.004.005.005.005-3.786-3.787-.005-.004-.004-.006-.003-.006z"/><path id="_442118864" class="fil1" d="m2.706 4.3 3.786 3.786v.002L2.707 4.302V4.3z"/><path id="_442119800" class="fil1" d="m2.591 4.21 3.787 3.786-.004.006-.004.006-.005.007-.005.006-.006.007-.005.004-.006.003h-.006L2.551 4.25h.006l.006-.004.005-.005.006-.006.005-.007.005-.006.004-.007z"/><path id="_442119920" class="fil1" d="m2.637 4.281 3.786 3.786.001.007.003.006.003.006.004.005-3.786-3.786-.004-.005-.004-.006-.002-.006z"/><path id="_442120136" class="fil1" d="m2.851 4.32 3.787 3.787-.004.005-.004.007-.005.006-.005.007-.005.006-.006.005-.006.003h-.006L2.811 4.362l.006-.001.006-.003.005-.005.006-.006.005-.007.005-.007.004-.006z"/><path id="_442119968" class="fil1" d="m2.706 4.302 3.787 3.786-.004.006-.004.006-.005.007-.005.007-.006.006-.005.005-.006.003h-.006L2.666 4.342h.006l.005-.004.006-.005.006-.006.005-.007.005-.006.004-.007z"/><path id="_442119656" class="fil1" d="M2.098 2.465 5.884 6.25v.003l.001.001v.003h.001v.004L2.102 2.475v-.001L2.1 2.473V2.47l-.001-.001v-.002z"/><path id="_442120016" class="fil1" d="m2.811 4.36 3.786 3.787-.003-.001-.003-.002-.003-.002-3.786-3.786.003.002.003.002z"/><path id="_442119632" class="fil1" d="m2.851 4.318 3.786 3.786v.003L2.852 4.321v-.002z"/><path id="_442119392" class="fil1" d="M3.032 4.57 6.82 8.357v.003L3.033 4.574V4.57z"/><path id="_442119704" class="fil1" d="m2.816 4.45 3.786 3.786.002.005.003.005.003.004.003.004-3.786-3.787-.003-.003-.004-.005-.002-.004z"/><path id="_442120112" class="fil1" d="m2.879 4.466 3.786 3.786-.003.006-.004.005-.005.006-.004.005-.005.004-.004.004-.005.002H6.63L2.844 4.498h.005l.004-.003.005-.003.005-.004.004-.005.004-.006.004-.005z"/><path id="_442120568" class="fil1" d="M2.992 4.614 6.78 8.4l-.005-.002-.005-.003-3.786-3.786.004.003z"/><path id="_442120832" class="fil1" d="m2.965 4.571 3.787 3.787.002.004.003.003.003.003-3.786-3.786-.003-.003-.003-.004z"/><path id="_442120256" class="fil1" d="m2.666 4.342 3.786 3.786H6.45l-.004-.003-.003-.002-3.786-3.786.003.002.003.002z"/><path id="_442120328" class="fil1" d="M3.033 4.574 6.819 8.36l-.003.005-.005.007-.004.006-.006.007-.005.006-.006.005-.006.003H6.78L2.992 4.615h.006l.006-.004.006-.005.005-.006.005-.007.005-.007.004-.006z"/><path id="_442120352" class="fil1" d="M2.844 4.498 6.63 8.284h-.002l-.003-.002-.003-.002-.002-.002-3.786-3.786.002.002.003.002h.002z"/><path id="_442120664" class="fil1" d="m2.551 4.25 3.786 3.786-.003-.001-.003-.002-.004-.002-3.786-3.787.003.003.004.002z"/><path id="_442120688" class="fil1" d="m3.272 4.637 3.786 3.786-.004.005-.004.007-.005.006-.005.007-.005.006-.006.005-.006.003h-.006L3.231 4.678l.006-.001.006-.003.005-.005.006-.006.005-.007.005-.007.004-.006z"/><path id="_442120592" class="fil1" d="M1.665 3.125 5.451 6.91h-.002L1.663 3.123h.001z"/><path id="_442120376" class="fil1" d="m2.1 2.475 3.787 3.787v.003l.002.004v.004l.002.003v.004l.001.004.001.004.001.003-3.786-3.786v-.004l-.002-.003v-.004l-.002-.004v-.004l-.001-.003-.001-.004z"/><path id="_442120880" class="fil1" d="m2.108 2.505 3.786 3.786.002.007.001.007.001.007.002.007.001.007.001.007.001.007.001.007.001.007.001.007.001.007.001.007.001.007.001.007v.007l.001.007.001.007v.006l.001.007.001.007v.007l.001.006v.007l.001.007V6.47l.001.006v.006l.001.007V6.5l.001.006-3.786-3.786v-.012l-.001-.007V2.69l-.001-.007v-.006L2.13 2.67v-.006l-.001-.007V2.65l-.001-.006v-.007l-.001-.007-.001-.007v-.007l-.002-.006v-.007l-.001-.007-.001-.007v-.007l-.002-.007v-.007l-.002-.007v-.007l-.002-.007-.001-.007-.002-.007v-.007l-.002-.007-.002-.007z"/><path id="_442120808" class="fil1" d="m2.133 2.72 3.786 3.787-.001-.001L2.13 2.72z"/><path id="_442121360" class="fil1" d="m2.131 2.72 3.787 3.786-.003.001L2.13 2.721z"/><path id="_442121288" class="fil1" d="m2.129 2.72 3.786 3.787-.003.002-.004.001-.004.002-.004.002-.004.002-.004.001-.005.002-.004.002-.005.002-.005.002-.005.001-.005.002-.005.002-.005.002-.005.001-.005.002-.005.001-.005.002-.006.001-.005.002h-.005l-.005.002h-.006l-.005.002h-.005l-.005.001h-.005l-.005.001h-.019L1.976 2.76H2l.005-.001h.005l.005-.001.005-.001.005-.001.006-.002h.005l.005-.002.005-.001.006-.002.005-.001.005-.002.005-.002.005-.001.005-.002.005-.002.005-.002.005-.001.004-.002.005-.002.004-.002.005-.002.004-.001.004-.002.004-.002.003-.002z"/><path id="_442121576" class="fil1" d="m1.976 2.76 3.786 3.787h-.005l-.004-.002H5.744l-.005-.001h-.004l-.005-.001h-.004L1.94 2.755h.008l.005.001h.004l.005.001.004.001h.005z"/><path id="_442121024" class="fil1" d="m3.886 3.619 3.787 3.786-.01-.002-.016-.002-.02-.002-.024-.001-.029-.002-.031-.001-.035-.002-.039-.001-.04-.002h-.043l-.045-.002-.047-.001-.047-.001-.05-.001-.049-.002h-.05L7.05 7.38l-.05-.001-.048-.001-.047-.002-.047-.001-.044-.002-.042-.001-.04-.002-.038-.002-.034-.002-.03-.002-.028-.002-.023-.003-.02-.002-.013-.003-.01-.003L2.75 3.566l.01.003.014.002.018.003.024.002.027.003.03.002.035.002.037.002.04.001.043.002.044.001.046.002.048.001.048.002h.05l.05.002.05.001.049.001.048.001.048.002h.047l.045.002.043.001.04.002h.038l.035.002.032.002.028.001.025.002.02.002.015.002z"/><path id="_442121432" class="fil1" d="M3.352 4.095 7.14 7.881h.001L3.354 4.096z"/><path id="_442121456" class="fil1" d="m3.39 4.24 3.787 3.787L3.39 4.241z"/><path id="_637659640" class="fil1" d="M3.39 4.24zm-.048-1.586.007.002a.93.93 0 0 1 .06.019c.149.053.222.128.362.243l.09.07c.26.195.696.481.78.642l.022.043a1.3 1.3 0 0 1-.165.017 2.044 2.044 0 0 1-.612-.071c-.083-.023-1.068-.02-1.137-.053-.306-.148.357-.357.143-.673-.025-.029-.014-.068-.012-.087.003-.02.017-.036.038-.05a.293.293 0 0 1 .08-.033c.055-.017.115-.029.15-.044a.344.344 0 0 1 .194-.025zm-.139 1.977a.038.038 0 0 0 .068.001.05.05 0 0 1 0 .005c-.008.011-.025.042-.04.04-.015-.003-.024-.026-.028-.046zm-.238-.06a.038.038 0 0 0 .067 0 .05.05 0 0 1 0 .003c-.007.012-.025.042-.04.04-.013-.003-.023-.023-.027-.043zm-.149-.121a.038.038 0 0 0 .063.016c-.01.014-.023.034-.035.032-.015-.003-.025-.028-.028-.048zm.536-.355h.002-.002zm-.57.209a.038.038 0 0 0 .07.014v.003c-.009.011-.026.042-.041.04-.017-.003-.028-.036-.029-.057zm-.145-.023a.038.038 0 0 0 .069.018v.003c-.008.012-.025.042-.04.04-.019-.003-.03-.04-.03-.06zm-.115-.094a.038.038 0 0 0 .07.023c-.009.012-.026.042-.04.04-.02-.004-.03-.043-.03-.063zM1.851 2.77c-.177.076-.17.348-.186.354-.002 0-.003-.002-.006-.007-.115-.201-.183-.556.006-.742a.383.383 0 0 1 .313-.098v-.001a.327.327 0 0 1 .123.198l.007.03c.016.074.022.151.025.216L2.13 2.72H2.13a.362.362 0 0 1-.153.04.44.44 0 0 0-.036-.004.176.176 0 0 0-.09.015z"/></g></g><path d="M3.413 0a3.413 3.413 0 1 1 0 6.827 3.413 3.413 0 0 1 0-6.827z" style="fill:none"/><path d="M1.665 3.125c-.002 0-.003-.002-.006-.007-.115-.201-.183-.556.006-.742a.383.383 0 0 1 .313-.098v-.001c.064.043.101.117.123.198-.24-.004-.407.093-.434.355-.01.092-.007.23-.002.295z" style="fill:#ffb74d"/><path class="fil4" d="M2.133 2.72h-.004a.362.362 0 0 1-.153.04.44.44 0 0 0-.036-.004.176.176 0 0 0-.09.015c-.176.076-.168.348-.185.354a2.023 2.023 0 0 1 .002-.295c.027-.262.194-.359.434-.355l.007.03c.016.074.022.151.025.216zM3.342 2.654l.007.002a.93.93 0 0 1 .06.019c.149.053.222.128.362.243.234.191.775.531.87.712l.022.043a1.887 1.887 0 0 1-1.007-.139 1.79 1.79 0 0 1-.764-.641c-.025-.029-.014-.068-.012-.087.01-.077.194-.095.268-.127a.344.344 0 0 1 .194-.025z"/><path d="M2.868 2.284c.075.079.165.177.192.209.092.105.19.135.282.161a.344.344 0 0 0-.194.025c-.12.052-.344.043-.244.223.238.341.482.498.75.627.246.117.543.166.84.156.05.066.161.221.218.302.173.245.345.495.568.698-.07.105-.118.187-.266.091-.177-.113-.309-.264-.43-.404-.176-.202-.33-.38-.567-.365a.324.324 0 0 0-.241.122c-.048.052-.082.088-.147.055l-.164.068-.023.002-.051-.013a.787.787 0 0 0-.225.079.275.275 0 0 1 .074.103.543.543 0 0 1 .036.19.038.038 0 1 1-.077.002.471.471 0 0 0-.03-.162.198.198 0 0 0-.064-.084.303.303 0 0 0-.068.186.038.038 0 0 1-.077-.005.393.393 0 0 1 .067-.207l-.009.002a.215.215 0 0 0-.05.017c-.038.018-.072.046-.078.083a.038.038 0 0 1-.075-.012c.01-.066.062-.113.12-.14a.292.292 0 0 1 .069-.023.193.193 0 0 1 .066-.002c.009.001.017.004.025.007a.563.563 0 0 1 .176-.082.048.048 0 0 1 0-.03c.005-.02.034-.041.07-.061a.691.691 0 0 1 .013-.007c-.025-.003-.046-.008-.067-.012-.072-.015-.13-.027-.278 0l-.026.005-.013-.022-.012-.019a.578.578 0 0 0-.138.05c.038.04.038.088.037.15v.048a.038.038 0 0 1-.076.003v-.052c0-.042 0-.075-.023-.1a.237.237 0 0 0-.045.134.038.038 0 0 1-.076-.006.331.331 0 0 1 .042-.148.166.166 0 0 0-.025.01c-.028.012-.052.033-.056.058a.038.038 0 0 1-.075-.012c.008-.054.05-.094.098-.116a.237.237 0 0 1 .056-.018.159.159 0 0 1 .055-.002.097.097 0 0 1 .017.004.498.498 0 0 1 .166-.07.045.045 0 0 1 0-.03c.005-.02.023-.036.051-.049a.51.51 0 0 1 .076-.026 1.16 1.16 0 0 1 .256-.038 1.295 1.295 0 0 1-.406-.188c-.123-.092-.386-.29-.442-.408a1.355 1.355 0 0 1-.063-.161c-.033-.099-.063-.187-.161-.278a2.841 2.841 0 0 0-.093-.081 1.172 1.172 0 0 0-.035-.256.327.327 0 0 0-.12-.188c0-.069.026-.179.157-.234.26-.109.555.054.733.24z" style="fill:#2e7d32"/><path class="fil6" d="M2.35 2.98a.494.494 0 0 0-.124-.178 2.841 2.841 0 0 0-.093-.081 1.172 1.172 0 0 0-.035-.256.327.327 0 0 0-.12-.188c0-.069.026-.179.157-.234a.456.456 0 0 1 .174-.035c.134.024.236.141.236.282a.402.402 0 0 1-.194.69z"/><path d="M2.372 2.255a.114.114 0 0 1 .08.195.114.114 0 0 1-.194-.08.114.114 0 0 1 .114-.115z" style="fill:#e0f2f1"/><path d="M2.398 2.343a.037.037 0 0 0-.064.026.037.037 0 0 0 .064.027.037.037 0 0 0 0-.053z" style="fill:#212121"/><path class="fil6" d="M2.904 2.902a2.1 2.1 0 0 0 .177.22c.06.057.142.1.218.105.118.006.113-.052.086-.103.022.02.258.147.229-.025.04.034.158.043.156-.044.021.01.173.032.09-.068a2.854 2.854 0 0 1-.089-.07c-.14-.114-.213-.189-.363-.242a.93.93 0 0 0-.06-.019l-.006-.002a.344.344 0 0 0-.194.025c-.043.019-.1.03-.15.044a.346.346 0 0 0-.08.034c-.04.027-.056.07-.014.145z"/><path class="fil9" d="m3.886 3.619.544.584c.051.051.101.109.154.169.121.14.253.29.43.404.148.096.195.014.266-.091-.223-.203-.395-.453-.568-.698a19.151 19.151 0 0 0-.218-.302c-.21.007-.42-.016-.612-.07l.004.004zM3.619 3.877c-.06.112-.09.144-.267.218h.002a.691.691 0 0 0-.012.007c-.037.02-.066.04-.071.061a.048.048 0 0 0 0 .03c.048.006.094.006.12.048l.05.013.024-.002.164-.068c.065.033.099-.003.147-.055a.324.324 0 0 1 .254-.122 1.042 1.042 0 0 0-.151-.018.506.506 0 0 1-.26-.112z"/><path class="fil10" d="M3.27 4.193a.562.562 0 0 0-.17.078l-.005.004a.108.108 0 0 0-.025-.007.193.193 0 0 0-.066.002.292.292 0 0 0-.07.023c-.057.027-.109.074-.12.14a.038.038 0 0 0 .076.012c.006-.037.04-.065.077-.083a.215.215 0 0 1 .06-.019.393.393 0 0 0-.067.207.038.038 0 0 0 .077.005.303.303 0 0 1 .068-.186c.03.023.05.051.064.084.02.048.028.104.03.162a.038.038 0 0 0 .077-.003.543.543 0 0 0-.036-.19.275.275 0 0 0-.074-.102.786.786 0 0 1 .224-.08c-.025-.04-.071-.041-.12-.047z"/><path d="m2.913 3.971.044.076.013.02.013.021.026-.005c.148-.027.206-.015.278 0l.065.012c.175-.073.207-.106.265-.215a.893.893 0 0 1-.32-.043c-.08.002-.18.018-.255.038a.51.51 0 0 0-.076.026c-.028.013-.046.029-.052.048a.047.047 0 0 0-.001.022z" style="fill:#1f6b23"/><path class="fil10" d="M2.621 4.066c-.047.022-.09.062-.098.116a.038.038 0 0 0 .075.012c.004-.025.028-.046.056-.059a.166.166 0 0 1 .025-.01.331.331 0 0 0-.042.15.038.038 0 1 0 .076.005.237.237 0 0 1 .045-.134c.023.025.023.058.023.1v.052a.038.038 0 0 0 .077-.003v-.048c0-.062 0-.11-.038-.15a.577.577 0 0 1 .137-.05l-.044-.076.002.008a.498.498 0 0 0-.165.07v.001a.097.097 0 0 0-.018-.004.159.159 0 0 0-.055.002.237.237 0 0 0-.056.018z"/><path class="fil12" d="M2.522 4.185c-.002.02.01.061.03.065.014.002.031-.028.04-.04-.003-.023-.02-.04-.04-.04a.038.038 0 0 0-.03.015zM2.637 4.277c-.002.02.009.062.029.065.015.002.032-.028.04-.04-.002-.022-.019-.04-.04-.04a.038.038 0 0 0-.03.015zM2.782 4.296c-.002.02.01.061.029.065.015.002.032-.029.04-.04-.002-.023-.019-.04-.04-.04a.038.038 0 0 0-.029.015zM2.815 4.433c-.002.02.01.061.03.065.014.002.031-.028.04-.04-.003-.023-.02-.04-.04-.04a.038.038 0 0 0-.03.015zM2.963 4.549c-.001.02.01.061.03.065.014.002.032-.028.04-.04-.002-.023-.02-.04-.04-.04a.038.038 0 0 0-.03.015zM3.202 4.612c-.002.02.01.061.03.065.014.002.031-.028.04-.04-.003-.023-.02-.04-.04-.04a.038.038 0 0 0-.03.015z"/></g></svg>