<svg version="1.1" id="Layer_1" xmlns="http://www.w3.org/2000/svg" x="0" y="0" viewBox="0 0 512 512" style="enable-background:new 0 0 512 512" xml:space="preserve"><style>.st2{fill:#ffa730}.st3{fill:#e58d23}.st15{fill:#ffd59a}.st17{fill:#a56021}.st19{fill:#bf6c0d}.st21{fill:#8c4c17}</style><circle class="st19" cx="403.259" cy="162.307" r="71.123"/><path class="st2" d="M403.26 213.431c-28.189 0-51.124-22.934-51.124-51.124s22.935-51.123 51.124-51.123 51.123 22.934 51.123 51.123-22.934 51.124-51.123 51.124z"/><path class="st17" d="M372.136 172.307c0-38.112 29.979-69.219 67.641-71.035-10.675-6.401-23.164-10.088-36.517-10.088-39.28 0-71.124 31.843-71.124 71.123 0 39.281 31.843 71.124 71.124 71.124 1.168 0 2.329-.032 3.483-.088-20.729-12.429-34.607-35.108-34.607-61.036z"/><path class="st3" d="M403.26 111.184c-28.189 0-51.124 22.934-51.124 51.123 0 20.714 12.391 38.578 30.144 46.602-6.435-10.693-10.144-23.212-10.144-36.602 0-25.905 13.858-48.561 34.557-60.995a51.334 51.334 0 0 0-3.433-.128z"/><circle class="st19" cx="108.741" cy="162.307" r="71.123"/><path class="st17" d="M74.617 162.307c0-32.879 22.316-60.533 52.624-68.678a71.17 71.17 0 0 0-18.5-2.445c-39.28 0-71.124 31.843-71.124 71.123 0 39.281 31.843 71.124 71.124 71.124a71.17 71.17 0 0 0 18.5-2.445c-30.308-8.145-52.624-35.8-52.624-68.679z"/><path class="st2" d="M108.741 213.431c-28.189 0-51.124-22.934-51.124-51.124s22.935-51.123 51.124-51.123 51.123 22.934 51.123 51.123-22.933 51.124-51.123 51.124z"/><path class="st3" d="M94.234 211.322c-12.148-12.755-19.617-30.007-19.617-49.014s7.468-36.259 19.617-49.014c-21.144 6.27-36.617 25.864-36.617 49.014s15.473 42.744 36.617 49.014z"/><ellipse cx="251.22" cy="256" rx="187.821" ry="176.427" style="fill:#ffeacf"/><ellipse transform="rotate(-30 157.36 240.523)" class="st19" cx="157.373" cy="240.519" rx="64.93" ry="47.448"/><circle class="st21" cx="179.955" cy="229.778" r="18.76"/><path class="st15" d="M105.398 276c0-97.438 84.09-176.428 187.821-176.428 22.171 0 43.44 3.619 63.188 10.245-30.011-19.092-66.212-30.245-105.188-30.245-103.73.001-187.821 78.99-187.821 176.428 0 76.612 51.99 141.808 124.633 166.182-49.861-31.72-82.633-85.355-82.633-146.182z"/><path d="M360.6 385.104a6 6 0 0 1-2.677-11.373c32.064-15.946 46.136-58.313 46.274-58.738a6.005 6.005 0 0 1 7.556-3.858 5.998 5.998 0 0 1 3.862 7.549c-.624 1.934-15.706 47.569-52.349 65.792a5.995 5.995 0 0 1-2.666.628z" style="fill:#fcf9de"/><circle class="st15" cx="219.327" cy="142.143" r="17.904"/><ellipse transform="rotate(-60 344.377 240.528)" class="st19" cx="344.373" cy="240.519" rx="47.448" ry="64.93"/><circle class="st21" cx="321.791" cy="229.778" r="18.76"/><path class="st17" d="M105.398 276c0-23.315 4.825-45.568 13.571-65.941-20.601 18.489-28.644 44.191-17.828 62.925a35.227 35.227 0 0 0 4.306 5.931c-.016-.972-.049-1.94-.049-2.915z"/><ellipse cx="251.112" cy="341.859" rx="63.214" ry="41.141" style="fill:#ffb74b"/><path class="st15" d="M313.415 334.754c-2.964-14.024-20.876-63.965-20.876-63.965-2.323-11.2-20.061-19.911-41.607-19.911-21.048 0-38.463 8.313-41.424 19.139-14.364 24.74-19.915 58.264-21.265 67.831-.219.862-.342 1.74-.346 2.633l-.002.019h.001l-.001.028c0 10.869 16.462 19.679 36.768 19.679 7.623 0 14.7-1.244 20.569-3.371 3.778-1.369 8.193-1.369 11.971 0 5.869 2.127 12.946 3.371 20.57 3.371 20.307 0 36.768-8.811 36.768-19.679 0-.974-.135-1.931-.393-2.866-.264-.968-.527-1.934-.733-2.908z"/><path class="st19" d="M283.029 300.213c0-9.045-14.242-16.377-31.81-16.377s-31.81 7.332-31.81 16.377c0 0-2.105 17.696 14.859 26.788 4.555 3.009 10.474 4.831 16.951 4.831s12.396-1.823 16.951-4.831c16.965-9.092 14.859-26.788 14.859-26.788z"/><path class="st3" d="M251.217 332.33a6 6 0 0 1-1.656-11.768c.256-.075 18.231-5.633 17.776-16.66a6 6 0 0 1 5.748-6.242 6.006 6.006 0 0 1 6.242 5.748c.852 20.66-25.347 28.373-26.463 28.69a5.981 5.981 0 0 1-1.647.232z"/></svg>