<svg version="1.1" id="Layer_1" xmlns="http://www.w3.org/2000/svg" x="0" y="0" viewBox="0 0 512 512" style="enable-background:new 0 0 512 512" xml:space="preserve"><style>.st1{fill:#ffd551}.st2{fill:#ffa730}.st14{fill:#ffeacf}.st15{fill:#ffd59a}.st16{fill:#ffc34c}.st17{fill:#a56021}.st20{fill:#ffb74b}</style><path class="st17" d="M256.852 92.193a3.999 3.999 0 0 1-3.997-4.215c.043-.811 1.221-19.956 14.515-28.65 7.912-5.174 18.129-5.471 30.369-.88a3.999 3.999 0 1 1-2.808 7.49c-9.721-3.645-17.521-3.616-23.182.085-9.939 6.5-10.896 22.227-10.905 22.385a4.002 4.002 0 0 1-3.992 3.785zM245.33 92.193a4 4 0 0 1-3.991-3.779c-.016-.269-1.066-15.983-10.932-22.408-5.658-3.685-13.449-3.707-23.154-.067a3.998 3.998 0 0 1-5.149-2.341 3.998 3.998 0 0 1 2.341-5.149c12.24-4.589 22.457-4.294 30.368.88 13.294 8.693 14.472 27.84 14.515 28.65a3.999 3.999 0 0 1-3.998 4.214z"/><path d="M250.848 282.862c-6.728 0-12.182-5.454-12.182-12.182V89.112c0-6.728 5.454-12.182 12.182-12.182 6.728 0 12.182 5.454 12.182 12.182V270.68c0 6.728-5.454 12.182-12.182 12.182z" style="fill:#fcda4f"/><path d="M250.667 270.68V89.112c0-4.544 2.493-8.5 6.181-10.594a12.114 12.114 0 0 0-6-1.588c-6.728 0-12.181 5.454-12.181 12.182V270.68c0 6.728 5.454 12.181 12.181 12.181 2.183 0 4.228-.582 6-1.587-3.688-2.094-6.181-6.05-6.181-10.594z" style="fill:#eacf32"/><path class="st20" d="M308.534 174.165h-46.24a4 4 0 0 1-4-4v-36.869c0-27.11 21.977-49.087 49.087-49.087h46.24a4 4 0 0 1 4 4v36.869c0 27.11-21.977 49.087-49.087 49.087z"/><path class="st1" d="M273.294 159.165v-25.869c0-18.796 15.291-34.087 34.087-34.087h35.24v25.869c0 18.796-15.291 34.087-34.087 34.087h-35.24z"/><path class="st20" d="M308.534 174.165h-46.24a4 4 0 0 0-4 4v49.313c0 27.11 21.977 49.087 49.087 49.087h46.24a4 4 0 0 0 4-4v-49.313c0-27.11-21.977-49.087-49.087-49.087z"/><path class="st1" d="M307.381 261.565c-18.796 0-34.087-15.291-34.087-34.087v-38.313h35.24c18.796 0 34.087 15.291 34.087 34.087v38.313h-35.24z"/><path class="st2" d="M273.03 262.529v-88.365h-10.735a4 4 0 0 0-4 4v49.313c-.001 13.734 5.645 26.143 14.735 35.052z"/><path class="st2" d="M273.03 174.165v-75.92c-9.089 8.909-14.735 21.318-14.735 35.051v36.869a4 4 0 0 0 4 4h10.735z"/><path class="st20" d="M192.587 174.165h46.24a4 4 0 0 1 4 4v49.313c0 27.11-21.977 49.087-49.087 49.087H147.5a4 4 0 0 1-4-4v-49.313c0-27.11 21.977-49.087 49.087-49.087z"/><path class="st2" d="M183.5 272.565v-49.313c0-27.11 21.977-49.087 49.087-49.087h-40c-27.11 0-49.087 21.977-49.087 49.087v49.313a4 4 0 0 0 4 4h40a4 4 0 0 1-4-4z"/><path class="st20" d="M192.587 174.165h46.24a4 4 0 0 0 4-4v-36.869c0-27.11-21.977-49.087-49.087-49.087H147.5a4 4 0 0 0-4 4v36.869c0 27.11 21.977 49.087 49.087 49.087z"/><path class="st2" d="M183.5 125.078V88.209a4 4 0 0 1 4-4h-40a4 4 0 0 0-4 4v36.869c0 27.11 21.977 49.087 49.087 49.087h40c-27.11 0-49.087-21.977-49.087-49.087z"/><path class="st14" d="M221.189 333.201c0-5.325 4.317-9.642 9.642-9.642h124.021c14.911 0 26.998 12.088 26.998 26.998v17.921H256.466c-19.483 0-35.277-15.794-35.277-35.277zM381.85 368.478h40.718v64.84H381.85z"/><path class="st14" d="m127.309 369.082-58.84-58.84c-12.856-12.856-33.699-12.856-46.555 0-4.686 4.686-4.686 12.284 0 16.971l104.918 104.919 54.132 22.731c4.166 1.682 8.621 2.273 13.024 1.728l187.862-23.272v-64.84H127.309v.603z"/><path class="st15" d="M399.85 416.318 211.988 439.59c-4.402.545-8.858-.046-13.024-1.728l-54.132-22.731L39.914 310.212a11.958 11.958 0 0 1-3.511-8.414 32.759 32.759 0 0 0-14.489 8.443c-4.686 4.686-4.686 12.284 0 16.971l104.918 104.919 54.132 22.731c4.166 1.682 8.621 2.273 13.024 1.728l187.862-23.272h40.718v-17H399.85z"/><path class="st15" d="M241.189 333.201c0-5.325 4.317-9.642 9.642-9.642h-20c-5.325 0-9.642 4.317-9.642 9.642 0 19.483 15.794 35.277 35.277 35.277h20c-19.483 0-35.277-15.794-35.277-35.277z"/><path d="M493.6 444.625h-89.958c-5.523 0-10-4.477-10-10v-87.454c0-5.523 4.477-10 10-10H493.6v107.454z" style="fill:#ccc033"/><path d="M443.642 424.625c-5.523 0-10-4.477-10-10v-77.454h-30c-5.523 0-10 4.477-10 10v87.454c0 5.523 4.477 10 10 10H493.6v-20h-49.958z" style="fill:#99af17"/><circle class="st15" cx="366.85" cy="394.293" r="15"/><path class="st1" d="M192.587 159.165c-18.796 0-34.087-15.291-34.087-34.087V99.209h35.239c18.796 0 34.087 15.291 34.087 34.087v25.869h-35.239zM158.5 261.565v-38.313c0-18.796 15.291-34.087 34.087-34.087h35.239v38.313c0 18.796-15.291 34.087-34.087 34.087H158.5z"/><path class="st16" d="M192.587 189.165c-18.796 0-34.087 15.291-34.087 34.087v38.313h25v-38.313c0-13.246 5.256-25.257 13.783-34.087h-4.696zM197.283 159.165c-8.528-8.83-13.783-20.841-13.783-34.087V99.209h-25v25.869c0 18.796 15.291 34.087 34.087 34.087h4.696z"/><circle class="st16" cx="205.848" cy="229.882" r="15.322"/><g><path d="M331.506 240.193a6 6 0 0 1-5.99-6.438c1.615-22.103-13.344-26.167-13.495-26.206a5.998 5.998 0 0 1-4.336-7.293c.817-3.212 4.083-5.158 7.293-4.336 8.603 2.188 24.377 13.093 22.505 38.71a5.999 5.999 0 0 1-5.977 5.563z" style="fill:#ffdf74"/></g></svg>