<svg xmlns="http://www.w3.org/2000/svg" xml:space="preserve" width="655.359" height="655.359" style="shape-rendering:geometricPrecision;text-rendering:geometricPrecision;image-rendering:optimizeQuality;fill-rule:evenodd;clip-rule:evenodd" viewBox="0 0 6.827 6.827"><defs><clipPath id="id0"><path d="M3.413 0a3.413 3.413 0 1 1 0 6.827 3.413 3.413 0 0 1 0-6.827z"/></clipPath><style>.fil6{fill:#212121}.fil1{fill:#26c6da}.fil7{fill:#34526b}.fil5{fill:#fafafa;fill-rule:nonzero}</style></defs><g id="Layer_x0020_1"><path d="M3.413 0a3.413 3.413 0 1 1 0 6.827 3.413 3.413 0 0 1 0-6.827z" style="fill:#80deea"/><g style="clip-path:url(#id0)"><g id="_637659400"><path id="_4421292561" class="fil1" d="m2.656 1.998 3.786 3.786.004.005.005.005.005.006.004.006.005.006.005.007.005.008.005.007.005.009.005.009.005.01.005.01.005.01.005.012.004.012.005.013.005.013.005.014L2.742 2.16l-.004-.014-.005-.013-.005-.013-.005-.012-.005-.012-.005-.01-.004-.01-.005-.01-.005-.01-.005-.008-.005-.008-.005-.007-.005-.007-.005-.007-.005-.006-.004-.005-.005-.005z"/><path id="_442129184" class="fil1" d="M2.742 2.16 6.53 5.946l.004.014.004.014.004.015.004.016.004.016.004.018.004.018.004.018.004.02.003.02.004.022.003.022.003.023.003.024.003.024.003.026.003.027.002.027.003.029.002.03.002.03.002.032.001.033.002.033v.035l.002.036v.037l.001.038V6.808L2.82 3.022v-.203l-.001-.037-.001-.036-.002-.035-.001-.034-.002-.032-.001-.032-.002-.03-.003-.03-.002-.029-.002-.028L2.8 2.47l-.003-.026-.003-.025-.003-.024-.003-.022-.004-.023-.003-.02-.004-.021-.003-.02-.004-.019-.004-.018-.004-.017-.004-.016-.004-.016-.004-.015-.004-.014z"/><path id="_442129784" class="fil1" d="m2.82 3.022 3.787 3.786.005.03.007.027.007.027.008.026.008.025.01.023.01.023.01.022.011.02.013.02.012.019.014.018.014.017.015.017.015.015L2.98 3.351l-.016-.016-.014-.016-.015-.017-.013-.018-.013-.02-.012-.019-.011-.02-.01-.022-.01-.023-.01-.023-.009-.025-.007-.026-.007-.027-.007-.028z"/><path id="_442129616" class="fil1" d="m5.161 4.32 3.786 3.786.03.033.03.033.025.033L5.246 4.42l-.026-.034-.028-.033z"/><path id="_442129904" class="fil1" d="m5.246 4.42 3.786 3.785.015.023.01.02.007.017.002.015-.001.012-.005.01-.008.009-.01.006-.014.005-.016.003h-.06l-.023-.003-.025-.004-.025-.005-.026-.005-.026-.006-.027-.007-.026-.006-.026-.008-.026-.007-.025-.008-.023-.007-.022-.007-.02-.007-.02-.006-.016-.006-.015-.005-.011-.004-.009-.003-.006-.002L4.77 4.433l.006.002.009.003.011.004.014.005.017.006.019.006.02.007.023.007.023.007.025.008.025.007.026.007.027.007.026.007.027.006.026.005.025.005.024.003.024.003.021.001h.039l.016-.004.013-.004.011-.006.008-.009.005-.01.001-.012-.002-.015-.007-.018-.01-.02z"/><path id="_442129952" class="fil1" d="m4.769 4.433 3.786 3.786-.007-.003-.008-.002-.007-.003-.008-.002-.007-.003-.007-.002-.007-.003-.007-.002-.007-.002-.007-.002-.006-.002-.007-.002-.007-.002-.006-.002-.006-.002-.006-.001-.007-.002-.006-.001-.006-.002-.005-.001-.006-.001-.006-.001-.006-.001h-.005l-.006-.001h-.005l-.005-.001H8.356L4.57 4.387h.036l.006.001h.005l.006.002h.005l.006.002.006.001.006.001.006.002.006.001.007.002.006.002.006.002.007.001.006.002.007.003.007.002.007.002.007.002.007.003.007.002.007.002.007.003.008.002.007.003z"/><path id="_442130120" class="fil1" d="m1.98 2.507 3.786 3.786-.004-.004-.005-.004-.005-.003-.005-.003-.005-.003-.006-.003L1.95 2.487l.006.003.005.003.005.003.005.003.005.004z"/><path id="_442129520" class="fil1" d="m3.198 4.596 3.786 3.786h-.01l-.01.001h-.009l-.01.001h-.009l-.01.001H6.909l-.009.001H6.881l-.01.001h-.017l-.009.001H6.802l-.008.001H6.708L2.922 4.603H3.042l.008-.001H3.077l.009-.001h.018l.009-.001h.019l.009-.001h.009l.01-.001h.009l.01-.001h.01z"/><path id="_442129688" class="fil1" d="m2.922 4.603 3.786 3.786.002.003.002.002.003.003.002.003.003.002.003.003.003.003.003.003-3.786-3.786-.003-.003-.003-.003-.003-.003-.003-.003-.002-.002-.003-.003-.002-.003z"/><path id="_442130144" class="fil1" d="m2.943 4.625 3.786 3.786.011.012.011.01.012.01-3.787-3.786-.01-.01-.012-.01z"/><path id="_442130552" class="fil1" d="m3.31 4.872 3.786 3.786.007.007.005.006.003.006.002.006v.01l-.002.004-.004.004-.006.004-.006.003-.008.003-.01.003-.01.002-.012.002L3.27 4.932l.012-.002.01-.003.01-.002.008-.003.006-.004.005-.003.004-.004.003-.005v-.01l-.002-.005-.004-.006-.005-.006z"/><path id="_442130624" class="fil1" d="m3.27 4.932 3.785 3.786h-.011l-.005.001h-.023L3.23 4.933h.032l.004-.001z"/><path id="_442130816" class="fil1" d="m3.23 4.933 3.786 3.786h-.028l-.013-.001-.013-.001h-.013l-.012-.002-.012-.001-.012-.001-.011-.002-.011-.001-.01-.002-.012-.001-.01-.002-.01-.002-.01-.002-.01-.002-.011-.002-.01-.003-.01-.002-.01-.002-.011-.003-.01-.003-.011-.002-.011-.003-.011-.003-.011-.003-.012-.003-.012-.003-.012-.003-.013-.003-.013-.003-.013-.003L2.86 4.868l.014.003.013.004.013.003.012.003.012.003.011.003.012.003.01.003.012.003.01.002.01.003.011.002.01.003.01.002.01.002.01.003.011.002.01.002.01.002.011.001.01.002.012.002.01.001.012.001.012.002h.011l.013.002h.012l.013.001.014.001h.014z"/><path id="_442130408" class="fil1" d="m2.861 4.868 3.787 3.787-.008-.002-.007-.002-.008-.002-.008-.002-.007-.002-.008-.001-.007-.002-.007-.002-.008-.002-.007-.002-.007-.001-.007-.002-.007-.002-.007-.002-.006-.001-.007-.002-.006-.001-.007-.002-.006-.002-.006-.001-.005-.002-.006-.001-.005-.002-.005-.001-.005-.001-.005-.002-.004-.001-.004-.001-.004-.002H6.46l-.003-.002h-.003L2.668 4.817l.003.001.003.001.004.001.004.001.004.002h.004l.005.002.005.002.005.001.005.002.005.001.006.002.006.001.006.002.006.001.007.002.006.002.007.001.007.002.007.002.007.001.007.002.007.002.007.002.008.001.007.002.008.002.007.002.008.002.007.002.008.001z"/><path id="_442130432" class="fil1" d="m2.377 4.535 3.786 3.786h-.001L2.376 4.536z"/><path id="_442130744" class="fil1" d="m2.356 4.536 3.786 3.787h-.02l-.01.001H6.08l-.012.001H6l-.012-.001h-.011l-.011-.001-.012-.001-.01-.001-.012-.002h-.01l-.01-.002-.01-.002-.01-.002-.01-.002-.009-.002-.008-.003-.008-.002-.008-.003-.007-.003-.007-.004-.005-.003-.006-.004-3.786-3.786.005.004.006.003.007.003.007.004.007.002.008.003.009.003.009.002.01.002.009.002.01.001.01.002.011.001.01.001.012.001.011.001.012.001H2.2l.012.001h.035l.011.001H2.315l.01-.001h.011l.01-.001z"/><path id="_442130480" class="fil1" d="m2.424 4.738 3.787 3.786-.006-.003-.006-.003-.005-.003-.006-.004-.005-.003-.005-.004-.004-.003-.005-.004-.004-.004-3.787-3.786.005.004.004.003.005.004.005.004.005.003.005.003.006.004.006.003z"/><path id="_442130168" class="fil1" d="m2.376 4.535 3.786 3.787H6.16L2.374 4.535z"/><path id="_442130792" class="fil1" d="M2.374 4.535 6.16 8.322 2.374 4.535z"/><path id="_442131488" class="fil1" d="M2.374 4.535 6.16 8.322 2.374 4.535z"/><path id="_442131320" class="fil1" d="M2.374 4.535 6.16 8.322h-.018L2.356 4.537z"/><path id="_442131584" class="fil1" d="m2.668 4.818 3.786 3.786h-.002l-.001-.001h-.002l-.003-.001-.002-.001h-.003L6.44 8.6l-.003-.001-.003-.001H6.43l-.004-.002h-.003l-.004-.002h-.004l-.003-.002h-.004L2.62 4.804l.004.001.004.001.004.001.003.001h.004l.003.002h.003l.004.001.002.001.003.001h.003l.002.001.002.001h.002l.002.001z"/><path id="_442131608" class="fil1" d="m2.621 4.805 3.787 3.786-.006-.001-.005-.001-.006-.002-.005-.001-.006-.002-.006-.002-.006-.001-.007-.002-.006-.002-.006-.001-.006-.002-.007-.002-.006-.002-.007-.002-.006-.002-.007-.002-.006-.002-.007-.002-.007-.002-.006-.003-.007-.002-.006-.002-.006-.003-.007-.002-.006-.003-.006-.002-.006-.003-.006-.002-.006-.003-.006-.003-.006-.003-.005-.003-3.787-3.786.006.003.006.003.005.003.006.002.006.003.006.003.007.002.006.003.006.002.007.003.006.002.007.002.006.002.007.003.006.002.007.002.006.002.007.002.006.002.007.002.006.002.007.001.006.002.006.002.006.002.006.001.006.002.006.001.006.002.006.001.005.002z"/><path id="_442131272" class="fil1" d="m1.95 2.487 3.786 3.786-.003-.001-.004-.002-.004-.001-.004-.001-.004-.002h-.004l-.005-.002h-.004L1.918 2.477l.004.001.005.001.004.001.004.001.004.002h.004l.003.002z"/><path id="_442131008" class="fil1" d="M1.563 2.203 5.35 5.99h-.002l-.002-.001h-.001l-.002-.001h-.002l-.001-.001h-.002l-.001-.002L1.55 2.2h.002l.002.001.001.001h.002l.001.001h.004z"/><path id="_442131416" class="fil1" d="m1.683 2.373 3.786 3.786-.006-.004-.005-.004-.006-.005-.005-.004-.006-.004-.005-.005-.005-.004-.005-.005-.005-.004-3.786-3.786.005.004.005.005.005.004.005.005.005.004.006.004.005.004.006.005z"/><path id="_442131440" class="fil1" d="m1.918 2.477 3.786 3.787-.005-.001-.005-.002-.006-.002-.007-.002-.008-.003-.008-.003-.008-.003-.009-.004-.009-.003-.01-.005-.009-.004-.01-.004-.01-.005-.01-.004-.01-.005-.01-.005-.01-.004-.009-.005-.01-.004-.008-.005-.009-.004-.008-.004-.008-.004-.007-.003-.007-.004-.006-.003-.005-.003-.005-.002-.003-.002-.003-.001-.002-.001-.001-.001-3.786-3.786.002.001.003.002.004.002.005.002.005.003.006.003.007.003.007.004.008.004.008.004.009.004.009.005.009.004.01.005.01.004.01.005.01.004.01.005.009.005.01.004.01.004.009.004.009.004.009.004.008.003.008.003.007.003.007.002.007.002.005.001z"/><path id="_442131368" class="fil1" d="m4.57 4.387 3.786 3.786-.032.01-.033.01-.034.01-.036.01-.037.008-.039.01-.04.008-.04.009-.042.008-.042.009-.044.008-.044.007-.045.008-.045.007-.046.007-.046.007-.047.007-.046.006-.047.006-.047.006-.047.006-.047.005-.047.005-.046.005-.047.004-.045.004-.045.004-.045.004-.044.003-.043.003-.042.003-.042.002-3.786-3.786.041-.002.043-.003.043-.003.044-.003.044-.004.046-.004.045-.004.046-.004.047-.005.047-.005.046-.006.047-.005.047-.006.047-.006.047-.006.047-.007.046-.007.046-.007.045-.007.045-.008.044-.008.043-.008.043-.008.042-.008.04-.009.04-.009.038-.009.038-.01.035-.009.035-.01.033-.01z"/><path id="_637659760" class="fil1" d="M2.606 1.963c.025.011.087.043.136.197.046.142.085.397.079.862.056.319.238.426.518.517.216.07.485.148.57.171.39.109 1.073.345 1.337.71.184.254-.434.028-.477.013-.082-.029-.146-.05-.2-.046-.327.108-.935.186-1.371.209a4.333 4.333 0 0 1-.276.007.679.679 0 0 0 .02.022c.12.123.237.154.35.233.057.04.043.064-.023.074a.264.264 0 0 1-.039 0c-.156-.002-.222-.029-.369-.064a2.92 2.92 0 0 1-.193-.05l-.047-.013a.964.964 0 0 1-.197-.067c-.062-.033-.1-.078-.07-.137l.017-.05.006-.016h-.003l-.018.001c-.101.006-.266.007-.319-.035l-.007-.007c-.113-.153-.102-.337.056-.225.01.008.021.016.049.014a.39.39 0 0 0 .017-.12l-.003-.005-.003-.006c-.195-.409-.217-.713-.194-.954.026-.276.11-.469.06-.64a.112.112 0 0 0-.094-.08 1.708 1.708 0 0 1-.235-.105c-.062-.044-.109-.098-.116-.154a.2.2 0 0 1-.004-.016.081.081 0 0 1-.013-.004c-.008-.043-.01-.123.078-.143a.082.082 0 0 1 .01.009 2.16 2.16 0 0 0 .32-.098c.221-.08.42-.112.648-.004z"/></g></g><path d="M3.413 0a3.413 3.413 0 1 1 0 6.827 3.413 3.413 0 0 1 0-6.827z" style="fill:none"/><path d="M2.606 1.963c.025.011.087.043.136.197.046.142.085.397.079.862.056.319.238.426.518.517.216.07.485.148.57.171.39.109 1.073.345 1.337.71.184.254-.434.028-.477.013-.082-.029-.146-.05-.2-.046-.404.133-1.24.22-1.647.216a.679.679 0 0 0 .02.022c.12.123.237.154.35.233.057.04.043.064-.023.074a.264.264 0 0 1-.039 0c-.156-.002-.222-.029-.369-.064a2.92 2.92 0 0 1-.193-.05l-.047-.013a.964.964 0 0 1-.197-.067c-.062-.033-.1-.078-.07-.137l.017-.05.006-.016-.021.001c-.101.006-.266.007-.319-.035l-.007-.007c-.113-.153-.102-.337.056-.225.01.008.021.016.049.014a.344.344 0 0 0 .017-.12c-.427-.884-.045-1.283-.14-1.604a.112.112 0 0 0-.094-.082 1.708 1.708 0 0 1-.235-.104c-.062-.044-.109-.098-.116-.154-.007-.025-.037-.147.091-.157a2.16 2.16 0 0 0 .3-.095c.221-.08.42-.112.648-.004z" style="fill:#527490"/><path d="M1.952 3.198c-.023.24-.001.545.194.954l.002.003.001.003c0 .002.002.004.003.005v.004c.06.154.142.259.222.368l.075-.021c.293-.084.118-.293-.018-.486-.245-.349.014-.682-.068-.855-.054-.113-.32-.111-.411.025z" style="fill:#b2c5d4"/><path class="fil5" d="M1.659 2.129a.006.006 0 0 0 0 .012l.299-.001a.006.006 0 1 0 0-.012h-.3zM1.654 2.155a.006.006 0 0 0-.007.01l.21.145a.006.006 0 0 0 .007-.01l-.21-.145zM1.66 2.143a.006.006 0 0 0-.004.011l.25.078a.006.006 0 0 0 .004-.012l-.25-.077z"/><path class="fil6" d="M2.26 2.104a.064.064 0 1 1 0 .127.064.064 0 0 1 0-.127zM1.55 2.2c-.008-.044-.01-.124.078-.144a.082.082 0 0 1-.078.143z"/><path class="fil7" d="M2.354 4.6c-.03.06.008.105.07.138a.964.964 0 0 0 .197.067l.047.013c.03.01.113.03.193.05.147.035.213.062.37.065l.038-.001c.066-.01.08-.034.022-.074-.112-.079-.228-.11-.348-.233a.68.68 0 0 1-.021-.022c.078.001.172-.001.276-.007.081-.035.144-.145.103-.222-.046-.089-.232-.017-.232-.017s-.31.093-.474.062h-.002c-.114-.023-.185.062-.217.116h.001l-.006.017-.017.049zM2.086 4.27c-.158-.113-.169.07-.056.224l.007.007c.053.042.218.04.319.035h.018c-.08-.11-.163-.215-.222-.369a.39.39 0 0 1-.017.116.065.065 0 0 1-.05-.014z"/></g></svg>