<svg xmlns="http://www.w3.org/2000/svg" xml:space="preserve" width="655.359" height="655.359" style="shape-rendering:geometricPrecision;text-rendering:geometricPrecision;image-rendering:optimizeQuality;fill-rule:evenodd;clip-rule:evenodd" viewBox="0 0 6.827 6.827"><defs><clipPath id="id0"><path d="M3.413 0a3.413 3.413 0 1 1 0 6.827 3.413 3.413 0 0 1 0-6.827z"/></clipPath><style>.fil5{fill:#bdbdbd}.fil1{fill:#e9da53}</style></defs><g id="Layer_x0020_1"><path d="M3.413 0a3.413 3.413 0 1 1 0 6.827 3.413 3.413 0 0 1 0-6.827z" style="fill:#ffee58"/><g style="clip-path:url(#id0)"><g id="_637658896"><path id="_4421342001" class="fil1" d="m2.166 3.414 3.786 3.787.016.014.014.014.013.013.012.011.01.01.008.01.007.007.006.006.004.004.002.003h.001L2.26 3.507l-.003-.003-.004-.005-.006-.006-.007-.007-.009-.01-.01-.01-.011-.01-.013-.013-.014-.014z"/><path id="_442134728" class="fil1" d="M3.595 2.835 7.38 6.62l.007.007.006.008.007.007.006.007.005.007.005.007.005.007.005.006.004.006.004.005.003.005.003.005.003.004.002.003.001.003.002.002v.001L3.664 2.925v-.002l-.002-.002-.002-.002-.002-.004-.002-.004-.003-.004-.003-.005-.004-.006-.004-.005-.005-.007-.005-.006-.005-.007-.006-.007-.006-.007-.006-.008-.007-.007z"/><path id="_442135280" class="fil1" d="M3.663 2.925 7.45 6.711l.003.007.004.008.005.008.005.008.005.008.005.009.006.009.006.009.006.01.006.009.006.009.006.01.007.009.006.009.006.009.006.009.006.008.006.009.006.008.006.008.005.007.005.007.005.007.004.006.004.005.004.005.003.005.002.003.003.003.001.002.001.001L3.813 3.15l-.001-.002-.002-.002-.002-.003-.002-.004-.004-.004L3.8 3.13l-.004-.005-.004-.006-.005-.007-.005-.007-.006-.007-.005-.008-.006-.008-.006-.009-.006-.009-.006-.008-.006-.01-.007-.009-.006-.01-.006-.008-.007-.01L3.708 3l-.006-.008-.006-.01-.005-.008-.006-.009-.005-.009-.004-.008-.005-.008-.004-.007z"/><path id="_442134872" class="fil1" d="M5.274 3.452 9.06 7.24l.004.005.002.004V7.257l-.001.004-.002.003-.002.003-.003.002-.002.003-.002.001-.002.001-.002.001L5.264 3.49h.001l.002-.002.002-.002.003-.002.002-.002.003-.003.001-.004.002-.003V3.462l-.003-.005z"/><path id="_442135496" class="fil1" d="M5.264 3.49 9.05 7.274l-.2.112-3.787-3.786z"/><path id="_442135304" class="fil1" d="M5.063 3.601 8.85 7.387l-.01-.003-.01-.002h-.01l-.01.002-.01.003-.008.004-.008.004-.008.005-.007.005-.006.006-.006.005-.004.004-.004.004-.003.004-.001.002h-.001L4.958 3.644l.002-.003.003-.003.003-.004.005-.005.006-.005.006-.005.007-.005.007-.005.009-.005.008-.003.01-.003.01-.002h.009l.01.002z"/><path id="_442135232" class="fil1" d="m5.02 3.66 3.786 3.786-.004.01-.006.011-.008.01-.009.009-.01.009-.01.008-.013.007-.012.008-.014.006-.014.006-.015.006-.015.006-.016.005-.015.004-.016.004-.016.004-.016.004-.015.003-.015.003-.015.002-.014.002-.013.002-.013.002-.012.002h-.01l-.01.002H8.47l-.007.001h-.006l-.004.001h-.003L4.664 3.797h.008l.006-.001h.007l.009-.001.01-.001.01-.002.012-.001.013-.002.013-.002.014-.002.015-.003.015-.002.015-.004.016-.003.016-.004.015-.004.016-.005.016-.005.015-.005.014-.006.015-.006.013-.007.013-.007.012-.008.011-.008.01-.008.009-.01.007-.01.007-.01z"/><path id="_442135016" class="fil1" d="m4.664 3.797 3.787 3.786-.4.02-3.786-3.786z"/><path id="_442134920" class="fil1" d="M3.915 3.644 7.701 7.43 3.915 3.644z"/><path id="_442135472" class="fil1" d="M3.843 3.796 7.63 7.583l-.027.002-.028.002-.03.002h-.092l-.033-.001-.032-.002-.033-.001-.033-.003-.033-.002-.032-.003-.033-.003-.032-.004-.031-.003-.031-.004-.03-.004-.03-.004-.027-.004-.027-.004-.025-.003-.024-.004-.022-.004-.02-.003-.02-.003-.016-.003-.014-.002-.012-.003-.01-.001-.007-.002H6.84L3.054 3.731h.001l.005.001.007.001.01.002.011.002.015.003.016.003.019.003.02.003.023.004.023.003.026.004.026.004.028.004.03.004.03.004.03.003.032.004.032.003.032.003.033.003.033.003.033.002.033.002.032.002h.032l.032.001h.061l.03-.002.027-.002z"/><path id="_442135352" class="fil1" d="M3.915 3.644 7.701 7.43l-.002.008-.002.008-.002.007-.002.008-.002.008-.002.008-.001.008-.002.008-.001.008-.001.008-.001.008-.001.008-.001.007v.008l-.002.007v.015l-.001.007V7.588l-.001.006V7.64L3.891 3.853V3.782l.001-.007v-.007l.001-.007v-.008l.002-.007v-.008l.001-.008.001-.007.002-.008v-.008l.002-.008.002-.008.002-.008.001-.008.002-.008.002-.008.003-.007z"/><path id="_442135688" class="fil1" d="m4.265 3.817 3.786 3.786-.01.018-.012.018-.012.017-.014.016-.014.015-.015.014-.016.014-.017.012-.017.012-.017.011-.017.01-.018.01-.018.01-.017.007-.018.008-.017.007-.018.007-.016.005-.016.006-.016.005-.015.004-.014.004-.013.003-.012.003-.012.002-.01.003-.008.001-.008.002h-.006l-.004.001h-.003L3.844 4.064h.001l.003-.001h.004l.006-.002.007-.001.01-.002.01-.002.01-.002.012-.003.014-.004.014-.003.015-.005.015-.004.016-.006.017-.006.017-.006.018-.007L4.05 4l.018-.008.018-.01.017-.009.018-.01.017-.011.017-.012.016-.013.016-.013.015-.014.015-.015.013-.016.013-.017.012-.018z"/><path id="_442135520" class="fil1" d="m3.844 4.063 3.787 3.786-.007.002-.006.001-.005.001h-.006l-.005.001H7.584l-.003-.001h-.003l-.003-.001h-.002l-.001-.001H7.57L3.783 4.063h.003l.002.001h.002l.003.001.004.001H3.826l.006-.001.006-.002z"/><path id="_442136072" class="fil1" d="m2.769 3.664 3.786 3.787-.2-.022-3.787-3.786z"/><path id="_442136240" class="fil1" d="m2.878 3.726 3.786 3.786-.09-.038-3.787-3.787z"/><path id="_442135928" class="fil1" d="M3.054 3.732 6.84 7.518l-.127.053-3.786-3.787z"/><path id="_442135952" class="fil1" d="m2.927 3.784 3.786 3.787H6.704l-.005-.002-.004-.003L2.91 3.78l.004.003.005.002h.004z"/><path id="_442135544" class="fil1" d="m2.422 3.627 3.786 3.786-.21.012-3.786-3.787z"/><path id="_442135784" class="fil1" d="m2.568 3.643 3.786 3.786-.008.012-.01.01-.009.01-.009.007-.009.006-.01.006-.008.004-.008.003-.008.002-.008.002-.006.001-.006.001h-.01L2.457 3.707h.017l.006-.002.007-.002.008-.002.009-.003.009-.005.009-.005.009-.006.01-.008.008-.009.01-.01z"/><path id="_442135568" class="fil1" d="m1.616 3.192 3.787 3.786-.005-.004-.004-.004-.004-.003-.003-.003-.002-.002-.002-.001h-.001V6.96L1.595 3.174h.002l.001.002.003.002.003.003.003.003.005.003z"/><path id="_442135712" class="fil1" d="M2.212 3.638 6 7.425l-.022.027-.021.025-.022.023-.023.021-.022.02-.022.018-.023.017-.023.015-.022.014-.022.012-.022.011-.022.01-.021.01-.021.007-.02.007-.02.005-.02.005-.018.004-.017.004-.017.002-.016.002-.014.002-.014.001h-.012l-.012.001H5.475l-.002-.001h-.001L1.686 3.9h.063l.013-.001.015-.002.016-.002.017-.003.017-.003.019-.004.019-.005.02-.006.02-.006.02-.008.022-.009.022-.01.022-.011.022-.012.022-.014.023-.015.022-.017.023-.018.022-.02.022-.021.022-.024.022-.025z"/><path id="_637659016" class="fil1" d="M1.585 3.039c.392.151.674.468.674.468.115-.056.258-.097.258-.097.012-.028-.006-.069-.006-.069l.012-.017c.04.002.095.048.095.048.322-.113.735-.195.735-.195.14-.16.082-.373.082-.373-.022-.054.037-.045.037-.045.108.02.191.166.191.166.037.073.15.225.15.225.943-.036 1.44.285 1.44.285.053.032.01.054.01.054l-.2.112c-.055-.023-.105.043-.105.043l.062.016c-.04.118-.356.137-.356.137l-.399.02c-.105.203-.42.246-.42.246-.034.01-.06.001-.06.001-.018-.026.009-.054.009-.054l.076-.083c.033-.04.024-.075.024-.075l-.002-.002a.663.663 0 0 0-.001.002l-.048-.056c-.28.033-.79-.064-.79-.064l-.126.052c-.025.01-.05-.058-.05-.058l-.09-.039-.018-.023-.201-.021c-.045.069-.11.064-.11.064.005-.023-.036-.08-.036-.08l-.21.011c-.224.298-.526.263-.526.263l-.008-.028c.074-.028.114-.148.114-.148l.045-.082c.048-.072.014-.128.014-.128-.134-.25-.256-.341-.256-.341-.002-.053-.041-.105-.041-.105-.027-.048.031-.03.031-.03z"/></g></g><path d="M3.413 0a3.413 3.413 0 1 1 0 6.827 3.413 3.413 0 0 1 0-6.827z" style="fill:none"/><path d="M1.585 3.039c.392.151.674.468.674.468.115-.056.258-.097.258-.097.012-.028-.006-.069-.006-.069l.012-.017c.04.002.095.048.095.048.322-.113.735-.195.735-.195.14-.16.082-.373.082-.373-.022-.054.037-.045.037-.045.108.02.191.166.191.166.037.073.15.225.15.225.943-.036 1.44.285 1.44.285.053.032.01.054.01.054s-1.26.215-2.29.094c0 0-.435-.047-.76.055-.225.298-.527.263-.527.263l-.008-.028c.074-.028.114-.148.114-.148l.045-.082c.048-.072.014-.128.014-.128-.134-.25-.256-.341-.256-.341-.002-.053-.041-.105-.041-.105-.027-.048.031-.03.031-.03z" style="fill:#456075"/><path d="M4.946 3.416a.03.03 0 1 0 .061 0 .03.03 0 0 0-.061 0z" style="fill:#fafafa"/><path class="fil5" d="m5.264 3.49-.2.111c-.056-.023-.106.043-.106.043l.062.016c-.04.118-.356.137-.356.137l-.403.02s.046-.055.074-.222c.531-.038.929-.106.929-.106zM2.212 3.638c.326-.102.76-.055.76-.055.31.037.642.043.954.033a.605.605 0 0 0-.035.237l-.048-.057c-.28.033-.79-.064-.79-.064l-.126.052c-.025.01-.05-.058-.05-.058l-.09-.039-.018-.023-.201-.021c-.045.069-.11.064-.11.064.005-.023-.036-.08-.036-.08l-.21.011z"/><path d="M3.927 3.611c.144-.004.283-.012.414-.021-.029.17-.075.224-.075.224-.104.206-.422.249-.422.249-.033.01-.06.001-.06.001-.017-.026.01-.054.01-.054l.076-.083c.033-.04.024-.075.024-.075l-.002-.002a.612.612 0 0 1 .035-.239z" style="fill:#3e586b"/><path d="M4.963 3.416a.013.013 0 1 0 .027 0 .013.013 0 0 0-.027 0z" style="fill:#212121"/></g></svg>