<svg xmlns="http://www.w3.org/2000/svg" xml:space="preserve" width="655.359" height="655.359" style="shape-rendering:geometricPrecision;text-rendering:geometricPrecision;image-rendering:optimizeQuality;fill-rule:evenodd;clip-rule:evenodd" viewBox="0 0 6.827 6.827"><defs><clipPath id="id0"><path d="M3.413 0a3.413 3.413 0 1 1 0 6.827 3.413 3.413 0 0 1 0-6.827z"/></clipPath><style>.fil1{fill:#388e3c}.fil6{fill:#3e2723}.fil4{fill:#4e342e}.fil8{fill:#adadad}.fil12{fill:#c8c0b0}.fil7{fill:#e9e9e8}.fil3{fill:#424242;fill-rule:nonzero}</style></defs><g id="Layer_x0020_1"><path d="M3.413 0a3.413 3.413 0 1 1 0 6.827 3.413 3.413 0 0 1 0-6.827z" style="fill:#66bb6a"/><g style="clip-path:url(#id0)"><g id="_637658128"><path id="_4421357361" class="fil1" d="M5.127 2.682 8.913 6.47l.008.009.007.01.008.009.007.01.007.01.006.01.007.01.006.01.006.01.006.01.005.01.006.011.005.01.005.012.005.01.004.012.004.01.005.012.004.011.003.011.004.012.003.011.004.012.002.011.003.012.003.012.002.011.003.012.002.012.001.012.002.012L5.27 3.018l-.002-.012-.002-.011-.002-.012-.002-.012-.002-.012-.003-.011-.003-.012-.003-.011-.003-.012-.003-.011-.004-.012-.004-.011-.004-.011-.004-.012-.004-.01-.005-.012-.005-.01-.004-.011-.006-.011-.005-.01-.006-.011-.005-.01-.006-.01-.007-.011-.006-.01-.007-.01-.006-.01-.008-.01-.007-.009-.007-.01z"/><path id="_442135760" class="fil1" d="m5.27 3.018 3.786 3.787v.005l.002.006v.005l.001.006v.006l.001.006.001.005v.006l.001.006v.006l.001.005v.006l.001.006v.006l.001.006v.017l.001.006V6.96l-.001.006v.011l-.002.006v.006L5.276 3.202l.001-.005V3.19l.001-.006V3.18l.001-.006v-.017l.001-.006V3.11l-.001-.006V3.1l-.001-.006v-.006l-.001-.006v-.006l-.001-.005v-.006l-.001-.006v-.006l-.002-.005V3.04l-.001-.006V3.03l-.001-.005z"/><path id="_442137440" class="fil1" d="M5.277 3.202 9.063 6.99l-.002.008-.001.006-.003.006-.003.006-.003.004-.004.004-.004.003-.004.002-.005.001H9.03l-.005.001h-.006l-.005-.002-.006-.001L9 7.024l-.007-.002-3.786-3.787.006.003.006.002.006.002.006.001h.016l.005-.002.004-.002.004-.003.004-.003.003-.005.003-.005.002-.006.002-.007z"/><path id="_442137464" class="fil1" d="m5.208 3.235 3.786 3.787h.001l.001.002.001.001.001.001.001.002H9l.001.002.001.001-3.786-3.786-.001-.001-.001-.002h-.001l-.001-.002-.001-.001-.001-.001v-.001z"/><path id="_442137416" class="fil1" d="M5.216 3.245 9.002 7.03H9l-.002-.001-.002-.001-.001-.001h-.002v-.001L5.205 3.24h.002l.002.001.002.001h.001l.002.001z"/><path id="_442137296" class="fil1" d="m5.206 3.24 3.786 3.787v.004l-.002.005v.004l-.002.005v.004l-.002.005v.004l-.002.005v.004l-.001.004-.001.005-.001.004-.001.005-.001.004-.001.005-.001.004v.005l-.002.004v.004l-.002.005v.004l-.002.005v.004l-.002.005v.004l-.002.004-.001.005-.001.004-.001.004-.001.005-.002.004v.005L5.173 3.382l.001-.004.001-.004.001-.005.002-.004V3.36l.002-.004v-.004l.002-.005v-.004l.002-.005v-.004l.002-.004v-.005l.002-.004v-.005l.002-.004v-.005l.002-.004v-.004l.002-.005V3.29l.001-.005.001-.004.001-.005.001-.004.001-.005.001-.004.001-.005v-.004l.002-.005v-.004z"/><path id="_442137536" class="fil1" d="M5.174 3.382 8.96 7.17h.001v.003L5.176 3.386v-.003z"/><path id="_442137200" class="fil1" d="m5.175 3.386 3.787 3.786v.016l-.002.016-.001.016-.002.015-.003.016-.002.016-.003.016-.003.015-.004.016-.004.016-.003.016-.004.015-.004.016-.004.016-.004.015-.004.016-.004.016-.003.015-.004.016-.003.016-.003.015-.002.016-.002.016-.002.016v.015l-.002.016v.032l.002.015.002.016.002.016.004.016L5.113 3.89l-.003-.016-.003-.016-.001-.016-.002-.016V3.78l.002-.016.002-.015.002-.016.002-.016.003-.016.003-.015.003-.016.004-.016.004-.015.004-.016.003-.016.004-.015.004-.016.004-.016.004-.015.004-.016.003-.016.003-.016.003-.015.003-.016.002-.016.002-.016.002-.015v-.016z"/><path id="_442137656" class="fil1" d="M5.113 3.89 8.9 7.676l.001.007.003.007.002.007.002.007.003.007.003.006.003.007.004.006.003.007.004.006.004.006.003.006.004.006.004.007.004.006.004.006.004.006.004.006.004.006.004.006.003.007.004.006.004.006.003.007.004.006.003.007.003.006.002.007.003.007.002.007.002.007.002.007-3.786-3.786-.002-.008-.002-.007-.002-.007-.003-.006-.003-.007-.003-.007-.003-.006-.003-.007-.004-.006-.003-.006-.004-.007-.004-.006-.003-.006-.004-.006L5.169 4l-.004-.006-.004-.007-.004-.006-.004-.006-.004-.006-.004-.006-.003-.006-.004-.007-.003-.006-.004-.007-.003-.006-.003-.007-.003-.006-.002-.007-.003-.007-.002-.007z"/><path id="_442137224" class="fil1" d="m5.216 4.098 3.786 3.786.001.006.001.006.001.007v.031l-.001.006-.002.007v.006L9 7.959l-.002.006-.002.007-.002.006-.002.006-.002.006-.002.006-.003.006-.002.006-.003.006-.002.006-.003.006-.003.006-.002.006-.003.006-.003.006-.002.006-.003.005-.003.006-.002.005-.003.006-3.786-3.786.003-.006.002-.005.003-.006.002-.006.003-.005.003-.006.002-.006.003-.006.003-.006.002-.006.003-.006.003-.006.002-.006.003-.006.002-.006.002-.006.002-.006.002-.007.002-.006.001-.006.002-.006.001-.007.001-.006.001-.006v-.006l.001-.007V4.11l-.002-.006z"/><path id="_442137728" class="fil1" d="m5.165 4.292 3.786 3.786-.002.004-.001.004-.002.005-.002.004-.002.004-.002.004-.001.005-.002.004-.002.004-.001.004-.002.005-.001.004-.002.004-.001.005-.002.004-.001.005-.001.004-.002.004v.005l-.002.004v.005l-.002.004v.005l-.001.004-.001.005v.004l-.001.005V8.21l-.001.004v.005L5.128 4.433V4.41l.001-.005v-.004l.001-.005.001-.004.001-.005v-.004l.002-.005.001-.004.001-.005.001-.004.002-.005.001-.004.001-.004.002-.005.001-.004.002-.005.001-.004.002-.004.002-.004.001-.005.002-.004.002-.004.002-.004.002-.005.001-.004.002-.004z"/><path id="_442137320" class="fil1" d="m4.917 4.26 3.787 3.787-.002.003-.002.003-.001.003-.002.004-.001.003-.001.003-.002.003-.001.003-.001.004-.001.003-.001.003v.003l-.001.003v.003l-.001.003v.003L4.9 4.311v-.006l.001-.003v-.003l.002-.003v-.003l.002-.004v-.003l.002-.003.001-.003.002-.003.001-.004.002-.003.001-.003.002-.003z"/><path id="_442137392" class="fil1" d="m2.804 2.256 3.787 3.786v.005h-.002L2.803 2.262h.002v-.004z"/><path id="_442137968" class="fil1" d="M2.487 2.022 6.273 5.81l.004.004.005.005.004.005.004.005.004.006.004.006.004.006.004.006.004.007.003.006.004.007.004.007.003.006.004.007.003.007.004.007.003.007.004.007.003.007.003.007.003.007.004.007.003.006.003.007.003.006.003.006.003.006.003.006.003.005.003.005L2.593 2.21l-.003-.005-.003-.005-.003-.006-.003-.006-.003-.006-.003-.006-.003-.007-.004-.007-.003-.006-.003-.007-.003-.007-.004-.007-.003-.007-.004-.007-.003-.007-.003-.007-.004-.007-.004-.007-.003-.006-.004-.007-.004-.007-.004-.006-.003-.006-.004-.006-.004-.006-.004-.006-.005-.005-.004-.005-.004-.005z"/><path id="_442138136" class="fil1" d="m2.803 2.261 3.786 3.787-.007.002-.006.002-.006.003-.007.003-.006.003-.005.004-.006.004-.006.004-.006.005-.005.004-.006.005-.005.004-.006.005-.005.005-.005.005-.006.004L2.71 2.324l.005-.005.006-.004.005-.005.006-.005.005-.004.006-.005.005-.005.006-.004.005-.004.006-.004.006-.004.006-.003.006-.004.007-.002.006-.003z"/><path id="_442138376" class="fil1" d="M4.12 3.924 7.908 7.71l-.016.006-.016.005-.016.005-.016.005-.016.005-.016.005-.016.004-.016.005-.016.004-.017.004-.016.004-.016.003-.016.003-.017.004-.016.002-.016.003-.017.002-.016.002-.017.002-.016.002-.017.001-.016.001h-.017l-.017.001h-.05l-.016-.001-.017-.001-.017-.002-.017-.001-.017-.002-3.786-3.787.017.002.017.002.017.002h.016l.017.002h.067L3.763 4 3.78 4l.016-.001.017-.002.016-.002.017-.002.016-.002.017-.003.016-.003.016-.003.017-.003.016-.004.016-.003.016-.004.017-.004.016-.005.016-.004.016-.005.016-.005.016-.005.016-.005.016-.006z"/><path id="_442137824" class="fil1" d="m4.9 4.311 3.787 3.786v.006l-.001.005v.01l-.001.005v.011l-.001.005-3.787-3.786v-.006l.001-.005v-.005l.001-.005V4.32l.001-.005z"/><path id="_442138448" class="fil1" d="M4.315 3.863 8.102 7.65H8.1l-.002-.002h-.003L4.31 3.86h.005z"/><path id="_442138280" class="fil1" d="m4.301 3.861 3.787 3.786-.005.001-.005.001-.005.001-.005.002-.005.001-.005.002-.005.001-.005.002-3.786-3.786.005-.002.004-.002.005-.001.005-.002h.005l.005-.002.005-.001z"/><path id="_442138208" class="fil1" d="m4.262 3.872 3.786 3.786-.004.001-.005.002-.004.001-.005.002-.004.001-.005.002-.004.002-.004.001-.005.002-.004.001-.005.002-.004.002-.005.001-.004.002-.004.002-.005.001-.004.002-.004.002-.005.002-.004.001-.005.002-.004.002-.004.001-.005.002-.004.002-.005.001-.004.002-.004.002-.005.001-.004.002-.005.002-.004.001L4.12 3.924l.004-.002.004-.001.005-.002.004-.002.005-.001.004-.002.004-.002.005-.001.004-.002.005-.002.004-.001.004-.002.005-.002.004-.001.005-.002.004-.002.004-.002.005-.001.004-.002.005-.002.004-.001.004-.002.005-.002.004-.001.005-.002.004-.001.005-.002.004-.001.004-.002.005-.002.004-.001z"/><path id="_442137872" class="fil1" d="M4.87 4.485 8.657 8.27l-.002.005-.003.006-.002.005-.003.006-.003.005-.004.005-.003.005-.004.005-.004.004-.004.004-.005.003-.005.003-.005.002-.006.002-.006.001h-.006L4.805 4.547h.007l.006-.001.005-.002.006-.002.005-.003.004-.004.005-.003.004-.005.004-.004.003-.005.003-.005.004-.005.002-.006.003-.005.002-.006z"/><path id="_442138544" class="fil1" d="m4.8 4.546 3.786 3.787-.004.008-.004.007-.004.008-.003.007-.004.007-.003.006-.003.007-.003.006-.004.006-.003.006-.003.006-.002.005-.003.006-.003.006-.003.005-.002.005-.003.006-.003.005-.002.006-.003.005-.002.006-.002.005-.003.006-.002.006-.003.005-.002.007-.002.006-.003.006-.002.007-.002.007-.003.007-.002.007L4.71 4.745l.002-.008.003-.007.002-.006.002-.007.003-.006.002-.007.002-.006.003-.006.002-.005.002-.006.003-.006.002-.005.003-.006.002-.005.003-.005.002-.006.003-.005.003-.006.002-.005.003-.006.003-.005.003-.006.003-.006.003-.006.003-.007.004-.006.003-.007.004-.006.003-.008.004-.007.004-.008z"/><path id="_442138232" class="fil1" d="M4.71 4.745 8.496 8.53l-.004.011-.003.01-.003.009-.003.008-.002.007-.003.007-.003.006-.003.005-.003.004-.004.005-.005.003-.006.004-.006.003-.007.002-.009.003-.01.003-3.786-3.787.01-.002.008-.003.008-.003.006-.003.006-.003.004-.004.004-.004.004-.005.003-.005.003-.006.002-.006.003-.007.003-.008.003-.01.003-.01z"/><path id="_442138808" class="fil1" d="m4.636 4.834 3.786 3.787h-.005l-.006.002h-.04l-.008-.002h-.01l-.008-.002-.008-.001-.008-.002-.008-.002-.007-.001-.006-.002-.005-.002-3.786-3.786.005.002.006.001.007.002.008.002.008.001.008.002.009.001.008.001.009.001h.009l.008.001h.022l.007-.001z"/><path id="_442138616" class="fil1" d="m4.31 3.86 3.785 3.787.002.002.002.003.001.002.002.002.002.003.001.002.002.002.002.003-3.787-3.787-.001-.002-.002-.002-.002-.003-.001-.002-.002-.002-.002-.003-.001-.002z"/><path id="_442138640" class="fil1" d="M4.322 3.88 8.11 7.665l-.003-.003-.003-.002L8.1 7.66l-.002-.002-.003-.003-.002-.002-.003-.002-.002-.003L4.3 3.861l.003.002.002.003.003.002.003.002.002.003.003.002.003.002z"/><path id="_442139024" class="fil1" d="M4.57 4.113 8.357 7.9l-.006-.002-.006-.002-.006-.003-.005-.002-.006-.003-.005-.003-.006-.002-.005-.003-.005-.003-.006-.003-.005-.004-.005-.003-.005-.003-.005-.004-.005-.003-.005-.004-3.786-3.787.004.004.005.004.005.003.006.004.005.003.005.003.005.003.006.003.005.003.006.003.005.003.006.002.005.003.006.002.006.003z"/><path id="_442139216" class="fil1" d="M4.485 4.065 8.27 7.852l-.006-.005-.006-.005-.006-.006-.006-.005-.005-.005-.006-.006L4.45 4.034l.005.005.006.006.006.005.005.005.006.006z"/><path id="_442138952" class="fil1" d="m4.657 4.159 3.786 3.786-.005-.004-.004-.004-.005-.004-.005-.003-.005-.004-.006-.003-.005-.003-.006-.002-.005-.003-.006-.002-.006-.003-.006-.002-.006-.002-.005-.002-.006-.002-.005-.003L4.57 4.113l.006.002.005.002.006.003.006.002.006.002.005.002.006.003.006.002.006.003.005.003.006.003.005.003.005.004.005.003.004.004z"/><path id="_442139120" class="fil1" d="m4.897 4.353 3.787 3.786v.004l-.001.004v.005l-.001.004v.004l-.001.004v.004l-.001.004v.005l-.001.004v.004l-.001.004-.001.004v.005l-.002.004v.004l-.001.004-.001.004v.004l-.002.005v.004l-.002.004v.004l-.002.004-.001.004-.001.004-.001.004-.002.004-.001.004-.001.004-.002.004-.001.004L4.87 4.485l.002-.004.001-.004.002-.004.001-.004.001-.004.001-.004.002-.004v-.004l.002-.004v-.005l.002-.004v-.004l.002-.004v-.004l.002-.004V4.42l.001-.005v-.004l.002-.004V4.4l.002-.004V4.386l.001-.004v-.004l.001-.004v-.005l.001-.004v-.004l.001-.004z"/><path id="_442139192" class="fil1" d="m5.127 4.542 3.787 3.786-.003.008-.003.007-.003.006-.005.005-.004.005-.005.004-.006.003-.006.003-3.786-3.787.006-.002.005-.004.005-.004.005-.004.004-.006.004-.006.003-.007z"/><path id="_442138976" class="fil1" d="m4.805 4.546 3.787 3.787h-.006L4.8 4.546h.005z"/><path id="_442139048" class="fil1" d="M4.98 4.834 8.766 8.62l-.005.002h-.006l-.007.001h-.033l-.008-.002-.01-.001-.008-.001-.008-.002-.008-.002-.007-.002-.007-.002-.007-.001-.005-.002L4.861 4.82l.005.002.006.002.007.002.008.002.008.002.008.001.009.002.008.001.01.001h.008l.008.001h.022l.007-.002z"/><path id="_442139096" class="fil1" d="m1.814 2.26 3.787 3.786h-.006l-.006-.001-.006-.001-.006-.001-.006-.002h-.006l-.006-.002-.006-.002h-.006l-.005-.002-.006-.002-.005-.001-.006-.002-.005-.002-.005-.001-.005-.002L1.724 2.24l.005.001.005.002.005.002.005.001.006.002.005.001.006.002.006.001.006.002h.005l.006.002.006.001.006.001.006.001.006.001z"/><path id="_442139456" class="fil1" d="m3.367 3.927 3.786 3.787-.007-.004-.007-.003-.006-.003-.007-.004-.007-.004-.006-.003-.007-.004-.007-.004-.006-.004-.007-.003-.006-.004-.007-.004-.007-.004-.006-.004-.007-.004-.006-.004-.007-.003-.007-.004-.006-.004-.007-.003-.007-.004-.006-.003L7 7.63l-.007-.003-.007-.003-.007-.003-.007-.003-.007-.003-.007-.002-.008-.002-.007-.002-.007-.002L3.149 3.82l.008.001.007.002.007.003.008.002.007.003.007.002.007.003.007.003.006.003.007.004.007.003.007.004.006.003.007.004.007.003.006.004.007.004.007.004.006.004.007.004.006.003.007.004.006.004.007.004.007.004.006.004.007.003.007.004.006.003.007.004.007.003z"/><path id="_442139672" class="fil1" d="m1.953 2.706 3.786 3.786-.007.002-.007.002-.007.001-.007.002h-.006l-.005.002h-.005l-.005.001-.004.001h-.004l-.003.001h-.006l-.001.001L1.885 2.72h.005l.003-.001h.003l.004-.001h.004l.005-.002h.005l.005-.002h.006l.007-.002.006-.001.007-.002z"/><path id="_442140032" class="fil1" d="m1.885 2.719 3.787 3.786-.011.003-.011.002-.011.002h-.011l-.011.001H5.596l-.01-.002-.01-.002-.01-.003-.01-.002-.01-.004-.01-.003-.008-.005-.009-.004-.008-.005-.008-.006-.007-.006-.008-.006L1.702 2.68l.007.006.008.006.008.005.008.005.009.005.008.004.01.004.01.003.009.003.01.003.01.001.01.002h.043l.011-.002.011-.002z"/><path id="_442139840" class="fil1" d="m2.008 3 3.786 3.786-.006-.006-.007-.005-.007-.006-.007-.005-.007-.006-.008-.005-.007-.005-.007-.005-.008-.005-.007-.006-.007-.005L1.93 2.94l.007.005.007.005.007.005.008.006.007.005.007.005.007.005.008.006.006.005.007.006z"/><path id="_442139480" class="fil1" d="M2.885 4.087 6.67 7.873h-.004l-.003-.001-.004-.001h-.004l-.003-.001-.004-.001-.004-.001-.003-.001-.004-.001-.004-.001-.003-.001-.004-.001-.004-.002H6.62l-.004-.002-.004-.002-3.786-3.786.004.002h.003l.004.002.004.001.003.002h.004l.004.002h.003l.004.002h.004l.003.001.004.001h.004l.003.001.004.001z"/><path id="_442140104" class="fil1" d="m2.826 4.071 3.786 3.786-3.787-3.786z"/><path id="_442139600" class="fil1" d="M2.855 4.338 6.64 8.124l.003.01.003.011.003.011.004.011.004.011.004.012.004.012.004.011.004.012.005.012.004.012.004.012.004.012.004.013.004.012.003.012.003.012.003.012.002.011.002.012.002.011V8.411l-.002.011-.002.01-.004.01-.004.009-.005.009-.005.008-.007.008L2.898 4.69l.007-.008.006-.008.005-.01.004-.009.003-.01.003-.01.001-.01.001-.01v-.033l-.002-.011-.002-.012-.002-.012-.003-.012-.003-.012-.004-.012L2.91 4.5l-.004-.012-.004-.012-.004-.012-.005-.012-.004-.012-.004-.012-.005-.012-.004-.011-.004-.012-.004-.011-.003-.011-.003-.011-.003-.01z"/><path id="_442139528" class="fil1" d="M3.144 4.745 6.93 8.53l-.004.011-.003.01-.003.009-.003.008-.002.007-.003.007-.003.006-.003.005-.003.004-.004.005-.005.003-.005.004-.007.003-.007.002-.009.003-.01.003L3.07 4.834l.01-.002.008-.003.008-.003.006-.003.006-.003.004-.004.004-.004.004-.005.003-.005.003-.006.002-.006.003-.007.003-.008.003-.01.003-.01z"/><path id="_442139552" class="fil1" d="m2.898 4.69 3.787 3.786-.013.055-3.786-3.786z"/><path id="_442139696" class="fil1" d="m1.93 2.94 3.786 3.787-.005-.004-.006-.005-.005-.004-.005-.005-.005-.004-3.786-3.787.005.005.005.005.005.004.005.004z"/><path id="_460207680" class="fil1" d="m2.825 4.071 3.787 3.786h-.017L2.81 4.072h.014z"/><path id="_460207080" class="fil1" d="M2.305 3.744 6.091 7.53l-.006-.002-.005-.002-.006-.002-.006-.003-.006-.002-.005-.003-.006-.003-.005-.003-.006-.004-.005-.003-.006-.004-.005-.003-.005-.004-.006-.004-.005-.004-.005-.004-.005-.005-.005-.004-.005-.004L2.202 3.68l.005.005.005.004.005.004.005.005.005.004.005.004.006.003.005.004.005.004.006.003.005.003.006.004.006.003.005.002.006.003.006.003.005.002.006.002z"/><path id="_460207416" class="fil1" d="m2.43 3.758 3.787 3.786H6.17l-.008-.001-.008-.001h-.008l-.008-.002H6.13l-.008-.002-.007-.002-.008-.001-.008-.002-.008-.003-3.786-3.786.008.002.008.002.007.002.008.002h.008l.008.002h.008l.007.002h.016l.008.001h.024l.008.001z"/><path id="_460207128" class="fil1" d="m3.157 4.69 3.786 3.786-.013.055-3.786-3.786z"/><path id="_460207512" class="fil1" d="M2.886 4.745 6.672 8.53l-.004.011-.003.01-.003.009-.003.008-.002.007-.003.007-.003.006-.003.005-.003.004-.004.005-.005.003-.006.004-.006.003-.007.002-.01.003-.009.003-3.786-3.787.01-.002.008-.003.008-.003.006-.003.006-.003.004-.004.004-.004.004-.005.003-.005.003-.006.002-.006.003-.007.003-.008.003-.01.003-.01z"/><path id="_460207560" class="fil1" d="m3.07 4.834 3.786 3.787h-.005l-.006.002h-.04l-.008-.002h-.01l-.008-.002-.008-.001-.008-.002-.008-.002-.006-.001-.007-.002-.005-.002-3.786-3.786.005.002.006.001.007.002.008.002.008.001.008.002.009.001.008.001.009.001h.009l.008.001h.022l.007-.001z"/><path id="_460207752" class="fil1" d="m2.812 4.834 3.786 3.787h-.005l-.007.002h-.039l-.009-.002H6.53l-.009-.002-.008-.001-.008-.002-.008-.002-.007-.001-.006-.002-.005-.002-3.786-3.786.005.002.006.001.007.002.008.002.008.001.008.002.008.001.01.001.008.001h.008l.009.001H2.8l.006-.001z"/><path id="_460207032" class="fil1" d="m2.44 3.768 3.786 3.786-.007-.005-3.786-3.787z"/><path id="_460207176" class="fil1" d="m2.59 4.041 3.785 3.787-.005-.004-.006-.004-.005-.004-.005-.004-3.786-3.786.005.004.005.004.005.004z"/><path id="_460207248" class="fil1" d="m2.81 4.071 3.785 3.787.002.008v.008l.002.009.001.008.001.008.002.008v.009l.002.008.001.008.002.008.001.009.001.008.002.008.001.008.002.009.001.008.001.008.002.008.001.009.002.008.001.008.002.009.001.008.002.008.002.009.001.008.002.009.001.008.002.008.002.009.001.009.002.008-3.786-3.786-.002-.009-.002-.008-.001-.009-.002-.008-.001-.009-.002-.008-.002-.009-.001-.008-.002-.008-.001-.009-.002-.008-.001-.008-.002-.009-.001-.008-.002-.008-.001-.008-.002-.009-.001-.008-.001-.008-.002-.008-.001-.009-.002-.008v-.008l-.002-.008-.001-.009-.002-.008v-.008l-.002-.008-.001-.009-.002-.008V4.08z"/><path id="_460207488" class="fil1" d="M3.113 4.338 6.9 8.124l.003.01.003.011.003.011.004.011.004.011.004.012.004.012.004.011.004.012.005.012.004.012.004.012.004.012.004.013.004.012.003.012.003.012.003.012.002.011.002.012.002.011v.012l.001.01v.011l-.001.01-.002.011-.002.01-.003.01-.005.009-.004.009-.006.008-.007.008L3.157 4.69l.006-.008.006-.008.005-.01.004-.009.003-.01.003-.01.002-.01v-.043l-.002-.011-.002-.012-.002-.012-.003-.012-.003-.012-.003-.012-.004-.012-.004-.012-.004-.012-.004-.012-.004-.012-.005-.012-.004-.012-.004-.012-.004-.011-.005-.012-.003-.011-.004-.011-.003-.011-.003-.01z"/><path id="_460208256" class="fil1" d="m1.862 2.742 3.786 3.786h-.002l-.002-.002L1.858 2.74l.002.001z"/><path id="_460208448" class="fil1" d="m3.078 4.074 3.787 3.787.002.01.001.008.002.01.002.008v.009l.002.008.001.008.001.008.001.008v.008l.002.008v.007l.001.007v.008l.001.007.001.008v.007l.001.007v.008l.002.008v.007l.001.008v.008l.002.008v.008l.002.008.001.01.002.008.001.01.002.008.001.01.002.01-3.786-3.786-.002-.01-.002-.01-.001-.01-.002-.008-.001-.01-.001-.008-.001-.008-.001-.008-.001-.008L3.1 4.25l-.001-.008v-.008l-.001-.007-.001-.008v-.007l-.001-.008v-.007l-.002-.007v-.015l-.002-.008V4.16l-.001-.008-.001-.008-.001-.008-.001-.008-.001-.008-.002-.009-.001-.009-.002-.009-.002-.01z"/><path id="_460208040" class="fil1" d="M3.147 3.985 6.933 7.77l-.002.007-.002.008-.002.007-.003.006-.003.007-.003.006-.004.006-.004.006-.005.006-.005.005-.005.005-.005.005-.006.004-.006.004-.007.004-.006.004-3.787-3.787.007-.003.007-.004.006-.004.005-.004.006-.005.005-.005.005-.005.004-.006.005-.006.003-.006.004-.006.003-.007.003-.007L3.143 4l.002-.007z"/><path id="_460208184" class="fil1" d="m3.147 3.825 3.786 3.786V7.671l.001.005v.01l.001.005v.01l.001.005V7.756l-.001.005-.001.005v.005L3.146 3.985V3.98l.002-.005v-.01l.001-.006V3.91l-.001-.004v-.01l-.001-.005v-.005l-.001-.005v-.02l-.001-.005V3.83z"/><path id="_460208376" class="fil1" d="m3.15 3.82 3.786 3.787v.002h-.001v.005L3.147 3.828v-.005l.001-.002z"/><path id="_460208232" class="fil1" d="m1.582 2.12 3.786 3.786-.006-.006-.007-.005-.006-.005-.007-.005-.007-.003-3.787-3.787.008.004.007.005.006.005.006.005z"/><path id="_460207776" class="fil1" d="m1.548 2.095 3.787 3.787-.001-.001-3.786-3.786z"/><path id="_460207800" class="fil1" d="M1.724 2.239 5.51 6.025l-.006-.002-.006-.002-.005-.002-.006-.002-.005-.003-.006-.002-.005-.003-.005-.003-.005-.003L5.456 6l-.005-.003-.005-.004-.005-.003-.004-.004-.005-.004-.004-.004L1.64 2.19l.005.005.004.004.005.004.005.003.005.004.004.003.006.003.005.003.005.003.005.003.006.002.005.002.006.003.005.002.006.002z"/><path id="_460208352" class="fil1" d="m3.596 3.994 3.786 3.787-.007-.002h-.008l-.007-.002-.008-.001-.007-.001-.008-.002-.007-.001-.007-.002-.007-.001-.008-.002-.007-.002-.007-.002-.007-.001-.008-.002-.007-.002-.007-.002-.007-.003-.007-.002-.007-.002-.007-.002-.007-.003-.007-.002-.007-.003-.007-.002-.007-.003-.007-.003-.007-.002-.007-.003-.007-.003-.007-.003-.007-.003-.007-.003-3.786-3.787.007.003.007.003.007.003.007.003.007.003.007.003.007.003.007.002.007.003.007.003.007.002.007.002.007.003.007.002.007.002.007.002.007.002.007.002.007.002.008.002.007.002.007.002.007.001.008.002.007.001.007.002.008.001.007.002h.008l.007.002.008.001z"/><path id="_460208328" class="fil1" d="M5.093 4.582 8.879 8.37l-.003.01-.002.008-.002.008-.002.007-.001.007-.002.006-.001.005-.001.005-.001.004-.001.004-.001.004v.003l-.002.003v.005l-.001.003v.002l-.002.003v.005l-.001.003-.001.003-.001.003v.004l-.002.004-.001.004-.001.005-.002.005-.002.006-.001.007-.003.007-.002.008-3.786-3.786.002-.008.002-.007.002-.007.002-.006.001-.005.002-.005V4.69l.002-.004v-.003l.002-.004v-.003l.001-.002v-.003l.001-.003v-.002l.001-.003v-.002l.002-.003v-.005l.002-.004v-.003l.001-.004.001-.004.002-.005v-.006l.002-.006.002-.006.002-.007.002-.008.002-.009z"/><path id="_460208016" class="fil1" d="m5.128 4.433 3.786 3.786v.014l.001.007v.007l.001.006v.007l.001.007v.047l-.002.007-.001.007-3.787-3.786.002-.007v-.007l.002-.007v-.047l-.001-.007V4.46l-.001-.006v-.007l-.001-.007z"/><path id="_460209240" class="fil1" d="M5.054 4.734 8.84 8.52l-.004.013-.003.01-.003.01-.003.01-.002.008-.003.007-.003.006-.003.006-.003.005-.004.005-.005.004-.005.004-.007.003-.007.003-.009.003-.01.003L4.98 4.834l.01-.003.008-.003.008-.003.006-.003.006-.004.004-.004.005-.005.003-.005.003-.006.003-.006.003-.008.002-.008.003-.009.003-.01.003-.01z"/><path id="_460208880" class="fil1" d="m2.61 4.951 3.787 3.786h-.002L2.609 4.95z"/><path id="_460208616" class="fil1" d="M2.612 4.952 6.4 8.738h-.001L2.61 4.95h.001z"/><path id="_637658152" class="fil1" d="M4.741 2.444c.142.037.28.12.378.23a.641.641 0 0 1 .15.344c.009.06.015.124.008.184-.006.044-.036.05-.069.033a.251.251 0 0 0 .008.01.09.09 0 0 1-.01-.004c-.01.047-.02.095-.032.141l.001.004c-.002.169-.101.335-.062.504.019.077.085.13.103.208.015.066-.025.135-.051.194a.336.336 0 0 0-.037.14c0 .039.008.072 0 .11a.055.055 0 0 1-.035.04c-.028.107-.014.062-.04.152-.02.068-.016.085-.073.1-.026.01-.093-.003-.12-.012.005-.162.07-.118.093-.268a.14.14 0 0 1-.021-.076 3.536 3.536 0 0 0-.015-.218.131.131 0 0 0-.017.051.771.771 0 0 1-.03.174c-.01.029-.03.061-.065.061H4.8c-.043.087-.065.119-.09.199-.022.06-.018.076-.074.09a.279.279 0 0 1-.12-.012c.005-.143.12-.205.146-.34a.103.103 0 0 1-.007-.011c-.026-.05.007-.097.017-.145.012-.051.025-.126-.015-.168-.023-.024-.058-.034-.087-.046a.34.34 0 0 1-.085-.048c-.066-.052-.106-.128-.161-.19-.007-.008-.007-.014-.015-.014a.594.594 0 0 0 .013.018.262.262 0 0 1-.02-.018c-.014.002-.027.006-.04.01-.048.016-.094.036-.141.053-.17.06-.345.095-.525.07a.803.803 0 0 1-.23-.067c-.073-.033-.137-.088-.217-.106a.058.058 0 0 0-.001.007v-.003c-.006.053.01.106-.001.16a.123.123 0 0 1-.069.09c.022.103.013.154.035.263.026.109.122.268.044.352l-.013.055c-.022.06-.018.076-.074.09a.279.279 0 0 1-.12-.012.3.3 0 0 1 .054-.156s.048-.069-.008-.24l-.114-.34h.003a.263.263 0 0 1-.06-.016H2.81c.012.09.028.175.046.267.026.109.122.268.043.352l-.012.055c-.022.06-.018.076-.074.09a.279.279 0 0 1-.12-.012.3.3 0 0 1 .054-.156s.048-.069-.009-.24L2.59 4.04a.139.139 0 0 1-.04-.035c-.054-.072-.046-.184-.116-.244a.005.005 0 0 1-.002-.004c-.042 0-.085-.001-.126-.014a.35.35 0 0 1-.158-.125c-.1-.132-.062-.298-.072-.45a.292.292 0 0 0-.039-.134c-.025-.042-.069-.065-.106-.094-.03-.023-.056-.048-.062-.085-.006-.041.019-.075-.006-.114-.007-.001-.009-.011-.001-.013a.524.524 0 0 0 .092-.023.565.565 0 0 1-.068.013c-.118.034-.234-.048-.228-.14a.112.112 0 0 1 .016-.053 2.27 2.27 0 0 0 .141-.266.484.484 0 0 1-.09-.021.2.2 0 0 1-.083-.048c-.03-.03-.052-.076-.093-.096-.002 0-.002-.005 0-.005.057-.02.113-.042.172-.02.038.015.072.037.106.059a.062.062 0 0 1-.004-.008c-.02-.056.014-.142.06-.175a.378.378 0 0 1 .378-.036c.04.021.074.045.117.059.036.011.071.022.1.046.049.038.084.14.116.194a.364.364 0 0 1 .037-.008c.066-.012.12.022.174.054.002.002.002.006-.001.006-.036.01-.064.039-.093.063.024.012.05.02.08.023.09.012.18-.006.27 0 .09.005.176.041.262.062.1.025.199.029.301.024.05-.001.1-.005.149-.007.043-.002.09-.007.132-.002.087.01.176.005.263.001.192-.008.386-.03.574.02zm-2.13 2.507c-.004-.002-.002-.001.002 0H2.61z"/></g></g><path d="M3.413 0a3.413 3.413 0 1 1 0 6.827 3.413 3.413 0 0 1 0-6.827z" style="fill:none"/><path class="fil3" d="M2.612 4.952c-.003-.002-.005-.003-.001 0h.001zM3.23 3.708s.001 0 0 0z"/><path class="fil4" d="M1.906 2.176c0-.002 0-.003-.002-.004-.064-.028-.118-.076-.184-.101-.059-.023-.115-.002-.171.019-.003 0-.003.004 0 .005.04.02.062.065.092.096a.2.2 0 0 0 .083.048c.052.017.128.035.18.013h.002v-.003a.19.19 0 0 1 0-.073z"/><path d="M1.86 2.14a1.815 1.815 0 0 1-.187.386c-.066.11.072.234.212.193 0 0 .496-.052.457-.497l-.437-.146-.046.064z" style="fill:#8d6e63"/><path class="fil6" d="M1.67 2.533a.113.113 0 0 0-.013.046c.007.02.024.03.044.031a.109.109 0 0 0 .072-.024c.097-.08.053-.126.012-.082-.018.02-.02.052-.057.059-.024.004-.051-.002-.058-.03zM2.21 2.338a.116.116 0 0 0-.008-.006.031.031 0 0 1-.03.04.031.031 0 0 1-.012-.06.095.095 0 0 0-.077.014c-.007.005-.014-.006-.007-.01a.11.11 0 0 1 .113-.007c.035-.001.07-.01.102-.024-.01.026-.045.05-.073.054a.006.006 0 0 1-.008 0z"/><path class="fil7" d="M4.826 3.786c.065-.16.202-.302.34-.406.004-.003.01.002.01.006-.003.169-.102.335-.063.504.019.077.085.13.103.208.015.066-.025.135-.051.194a.336.336 0 0 0-.037.14c0 .039.008.072 0 .11-.014.056-.078.05-.123.043-.056-.008-.071-.058-.073-.107a3.696 3.696 0 0 0-.017-.24 659.78 659.78 0 0 1-.096-.207c-.013-.027-.023-.046-.025-.076a.38.38 0 0 1 .032-.169z"/><path class="fil4" d="M4.954 4.545c-.022.16-.089.111-.093.276.026.01.093.023.119.013.057-.015.052-.032.074-.1.026-.092.01-.043.04-.159l-.14-.03zM4.665 4.47c-.022.144-.144.205-.148.353.026.009.093.02.119.011.056-.013.052-.028.074-.09.026-.082.049-.113.094-.206l-.14-.067zM3.078 4.074c.022.104.013.155.035.264.026.109.122.268.044.352l-.013.055c-.022.06-.018.076-.074.09a.279.279 0 0 1-.12-.012.3.3 0 0 1 .054-.156s.048-.069-.008-.24l-.114-.34.196-.013z"/><path class="fil4" d="M2.808 4.066c.013.09.028.178.047.272.026.109.122.268.043.352l-.012.055c-.022.06-.018.076-.074.09a.279.279 0 0 1-.12-.012.3.3 0 0 1 .054-.156s.048-.069-.009-.24l-.15-.392.221.03z"/><path class="fil7" d="m2.431 3.756.003-.004.194-.11c.003-.002.008-.001.01.002l.193.417c.002.005 0 .01-.006.01-.087 0-.215.016-.276-.065-.054-.072-.046-.184-.116-.244a.005.005 0 0 1-.002-.006z"/><path class="fil8" d="M2.392 3.517a.265.265 0 0 0 .178.241c.007.003.004.016-.004.013a.279.279 0 0 1-.187-.254c0-.009.013-.009.013 0zM4.27 3.453c-.05.13-.037.27.039.386.005.008-.007.014-.011.007a.434.434 0 0 1-.04-.396c.003-.008.016-.005.012.003z"/><path d="M2.287 2.204c-.016-.005-.034-.006-.05-.01-.033-.006-.063.014-.096.006-.062-.015-.075-.096-.152-.071-.043.013-.143.058-.167-.008-.02-.056.014-.142.06-.175a.378.378 0 0 1 .378-.036c.04.021.074.045.117.059.036.011.071.022.1.046.05.04.086.146.119.199a.257.257 0 0 0 .194.133c.09.012.18-.006.27 0 .09.005.176.041.262.062.1.025.199.029.301.024.05-.001.1-.005.149-.007.043-.002.09-.007.132-.002.087.01.176.005.263.001.192-.008.386-.03.574.02.142.036.28.12.378.228a.641.641 0 0 1 .15.345c.009.06.015.124.007.184-.005.045-.035.05-.069.033-.02.086-.03.171-.073.25-.045.085-.099.163-.147.246a.347.347 0 0 0-.054.14c-.004.047.01.093.02.137.01.039.018.076.014.117a.312.312 0 0 1-.03.096c-.01.026-.036.061-.037.09a.771.771 0 0 1-.03.174c-.01.029-.03.061-.065.061a.246.246 0 0 1-.066-.012.137.137 0 0 1-.084-.062c-.026-.05.007-.097.017-.145.012-.051.025-.126-.015-.168-.023-.024-.058-.034-.087-.046a.34.34 0 0 1-.085-.048c-.066-.052-.106-.128-.161-.19-.008-.01-.007-.015-.018-.014-.015 0-.03.006-.044.01-.048.016-.094.036-.141.053-.17.06-.345.095-.525.07a.803.803 0 0 1-.23-.067c-.073-.034-.138-.089-.218-.107-.007.055.01.11-.001.165a.123.123 0 0 1-.069.09.27.27 0 0 1-.116.016.326.326 0 0 1-.242-.087c-.021-.022-.035-.053-.048-.08-.014-.03-.027-.06-.043-.089a.132.132 0 0 0-.09-.067c-.077-.019-.157 0-.234-.024a.35.35 0 0 1-.158-.125c-.1-.132-.062-.298-.072-.45a.292.292 0 0 0-.039-.134c-.025-.042-.069-.065-.106-.094-.03-.023-.056-.048-.062-.085-.006-.041.019-.075-.006-.114-.007-.001-.009-.011-.001-.013a.591.591 0 0 0 .386-.252c.04-.056.155-.234.04-.273z" style="fill:#fffffe"/><path class="fil4" d="M2.417 2.271c0-.001 0-.003.002-.003.072-.016.137-.054.21-.067.067-.012.12.022.175.054.002.002.002.006-.001.006-.046.012-.078.055-.116.08a.21.21 0 0 1-.095.033c-.057.007-.14.01-.19-.024L2.4 2.347v-.002a.201.201 0 0 0 .016-.075z"/><path d="M2.529 2.564a.472.472 0 0 1-.283.34.645.645 0 0 1-.27.061.441.441 0 0 0 .191.001.516.516 0 0 0 .255-.138.405.405 0 0 0 .06-.078.35.35 0 0 0 .047-.186z" style="fill:#ada895"/><path d="M2.415 2.196a.232.232 0 0 1 .008.062.358.358 0 0 1-.02.118.282.282 0 0 1-.024.058.112.112 0 0 0 .05-.046.18.18 0 0 0 .021-.134.105.105 0 0 0-.035-.058z" style="fill:#b7b0a2"/><path class="fil12" d="M5.112 3.03a.14.14 0 0 0-.003.063.232.232 0 0 0 .055.114c.014.016.032.03.052.038a.683.683 0 0 1-.104-.215zM4.22 3.447a.444.444 0 0 0-.015.232.386.386 0 0 0 .042.11c.02.035.045.066.075.09a.533.533 0 0 1-.104-.317c-.002-.038 0-.076.003-.115zM3.308 3.56a.26.26 0 0 1-.072.145l.001-.001c-.018.016-.04.031-.059.05a.135.135 0 0 0-.025.034.057.057 0 0 0-.005.04.065.065 0 0 1 .016-.034.177.177 0 0 1 .027-.025l.031-.022a.332.332 0 0 0 .032-.024h.001a.218.218 0 0 0 .047-.076.167.167 0 0 0 .01-.043c0-.015 0-.03-.004-.044z"/><path d="M2.415 2.193c.046.067.021.194-.037.244l.037-.244z" style="fill:#e3e1d7"/></g></svg>