<svg xmlns="http://www.w3.org/2000/svg" xml:space="preserve" width="655.359" height="655.359" style="shape-rendering:geometricPrecision;text-rendering:geometricPrecision;image-rendering:optimizeQuality;fill-rule:evenodd;clip-rule:evenodd" viewBox="0 0 6.827 6.827"><defs><clipPath id="id0"><path d="M3.413 0a3.413 3.413 0 1 1 0 6.827 3.413 3.413 0 0 1 0-6.827z"/></clipPath><style>.fil2{fill:none}.fil12{fill:#b71c1c}.fil1{fill:#bdbdbd}.fil11{fill:#fb8c00}.fil13{fill:#fdd835}.fil3,.fil6,.fil8{fill:#004d40;fill-rule:nonzero}.fil6,.fil8{fill:#424242}.fil8{fill:#fdd835}</style></defs><g id="Layer_x0020_1"><path d="M3.413 0a3.413 3.413 0 1 1 0 6.827 3.413 3.413 0 0 1 0-6.827z" style="fill:#e0e0e0"/><g style="clip-path:url(#id0)"><g id="_637654744"><path id="_2164657361" class="fil1" d="M2.984 1.673 6.77 5.46l.002.003.002.003.002.003.002.004v.003l.001.004V5.493l-.001.004-.002.004L2.99 1.714l.001-.003.002-.004V1.69l-.002-.003-.001-.004-.002-.003-.002-.003z"/><path id="_216466240" class="fil1" d="m2.99 1.714 3.786 3.787-.004.009-.004.009-.003.008-.004.009-.003.007-.002.008-.003.007-.002.007-.002.007-.001.007-.001.006-.001.006-.001.005v.025l.002.004v.004l.002.004.002.003.002.004.002.003.002.003.002.003-3.786-3.787-.002-.002-.003-.003-.002-.004-.002-.003-.001-.004-.002-.003v-.004l-.002-.005V1.804l.001-.006.002-.006.001-.006.002-.007.002-.007.002-.007.003-.008.003-.008.003-.008.004-.008.004-.01z"/><path id="_216122456" class="fil1" d="m3.897 1.673 3.786 3.786.002.003.002.003.002.004-3.786-3.787L3.9 1.68l-.002-.003z"/><path id="_216122240" class="fil1" d="M3.903 1.682 7.689 5.47l.006.014.006.013.006.013.004.013.005.012.003.012.003.011.003.011.002.01.002.01v.01l.001.01v.026l-.002.008-.002.007-.002.008-.002.007-.003.006-.004.007-.004.006-.004.006-.005.005-.005.005-.006.006-.006.004-.006.005-.007.004-.007.005-.007.004-.008.004-3.786-3.787.007-.004.008-.004.007-.004.007-.004.006-.005.006-.005.006-.005.005-.005.005-.006.004-.006.004-.006.003-.006.003-.007.003-.007.002-.007.002-.008.001-.007.001-.009V1.812l-.002-.01-.001-.01-.002-.01-.003-.011-.003-.011-.004-.012-.004-.012-.005-.013-.005-.013-.006-.014z"/><path id="_216122696" class="fil1" d="M3.864 1.944 7.65 5.731l-.005.002-.004.002-.005.001-.005.002-.005.002-.005.002-.005.001-.005.002-.006.001-.005.002-.006.001-.005.002h-.006l-.006.002-.006.001-.006.002H7.56l-.006.002h-.006l-.007.002-.006.001-.007.001-.006.001h-.007l-.007.002H7.5l-.007.002h-.007l-.007.002h-.007l-.007.002h-.008L3.671 1.985h.007l.008-.002h.007L3.7 1.98h.007l.007-.001.007-.001.007-.001.006-.001.007-.001.007-.001.006-.001.006-.001.007-.001.006-.002h.006l.006-.002.006-.001.006-.001.005-.002.006-.001.006-.001.005-.002.005-.001.006-.002.005-.002.005-.001.005-.002.005-.002.004-.002.005-.002z"/><path id="_539049192" class="fil1" d="m3.671 1.985 3.786 3.786h-.003l-.003.001h-.004l-.003.001H7.44l-.003.001h-.004l-.003.001-3.787-3.786h.004l.003-.001h.004l.003-.001h.004l.003-.001h.004z"/><path id="_539048952" class="fil1" d="M3.643 1.989 7.43 5.775l.004.007.004.007.004.007.003.007.004.007.003.008.002.007.003.008.002.008.002.008.002.008.001.008.001.008v.008l.001.008v.009L3.68 2.11v-.016l-.001-.008-.001-.009-.002-.008-.001-.008-.002-.007-.002-.008-.003-.008-.003-.007-.003-.008-.003-.007-.003-.007-.004-.007-.004-.007z"/><path id="_539049432" class="fil1" d="m3.68 2.111 3.786 3.787v.021l-.001.004v.005l-.001.004v.004l-.002.004v.004l-.001.004-.001.004-.001.004-.002.004v.004l-.002.004-.001.004-.002.004-.001.004-.002.004-.002.004-.001.004-.002.003L7.442 6l-.002.004-.002.003-.002.004-.002.004-.002.003-.003.004-.002.003-3.786-3.786.002-.004.002-.003.003-.004.002-.003.002-.004.002-.004.002-.003.002-.004.001-.004.002-.004.002-.003.001-.004.002-.004.001-.004.002-.004v-.004l.002-.004.001-.004.001-.004.001-.004.001-.004.001-.004V2.15l.002-.005v-.008l.001-.004V2.124l.001-.004v-.004z"/><path id="_539049264" class="fil1" d="m3.64 2.238 3.787 3.786-.003.004-.003.004-.003.005-.003.004-.003.004-.004.004-.003.003-.004.004L3.615 2.27l.003-.004.004-.004.003-.004.004-.004.003-.004.003-.004.003-.004z"/><path id="_539049384" class="fil1" d="m3.907 2.421 3.786 3.787.006.007.007.008.006.007.006.008.005.008.005.008.005.008.005.008.004.009.004.008.003.008.003.009.003.009.002.008.002.01.002.008.002.009v.009l.001.01v.008L3.978 2.59V2.571l-.002-.01-.001-.008-.002-.01-.002-.008-.002-.009-.003-.008-.003-.009-.004-.008-.003-.009-.005-.008-.004-.008-.005-.008-.005-.008-.006-.008-.005-.008-.006-.008-.007-.007z"/><path id="_539049024" class="fil1" d="m3.978 2.589 3.786 3.786v.022l-.002.008v.007l-.002.007-.002.007-.002.007-.002.007-.002.007-.003.007-.002.007-.003.007-.004.007-.003.006-.004.007-3.786-3.786.004-.007.003-.007.003-.007.003-.006.003-.007.003-.007.002-.007.002-.007.002-.007.001-.007.002-.008.001-.007v-.007l.001-.007v-.008z"/><path id="_539049096" class="fil1" d="m3.18 1.989 3.787 3.786H6.96l-.003-.001h-.004l-.003-.001h-.004l-.003-.001H6.94L3.153 1.984h.004l.003.001h.007l.003.001h.004l.003.001z"/><path id="_539049288" class="fil1" d="M3.153 1.985 6.94 5.771h-.008l-.007-.001-.007-.001-.007-.001-.007-.001-.007-.001-.007-.001-.007-.001-.007-.001-.006-.001-.007-.001-.006-.001-.007-.001-.006-.001-.006-.001-.006-.001-.006-.002H6.82l-.006-.002-.006-.001-.005-.002-.006-.001-.005-.002-.006-.001-.005-.002-.005-.001-.005-.002-.005-.002-.005-.002-.005-.001-.004-.002-.005-.002-3.786-3.787.004.002.005.002.005.002.005.002.005.002.005.001.005.002L3 1.96l.005.001.006.002.005.001.006.001.006.002h.005l.006.002.006.001.007.001.006.002h.006l.006.002h.007l.006.002h.007l.007.002h.006l.007.002h.007l.007.001.007.001.008.001.007.001z"/><path id="_460579016" class="fil1" d="M5.007 2.072 8.793 5.86l.004.006.003.006.002.008v.007L5.015 2.1v-.008l-.001-.007-.003-.007z"/><path id="_460579400" class="fil1" d="m5.015 2.1 3.787 3.786-.076.758L4.94 2.858z"/><path id="_460579520" class="fil1" d="m4.94 2.858 3.786 3.786v.005l-.002.004-.002.005-.002.003-.003.004-.003.003-.003.003-.004.002-3.786-3.786.003-.002.004-.003.003-.003.003-.004.002-.004.002-.004v-.004z"/><path id="_460579448" class="fil1" d="m4.92 2.887 3.787 3.786-.378.277-3.787-3.786z"/><path id="_460579568" class="fil1" d="M4.542 3.164 8.33 6.95l-.002.001-.002.001-.002.001-.002.001h-.002l-.003.001h-.004L4.526 3.17h.006l.002-.001.002-.001h.002l.002-.002z"/><path id="_460579472" class="fil1" d="m4.526 3.17 3.786 3.786-3.786-3.787z"/><path id="_460579496" class="fil1" d="m3.947 2.702 3.786 3.786-.002.004-.002.004-.002.003-.003.004-.002.004-.003.004-.003.003-.002.004-.003.004-.003.003-.003.004-.003.003-.003.004-.003.004-.003.003-.003.003L3.903 2.76l.004-.003.003-.004.003-.003.003-.004.003-.003.003-.004.003-.004.002-.003.003-.004.003-.004.002-.003.003-.004.002-.004.003-.004.002-.004z"/><path id="_460579616" class="fil1" d="m2.96 1.944 3.787 3.787-.008-.004-.007-.004-.007-.005-.007-.004-.006-.005-.006-.004-.006-.006-.005-.005-3.786-3.786.005.005.005.005.006.005.007.005.006.004.008.004.007.004z"/><path id="_460579160" class="fil1" d="M4.281 3.385 8.067 7.17v.034l-.001.004V7.218l-.001.005v.004l-.001.005v.004l-.001.005v.004l-.001.005v.005l-.001.004-.001.005v.005l-.002.005v.005l-.001.004-.001.005-.001.005v.005l-.002.005v.005l-.002.005v.005L4.263 3.532v-.005l.002-.005v-.005l.002-.005v-.005l.002-.005v-.005l.001-.005.001-.005v-.004l.002-.005v-.01l.002-.004V3.455l.001-.005v-.005l.001-.004v-.005l.001-.004V3.423l.001-.004V3.4l.001-.004V3.39z"/><path id="_460579208" class="fil1" d="M5.235 3.148 9.02 6.934l.002.003.002.003.001.003.002.004v.003l.001.004v.011l-.001.003-.002.004-.001.003-.002.004-3.786-3.787.002-.003.001-.003.001-.004.001-.003V3.16l-.002-.004-.001-.003-.002-.003z"/><path id="_460579304" class="fil1" d="m4.084 2.905 3.787 3.786.005.006.005.005.005.006.005.006.005.005.005.006.004.006.005.006.005.006.004.005.005.006.004.006.005.006.004.006.004.006.005.007.004.006.004.006.004.006.004.006.004.007L4.18 3.03l-.004-.007-.004-.006-.004-.006-.004-.006-.005-.007-.004-.006-.004-.006-.004-.006-.005-.006-.004-.006-.005-.006-.005-.006-.004-.006-.005-.005-.005-.006-.005-.006-.004-.006-.005-.005-.006-.006-.005-.005z"/><path id="_460579880" class="fil1" d="m4.526 3.17 3.786 3.786-.273.022-3.786-3.786z"/><path id="_460580480" class="fil1" d="m4.91 3.663 3.786 3.786-3.787-3.786z"/><path id="_460580528" class="fil1" d="m4.253 3.192 3.786 3.786.002.006.001.006.002.005.001.006.002.006.001.006.002.006.001.006.002.006v.006l.002.006.001.006.001.006.001.006.001.006.001.006.001.006v.006l.002.006v.012l.002.006v.012l.001.007V7.146l.001.006V7.171L4.281 3.385v-.037L4.28 3.34v-.006l-.001-.006v-.006l-.001-.006-.001-.006v-.006l-.001-.006-.001-.007-.001-.006-.001-.006-.001-.006-.001-.006-.001-.006-.001-.006-.002-.006v-.006l-.002-.005-.001-.006-.002-.006-.001-.006-.002-.006-.001-.006-.002-.006-.002-.005z"/><path id="_460580456" class="fil1" d="m4.53 3.739 3.787 3.786h-.015L4.516 3.74H4.529z"/><path id="_460579808" class="fil1" d="m4.516 3.739 3.786 3.786-.297-.044-3.786-3.786z"/><path id="_460580024" class="fil1" d="M4.219 3.695 8.005 7.48l-.004.013-.004.012-.005.012-.004.013-.005.012-.005.013-.005.013-.005.012-.005.013-.005.013-.005.013-.005.013-.006.013-.005.013-.006.013-.006.013-.006.013-.005.013-.006.013-.007.013-.006.013-.006.013-.006.013-.007.013-.006.013-.007.013-.007.013-.006.013-.007.013-.007.013-.007.013-.007.012-3.786-3.786.007-.013.007-.013.007-.013.007-.012.006-.013.007-.013.006-.013.007-.013.006-.014.007-.013.006-.013.006-.013.006-.013.006-.013.006-.013.006-.013.006-.013.005-.013.006-.013.005-.013.006-.012.005-.013.005-.013.005-.013.005-.013.005-.012.005-.013.004-.012.005-.013.004-.012.005-.013z"/><path id="_460580048" class="fil1" d="m4.93 4.572 3.786 3.786v.001l.002.001.001.002.001.001-3.786-3.786-.001-.001-.001-.002-.001-.001z"/><path id="_460579976" class="fil1" d="M4.873 4.623 8.66 8.409l-.473-.32L4.4 4.301z"/><path id="_460579856" class="fil1" d="M5.274 5.108 9.06 8.894l.002.003.002.004v.003l.002.004v.015l-.002.003v.003l-.002.004-.002.003-.003.003-.002.003-.003.002-.003.002L5.263 5.16l.003-.002.003-.003.002-.003.002-.002.002-.004.002-.003.001-.003.001-.004v-.003l.001-.004v-.007l-.001-.004-.002-.003-.001-.004z"/><path id="_460579952" class="fil1" d="m1.873 2.067 3.786 3.786.005.006.004.006.003.006.002.008-3.787-3.786-.001-.008-.003-.007-.004-.006z"/><path id="_460580192" class="fil1" d="M4.934 4.577 8.72 8.363l.34.531-3.786-3.786z"/><path id="_460581176" class="fil1" d="m1.886 2.093 3.787 3.786.074.739L1.96 2.832z"/><path id="_460581200" class="fil1" d="m3.93 4.286 3.786 3.786-.003.004-.002.004-.003.004-.003.004-.002.004-.003.003-.002.004-.003.004-.003.004-.002.004-.003.004-.002.004-.003.004-.003.003-.002.004-.003.004-3.786-3.786.002-.004.003-.004.003-.004.002-.004.003-.003.003-.004.002-.004.003-.004.002-.004.003-.004.003-.004.002-.004.003-.004.002-.004.003-.003z"/><path id="_460580552" class="fil1" d="m2.3 3.17 3.787 3.786h-.002l-.002-.001H6.08l-.002-.001h-.002l-.003-.002h-.002l-.001-.002-3.787-3.786.002.001.002.001.002.001h.002l.002.001h.002l.003.001z"/><path id="_460580576" class="fil1" d="m2.6 3.696 3.787 3.786-.29.043L2.311 3.74z"/><path id="_460580720" class="fil1" d="m2.311 3.739 3.786 3.786H6.083L2.296 3.74h.013z"/><path id="_460580792" class="fil1" d="m1.917 3.663 3.787 3.786H5.7l-.003-.002-.004-.001-.003-.002-.003-.002-.003-.003-3.786-3.786.003.002.003.002.003.002.003.002.004.001z"/><path id="_460580672" class="fil1" d="m1.648 3.144 3.786 3.787.003.003.002.003L1.653 3.15l-.002-.003z"/><path id="_460580816" class="fil1" d="m1.653 3.15 3.786 3.787.295.441-3.787-3.786z"/><path id="_460580984" class="fil1" d="m2.427 4.302 3.786 3.786-.473.321-3.786-3.786z"/><path id="_460581080" class="fil1" d="M1.954 4.623 5.74 8.409l-.337.526-3.787-3.786z"/><path id="_460581776" class="fil1" d="m1.616 5.149 3.787 3.786-.003.003-.002.003-.003.002-.003.003-.003.002-.003.001-.004.001-.003.001-.004.001h-.011l-.003-.001-.004-.001-.003-.002-.004-.002L1.564 5.16l.003.002.004.001.003.002h.008l.003.001h.008l.003-.002.003-.001.004-.002.003-.002.003-.002.003-.002.002-.003z"/><path id="_460581560" class="fil1" d="M1.564 5.16 5.35 8.946l-.003-.002-3.786-3.786z"/><path id="_460581344" class="fil1" d="M2.284 3.164 6.071 6.95l-.379-.277-3.786-3.786z"/><path id="_460581368" class="fil1" d="m2.296 3.739 3.787 3.786-.38-.076-3.786-3.786z"/><path id="_460581944" class="fil1" d="m2.89 4.286 3.786 3.786-.463.016-3.786-3.786z"/><path id="_460581824" class="fil1" d="m3.41 4.75 3.786 3.785h-.017l-.006-.001h-.006l-.006-.002-.006-.001-.006-.001-.006-.002-.006-.002-.006-.001-.006-.002-.006-.003-.006-.002-.006-.003-.007-.002-3.786-3.786.006.002.006.003.007.002.006.002.006.002.006.002.006.002.006.001.006.002h.006l.006.002h.006l.005.001h.006l.006.001z"/><path id="_460581608" class="fil1" d="M3.314 4.727 7.1 8.513l-.004-.002-.005-.002-.004-.002-.004-.003-.005-.002-.004-.002-.005-.003-.005-.002-.004-.003-.005-.003-.004-.003-.005-.002-.004-.003-.005-.003-.005-.003-.004-.004-.005-.003-.004-.003-.005-.003-.005-.004-.004-.003L7 8.45l-.005-.004-.004-.003-.005-.004-.005-.004-.004-.004-.005-.004-.005-.004-.005-.004-.004-.004-.005-.004-3.786-3.786.005.004.004.004.005.004.005.004.004.004.005.004.005.004.004.003.005.004.005.004.004.003.005.004.005.003.004.004.005.003.005.003.004.003.005.003.004.003.005.003.005.003.004.003.005.003.004.002.005.003.004.002.005.003.004.002.005.002.004.002.005.003z"/><path id="_460581512" class="fil1" d="m3.167 4.626 3.786 3.786-.005-.005-.005-.004-3.786-3.786.005.004z"/><path id="_460581752" class="fil1" d="m2.567 3.191 3.786 3.786-.266-.021-3.786-3.787z"/><path id="_460581440" class="fil1" d="m3.888 4.348 3.786 3.786-.006.01-.006.008-.007.009-.006.009-.006.009-.007.008-.006.009-.007.008-.006.009-.006.008-.007.009-.006.008-.007.008-.006.008-.007.008-.006.008-.007.008-.006.008-.007.007-.006.008-.007.007-.006.008-.007.007-.006.007-.007.008-.006.007-.007.006-.006.007-.007.007-.006.007-.007.006-.006.006L3.68 4.598l.007-.006.006-.007.007-.006.007-.007.006-.007.007-.007.006-.007.007-.007.006-.007.007-.007.006-.008.007-.007.006-.008.007-.008.006-.007.007-.008.006-.008.007-.008.006-.008.007-.008.006-.009.006-.008.007-.008.006-.009.007-.008.006-.01.006-.008.007-.009.006-.008.006-.01.007-.008z"/><path id="_460582832" class="fil1" d="m1.906 2.887 3.786 3.786-.004-.002-.003-.003L1.9 2.882l.003.003z"/><path id="_460582136" class="fil1" d="m3.681 4.598 3.787 3.786-.01.01-.008.008-.01.008-.008.008-.01.008-.008.007-.009.007-.009.007-.009.007-.008.007-.01.006-.008.006-.009.006-.008.006-.009.005-.009.005-.008.005-.009.004-.008.004-.009.004-.008.004-.008.003-.009.003-.008.003-.008.002-.008.003-.008.001-.008.002-.008.001h-.008l-.008.001h-.007L3.41 4.75h.015l.008-.001.008-.001.008-.002.008-.002.008-.002.008-.002.008-.003.008-.003.009-.003.008-.004.009-.004.008-.004.009-.005.008-.004.009-.005.008-.006.01-.005.008-.006.009-.006.008-.006.01-.007.008-.007.009-.007.009-.007.009-.008.009-.008.009-.008.008-.008.01-.008z"/><path id="_460582712" class="fil1" d="m4.4 4.302 3.786 3.786-.47-.016-3.787-3.786z"/><path id="_460582256" class="fil1" d="m5.263 5.16 3.786 3.786-.003.002-.004.002h-.004l-.003.002H9.02l-.003-.002h-.004l-.003-.002-.003-.002-.003-.003-.003-.002-3.786-3.786.003.002.003.002.003.002.003.002.004.001.003.001h.004l.003.001h.008l.003-.001.004-.002.003-.001z"/><path id="_460582448" class="fil1" d="M5.237 3.192 9.023 6.98l-.303.454-3.787-3.786z"/><path id="_460582088" class="fil1" d="M4.933 3.647 8.72 7.433l-.003.003-.002.003-.003.003-.003.002-.003.002-.003.001-.004.001-.003.001-3.787-3.786.004-.001.003-.001.004-.002.003-.002.003-.002.002-.002.003-.003z"/><path id="_460582808" class="fil1" d="m4.91 3.663 3.786 3.786-.38.076L4.53 3.74z"/><path id="_637655176" class="fil1" d="M2.922 1.682a.038.038 0 1 1 .068.032c-.047.1-.039.142.003.162a.663.663 0 0 0 .17.034l.083.011a.285.285 0 0 1 .166-.052c.063 0 .121.02.167.052l.083-.01a.663.663 0 0 0 .17-.035c.041-.02.05-.061.002-.162a.038.038 0 0 1 .069-.032c.071.153.046.222-.04.262a.697.697 0 0 1-.22.045.224.224 0 0 1-.028.281c.071.016.136.041.19.072.107.062.173.149.173.247 0 .04-.01.077-.03.113a.3.3 0 0 1-.045.058.778.778 0 0 1 .276.27l.332.015.355-.213.074-.74a.038.038 0 0 1 .075.008l-.075.758a.038.038 0 0 1-.02.03l-.378.276a.038.038 0 0 1-.016.005l-.273.023a.666.666 0 0 1 .01.34l.272.081.344-.021.295-.442a.038.038 0 0 1 .063.042l-.304.455a.038.038 0 0 1-.024.016l-.379.076a.038.038 0 0 1-.014 0l-.297-.044a2.611 2.611 0 0 1-.183.411c.127.022.42.071.435.084l.453.377a.038.038 0 0 1 .01.01l.34.53a.038.038 0 0 1-.064.042l-.337-.526-.473-.32-.47-.017a1.706 1.706 0 0 1-.248.313c-.096.092-.19.15-.273.15a.237.237 0 0 1-.095-.022.58.58 0 0 1-.147-.101 1.374 1.374 0 0 1-.217-.252 2.393 2.393 0 0 1-.06-.088l-.463.016-.473.32-.338.527a.038.038 0 0 1-.063-.041l.34-.53a.038.038 0 0 1 .01-.011l.452-.377c.015-.013.298-.06.429-.083a2.615 2.615 0 0 1-.183-.411l-.29.043a.038.038 0 0 1-.015 0l-.379-.076a.038.038 0 0 1-.024-.016l-.303-.455a.038.038 0 0 1 .063-.042l.294.442.345.021.264-.079a.666.666 0 0 1 .01-.343l-.265-.022a.038.038 0 0 1-.017-.005l-.378-.277a.038.038 0 0 1-.019-.029L1.811 2.1a.038.038 0 0 1 .075-.007l.074.739.355.213.324-.015a.778.778 0 0 1 .282-.273.297.297 0 0 1-.042-.057.226.226 0 0 1-.03-.111c0-.098.066-.185.173-.247a.688.688 0 0 1 .188-.072.224.224 0 0 1-.03-.282l-.027-.003a.697.697 0 0 1-.192-.04c-.086-.04-.11-.11-.04-.263z"/></g></g><path class="fil2" d="M3.413 0a3.413 3.413 0 1 1 0 6.827 3.413 3.413 0 0 1 0-6.827z"/><path class="fil3" d="M2.922 1.682a.038.038 0 1 1 .068.032c-.047.1-.039.142.003.162a.663.663 0 0 0 .17.034l.107.015A.038.038 0 0 1 3.258 2a3.2 3.2 0 0 0-.105-.015.697.697 0 0 1-.192-.04c-.086-.04-.11-.11-.04-.263zM3.834 1.714a.038.038 0 0 1 .069-.032c.071.153.046.222-.04.262a.697.697 0 0 1-.192.041A3.2 3.2 0 0 0 3.566 2a.038.038 0 0 1-.012-.075l.108-.015a.663.663 0 0 0 .17-.034c.041-.02.05-.061.002-.162z"/><path d="M3.412 1.869c.073 0 .14.027.188.07a.224.224 0 0 1 .04.3.26.26 0 0 1-.104.087.038.038 0 0 1-.02.004.855.855 0 0 0-.207 0 .038.038 0 0 1-.023-.005.26.26 0 0 1-.102-.087.224.224 0 0 1 .04-.3.283.283 0 0 1 .188-.069z" style="fill:#00796b;fill-rule:nonzero"/><path d="M3.413 2.248c.152 0 .29.036.392.094.107.062.173.149.173.247 0 .04-.01.077-.03.113a.332.332 0 0 1-.086.095.038.038 0 0 1-.04.004.865.865 0 0 0-.413-.098.92.92 0 0 0-.407.096.038.038 0 0 1-.041-.004.328.328 0 0 1-.082-.095.226.226 0 0 1-.03-.111c0-.098.066-.185.173-.247.101-.058.24-.094.391-.094z" style="fill:#26a69a;fill-rule:nonzero"/><path class="fil6" d="M1.811 2.1a.038.038 0 0 1 .075-.007l.074.739.355.213.375-.017c.021.001.018.116.017.136a.038.038 0 0 1-.041.035l-.365-.03a.038.038 0 0 1-.017-.005l-.378-.277a.038.038 0 0 1-.019-.029L1.811 2.1zM1.59 3.192a.038.038 0 0 1 .063-.042l.294.442.345.021.319-.095c.02-.004.087.104.09.125a.038.038 0 0 1-.032.043l-.358.053a.038.038 0 0 1-.015 0l-.379-.076a.038.038 0 0 1-.024-.016l-.303-.455zM1.616 5.149a.038.038 0 0 1-.063-.041l.34-.53a.038.038 0 0 1 .01-.011l.452-.377c.018-.015.43-.082.487-.093.02 0 .105.08.106.102 0 .02.018.084-.003.085l-.518.018-.473.32-.338.527zM5.015 2.1a.038.038 0 0 0-.075-.007l-.074.739-.355.213-.375-.017c-.02.001-.018.116-.016.136.002.021.02.037.04.035l.366-.03a.038.038 0 0 0 .016-.005l.379-.277a.038.038 0 0 0 .019-.029l.075-.758zM5.237 3.192a.038.038 0 0 0-.063-.042l-.295.442-.344.021-.32-.095c-.02-.004-.086.104-.09.125-.002.02.012.04.033.043l.358.053h.014l.38-.076a.038.038 0 0 0 .023-.016l.304-.455zM5.21 5.149a.038.038 0 0 0 .064-.041l-.34-.53a.038.038 0 0 0-.01-.011l-.453-.377c-.018-.015-.429-.082-.486-.093-.021 0-.105.08-.106.102 0 .02-.018.084.003.085l.518.018.473.32.337.527z"/><path d="M3.41 2.627a.94.94 0 0 1 .614.22.71.71 0 0 1 .257.538c0 .215-.148.577-.334.872-.171.274-.379.492-.537.492-.16 0-.367-.218-.538-.492-.186-.295-.334-.657-.334-.872 0-.21.098-.4.257-.538a.94.94 0 0 1 .615-.22z" style="fill:#80cbc4;fill-rule:nonzero"/><path class="fil8" d="M4.033 4.11a2.92 2.92 0 0 1-.05.09.062.062 0 1 1 .051-.09z"/><path d="M3.009 4.454a2.077 2.077 0 0 1-.06-.08.06.06 0 1 1 .06.08z" style="fill:#ff9100;fill-rule:nonzero"/><path class="fil8" d="M3.888 4.348a1.706 1.706 0 0 1-.207.25.165.165 0 0 1 .206-.25z"/><path d="M3.314 4.727a.582.582 0 0 1-.147-.101.165.165 0 0 1 .152-.23.165.165 0 1 1-.005.33z" style="fill:#b71c1c;fill-rule:nonzero"/><circle class="fil11" cx="3.397" cy="4.272" r=".091"/><circle class="fil11" cx="3.712" cy="4.027" r=".083"/><circle class="fil12" cx="3.153" cy="4.276" r=".092"/><circle class="fil13" cx="3.46" cy="4.028" r=".117"/><circle class="fil13" cx="3.242" cy="4.131" r=".043"/><circle class="fil12" cx="3.658" cy="4.233" r=".078"/><circle class="fil13" cx="3.005" cy="4.068" r=".067"/><circle class="fil12" cx="3.308" cy="3.93" r=".039"/><circle class="fil12" cx="3.593" cy="4.401" r=".059"/><circle cx="2.961" cy="4.234" r=".059" style="fill:#e65100"/><circle class="fil11" cx="3.824" cy="4.21" r=".059"/><circle class="fil11" cx="3.192" cy="4.013" r=".073"/><circle class="fil2" cx="3.533" cy="4.153" r=".04"/><circle class="fil12" cx="2.858" cy="4.075" r=".04"/><circle class="fil12" cx="3.885" cy="4.058" r=".04"/><circle class="fil13" cx="3.576" cy="4.623" r=".043"/><circle class="fil12" cx="3.409" cy="3.788" r=".091"/><circle class="fil11" cx="3.409" cy="3.58" r=".063"/><circle class="fil13" cx="3.409" cy="3.373" r=".053"/><circle class="fil12" cx="3.409" cy="3.205" r=".032"/></g></svg>