<svg xmlns="http://www.w3.org/2000/svg" xml:space="preserve" width="655.359" height="655.359" style="shape-rendering:geometricPrecision;text-rendering:geometricPrecision;image-rendering:optimizeQuality;fill-rule:evenodd;clip-rule:evenodd" viewBox="0 0 6.827 6.827"><defs><clipPath id="id0"><path d="M3.413 0a3.413 3.413 0 1 1 0 6.827 3.413 3.413 0 0 1 0-6.827z"/></clipPath><style>.fil1{fill:#283593}.fil3{fill:#c4997c}.fil6{fill:#f7d2b9}</style></defs><g id="Layer_x0020_1"><path d="M3.413 0a3.413 3.413 0 1 1 0 6.827 3.413 3.413 0 0 1 0-6.827z" style="fill:#3949ab"/><g style="clip-path:url(#id0)"><g id="_637657600"><path id="_6545371041" class="fil1" d="m5.03 2.082 3.786 3.786.013.016.014.017.013.017.012.017-3.786-3.786-.013-.018-.013-.017-.013-.016z"/><path id="_654536864" class="fil1" d="m5.082 2.149 3.786 3.786.012.017.011.016.011.017.011.018.01.017.01.018.01.019.01.018.01.019.008.019.009.019.008.02.008.019.007.02.007.02.007.02.006.02.006.02.005.022.006.02.004.022.004.021.004.022.004.021.003.022.002.022.002.022.002.023v.022l.001.022v.046L5.28 2.79v-.067L5.277 2.7l-.001-.022-.002-.022-.003-.022-.003-.022-.003-.022-.004-.021-.004-.021-.005-.022-.005-.02-.005-.021-.006-.021-.007-.02-.006-.02-.007-.02-.008-.02-.008-.02-.008-.02-.008-.019-.009-.019-.01-.018-.009-.019-.01-.018-.01-.018-.01-.017-.01-.018-.012-.017-.011-.017z"/><path id="_654540272" class="fil1" d="m5.28 2.791 3.786 3.787V6.598l-.001.003v.017l-.001.003v.003L5.278 2.838V2.809l.001-.003v-.012z"/><path id="_654540560" class="fil1" d="m5.278 2.838 3.786 3.786v.013l-.002.012v.013l-.001.013-.001.013-.001.012-.002.013v.013l-.002.013-.002.014-.001.013-.002.013-.001.013-.002.014-.002.013-.002.014-.002.013-.002.014-.002.014-.002.013-.003.014-.002.014-.003.014-.002.014-.003.014-.003.014-.003.014L9.013 7l-.003.015-.003.014-.003.014-.003.015L5.214 3.27l.004-.014.003-.014.003-.015.003-.014.003-.014.003-.014.003-.014.003-.014.002-.014.003-.014.002-.014.002-.014.003-.014.002-.013.002-.014.002-.014.002-.013.002-.014.001-.013.002-.013.002-.014.001-.013.002-.013V2.94l.002-.013.001-.013.001-.013.001-.013.001-.012.001-.013v-.012z"/><path id="_654540608" class="fil1" d="M4.902 3.171 8.69 6.957l-.006-.006-.007-.006-.006-.006-.006-.005-.007-.006-.006-.005-.006-.006-.007-.005-.006-.005-.007-.005-.006-.005-.007-.004-.006-.005-.007-.004-.006-.005-.007-.004L4.8 3.09l.007.004.006.004.007.005.006.004.007.005.006.005.006.005.007.005.006.005.007.005.006.006.006.005.007.006.006.006.006.006z"/><path id="_654541088" class="fil1" d="m4.93 3.2 3.786 3.786-.01-.01-.008-.01-.01-.009-3.786-3.786.01.01.009.009z"/><path id="_654540872" class="fil1" d="m4.8 3.089 3.786 3.786-.007-.004-.007-.005-.007-.004-.008-.004-.007-.003-.007-.004-.007-.004-.007-.003-.008-.003-.007-.003-.007-.003-.007-.003-.007-.002-.007-.003-.007-.002-.007-.002-.007-.002-.007-.001-.007-.002-.007-.001-.007-.002h-.006l-.007-.002h-.007l-.006-.001h-.044L4.58 3.026H4.593l.006-.001h.025l.007.001.007.001.006.001.007.001.007.001.007.002.007.001.006.002.007.002.007.002.007.002.008.003.007.002.007.003.007.003.007.003.007.003.007.003.008.004.007.003.007.004.007.004.008.004.007.004z"/><path id="_654540896" class="fil1" d="m4.58 3.026 3.787 3.786-.007.001-.007.001-.006.001-.007.002-.006.001-.006.002-.006.002-.006.002-.006.002-.006.003-.005.002-.006.003-.005.003-.005.004-.005.003-.005.004-.004.004-.005.004-.004.004-.004.004-.004.005-.004.005-.004.005-.003.005-.003.006-.004.005-.002.006-.003.006-.003.006-.002.007-.002.006-.002.007-3.786-3.786.002-.007.002-.007.002-.006.003-.006.002-.006.003-.006.003-.006.004-.005.003-.005.004-.005.003-.005.004-.005.005-.004.004-.005.004-.004.005-.003.005-.004.005-.004.005-.003.005-.003.006-.003.005-.003.006-.002.006-.002.006-.003.006-.001.006-.002.006-.002.006-.001.007-.001.007-.001z"/><path id="_654541112" class="fil1" d="m5.214 3.27 3.787 3.787-.003.01-.002.01-.003.01-.002.01-.003.01-.003.011-.002.01-.003.01-.003.011-.003.01-.002.011-.003.01-.003.01-.003.011-.003.01-.004.011-.003.01-.003.011-.003.011-.004.01-.003.011-.003.01-.004.011-.003.011-.004.01-.004.011-.003.011-.004.01-.004.012-.004.01-.004.011-.004.011-3.786-3.786.004-.011.004-.01.004-.012.004-.01.003-.011.004-.01.004-.011.003-.011.004-.01.003-.011.004-.011.003-.01.003-.011.004-.01.003-.011.003-.01.003-.011.003-.01.003-.011.003-.01.003-.011.003-.01.003-.011.003-.01.003-.01.002-.011.003-.01.002-.01.003-.01.003-.011.002-.01z"/><path id="_654541424" class="fil1" d="M4.434 3.147 8.22 6.933l-.002.008-.002.01-.001.008-.001.01V7.02l.002.011.002.012.002.011.003.013.003.012.003.013.004.013.005.013.005.014.005.013.006.015.006.014.007.015.007.015.008.016.009.015.009.016.009.017.01.016.01.017.012.017.011.018.013.018-3.787-3.787-.012-.017-.012-.018-.01-.017-.011-.017-.01-.017-.01-.016-.009-.016-.008-.016-.008-.015-.007-.015-.007-.015-.006-.015-.006-.014-.006-.014-.005-.013-.004-.014-.004-.013-.003-.012-.004-.013-.002-.012-.002-.012-.002-.011-.002-.011v-.011l-.001-.01v-.031l.002-.009v-.01l.003-.008z"/><path id="_654541352" class="fil1" d="m4.578 3.567 3.787 3.787.005.008.006.008.006.008.006.009.005.008.006.009.006.008.006.009.006.008.006.009.005.008.006.01.006.008.006.009.005.008.006.01.006.008.005.01.006.008.005.009.006.01.005.008.005.01.005.008.006.01.005.009.005.009.004.01.005.009.005.009.004.01.005.009L4.753 3.85l-.005-.009-.004-.01-.005-.009-.005-.009-.005-.01-.005-.009-.005-.009-.005-.009-.005-.009-.005-.01-.006-.008-.005-.01-.006-.008-.005-.01-.006-.008-.005-.009-.006-.009-.006-.009-.005-.008-.006-.01-.006-.008-.006-.009-.006-.008-.005-.009-.006-.008-.006-.009-.006-.008-.006-.009-.005-.008-.006-.008-.006-.008z"/><path id="_654541376" class="fil1" d="m4.753 3.85 3.786 3.787.004.009.004.009.004.01.004.008.004.01.004.009.003.01.003.009.004.009.003.01.003.009.002.01.003.009.003.01.002.009.002.01.002.01.002.009.001.01.002.01.001.01.001.009v.01l.002.01v.049l-.001.01-.001.01-.001.01-3.786-3.786v-.01l.002-.01v-.07l-.001-.01-.001-.01-.002-.009v-.01l-.003-.01-.001-.009L4.805 4l-.002-.01-.003-.009-.002-.01-.003-.009-.003-.01-.003-.009-.003-.01-.003-.009-.003-.009-.004-.01-.003-.009-.004-.009-.004-.01-.004-.008-.004-.01z"/><path id="_654541232" class="fil1" d="m2.477 2.407 3.786 3.787.01.012.008.012.008.012.007.011.006.011.006.01.005.011.005.01.004.01.003.01.003.01.002.008.002.01.001.008.001.009v.024l-.002.008-.001.007-.002.008-.003.007-.002.008-.003.007-.004.007-.003.007-.004.007-.005.007-.004.007-.005.007-.005.006-.005.007-3.787-3.786.006-.007.005-.007.004-.007.005-.006.004-.007.004-.007.004-.007.003-.007.003-.008.003-.007.002-.007.002-.008.002-.007.001-.008v-.008l.001-.008v-.017l-.002-.009-.002-.009-.002-.01-.003-.008-.003-.01-.004-.01-.005-.01-.005-.01-.006-.011-.007-.011-.007-.012-.008-.011-.008-.012z"/><path id="_654541328" class="fil1" d="m2.169 2.458 3.786 3.786.007.007.006.007.006.007.006.007.005.007.004.007.004.007.003.007.003.007.003.007.002.007.002.006v.007l.002.007v.035l-.002.007-.001.007-.002.007-.001.007L6 6.412l-.002.007L2.21 2.633l.002-.008.002-.007.002-.007.002-.007.001-.007.001-.007v-.007l.001-.007v-.021l-.001-.007-.002-.007-.001-.007-.002-.007-.003-.007-.003-.006-.003-.007-.004-.007-.005-.007-.005-.007-.005-.007-.006-.007-.006-.007z"/><path id="_654540848" class="fil1" d="M4.094 4.662 7.88 8.448l-.004-.003-.004-.003-.005-.003-.004-.003-.005-.003-.004-.004-.005-.003-.004-.003-.004-.003-.005-.003-.004-.003-.005-.003-.004-.003-.005-.003-.004-.003-.005-.003-3.786-3.787.005.003.004.003.005.004.004.003.004.003.005.003.004.003.005.003.004.003.005.003.004.003.004.003.005.004.004.003.005.003z"/><path id="_654540992" class="fil1" d="M4.023 4.612 7.81 8.4 4.023 4.613z"/><path id="_654541544" class="fil1" d="M4.023 4.613 7.809 8.4l-.019.04-3.786-3.787z"/><path id="_654541736" class="fil1" d="M4.004 4.652 7.79 8.438l-.006.012-.005.01-.006.011-.006.01-.006.011-.006.01-.006.01-.007.009-.006.01-.006.008-.007.008-.006.009-.007.008-.007.007-.007.008-.006.007-.007.007-.007.007-.007.007-.007.006-.008.006-.007.006-.007.006-.008.005-.007.005-.008.005-.007.005-.008.005-.007.004-.008.004-.008.004-.008.004-3.786-3.786.008-.004.008-.004.007-.004.008-.005.008-.004.007-.005.008-.005.007-.005.008-.006.007-.005.007-.006.007-.006.007-.007.007-.006.007-.007.007-.007.007-.007.007-.008.007-.008.006-.008.007-.008.006-.008.007-.01.006-.008.006-.01.006-.01.007-.01.006-.01.006-.01.005-.01.006-.012z"/><path id="_654541448" class="fil1" d="M2.433 3.623 6.22 7.41l-.013-.012-.014-.011-.014-.011-.015-.01-.016-.01-.016-.01-.016-.01-.016-.008-.017-.008-.016-.008-.017-.007-.016-.006-.016-.005-.015-.004-3.786-3.786.015.004.016.005.016.006.016.007.017.007.016.008.017.009.016.01.016.009.015.01.015.01.015.012.014.01z"/><path id="_654542096" class="fil1" d="M2.217 3.504 6.003 7.29l-.011.001-.012.001-.012.001-.012.001h-.013l-.013.001H5.859l-.014-.002H5.83l-.015-.001L5.8 7.29l-.015-.001-.016-.002-.015-.001-.015-.002-.015-.002-.015-.002-.014-.003-.015-.002-.014-.003-.014-.003-.014-.003-.014-.003-.013-.003-.013-.004-.013-.003-.012-.004-.011-.004L1.775 3.46l.012.004.012.003.013.004.013.004.013.003.013.003.014.003.014.003.015.002.014.003.015.002.015.003.015.002.015.001.015.002.015.002.015.001.015.001.015.001.015.001h.015l.015.001h.081l.013-.001h.012l.012-.002z"/><path id="_654541832" class="fil1" d="M2.572 4.11 6.36 7.896l-.019-.005-3.786-3.786z"/><path id="_654541856" class="fil1" d="m1.775 3.459 3.787 3.786-.005-.002-.005-.001-.005-.002-.004-.002-.005-.002-.005-.002-.004-.002-.004-.002-.005-.002-.004-.003-.004-.002-.004-.002-.004-.003-.004-.002-.003-.003-.003-.002-3.787-3.787.004.003.003.003.004.002.004.002.004.003.004.002.004.002.004.003.005.002.004.002.005.002.004.002.005.002.005.001.005.002z"/><path id="_654542048" class="fil1" d="M2.635 4.155 6.42 7.942l-.009-.008-.01-.008-.01-.007-.01-.008-.011-.007-.012-.008L2.572 4.11l.012.007.012.008.01.007.01.008.01.008z"/><path id="_654541784" class="fil1" d="m1.707 3.424 3.787 3.787-.005-.004L1.703 3.42z"/><path id="_654541904" class="fil1" d="M1.836 3.874 5.623 7.66h-.006l-.007-.001-.007-.001-.007-.001-.008-.002-.008-.001-.008-.001-.01-.002-.008-.002-.01-.002-.009-.002-.01-.002-.009-.002-.01-.003-.01-.002-.01-.003-.009-.003-.01-.003-.01-.003-.008-.004-.01-.003-.009-.004-.008-.004-.009-.004-.008-.004-.008-.005-.007-.004-.007-.005-.006-.005-.006-.005L1.585 3.79l.006.006.006.004.007.005.007.005.008.004.008.005.008.004.01.004.008.003.01.004.009.003.01.003.009.004.01.003.01.002.009.003.01.002.01.003.009.002.01.002.009.002.008.002.01.001.008.002.008.001.008.001.007.001.007.001.006.001z"/><path id="_654541472" class="fil1" d="M2.554 4.105 6.34 7.891h-.025l-.024-.003-.024-.003-.023-.003-.023-.004-.022-.005-.022-.006-.021-.006-.021-.007-.02-.007-.02-.007-.02-.008-.02-.008-.019-.009-.019-.009L6 7.798l-.019-.01-.018-.009-.018-.009-.018-.009-.018-.009-.018-.008-.018-.01-.017-.008-.018-.008-.018-.007-.017-.008-.018-.007-.018-.006-.018-.006-.019-.006-.018-.004-.005-.001-.004-.001-.005-.001-.005-.001-.005-.001h-.005l-.006-.002h-.005l-.006-.001-.006-.001h-.005l-.006-.002h-.006l-.007-.001H5.63l-.006-.002-3.787-3.786h.007l.006.002h.006l.006.001h.006l.006.002h.006l.006.001.005.001h.005l.006.002h.005l.005.001.004.001.005.001.005.001.018.005.018.005.018.006.018.007.018.007.018.007.018.008.018.008.017.009.018.008.018.01.018.008.018.01.018.008.018.01.018.008.019.01.019.008.019.008.02.009.02.007.02.008.02.007.02.007.022.006.022.005.022.005.023.005.023.003.024.003.024.002z"/><path id="_654542864" class="fil1" d="m3.785 4.886 3.786 3.786-.008.004-.008.003-.008.004-.008.003-.008.003-.008.003-.009.002-.008.003-.009.002-.008.003-.009.002-.008.002-.009.001-.009.002-.008.002-.01.001-.008.001-.009.002H7.41l-.009.002h-.008l-.01.001-.008.001h-.01l-.009.001h-.018l-.009.001H7.292L3.506 4.935H3.56l.01-.001h.008l.01-.001h.008l.01-.002h.008l.01-.002h.008l.009-.002.009-.001.008-.002.01-.001.008-.002.008-.002.009-.002.009-.002.008-.002.009-.002.008-.003.008-.003.009-.002.008-.003.008-.004.008-.003.008-.004z"/><path id="_654542288" class="fil1" d="M3.506 4.935 7.292 8.72H7.265l-.01-.002h-.011l-.012-.002H7.22l-.012-.002-.013-.002-.013-.001-.014-.002-.013-.002-.013-.001-.014-.002-.013-.002-.013-.002-.013-.001-.013-.002-.012-.002-.012-.002-.011-.001-.01-.002-.01-.001-.01-.001-.008-.002h-.008l-.006-.002h-.006l-.004-.001h-.006l.002.002L3.19 4.9l-.002-.003h.005l.005.001.005.001.007.001.007.001.009.001.009.002.01.001.01.002.012.001.011.002.013.002.012.001.013.002.013.002.014.002.013.002.014.001.013.002.013.002.014.001.012.001.013.002.012.001.012.001.01.001h.011l.01.001h.009z"/><path id="_654542384" class="fil1" d="M3.322 4.98 7.11 8.766l.005.006.005.005.002.005.001.005v.005l-.003.004-.006.004-.007.004-.01.003-.013.003-.016.002-.019.002h-.022l-.025.001h-.03L3.185 5.029h.055l.022-.002.019-.001.016-.002.013-.003.01-.003.007-.004.005-.004.003-.004L3.336 5v-.005l-.004-.005-.004-.006z"/><path id="_654542408" class="fil1" d="m3.185 5.029 3.786 3.786-.013-.002-.017-.001-.018-.001-.022-.002h-.023l-.025-.001-.027-.001h-.029l-.03-.001-.031-.001h-.067l-.034-.001H6.528l-.036-.001h-.107l-.036-.001h-.068L6.25 8.8h-.031l-.03-.002h-.03l-.026-.001-.025-.001-.023-.002h-.021l-.019-.002-.017-.003-.014-.003L6 8.784l-.01-.005-.007-.005-3.787-3.787.008.006.01.004.013.004.014.003.017.002.019.002.02.001.024.001.025.001.027.001.028.001h.03l.032.001h.032l.034.001h.034l.035.001H2.706l.036.001H2.849l.034.001h.066l.032.001h.03l.029.001.027.001.025.001.023.001.021.001.02.002.015.001z"/><path id="_654542648" class="fil1" d="m2.5 2.686 3.786 3.786.012.018.014.018.016.018.017.017L2.56 2.757l-.017-.017-.016-.018-.014-.018z"/><path id="_654542528" class="fil1" d="m3.787 3.238 3.787 3.787.03.034.029.035.027.037.024.038.023.039.02.04.02.04.017.04.016.042.014.04.014.041.011.04.01.04.01.038.009.038.007.036.007.034.006.033.005.031.004.03.004.026L4.095 4.01l-.004-.026-.004-.029-.006-.031-.005-.033-.007-.034-.008-.037-.008-.037-.01-.039-.01-.039-.012-.04-.013-.04-.014-.041-.016-.041-.018-.041-.019-.04-.02-.04-.023-.04-.025-.037-.026-.037-.029-.036z"/><path id="_654542552" class="fil1" d="M4.546 4.563 8.333 8.35l-.026.02-.024.02-.023.017-.023.015-.02.015-.02.013-.02.011-.018.01-.018.01-.017.007-.015.006-.016.006-.014.004-.014.004-.013.002-.013.001-.012.001h-.011l-.012-.001-.01-.002-.01-.002-.011-.003-.01-.004-.01-.004-.009-.005-.01-.005-.008-.005-.01-.006-.008-.006-.01-.006-.008-.007-.01-.007-3.786-3.786.01.007.008.006.01.007.008.006.01.005.009.006.009.005.01.005.009.004.01.003.01.003.01.003.011.002h.035l.013-.001.013-.003.014-.003.014-.004.015-.006.016-.006.017-.008.017-.009.019-.01.019-.012.02-.013.021-.014.022-.016.024-.017.024-.018z"/><path id="_654542600" class="fil1" d="m4.095 4.01 3.786 3.787v.002l.001.002v.005l.001.001-3.786-3.786v-.003l-.001-.002v-.004z"/><path id="_654542768" class="fil1" d="m4.097 4.021 3.786 3.786.001.01.002.01.001.009.002.008.001.008.001.008.002.008v.006l.002.007.002.006.001.006.001.005.002.004.002.005.001.003.002.004L4.12 4.127l-.002-.003-.002-.004-.001-.004-.002-.005-.001-.005-.002-.005-.001-.006-.001-.007-.002-.007-.001-.007-.001-.008-.002-.008-.001-.009L4.1 4.04l-.002-.01z"/><path id="_654542792" class="fil1" d="m4.12 4.127 3.786 3.787.003.004.002.004.003.003.003.003-3.786-3.786-.003-.003-.003-.003-.003-.004z"/><path id="_654542264" class="fil1" d="m4.813 4.158 3.786 3.786-.002.015-.003.016-.004.015-.003.015-.005.015-.005.015-.005.014-.006.015-.006.014-.007.014-.007.013-.007.014-.008.013-.008.013-.009.013-.009.013-.009.013-.01.012-.009.012-.01.012-.01.012-.01.012-.011.011-.011.011-.011.011-.012.011-.01.01-.012.011-.012.01-.012.01-.012.01-.011.01-3.787-3.786.012-.01.012-.01.012-.01.011-.01.012-.01.011-.011.011-.011.011-.011.011-.011.011-.012.01-.011.01-.012.01-.012.01-.012.01-.013.01-.012.008-.013.008-.013.009-.013.007-.013.008-.014.007-.014.007-.014.006-.014.006-.014.005-.014.005-.015.004-.015.004-.015.003-.015.003-.016z"/><path id="_637657336" class="fil1" d="M4.577 1.806c.186.028.371.156.505.343a1.054 1.054 0 0 1 .196.689 2.471 2.471 0 0 1-.064.432 2.888 2.888 0 0 1-.1.337.777.777 0 0 0-.212-.436.587.587 0 0 0-.102-.082.361.361 0 0 0-.22-.063c-.072.007-.127.047-.146.12-.024.09.01.23.144.421.061.088.128.183.175.283.045.098.073.2.06.308-.021.167-.14.302-.267.405-.277.226-.353.17-.452.099l-.07-.05-.001.001-.02.039a.471.471 0 0 1-.218.234.63.63 0 0 1-.28.049c-.08 0-.32-.04-.318-.038.014.024.33.138-.002.132-.131-.019-.742-.006-.927-.023-.097-.009-.09-.058-.022-.107.139-.14.346-.174.538-.211l.054-.01-.03-.047a.517.517 0 0 1-.073-.244c-.011-.109-.02-.2-.153-.277l-.018-.005c-.27-.007-.431-.17-.63-.218a.89.89 0 0 0-.088-.013c-.06-.007-.214-.035-.262-.094a.119.119 0 0 1-.027-.065c-.002-.025.025-.05.044-.063.075-.053.125-.028.21-.01.05.033.394.251.607.176.223-.079-.03-.273-.191-.314a1.178 1.178 0 0 1-.442-.045.234.234 0 0 1-.068-.035c-.012-.01-.02-.02-.02-.03.001-.007.004-.014.009-.022l.006-.02c0-.229.15-.483.312-.626l.012-.01c-.023-.087-.034-.215.075-.31.127.08.134.149.11.227a.195.195 0 0 1 .054.001l.027.005a.295.295 0 0 1 .185-.232c.102.134.08.207.022.279.122.197.567.342.783.344.659.007.773.71.813.98l.002.011c.008.054.013.09.023.106.014.025.032.03.057.017l.003-.002c.027-.019.084-.102.104-.221a.628.628 0 0 0-.107-.466c-.174-.265-.265-.722-.209-1.092.028-.182.1-.39.26-.495a.483.483 0 0 1 .35-.062z"/></g></g><path d="M3.413 0a3.413 3.413 0 1 1 0 6.827 3.413 3.413 0 0 1 0-6.827z" style="fill:none"/><path class="fil3" d="M2.101 2.406c.165.105.128.189.083.3 0 0-.043-.013-.072.001a.4.4 0 0 0-.073.053c-.029-.083-.067-.241.062-.354z"/><path d="M2.101 2.406c.165.105.128.189.083.3 0 0-.043-.013-.072.001a.4.4 0 0 0-.073.053c-.029-.083-.067-.241.062-.354z" style="fill:#ba8f72"/><path d="m1.702 3.352-.006.02a.048.048 0 0 0-.008.021c0 .011.007.022.02.031a.234.234 0 0 0 .067.035c.122.042.326.06.442.045.16.041.414.235.192.314-.214.075-.558-.143-.608-.176-.085-.018-.135-.043-.21.01-.019.014-.046.038-.044.063a.119.119 0 0 0 .027.065c.048.06.201.087.262.094a.89.89 0 0 1 .088.013c.199.047.36.211.63.218l.018.005c.132.078.142.168.153.277a.517.517 0 0 0 .074.244l.03.046-.055.011c-.192.037-.4.071-.538.21-.067.05-.075.1.022.108.185.017.796.004.927.023.332.006.016-.108.002-.132-.001-.001.237.037.319.038a.63.63 0 0 0 .28-.05.471.471 0 0 0 .218-.233l.02-.04.07.05c.099.072.175.127.452-.099.127-.103.246-.238.267-.405a.558.558 0 0 0-.06-.308 1.975 1.975 0 0 0-.175-.283c-.133-.191-.168-.332-.144-.42.019-.074.074-.114.146-.121a.361.361 0 0 1 .22.063c.137.086.273.26.313.518.043-.115.076-.228.101-.337.04-.172.061-.333.066-.479a1.054 1.054 0 0 0-.198-.642c-.134-.187-.32-.315-.505-.343a.483.483 0 0 0-.349.062c-.16.106-.232.313-.26.495-.056.37.035.827.209 1.092a.628.628 0 0 1 .107.466c-.02.119-.077.202-.104.22a.063.063 0 0 1-.003.003c-.025.014-.043.008-.057-.017a.399.399 0 0 1-.023-.106c-.04-.261-.148-.984-.815-.99-.217-.003-.668-.15-.786-.35-.028-.048-.092-.158-.139-.168-.015-.003-.031.02-.047.092l-.008.036-.037-.007a.309.309 0 0 0-.235.079l-.016.013c-.163.143-.312.397-.312.626z" style="fill:#ebbfa1"/><path class="fil6" d="M2.424 3.04c-.122.195-.222.152-.353.1 0 0 .014-.051-.003-.086a.473.473 0 0 0-.063-.085c.097-.035.284-.082.419.07z"/><path d="M2.155 2.937a.088.088 0 1 1 0 .176.088.088 0 0 1 0-.176z" style="fill:#f9fbe7"/><path d="M2.155 2.986a.039.039 0 1 1 0 .078.039.039 0 0 1 0-.078z" style="fill:#3e2723"/><path class="fil3" d="M4.094 4.662c.099.072.175.127.452-.099.127-.103.246-.238.267-.405a.558.558 0 0 0-.06-.308 1.975 1.975 0 0 0-.175-.283c-.133-.191-.168-.332-.144-.42.019-.074.074-.114.146-.121a.361.361 0 0 1 .22.063c.137.086.273.26.313.518.043-.115.076-.228.101-.337.04-.172.061-.333.066-.479a1.054 1.054 0 0 0-.198-.642c-.134-.187-.32-.315-.505-.343a.483.483 0 0 0-.349.062c-.16.106-.232.313-.26.495-.056.37.035.827.209 1.092a.628.628 0 0 1 .107.466c-.02.119-.077.202-.104.22a.063.063 0 0 1-.003.003c-.025.014-.043.008-.057-.017a.399.399 0 0 1-.023-.106l-.002-.01c.014.129.018.365-.072.602l.071.049z"/><path class="fil6" d="M4.902 3.171c.098.097.181.243.211.436.043-.115.076-.228.101-.337.036-.153.057-.299.064-.432l-.102-.153-.012.206-.13-.186.021.25-.19-.153.107.255-.14-.07.07.184z"/><path class="fil3" d="M2.477 2.407c.129.168.06.24-.028.336 0 0-.039-.028-.074-.025a.434.434 0 0 0-.094.027c.001-.095.022-.27.196-.338z"/><path class="fil6" d="M2.425 2.73a.103.103 0 0 0-.05-.012.268.268 0 0 0-.052.012c.001-.057.015-.156.115-.194.074.096.037.139-.013.194z"/><path class="fil3" d="M1.99 2.95c.075-.019.134-.034.195-.035a.276.276 0 0 1 .25.14l-.002-.004a.337.337 0 0 0-.252-.117c-.06 0-.121.021-.178.037l-.013-.022z"/><path class="fil6" d="M3.02 3.108c.192.167.253.105.448.206.227.117.388.516.442.756.009.04.007.028 0 .072-.14-.216-.203-.424-.387-.646-.164-.198-.476-.186-.502-.388z"/><path class="fil6" d="M2.864 3.223c.198.177.248.135.453.251.217.124.295.43.345.658.024.114.018.089.018.19-.112-.22-.171-.46-.321-.668-.13-.18-.469-.224-.495-.431z"/><path class="fil6" d="M2.736 3.323c.17.204.225.17.41.315.198.153.231.467.247.7.007.117.006.09-.01.191-.078-.234-.102-.481-.22-.708-.102-.196-.432-.29-.427-.498z"/><path class="fil6" d="M2.657 3.455c.114.184.162.163.295.302.141.147.132.403.117.594-.007.094-.006.073-.03.152-.036-.198-.026-.4-.095-.597-.06-.17-.315-.283-.287-.45z"/></g></svg>