<svg xmlns="http://www.w3.org/2000/svg" xml:space="preserve" width="655.359" height="655.359" style="shape-rendering:geometricPrecision;text-rendering:geometricPrecision;image-rendering:optimizeQuality;fill-rule:evenodd;clip-rule:evenodd" viewBox="0 0 6.827 6.827"><defs><clipPath id="id0"><path d="M3.413 0a3.413 3.413 0 1 1 0 6.827 3.413 3.413 0 0 1 0-6.827z"/></clipPath><style>.fil5{fill:#212121}.fil6{fill:#421f03}.fil1{fill:#557d32}.fil10{fill:#d67e3a}.fil3{fill:#eb761d}</style></defs><g id="Layer_x0020_1"><path d="M3.413 0a3.413 3.413 0 1 1 0 6.827 3.413 3.413 0 0 1 0-6.827z" style="fill:#689f38"/><g style="clip-path:url(#id0)"><g id="_637657456"><path id="_6545435361" class="fil1" d="M4.504 2.753 8.29 6.539l.003.003.003.003.002.003.003.003.003.003.002.003.003.003.002.003.003.003L4.528 2.78l-.003-.003-.003-.003-.002-.003-.003-.003-.002-.003-.003-.003-.003-.003-.002-.003z"/><path id="_654543728" class="fil1" d="m4.528 2.78 3.786 3.786.003.004.003.004.003.003.002.004.003.004.003.003.003.004.003.004L4.55 2.81l-.002-.004-.003-.004-.003-.004-.003-.003-.003-.004-.003-.004-.002-.003z"/><path id="_654544040" class="fil1" d="m4.55 2.81 3.787 3.786v.001l.001.001.001.002h.001v.002l.002.001v.001l.001.002-3.786-3.787-.002-.002v-.001l-.001-.001-.001-.002-.002-.002z"/><path id="_654543776" class="fil1" d="m4.557 2.82 3.786 3.786.003.004.003.004.003.004.002.004.003.004.003.004.002.004.003.004.002.004.003.005.002.004.003.004.002.005.003.004.002.004.003.005-3.786-3.786-.003-.005-.002-.004-.003-.005-.002-.004-.003-.004-.002-.005-.003-.004-.003-.004-.002-.004-.003-.004-.002-.005-.003-.004-.003-.004-.002-.004-.003-.004z"/><path id="_654544208" class="fil1" d="m4.599 2.887 3.786 3.786.003.005.003.006.003.006.003.006.003.006.003.005.003.006.003.006.003.006.003.006.003.006.002.006.003.007.003.006.003.006.002.006-3.786-3.786-.003-.006-.002-.007-.003-.006-.003-.006-.003-.006-.003-.006-.002-.006-.003-.006-.003-.006-.003-.006-.003-.006-.003-.006-.003-.005-.003-.006-.003-.006z"/><path id="_654543848" class="fil1" d="m4.645 2.982 3.786 3.786-3.786-3.786z"/><path id="_654544256" class="fil1" d="M4.645 2.982 8.432 6.77l.003.009.004.008.004.01.004.008.003.01.004.008.003.01.004.009.003.009.004.009.003.009.004.01.003.008.003.01.004.009.003.009.003.009.003.01.003.008.003.01.003.008.003.01.003.009.003.009.003.009.003.009.003.009.003.008.003.01.003.008.003.009.002.008L4.75 3.271l-.003-.009-.002-.008-.003-.009-.003-.009-.003-.009-.003-.009-.003-.009-.003-.009-.003-.009-.003-.009-.003-.009-.003-.009-.003-.009-.003-.01-.003-.008-.003-.01-.004-.009-.003-.009-.003-.009-.004-.01-.003-.008-.003-.01-.004-.009-.003-.009-.004-.009-.003-.009-.004-.009-.004-.009-.003-.009L4.653 3l-.004-.009z"/><path id="_654544400" class="fil1" d="m4.48 3.107 3.785 3.787v.003l-.002.003v.004l-.002.003v.004l-.002.003v.004l-.002.003-.001.004-.001.004-.001.003-.002.004v.003l-.002.004-.001.004-.001.003L4.46 3.164l.002-.004v-.003l.002-.004.001-.004.001-.003.002-.004V3.14l.002-.004.001-.003.001-.004.001-.003.001-.004.001-.003.001-.004.001-.003z"/><path id="_654543944" class="fil1" d="m4.81 3.444 3.785 3.787.003.006.002.006.003.006.003.005.002.006.003.006.003.005.003.006.003.005.003.006.003.005.003.006.003.005.003.005.003.005.003.005.003.005.004.005.003.005.003.005.004.004.003.005.004.005.003.004.004.005.003.004.004.004.003.004.004.005.003.004.004.004.004.004L4.91 3.604 4.907 3.6l-.004-.004-.004-.004-.003-.004-.004-.004-.003-.004-.004-.005-.003-.004-.004-.005-.003-.004-.004-.005-.003-.005-.003-.004-.004-.005-.003-.005-.003-.005-.003-.005-.003-.005-.004-.005-.003-.006-.003-.005-.003-.005-.003-.006-.003-.005-.002-.006-.003-.005-.003-.006-.003-.006-.002-.006-.003-.006-.002-.006z"/><path id="_654544832" class="fil1" d="m5.228 3.545 3.787 3.786.005.006.005.007.005.006.004.007.004.007.004.007.004.007.003.007.003.008.003.007.002.008.002.007.002.008-3.786-3.786-.002-.008-.002-.007-.002-.008-.003-.008-.003-.007-.003-.007-.004-.007-.004-.007-.004-.007-.005-.007-.004-.006-.005-.007z"/><path id="_654544616" class="fil1" d="m5.275 3.637 3.786 3.786.002.007v.007l.002.007v.008l.001.007v.028l-.001.007-.001.008-.001.007-.002.007-.001.007-.002.007-.002.006L5.27 3.75l.002-.007.002-.007.001-.007.002-.007v-.007l.002-.007v-.014l.001-.007v-.022l-.001-.007-.001-.007-.002-.007z"/><path id="_654544808" class="fil1" d="m4.75 3.271 3.785 3.786.002.007.002.006.002.006.002.006.002.006.002.006.002.005.002.006.002.006.002.006.002.006.002.005.001.006.002.006.002.005.002.006.002.005.002.005.002.006.001.005.002.005.002.005.002.006.002.005.002.005.001.005.002.004.002.005.002.005.002.005.002.004.001.005L4.81 3.444l-.002-.004-.002-.005-.001-.004-.002-.005-.002-.005-.002-.005-.002-.005-.002-.005-.001-.005-.002-.005-.002-.005-.002-.005-.002-.005-.002-.006-.001-.005-.002-.006-.002-.005-.002-.006-.002-.005-.002-.006-.002-.006-.002-.005-.001-.006-.002-.006-.002-.006-.002-.006-.002-.006-.002-.006-.002-.006-.002-.006-.002-.006z"/><path id="_654545240" class="fil1" d="M4.461 3.164 8.248 6.95l-.002.004-.001.004-.002.004v.004l-.002.004-.002.004-.001.005-.002.004-.001.004-.002.004-.001.004-.002.004-.001.004-.002.004-.001.005-.002.004L4.438 3.23l.002-.005.001-.004.002-.004.001-.004.002-.004.001-.004.002-.005.001-.004.002-.004.001-.004.001-.004.002-.004.001-.004.002-.004.001-.004z"/><path id="_654545216" class="fil1" d="m4.438 3.23 3.786 3.786v.002l-.001.002v.002l-.001.001v.001L4.435 3.238v-.001l.001-.001v-.002l.001-.001V3.23z"/><path id="_654545072" class="fil1" d="m4.405 3.324 3.786 3.787-.003.008-.002.008-.003.009-.002.008-.003.008-.002.008-.002.008-.002.008-.002.008-.002.008-.002.007-.002.008-.001.007-.001.007-.001.007-.001.007L4.373 3.45l.001-.007.001-.007.002-.007.001-.007.002-.008.001-.007.002-.008.002-.008.002-.008.003-.008.002-.008.002-.008.003-.008.003-.009.002-.008z"/><path id="_654544640" class="fil1" d="m5.27 3.75 3.786 3.786-.003.007-.002.007-.003.007-.003.007-.004.006-.003.006-.004.007-.004.006-.005.006-.004.005-.005.006-.005.005-.006.006L9 7.622l-.006.005-.006.004L5.2 3.845l.007-.005.005-.005.006-.005.005-.005.006-.005.004-.006.005-.006.004-.006.005-.006.003-.006.004-.006.003-.007.004-.006.003-.007.002-.007z"/><path id="_654545264" class="fil1" d="M5.201 3.845 8.988 7.63l-.006.004-.007.004-.006.004-.007.003-.006.004-.007.003-.008.002-.007.003-.008.002-.008.002-.008.001-.008.002h-.008l-.01.002H8.867L5.082 3.881h.018l.008-.001.009-.002h.008l.008-.002.008-.002.008-.003.007-.002.007-.003.007-.003.007-.003.007-.003.006-.004.006-.004z"/><path id="_654544592" class="fil1" d="m4.435 3.238 3.787 3.786-.01.026-3.786-3.786z"/><path id="_654544856" class="fil1" d="M4.426 3.264 8.212 7.05l-.001.004-.002.004-.001.004-.001.004-.002.003-.001.004-.001.004-.002.004-3.786-3.786.001-.004.002-.004.001-.004.001-.004.002-.004.001-.003.001-.004z"/><path id="_654545648" class="fil1" d="M4.415 3.295 8.2 7.08l-.001.004-.001.004-.002.003v.004l-.002.004-.001.003-.002.004v.004L4.404 3.324l.001-.003.001-.004.002-.004V3.31l.002-.004.001-.004.002-.003z"/><path id="_654545600" class="fil1" d="m5.08 3.88 3.787 3.787H8.848l-.007-.001-.006-.001-.007-.001-.006-.001-.007-.001-.006-.002-.007-.001-.006-.002-.007-.001-.007-.002-.006-.002-.007-.002-.006-.003-.007-.002-.007-.003-.006-.002-.007-.003-.007-.003-.006-.003-.007-.003-.006-.003-.007-.004-.007-.003-.006-.004-.007-.004-.006-.004-.007-.004-.006-.004-.007-.004-3.786-3.786.007.004.006.004.007.004.006.004.007.004.006.003.007.004.006.003.007.004.006.003.007.003.007.003.006.002.007.003.007.003.006.002.007.002.006.003.007.002.007.001.006.002.007.002.006.001.007.002h.007l.006.002h.007l.006.001h.006l.007.001h.006z"/><path id="_654545912" class="fil1" d="m4.871 3.808 3.786 3.786-.006-.004-.006-.005-.006-.004-.007-.005-.006-.004-.006-.005-.006-.005-.006-.005-.006-.005-.006-.005-.006-.005-.006-.005-.006-.006-.006-.005-.005-.006-.006-.006-.006-.005-.005-.006-3.787-3.786.006.005.006.006.005.006.006.005.006.006.006.005.006.006.006.005.006.005.006.005.006.005.006.005.006.005.006.004.006.005.007.004.006.005z"/><path id="_654545480" class="fil1" d="M4.373 3.449 8.16 7.235v.003l-.001.003V7.25l-.001.003V7.279L4.372 3.493V3.452z"/><path id="_654545552" class="fil1" d="M4.372 3.493 8.158 7.28v.003l.001.003v.003l.001.004v.003l.002.003v.003l.001.004-3.786-3.786-.001-.004v-.003l-.001-.003-.001-.004v-.003L4.372 3.5v-.003z"/><path id="_654545576" class="fil1" d="m4.377 3.519 3.786 3.786.001.004.001.003.001.004.001.004.001.004.002.004v.004l.002.004.001.004.002.004.001.004.002.004.001.004.002.005.001.004.002.004-3.786-3.786-.002-.005-.001-.004-.002-.004-.001-.004-.002-.004-.001-.004-.002-.004-.001-.004-.001-.004-.002-.004-.001-.004-.001-.004-.001-.004-.001-.004-.001-.004z"/><path id="_654545936" class="fil1" d="m4.398 3.583 3.786 3.786.004.01.004.009.004.01.004.009.004.009.004.009.004.008.003.009.004.008.004.007.003.007.003.007.003.006.003.005.003.005.002.004-3.787-3.786-.002-.004-.002-.005-.003-.005-.003-.006-.003-.007-.003-.007-.004-.008-.004-.008-.004-.008-.004-.009-.004-.008-.004-.01-.004-.009-.004-.01-.003-.009z"/><path id="_654545672" class="fil1" d="M4.475 3.724 8.261 7.51l.006.006.005.007.005.007.003.007.003.007.003.008.002.007.001.007.002.008v.028l-.001.007-.001.007-.001.006-.002.007-.001.006-.002.006-.002.005-.002.006-.002.005-.002.004-.002.005-.001.004-.002.003-.002.003-.001.003-.001.002L4.48 3.895v-.002l.002-.003.002-.003.001-.004.002-.003.002-.005.002-.004.002-.005.002-.006.002-.005.001-.006.002-.007.001-.006.002-.006v-.007l.001-.007v-.007l.001-.007v-.015l-.002-.007-.001-.007-.002-.008-.003-.007-.003-.007-.004-.007-.004-.007-.005-.007z"/><path id="_654545960" class="fil1" d="m4.24 3.9 3.786 3.786-.003-.004-.004-.003-.004-.003-.004-.004-.004-.004-.005-.004-.004-.005-.005-.004-3.786-3.786.005.004.004.004.005.005.004.004.004.003.004.004.004.003z"/><path id="_654546032" class="fil1" d="M4.022 3.696 7.81 7.482l-.003-.002-.003-.003-.004-.002-.003-.003-.004-.003-.003-.002-.004-.003-.004-.003-.004-.003-.004-.004-.004-.003-.004-.003-.004-.004-.004-.003-.005-.004-.004-.003-.005-.004-.004-.004-.005-.004-.005-.004-.005-.004-.004-.004-.005-.004-.005-.004-.005-.004-.005-.004-.005-.004-.005-.005-.005-.004-.004-.004-.005-.004-.005-.004-3.787-3.786.005.004.005.004.005.004.005.004.005.004.005.004.005.005.005.004.005.004.004.004.005.004.005.004.005.004.004.004.005.003.004.004.005.004.004.003.005.004.004.003.004.004.004.003.004.003.004.003.004.003.003.003.004.003.004.003.003.003.003.002.003.002z"/><path id="_654545384" class="fil1" d="M3.35 3.575 7.138 7.36h-.021l-.005.001h-.033l-.005.001h-.012L3.275 3.577h.035l.005-.001h.025l.006-.001z"/><path id="_654546440" class="fil1" d="m4.207 3.869 3.786 3.786v.001h-.001v.002L4.204 3.872V3.87l.001-.001z"/><path id="_654546800" class="fil1" d="m3.884 3.583 3.787 3.786-.001-.001-.001-.001h-.001l-.001-.001L3.88 3.578h.001v.001h.001v.001h.001v.001z"/><path id="_654546344" class="fil1" d="M3.575 3.556 7.36 7.342h-.003l-.003.001h-.006l-.004.001h-.003l-.003.001h-.006l-.003.001h-.003l-.004.001h-.006l-.003.001H7.31L3.524 3.562h.01l.003-.001h.003l.003-.001h.007l.003-.001h.003l.003-.001h.006l.003-.001h.004z"/><path id="_654546728" class="fil1" d="m3.524 3.562 3.787 3.786-.006.001H7.3l-.005.001H7.29l-.006.001H7.28l-.005.001h-.005L3.482 3.567h.011l.005-.001h.005l.006-.001h.005l.005-.001z"/><path id="_654546488" class="fil1" d="m3.88 3.579 3.786 3.786-.004-.003-.004-.004-.004-.003-.004-.003-.003-.004-.004-.003-.004-.003-.004-.004-3.786-3.786.004.003.003.004.004.003.004.003.004.004.004.003.004.003z"/><path id="_654546392" class="fil1" d="m3.849 3.552 3.786 3.786-.005-.004-.005-.004-.005-.005-.005-.004-.005-.004-.005-.004-.004-.004-.004-.003-.004-.004-.004-.003-.004-.004-.004-.003-.003-.002-.003-.003-.003-.003-.003-.002-3.786-3.786.003.002.003.003.003.002.003.003.004.003.003.003.004.004.004.003.005.004.004.004.005.004.004.004.005.004.005.004.006.005z"/><path id="_654546680" class="fil1" d="M3.783 3.496 7.57 7.282l-.002.002-.003.002-.003.002-.003.001-.003.002-.004.002-.003.001-.003.002-.004.001-.003.002-.004.002-.004.001-.004.002-.003.001-.004.002-.004.001-.004.001-.004.002-.005.001-.004.001-.004.002-.005.001-.004.001-.004.002h-.005l-.004.002-.005.001-.005.001-.004.001-.005.002h-.005l-.005.002L3.657 3.54h.005l.005-.002h.004l.005-.002.005-.001.004-.001.005-.002h.004L3.7 3.53l.004-.001.005-.002h.004l.004-.002.004-.002h.004l.004-.002.004-.002.004-.001.004-.002.004-.001.004-.002.003-.001.004-.002.003-.001.004-.002.003-.002.003-.001.003-.002.004-.002.002-.002.003-.001z"/><path id="_654546584" class="fil1" d="m3.657 3.541 3.786 3.787h-.005l-.003.001-.003.001H7.43l-.003.001h-.002l-.003.001h-.003l-.003.001h-.003l-.003.001h-.002l-.003.001H7.4l-.003.001L3.612 3.55h.005l.003-.001h.003l.003-.001h.003l.003-.001.003-.001h.002l.003-.001h.003l.003-.001h.003l.002-.001.003-.001z"/><path id="_654546176" class="fil1" d="m3.612 3.55 3.786 3.786-.005.001H7.39l-.005.002H7.38l-.005.001H7.37l-.004.001-.005.001-3.786-3.786h.004l.005-.001.005-.001h.004l.005-.002h.004l.005-.001z"/><path id="_654546224" class="fil1" d="m4.205 3.872 3.786 3.786-.003.005-.004.005-.003.006-.004.005-.004.005-.003.006-.004.006-.004.005-.005.006-.004.006-.004.006-.005.005-.004.006-.005.006-.005.006-.005.006-.004.006-.005.005-.005.006-.005.006-.006.006-.005.005-.005.006-.005.006-.005.005-.006.005-.005.006-.006.005-.005.005-.005.005-.006.005-.005.005-3.787-3.787.006-.004.005-.005.006-.005.005-.005.006-.006.005-.005.005-.005.006-.006.005-.005.005-.006.005-.006.005-.005.005-.006.005-.006.005-.006.005-.005.005-.006.005-.006.004-.006.005-.006.004-.006.005-.005.004-.006.004-.006.004-.006.004-.005.004-.006.004-.005.004-.006.003-.005.004-.005z"/><path id="_654546824" class="fil1" d="M3.482 3.566 7.27 7.353h-.012l-.003.001h-.011l-.004.001H7.23l-.003.001h-.011l-.004.001H7.21L3.423 3.571h.011l.004-.001h.011l.004-.001h.007l.004-.001h.007l.004-.001h.004z"/><path id="_654547208" class="fil1" d="M4.48 3.895 8.266 7.68l-.098.235L4.38 4.13z"/><path id="_654547256" class="fil1" d="M3.423 3.571 7.21 7.357H7.2l-.005.001H7.182l-.005.001H7.163l-.004.001H7.14l-.004.001-3.786-3.786H3.364l.004-.001H3.386l.005-.001H3.405l.004-.001h.01z"/><path id="_654547520" class="fil1" d="M3.877 4.104 7.663 7.89 7.66 7.89l-.004-.002-.003-.002-.003-.001-.003-.002-.003-.002-.003-.002-.003-.001-.003-.002-.002-.002-.003-.002-.002-.002-.003-.002-.002-.002-.002-.002-.002-.002-3.786-3.786.002.002.002.002.002.002.002.002.003.002.002.002.003.002.003.001.002.002.003.002.003.002.003.001.004.002.003.002.003.001z"/><path id="_654547472" class="fil1" d="m4.055 4.048 3.787 3.787-.006.004-.006.005-.005.004-.006.005-.005.004-.006.004-.006.003-.005.004-.006.004-.006.003-.006.003-.005.003-.006.003-.006.002-.005.002-.006.003-.006.001-.005.002-.006.002h-.006l-.005.002h-.011l-.006.001h-.011l-.005-.001-.006-.001-.005-.001-.005-.002-.006-.002-.005-.002-3.786-3.786.005.002.005.002.006.001.005.002h.005l.006.001h.027l.006-.002h.006l.005-.002.006-.002.006-.002.005-.002.006-.002.006-.003.005-.002.006-.003L4 4.089l.006-.004.005-.003.006-.004.006-.004.005-.004.006-.004.006-.004.005-.004.006-.005z"/><path id="_654546872" class="fil1" d="m4.381 4.13 3.787 3.786-.004.01-.005.01-.006.008-.006.008-.006.007-.008.007-.007.006-.008.005-.01.005-.008.005-.01.004-.009.004-.01.003L8.063 8l-.01.003-.01.002-.01.001-.009.002h-.01l-.009.002h-.026l-.009.001H7.942l-.006-.001h-.004l-.004-.001h-.003L4.138 4.222h.004l.004.001h.01l.006.001h.056l.01-.001.009-.001.01-.002.01-.001.01-.002.009-.003.01-.003.01-.003.009-.003.009-.004.009-.005.008-.005.008-.005.008-.006.007-.007.007-.007.006-.008.006-.009.004-.01z"/><path id="_654547544" class="fil1" d="M4.138 4.222 7.925 8.01h-.021l-.018-.002-.016-.004-.014-.006-.012-.006-.01-.008-3.786-3.786.01.007.011.007.014.005.016.004.019.002z"/><path id="_654547040" class="fil1" d="M3.275 3.577 7.06 7.363h-.005L3.268 3.577h.005z"/><path id="_654547064" class="fil1" d="m3.269 3.577 3.786 3.786v.001L3.27 3.578z"/><path id="_654547304" class="fil1" d="m3.27 3.578 3.785 3.786.002.006-3.786-3.786z"/><path id="_654547400" class="fil1" d="M3.27 3.584 7.058 7.37l.002.008.002.008.001.007.002.008.001.008.002.008.001.008.002.008.001.007.001.008.002.007v.007l.002.006v.006l.001.006.001.005L3.292 3.7v-.005l-.002-.006v-.006l-.002-.006v-.007l-.002-.007-.001-.008-.001-.007-.002-.008-.001-.008-.002-.008-.001-.008-.002-.008-.002-.008-.002-.007z"/><path id="_654547976" class="fil1" d="m3.292 3.699 3.786 3.786v.003l.001.004v.007l.001.004v.004l.001.005v.004L3.296 3.73V3.717l-.001-.004v-.004l-.001-.004v-.003z"/><path id="_654548192" class="fil1" d="m3.295 3.73 3.787 3.786v.01l.001.005v.005l.001.005.001.005v.006l.001.006.001.006v.006l.002.006v.006l.002.006v.007l.002.006.001.007.001.007.002.007.001.007.002.007.001.007.002.007.002.008.002.007.002.007.002.008.003.007.002.008.003.008.002.007.003.008.003.008L3.34 3.94l-.003-.008-.003-.008-.003-.008-.002-.007-.003-.008-.002-.007-.002-.008-.002-.007-.002-.008-.002-.007-.002-.007-.001-.007-.002-.007-.001-.007-.002-.007-.001-.007-.001-.007-.001-.006-.002-.007v-.006l-.001-.007-.001-.006-.001-.006v-.006l-.002-.005v-.011l-.002-.006v-.01l-.001-.004z"/><path id="_654548216" class="fil1" d="m2.94 3.608 3.787 3.786-.004-.003-.003-.003-.004-.002L2.93 3.599l.003.003.004.002z"/><path id="_654547880" class="fil1" d="m2.238 3.257 3.786 3.787-.002-.001-.002-.001-.002-.001-.003-.001-.002-.001-.003-.001-.004-.001-.003-.002h-.004l-.003-.002h-.004l-.005-.002-.004-.001-.004-.001-.005-.002h-.005L2.183 3.24l.005.001.004.001.005.002H2.2l.004.002.004.001.004.001.004.001.003.001.003.001.003.001.003.001.003.001.002.001.002.001z"/><path id="_654548264" class="fil1" d="m2.763 3.548 3.786 3.787h-.006l-.003-.001h-.01l-.003-.001-3.786-3.786h.016l.003.001z"/><path id="_654547928" class="fil1" d="m2.93 3.6 3.786 3.786-.005-.003-.005-.003-.005-.003-.004-.003-.004-.003-.004-.003-.004-.003-.004-.003-.003-.002-.003-.003-.003-.003-.003-.002-.003-.003-.002-.002-3.787-3.786.003.002.003.003.002.002.003.003.004.002.003.003.004.003.004.003.004.003.004.003.004.002.005.003.005.003z"/><path id="_654547592" class="fil1" d="m2.873 3.556 3.786 3.787h-.008l-.004-.001H6.638l-.004-.001h-.008L2.84 3.553h.008l.004.001H2.865l.004.001z"/><path id="_654548072" class="fil1" d="M2.84 3.554 6.626 7.34l-.02-.001-3.787-3.786z"/><path id="_654547640" class="fil1" d="M1.904 2.641 5.69 6.428l.001.002-3.786-3.785v-.002z"/><path id="_654547688" class="fil1" d="m2.82 3.553 3.786 3.786h-.008l-.004-.001h-.011l-.004-.001h-.007l-.003-.001h-.011l-.003-.001H6.55L2.763 3.548h.006l.003.001h.01l.004.001h.01l.004.001h.008l.004.001h.004z"/><path id="_654547808" class="fil1" d="m2.74 3.547 3.787 3.786-.001.004-.002.004-.002.005-.001.004-.002.005-.002.004-.002.005-.003.005-3.786-3.786.002-.005.002-.005.002-.005.002-.004.002-.005.002-.004.001-.004z"/><path id="_654548768" class="fil1" d="m2.183 3.24 3.786 3.786-.022-.005-3.786-3.786z"/><path id="_654548864" class="fil1" d="M2.161 3.235 5.947 7.02l-.012-.003L2.149 3.23z"/><path id="_654548528" class="fil1" d="m2.26 4.24 3.786 3.786h-.001v.001l-.001.001h-.001v.002h-.001l-.001.001H6.04L2.254 4.247v-.001h.001l.001-.002.001-.001.001-.001z"/><path id="_654548696" class="fil1" d="M2.254 4.246 6.04 8.032l-.007.005-.008.005-.009.005-.01.004-.01.004-.01.003-.011.002-.012.003-.012.002-.013.001-.013.001-.013.001H5.9l-.013.001h-.053l-.012-.001-.012-.001-.012-.001-.011-.001-.011-.001-.01-.001-.01-.001-.009-.001-.008-.001-.007-.001-.006-.001H5.72l-.004-.001h-.002L1.927 4.27h.003l.004.001h.005l.006.002h.007l.008.002h.009l.01.002h.01l.01.002h.012l.011.001.013.001h.012l.013.001h.066l.013-.001.013-.001.012-.002.012-.002.012-.002.012-.003.01-.003.01-.003.01-.004.009-.005.008-.005z"/><path id="_654548456" class="fil1" d="m1.927 4.27 3.787 3.786h-.005l-.002-.001h-.002l-.002-.001-.002-.001-.002-.001-.002-.002-3.786-3.786.002.001.002.001.002.001.002.001h.002l.002.001h.002z"/><path id="_654548840" class="fil1" d="M1.91 4.264 5.698 8.05l-.008-.005-.007-.006-3.786-3.786.007.006z"/><path id="_654548912" class="fil1" d="m2.149 3.231 3.786 3.787h-.002L2.147 3.23z"/><path id="_654548552" class="fil1" d="m2.147 3.231 3.786 3.786-3.786-3.786z"/><path id="_654548672" class="fil1" d="m2.147 3.231 3.786 3.786H5.93L2.144 3.23h.002v.001z"/><path id="_654548576" class="fil1" d="m2.144 3.23 3.787 3.787-.003-.001h-.003l-.003-.001-.002-.001h-.003l-.003-.001-.002-.001h-.003L2.123 3.224h.002l.003.001.003.001h.002l.003.001.003.001h.003z"/><path id="_654549272" class="fil1" d="m2.123 3.225 3.786 3.786h-.003l-.003-.001-.003-.001h-.003l-.003-.002h-.003l-.003-.001h-.002l-.003-.001-.003-.001h-.003l-.002-.002h-.003L5.869 7h-.002l-.003-.002-3.786-3.786h.002l.003.002h.003l.002.001h.003l.003.002h.003l.002.001h.003l.003.001.003.001h.003l.003.002h.003l.003.001z"/><path id="_654549728" class="fil1" d="M2.078 3.213 5.864 7h-.003l-.003-.001-.003-.001-.004-.001-.003-.001-.003-.001-.003-.001H5.84l-.003-.002h-.003l-.003-.002h-.003l-.003-.002h-.003l-.003-.002-.003-.001-3.786-3.786h.003l.003.002h.003l.003.002h.003l.003.002h.003l.003.002h.003l.003.002h.003l.003.002h.003l.003.001.004.001z"/><path id="_654549248" class="fil1" d="m2.029 3.198 3.786 3.786-.004-.001-.003-.001-.003-.002H5.8l-.003-.002-.003-.002H5.79l-.003-.002L2 3.187l.004.002.003.001.004.002h.003l.004.002.003.001.003.002z"/><path id="_654549368" class="fil1" d="m2.001 3.187 3.787 3.787-.004-.002h-.003l-.004-.002-.003-.001-.003-.001-.004-.001-.003-.001-.003-.001h-.004l-.003-.002h-.006l-.003-.001H5.736L1.95 3.174H1.959l.003.001h.003l.003.001h.003l.003.002h.004l.003.001.003.001.004.001.003.002h.003l.004.002z"/><path id="_654549344" class="fil1" d="M1.95 3.175 5.736 6.96h-.02l-.002.001H5.71l-.003.001h-.002l-.003.001-.003.001-.002.001h-.003l-.003.002-3.786-3.786.003-.001.002-.001.003-.001h.003l.002-.002h.006l.002-.001h.006l.003-.001h.011z"/><path id="_654549128" class="fil1" d="m1.906 3.182 3.786 3.786-.004.002-.004.002-.004.002-.005.003-.005.003-.005.003-.006.003-.005.004-3.786-3.786.005-.004.005-.003.006-.004.005-.003.004-.002.005-.003.004-.002z"/><path id="_654549296" class="fil1" d="M1.868 3.204 5.654 6.99l-.006.004-.006.004-.005.004-.006.004-.006.004-.005.005-.006.004-.005.004-.005.003-.004.004-.004.003-.004.003-.004.003-.002.002-.003.002-.002.001-3.786-3.786.002-.001.002-.002.003-.002.003-.003.004-.003.004-.003.005-.004.005-.004.005-.004.005-.004.006-.004.006-.004.005-.004.006-.004.006-.004z"/><path id="_654549464" class="fil1" d="m1.795 3.258 3.786 3.786v.001H5.58v.001h-.001l-.001.001L1.79 3.262h.001l.001-.001.001-.001z"/><path id="_654549704" class="fil1" d="m1.563 3.147 3.786 3.786v.001L1.562 3.148v-.001z"/><path id="_654549320" class="fil1" d="M1.663 3.25 5.45 7.037l-.002-.002L1.662 3.25z"/><path id="_654549584" class="fil1" d="m1.654 3.242 3.787 3.786-.005-.003-.005-.002-.005-.004-.005-.003-.005-.004-.004-.004-.005-.004-3.786-3.786.005.004.004.004.005.003.005.004.004.003.005.003z"/><path id="_657388536" class="fil1" d="m1.791 3.261 3.786 3.787-.005.003-.005.003-.005.003-.005.002-.005.002-.005.002-.005.002h-.005l-.004.001h-.005l-.005.001H5.51l-.004-.001h-.004l-.004-.002-.004-.001-.004-.001-.004-.002-.004-.002-.003-.001-.004-.002-.003-.002-.003-.002-.003-.002-.003-.002-.003-.002-.003-.002-.003-.002-.002-.002-.002-.002L1.663 3.25l.003.002.002.002.003.003.002.002.003.002.003.002.003.002.004.002.003.002.003.002.004.001.004.002.003.001.004.002h.004l.004.002h.005l.004.001h.004l.005.001H1.746l.005-.002h.005l.005-.002.005-.002.005-.002.005-.002.005-.003.005-.003z"/><path id="_657388440" class="fil1" d="m2.726 3.583 3.786 3.786-.01.02-.01.02-.012.021-.013.023-.015.024-.015.024-.016.025-.017.025-.018.026-.018.026-.018.026-.02.027-.018.026-.02.026-.019.026-.019.026-.019.025-.019.024-.018.024-.018.023-.017.022-.016.02-.016.02-.014.02-.014.016-.012.016-.012.014-.01.012-.008.01-.007.009-.005.006-.003.005-3.787-3.787.004-.004.005-.006.007-.009.008-.01.01-.012.011-.014.013-.016.013-.017.015-.019.016-.02.016-.02.017-.022.018-.023.018-.024L2.45 4l.019-.025.019-.026.02-.026.018-.026.02-.026.018-.027.019-.026.018-.026.017-.026.017-.025.017-.025.015-.025.014-.023.014-.023.012-.021.01-.021z"/><path id="_657388104" class="fil1" d="M3.036 4.163 6.822 7.95h-.001l-.002-.002h-.002l-.002-.001-.001-.001-.002-.001-.002-.002H6.81L3.023 4.155l.001.001.002.001.001.001.002.001.002.001.002.001h.001z"/><path id="_657388056" class="fil1" d="M3.323 4.125 7.109 7.91l-.007.01-.008.008-.008.008-.01.007-.01.006-.01.005-.01.004-.011.004-.012.003-.011.002L7 7.97l-.012.001h-.012l-.013.001H6.94l-.012-.002h-.011l-.012-.002-.01-.002-.01-.001-.01-.002-.01-.002-.007-.002-.008-.002-.007-.001-.006-.002-.005-.001-.004-.002h-.003l-.002-.001-3.787-3.787.003.001.003.001.004.001.005.002.006.001.007.002.007.002.009.002.009.002.01.001.01.002.01.002.011.001.012.001.011.001h.048l.012-.001.012-.002.012-.002.011-.003.012-.004.01-.004.01-.005.01-.006.01-.007.008-.008.008-.009z"/><path id="_657388080" class="fil1" d="m3.34 3.94 3.787 3.786.004.01.003.01.003.01.002.009.002.009.002.008v.009l.002.008v.036l-.002.006-.001.006-.001.006-.002.006-.001.005-.002.005-.002.005-.002.004-.002.004-.002.004-.003.004-.002.003-.002.004-.002.003-.002.002-.002.003-.002.002-.002.002-.002.002-3.786-3.786.002-.002.001-.002.002-.002.002-.003.003-.003.002-.003.002-.003.002-.003.002-.004.002-.004.003-.004.002-.005.001-.004.002-.005.002-.006.001-.005.002-.006v-.006l.002-.007V4.035l.001-.007v-.016l-.001-.008-.002-.008-.001-.009-.002-.009-.002-.009-.003-.01-.004-.01z"/><path id="_637657528" class="fil1" d="M3.662 2.557c.167-.012.342-.025.502.008a.733.733 0 0 1 .16.053.58.58 0 0 1 .233.201 1.156 1.156 0 0 1 .088.162v.001c.041.094.074.197.104.29.021.065.04.125.06.172a.523.523 0 0 0 .101.16.353.353 0 0 0 .108.082c.03.013.054.017.07.01a.024.024 0 0 0 .008-.004c.006-.006.01-.016.011-.03a.203.203 0 0 0-.01-.076c-.02-.165.112-.059.113-.059v.001a.196.196 0 0 1 .065.109.218.218 0 0 1-.005.113.187.187 0 0 1-.19.13.397.397 0 0 1-.209-.072.64.64 0 0 1-.257-.347 2.74 2.74 0 0 1-.032-.098 1.183 1.183 0 0 0-.103-.256 1.047 1.047 0 0 1-.04.123l-.004.008-.01.026a3.352 3.352 0 0 0-.02.06.717.717 0 0 0-.032.125.189.189 0 0 0 .004.07c.005.02.012.041.02.064.02.05.046.102.056.122.09.063.037.17.027.19l-.099.235c-.038.11-.214.095-.243.092-.117.006-.123-.087-.123-.102v-.003c.004-.09.14-.092.175-.09.03-.015.044-.091.05-.128a2.552 2.552 0 0 1-.033-.03.859.859 0 0 1-.152.18c-.059.05-.123.08-.178.055a.143.143 0 0 1-.044-.029.078.078 0 0 1-.025-.068v-.001a.118.118 0 0 1 .028-.058.321.321 0 0 1 .072-.06.312.312 0 0 0 .114-.192 8.594 8.594 0 0 1-.138-.113l-.004-.004a8.992 8.992 0 0 1-.031-.027l-.066-.056a.394.394 0 0 1-.126.045.994.994 0 0 1-.133.021 2.008 2.008 0 0 1-.173.013 3.216 3.216 0 0 1-.076.002h-.006v.001l.002.006a1.308 1.308 0 0 1 .024.146.782.782 0 0 0 .046.21c.042.11 0 .167-.018.185-.07.109-.286.039-.287.038a.038.038 0 0 1-.013-.007c-.079-.068.086-.17.115-.188a.28.28 0 0 0-.02-.056 1.324 1.324 0 0 0-.117-.204.346.346 0 0 1-.022-.04c-.014-.026-.03-.058-.05-.069a.258.258 0 0 1-.056-.043l-.033-.002-.02-.001a42.523 42.523 0 0 1-.08-.006.383.383 0 0 1-.014.036c-.093.2-.44.623-.467.656a.038.038 0 0 1-.005.007c-.07.063-.303.028-.327.024a.038.038 0 0 1-.016-.006c-.046-.03-.05-.062-.029-.095.037-.056.194-.095.231-.104h.005c.057-.019.079-.09.097-.146a2.853 2.853 0 0 0 .088-.336V3.58l.008-.04a1.198 1.198 0 0 1-.073-.283.27.27 0 0 0-.055-.017l-.022-.005-.012-.004h-.005l-.021-.006a1.88 1.88 0 0 1-.094-.027.695.695 0 0 1-.028-.01.165.165 0 0 0-.051-.013.104.104 0 0 0-.044.007.222.222 0 0 0-.038.022 1.167 1.167 0 0 0-.077.057c-.056.04-.103.011-.128-.01a.154.154 0 0 1-.009-.01.143.143 0 0 1-.037-.027.273.273 0 0 1-.026-.03.138.138 0 0 1-.029-.036c-.019-.02-.018-.076-.009-.08a.298.298 0 0 1 .042-.1l.01-.016c.004-.005.007-.01.007-.012a.104.104 0 0 0 .005-.026l.002-.025a.226.226 0 0 1 .01-.064.063.063 0 0 1 .012-.016.317.317 0 0 1 .04-.035 2.156 2.156 0 0 1 .072-.056.11.11 0 0 0 .022-.022.438.438 0 0 0-.069-.091c-.085-.11.212.03.199.04a.434.434 0 0 1 .108-.014.904.904 0 0 1 .14.01 6.34 6.34 0 0 1 .092.01 2.047 2.047 0 0 0 .13.01.393.393 0 0 0 .089-.007.493.493 0 0 1 .146-.023.345.345 0 0 1 .133.023l.012.004.017.006a.36.36 0 0 0 .209.009.905.905 0 0 0 .168-.048.657.657 0 0 1 .1-.028l.053-.01h.005a1.503 1.503 0 0 1 .22-.02 3.957 3.957 0 0 0 .122-.009h.013z"/></g></g><path d="M3.413 0a3.413 3.413 0 1 1 0 6.827 3.413 3.413 0 0 1 0-6.827z" style="fill:none"/><path class="fil3" d="M3.662 2.557c.32-.024.669-.05.888.253.09.124.15.307.2.461.02.066.04.126.06.173a.523.523 0 0 0 .1.16.353.353 0 0 0 .108.082c.03.013.054.017.07.01a.024.024 0 0 0 .008-.004c.006-.006.01-.016.011-.03a.203.203 0 0 0-.01-.076c-.02-.165.112-.059.113-.059v.001a.196.196 0 0 1 .065.109.218.218 0 0 1-.005.113.187.187 0 0 1-.19.13.397.397 0 0 1-.209-.072.64.64 0 0 1-.178-.18 1.01 1.01 0 0 1-.111-.265 1.183 1.183 0 0 0-.103-.256 1.79 1.79 0 0 1-.04.123c-.036.096-.074.202-.067.263.007.063.065.18.081.212.09.063.037.17.027.19l-.099.235c-.038.11-.214.095-.243.092-.117.006-.123-.087-.123-.102v-.003c.004-.09.14-.092.175-.09.03-.015.044-.091.05-.128a2.552 2.552 0 0 1-.033-.03.86.86 0 0 1-.152.18c-.059.05-.123.08-.178.055a.143.143 0 0 1-.044-.029.078.078 0 0 1-.025-.068v-.001a.118.118 0 0 1 .028-.058.321.321 0 0 1 .072-.06.312.312 0 0 0 .114-.192 3.326 3.326 0 0 1-.142-.117l-.097-.083c-.103.068-.392.08-.514.081l.002.007a1.308 1.308 0 0 1 .024.146.782.782 0 0 0 .046.21c.042.11 0 .167-.018.185-.07.109-.286.039-.287.038a.038.038 0 0 1-.013-.007c-.079-.068.086-.17.115-.188a.28.28 0 0 0-.02-.056 1.324 1.324 0 0 0-.117-.204.346.346 0 0 1-.022-.04c-.014-.026-.03-.058-.05-.069a.258.258 0 0 1-.056-.043 41.813 41.813 0 0 1-.132-.01c-.062.18-.453.658-.482.693a.038.038 0 0 1-.005.007c-.07.063-.303.028-.327.024a.038.038 0 0 1-.016-.006c-.046-.03-.05-.062-.029-.095.037-.056.194-.095.231-.104a.125.125 0 0 0 .005 0c.057-.019.079-.09.097-.146a3.492 3.492 0 0 0 .096-.378 1.198 1.198 0 0 1-.073-.284.411.411 0 0 0-.077-.022L2.15 3.23h-.002c-.061-.015-.098-.024-.146-.044a.165.165 0 0 0-.051-.012.104.104 0 0 0-.044.007.681.681 0 0 0-.115.08c-.064.044-.117 0-.137-.02a.206.206 0 0 1-.063-.058c-.084-.078-.016-.184.014-.232.004-.005.007-.01.007-.012.004-.006.005-.029.007-.05a.226.226 0 0 1 .01-.065.256.256 0 0 1 .074-.068.449.449 0 0 0 .072-.06.438.438 0 0 0-.069-.092c-.085-.11.212.03.199.04.08-.025.188-.012.297.001a.833.833 0 0 0 .262.008c.152-.042.22-.019.291.004.076.025.155.052.394-.033a1.37 1.37 0 0 1 .33-.056c.056-.002.119-.007.183-.012z"/><path d="M4.415 3.295a.547.547 0 0 0-.043.198c.007.063.065.18.081.212.09.063.037.17.027.19l-.099.235c-.038.11-.214.095-.243.092-.117.006-.123-.087-.123-.102v-.003c.004-.09.14-.092.175-.09.03-.015.044-.091.05-.128a2.552 2.552 0 0 1-.033-.03.86.86 0 0 1-.152.18c-.059.05-.123.08-.178.055a.143.143 0 0 1-.044-.029.078.078 0 0 1-.025-.068v-.001a.118.118 0 0 1 .028-.058.321.321 0 0 1 .072-.06.312.312 0 0 0 .114-.192 1.445 1.445 0 0 1-.06-.049c-.026-.02-.054-.045-.082-.068l-.097-.083c-.103.068-.392.08-.514.081l.002.007a1.308 1.308 0 0 1 .024.146.782.782 0 0 0 .046.21c.042.11 0 .167-.018.185-.07.109-.286.039-.287.038a.038.038 0 0 1-.013-.007c-.079-.068.086-.17.115-.188a.28.28 0 0 0-.02-.056 1.324 1.324 0 0 0-.117-.204.346.346 0 0 1-.022-.04c-.014-.026-.03-.058-.05-.069a.258.258 0 0 1-.056-.043 41.813 41.813 0 0 1-.132-.01c-.062.18-.453.658-.482.693a.038.038 0 0 1-.005.007c-.07.063-.303.028-.327.024a.038.038 0 0 1-.016-.006c-.046-.03-.05-.062-.029-.095.037-.056.194-.095.231-.104a.125.125 0 0 0 .005 0c.057-.019.079-.09.097-.146a3.492 3.492 0 0 0 .096-.378 1.198 1.198 0 0 1-.073-.284.411.411 0 0 0-.077-.022L2.15 3.23h-.002c-.061-.015-.098-.024-.146-.044a.165.165 0 0 0-.051-.012.104.104 0 0 0-.044.007.681.681 0 0 0-.115.08c-.064.044-.117 0-.137-.02a.176.176 0 0 1-.051-.044.26.26 0 0 1 .056-.064c.064-.05.133-.074.267-.069.133.005.237.05.317.104.079.054.232.203.282.223.05.02.094.089.247.094.154.005.262 0 .386-.02s.277-.03.381-.054c.104-.025.223-.05.317-.08s.129-.05.257-.054c.129-.005.292.005.292.005l.01.012z" style="fill:#f2934b"/><path class="fil5" d="M1.663 3.25a.155.155 0 0 1-.009-.008.143.143 0 0 1-.037-.028l.006.001c.033.03.053.023.068.005a.243.243 0 0 0 .022-.033c.014-.024.029-.048.051-.058a.007.007 0 0 1 .006.013c-.018.008-.032.03-.045.052-.007.013-.015.025-.023.035-.011.013-.023.021-.039.021zM1.573 3.163a.115.115 0 0 1-.022-.065c.003.007.008.014.014.01.011-.005.01-.028.015-.034.023-.025.034.074-.007.09z"/><path class="fil3" d="M5.21 3.527"/><path class="fil6" d="M1.618 2.917c.003.03.044.069.064.12-.027-.017-.063-.04-.087-.068a1.12 1.12 0 0 1 .01-.017c.004-.005.007-.01.007-.012a.104.104 0 0 0 .005-.026v.003zm.135-.2c.073.046.07.11.05.2-.009-.083.002-.142-.078-.177a.955.955 0 0 0 .028-.022zm-.073.057c.008.13.102.13.102.225 0 .021.002.062-.014.082.017-.127-.039-.132-.06-.159a.371.371 0 0 1-.067-.113.317.317 0 0 1 .04-.035zM3.286 2.91c-.043.118.017.495.057.578.04.083.061.11.057.004-.005-.107-.09-.327-.046-.454.044-.126.034.076.06.147.027.071.095.117.065.05-.03-.068-.07-.293-.031-.404.02-.055.052-.16.08-.265a2.255 2.255 0 0 1-.098.005l.002.039c.006.083-.104.183-.146.3z"/><path class="fil6" d="M3.206 2.607c-.011.119-.03.138-.057.26a.802.802 0 0 0-.019.36c.05.19.04.026.042-.016.003-.043.005-.16.025-.096s.066.108.051.028c-.035-.193.037-.276.104-.456a.388.388 0 0 0 .021-.11 1.503 1.503 0 0 0-.066.01.97.97 0 0 1-.045.174c-.027.087-.021-.044-.014-.164a1.042 1.042 0 0 0-.042.01z"/><path class="fil6" d="M3.113 3.36c-.056-.075-.04-.35.004-.52a.86.86 0 0 0 .026-.213l-.085.027a.356.356 0 0 1-.019.057c-.043.104.036.156-.03.306-.042.095-.077-.132-.033-.318a.407.407 0 0 0 .005-.026.576.576 0 0 1-.061.008c-.034.108-.018.235-.038.306-.038.137.057.168.057.363 0 .111-.029.164-.048.208l.064.003c.02-.051.05-.112.06-.16.02-.12-.028-.297.04-.002.014.062.009.12.003.168l.054.003c.01-.074.04-.158 0-.21zM2.769 3.458c.02-.066-.058-.313-.098-.387-.034-.139-.033-.094 0 .117.025.083.064.219.066.239.004.047.014.09.032.031zM2.713 2.795c.011-.053.03-.087.03-.14a.56.56 0 0 0-.055-.016v.312c.01.035.024.07.04.099.042.076-.03-.184-.015-.255z"/><path class="fil6" d="M2.772 2.664a2.109 2.109 0 0 1-.022.204c-.013.08.023.159.02.223-.004.065-.022.133.01.178a.257.257 0 0 1 .043.18c-.01.069.042-.002.058-.093.016-.09-.037-.22-.05-.33-.013-.11.006-.233.03-.343v-.001a.36.36 0 0 1-.089-.018zM3.424 3.269c-.041-.056-.073-.062-.033.021.023.049.029.161.032.28.02 0 .04-.002.06-.004-.002-.1-.02-.246-.059-.297zM3.53 3.509a.315.315 0 0 1-.006.053l.05-.006a.347.347 0 0 0 .004-.043c.004-.186-.048-.166-.048-.004zM3.208 3.516c-.029-.032-.05-.01-.02.058l.056.003a.158.158 0 0 0-.036-.061zM3.295 3.433a.346.346 0 0 1-.06-.175c-.015-.114-.041-.072-.043-.006-.004.173.047.235.083.325l.076-.002a.603.603 0 0 0-.056-.142zM2.763 3.548c.006-.048-.034-.029-.058.035h.021a.38.38 0 0 0 .015-.036l.022.001zM2.84 3.554a.3.3 0 0 0-.01-.03c-.008-.02-.01-.005-.01.029l.02.001zM4.645 2.982v.003-.003zM4.557 2.82c-.003.08-.011.188-.011.23 0 .082.045.196.1.246.033.015.032-.013 0-.08l-.003-.007a.479.479 0 0 1-.044-.322.756.756 0 0 0-.042-.068z"/><path class="fil6" d="M4.613 3.408c-.004-.094-.112-.327-.12-.401a.523.523 0 0 1 .035-.227.636.636 0 0 0-.043-.047c-.013.03-.026.058-.037.088-.028.078-.016.226.013.343l.018-.057c.05.086.077.172.103.256.01.033.02.066.032.098l-.001-.053z"/><path class="fil6" d="M4.241 2.91c-.042.118.018.495.057.578.04.083.061.11.057.004-.004-.107-.09-.327-.046-.454.044-.126.034.076.06.147a.17.17 0 0 0 .057.079 8.742 8.742 0 0 1 .008-.03c-.03-.067-.07-.292-.03-.403l.042-.134a.58.58 0 0 0-.064-.047c-.022.075-.105.161-.141.26z"/><path class="fil6" d="M4.161 2.598c-.01.127-.029.144-.057.269a.802.802 0 0 0-.019.36c.05.19.04.026.043-.016.002-.043.004-.16.024-.096s.066.108.052.028c-.036-.193.037-.276.103-.456a.343.343 0 0 0 .017-.069.634.634 0 0 0-.063-.026c-.006.044-.02.095-.043.17-.03.091-.02-.063-.013-.188a.79.79 0 0 0-.04-.009l-.004.033z"/><path class="fil6" d="M4.068 3.36c-.056-.075-.04-.35.004-.52a.833.833 0 0 0 .022-.284h-.072a.366.366 0 0 1-.028.155c-.043.104.036.156-.03.306-.041.095-.076-.132-.033-.318a.35.35 0 0 0 .004-.143H3.88a.184.184 0 0 1-.001.113c-.04.11-.021.245-.042.318-.038.137.057.168.057.363 0 .107-.026.16-.045.202l.031.027.004.004h.018c.02-.056.058-.127.068-.183.02-.12-.028-.296.04-.001.016.068.007.131.002.184.104 0 .08-.189.056-.223z"/><path class="fil6" d="M3.772 2.664a.262.262 0 0 1-.022-.108h-.03c.003.015.007.032.008.053.003.055-.01.178-.023.259-.013.08.023.159.02.223-.004.065-.022.133.01.178a.257.257 0 0 1 .043.18c-.01.069.042-.002.058-.093.016-.09-.037-.22-.05-.33-.013-.11.007-.233.03-.343a.582.582 0 0 0 .008-.127h-.041c.003.074.002.13-.011.108zM4.377 3.519c.008.22.038.344.02.064a.531.531 0 0 1-.02-.064zM4.38 3.269c-.042-.056-.074-.062-.034.021.015.031.023.09.027.159a.716.716 0 0 1 .032-.125.192.192 0 0 0-.026-.055zM4.163 3.516c-.046-.052-.018.103-.02.15.049-.07.085-.078.02-.15z"/><path class="fil6" d="M4.25 3.433a.346.346 0 0 1-.06-.175c-.015-.114-.041-.072-.043-.006-.005.25.093.34.237.51-.03-.072-.1-.267-.134-.33zM2.609 3.408c-.004-.094-.113-.327-.12-.401-.008-.074.004-.132.045-.26.04-.128.007.22.007.304 0 .081.046.195.1.245.034.015.033-.013 0-.08l-.003-.007a.479.479 0 0 1-.052-.276c.019-.112.048-.219.026-.3l-.001-.002a.494.494 0 0 0-.094.01c-.024.07-.052.123-.073.18-.045.122.011.418.075.493.092.107-.016.214.09.314-.005-.074.003-.146 0-.22z"/><path class="fil6" d="M2.237 2.91c-.043.118.017.495.057.578.04.083.061.11.057.004-.005-.107-.09-.327-.046-.454.044-.126.034.076.06.147.026.071.095.117.065.05-.031-.068-.07-.293-.031-.404.014-.039.034-.103.055-.175a.393.393 0 0 1-.08.006c-.026.072-.103.154-.137.249z"/><path class="fil6" d="M2.153 2.64c-.011.09-.028.117-.053.227a.832.832 0 0 0-.022.346l.045.012v-.014c.003-.043.005-.16.025-.096s.066.108.051.028c-.035-.193.037-.276.104-.456a.297.297 0 0 0 .009-.029 2.047 2.047 0 0 1-.067-.007c-.007.031-.018.067-.032.11-.024.075-.022-.013-.017-.115a6.34 6.34 0 0 0-.043-.006zM2.029 3.198a1.421 1.421 0 0 1 .038-.359.861.861 0 0 0 .027-.205.905.905 0 0 0-.08-.004.356.356 0 0 1-.024.081c.005.127.076.176-.037.303.02-.037.017-.053.018-.176 0-.032.004-.042-.012-.073-.012-.022-.028-.052-.023-.128a.27.27 0 0 0-.031.008 2.74 2.74 0 0 0-.021-.016.168.168 0 0 1-.01.04c-.006.018.032.078.025.118-.01.055-.062.089-.034.089a.032.032 0 0 1 0 .064c-.033 0-.03.003-.02.01.085.054.046.177.023.254a.222.222 0 0 1 .038-.022.104.104 0 0 1 .044-.007c.016 0 .033.005.051.012.01.004.019.008.028.01zM2.375 3.269c-.042-.056-.073-.062-.033.021.05.104-.008.239.06.33.059-.072.026-.28-.027-.351zM2.48 3.509c0 .02-.003.046-.009.074-.026.1 0 .08.05 0a.457.457 0 0 0 .008-.07c.004-.186-.048-.166-.048-.004zM2.302 3.583h.002V3.58h-.001z"/><path class="fil6" d="M2.183 3.24c-.013-.08-.033-.059-.039-.01l.003.001h.002l.012.004.022.005zM3.658 3.408c-.004-.094-.112-.327-.12-.401-.007-.074.004-.132.045-.26.041-.128.007.22.007.304 0 .081.046.195.1.245.021.024.02-.051-.002-.087a.479.479 0 0 1-.053-.276c.019-.112.048-.219.026-.3a.472.472 0 0 1-.012-.075l-.061.005c-.026.113-.066.18-.095.258-.045.122.011.418.075.493.042.049.046.15.044.236l.045-.009a1.734 1.734 0 0 0 0-.133z"/><path d="M1.854 2.883c.018-.008.038-.003.044.01.006.014-.004.032-.023.04-.018.008-.037.003-.043-.011-.006-.014.004-.031.022-.04z" style="fill:#fafafa"/><path class="fil5" d="M1.859 2.894a.015.015 0 0 1 .019.008.015.015 0 0 1-.008.02.015.015 0 0 1-.019-.009.015.015 0 0 1 .008-.019z"/><path d="M1.77 2.613s.058.027.094.073c.036.045.008.105.008.105s-.018-.036-.05-.082a.7.7 0 0 1-.052-.096z" style="fill:#ba5d17"/><path class="fil6" d="M1.888 2.859c-.085-.008-.086.087-.113.138.042-.037.039-.13.119-.115l-.006-.023z"/><path d="M1.85 2.953c.048.002.054-.028.073-.073-.03.033-.03.064-.08.054a.474.474 0 0 1 .006.019z" style="fill:#381b04"/><path class="fil6" d="M1.555 3.067c.004.002.011.012.014.023a.266.266 0 0 1-.007.058c-.02-.021-.018-.083-.007-.08z"/><path class="fil10" d="M3.836 3.948a.118.118 0 0 0-.028.058v.001a.078.078 0 0 0 .025.068c.01.01.025.02.044.029.055.024.12-.005.178-.056a.859.859 0 0 0 .15-.176c-.041-.068-.113-.12-.183-.175a.312.312 0 0 1-.115.19.321.321 0 0 0-.071.061zM3.001 3.708c.014.019.084.123.117.204a.28.28 0 0 1 .02.056c-.029.017-.194.12-.115.188a.038.038 0 0 0 .013.007s.217.07.287-.038c.018-.018.06-.075.018-.185a.782.782 0 0 1-.05-.241 1.308 1.308 0 0 0-.02-.115l-.002-.006a2.75 2.75 0 0 1-.157-.008 42.646 42.646 0 0 1-.22-.012l-.019-.002c.01.012.03.028.057.043.02.011.035.043.05.07A.346.346 0 0 0 3 3.708z"/><path class="fil6" d="m4.114 3.77.001-.015c.004-.178-.044-.167-.048-.023l.047.039zM4.26 3.745a.246.246 0 0 1 .005.11c-.015.059-.012.008-.013-.005 0-.012-.002-.049-.008-.029s-.02.033-.015.009c.01-.06-.012-.085-.032-.14a.119.119 0 0 1-.007-.034c.007-.03.014-.037.02.003.002.014.007.03.014.053.016.048-.009-.16.035.033zM4.273 3.913a.67.67 0 0 0-.006.183c.016.097.013.013.013-.009.001-.021.002-.081.008-.048.006.032.02.055.016.014-.011-.098.011-.14.032-.232.018-.082-.004-.085-.028.038-.014.074.009-.265-.035.053zM4.387 3.88a.289.289 0 0 0-.005-.05c-.015-.067 0-.054.028 0a.366.366 0 0 1 .004.047c.003.125-.027.112-.027.003zM4.44 3.793a.091.091 0 0 0-.006-.028c-.015-.037 0-.03.028 0 .003.01.004.02.004.026.003.069-.027.062-.027.002zM2.396 3.7a.246.246 0 0 1 .006.11c-.016.06-.013.009-.013-.004-.001-.013-.002-.05-.008-.03-.006.02-.02.034-.016.01.011-.06-.011-.085-.032-.14a.119.119 0 0 1-.006-.035c.007-.03.014-.037.02.003.002.014.006.03.014.054.015.048-.009-.16.035.032zM2.445 3.772c-.005.016 0 .05-.01.069-.04.068-.02.06.03.01a.423.423 0 0 0 .022-.05c.014-.04.015-.045.014-.063 0-.021.028-.06.018-.058a.202.202 0 0 0-.074.092zM2.576 3.748a.091.091 0 0 0-.005-.027c-.015-.037 0-.03.028 0 .003.01.004.02.004.026.003.068-.027.061-.027.001z"/></g></svg>