<svg xmlns="http://www.w3.org/2000/svg" xml:space="preserve" width="655.359" height="655.359" style="shape-rendering:geometricPrecision;text-rendering:geometricPrecision;image-rendering:optimizeQuality;fill-rule:evenodd;clip-rule:evenodd" viewBox="0 0 6.827 6.827"><defs><style>.fil2{fill:none}.fil1{fill:#fffffe;fill-rule:nonzero}</style></defs><path style="fill:#424242" d="M0 0h6.827v6.827H0z"/><g id="Layer_x0020_1"><path class="fil1" d="M2.875 2.781c-.025.016-.06.038-.1.066a1.813 1.813 0 0 0-.307.261.527.527 0 0 0-.126.207c-.064.259.116.967.15 1.1l.18.215h.001a.106.106 0 0 1 .022.045l.295.959c.112.04.376.132.423.132.048 0 .312-.092.423-.132l.298-.967.101.031-.102-.031a.106.106 0 0 1 .027-.044l.174-.209c.035-.132.215-.84.15-1.1-.055-.22-.407-.456-.532-.533a1.456 1.456 0 0 1-.537.113c-.174 0-.345-.038-.54-.113zm-.221-.109c.07-.048.127-.083.15-.096a.107.107 0 0 1 .102-.012c.19.079.35.118.509.118a1.3 1.3 0 0 0 .498-.114.107.107 0 0 1 .102.002l-.054.093.054-.092c.001 0 .587.335.676.692.082.33-.14 1.168-.156 1.225a.106.106 0 0 1-.022.044l-.182.218-.305.99a.107.107 0 0 1-.067.076l-.037-.1.036.1s-.448.163-.545.163c-.089 0-.477-.139-.537-.16a.107.107 0 0 1-.074-.072l.102-.031-.101.031-.307-.997-.176-.211a.106.106 0 0 1-.027-.048l.103-.028-.103.028c-.001-.002-.242-.887-.157-1.228a.73.73 0 0 1 .174-.297c.106-.118.24-.222.344-.294z"/><path class="fil1" d="M1.496.883a.106.106 0 0 0-.155.146c.12.129.254.238.388.319.094.056.188.1.28.128l-.17.461.1.037-.1-.037a.107.107 0 0 0 .076.14l.41.137c.01.19.071.346.12.468.025.067.047.12.048.147a.106.106 0 0 0 .212-.007c-.002-.064-.03-.133-.062-.217a1.19 1.19 0 0 1-.107-.457.107.107 0 0 0-.073-.113l-.033.102.033-.101-.386-.128.17-.467a.107.107 0 0 0-.082-.148L2.15 1.4l.015-.106a.9.9 0 0 1-.326-.128 1.65 1.65 0 0 1-.343-.282z"/><path class="fil1" d="M1.986.954a.107.107 0 0 0-.213 0v.31a.107.107 0 0 0 .213 0v-.31zM2.23 2.09a.106.106 0 0 0 .21.03c.01-.066.079-.178.164-.282.084-.103.178-.19.243-.214a.107.107 0 0 0-.071-.2c-.102.035-.23.15-.336.279-.107.13-.195.282-.21.387zM1.995 1.837a.107.107 0 0 0-.024-.212l-.276.032a.107.107 0 0 0 .024.211l.276-.031zM5.486 1.03A.106.106 0 0 0 5.33.882a1.65 1.65 0 0 1-.343.282.9.9 0 0 1-.326.128l.015.106-.015-.106a.107.107 0 0 0-.083.148l.171.467-.386.128.033.1-.034-.1a.107.107 0 0 0-.072.112 1.19 1.19 0 0 1-.107.457c-.033.084-.06.153-.062.217a.106.106 0 0 0 .212.007c.001-.026.022-.08.048-.147.049-.122.11-.279.12-.468l.41-.136a.107.107 0 0 0 .076-.14l-.1.036.1-.037-.17-.461c.092-.028.186-.072.28-.128.133-.081.267-.19.388-.319z"/><path class="fil1" d="M5.054.954a.107.107 0 0 0-.214 0v.31a.107.107 0 0 0 .214 0v-.31zM4.386 2.12a.106.106 0 0 0 .211-.03c-.015-.105-.103-.257-.21-.387-.106-.129-.234-.244-.336-.28a.107.107 0 0 0-.072.201c.065.023.16.111.244.214.085.104.154.216.163.282zM4.856 1.625a.107.107 0 0 0-.024.212l.276.031a.107.107 0 0 0 .024-.211l-.276-.032zM2.976 5.653a.053.053 0 0 0 .107 0c0-.02.03-.043.08-.064a.676.676 0 0 1 .25-.042c.1 0 .188.016.251.042.05.02.08.044.08.064a.053.053 0 0 0 .107 0c0-.067-.056-.125-.146-.162a.783.783 0 0 0-.292-.051.783.783 0 0 0-.292.051c-.09.037-.145.095-.145.162z"/><path class="fil1" d="M3.413 5.173c.061 0 .117.02.158.05a.171.171 0 0 1 .073.137.171.171 0 0 1-.073.137.264.264 0 0 1-.158.05.264.264 0 0 1-.157-.05.171.171 0 0 1-.074-.137c0-.054.028-.103.074-.137a.264.264 0 0 1 .157-.05zm.094.135a.157.157 0 0 0-.094-.028c-.037 0-.07.01-.094.028-.018.014-.03.033-.03.052 0 .02.012.038.03.052a.157.157 0 0 0 .094.028c.038 0 .07-.01.094-.028.02-.014.03-.033.03-.052 0-.02-.01-.038-.03-.052zM3.005 3.863c.023-.013.037-.043.04-.08a.271.271 0 0 0-.039-.149.271.271 0 0 0-.108-.11c-.033-.016-.065-.02-.089-.006a.067.067 0 0 0-.025.027.13.13 0 0 0-.014.052c-.004.045.013.1.041.15a.33.33 0 0 0 .073.09.14.14 0 0 0 .076.036.077.077 0 0 0 .045-.01zm.146-.072c-.006.072-.037.132-.094.164a.181.181 0 0 1-.105.024.245.245 0 0 1-.136-.06.437.437 0 0 1-.097-.12.39.39 0 0 1-.056-.21.234.234 0 0 1 .027-.095.173.173 0 0 1 .067-.069c.056-.032.125-.028.19.005.057.03.112.082.152.152.04.07.056.144.052.209z"/><ellipse class="fil2" transform="matrix(-1.16244 2.05132 -.90897 -.5151 3.92 3.69)" rx=".107" ry=".16" style="stroke:#fffffe;stroke-width:.106665;stroke-linecap:round;stroke-linejoin:round"/><path class="fil1" d="M2.2 3.344a.106.106 0 0 0 .035-.21.571.571 0 0 1-.476-.524.58.58 0 0 1 .53.244.57.57 0 0 1 .068.135.106.106 0 0 0 .201-.07.786.786 0 0 0-.922-.504.107.107 0 0 0-.09.098l.106.007-.106-.007a.792.792 0 0 0 .654.831zM4.592 3.134a.106.106 0 0 0 .035.21.785.785 0 0 0 .654-.831l-.106.007.106-.007a.107.107 0 0 0-.09-.098.791.791 0 0 0-.923.503.106.106 0 0 0 .201.071.57.57 0 0 1 .411-.367.58.58 0 0 1 .188-.012.577.577 0 0 1-.476.524z"/><path class="fil2" d="M0 0h6.827v6.827H0z"/></g></svg>