<svg xmlns="http://www.w3.org/2000/svg" xml:space="preserve" width="655.359" height="655.359" style="shape-rendering:geometricPrecision;text-rendering:geometricPrecision;image-rendering:optimizeQuality;fill-rule:evenodd;clip-rule:evenodd" viewBox="0 0 6.827 6.827"><defs><clipPath id="id0"><path d="M3.413 0a3.413 3.413 0 1 1 0 6.827 3.413 3.413 0 0 1 0-6.827z"/></clipPath><style>.fil1{fill:#b39ddb}.fil10,.fil4,.fil7{fill:#212d03;fill-rule:nonzero}.fil4,.fil7{fill:#283a05}.fil4{fill:#3b560a}.fil3,.fil5,.fil9{fill:#507211;fill-rule:nonzero}.fil3,.fil9{fill:#709721}.fil3{fill:#ddc187}</style></defs><g id="Layer_x0020_1"><path d="M3.413 0a3.413 3.413 0 1 1 0 6.827 3.413 3.413 0 0 1 0-6.827z" style="fill:#d1c4e9"/><g style="clip-path:url(#id0)"><g id="_637665136"><path id="_6559718561" class="fil1" d="m4.967 2.6 3.787 3.785v.001l.001.002.001.001.002.002v.002l.002.002-3.786-3.787-.001-.002-.002-.001v-.002l-.002-.001V2.6L4.967 2.6z"/><path id="_655971904" class="fil1" d="m4.844 2.712 3.787 3.786v.006l.001.003.001.004v.004l.002.005-3.787-3.787V2.73l-.001-.005v-.003l-.001-.004-.001-.002v-.003z"/><path id="_655971880" class="fil1" d="M5.064 2.455 8.85 6.24l.001.001.001.002.002.003.002.003.002.004.003.004.002.005-3.786-3.786-.003-.005-.002-.004-.002-.004-.002-.003-.002-.003-.001-.002-.001-.001z"/><path id="_655972048" class="fil1" d="M4.912 2.673 8.698 6.46l-.005-.004-.004-.004-.003-.004-.003-.003-.003-.002-.001-.002-.001-.001L4.89 2.652l.001.002.002.002.003.002.003.003.003.004.004.003z"/><path id="_655971688" class="fil1" d="m4.668 2.858 3.786 3.786v.002l.001.001.001.003v.002l.002.004v.003l.002.005-3.786-3.787-.001-.004-.001-.004-.001-.003-.001-.003v-.002l-.001-.002z"/><path id="_655971352" class="fil1" d="m4.676 2.982 3.786 3.786-.008.01-.006.008-.005.005-.004.004-.002.001h-.002L4.65 3.01h.002l.002-.002.004-.003.005-.006.006-.007z"/><path id="_655972144" class="fil1" d="M4.674 2.877 8.46 6.664l.001.006.002.006.001.007.002.008.001.008.001.008v.008l.001.008v.016l-.001.008-.001.007-.002.007-.003.007-.003.006-.005.005-3.786-3.786.004-.005.004-.006.002-.007.002-.007.002-.007V2.92l-.001-.008-.001-.007-.002-.008-.001-.007-.002-.007z"/><path id="_655972840" class="fil1" d="m2.177 2.785 3.786 3.787-.006-.006-.008-.005-3.786-3.786.008.005z"/><path id="_655972192" class="fil1" d="m2.619 2.546 3.786 3.786.009.009-3.787-3.786z"/><path id="_655972264" class="fil1" d="M4.848 2.733 8.635 6.52v.003l-.001.005-.002.005-.003.006-.003.007-.004.007-.005.008-.005.008-.005.01-.007.009-.006.01-.007.01-.008.01-.007.01-.008.01-.007.01-.008.01-.008.01-.008.01-.008.01-.007.01-.008.01-.007.008-.006.009-.007.008-.005.007-.006.007-.005.006-.004.005-.003.004-.003.003-.002.003-3.786-3.786.002-.003.002-.003.004-.005.004-.005.005-.006.005-.006.006-.008.006-.008.007-.008.007-.009.008-.009.007-.01.008-.01.008-.01.007-.01.008-.01.008-.01.008-.01.007-.011.007-.01.007-.01.007-.01.006-.009.006-.009.005-.008.005-.008.004-.008.003-.006.003-.006.001-.006.001-.004z"/><path id="_655972288" class="fil1" d="M4.974 2.608 8.76 6.395l.002.002v.004l.001.004v.018l-.001.007-.001.008-.002.008-.001.009-.002.008-.002.01-.002.01-.003.009-.003.01-.002.01-.003.01-.003.01-.003.009-.004.01-.003.008-.003.01-.003.008-.004.008-.003.007-.003.007-.004.006-.003.006-.003.005-.003.004-.003.003-.003.002L4.907 2.84l.003-.002.003-.003.003-.004.003-.005.003-.006.003-.006.004-.007.003-.008.003-.008.004-.008.003-.009.003-.01.003-.008.004-.01.003-.01.002-.01.003-.01.003-.01.002-.009.003-.01.002-.009.001-.009.002-.008.001-.009.002-.007V2.63l.001-.006V2.615l-.002-.004z"/><path id="_655972504" class="fil1" d="m5.04 2.75 3.787 3.787-.002.002h-.003l-.002-.002-3.786-3.786.001.002h.004z"/><path id="_655972240" class="fil1" d="m3.045 2.824 3.786 3.787h-.03l-.03.002-.03.001-.03.002-.03.001-.03.002-.028.002-.028.003-.028.003-.027.003-.027.004-.026.004-.025.004-.025.005-.024.006-.024.006-.022.007-.022.007-.02.008-.02.008-.019.01-.017.01-.017.01-.016.012-.014.013-.013.013-.013.014-.01.015-.01.016-.008.017-.007.018-.005.02L2.37 3.07l.005-.02.007-.017.008-.017L2.4 3l.01-.015.012-.014.014-.014.014-.012.016-.012.016-.01.018-.01.019-.01.02-.008.02-.008.022-.008.022-.006.023-.006.024-.006.025-.005.026-.004.026-.005.026-.003.028-.003.028-.003.028-.003.029-.002.029-.002.03-.002.03-.001.03-.001.03-.002z"/><path id="_655972384" class="fil1" d="m2.968 2.472 3.786 3.786.004.005.003.005.002.006v.012l-.002.007-3.786-3.787.002-.006v-.012l-.002-.006-.003-.005z"/><path id="_655972576" class="fil1" d="m3.133 2.546 3.786 3.786.006.006.005.007.005.008-3.787-3.787-.005-.007-.005-.007z"/><path id="_655972720" class="fil1" d="M3.306 2.575 7.093 6.36l.003.004.004.004.002.005-3.786-3.786-.003-.005-.003-.004z"/><path id="_655972744" class="fil1" d="M3.424 2.54 7.21 6.328l.007.007.006.012-3.786-3.787-.006-.01z"/><path id="_655973392" class="fil1" d="m3.692 2.485 3.786 3.786v.001l-.003.003-.005.005-.006.006-.008.007-.009.009-.01.01-.013.01-.013.013-.015.013-.016.014-.018.014-.019.015-.02.015-.02.015-.022.016-.023.016-.024.015-.025.016-.025.015-.027.014-.027.014-.028.014-.028.012-.029.012-.03.01-.03.01-.03.008-.03.007-.031.005-.031.004-.032.002-3.786-3.787.031-.002.032-.003.03-.005.031-.007.03-.008.03-.01.03-.01.029-.012.028-.013.028-.013.027-.014.026-.015.026-.015.025-.015.023-.016.023-.015.022-.016.021-.015.02-.016.019-.014.017-.015.016-.013.015-.013.014-.012.012-.011.01-.01.01-.01.008-.007.006-.006.004-.004.003-.003z"/><path id="_655973536" class="fil1" d="M2.934 3.234 6.72 7.021 2.932 3.235z"/><path id="_655973008" class="fil1" d="m2.215 2.958 3.787 3.786-.006-.005-.007-.004-.006-.004-.008-.004-.008-.003-.008-.002-.01-.001-3.786-3.787.01.002.008.002.008.003.007.004.007.004.007.004z"/><path id="_655973608" class="fil1" d="m2.37 3.07 3.786 3.786-.006-.002-.007-.002-.007-.001-.007-.001-.007-.001h-.028l-.008.002-.007.002-.007.002-.008.003-.007.004-.007.004-.008.005-3.786-3.786.007-.005.008-.004.007-.004.007-.003.008-.002.007-.002.007-.002h.008l.007-.001h.014l.007.001.007.001.007.002.006.002z"/><path id="_655973032" class="fil1" d="M2.933 3.235 6.72 7.02 2.932 3.234h.001z"/><path id="_655973320" class="fil1" d="m1.701 2.962 3.787 3.786-.011.017-.01.018-.01.019-.01.019-.01.019-.008.02-.008.02-.008.02-.008.02-.006.022-.006.021-.005.022-.005.022-.004.022-.003.022-.002.022-.002.023v.045l.002.023.003.023.003.023.005.022.006.023.007.023.008.023.01.022.01.023.013.022.014.022.015.022.016.022-3.786-3.786-.017-.022-.015-.022-.013-.022-.013-.022-.01-.023-.01-.022-.008-.023-.007-.023-.006-.023-.005-.023L1.59 3.4l-.002-.022-.002-.023v-.046l.002-.022.002-.022.003-.023.004-.022.004-.022.006-.021.006-.022.006-.02.007-.021.008-.02.009-.02.008-.02.01-.02.01-.018.01-.019.01-.018z"/><path id="_655973512" class="fil1" d="m1.698 3.648 3.786 3.786.003.004.003.003.003.004.003.003.003.004.003.003.003.004.003.003.003.003.003.004.003.003.003.004.004.003.003.004.003.003.004.003-3.787-3.786-.003-.003-.003-.004-.004-.003-.003-.003-.003-.004-.003-.003-.003-.004-.004-.003-.003-.004-.003-.003-.003-.004-.003-.003-.003-.004-.003-.003-.002-.004z"/><path id="_655972912" class="fil1" d="m2.21 3.977 3.785 3.787-.01.004-.009.004-.01.003-.01.003-.009.002-.01.002-.008.002-.01.001-.009.001-.009.001h-.049l-.007-.001-.007-.001-.007-.001-.006-.001-.006-.001-.006-.001-.005-.002h-.004L5.8 7.776h-.004l-.003-.002H5.79l-.002-.001h-.002L1.998 3.986h.003l.002.001.003.001.003.001.003.001.005.001.004.001.005.001.006.001.006.002h.006L2.05 4h.007L2.066 4h.007l.008.001H2.124l.009-.002.01-.001.009-.002.01-.002.009-.002.01-.003.009-.004.01-.003z"/><path id="_655972960" class="fil1" d="m2.137 4.068 3.787 3.786.006.006.006.006.005.006.005.006.004.006.004.006.003.007.002.006-3.786-3.787-.003-.006-.003-.006-.003-.006-.004-.006-.005-.006-.006-.006-.005-.006z"/><path id="_655973176" class="fil1" d="m2.173 4.116 3.786 3.787h-.007l-.003-.001h-.01L5.934 7.9h-.006L5.922 7.9h-.007l-.007-.001-.007-.001h-.007l-.008-.001h-.008l-.007-.002h-.016l-.007-.001H5.84l-.007-.001-.007-.001H5.813l-.005-.001h-.006l-.004-.001h-.013L2 4.102h.012l.005.001h.011l.006.001h.007l.007.001h.007l.007.001.008.001h.008l.007.001h.008l.008.001.007.001h.008l.007.001h.007l.007.001h.006l.006.001h.005l.005.001h.008l.003.001h.003z"/><path id="_655973896" class="fil1" d="M2 4.103 5.784 7.89l.001.002h.001l.002.003.002.002.002.002.002.003.003.004.003.004.003.004.004.004.003.005.004.005.003.005.004.006.004.005.003.006.004.006.003.006.004.007.003.006.003.006.003.007.002.006.003.007.001.006.002.006.001.007.001.006v.017L2.072 4.256V4.25l.001-.005v-.007l-.001-.006-.001-.006-.002-.006-.002-.007-.002-.006-.002-.006-.003-.007-.003-.006-.003-.007-.004-.006-.003-.006-.004-.006-.004-.006-.003-.005-.004-.006-.004-.005-.003-.005-.004-.005-.003-.004-.003-.005-.003-.003-.003-.004-.002-.003-.002-.002-.002-.003L2 4.106v-.002h-.002z"/><path id="_655973800" class="fil1" d="M2.072 4.256 5.86 8.042h-.002l-.002-.001-.002-.001-.003-.002-.004-.001-.004-.002-.004-.002-.005-.002-.006-.003-.006-.002-.006-.003-.006-.003-.007-.003-.007-.002-.007-.003-.007-.003-.007-.003-.007-.003L5.759 8l-.007-.003-.007-.003-.007-.002-.007-.003-.007-.002-.006-.003-.007-.002-.005-.001-.006-.002-.005-.001-.005-.001-.004-.001L1.899 4.19h.005l.004.001.006.002.005.001.006.002.006.002.007.002.007.003.007.002.007.003.007.003.007.003.007.002.008.003.007.003.007.003.007.003.007.003.007.003.006.003.006.002.006.003.005.002.005.003.005.002.004.002.004.001.003.002h.002l.002.001z"/><path id="_655974376" class="fil1" d="m1.756 4.164 3.787 3.787V7.95l-.003-.002-.003-.002-.005-.003-.005-.004-.006-.005-.008-.006-.008-.007-.008-.007-.01-.008-.01-.008-3.785-3.786.01.008.009.008.008.007.008.006.007.006.007.005.005.004.005.004.003.002.002.002z"/><path id="_655974256" class="fil1" d="m1.9 4.19 3.786 3.786v.004l.001.002v.002l.001.003.001.003v.004l.001.004.001.004v.004l.002.005v.01l.001.005v.006l.001.005v.012l.001.006V8.073l-.001.006v.006l-.002.006v.005l-.002.006-.001.006-.002.005-.002.006-3.787-3.786.002-.006.002-.005.002-.006.001-.006.001-.006.001-.006v-.006l.001-.006V4.24l-.001-.005-.001-.006v-.004l-.001-.005-.001-.005v-.004l-.002-.003v-.004l-.001-.003v-.003L1.9 4.195v-.002L1.9 4.192V4.19z"/><path id="_655973872" class="fil1" d="M3.506 4.094 7.292 7.88l-.003-.003-.003-.003-.002-.004-.003-.003L3.495 4.08l.002.004.003.003.003.004z"/><path id="_655974016" class="fil1" d="M3.495 4.08 7.28 7.867l-.002-.005-.002-.005v-.005l.001-.006.002-.005.003-.006.004-.005.005-.006.006-.005.007-.005.008-.006.009-.005.01-.004.01-.005.01-.004.013-.004.012-.003.013-.003.014-.003.015-.002.015-.001.016-.001h.033l.017.002.017.001.018.003.019.004.018.004.02.006.019.006.02.007L3.843 4.02l-.02-.007-.019-.007-.019-.005-.019-.004-.018-.004-.018-.003-.018-.002-.017-.001h-.048l-.015.002-.015.002-.014.003-.013.002L3.578 4l-.012.004-.01.004-.011.004-.01.005-.008.005-.008.005-.007.006-.006.005-.005.005-.004.006-.003.005-.002.006-.001.005v.006l.001.005z"/><path id="_655973944" class="fil1" d="m2.639 4.095 3.786 3.787h.02l.015.002h.019l.021.002.025.001.028.002.03.001.033.002.035.002.036.001.038.002.038.002.04.002.04.002.041.002.04.002.041.001.04.002.04.001.037.002h.037l.035.002h.033l.031.001h.113l.012-.002-3.786-3.786-.012.001-.016.001H3.4l-.033-.001-.035-.001-.037-.002h-.038l-.04-.002-.04-.002-.04-.002-.04-.001-.04-.002-.041-.002-.04-.002-.039-.002-.037-.002-.037-.002-.034-.001-.033-.002-.03-.002-.028-.001-.025-.002h-.022l-.018-.002h-.015l-.011-.001H2.64z"/><path id="_655973704" class="fil1" d="m3.433 4.306 3.786 3.786h-.003l-.002.001-.003.001h-.004l-.003.002h-.005l-.004.001-.006.002h-.005l-.006.002-.006.001-.006.002H7.16l-.007.002-.006.002-.007.001-.006.002-.007.001-.007.001-.006.002-.006.001-.006.001-.006.002H7.09l-.005.002-.005.001-.004.001-.004.001h-.004l-.003.001L3.28 4.34h.003l.003-.001.005-.001.004-.001.005-.001.005-.001.006-.002h.006l.006-.002.006-.001.006-.002.007-.001.006-.002.007-.001.006-.002h.007l.007-.002.006-.002.006-.001.006-.001.006-.002h.005l.005-.002h.005l.004-.002h.004l.004-.001h.002l.003-.001h.001l.002-.001z"/><path id="_655974304" class="fil1" d="M3.166 4.235 6.952 8.02l.006.006.006.005-3.787-3.786-.005-.006z"/><path id="_655973728" class="fil1" d="m2.974 4.136 3.787 3.787h-.002l-.002.002h-.001l-.001.001-.001.001h-.001L2.966 4.142h.002l.002-.002.003-.002z"/><path id="_655974088" class="fil1" d="m2.99 4.42 3.787 3.786-.004-.004-3.787-3.786z"/><path id="_655974880" class="fil1" d="m3.2 4.446 3.786 3.786v.005l.001.002v.007l.001.004v.004l.001.005v.01l.001.006v.037l-.001.007-.001.007-.001.006-.002.007-.001.006-.002.007-.002.006-.002.006-.003.006-.002.006-.004.005-.003.005-.004.005-3.786-3.786.004-.005.003-.005.003-.005.003-.006.003-.006.002-.006.002-.006.002-.007.001-.006.001-.007.001-.007.001-.006v-.007l.001-.007V4.468l-.001-.005v-.007L3.2 4.453v-.005L3.2 4.447v-.001z"/><path id="_655974904" class="fil1" d="m2.986 4.416 3.787 3.786-.034-.01-.033-.01-.03-.01-.03-.01-.03-.01-.026-.01-.026-.01-.025-.01-.023-.011-.023-.011-.02-.011-.02-.011-.02-.011-.017-.011-.016-.012-.016-.011-.014-.011-.013-.012L2.57 4.224l.013.011.014.012.015.011.017.011.017.011.02.012.019.01.021.011.022.011.024.011.024.01.026.011.027.01.029.01.03.01.03.01.033.01z"/><path id="_655974520" class="fil1" d="m3.89 4.017 3.787 3.786.005-.002.005-.003.004-.003.005-.003.005-.003.005-.004.005-.003.005-.003.004-.003.005-.004.005-.003.005-.003.004-.004.005-.003.005-.004.005-.003.004-.004.005-.004.005-.003.005-.004.004-.004.005-.004.005-.004.004-.004.005-.004.005-.004.004-.004.005-.005.005-.004.004-.004.005-.005.004-.004L4.042 3.9l-.005.004-.004.004-.005.005-.004.004-.005.004-.005.004-.004.005-.005.004L4 3.939l-.004.004-.005.004-.005.003-.004.004-.005.004-.005.004-.005.003-.004.004-.005.003-.005.004-.005.003-.004.004-.005.003-.005.004-.005.003-.005.003-.004.003-.005.003-.005.003-.005.003-.005.003-.005.003z"/><path id="_655974424" class="fil1" d="M3.844 4.02 7.63 7.806h.01l.003-.001h.011l.004-.001H7.677L3.89 4.016h-.024l-.003.001h-.01l-.003.001h-.005l-.001.001z"/><path id="_655974760" class="fil1" d="m3.359 4.492 3.786 3.786h-.003l-.002-.002h-.003l-.004-.002-.003-.002-.005-.001-.004-.002-.006-.002-.005-.002-.006-.002-.006-.002-.006-.003-.006-.002-.007-.002-.006-.002-.007-.003-.007-.002-.006-.002-.007-.002-.007-.002-.006-.002-.007-.001-.006-.002-.006-.001-.005-.001-.006-.001h-.005l-.004-.001h-.008L3.2 4.446h.017l.005.001.006.002h.006l.006.002.006.002.007.002.007.002.006.002.007.002.007.002.006.002.007.003.007.002.006.002.006.002.006.002.006.003.005.002.005.002.005.001.004.002.004.001.003.002h.003l.003.002h.002z"/><path id="_655974472" class="fil1" d="m3.279 4.34 3.786 3.785.001.002.001.001.002.002.002.002.003.003.003.003.003.004.003.004.004.004.004.005.004.005.004.005.004.005.004.006.004.006.004.006.004.006.004.006.004.007.003.006.004.006.003.007.002.006.003.006.002.006.001.007.001.006v.016l-.001.005-3.786-3.786v-.005l.001-.005V4.47l-.001-.006-.002-.006-.002-.006-.002-.006-.003-.007-.003-.006-.003-.006-.003-.007-.004-.006-.004-.006-.004-.006-.004-.006-.004-.006-.004-.006-.005-.005-.004-.005-.004-.005-.003-.005-.004-.004-.003-.004-.004-.004-.002-.003-.003-.003-.002-.002-.002-.002-.001-.002z"/><path id="_655974592" class="fil1" d="M3.415 4.27 7.2 8.058l.006.008.005.008.004.01.003.01-3.786-3.787-.003-.01-.004-.01-.005-.008z"/><path id="_655974712" class="fil1" d="m3.95 4.12 3.787 3.786.003.002.003.003.005.003.005.005.006.006-3.786-3.787-.006-.005-.005-.005-.005-.004-.004-.002-.002-.002z"/><path id="_655974784" class="fil1" d="m3.906 4.017 3.786 3.787h.017l.006.001h.006l.006.001.006.001.006.001.007.001.006.001.006.002.007.001.006.002.006.002.006.002.007.002.006.002.006.003.006.003.006.003.006.003.005.003.006.004.005.004.006.004.005.004.004.005-3.786-3.786-.005-.005-.005-.004-.005-.005-.005-.003-.006-.004-.006-.003-.005-.004-.006-.003-.006-.002-.006-.003-.007-.002-.006-.003-.006-.002-.006-.001-.007-.002-.006-.002-.006-.001-.007-.001-.006-.001-.006-.001-.006-.001h-.006l-.006-.001h-.006l-.006-.001h-.006z"/><path id="_655974976" class="fil1" d="m5.207 3.216 3.786 3.786-.106.043L5.1 3.26z"/><path id="_655975072" class="fil1" d="m5.158 3.148 3.786 3.787.005.006.005.006.005.007.005.006.005.006.004.007.005.006L5.19 3.192l-.004-.006-.004-.006-.005-.006-.005-.007-.005-.006-.005-.007z"/><path id="_655975576" class="fil1" d="M5.191 3.192 8.978 6.98l.003.004.003.005.002.004.003.003.001.003.002.002v.002L5.208 3.216l-.001-.002-.002-.002-.002-.003-.002-.003-.002-.004-.003-.005z"/><path id="_655975912" class="fil1" d="m4.992 3.23 3.786 3.787.005.005.004.006.004.006.004.006.003.007.004.006.003.006.002.006-3.786-3.787-.003-.005-.003-.006-.003-.007-.003-.006-.004-.006L5 3.242l-.005-.006z"/><path id="_655975504" class="fil1" d="m5.021 3.278 3.786 3.787.002.005.002.004.002.004.001.004.001.002.001.003v.001L5.03 3.302v-.004l-.002-.003-.001-.003-.002-.004-.002-.005z"/><path id="_655975336" class="fil1" d="m4.52 3.034 3.786 3.787.003.007.003.007.003.008.003.009.003.008.002.008.002.009.002.008v.008l.001.008v.008l-.001.007-.002.007-.002.006-.004.005-.004.005-3.786-3.786.004-.005.004-.005.002-.006.002-.007v-.031l-.002-.008-.002-.009-.003-.008-.002-.009-.003-.008-.003-.008-.003-.007z"/><path id="_655975312" class="fil1" d="M4.505 3.003 8.292 6.79v.002l.002.003.002.003.002.005.003.005.002.006.003.007L4.52 3.034l-.003-.006-.003-.006-.002-.005-.002-.005-.002-.004-.001-.002-.001-.002z"/><path id="_655975264" class="fil1" d="m4.668 2.993 3.786 3.786-.003.004-.004.003-.004.004-.004.003-.005.003-.004.004-.006.003-.005.003-.005.003-.006.003-.006.003-.005.003-.006.003-.006.003-.006.003-.005.002-.006.003-.005.002-.005.002-.006.002-.004.002-.005.002-.004.002-.004.001-.004.002-.003.001-.003.001h-.002l-.002.002h-.002L4.531 3.066h.002l.002-.001.003-.001.003-.001.003-.001.003-.002.004-.001.005-.002.004-.002.005-.002.005-.002.006-.002.005-.003.006-.002.005-.003.006-.002.006-.003.005-.003.006-.003.006-.003.005-.003.006-.003.005-.003.005-.004.005-.003.005-.003.004-.004L4.661 3l.004-.004z"/><path id="_655975768" class="fil1" d="M4.846 3.372 8.632 7.16l.002.004.002.005.001.004.002.003v.003l.001.002v.001h.001L4.855 3.395v-.002l-.002-.002V3.39l-.002-.004-.001-.004-.002-.004z"/><path id="_655975360" class="fil1" d="m4.529 3.153 3.786 3.786-.005.004-.006.002-.006.002-.005.001H8.28l-.006-.002-.006-.002-.005-.002-.006-.003-.005-.003-.006-.003-.004-.003-.005-.004-.005-.003-.003-.004-3.787-3.786.004.003.005.004.004.003.005.004.005.003.006.003.005.003.006.002.006.002.006.001h.017l.006-.002.005-.003z"/><path id="_655975408" class="fil1" d="M4.443 3.133 8.23 6.92h-.003l-.003.002-.003.001-.003.003-.004.002-.005.004-.005.003-.005.005-.005.004-.006.005-.006.005-.006.005-.006.006-.006.005-.006.006-.007.006-.006.005-.006.006-.006.005-.005.005-.006.005-.005.005-.005.005-.004.004-.004.004-.003.003-.003.003-.003.002-.001.002h-.001v.001L4.305 3.25l.001-.002.002-.001.002-.003.003-.002.004-.004.004-.003.004-.005.005-.004.005-.005.005-.005.006-.005.006-.006.006-.005.006-.006.006-.005.006-.006.007-.006.006-.005.006-.005.006-.005.005-.005.006-.005.005-.004.005-.004.004-.003.004-.003.004-.002.003-.002h.002l.002-.001z"/><path id="_655975456" class="fil1" d="m4.651 3.467 3.786 3.786.002.005.001.005.002.004v.004l.001.003.001.002v.001L4.658 3.493v-.004l-.002-.003V3.48l-.002-.004-.001-.005z"/><path id="_655976104" class="fil1" d="m4.359 3.24 3.786 3.786.001.006.002.007.001.007.001.008.002.008v.008l.001.008v.024l-.001.007-.001.007-.002.007-.003.006-.003.005-.004.004-3.787-3.786.004-.004.004-.006.002-.005.002-.007.002-.007v-.007l.001-.008v-.024l-.002-.008v-.008l-.002-.008-.001-.007-.002-.007z"/><path id="_655976392" class="fil1" d="m4.388 3.461 3.786 3.786.004.005.004.006.004.006.004.006.003.007.003.007.003.006.003.007.003.007.002.006.002.006L4.423 3.53l-.002-.006-.003-.006-.002-.007-.003-.007-.003-.007-.003-.007-.004-.006-.003-.007-.004-.006-.004-.005z"/><path id="_655976464" class="fil1" d="m4.423 3.53 3.786 3.786.001.004.002.003v.004l.002.002v.004l.001.001L4.43 3.548v-.001l-.001-.002v-.002l-.002-.003v-.003l-.002-.003z"/><path id="_655976488" class="fil1" d="m4.173 3.406 3.786 3.786v.045l-.002.008v.007l-.002.007-.002.007-.002.006-.003.005-.003.005-.004.004-.004.003-.004.002-3.787-3.786.005-.002.004-.003.004-.004.003-.005.002-.006.003-.006.001-.006.002-.007.001-.007V3.45l.001-.008v-.007l.001-.008v-.015z"/><path id="_655976656" class="fil1" d="m4.17 3.372 3.786 3.786v.006l.001.004v.005l.001.006V7.192L4.174 3.406V3.4l-.001-.006v-.006l-.001-.005v-.004l-.001-.003v-.002z"/><path id="_655976152" class="fil1" d="M4.146 3.505 7.933 7.29l-.005.001H7.92l-.004-.001-.005-.002-.004-.002-.004-.003-.004-.004-.004-.003-.004-.004-3.787-3.787.004.004.004.004.005.003.004.003.004.003.004.001.005.002h.008z"/><path id="_655976200" class="fil1" d="m4.429 3.548 3.786 3.786-.115.014L4.313 3.56z"/><path id="_655976224" class="fil1" d="M4.352 3.352 8.14 7.138l-.004.003-.004.002h-.016L8.11 7.14l-.004-.002-.005-.003-.004-.003-.005-.004-.004-.004-.004-.004-.004-.005L4.293 3.33l.005.005.004.004.004.004.005.003.004.004.004.003.005.002.004.002.005.001h.012l.004-.002z"/><path id="_655975984" class="fil1" d="M4.352 3.216 8.14 7.002v.004l.002.002v.004l.002.004v.005l.002.005-3.786-3.787-.002-.005V3.23l-.002-.004v-.004l-.001-.003-.001-.002z"/><path id="_655976272" class="fil1" d="m4.658 3.492 3.786 3.786-.132.04L4.525 3.53z"/><path id="_655976320" class="fil1" d="m5.03 3.302 3.787 3.786-.11.056-3.786-3.786z"/><path id="_655976944" class="fil1" d="M4.855 3.395 8.64 7.181l-.102.044L4.752 3.44z"/><path id="_655976992" class="fil1" d="m4.61 3.382 3.787 3.786.005.006.004.007.005.007.004.008.004.008.004.008.003.009.004.008.002.009.003.008.002.007-3.786-3.786-.002-.008-.003-.008-.003-.008-.003-.008-.003-.009-.004-.008-.004-.009-.004-.007-.005-.008-.005-.006z"/><path id="_655977064" class="fil1" d="m4.815 3.318 3.786 3.786.005.006.004.005.004.006.003.007.004.006.003.006.003.007.003.006.002.006-3.786-3.787-.003-.005-.002-.007-.003-.006-.004-.006-.003-.007-.004-.006-.004-.006-.004-.006z"/><path id="_655977208" class="fil1" d="m5.077 2.477 3.787 3.786.001.003.001.005.001.006.001.006V6.327l-.002.01v.01l-.002.011-.001.012-.002.011-.001.012-.002.011-.002.012-.002.011-.002.011-.002.011-.002.011-.002.01-.003.01-.002.01-.002.008-.002.008-.002.008-.002.006-.001.006-.002.005-.002.003-.001.003L5.04 2.75l.001-.003.002-.004.001-.004.002-.006.002-.006.002-.008.002-.008.002-.009.002-.009.002-.01.002-.01.003-.01.002-.012.002-.011.002-.012.001-.011.002-.012.002-.011.001-.012.002-.01.001-.012.001-.01.001-.01v-.01l.001-.01V2.49l-.002-.005-.001-.005z"/><path id="_655977040" class="fil1" d="m4.907 2.84 3.786 3.785-.002.001h-.003L4.902 2.838l.001.001h.002z"/><path id="_655977112" class="fil1" d="m5.279 3.35 3.786 3.787-.003.004-.003.004-.004.004-.004.004-.004.004-.005.005-.005.004-.006.005-.005.004-.007.005-.006.004-.007.005L9 7.194l-.008.005-.007.005-.008.005-.009.005-.008.005-.01.005-.009.006-.009.005-.01.005-.01.006-.01.005-.01.006-.011.005-.011.006-.011.006-.012.005-.011.006-.012.006-.012.005L5.025 3.51l.012-.006.012-.005.011-.006.011-.006.012-.005.01-.006.011-.006.01-.005.011-.006.01-.005.01-.005.01-.006.008-.005.01-.005.008-.005.008-.005.008-.005.008-.005.008-.005.007-.005.007-.005.006-.005.006-.004.006-.005.006-.004.005-.005.005-.004.004-.004.004-.004.004-.004.003-.004z"/><path id="_637664992" class="fil1" d="M5.077 2.477c.02.032-.022.252-.036.274-.02.03-.026-.19-.026-.19l.049-.106.013.022zm-.165.196c-.013-.01-.021-.02-.021-.02l.076-.054.007.01c.016.022-.038.212-.067.23-.024.015.028-.145.005-.166zm-1.98.561h.002-.002zm1.82-.418.092-.104a.5.5 0 0 0 .004.021c.006.034-.156.227-.172.249-.09.118.076-.166.076-.166zm-2.545-.174s.02-.021.059-.021c0 0 .075-.11.145-.047 0 0 .123-.122.216-.02 0 0 .067-.153.168-.06-.004-.078.207-.06.18.012 0 0 .124-.022.173.06 0 0 .145-.034.168.022 0 0 .094-.098.12-.029 0 0 .073-.047.1-.013 0 0 .083-.09.156-.06 0 0-.311.328-.647.338-.327.01-.626.037-.675.246a.119.119 0 0 0-.114.015s.009-.137-.093-.15c0 0 .084-.107 0-.16 0 0 .075-.093.044-.133zm-.46 1.061c-.339-.326-.065-.715-.046-.741-.114.183-.187.455-.003.686a.655.655 0 0 0 .05.055zm.462.274c-.103.048-.21.01-.21.01s.154.063.174.13c0 0-.157-.014-.174-.014 0 0 .083.093.073.153 0 0-.13-.06-.173-.066 0 0 .024.086 0 .143l-.143-.169s-.242-.177-.206-.278c.03-.081.206-.106.282-.11a1.065 1.065 0 0 0 .093.064c.083.051.179.098.284.137zm.765.16-.008.004s.156.042.211.105c0 0 .23-.053.256.06l-.154.033s.096.1.08.153c0 0-.122-.05-.16-.046 0 0 .02.11-.023.16 0 0-.15-.154-.19-.19-.368-.101-.499-.232-.502-.354a2.753 2.753 0 0 0 .49.074zM4.042 3.9a.684.684 0 0 1-.136.116c.058.002.141.017.18.083 0 0-.106.013-.136.02 0 0 .073.046.067.123 0 0-.123-.078-.173-.079 0 0 .066.095.02.145 0 0-.163-.134-.213-.145 0 0-.04-.01-.081-.03-.106.013-.535-.298-.568-.303.01 0-.372.265-.363.264 0 0 .81.046.918.033a.164.164 0 0 1-.062-.048c-.033-.05.14-.144.349-.06 0 0 .019-.003.047-.003a.786.786 0 0 0 .151-.116zm1.237-.55c-.028.04-.126.097-.254.16a.912.912 0 0 0 .254-.16zm-.18-.114c0-.037.001-.105.018-.114.017-.01.053.039.074.07l.016.023-.107.043v-.022zm-.18.097c-.003-.037-.002-.104.03-.118.032-.014.059.032.072.062l.01.024-.11.056s-.002-.01-.002-.024zm-.168.086c-.001-.035 0-.11.03-.118.028-.007.052.04.065.07a.328.328 0 0 1 .009.023l-.103.044V3.42zm-.223.092c.006-.041.024-.13.056-.14.03-.01.056.057.067.095a.46.46 0 0 1 .007.025l-.133.04.003-.02zm-.209.025c.01-.03.027-.08.048-.086.023-.005.045.049.056.079l.006.018-.116.013.006-.024zm-.146-.13c.001.036 0 .09-.027.098-.022.007-.046-.02-.063-.047-.014-.02-.023-.04-.023-.04l.11-.046.003.034zm.186-.168c.007.033.017.092-.007.113-.019.017-.046-.008-.066-.032-.016-.018-.027-.036-.027-.036l.093-.068.007.023zm.161-.205c.016.037.035.096.009.119-.028.023-.066-.002-.086-.02-.009-.008-.137.117-.137.117l.2-.247.014.031zm.148-.176.006.02c.008.03.018.089-.006.115a.453.453 0 0 1-.136.072l.052-.108.084-.099z"/></g></g><path d="M3.413 0a3.413 3.413 0 1 1 0 6.827 3.413 3.413 0 0 1 0-6.827z" style="fill:none"/><path class="fil3" d="M5.064 2.455s.07.106.05.136c-.02.03-.099-.03-.099-.03l.049-.106zM4.967 2.6s.067.084.03.107c-.036.023-.106-.054-.106-.054l.076-.054zM4.844 2.712s.024.108 0 .138c-.023.03-.092-.034-.092-.034l.092-.104zM4.668 2.858s.033.098 0 .135c-.033.037-.084-.036-.084-.036l.084-.099zM4.505 3.003s.063.116.024.15c-.04.033-.1-.034-.1-.034l.076-.116zM4.352 3.216s.034.106 0 .136c-.033.03-.093-.068-.093-.068l.093-.068zM4.17 3.372s.016.12-.024.133c-.04.013-.086-.087-.086-.087l.11-.046zM5.207 3.216s-.066-.107-.09-.093c-.023.013-.017.136-.017.136l.107-.043zM5.03 3.302s-.035-.106-.08-.086c-.046.02-.03.142-.03.142l.11-.056zM4.855 3.395s-.034-.103-.074-.093c-.04.01-.029.137-.029.137l.103-.044zM4.658 3.492s-.032-.133-.074-.12c-.042.013-.059.16-.059.16l.133-.04zM4.429 3.548s-.03-.104-.062-.097c-.031.007-.054.11-.054.11l.116-.013z"/><path class="fil4" d="M3.844 4.02s.18-.027.243.08c0 0-.107.013-.137.02 0 0 .073.046.067.123 0 0-.123-.078-.173-.079 0 0 .066.095.02.145 0 0-.163-.134-.213-.145 0 0-.123-.033-.156-.084-.033-.05.14-.144.349-.06z"/><path class="fil5" d="M5.077 2.365s.053-.12-.047-.14c-.1-.02-.14.047-.12.107 0 0-.086-.087-.159-.007a.1.1 0 0 0 0 .146s-.379.426-.664.532c0 0 .02-.186-.133-.16-.153.027-.12.16-.12.16s-.087-.12-.2-.086c-.113.033-.113.219-.113.219s-.06-.047-.126-.02-.093.102-.093.102-.084-.031-.155.062c-.062-.053-.155-.084-.213-.044 0 0-.133-.107-.23-.058 0 0-.146-.12-.244-.049 0 0-.106-.115-.204-.044 0 0 .009-.137-.093-.15 0 0 .084-.107 0-.16 0 0 .075-.093.044-.133 0 0-.195.026-.354.146-.16.12-.417.532-.155.86.261.328 1.01.545 1.675.483 0 0 .381.053.67-.23 0 0 1.085-.373 1.236-.55 0 0 .013-.157-.045-.17-.057-.012-.523.298-.74.338-.217.04-.558.01-.558.01s.24-.098.354-.214c.116-.115.28-.367.36-.42.08-.054.372-.289.456-.47l-.029-.06z"/><path d="M5.279 3.35s-.993.42-1.24.46c-.245.04-.498-.084-.498-.084s.143.136.35.146c0 0-.333.157-.458.158-.149.006-.227-.09-.227-.09s.028.096.063.13c0 0-.289.06-.814-.099-.526-.157-.995-.402-.753-1.01 0 0-.307.406.048.744.355.338 1.084.47 1.582.426 0 0 .43.082.71-.23 0 0 1.129-.393 1.237-.55z" style="fill:#364b08;fill-rule:nonzero"/><path class="fil4" d="M2.062 3.439s.376.232.263.428c-.113.196-.326.12-.326.12s.154.063.174.13c0 0-.157-.014-.174-.014 0 0 .083.093.073.153 0 0-.13-.06-.173-.066 0 0 .024.086 0 .143l-.143-.169s-.242-.177-.206-.278c.037-.102.306-.115.316-.109.01.007-.14-.146-.06-.312.08-.166.256-.026.256-.026z"/><path class="fil7" d="M1.866 3.777s.05.044.132.057c0 0-.115.04-.132-.057zM1.987 3.977s-.108 0-.154-.033c0 0 .087.098.154.033z"/><path class="fil4" d="M3.063 3.74c.057.034.163.17.1.244-.064.073-.197.157-.197.157s.156.042.211.105c0 0 .23-.053.256.06l-.154.033s.096.1.08.153c0 0-.122-.05-.16-.046 0 0 .02.11-.023.16 0 0-.15-.154-.19-.19-1.047-.287-.17-.818.077-.675z"/><path class="fil7" d="M2.966 4.141s-.123.031-.17-.022c0 0 .064.099.17.022z"/><path class="fil5" d="M3.097 3.724c.041.032.127.144.036.263-.092.118-.252.09-.338.066-.138-.037-.193-.176-.076-.276.118-.1.244-.156.378-.053zM2.047 3.428s.274.195.268.33c-.006.134-.143.11-.328.036-.184-.073-.238-.205-.218-.271.02-.067.043-.3.278-.095z"/><path d="M2.207 2.642s.02-.021.059-.021c0 0 .075-.11.145-.047 0 0 .123-.122.216-.02 0 0 .067-.153.168-.06-.004-.078.207-.06.18.012 0 0 .124-.022.173.06 0 0 .145-.034.168.022 0 0 .094-.098.12-.029 0 0 .073-.047.1-.013 0 0 .083-.09.156-.06 0 0-.311.328-.647.338-.336.011-.643.039-.679.263-.54.07-.217-.424-.159-.445z" style="fill:#445601;fill-rule:nonzero"/><path class="fil5" d="M2.298 2.754s-.014-.091.056-.104c.07-.014.083.046.083.046s-.05.068-.139.058zM2.48 2.705s.01-.137.146-.08c0 0-.046.098-.146.08zM2.64 2.638s.025-.133.151-.07c0 0-.03.11-.152.07zM2.827 2.62s-.015-.122.104-.072c0 0-.025.071-.104.072zM2.928 2.596s.052-.09.117-.03c0 0-.033.067-.117.03z"/><path class="fil9" d="M3.465 3.358s-.043-.063-.096-.04c-.054.024-.04.09-.04.09s.076.032.136-.05zM3.269 3.439s-.073-.067-.13-.055c-.056.011-.086.122-.086.122s.14.035.216-.067zM2.883 3.512s-.002-.159-.176-.06c0 0 .033.16.176.06zM2.61 3.434s.014-.085-.04-.099c-.052-.013-.115.05-.115.05s.013.067.063.08c.05.013.093-.03.093-.03zM2.346 3.334s-.011-.115-.051-.118c-.04-.004-.11.043-.11.043s.006.146.161.075zM2.082 3.19s.057-.078.033-.107C2.092 3.053 2 3.066 2 3.066s-.02.105.083.124zM1.998 3.003s.074-.134 0-.145c-.075-.011-.068.146 0 .145zM2.013 2.827s.082-.06.073-.099c-.009-.04-.1.012-.073.1z"/><path class="fil4" d="M3.152 3.282s-.14.102-.159.186c0 0 .042-.19.159-.186z"/><path class="fil10" d="M4.89 2.418s-.007-.105-.087-.048c0 0 .035-.024.088.048zM4.974 2.386s-.07-.099.041-.097c0 0-.071.014-.04.097z"/><ellipse transform="matrix(1.60214 -.73989 .7893 1.50185 3.736 3.152)" rx=".058" ry=".091" style="fill:#ffd180"/><ellipse transform="matrix(.61323 -.2832 .3021 .57484 3.797 3.144)" rx=".058" ry=".091" style="fill:#424242"/><path class="fil4" d="M3.302 3.22s-.097.082-.101.15c0 0 .007-.153.101-.15zM3.52 3.138s-.083.082-.076.15c0 0-.018-.153.076-.15zM2.934 3.234s-.159.102-.196.186c0 0 .08-.19.196-.186zM2.705 3.178s-.178.064-.232.138c0 0 .12-.167.232-.138zM2.46 3.13s-.186.032-.252.096c0 0 .146-.145.251-.097z"/><path class="fil5" d="M3.037 2.6s.072-.075.12-.001c0 0-.048.057-.12.002z"/><path class="fil5" d="M3.149 2.605s.088-.056.117.027c0 0-.06.044-.117-.027zM3.291 2.61s.068-.022.074.038c0 0-.048.019-.074-.038zM3.38 2.612s.04-.059.081-.014c0 0-.026.044-.081.014zM3.48 2.588s.03-.044.06-.01c0 0-.019.032-.06.01z"/></g></svg>