<svg xmlns="http://www.w3.org/2000/svg" viewBox="0 0 512 512" style="enable-background:new 0 0 512 512" xml:space="preserve"><style>.st3{fill:#b8e876}.st45{fill:#719c50}.st52{fill:#638547}.st59{fill:#bd5e44}.st91{fill:#e6a572}.st124{fill:#7eb058}.st150{fill:#b65339}.st365{fill:#372a2c}.st367{fill:#433335}.st368{fill:#2c2325}.st370{fill:#a85441}</style><g id="BULINE"><circle id="XMLID_1870_" cx="256" cy="256" r="256" style="fill:#eec82f"/></g><g id="Icons"><g id="XMLID_1733_"><g id="XMLID_1871_"><path id="XMLID_1981_" class="st45" d="M362 510.3c-.3.7-.6 1.4-1 2-1.1-.5-2.1-1-3.2-1.3-2.5-.8-5.1-1.2-7.9-1.2 3.9-.2 8 .2 12.1.5z"/><path id="XMLID_1982_" class="st124" d="M501.9 327.5c-12.1 41.8-34.6 79.1-64.5 109.1 0 .2-.1.3-.2.5-2.9 8.9-13.3 13.9-22.4 19.6-3 2.4-6 4.7-9.1 6.9-1.2.8-2.3 1.7-3.5 2.5-13.1 9.2-27.2 17.1-42 23.7-15.4 6.9-31.6 12.3-48.5 16.1-9.4-9-7.9-29.1-15.6-39.7-8-11.1-29.4-15.8-33.7-29.1-.5-1.5-.7-3.1-.8-4.7-.2-12 10.9-26.1 10.9-38.6v-1.3c-.8-13.9-14.2-29.6-10.2-42 2.4-7.4 10-12.1 17.7-16.7 3.6-2.2 7.3-4.4 10.4-6.8 2.2-1.7 4.1-3.5 5.6-5.6 1-1.4 1.9-2.9 2.6-4.6 1.3-3 2.3-6.4 3.2-9.9 1.5-6.1 2.7-12.6 5.1-18 .1-.3.3-.7.4-1 1.4-3.1 3.3-5.7 5.9-7.6.1 0 .1-.1.2-.1 3.1-2.2 6.9-3.1 11.1-3.4 7.9-.5 17 1.3 25.1 1h.5c2.6-.1 5.2-.5 7.5-1.2 2.4-.8 4.7-2 7-3.6 3.7-2.5 7.2-5.8 10.9-8.9 6.4-5.5 12.9-10.5 20.2-10.5 10.2 0 18.8 9.7 27.5 16.7.6.5 1.1.9 1.7 1.3.7.6 1.5 1.1 2.2 1.6 1.9 1.2 3.7 2.3 5.6 3 .3.2.7.3 1.1.4 2.3.7 4.7 1.1 7.3 1.2 7.3.4 15.6-1.1 23-1.1 3.3 0 6.5.3 9.3 1.2 1.7.5 3.3 1.3 4.7 2.4 11.2 8.1 9.1 29.9 17.2 41 1.9 2.4 4.1 4.4 6.6 6.2z"/><path id="XMLID_1963_" d="M427 393.8c0 14 14 30.1 10.3 42.8 0 .2-.1.3-.2.5-2.9 8.9-13.3 13.9-22.4 19.6-3.4 2.1-6.6 4.3-9.1 6.9-1.2.8-2.3 1.7-3.5 2.5-13.1 9.2-27.2 17.1-42 23.7-15.4 6.9-31.6 12.3-48.5 16.1-9.4-9-7.9-29.1-15.6-39.7-8-11.1-29.4-15.8-33.7-29.1-.5-1.5-.7-3.1-.8-4.7-.2-12 10.9-26.1 10.9-38.6v-1.3c-.8-13.9-14.2-29.6-10.2-42 2.4-7.4 10-12.1 17.7-16.7 3.6-2.2 7.3-4.4 10.4-6.8 2.2-1.7 4.1-3.5 5.6-5.6 1-1.4 1.9-2.9 2.6-4.6 1.3-3 2.3-6.4 3.2-9.9 1.5-6.1 2.7-12.6 5.1-18 .1-.3.3-.7.4-1 1.4-3.1 3.3-5.7 5.9-7.6.1 0 .1-.1.2-.1 3.1-2.2 6.9-3.1 11.1-3.4 7.9-.5 17 1.3 25.1 1h.6c4.3.1 8.8-.3 13.4-.7 8.4-.7 16.7-1 22.4 3.2 3.3 2.4 5.5 6.1 7.1 10.3.5 1.4 1 2.8 1.4 4.3 1.1 3.8 1.9 7.8 2.9 11.6 1.1 4.6 2.5 9.1 4.6 12.7.4.7.8 1.4 1.3 2 8 11.1 29.4 15.8 33.7 29.1 4.5 13-9.9 29.3-9.9 43.5z" style="fill:#688c4a"/><path id="XMLID_1949_" class="st45" d="M362 510.3c-.3.7-.6 1.4-1 2-1.1-.5-2.1-1-3.2-1.3-2.5-.8-5.1-1.2-7.9-1.2 3.9-.2 8 .2 12.1.5z"/><path id="XMLID_1950_" class="st124" d="M362.6 425.8c-2.7 11.5-11.2 24.1-11.2 35.5 0 9.1 5.4 19 8.9 28.5-15.4 6.9-31.6 12.3-48.5 16.1-18 4-36.7 6.1-55.9 6.1-11.3 0-22.4-.7-33.2-2.1-17.4-2.2-34.2-6.2-50.3-11.8-2.7-.9-5.4-1.9-8-2.9l-11.2-4.6c-9-3.9-17.7-8.4-26.1-13.3-19.6-11.5-37.6-25.5-53.4-41.5-.2-.5-.4-.9-.6-1.4-2.8-7.2-4.8-14.2-2.8-20.4.8-2.4 2-4.5 3.6-6.4 3.7-4.4 9.1-7.9 14.7-11.3 7.1-4.3 14.4-8.5 18.6-14.1 1.8-2.5 3.1-5.4 4.2-8.5 1.6-4.7 2.7-9.9 3.9-15 2.1-8.7 4.6-17 10.7-21.4 9.1-6.7 23.9-2.9 36.8-2.7 4.2.1 8.2-.2 11.7-1.4 4.4-1.4 8.7-4.5 12.9-8l4.5-3.9c5.9-5.1 11.8-10.2 18.2-12.3 2-.6 4-1 6-1 15.1 0 27 19.5 40.6 24.8.4.2.8.3 1.2.4 6.4 2.1 14.2 1.4 22 .8 4.4-.4 8.7-.7 12.8-.6 2.8.1 5.5.4 8 1.2 2.1.6 4 1.5 5.8 2.8 7.1 5.1 9.3 15.2 11.6 25.2.7 3 1.4 5.9 2.2 8.8.8 2.8 1.8 5.4 3 7.7.6 1.2 1.3 2.3 2 3.3 8.8 12.1 32.2 17.3 36.9 31.8 1.6 3.4 1.4 7.4.4 11.6z"/><g id="XMLID_1899_"><path id="XMLID_1907_" class="st45" d="M265.9 398.4c-10.4 12.2-9.9 36.7-22.9 44.7-13.4 8.3-35.2-3.3-50.2.4-15.1 3.6-29.2 23.8-44.8 22.6-15.4-1.2-26.3-23.2-40.8-29.2-.4-.2-.8-.3-1.2-.4-14.1-4.9-36.5 2.5-48.3-7.6-12.2-10.4-7.9-34.6-15.9-47.6-8.3-13.4-31.7-20.6-35.3-35.6-3.7-15.1 14-32.3 15.1-47.8 1.2-15.4-13.7-35-7.7-49.6 5.8-14.1 30-17.6 40.4-29.8 10.4-12.2 9.9-36.7 22.9-44.7 13.4-8.3 35.2 3.3 50.2-.4 15.1-3.6 29.2-23.8 44.8-22.6C187.6 152 198.5 174 213 180c14.1 5.8 37.3-2.3 49.5 8 11.9 10.1 8.1 33.3 15.3 46.5.2.4.4.7.6 1.1 8.3 13.4 31.7 20.6 35.3 35.6 3.7 15.1-14 32.3-15.1 47.8-1.2 15.4 13.7 35 7.7 49.6-5.8 14.1-30.1 17.6-40.4 29.8z"/><path id="XMLID_1906_" class="st3" d="M265.9 398.4c-10.4 12.2-9.9 36.7-22.9 44.7-13.4 8.3-35.2-3.3-50.2.4-15.1 3.6-29.2 23.8-44.8 22.6-15.4-1.2-26.3-23.2-40.8-29.2-.4-.2-.8-.3-1.2-.4-.2-.4-.4-.7-.6-1.1-8.3-13.4-31.7-20.6-35.3-35.6-3.7-15.1 14-32.3 15.1-47.8 1.2-15.4-13.7-35-7.7-49.6 5.8-14.1 30-17.6 40.4-29.8 10.4-12.2 9.9-36.7 22.9-44.7 13.4-8.3 35.2 3.3 50.2-.3 15.1-3.6 29.2-23.8 44.7-22.6 15.4 1.2 26.3 23.2 40.8 29.2.4.2.8.3 1.2.4.2.4.4.7.6 1.1 8.3 13.4 31.7 20.6 35.3 35.6 3.7 15.1-14 32.3-15.1 47.8-1.2 15.4 13.7 35 7.7 49.6-5.7 14-30 17.5-40.3 29.7z"/><path id="XMLID_1905_" class="st3" d="M308.5 287.8c-16.6 4.1-32-.6-34.5-10.6-2.5-9.9 9-21.3 25.5-25.4s34.5 10.6 34.5 10.6-8.9 21.3-25.5 25.4z"/><path id="XMLID_1904_" class="st45" d="M199.3 345.3c-12-12.2-15.7-27.9-8.4-35.1s22.9-3.1 34.9 9.1 8.4 35.1 8.4 35.1-23 3.1-34.9-9.1z"/><path id="XMLID_1903_" class="st52" d="M215.8 215.6c5.2 16.3 1.5 32-8.3 35.1-9.8 3.1-21.9-7.6-27-23.8s8.3-35.1 8.3-35.1 21.8 7.6 27 23.8z"/><path id="XMLID_1902_" class="st52" d="M122.4 268.6c15.3 7.7 23.9 21.3 19.3 30.4-4.6 9.2-20.7 10.4-36 2.7s-19.3-30.4-19.3-30.4 20.7-10.3 36-2.7z"/><path id="XMLID_1901_" class="st52" d="M141.5 159.3c3.1 16.8-2.5 31.9-12.6 33.8-10.1 1.9-20.8-10.2-23.9-27-3.1-16.8 12.6-33.8 12.6-33.8s20.8 10.2 23.9 27z"/><path id="XMLID_1900_" class="st52" d="M50.7 196.1c15.4 7.4 24.3 20.8 19.9 30.1-4.4 9.2-20.5 10.8-35.9 3.4-15.4-7.4-19.9-30.1-19.9-30.1s20.5-10.8 35.9-3.4z"/></g><g id="XMLID_1890_"><path id="XMLID_1898_" class="st45" d="M485.4 185.1c-4 14.8 6.4 35.8-1.6 47.9-8.2 12.6-31.7 11.5-43.2 20.7-11.6 9.3-15.6 32.5-29.5 37.8-13.8 5.3-32.1-9.3-47.2-8.6-.4 0-.8 0-1.2.1-14.2 1.5-30.5 17-44.9 13.1-14.8-4-20.9-26.7-33.1-34.7-12.6-8.2-35.8-4.9-45-16.4-9.3-11.6-1.1-33.6-6.4-47.5-5.2-13.8-26.1-24.7-26.9-39.7-.7-14.5 18.8-27.4 22.8-42.2 4-14.8-6.4-35.8 1.6-47.9C239 55.1 262.5 56.2 274 47c11.6-9.3 15.6-32.5 29.5-37.8 13.8-5.3 32.1 9.3 47.2 8.6 14.5-.7 31.3-17.2 46.1-13.2 14.4 3.9 20.6 25.5 32.1 33.9.3.3.6.5 1 .7 12.6 8.2 35.8 4.9 45 16.4 9.3 11.6 1.1 33.6 6.4 47.5 5.2 13.8 26.1 24.7 26.9 39.7.8 14.6-18.8 27.5-22.8 42.3z"/><path id="XMLID_1897_" class="st3" d="M485.4 185.1c-4 14.8 6.4 35.8-1.6 47.9-8.2 12.6-31.7 11.5-43.2 20.7-11.6 9.3-15.6 32.5-29.5 37.8-13.8 5.3-32.1-9.3-47.2-8.6-.4 0-.8 0-1.2.1-.3-.3-.6-.5-1-.7-12.6-8.2-35.8-4.9-45-16.4-9.3-11.6-1.1-33.6-6.4-47.5-5.3-13.8-26.1-24.7-26.9-39.7-.7-14.5 18.8-27.4 22.8-42.2 4-14.8-6.4-35.8 1.6-47.9C316 76 339.5 77.1 351 67.9c11.6-9.3 15.6-32.5 29.5-37.8 13.8-5.3 32.1 9.3 47.2 8.6.4 0 .8 0 1.2-.1.3.3.6.5 1 .7 12.6 8.2 35.8 4.9 45 16.4 9.3 11.6 1.1 33.6 6.4 47.5 5.2 13.8 26.1 24.7 26.9 39.7.8 14.5-18.8 27.4-22.8 42.2z"/><path id="XMLID_1896_" d="M477.3 72.2c-12.7 10.3-27.9 12.5-34.1 4.9-6.2-7.6-.9-22.1 11.7-32.4 12.7-10.3 34.1-4.9 34.1-4.9s.9 22.1-11.7 32.4z" style="fill:#9dd055"/><path id="XMLID_1895_" class="st45" d="M406.3 166.3c-15.3-5.7-25-17.7-21.6-26.9s18.6-12 33.9-6.4 21.6 26.9 21.6 26.9-18.6 12.1-33.9 6.4z"/><path id="XMLID_1894_" class="st52" d="M367.8 47.5c11.1 12 14.3 27.1 7.1 33.7-7.2 6.7-22 2.4-33.1-9.6-11.1-12-7.1-33.7-7.1-33.7s22-2.3 33.1 9.6z"/><path id="XMLID_1893_" class="st52" d="M308.6 131.4c16.3.4 29.3 8.7 29.1 18.4-.2 9.8-13.7 17.4-30 17s-29.1-18.4-29.1-18.4 13.7-17.4 30-17z"/><path id="XMLID_1892_" class="st52" d="M280.6 29.1c9.5 13.2 10.8 28.6 2.9 34.3-7.9 5.7-22.1-.4-31.6-13.6S249 15.5 249 15.5s22.1.4 31.6 13.6z"/><path id="XMLID_1891_" class="st52" d="M217.1 97.9c16.3.1 29.5 8.1 29.4 17.9s-13.3 17.6-29.6 17.6c-16.3-.1-29.4-17.9-29.4-17.9s13.3-17.7 29.6-17.6z"/></g><g id="XMLID_1872_"><path id="XMLID_1889_" class="st150" d="M351.2 327.3s41.6-1.5 64.4-13c2.2-1.1 5-1.1 7 .3.2.1.3.2.5.4 3 2.4 6.3 4.1 10.1 4.8 3.9.7 8.8 1.1 13.6.1 12.7-2.6 19.8-16.4 15-28.5l-.7-1.8-63 5.5-42.2 1.4-10.6 5.9-2.4 22.2 8.3 2.7z"/><g id="XMLID_1883_"><path id="XMLID_1888_" d="m482.7 255.4-2.2 5.4-9 22.4c-3.5 8.7-11.6 14.4-20.5 15.1-2.8.2-5.7 0-8.6-.8-11.9-3.4-19.3-15.3-17.1-27.4l4.2-23.8 1-5.8 52.2 14.9z" style="fill:#a87758"/><path id="XMLID_1887_" class="st365" d="M487.4 258.2c-.3 1.2-1.1 2.1-2.1 2.6s-2.2.7-3.4.4l-53.8-15.4c-2.4-.7-3.7-3.1-3-5.5 1.7-6 5.7-10.7 10.7-13.5 5-2.8 11.1-3.7 17.1-2l19 5.4c11.5 3.3 18.3 15 15.8 26.5-.1.6-.2 1-.3 1.5z"/><path id="XMLID_1886_" d="M487.4 258.2c-.3 1.2-1.1 2.1-2.1 2.6s-2.2.7-3.4.4l-1.4-.4-9 22.4c-3.5 8.7-11.6 14.4-20.5 15.1-7.2-5.3-11-14.4-9.4-23.6l4.2-23.8 1-5.8 40.8 11.7c0 .5-.1.9-.2 1.4z" style="fill:#b8815c"/><path id="XMLID_1885_" class="st367" d="M487.4 258.2c-.3 1.2-1.1 2.1-2.1 2.6s-2.2.7-3.4.4l-37.5-10.7c-2.4-.7-3.7-3.1-3-5.5.1-.5.3-.9.4-1.3 1.9-5.3 5.6-9.6 10.3-12.2 5-2.8 11.1-3.7 17.1-2l2.7.8c11.5 3.3 18.3 15 15.8 26.5-.1.5-.2.9-.3 1.4z"/><path id="XMLID_1884_" class="st368" d="m464.2 228.6-7.2-2.1 1.1-19.8c.1-2 2.1-3.4 4-2.8l7.3 2.1c1.8.5 2.7 2.4 2.1 4.1l-7.3 18.5z"/></g><path id="XMLID_1882_" class="st150" d="M355.8 39.8c5.2 11.7 5.1 37.1-6.6 42.3-11.7 5.2-30.7-11.6-35.9-23.3-5.2-11.7 0-25.5 11.8-30.8s25.5.1 30.7 11.8z"/><path id="XMLID_1881_" d="M347.2 51.9c2.9 6.6 2.9 20.8-3.7 23.7-6.6 2.9-17.2-6.5-20.1-13.1-2.9-6.6 0-14.3 6.6-17.2 6.5-2.9 14.2 0 17.2 6.6z" style="fill:#95402b"/><path id="XMLID_1880_" class="st91" d="M374.6 197.9s-4.6 137.7-63.7 181.7L280.6 301s22.5-68.7 29.5-80.3c7-11.6 50.5-63.4 50.5-63.4l14 40.6z"/><path id="XMLID_1879_" class="st59" d="m162.2 249.4 1.7 170.8S87 424.1 51.2 350.4c-17.8-36.7-18.3-79.4-2.5-117 15.7-37.2 31-91-22.2-72.3 0 0-5.6-45.6 29.4-68.7 33-21.7 78-11.2 98.3 22.7 14.5 24.3 22.5 65.3 8 134.3z"/><path id="XMLID_1878_" class="st59" d="M466.7 285.1c.8 12.5-10.1 23.4-24.4 24.3-7 .5-13.6-1.6-18.5-5.2-2.8-2.1-6.5-2.6-9.9-1.6-25.2 7.6-73.1 16.1-99.5-17.3 5 11.2 8.2 23.5 9.1 36.5 1.4 20.8-3.4 40.6-12.6 57.7l35.7-2.3c20.4-1.3 38 14.1 39.3 34.5l.2 3.5c.3 5-3.4 9.3-8.4 9.6l-152.1 10c-58.5 3.8-109.9-39.8-114.1-98.3-3.3-45.4 22.4-86 61.2-104.1 5.5-2.6 11.3-4.7 17.3-6.3 37.7-14.8 62.2-32.3 78-47.7l.1-.1c7.4-7.3 13.4-15.8 18-25 4.9-9.9 8.1-20.7 9.6-31.9 1.7-13 7.2-25.6 16.5-36.2 12.1-13.7 28.4-21.3 45.2-22.8 18-1.6 36.6 3.9 51.2 16.8 28.2 25 57.6 91.7 32.7 119.9-5.7 6.4-13.7 10.3-23 12.2-18.6 3.7-42.3-.6-63.2-8.6 0 0-.1 0-.2-.1-4.9-1.9-9.7-4-14.1-6.3 0 0-.2 3 .1 7.9 1.2 18.3 10.4 63 70.7 71.8 3.4.5 6.9-.6 9.2-3.2 4.4-4.9 11.1-8.3 18.7-8.8 14.1-.7 26.4 8.6 27.2 21.1z"/><path id="XMLID_1877_" class="st91" d="M328.7 169.6c4.7 10.6 14.6 23.1 26.3 33.3 20.9 8.1 44.6 12.4 63.2 8.6 14.7-20.1 13.2-62.2 3.7-83.6-11.5-25.7-41.6-37.3-67.4-25.8-25.7 11.6-37.3 41.8-25.8 67.5z"/><path id="XMLID_1876_" class="st370" d="M163.9 420.2S87 424.1 51.2 350.4c-17.8-36.7-18.3-79.4-2.5-117 15.7-37.2 31-91-22.2-72.3 0 0 5.1-11.3 14.3-22.3 27.5-32.9 80.1-2.5 65.2 37.7-22.3 59.9-50.7 182.3 57.9 243.7z"/><path id="XMLID_1875_" class="st370" d="M225.6 434.8c-58.5 3.8-109.9-39.8-114.1-98.3-3.3-45.4 22.4-86 61.2-104.1 5.5-2.6 11.3-4.7 17.3-6.3 37.7-14.8 62.2-32.3 78-47.7-3.3 3.8-142.6 159.9-42.4 256.4z"/><path id="XMLID_1874_" class="st365" d="M401 138.4c.5 7-3.6 13.3-9.7 15.9-1.7.7-3.5 1.2-5.4 1.3-8.9.6-16.6-6.2-17.2-15.1-.6-8.9 6.2-16.6 15.1-17.2 1.9-.1 3.8.1 5.5.6 6.3 1.8 11.2 7.5 11.7 14.5z"/><path id="XMLID_1873_" class="st367" d="M401 138.4c.5 7-3.6 13.3-9.7 15.9-6.4-1.8-11.3-7.5-11.7-14.5-.5-7 3.6-13.3 9.7-15.9 6.3 1.8 11.2 7.5 11.7 14.5z"/></g></g><circle class="st365" cx="446" cy="186.1" r="12.5"/><path id="XMLID_1734_" class="st368" d="M440.1 188.5c0-6.9 5.6-12.5 12.5-12.5h.8c-2.1-1.5-4.6-2.4-7.4-2.4-6.9 0-12.5 5.6-12.5 12.5 0 6.6 5.2 12.1 11.7 12.5-3.1-2.3-5.1-5.9-5.1-10.1z"/></g></g></svg>