<svg xmlns="http://www.w3.org/2000/svg" viewBox="0 0 300 300" xml:space="preserve"><path fill="#FFDA88" d="M75.99 51.32 59.543 270.716c0 6.002 5.504 10.858 11.5 10.858h136.521V51.32H75.99z"/><path fill="#FFE2A9" d="M75.99 270.716 92.436 51.32H75.99L59.543 270.716c0 6.002 5.504 10.858 11.5 10.858H87.49c-5.997 0-11.5-4.856-11.5-10.858z"/><path fill="#7FD3B9" d="M207.564 51.32v230.254h21.393c5.994 0 11.5-4.856 11.5-10.858v-6.558L207.564 51.32z"/><path fill="#BBEAD9" d="M207.564 51.32v230.254h5.482V86.794z"/><path fill="#FFDA88" d="M75.99 18.426h131.574V51.32H75.99z"/><path fill="#7FD3B9" d="M163.706 171.929C161.61 158.876 152.682 150 139.036 150c-13.647 0-22.574 8.876-24.67 21.929-10.965 0-16.447 8.727-16.447 16.902 0 8.829 7.161 15.992 15.989 15.992h50.256c8.828 0 15.989-7.163 15.989-15.992-.001-8.175-5.483-16.902-16.447-16.902z"/><ellipse fill="#7FD3B9" cx="103.401" cy="144.518" rx="7.311" ry="10.965"/><ellipse fill="#7FD3B9" cx="174.67" cy="144.518" rx="7.311" ry="10.965"/><ellipse fill="#7FD3B9" cx="125.33" cy="122.589" rx="7.311" ry="10.965"/><ellipse fill="#7FD3B9" cx="152.741" cy="122.589" rx="7.311" ry="10.965"/><path fill="#7FD3B9" d="M97.919 18.426h10.965V51.32H97.919zM136.294 18.426h10.965V51.32h-10.965zM174.67 18.426h10.965V51.32H174.67z"/><path fill="#FFE2A9" d="M75.99 18.426h16.447V51.32H75.99z"/><path fill="#BBEAD9" d="M108.883 188.831c0-8.175 5.482-16.902 16.447-16.902 1.799-11.205 8.66-19.284 19.188-21.362-1.737-.343-3.55-.567-5.482-.567-13.647 0-22.574 8.876-24.67 21.929-10.965 0-16.447 8.727-16.447 16.902 0 8.829 7.161 15.992 15.989 15.992h10.965c-8.829-.001-15.99-7.164-15.99-15.992zM101.573 144.518c0-4.594 1.892-8.523 4.569-10.151-.849-.514-1.77-.814-2.741-.814-4.034 0-7.311 4.915-7.311 10.965s3.277 10.964 7.311 10.964c.971 0 1.892-.3 2.741-.814-2.677-1.627-4.569-5.557-4.569-10.15zM172.842 144.518c0-4.594 1.893-8.523 4.569-10.151-.849-.514-1.77-.814-2.741-.814-4.034 0-7.311 4.915-7.311 10.965s3.277 10.964 7.311 10.964c.971 0 1.892-.3 2.741-.814-2.677-1.627-4.569-5.557-4.569-10.15zM150.913 122.589c0-4.594 1.892-8.523 4.569-10.151-.849-.514-1.77-.814-2.741-.814-4.034 0-7.311 4.915-7.311 10.965s3.277 10.965 7.311 10.965c.971 0 1.893-.3 2.741-.814-2.677-1.628-4.569-5.558-4.569-10.151zM123.502 122.589c0-4.594 1.892-8.523 4.569-10.151-.849-.514-1.77-.814-2.741-.814-4.034 0-7.311 4.915-7.311 10.965s3.277 10.965 7.311 10.965c.971 0 1.892-.3 2.741-.814-2.677-1.628-4.569-5.558-4.569-10.151z"/><g><path fill="#161616" d="M228.957 287.056h-21.394a5.48 5.48 0 0 1-5.482-5.482V51.32a5.482 5.482 0 0 1 5.062-5.466c2.805-.236 5.402 1.793 5.838 4.631l32.894 212.839c.043.273.064.557.064.835v6.558c0 8.855-7.776 16.339-16.982 16.339zm-15.911-10.964h15.911c3.151 0 6.018-2.564 6.018-5.375v-6.136l-21.929-141.896v153.407zM164.163 210.305h-50.256c-11.84 0-21.471-9.632-21.471-21.474 0-9.642 6.071-19.825 17.421-21.972 3.801-13.893 14.661-22.341 29.178-22.341 14.517 0 25.377 8.448 29.178 22.341 11.35 2.147 17.421 12.33 17.421 21.972.001 11.842-9.631 21.474-21.471 21.474zm-25.127-54.823c-10.472 0-17.491 6.312-19.258 17.314a5.48 5.48 0 0 1-5.413 4.615c-8.673 0-10.965 7.469-10.965 11.419 0 5.793 4.714 10.51 10.507 10.51h50.256c5.793 0 10.507-4.717 10.507-10.51 0-3.951-2.291-11.419-10.965-11.419a5.48 5.48 0 0 1-5.413-4.615c-1.766-11.002-8.785-17.314-19.256-17.314z"/><path fill="#161616" d="M103.401 160.964c-7.174 0-12.793-7.222-12.793-16.447 0-9.225 5.619-16.447 12.793-16.447 7.174 0 12.793 7.222 12.793 16.447 0 9.225-5.619 16.447-12.793 16.447zm-.15-21.95c-.262.23-1.678 2.211-1.678 5.504 0 3.292 1.416 5.273 1.978 5.504.262-.23 1.678-2.211 1.678-5.504 0-3.293-1.416-5.274-1.978-5.504zM174.67 160.964c-7.174 0-12.793-7.222-12.793-16.447 0-9.225 5.619-16.447 12.793-16.447 7.174 0 12.793 7.222 12.793 16.447 0 9.225-5.619 16.447-12.793 16.447zm-.15-21.95c-.262.23-1.678 2.211-1.678 5.504 0 3.292 1.416 5.273 1.978 5.504.262-.23 1.678-2.211 1.678-5.504 0-3.293-1.416-5.274-1.978-5.504zM125.33 139.036c-7.174 0-12.793-7.222-12.793-16.447s5.619-16.447 12.793-16.447c7.174 0 12.793 7.222 12.793 16.447s-5.619 16.447-12.793 16.447zm-.15-21.951c-.262.23-1.678 2.211-1.678 5.504 0 3.293 1.416 5.273 1.978 5.504.262-.23 1.678-2.211 1.678-5.504 0-3.293-1.416-5.274-1.978-5.504zM152.741 139.036c-7.174 0-12.793-7.222-12.793-16.447s5.619-16.447 12.793-16.447c7.174 0 12.793 7.222 12.793 16.447s-5.619 16.447-12.793 16.447zm-.15-21.951c-.262.23-1.678 2.211-1.678 5.504 0 3.293 1.416 5.273 1.978 5.504.262-.23 1.678-2.211 1.678-5.504 0-3.293-1.416-5.274-1.978-5.504z"/><path fill="#161616" d="M207.564 287.056H71.043c-9.206 0-16.982-7.485-16.982-16.34l1.258-16.966c.222-3.014 2.813-5.306 5.876-5.054a5.482 5.482 0 0 1 5.057 5.878l-1.242 16.554c.016 2.398 2.883 4.963 6.034 4.963h131.038V56.802H81.076L67.895 232.646a5.482 5.482 0 0 1-10.933-.824L70.523 50.907a5.48 5.48 0 0 1 5.466-5.07h131.574a5.48 5.48 0 0 1 5.482 5.482v230.254a5.48 5.48 0 0 1-5.481 5.483z"/><path fill="#161616" d="M207.564 56.802H75.99a5.48 5.48 0 0 1-5.482-5.482V18.426a5.482 5.482 0 0 1 5.482-5.482h76.752a5.482 5.482 0 0 1 0 10.964h-71.27v21.929h120.609V23.908H174.67a5.482 5.482 0 0 1 0-10.964h32.893a5.483 5.483 0 0 1 5.482 5.482V51.32a5.48 5.48 0 0 1-5.481 5.482z"/><path fill="#161616" d="M97.919 18.426h10.965V51.32H97.919zM136.294 18.426h10.965V51.32h-10.965zM174.67 18.426h10.965V51.32H174.67z"/></g></svg>