<svg xmlns="http://www.w3.org/2000/svg" viewBox="0 0 128 128" style="enable-background:new 0 0 128 128" xml:space="preserve"><path style="fill:#434544" d="M55.161 86.492a7.978 7.978 0 0 1-5.657-2.339 7.921 7.921 0 0 1-2.068-3.588 7.93 7.93 0 0 1-3.588-2.068c-3.119-3.119-3.119-8.194 0-11.313a7.976 7.976 0 0 1 9.11-1.559l12.666-12.666a7.977 7.977 0 0 1 1.559-9.11c3.119-3.119 8.194-3.119 11.313 0a7.921 7.921 0 0 1 2.068 3.588 7.93 7.93 0 0 1 3.588 2.068c3.119 3.119 3.119 8.194 0 11.313a8.012 8.012 0 0 1-9.409 1.405l-12.52 12.521a8.012 8.012 0 0 1-1.405 9.409 7.978 7.978 0 0 1-5.657 2.339zm-5.658-18.657a4.99 4.99 0 0 0-3.535 1.468c-.944.944-1.464 2.2-1.464 3.536s.52 2.591 1.464 3.536a4.992 4.992 0 0 0 2.933 1.425l1.153.146.146 1.153a4.994 4.994 0 0 0 4.961 4.397 4.97 4.97 0 0 0 3.536-1.464 5 5 0 0 0 .425-6.578l-.807-1.044 16.094-16.094 1.044.807a5.002 5.002 0 0 0 6.579-.425c.944-.944 1.464-2.2 1.464-3.536s-.52-2.591-1.464-3.536a4.992 4.992 0 0 0-2.933-1.425l-1.153-.146-.146-1.153a4.994 4.994 0 0 0-4.961-4.397 4.97 4.97 0 0 0-3.536 1.464 4.976 4.976 0 0 0-.573 6.375l.719 1.031-16.074 16.074-1.031-.719a4.949 4.949 0 0 0-2.841-.895z"/></svg>