<svg xmlns="http://www.w3.org/2000/svg" xml:space="preserve" width="655.359" height="655.359" style="shape-rendering:geometricPrecision;text-rendering:geometricPrecision;image-rendering:optimizeQuality;fill-rule:evenodd;clip-rule:evenodd" viewBox="0 0 6.827 6.827"><defs><clipPath id="id0"><path d="M3.413 0a3.413 3.413 0 1 1 0 6.827 3.413 3.413 0 0 1 0-6.827z"/></clipPath><style>.fil1{fill:#c0ca33}.fil6{fill:#1c181c;fill-rule:nonzero}.fil3,.fil4,.fil5{fill:#212121;fill-rule:nonzero}.fil3,.fil4{fill:#2a2a2a}.fil3{fill:#383839}</style></defs><g id="Layer_x0020_1"><path d="M3.413 0a3.413 3.413 0 1 1 0 6.827 3.413 3.413 0 0 1 0-6.827z" style="fill:#dce775"/><g style="clip-path:url(#id0)"><g id="_637654432"><path id="_4605977361" class="fil1" d="m3.725 2.12 3.786 3.787v.004l.001.005.001.005v.005l.001.005v.005l.001.004.001.005v.005l.002.005v.005l.001.004.001.005.001.005.001.004.001.005-3.786-3.786-.001-.005-.001-.005-.001-.004-.001-.005v-.005l-.002-.005v-.004l-.001-.005v-.005l-.002-.005V2.14l-.001-.005V2.13l-.001-.005z"/><path id="_460597472" class="fil1" d="M3.145 2.045 6.932 5.83l-.001.005v.005l-.001.005v.005l-.001.005-.001.005v.005l-.002.005v.005l-.001.005v.005l-.002.005v.005l-.001.005-.001.005-.001.005-3.787-3.786.001-.005.001-.005.001-.005.001-.005V2.1l.002-.005V2.09l.001-.005V2.08l.002-.005v-.01l.002-.005v-.01z"/><path id="_460599800" class="fil1" d="M6.573 7.031zM2.787 3.245z"/><path id="_460600136" class="fil1" d="M6.713 6.737zM2.926 2.951z"/><path id="_460600184" class="fil1" d="M6.551 6.282zM2.765 2.496z"/><path id="_460600448" class="fil1" d="M3.034 1.561 6.82 5.348l.003.003-3.787-3.786z"/><path id="_460600496" class="fil1" d="m3.036 1.565 3.787 3.786v.002h.001v.001h.001L3.039 1.569h-.001v-.002h-.001z"/><path id="_460601168" class="fil1" d="M3.133 2.125 6.92 5.911l-.001.005-.001.004-.001.005-.001.005-.001.004-.001.005-.001.004-.001.005-.001.004-.002.005v.004l-.002.005-.001.004-.002.005v.004l-.002.005-3.787-3.786.002-.005.001-.004.001-.005.002-.004.001-.005.001-.004.001-.005.001-.005.002-.004v-.005l.002-.004v-.005l.002-.004v-.005l.002-.004z"/><path id="_460600856" class="fil1" d="m3.567 2.846 3.786 3.786.004.004.003.004.003.003.004.004.003.004.003.004.003.005.003.004.002.004.003.004.003.005.002.004.002.005.003.004.002.005.002.005.002.005.002.005.001.004.002.005.001.005.002.005v.006l.002.005.001.005v.005l.002.005v.017l.001.005v.005L3.628 2.996V2.98l-.001-.006V2.97l-.001-.005-.001-.005-.001-.006-.001-.005-.002-.005-.001-.005-.001-.005-.002-.005-.002-.005-.002-.005-.001-.004-.002-.005-.003-.005-.002-.004-.002-.005-.003-.004-.002-.005-.003-.004-.003-.005-.003-.004-.003-.004-.003-.004-.003-.004-.003-.004-.003-.004-.004-.003z"/><path id="_460601264" class="fil1" d="m3.628 2.996 3.786 3.786V6.857l-.001.005v.02l-.001.006v.021l-.001.006v.006L3.624 3.135v-.012l.001-.005V3.1l.001-.005v-.025l.001-.005V3.004l.001-.003V3z"/><path id="_460600952" class="fil1" d="m3.768 1.78 3.786 3.787-.013.035-3.786-3.786z"/><path id="_460601144" class="fil1" d="m3.755 1.816 3.786 3.786-.01.037-3.786-3.786z"/><path id="_460600568" class="fil1" d="M4.064 2.493 7.85 6.28v.001h-.001v.001L4.062 2.495h.001v-.001z"/><path id="_460601216" class="fil1" d="M7.848 6.282zM4.062 2.496z"/><path id="_460600688" class="fil1" d="m3.737 2.197 3.786 3.786-3.786-3.786z"/><path id="_460601096" class="fil1" d="m3.039 1.568 3.786 3.787.021.036L3.06 1.605z"/><path id="_460601120" class="fil1" d="m3.06 1.605 3.786 3.786.003.005.002.005.003.004.002.005.003.004.002.005.002.005.002.005L3.08 1.642l-.002-.004-.002-.005-.002-.005-.003-.005-.002-.004-.003-.005-.003-.004z"/><path id="_460601840" class="fil1" d="M3.08 1.642 6.864 5.43l.018.038-3.786-3.786z"/><path id="_460601672" class="fil1" d="m3.097 1.68 3.786 3.787.002.005.002.005.001.005.002.005.002.005.001.005.002.004.002.005L3.11 1.72l-.002-.005-.002-.005-.002-.005-.001-.005-.002-.005-.002-.004-.002-.005z"/><path id="_460601384" class="fil1" d="m3.11 1.72 3.787 3.786.002.005.001.005.002.005.002.005.001.005.002.005v.005l.002.005L3.123 1.76l-.001-.005-.002-.005-.001-.005-.002-.005-.001-.005-.002-.005-.002-.005z"/><path id="_460601816" class="fil1" d="m3.123 1.76 3.786 3.786.001.005.002.005.001.005.001.005.002.005v.005l.002.005.001.005L3.133 1.8l-.001-.005-.001-.005-.002-.005-.001-.005-.001-.005-.002-.005v-.005z"/><path id="_460602032" class="fil1" d="m3.133 1.8 3.786 3.786.007.041L3.14 1.841z"/><path id="_460601720" class="fil1" d="m3.14 1.841 3.786 3.786.001.005.001.005v.005l.001.006v.005l.001.005v.005l.001.005-3.786-3.786v-.005l-.001-.005v-.006l-.001-.005v-.005l-.001-.005-.001-.005z"/><path id="_460601864" class="fil1" d="m3.115 2.198 3.787 3.786.143.179-3.786-3.786z"/><path id="_460602008" class="fil1" d="m3.777 2.747 3.786 3.786v.014l-.001.012-.001.01-.002.011-.002.01-.003.008-.003.008-.004.007-.004.007-.004.005-.005.005-.005.004-.006.004-.006.003-.006.003-.007.002-.007.001-.007.001-.008.001h-.025l-.01-.001-.009-.001-.01-.002-.01-.001-.01-.002-.01-.002-.011-.002-.011-.002-.011-.002-.012-.002-3.786-3.786.011.002.012.002.01.002.011.002.01.002.011.002.01.001.01.002h.01l.008.001h.033l.008-.001.007-.002.007-.002.006-.002.006-.003.006-.004.005-.004.005-.005.004-.006.004-.006.004-.007.003-.008.002-.009.003-.009.001-.01.002-.012V2.76z"/><path id="_460601480" class="fil1" d="m3.9 2.951 3.787 3.786-.002.004v.003l-.002.003-.001.003-.001.003-.001.004-.002.003v.003L3.89 2.977l.001-.003.001-.004.002-.003v-.003l.002-.003.001-.003.001-.004z"/><path id="_460601600" class="fil1" d="m3.89 2.977 3.787 3.786-.001.003-.002.004-.001.003-.002.003-.001.003-.002.003-.002.003-.001.003L3.878 3l.002-.003.002-.003.001-.003.002-.003.002-.003.001-.003.002-.003z"/><path id="_460602224" class="fil1" d="m3.878 3.001 3.787 3.787-.002.003-.002.003-.002.003-.001.003-.002.003-.002.002-.002.003-.003.003-3.786-3.787.002-.002.002-.003.002-.003.002-.003.002-.003.002-.002.002-.004z"/><path id="_460602608" class="fil1" d="M3.863 3.024 7.65 6.811l-.002.002-.002.003-.002.003-.002.003-.002.002-.002.003-.002.003-.003.002-3.786-3.786.002-.003.003-.002.002-.003.002-.003.002-.002.002-.003.002-.003z"/><path id="_460602632" class="fil1" d="m3.846 3.046 3.786 3.786-.019.02-3.786-3.787z"/><path id="_460602080" class="fil1" d="m3.827 3.066 3.786 3.786-.002.002-.003.002-.002.003-.003.002-.003.002-.002.002-.003.002-.002.003-3.787-3.787.003-.002.002-.002.003-.002.003-.002.002-.003.003-.002.002-.002z"/><path id="_460602272" class="fil1" d="M3.806 3.083 7.593 6.87l-.003.002-.003.002-.002.002-.003.002-.003.002-.002.002-.003.002-.003.002L3.785 3.1l.003-.002.002-.002.003-.002.003-.002.002-.002.003-.002.003-.003z"/><path id="_460602488" class="fil1" d="M3.785 3.1 7.57 6.886l-.003.002-.003.002-.002.002-.003.002-.003.002-.003.001-.002.002-.003.002-3.787-3.786.003-.002.003-.002.003-.002.003-.002.002-.002.003-.001.003-.002z"/><path id="_460602320" class="fil1" d="M3.762 3.115 7.55 6.9l-.003.002-.003.002-.003.001-.003.002-.003.002-.003.001-.002.002-.003.002-.003.001-.003.002-.003.001-.003.002-.003.002-.003.001-.003.002-.003.001-3.786-3.786.003-.002.003-.001.003-.002.003-.001.002-.002.003-.001.003-.002.003-.002.003-.001.003-.002.003-.002.003-.001.003-.002.003-.002.003-.001z"/><path id="_460602368" class="fil1" d="m3.716 3.14 3.786 3.787-.003.002-.003.001-.003.001-.003.002-.003.001-.003.001-.003.002-.003.001L3.69 3.152l.003-.002h.003l.004-.002.003-.001.003-.002.003-.001.003-.002z"/><path id="_460602752" class="fil1" d="m3.691 3.152 3.787 3.786-.003.001-.003.002-.004.001-.003.001-.003.002H7.46l-.003.002-.003.001-3.786-3.786.003-.001.003-.002h.003l.003-.002.003-.001.003-.002h.003z"/><path id="_460602560" class="fil1" d="m3.667 3.162 3.786 3.786-.003.001-.003.001-.002.001-.003.001-.003.001h-.003l-.003.002h-.002l-.003.002h-.003l-.003.001-.003.001-.002.001-.003.001H7.41l-.003.002-3.786-3.787h.003l.002-.001.003-.001.003-.001h.003l.003-.002h.003l.002-.001.003-.001.003-.001.003-.001.003-.001.002-.001.003-.001.003-.001z"/><path id="_460603208" class="fil1" d="M2.652 2.233 6.438 6.02l.002.002-3.787-3.787z"/><path id="_460603112" class="fil1" d="m4.037 3.24 3.786 3.787.001.001.001.002L4.04 3.244l-.001-.002z"/><path id="_460602896" class="fil1" d="M4.04 3.244 7.824 7.03v.001L4.04 3.245z"/><path id="_460602968" class="fil1" d="m4.04 3.245 3.786 3.786.004.006.003.005.004.006.004.005.003.005.004.006.003.005.004.006.003.005.004.006.003.005.004.006.003.005.003.006.004.005.003.006-3.786-3.786-.004-.006-.003-.006-.003-.005-.004-.006-.003-.005-.004-.006-.003-.005-.004-.006-.003-.005-.004-.005-.003-.006-.004-.005-.003-.006-.004-.005-.004-.006z"/><path id="_460603448" class="fil1" d="M2.947 2.882 6.734 6.67v.019l.001.003v.019l.001.004v.015L2.95 2.943v-.03l-.001-.004v-.015l-.001-.004v-.004z"/><path id="_460603352" class="fil1" d="M2.962 2.963 6.75 6.749l.001.002.002.003.002.002.002.003.002.002.001.002.002.003.002.002-3.786-3.786-.002-.003-.002-.002-.002-.002-.002-.003-.002-.002-.001-.002-.002-.003z"/><path id="_460602872" class="fil1" d="m3.135 3.152 3.787 3.786-.003-.001-.004-.002h-.003l-.003-.002-.003-.002-.003-.001-.003-.001-.003-.002-3.786-3.786.003.001.003.002.003.001.003.002h.003l.003.002.003.001z"/><path id="_460602992" class="fil1" d="m3.111 3.14 3.786 3.787-.003-.001-.003-.002-.003-.001-.003-.002-.003-.002-.002-.001-.003-.002-.003-.001-.003-.002-.003-.002-.003-.001-.003-.002-.003-.002-.003-.001-.003-.002-.002-.002-3.787-3.786.003.002.003.001.003.002.003.002.003.001.002.002.003.002.003.001.003.002.003.002.003.001.003.002.003.001.003.002.003.001z"/><path id="_460603016" class="fil1" d="M2.653 2.235 6.44 6.022l.13.243-3.787-3.786z"/><path id="_460603064" class="fil1" d="M2.822 2.494 6.608 6.28l.003.003.002.004.003.003.002.004.002.003.003.004.002.003L2.84 2.518l-.003-.004-.002-.003-.002-.004-.002-.003-.003-.004-.002-.003z"/><path id="_460603520" class="fil1" d="m2.839 2.518 3.786 3.786.003.004.002.003.002.004.002.003.002.004.002.003.002.004.002.004-3.786-3.787-.002-.003-.002-.004-.002-.004-.002-.003-.002-.004-.002-.003-.003-.004z"/><path id="_460604240" class="fil1" d="m2.856 2.546 3.786 3.787.002.003.002.004.002.003.002.004.002.004.002.003.002.004.001.004-3.786-3.787-.001-.003-.002-.004-.002-.004-.002-.003-.002-.004-.002-.004-.002-.003z"/><path id="_460603688" class="fil1" d="m2.871 2.575 3.786 3.787.002.003.002.004.002.004.001.003.002.004.002.004.001.003.002.004-3.786-3.786-.002-.004-.002-.004-.001-.003-.002-.004-.002-.004-.001-.003-.002-.004z"/><path id="_460604144" class="fil1" d="M2.885 2.605 6.67 6.391l.011.03-3.786-3.786z"/><path id="_460603808" class="fil1" d="m2.896 2.635 3.786 3.786.002.004.001.004.001.004.001.004.002.003v.004l.002.004.001.004-3.786-3.787-.001-.003-.001-.004-.002-.004V2.65L2.9 2.646l-.001-.003-.002-.004z"/><path id="_460603736" class="fil1" d="m2.906 2.665 3.786 3.787.002.004v.003l.002.004.001.004.001.004.001.004.001.003.001.004-3.786-3.786v-.004l-.002-.004-.001-.004-.001-.003-.001-.004-.001-.004-.002-.004z"/><path id="_460604168" class="fil1" d="M3.064 3.115 6.851 6.9l-.003-.002-.003-.002-.003-.001-.003-.002-.003-.002-.002-.002-.003-.002-.003-.002L3.042 3.1l.003.002.002.002.003.001.003.002.003.002.003.002.002.002z"/><path id="_460603880" class="fil1" d="m3.49 3.655 3.786 3.787v.116L3.49 3.772z"/><path id="_460603640" class="fil1" d="M3.303 3.587 7.09 7.373l-.497-.317L2.806 3.27z"/><path id="_460603712" class="fil1" d="m4.008 4.25 3.786 3.787.005.004.004.004.004.004L4.02 4.263l-.005-.004-.004-.004z"/><path id="_460603904" class="fil1" d="m4.02 4.263 3.787 3.786.031.035-3.786-3.786z"/><path id="_460604648" class="fil1" d="M3.564 3.823 7.35 7.61l.006.006.006.006.006.007.006.007.006.007.005.007.006.008.005.008.005.008.005.008.005.008.005.009.005.009.004.008.005.01.004.009.004.01.004.009.004.01.004.01.003.01-3.786-3.786-.004-.01-.003-.01-.004-.01-.004-.01-.004-.01-.004-.009-.005-.009-.004-.009-.005-.009-.005-.008-.005-.008-.005-.009-.005-.008-.006-.007-.005-.008-.006-.007-.005-.007-.006-.007-.006-.007-.006-.006z"/><path id="_460605104" class="fil1" d="M4.11 4.372 7.897 8.16l.003.005-3.786-3.787z"/><path id="_460605032" class="fil1" d="M4.114 4.377 7.9 8.164v.003L4.115 4.381v-.003z"/><path id="_460604720" class="fil1" d="m4.09 4.389 3.786 3.786-.005-.003-.005-.002-.005-.003-.005-.003-.005-.002-.005-.003-.004-.003-.005-.003-.005-.003-.005-.002-.004-.003-.005-.003-.005-.003-.005-.003-.004-.003-.005-.003-3.786-3.786.005.003.004.003.005.003.005.002.004.003.005.003.005.003.005.003.004.003.005.003.005.002.005.003.005.003.005.002.005.003z"/><path id="_460604432" class="fil1" d="m3.716 4.13 3.786 3.786-.023-.019-3.786-3.786z"/><path id="_460605056" class="fil1" d="M2.74 3.452 6.528 7.24l-.002.006-.003.006-.003.006-.003.005-.002.006-.003.006-.003.006-.003.006-.003.006-.003.006-.003.006-.003.005-.003.006-.003.006-.003.006-.003.005-.003.006-.003.006-.003.006-.003.005-.003.006-.004.006-.003.006-.003.005-.003.006-.003.006-.004.005-.003.006-.003.006-.003.005-.004.006-.003.006-3.786-3.787.003-.005.003-.006.004-.006.003-.005.003-.006.003-.006.004-.005.003-.006.003-.006.003-.005.003-.006.004-.006.003-.006.003-.005.003-.006.003-.006.003-.006.003-.005.003-.006.003-.006.003-.006.003-.006.003-.005.003-.006.003-.006.003-.006.002-.006.003-.006.003-.006.003-.006.002-.006z"/><path id="_460604384" class="fil1" d="M2.644 3.637 6.43 7.424l-.003.005-.004.006-.003.005-.004.006-.003.005-.004.006-.003.006-.004.005-.003.006-.004.005-.003.006-.004.005-.003.006-.004.005-.004.006-.003.005-.004.005-.004.006-.003.005-.004.006-.004.005-.004.005-.003.006-.004.005-.004.005-.004.006-.004.005-.004.005-.004.006-.004.005-.004.005-.004.005-3.786-3.786.004-.005.004-.005.004-.006.004-.005.004-.005.004-.006.004-.005.003-.005.004-.005.004-.006.004-.005.004-.006.003-.005.004-.005.004-.006.003-.005.004-.006.004-.005.003-.006.004-.005.004-.006.003-.005.004-.006.003-.005.004-.006.003-.005.004-.006.003-.005.003-.006.004-.006.003-.005z"/><path id="_460605080" class="fil1" d="m3.038 4.185 3.787 3.786-.005.004-.004.003-.005.004-.004.003-.005.004-.005.003-.004.004-.005.003-.004.004-.005.003-.005.003-.004.004-.005.003-.004.003-.005.004-.005.003L2.965 4.24l.005-.003.004-.004.005-.003.005-.004.004-.003.005-.003.004-.004.005-.003.005-.004.004-.003.005-.003.004-.004.005-.003.004-.004.005-.003z"/><path id="_460604528" class="fil1" d="m2.806 3.27 3.787 3.786-.002.005-.001.006-.002.005-.001.006-.002.005-.001.006-.002.005-.002.005-.001.006-.002.005-.002.005-.001.006-.002.005-.002.005-.002.006-.002.005L2.78 3.356l.002-.006.002-.005.002-.005.001-.006.002-.005.002-.005.002-.006.001-.005.002-.005.001-.006.002-.005.002-.006.001-.005.001-.005.002-.006z"/><path id="_460604624" class="fil1" d="m2.78 3.356 3.786 3.786-.002.006-.002.006-.002.006-.003.006-.002.007-.002.006-.003.006-.002.006-.003.006-.002.006-.003.006-.002.006-.003.006-.002.006-.003.006-.003.006-3.786-3.787.003-.005.002-.006.003-.006.002-.006.003-.006.003-.006.002-.006.002-.007.003-.006.002-.006.003-.006.002-.006.002-.006.003-.006.002-.006z"/><path id="_460604768" class="fil1" d="m3.127 4.117 3.786 3.786-.016.013-3.786-3.787z"/><path id="_460605608" class="fil1" d="m3.11 4.13 3.787 3.786-.072.055-3.787-3.786z"/><path id="_460605152" class="fil1" d="m3.7 4.208 3.786 3.786v.023l-.002.023-.001.023-.003.022-.003.022-.004.022-.005.02-.005.021-.006.02-.006.02-.007.02-.007.017-.009.018-.008.017-.01.017-.009.016-.01.015-.01.014-.011.013-.012.013-.011.012-.013.01-.012.01-.013.01-.013.008-.013.007-.014.006-.014.005-.014.004-.015.003-.015.002h-.015L3.41 4.661h.015l.015-.002.014-.003.015-.004.014-.005.013-.006.014-.007.013-.009.013-.009.012-.01.012-.01.012-.012.011-.013.011-.013.01-.015.01-.015.01-.015.01-.017.008-.017.008-.018.008-.018.007-.02.006-.019.006-.02.005-.02.005-.021.004-.022.003-.022.002-.022.002-.023.001-.023z"/><path id="_460605584" class="fil1" d="m4.431 5.259 3.786 3.786.002.002.001.002v.003l.001.002v.005l-.002.002-.002.002-3.786-3.787.002-.001v-.003l.001-.002v-.007l-.001-.002z"/><path id="_460605368" class="fil1" d="m4.431 5.276 3.786 3.787-.002.001-.002.001-.002.001h-.007l-.002-.002-.002-.001-3.786-3.787.002.002.002.001h.002l.002.001h.005l.002-.002z"/><path id="_460605176" class="fil1" d="M4.013 4.344 7.799 8.13l-.077-.05-3.786-3.787z"/><path id="_460605704" class="fil1" d="m3.936 4.293 3.786 3.786-.004-.003-.005-.003-.005-.003-.005-.004-.004-.003-.005-.003-.005-.004-.004-.003-.005-.003-.004-.004-.005-.003-.005-.003-.004-.004-.005-.003-.004-.004-.005-.003L3.862 4.24l.004.003.005.004.004.003.005.003.005.004.004.003.005.003.005.004.004.003.005.003.005.004.004.003.005.003.005.004.004.003z"/><path id="_460605536" class="fil1" d="m3.862 4.24 3.786 3.786-.005-.003-.004-.004-.005-.003-.005-.003-.004-.004-.005-.003-.005-.003-.004-.004-.005-.003-.004-.004-.005-.003-.004-.004-.005-.003-.004-.004-.005-.003-.004-.004-3.787-3.786.005.004.004.003.005.004.004.003.005.004.005.003.004.003.005.004.004.003.005.004.004.003.005.003.005.004.004.003.005.004z"/><path id="_460605392" class="fil1" d="m3.788 4.185 3.787 3.786-.073-.055-3.786-3.787z"/><path id="_460605200" class="fil1" d="m4.114 4.38 3.787 3.787v.006l.001.005v.006l.001.005v.005l.002.006v.005l.001.006v.005l.001.006.001.005v.006l.002.005v.011l.002.006v.005l.001.006v.005l.002.005v.006l.001.005.001.006v.005l.002.006v.005l.001.006.001.005v.006l.002.005v.005l.001.006-3.786-3.786V4.55l-.002-.005v-.006l-.001-.005-.001-.006v-.005l-.002-.006v-.005l-.001-.005L4.13 4.5v-.005l-.002-.006v-.005l-.001-.006v-.005l-.002-.006v-.005l-.001-.006v-.005l-.001-.006-.001-.005v-.005L4.12 4.43v-.005l-.001-.006v-.005l-.001-.006-.001-.005v-.006l-.001-.005-.001-.006z"/><path id="_460605872" class="fil1" d="M3.693 4.11 7.48 7.898l.001.006v.006l.002.006v.012l.001.006v.006l.001.006v.006l.001.006v.037L3.7 4.208v-.025l-.001-.006v-.012l-.001-.006v-.012l-.001-.006-.001-.006v-.006l-.001-.006-.001-.006z"/><path id="_460606376" class="fil1" d="m4.138 4.556 3.786 3.786.001.005v.006l.002.005v.006l.001.005.001.006.001.005v.005l.002.006v.005l.001.006.001.005.001.006.001.005.001.005.001.006.001.005.001.006.001.005.001.005.001.006.001.005.001.006.001.005.001.005.001.006.001.005.001.006.001.005.001.005.002.006v.005L4.169 4.73v-.006l-.002-.005v-.005l-.002-.006-.001-.005-.001-.005-.001-.006-.001-.005-.001-.006-.001-.005-.001-.005-.001-.006-.001-.005-.001-.006-.001-.005-.001-.005-.001-.006-.001-.005-.001-.006v-.005l-.002-.006V4.61l-.002-.005v-.006l-.001-.005-.001-.006-.001-.005v-.006l-.002-.005v-.005l-.001-.006z"/><path id="_460606520" class="fil1" d="m4.168 4.729 3.787 3.786v.005l.002.006v.005l.002.006.001.005.001.005.001.006.002.005-3.787-3.786v-.006l-.002-.005-.001-.005-.001-.006-.001-.005-.002-.005v-.006z"/><path id="_460605944" class="fil1" d="m2.526 3.811 3.786 3.786-.004.005-.004.005-.004.006-.005.005-.004.005-.004.005-.004.005-.005.005-.004.005-.004.005-.005.005-.004.005-.005.004-.004.005-.005.005-.004.005-.005.005-.005.004-.005.005-.004.005-.005.004-.005.005-.005.004-.005.004-.005.005-.005.004-.005.004-.005.005-.006.004-.005.004-.005.004-.006.004L2.376 3.96l.005-.004.006-.004.005-.004.005-.004.006-.004.005-.004.005-.004.005-.005.005-.004.005-.005.005-.004.004-.005.005-.004.005-.005.005-.005.004-.004.005-.005.004-.005.005-.005.004-.005.005-.005.004-.004.005-.005.004-.005.004-.005.005-.005.004-.006.004-.005.004-.005.005-.005.004-.005z"/><path id="_460606448" class="fil1" d="m4.177 4.772 3.787 3.786v.005l.002.006.001.005.001.005.002.006v.005l.002.005.001.006-3.786-3.787-.001-.005-.002-.005v-.006l-.002-.005-.001-.005-.001-.006-.001-.005z"/><path id="_460606352" class="fil1" d="m4.187 4.814 3.786 3.787.002.005.001.005.001.006.002.005.001.005.001.005.002.006.001.005.001.005.002.005.001.006.002.005.001.005.002.005.001.006.002.005L4.21 4.899l-.002-.006-.002-.005-.001-.005-.002-.005-.001-.006-.001-.005-.002-.005-.001-.005-.002-.006v-.005l-.002-.005-.002-.005V4.83l-.002-.005-.002-.005z"/><path id="_460606400" class="fil1" d="m4.21 4.899 3.786 3.786.001.005.002.005L8 8.7l.002.006.002.005.001.005.002.005.002.005.002.005.001.005.002.005.002.006.002.005.001.005.002.005.002.005L4.237 4.98l-.002-.005-.002-.006-.002-.005-.001-.005-.002-.005-.002-.005-.002-.005-.002-.005-.001-.005-.002-.005-.002-.005-.001-.006-.002-.005-.001-.005-.002-.005z"/><path id="_460606040" class="fil1" d="m2.965 4.24 3.786 3.786-.004.003-.005.004-.005.003-.004.004-.005.003-.004.003-.005.004-.005.003-.004.003-.005.004-.005.003-.004.003-.005.004-.005.003-.004.003-.005.003L2.89 4.293l.004-.003.005-.003.005-.004.004-.003.005-.003.005-.004.004-.003.005-.003.005-.004.004-.003.005-.003.005-.004.004-.003.005-.003.004-.004z"/><path id="_460605896" class="fil1" d="m2.89 4.293 3.787 3.786-.077.051-3.786-3.786z"/><path id="_460606280" class="fil1" d="m2.376 3.96 3.786 3.787H6.16v.001h-.001l-.001.001h-.003L2.367 3.964h.005l.001-.001.001-.001z"/><path id="_460606088" class="fil1" d="M2.368 3.963 6.154 7.75H6.02L2.233 3.963z"/><path id="_460606256" class="fil1" d="M2.734 4.471 6.52 8.258v.016l-.001.006v.011l-.001.006v.011l-.001.005v.006l-.001.005v.011l-.001.006-.001.006L2.728 4.56V4.55l.001-.005v-.006l.001-.005v-.006l.001-.006V4.51l.001-.005v-.011l.001-.006v-.011z"/><path id="_460607336" class="fil1" d="m2.728 4.56 3.786 3.787v.005l-.001.006v.005l-.001.006v.005l-.001.006-.001.005v.006l-.001.005v.006l-.001.006-.001.005v.006l-.001.005-.001.006v.005l-.001.006-.001.005v.006l-.002.005v.006l-.001.006v.005l-.002.006v.005l-.001.006-.001.005-.001.006v.005l-.002.006v.005l-.002.006-3.786-3.786.001-.006.001-.006v-.005l.002-.006V4.71l.001-.006.001-.005.001-.006v-.005l.002-.006v-.005l.001-.006v-.005l.002-.006v-.005l.001-.006v-.006l.001-.005.001-.006v-.005l.001-.006v-.005l.002-.006V4.6l.001-.005v-.006l.001-.006.001-.005V4.57l.001-.005z"/><path id="_460607216" class="fil1" d="m2.705 4.737 3.786 3.787v.005l-.001.003v.006l-.001.002v.003l-.001.003v.003l-.001.002v.003l-.001.003-.001.003v.002l-.001.003v.003L2.696 4.782v-.003l.001-.003v-.003l.001-.002v-.003l.001-.003v-.003l.001-.002v-.003l.001-.003v-.003l.001-.002v-.003l.001-.003V4.74z"/><path id="_460606952" class="fil1" d="m2.697 4.782 3.786 3.786v.005l-.001.003v.003l-.001.003v.002l-.001.003-.001.003v.003l-.001.002v.003l-.001.003v.003l-.001.002-.001.003v.003L2.687 4.826v-.003l.001-.003.001-.003v-.002l.001-.003v-.003l.001-.003v-.002l.001-.003v-.003l.001-.003v-.002l.001-.003.001-.003v-.003z"/><path id="_460606664" class="fil1" d="m2.688 4.826 3.786 3.786v.005l-.002.006-.001.005-.002.006v.005l-.002.006-.002.005v.006l-.002.005-.002.005-.001.006-.002.005-.001.006-.002.005-.001.006-.002.005-3.786-3.786.002-.006.001-.005.002-.005.001-.006.002-.005.001-.006.001-.005.002-.006.001-.005.002-.006v-.005l.002-.006.001-.005.002-.006v-.005z"/><path id="_460606904" class="fil1" d="m2.666 4.913 3.786 3.786-.001.006-.002.005-.001.005-.002.006-.002.005-.001.006-.002.005-.002.005-3.786-3.786.002-.005.001-.006.002-.005.002-.005.001-.006.002-.005.002-.006z"/><path id="_460606712" class="fil1" d="m2.653 4.956 3.786 3.786-.002.006-.002.005-.001.005-.002.006-.002.005-.002.006-.002.005-.003.005L2.637 5l.003-.005.002-.006.002-.005.002-.005.001-.006.002-.005.002-.006z"/><path id="_460606976" class="fil1" d="m2.637 4.999 3.786 3.786-.002.005-.003.005-.003.005-.003.005-.003.005-.003.005-.003.005-.004.004-3.786-3.786.003-.005.004-.004.003-.005.003-.005.003-.005.003-.005.003-.005z"/><path id="_460607000" class="fil1" d="M2.613 5.038 6.4 8.824l-.003.005-.004.005-.003.004-.003.005-.004.005-.003.005-.003.004-.002.005-3.787-3.786.003-.005.003-.005.003-.004.003-.005.004-.005.003-.005.003-.004z"/><path id="_460607120" class="fil1" d="m2.587 5.076 3.787 3.786-3.787-3.786z"/><path id="_460607192" class="fil1" d="m2.587 5.076 3.786 3.787v.001L2.585 5.078v-.001h.001z"/><path id="_460607480" class="fil1" d="m2.586 5.078 3.786 3.786-.005.006-.006.006-.006.006-.005.006-.006.006-.005.006-.006.006-.005.006-.006.006-.005.006-.006.007-.005.006-.006.006-.005.006-.005.006-.006.006-3.786-3.786.005-.006.006-.006.005-.007.005-.006.006-.006.005-.006.006-.006.005-.006.006-.006.005-.006.006-.006.006-.006.005-.006.006-.006.005-.006z"/><path id="_460607792" class="fil1" d="M2.498 5.175 6.284 8.96l-.005.006-.006.006-.005.007-.005.006-.006.006-.005.006-.005.006-.006.007-.005.006-.005.006-.005.007-.005.006-.006.006-.005.007-.005.006-.005.007-3.786-3.787.005-.006.005-.007.005-.006.005-.006.006-.007.005-.006.005-.006.005-.007.006-.006.005-.006.005-.006.005-.006.006-.007.005-.006.006-.006z"/><path id="_460607504" class="fil1" d="M2.414 5.275 6.2 9.062l-.001.001-.002.002h-.003l-.002.001h-.005l-.002-.001-.002-.001-3.786-3.787.002.002H2.4l.002.001h.005l.002-.002.002-.001z"/><path id="_460607648" class="fil1" d="m4.052 4.298 3.786 3.786.004.005.004.004.004.005.004.004.003.005.004.004.004.005.003.005.004.004.004.005.003.005.004.004.003.005.004.005.003.005.004.005L4.11 4.372l-.003-.005-.003-.004-.004-.005-.003-.005-.004-.005-.004-.004-.003-.005-.004-.005-.004-.004-.003-.005-.004-.004-.004-.005-.004-.004-.003-.005-.004-.004z"/><path id="_460607888" class="fil1" d="m4.237 4.98 3.786 3.787.002.005.001.005.001.006.001.005.001.005.001.006.002.005v.005L4.247 5.023v-.005l-.002-.006v-.005l-.002-.005-.001-.006-.001-.005-.002-.005z"/><path id="_460607576" class="fil1" d="M4.246 5.023 8.033 8.81l.001.006.001.005.002.005.002.005.001.005.002.005.002.005.002.005L4.26 5.064l-.002-.005-.002-.005-.002-.005-.002-.005-.001-.005-.002-.005-.001-.006z"/><path id="_460607984" class="fil1" d="M4.26 5.064 8.046 8.85l.005.006.005.007.005.006.006.006.005.006.005.007.005.006.005.006.005.006.006.006.005.006.005.007.005.006.005.006.006.006.005.006-3.786-3.786-.005-.006-.006-.007-.005-.006-.005-.006-.006-.006-.005-.006-.005-.006-.005-.006-.005-.007-.005-.006-.006-.006-.005-.006-.005-.006-.005-.007-.005-.006z"/><path id="_460607840" class="fil1" d="m4.343 5.163 3.786 3.786.006.006.005.006.005.006.006.006.005.006.006.007.005.006.006.006.005.006.006.006.005.006.006.006.005.006.006.006.006.005.005.006L4.431 5.26l-.006-.006-.005-.006-.006-.006-.006-.006-.005-.006-.006-.006-.005-.006-.006-.006-.005-.006-.006-.006-.005-.006-.006-.006-.005-.006-.005-.006-.006-.006z"/><path id="_460608008" class="fil1" d="m3.41 4.661 3.786 3.786h-.014l-.015-.002-.015-.003-.014-.004-.014-.005-.014-.006-.013-.007-.013-.008-.013-.01-.012-.01-.013-.01L3.26 4.595l.012.011.013.01.013.01.013.008.013.007.014.006.014.005.014.004.015.003.014.002z"/><path id="_460608056" class="fil1" d="M2.368 3.963 6.154 7.75 2.368 3.963z"/><path id="_460608920" class="fil1" d="M2.814 4.344 6.6 8.13l-.005.003-.004.003-.005.003-.005.003-.004.003-.005.003-.005.002-.005.003-.004.003-.005.003-.005.003-.005.002-.005.003-.005.003-.005.002-.005.003-3.786-3.786.005-.003.005-.003.005-.002.005-.003.005-.003.005-.002.004-.003.005-.003.005-.003.005-.003.004-.003.005-.003.005-.002.004-.003.005-.003z"/><path id="_460608728" class="fil1" d="M2.233 3.963 6.019 7.75h-.003l-.002-.001-.002-.002-.002-.001L2.224 3.96l.002.001.002.001.002.001z"/><path id="_460608488" class="fil1" d="m2.737 4.389 3.786 3.786V8.216l-.001.006v.02l-.001.005v.011L2.733 4.47v-.015l.001-.005V4.43l.001-.005V4.394z"/><path id="_460608296" class="fil1" d="m2.915 2.696 3.786 3.786.001.004.001.004.001.004.001.004.001.003.001.004.001.004.001.004.001.004v.004l.002.004v.003l.002.004v.004l.001.004.001.004L2.93 2.758l-.001-.004V2.75l-.002-.004v-.004l-.002-.004v-.003l-.001-.004-.001-.004-.001-.004-.001-.004v-.004l-.002-.004v-.003l-.002-.004V2.7z"/><path id="_460608752" class="fil1" d="m2.93 2.758 3.786 3.786v.004l.002.004v.004l.001.003v.004l.001.004.001.004v.004l.001.004.001.004v.004l.001.004v.003l.001.004.001.004v.004L2.94 2.82v-.008l-.001-.004-.001-.004V2.8l-.001-.004v-.003l-.002-.004V2.78l-.002-.004v-.004l-.001-.004v-.004l-.001-.003z"/><path id="_460608392" class="fil1" d="m3.257 2.848 3.786 3.786-.011.003-.01.002-.011.001-.01.002-.01.002-.01.001-.01.002h-.008l-.01.001-.008.001h-.024l-.007-.001-.007-.002-.007-.001-.006-.002-.006-.003-.006-.003-.005-.004-.005-.005-3.786-3.786.005.004.005.004.006.004.006.002.006.002.007.002.007.001.007.001h.041l.01-.002.009-.001.01-.001.01-.002.01-.002.01-.002.01-.002z"/><path id="_460608464" class="fil1" d="m2.94 2.82 3.787 3.786v.008l.001.004v.004l.001.004v.003l.001.004v.004l.001.004v.008l.001.004v.008l.001.004v.004L2.948 2.882v-.011l-.001-.004v-.008l-.001-.004V2.85l-.001-.004v-.004l-.001-.004v-.004l-.001-.003v-.004l-.001-.004z"/><path id="_460608632" class="fil1" d="m3.042 3.1 3.786 3.786-.003-.002-.002-.002-.003-.002-.003-.002-.003-.002-.002-.002-.003-.002-.002-.002L3.02 3.083l.003.002.003.003.002.002.003.002.003.002.002.002.003.002z"/><path id="_460609424" class="fil1" d="M3.02 3.083 6.807 6.87l-.003-.003-.003-.002-.002-.002-.003-.002-.002-.002-.003-.003-.002-.002-.003-.002L3 3.065l.002.003.003.002.002.002.003.003.003.002.002.002.003.002z"/><path id="_460609280" class="fil1" d="M3.544 3.574 7.33 7.36l-.003.006-.003.006-.003.006-.003.006-.003.006-.003.005-.003.006-.004.005-.003.005-.004.005-.003.005-.004.004-.004.005-.003.004-.004.004-.004.004L3.49 3.655l.004-.004.003-.004.004-.004.004-.004.004-.005.003-.004.004-.005.003-.005.003-.006.004-.005.003-.005.003-.006.003-.006.003-.006.003-.006z"/><path id="_460609208" class="fil1" d="M2.95 2.943 6.736 6.73l.002.003.001.002.002.003.002.002.001.003.002.002.001.002.002.003-3.787-3.786-.001-.003-.002-.002-.001-.003-.002-.002-.001-.003-.002-.002-.001-.002z"/><path id="_460610216" class="fil1" d="m3.21 3.178 3.786 3.786-.003-.001H6.99l-.003-.002h-.003l-.004-.002h-.003l-.003-.001-.003-.001-.003-.001-.003-.001-.003-.001-.003-.002h-.004l-.003-.002H6.95l-.003-.002L3.16 3.162h.003l.003.002.003.001.003.001.003.001.004.001.003.001.003.001.003.001.003.001.003.001.003.001.003.001h.004l.003.002z"/><path id="_460610312" class="fil1" d="m2.977 2.982 3.786 3.786.002.002.002.003.002.002.002.002.002.003.002.002.002.002-3.786-3.786-.002-.002-.002-.003-.002-.002-.002-.002-.002-.002-.002-.003z"/><path id="_460609736" class="fil1" d="m2.995 3.002 3.786 3.786.003.002.002.003.002.002.002.002.002.002-3.786-3.786-.002-.002L3 3.009 3 3.006l-.002-.002z"/><path id="_460609928" class="fil1" d="m3.16 3.162 3.786 3.786-.003-.001-.003-.001-.003-.001-.003-.002-.003-.001-.003-.001-.003-.002h-.003L3.135 3.151l.003.001.003.001.003.002.004.001.003.001.003.001.003.002z"/><path id="_460609856" class="fil1" d="m3.622 3.176 3.786 3.787v.007l-.001.008v.008l-.001.008v.008l-.002.008v.008l-.001.008v.008l-.002.008v.009l-.001.008-.001.008-.001.009-.001.008-.001.008-.001.009-.002.008v.009l-.002.008-.001.008-.001.009-.002.008-.001.009-.002.008-.001.008-.002.008-.001.009-.002.008-.002.008-.001.008-.002.008L3.587 3.44l.001-.008.002-.008.002-.008.002-.009.001-.008.002-.008.001-.008.002-.009v-.008l.002-.009.002-.008V3.34l.002-.009.001-.008.001-.009.001-.008.001-.008.001-.009.001-.008.001-.008.001-.009.001-.008v-.008l.002-.008v-.008l.001-.009v-.008l.001-.007.001-.008v-.008l.001-.008z"/><path id="_460610120" class="fil1" d="m4.02 3.27 3.787 3.786-.477.304-3.786-3.786z"/><path id="_460610240" class="fil1" d="m4.147 3.422 3.786 3.786.003.006.004.005.003.006.003.005.003.006.003.006.003.005.003.006.003.006.003.005.003.006.003.005.003.006.003.006.003.005.003.006.003.006.003.005.004.006.003.006.003.005.003.006.003.005.003.006.003.006.003.005.003.006.003.006.003.005.003.006.003.005.003.006-3.786-3.786-.003-.006-.003-.006-.003-.005-.003-.006-.003-.005-.003-.006-.004-.006-.003-.005-.003-.006-.003-.005-.003-.006-.003-.006-.003-.005-.003-.006-.003-.006-.003-.005-.003-.006L4.19 3.5l-.003-.005-.003-.006-.003-.005-.003-.006-.003-.006-.003-.005-.003-.006-.003-.006-.003-.005-.003-.006-.004-.005-.003-.006-.003-.006z"/><path id="_460609904" class="fil1" d="m4.245 3.602 3.786 3.786.003.005.004.006.003.006.003.005.003.006.003.005.003.006.003.005.003.006.004.006.003.005.003.006.003.005.003.006.003.005.004.006L4.295 3.69l-.003-.005-.003-.006-.003-.005-.003-.006-.004-.005-.003-.006-.003-.005-.003-.006-.003-.005-.003-.006-.003-.005-.004-.006-.003-.006-.003-.005-.003-.006z"/><path id="_460609808" class="fil1" d="m4.295 3.69 3.787 3.787.003.005.003.006.003.005.004.006.003.005.003.006.003.005.004.006.003.005.003.005.004.006.003.005.003.006.004.005.003.005.003.006-3.786-3.786-.003-.006-.004-.005-.003-.006-.003-.005-.004-.005-.003-.006-.003-.005-.004-.006-.003-.005-.003-.006-.003-.005-.004-.006-.003-.005-.003-.006-.003-.005z"/><path id="_460610000" class="fil1" d="m4.348 3.778 3.786 3.786.004.005.003.005.003.006.004.005.003.005.004.005.003.005.003.006.004.005.003.005.004.005.003.005.004.005.003.006.004.005.003.005.004.005.004.005.003.005.004.005.004.005.003.005.004.005.004.005.004.004.004.005.004.005.004.005.003.005.004.005.004.004.005.005-3.787-3.786-.004-.005-.004-.005-.004-.004-.004-.005-.004-.005-.004-.005-.003-.005-.004-.005-.004-.005-.004-.005-.004-.005-.003-.004-.004-.005-.004-.005-.003-.006-.004-.005-.003-.005-.004-.005-.003-.005-.004-.005-.004-.005-.003-.005-.003-.005-.004-.006-.003-.005-.004-.005-.003-.005-.003-.005-.004-.006-.003-.005-.004-.005z"/><path id="_460610096" class="fil1" d="M4.603 3.942 8.389 7.73l.002.001v.002l.001.003v.002L4.607 3.951v-.005l-.002-.002z"/><path id="_460610936" class="fil1" d="m4.606 3.951 3.787 3.786v.003l-.001.002-.001.002-.002.002-.002.001-.002.002H8.38L4.594 3.964H4.6L4.6 3.96l.002-.001.001-.002.001-.002.001-.002z"/><path id="_460610744" class="fil1" d="M4.594 3.963 8.38 7.75h-.135L4.46 3.963z"/><path id="_460610624" class="fil1" d="M4.459 3.963 8.245 7.75 4.459 3.963z"/><path id="_460610792" class="fil1" d="M4.459 3.963 8.245 7.75h-.003l-.001-.001H8.24l-.001-.001h-.001l-.001-.001L4.45 3.96l.001.002h.003l.001.001h.001z"/><path id="_460610960" class="fil1" d="m4.45 3.96 3.787 3.787-.005-.004-.006-.004-.005-.004-.005-.004-.006-.005-.005-.004-.005-.004-.005-.005-.005-.004-.005-.004L8.18 7.7l-.005-.004-.004-.005-.005-.005-.005-.004-.004-.005L4.37 3.89l.005.004.005.005.004.005.005.004.005.005.005.004.005.005.005.004.005.005.005.004.005.004.005.004.006.004.005.004.005.004z"/><path id="_460611032" class="fil1" d="m4.096 3.333 3.786 3.786.003.005.003.006.004.005.003.006.003.006.004.005.003.006.003.005.003.006.003.005.004.006.003.006.003.005.003.006.003.005.003.006-3.786-3.786-.003-.006-.003-.006-.003-.005-.003-.006-.004-.005-.003-.006-.003-.005-.003-.006-.003-.006-.004-.005-.003-.006-.003-.005-.003-.006-.004-.005-.003-.006z"/><path id="_460610600" class="fil1" d="m3.145 1.882 3.786 3.786v.005l.001.005.001.005v.011l.001.005v.01L3.148 1.923v-.021l-.001-.005v-.005l-.001-.005z"/><path id="_460611200" class="fil1" d="m3.148 1.923 3.786 3.786v.01l.001.005V5.75L3.15 1.964V1.928z"/><path id="_460611104" class="fil1" d="M3.735 2.208 7.52 5.994l-.143.179-3.786-3.786z"/><path id="_460611224" class="fil1" d="m4.026 2.578 3.786 3.786-.002.003-.001.003-.002.003-.002.004-.002.003-.001.003-.002.003-.002.004-3.786-3.787.002-.003.001-.003.002-.004.002-.003.002-.003.001-.003.002-.003z"/><path id="_460611536" class="fil1" d="M4.012 2.603 7.798 6.39l-.001.003-.002.003-.001.003-.002.004-.002.003-.001.003-.002.004-.001.003-.002.003-.001.004-.002.003-.001.004-.002.003-.001.003-.002.004-.001.003-3.786-3.786.001-.003.001-.004.002-.003.001-.004.002-.003.001-.003.002-.004.001-.003.002-.004.002-.003.001-.003.002-.004.001-.003.002-.003.002-.003z"/><path id="_460611560" class="fil1" d="m3.988 2.657 3.786 3.786-.002.004-.001.003-.001.004-.002.003-.001.004-.001.003-.002.004-.001.003-3.786-3.786.001-.004.001-.003.002-.004.001-.003.001-.004.002-.003.001-.004z"/><path id="_460611464" class="fil1" d="M3.977 2.685 7.763 6.47l-.001.004-.002.003-.001.004-.001.003-.002.004v.003l-.002.004-.001.003-3.787-3.786.002-.004v-.003l.002-.004.001-.003.002-.004.001-.003.001-.004z"/><path id="_460611440" class="fil1" d="M3.15 1.964 6.934 5.75v.04L3.148 2.005z"/><path id="_79976208" class="fil1" d="m3.148 2.004 3.787 3.787-.003.04-3.787-3.786z"/><path id="_79976520" class="fil1" d="m3.65 2.438 3.786 3.786.009.01.008.01.009.01.008.01.007.011.008.011.007.011.007.012.006.011.007.012.006.012.005.012.005.013.005.012.005.012.004.013.004.013.003.012.003.013.003.013.002.013.002.012.002.013v.013l.002.013v.012L3.777 2.747v-.013l-.001-.012-.001-.013-.002-.013-.002-.013-.002-.012-.003-.013-.003-.013-.003-.013-.004-.012-.004-.013-.005-.012-.005-.013-.005-.012-.006-.012-.006-.012-.006-.012-.006-.011-.007-.012-.007-.011-.008-.011-.008-.01-.008-.011-.008-.01-.009-.01z"/><path id="_79976424" class="fil1" d="m3.738 2.203 3.787 3.786-.004.005-3.786-3.786z"/><path id="_79976976" class="fil1" d="M4.041 2.553 7.827 6.34l-.002.003-.002.003-.002.003-.001.003-.002.003-.002.003-.002.003-.002.003-3.786-3.786.002-.003.002-.003.001-.004.002-.003.002-.003.002-.003.002-.003z"/><path id="_79977120" class="fil1" d="m3.966 2.713 3.787 3.786-.003.007-.002.007-.003.008-.002.007-.002.007-.003.007-.002.007-.002.008-.002.007-.002.007-.003.008-.002.007-.002.007-.002.008-.002.007-.002.007L3.931 2.83l.002-.007.002-.008.002-.007.002-.007.002-.008.002-.007.002-.007.003-.008.002-.007.002-.007.002-.007.003-.007.002-.008.002-.007.003-.007z"/><path id="_79977144" class="fil1" d="m3.93 2.829 3.787 3.786-.002.008-.002.007-.002.007-.002.008-.002.007-.002.008-.001.007-.002.007-.002.008-.002.007-.002.008-.002.007-.001.008-.002.007-.002.008-.002.007-3.786-3.786.002-.008.002-.007.001-.008.002-.007.002-.008.002-.007.002-.007.001-.008.002-.007.002-.008.002-.007.002-.008.002-.007.002-.007.002-.008z"/><path id="_79977576" class="fil1" d="M7.687 6.737zM3.9 2.951z"/><path id="_465019720" class="fil1" d="m3.901 2.948 3.786 3.786v.003L3.9 2.951z"/><path id="_465019408" class="fil1" d="m3.9 2.95 3.787 3.787L3.9 2.951z"/><path id="_465020128" class="fil1" d="m3.857 1.56 3.787 3.787.002.003.003.004.002.003.002.004v.004l.002.004v.017l-.002.004-.001.004-.002.004-3.787-3.786.002-.004.002-.004.001-.004v-.005l.001-.004v-.008l-.001-.004-.002-.004-.001-.004-.002-.004-.003-.003z"/><path id="_465046144" class="fil1" d="M3.863 1.612 7.65 5.398h-.001V5.4h-.001v.001L3.86 1.615v-.001h.001v-.001h.001z"/><path id="_216937608" class="fil1" d="m3.861 1.615 3.786 3.786-.002.004-3.786-3.787z"/><path id="_216937440" class="fil1" d="m3.859 1.618 3.786 3.787-.021.03-3.787-3.786z"/><path id="_216937488" class="fil1" d="m3.837 1.649 3.787 3.786-.003.004-.003.003-.003.004-.002.004-.003.004-.002.004-.002.004-.003.004L3.817 1.68l.002-.004.003-.004.002-.004.003-.004.002-.004.003-.004.003-.004z"/><path id="_216937512" class="fil1" d="m3.817 1.68 3.786 3.786-.018.032-3.787-3.786z"/><path id="_216937104" class="fil1" d="m3.798 1.712 3.787 3.786-.003.005-.002.004-.002.004-.002.004-.001.004-.002.005-.002.004-.002.004-3.787-3.786.002-.004.002-.005.002-.004.002-.004.002-.004.002-.005.002-.004z"/><path id="_216937584" class="fil1" d="M3.782 1.746 7.57 5.532l-.002.004-.002.005-.002.004-.002.004-.002.005-.002.004-.001.004-.002.005L3.768 1.78l.001-.005.002-.004.002-.005.002-.004.001-.004.002-.005.002-.004z"/><path id="_216937200" class="fil1" d="M4.194 2.234 7.98 6.02l.001.002.001.002V6.033L4.194 2.247v-.002l.001-.003v-.004l-.001-.002z"/><path id="_216937728" class="fil1" d="M3.745 1.853 7.53 5.639l-.001.005-.001.004-.001.005-.001.004-.001.005-.001.005-.001.005-.001.004L3.737 1.89v-.005l.002-.004v-.005l.001-.005.001-.004.001-.005.002-.005z"/><path id="_216937272" class="fil1" d="m3.737 1.89 3.786 3.786-.001.005-.001.005-.001.004v.005l-.002.005v.004l-.001.005v.005L3.73 1.928v-.005l.001-.005.001-.005V1.91l.002-.005v-.005l.002-.004z"/><path id="_216937800" class="fil1" d="m3.73 1.928 3.786 3.786v.005l-.001.004v.005l-.001.005-.001.005v.004l-.001.005v.005L3.725 1.966V1.96l.001-.005v-.005l.001-.004.001-.005v-.005l.001-.005z"/><path id="_216938352" class="fil1" d="m3.725 1.966 3.787 3.786-.003.038-3.787-3.786z"/><path id="_216937872" class="fil1" d="M3.722 2.004 7.51 5.79l-.001.04L3.72 2.042z"/><path id="_216937992" class="fil1" d="m3.721 2.043 3.787 3.786v.039l.001.005V5.887l.001.005v.005l.001.005v.005L3.725 2.12V2.111l-.001-.005v-.01l-.001-.005V2.072l-.001-.005v-.019z"/><path id="_216938016" class="fil1" d="m4.195 2.247 3.786 3.786-.131.246-3.786-3.786z"/><path id="_216938040" class="fil1" d="M4.062 2.495 7.85 6.281l-.001.001-3.786-3.786z"/><path id="_216938400" class="fil1" d="m3.737 2.197 3.786 3.786.002.006-3.787-3.786z"/><path id="_216938232" class="fil1" d="m4.062 2.496 3.786 3.786v.02l-.001.004-.001.004-.001.003-.002.003L4.057 2.53l.001-.003.002-.004V2.52l.002-.004V2.502z"/><path id="_216937968" class="fil1" d="m4.057 2.53 3.786 3.786-.002.003-.001.003-.002.003-.002.003-.002.003-.002.003-.003.003-.002.003-3.786-3.787.002-.002.002-.003.002-.003.002-.003.002-.003.002-.003.002-.003z"/><path id="_637654168" class="fil1" d="M4.062 2.496zm-.162.455zm-1.113.294zm.14-.294zm-.162-.455zm.97-.288-.143.179c.11.079.185.225.185.36 0 .145-.086.122-.21.099a.214.214 0 0 1 .061.15c0 .027 0 .077-.004.139a.954.954 0 0 0 .026-.013l.045-.022a.857.857 0 0 0 .043-.025l.02-.013.02-.014.039-.031L3.834 3l.016-.018c.004-.007.01-.012.014-.02a.431.431 0 0 1 .013-.019.784.784 0 0 1 .01-.123 1.34 1.34 0 0 1 .034-.155l.01-.03.011-.03.013-.03.016-.029c.005-.01.01-.019.017-.028.006-.01.011-.02.02-.027a.054.054 0 0 1 .036-.012l.13-.244a.012.012 0 0 1 .021.012l-.131.246-.002.002v.001a.055.055 0 0 1-.005.034l-.016.023c-.006.008-.01.016-.015.025l-.014.025a.855.855 0 0 0-.024.054c-.005.009-.008.019-.011.028a3.118 3.118 0 0 0-.076.263v.003a.518.518 0 0 1-.01.026c-.003.009-.008.016-.013.024a.136.136 0 0 1-.015.023c-.005.008-.01.015-.017.022l-.02.02-.02.017a.208.208 0 0 1-.021.017l-.023.015a.48.48 0 0 1-.046.026l-.025.01a.368.368 0 0 1-.07.025 1.802 1.802 0 0 1-.034.263l.435-.2h.002a.012.012 0 0 1 .015.005v.001c.02.029.04.058.057.088.017.03.035.059.051.089.034.06.065.12.098.18l.05.088.053.088c.036.056.073.11.116.16h.13a.012.012 0 1 1 0 .025H4.46a.763.763 0 0 1-.158-.152 1.718 1.718 0 0 1-.215-.359 1.225 1.225 0 0 1-.066-.182l-.476.304a.257.257 0 0 1-.054.081v.117c.077.034.14.117.177.226a1.184 1.184 0 0 1 .1.06 2.12 2.12 0 0 1 .15.11 1.472 1.472 0 0 1 .104.095l.031.035c.02.024.04.048.058.074l.004.005v.004a5.063 5.063 0 0 0 .063.39l.01.043c.007.029.014.057.023.085.007.028.017.055.027.082l.01.042a.245.245 0 0 0 .013.04 3.534 3.534 0 0 0 .171.196.012.012 0 0 1-.017.017h-.001a2.226 2.226 0 0 0-.172-.198l-.001-.002a.278.278 0 0 0-.026-.038.266.266 0 0 1-.024-.04c-.007-.013-.01-.028-.016-.042a1.316 1.316 0 0 1-.035-.13l-.01-.044a2.592 2.592 0 0 1-.03-.221l-.006-.09a1.635 1.635 0 0 1-.003-.082.927.927 0 0 1-.077-.045l-.077-.051a2.246 2.246 0 0 1-.148-.108l-.072-.056-.023-.018a.704.704 0 0 1 .007.097c0 .25-.13.453-.29.453-.16 0-.29-.203-.29-.453 0-.031.003-.062.007-.091l-.016.012-.073.056a1.992 1.992 0 0 1-.147.108l-.077.05a.927.927 0 0 1-.077.046c0 .027-.001.055-.003.082l-.006.09a2.599 2.599 0 0 1-.03.22l-.01.045a1.306 1.306 0 0 1-.035.13c-.005.014-.009.029-.016.043a.267.267 0 0 1-.024.04.278.278 0 0 0-.026.037l-.001.002c-.03.032-.06.064-.088.097a2.224 2.224 0 0 0-.084.1.012.012 0 0 1-.02-.015l.001-.001a2.221 2.221 0 0 0 .172-.195.246.246 0 0 0 .013-.04c.003-.015.005-.03.01-.043.01-.027.02-.054.027-.082.009-.028.015-.056.023-.085l.01-.042a5.02 5.02 0 0 0 .064-.394l.002-.006a.864.864 0 0 1 .059-.074l.031-.035a1.588 1.588 0 0 1 .177-.152c.025-.019.051-.036.077-.053a1.186 1.186 0 0 1 .092-.056c.038-.116.107-.203.19-.235v-.119a.285.285 0 0 1-.039-.061l-.497-.317a1.222 1.222 0 0 1-.065.183 1.823 1.823 0 0 1-.215.358.763.763 0 0 1-.158.152h-.135a.012.012 0 1 1 0-.024h.13c.043-.05.08-.105.115-.161.019-.029.036-.058.053-.088.018-.029.034-.059.05-.088l.099-.18a2.728 2.728 0 0 1 .107-.177.011.011 0 0 1 .015-.007l.002.001.451.207a2.043 2.043 0 0 1-.045-.268.515.515 0 0 1-.075-.026l-.024-.011a.48.48 0 0 1-.047-.026L3.042 3.1a.207.207 0 0 1-.022-.017L3 3.066l-.02-.02-.017-.022a.135.135 0 0 1-.015-.023c-.004-.008-.01-.015-.012-.024a.518.518 0 0 1-.01-.026v-.003a3.134 3.134 0 0 0-.066-.235.675.675 0 0 0-.01-.028l-.01-.028a.852.852 0 0 0-.026-.054l-.013-.025-.016-.025-.015-.023a.055.055 0 0 1-.005-.034l-.002-.003-.131-.246a.012.012 0 0 1 .021-.012l.13.244c.015 0 .026.005.035.012.01.008.014.018.02.027.008.009.013.019.018.028l.015.03.014.029.01.03a.363.363 0 0 1 .02.06l.015.063a1.35 1.35 0 0 1 .017.124c.002.02.003.04.003.061a.426.426 0 0 1 .012.02c.004.007.01.012.015.019L2.993 3c.006.006.01.012.017.017l.038.03c.006.006.013.01.02.015l.02.013a.86.86 0 0 0 .044.025l.045.022.029.014a1.722 1.722 0 0 1-.008-.14c0-.057.022-.11.059-.148-.117.022-.198.04-.198-.1 0-.133.072-.277.18-.357l-.147-.183-.004-.005.002-.006a.645.645 0 0 0 .015-.154v-.039L3.1 1.966c0-.013-.003-.026-.004-.038a.381.381 0 0 0-.007-.038c-.003-.013-.004-.025-.008-.037l-.01-.037-.013-.035a.275.275 0 0 0-.015-.035l-.016-.034-.018-.032a.249.249 0 0 0-.02-.031l-.022-.03-.002-.004a.043.043 0 1 1 .073-.047l.02.037a.302.302 0 0 1 .02.037l.018.039.014.04c.004.012.009.025.012.039l.01.04.007.041c.003.013.003.027.005.04a.423.423 0 0 1 .003.042c0 .013.002.027.001.04v.041l-.004.04a.933.933 0 0 1-.03.154l.144.179a.292.292 0 0 1 .159-.05.29.29 0 0 1 .153.046l.14-.175a.678.678 0 0 1-.03-.153l-.003-.04v-.082c0-.014.002-.028.004-.041.001-.014.002-.028.005-.041l.007-.04.01-.041a.324.324 0 0 1 .012-.04l.014-.04.017-.038a.301.301 0 0 1 .02-.037l.02-.037a.043.043 0 1 1 .074.047l-.002.003-.022.03a.249.249 0 0 0-.02.032l-.019.032-.016.034a.276.276 0 0 0-.014.035l-.013.035-.01.037c-.004.012-.006.024-.008.037a.38.38 0 0 0-.007.038l-.005.038-.003.038v.039a.898.898 0 0 0 .015.154l.001.006-.003.005z"/></g></g><path d="M3.413 0a3.413 3.413 0 1 1 0 6.827 3.413 3.413 0 0 1 0-6.827z" style="fill:none"/><path class="fil3" d="m3.453 2.52.262-.327-.002.01a.668.668 0 0 1-.032-.158l-.003-.04v-.082c0-.014.002-.028.004-.041.001-.014.002-.028.005-.041l.007-.04.01-.041a.324.324 0 0 1 .012-.04l.014-.04.017-.038a.301.301 0 0 1 .02-.037l.02-.037a.043.043 0 1 1 .074.047l-.002.003-.022.03a.249.249 0 0 0-.02.032l-.019.032-.016.034a.276.276 0 0 0-.014.035l-.013.035-.01.037c-.004.012-.006.024-.008.037a.38.38 0 0 0-.007.038l-.005.038-.003.038v.039a.898.898 0 0 0 .015.154l.001.006-.003.005-.263.328a.012.012 0 0 1-.02-.015zM3.354 2.536l-.262-.328-.004-.005.002-.006a.645.645 0 0 0 .015-.154v-.039L3.1 1.966c0-.013-.003-.026-.004-.038a.381.381 0 0 0-.007-.038c-.003-.013-.004-.025-.008-.037l-.01-.037-.013-.035a.275.275 0 0 0-.015-.035l-.016-.034-.018-.032a.249.249 0 0 0-.02-.031l-.022-.03-.002-.004a.043.043 0 1 1 .073-.047l.02.037a.302.302 0 0 1 .02.037l.018.039.014.04c.004.012.009.025.012.039l.01.04.007.04c.003.014.003.028.005.042a.423.423 0 0 1 .003.04c0 .014.002.028.001.042v.04l-.004.04a.933.933 0 0 1-.031.16l-.003-.011.263.328a.012.012 0 0 1-.02.015z"/><path class="fil4" d="M3.49 3.85a.074.074 0 1 1-.149 0v-.242a.074.074 0 1 1 .149 0v.241zM3.777 2.747c0 .198-.161.082-.36.082-.197 0-.358.116-.358-.082s.16-.42.359-.42c.198 0 .359.222.359.42z"/><path class="fil3" d="m3.46 3.497.562-.258h.002a.012.012 0 0 1 .015.005v.001c.02.029.04.058.057.088.017.03.035.059.051.089.034.06.065.12.098.18l.05.088.053.088c.036.057.074.113.119.164l-.008-.003h.135a.012.012 0 1 1 0 .024H4.46a.763.763 0 0 1-.158-.152 1.718 1.718 0 0 1-.215-.359 1.225 1.225 0 0 1-.069-.197l.017.006-.52.332a.055.055 0 1 1-.053-.096zM3.558 3.164l.046-.02.046-.022.045-.022a.857.857 0 0 0 .043-.025l.02-.013.02-.014.039-.031L3.834 3l.016-.018c.004-.007.01-.012.014-.02a.449.449 0 0 1 .013-.02v.003a.776.776 0 0 1 .01-.125 1.34 1.34 0 0 1 .034-.155l.01-.03.011-.03.013-.03.016-.029c.005-.01.01-.019.017-.028.007-.01.011-.02.02-.027a.054.054 0 0 1 .036-.012l-.002.002.131-.246a.012.012 0 0 1 .022.012l-.131.246-.002.002v.001a.055.055 0 0 1-.005.034l-.016.023c-.006.008-.01.017-.015.025l-.014.025a.855.855 0 0 0-.024.054c-.005.009-.008.019-.011.028a3.118 3.118 0 0 0-.076.263v.003a.518.518 0 0 1-.01.026c-.003.009-.008.016-.013.024a.136.136 0 0 1-.015.023c-.005.008-.01.015-.017.022l-.02.02-.02.017a.208.208 0 0 1-.021.017l-.023.015a.48.48 0 0 1-.046.026l-.025.01a.468.468 0 0 1-.127.036.012.012 0 0 1-.007-.023zM3.518 3.928c.015.005.03.011.044.018l.043.02a1.157 1.157 0 0 1 .162.092 2.12 2.12 0 0 1 .15.11 1.472 1.472 0 0 1 .104.095l.031.035c.02.024.04.048.058.074l.004.005v.004a5.063 5.063 0 0 0 .063.39l.01.043c.007.029.014.057.023.085.007.028.017.055.027.082l.01.042a.243.243 0 0 0 .013.042l-.001-.002a3.58 3.58 0 0 0 .172.196.012.012 0 1 1-.018.016 2.226 2.226 0 0 0-.172-.197l-.001-.002a.278.278 0 0 0-.026-.038.266.266 0 0 1-.024-.04c-.007-.013-.01-.028-.016-.042a1.316 1.316 0 0 1-.035-.13l-.01-.044a2.592 2.592 0 0 1-.03-.221l-.006-.09a1.581 1.581 0 0 1-.003-.089l.004.009a.887.887 0 0 1-.081-.047l-.077-.051a2.246 2.246 0 0 1-.148-.108l-.072-.056-.072-.057a.985.985 0 0 1-.035-.03l-.035-.03c-.023-.02-.046-.04-.069-.063a.013.013 0 0 1 .013-.02zM3.313 3.593l-.52-.332.017-.006a1.222 1.222 0 0 1-.069.198 1.823 1.823 0 0 1-.215.358.763.763 0 0 1-.158.152h-.135a.012.012 0 1 1 0-.024h.135l-.008.003c.044-.051.082-.107.119-.164l.052-.088c.018-.029.034-.059.05-.088l.099-.18a2.728 2.728 0 0 1 .107-.177.011.011 0 0 1 .015-.007l.002.001.562.258a.055.055 0 1 1-.053.096zM3.263 3.188a.468.468 0 0 1-.128-.036l-.024-.011a.48.48 0 0 1-.047-.026L3.042 3.1a.207.207 0 0 1-.022-.017L3 3.066l-.02-.02-.017-.022a.135.135 0 0 1-.015-.023c-.004-.008-.01-.015-.012-.024a.518.518 0 0 1-.01-.026v-.003a3.134 3.134 0 0 0-.066-.235.675.675 0 0 0-.01-.028l-.01-.028a.852.852 0 0 0-.026-.054l-.013-.025-.016-.025-.015-.023a.055.055 0 0 1-.005-.034l-.002-.003-.131-.246a.012.012 0 0 1 .021-.012l.132.246-.003-.002c.016 0 .027.005.036.012.01.008.014.018.02.027.008.009.013.019.018.028l.015.03.014.029.01.03a.363.363 0 0 1 .02.06l.015.063a1.35 1.35 0 0 1 .017.124l.003.063v-.003l.012.02c.004.008.01.013.015.02L2.993 3c.006.006.01.012.017.017l.038.03c.006.006.013.01.02.015l.02.013a.86.86 0 0 0 .044.025l.045.022.045.022.047.02a.012.012 0 0 1-.006.024zM3.321 3.95l-.068.062-.035.03a.985.985 0 0 1-.036.03l-.071.057-.073.056a1.992 1.992 0 0 1-.147.108l-.077.05a.887.887 0 0 1-.081.048l.004-.009-.003.09c-.002.029-.003.059-.006.088a2.599 2.599 0 0 1-.03.222l-.01.044a1.306 1.306 0 0 1-.035.13c-.005.014-.009.029-.016.043a.267.267 0 0 1-.024.04.278.278 0 0 0-.026.037l-.001.002c-.03.032-.06.064-.088.097a2.224 2.224 0 0 0-.084.1.012.012 0 1 1-.019-.016 2.221 2.221 0 0 0 .173-.196l-.001.002a.244.244 0 0 0 .013-.042c.003-.014.005-.029.01-.042.01-.027.02-.054.027-.082.009-.028.015-.056.023-.085l.01-.042a5.025 5.025 0 0 0 .063-.39v-.005l.003-.005a.864.864 0 0 1 .059-.074l.031-.035a1.588 1.588 0 0 1 .177-.152c.025-.019.051-.036.077-.053a1.186 1.186 0 0 1 .162-.093l.043-.02a.613.613 0 0 1 .043-.017.013.013 0 0 1 .013.021z"/><path class="fil5" d="M3.7 4.208c0 .25-.13.453-.29.453-.16 0-.29-.203-.29-.453s.13-.454.29-.454c.16 0 .29.203.29.454zM3.628 2.996c0 .119-.01.692-.215.692-.17 0-.215-.573-.215-.692a.215.215 0 1 1 .43 0z"/><path class="fil6" d="M3.299 2.553a.07.07 0 1 1-.14 0 .07.07 0 0 1 .14 0zM3.68 2.553a.07.07 0 1 1-.14 0 .07.07 0 0 1 .14 0z"/></g></svg>