<svg xmlns="http://www.w3.org/2000/svg" xml:space="preserve" width="2048" height="2048" style="shape-rendering:geometricPrecision;text-rendering:geometricPrecision;image-rendering:optimizeQuality;fill-rule:evenodd;clip-rule:evenodd"><defs><style>.fil0{fill:#424242}</style></defs><g id="Layer_x0020_1"><g id="_290557592"><path id="_290557784" class="fil0" d="M520.701 460.288a715.208 715.208 0 0 1 112.584-91.743c-36.946-39.965-95.569-79.01-156.064-99.016-36.263-11.993-72.87-17.003-105.234-10.964-31.023 5.789-58.479 22.028-78.183 52.554-20.714 32.091-33.27 79.934-33.27 147.84 0 46.5 13.579 89.582 36.753 125.053 20.997 32.134 49.797 58.02 83.439 74.527 35.157-74.008 82.71-140.986 139.975-198.251z"/><path id="_290557616" class="fil0" d="M665.014 386.001a682.958 682.958 0 0 0-121.821 96.778C420.146 605.826 344.038 775.82 344.038 963.586c0 97.91 20.673 190.958 57.885 275.015 32.727 73.927 78.256 140.935 133.774 198.21a484.148 484.148 0 0 1-.794-27.872c0-61.575 11.473-124.548 32.395-185.057 19.49-56.367 47.188-110.505 81.442-159.284-19.72-13.56-38.139-29.085-54.66-46.177-19.929-20.615-37.083-43.553-50.425-68.118-21.657-39.883-30.814-79.518-29.504-117.523 1.404-40.759 14.748-79.35 37.55-114.15 96.675-147.56 212.069-129.896 339.44-110.4 43.327 6.63 88.123 13.49 133.506 13.49 45.052 0 89.603-6.837 132.737-13.454 127.193-19.515 242.778-37.248 339.303 111.017 22.632 34.763 35.845 73.242 37.172 113.819 1.243 37.918-7.924 77.441-29.514 117.202-13.342 24.565-30.497 47.504-50.426 68.117-16.521 17.092-34.94 32.617-54.66 46.178 34.255 48.778 61.952 102.917 81.443 159.285 20.922 60.51 32.395 123.481 32.395 185.055 0 9.446-.267 18.738-.794 27.874 55.518-57.275 101.047-124.284 133.774-198.21 37.213-84.06 57.885-177.109 57.885-275.016 0-187.767-76.108-357.76-199.155-480.806a682.953 682.953 0 0 0-121.827-96.783c-.428-.24-.848-.5-1.26-.782-103.914-64.408-226.474-101.591-357.72-101.591-131.24 0-253.797 37.181-357.71 101.584-.415.287-.841.55-1.275.793z"/><path id="_290558288" class="fil0" d="M1570.78 269.529c-60.495 20.006-119.118 59.05-156.063 99.017a715.27 715.27 0 0 1 112.582 91.743c57.265 57.265 104.818 124.243 139.976 198.252 33.644-16.506 62.444-42.393 83.44-74.525 23.175-35.471 36.753-78.556 36.753-125.058 0-67.906-12.555-115.748-33.27-147.84-19.705-30.526-47.161-46.764-78.183-52.554-32.366-6.039-68.97-1.028-105.235 10.964z"/><path id="_290557976" class="fil0" d="M1470.09 736.554c-85.296-131.016-191.319-114.75-307.988-96.85-44.334 6.803-90.12 13.828-137.46 13.828-47.667 0-93.702-7.048-138.228-13.863-116.828-17.882-222.667-34.083-308.126 96.356-19.728 30.11-31.263 63.175-32.454 97.75-1.122 32.557 6.84 66.727 25.65 101.368 11.926 21.958 27.396 42.601 45.457 61.285 18.307 18.938 39.304 35.83 61.998 50.01.643.35 1.27.75 1.873 1.198 7.05 5.24 8.519 15.205 3.28 22.253l-.041-.03c-36.952 49.731-66.573 105.812-86.809 164.337-19.718 57.026-30.531 116.485-30.531 174.743 0 120.057 46.429 212.753 122.245 276.677C772.319 1755.904 891.45 1792 1023.995 1792c132.546 0 251.675-36.097 335.04-106.384 75.816-63.924 122.245-156.62 122.245-276.677 0-58.258-10.813-117.716-30.532-174.742-20.102-58.139-49.467-113.862-86.078-163.35a15.872 15.872 0 0 1-1.516-2.053c-4.634-7.462-2.342-17.269 5.12-21.904l.014.023c22.987-14.275 44.248-31.336 62.76-50.485 18.063-18.684 33.532-39.328 45.458-61.285 18.752-34.536 26.723-68.594 25.662-101.048-1.13-34.531-12.532-67.52-32.078-97.542zm-180.799 106.413c0 40.995-33.233 74.228-74.228 74.228-40.992 0-74.225-33.233-74.225-74.228s33.233-74.226 74.225-74.226c40.995 0 74.228 33.231 74.228 74.226zm-11.031 601.654c6.588 5.8 7.228 15.841 1.429 22.43-31.784 36.09-71.125 65.411-115.563 85.5-42.78 19.34-90.225 30.107-140.132 30.107-49.908 0-97.353-10.767-140.132-30.108-44.438-20.088-83.78-49.409-115.563-85.5-5.8-6.588-5.16-16.63 1.429-22.429 6.587-5.8 16.63-5.16 22.429 1.43 28.855 32.764 64.517 59.359 104.751 77.548 38.714 17.503 81.738 27.247 127.086 27.247 45.347 0 88.371-9.744 127.086-27.247 40.234-18.189 75.895-44.784 104.751-77.549 5.8-6.588 15.842-7.228 22.43-1.429zm-131.964-344.485c0 107.4-93.9 105.422-93.9 40.65 0-25.932 21.02-46.952 46.95-46.952 25.931 0 46.95-19.63 46.95 6.302zm-197.652-6.302c25.932 0 46.95 21.02 46.95 46.952 0 64.772-93.9 66.75-93.9-40.65 0-25.931 21.018-6.302 46.95-6.302zM832.924 768.74c40.993 0 74.226 33.231 74.226 74.226s-33.233 74.228-74.227 74.228c-40.993 0-74.226-33.233-74.226-74.228s33.233-74.226 74.226-74.226z"/></g></g><path style="fill:none" d="M0 0h2048v2048H0z"/></svg>