<svg xmlns="http://www.w3.org/2000/svg" xml:space="preserve" width="655.359" height="655.359" style="shape-rendering:geometricPrecision;text-rendering:geometricPrecision;image-rendering:optimizeQuality;fill-rule:evenodd;clip-rule:evenodd" viewBox="0 0 6.827 6.827"><defs><clipPath id="id0"><path d="M3.413 0a3.413 3.413 0 1 1 0 6.827 3.413 3.413 0 0 1 0-6.827z"/></clipPath><style>.fil6{fill:#212121}.fil1{fill:#43a047}.fil5{fill:#4fc3f7}.fil3,.fil7{fill:#424242;fill-rule:nonzero}.fil3{fill:#4fc3f7}</style></defs><g id="Layer_x0020_1"><path d="M3.413 0a3.413 3.413 0 1 1 0 6.827 3.413 3.413 0 0 1 0-6.827z" style="fill:#81c784"/><g style="clip-path:url(#id0)"><g id="_637665304"><path id="_6559774001" class="fil1" d="m4.814 2.006 3.787 3.786-.001.004L4.813 2.01z"/><path id="_655976728" class="fil1" d="M8.692 5.993zM4.906 2.207z"/><path id="_655979752" class="fil1" d="m1.991 4.799 3.786 3.786-.005.001L1.986 4.8z"/><path id="_655979656" class="fil1" d="m2.06 4.797 3.787 3.787-.003-.001-3.786-3.786z"/><path id="_655979704" class="fil1" d="m5.28 1.563 3.786 3.786v.001l-.004.002-.006.004-.007.005-.01.006-.01.008-.012.008-.014.01-.015.01-.016.012-.017.012-.018.013-.018.013-.02.015-.019.014-.02.016-.02.015-.02.016-.02.016-.02.016-.018.016-.019.017-.018.016-.017.016-.016.016-.015.015-.014.015-.013.015-.01.014-.01.014-.007.012-.006.013L4.83 1.953l.005-.012.008-.013.01-.013.01-.014.013-.015.014-.015.015-.016.016-.015.017-.016.018-.017.018-.016.02-.016.02-.016.019-.016.02-.016.02-.016.02-.015.02-.015.018-.014.019-.013.018-.013.017-.013.016-.011.015-.01.013-.01.013-.009.01-.007.01-.006.007-.005.006-.004.003-.002z"/><path id="_655979608" class="fil1" d="M4.83 1.953 8.618 5.74v.001l-.001.001v.002l-.001.001v.002l-.001.001v.001l-.001.002-3.787-3.786v-.002l.001-.001V1.96l.001-.001v-.001l.001-.002.001-.001z"/><path id="_655979032" class="fil1" d="M4.826 1.965 8.613 5.75l-.001.002-3.786-3.786z"/><path id="_655979680" class="fil1" d="m4.826 1.967 3.786 3.786v.002l-.001.001v.001l-.001.001v.003h-.001L4.823 1.976v-.002l.001-.002v-.002l.001-.001z"/><path id="_655979056" class="fil1" d="m4.823 1.975 3.786 3.787-.001.003L4.82 1.98z"/><path id="_655979200" class="fil1" d="m4.821 1.979 3.787 3.786v.001l-.001.002v.002l-.001.001v.001L4.819 1.986v-.001l.001-.002V1.98l.001-.001z"/><path id="_655979320" class="fil1" d="m4.82 1.986 3.786 3.786-.002.004L4.818 1.99z"/><path id="_655979296" class="fil1" d="m4.818 1.99 3.786 3.786-.001.006-3.786-3.786z"/><path id="_655979584" class="fil1" d="m4.817 1.996 3.786 3.786-.001.004L4.816 2z"/><path id="_655980496" class="fil1" d="m4.816 2 3.786 3.786-.002.006-3.786-3.786z"/><path id="_655980328" class="fil1" d="m5 2.196 3.786 3.787L5 2.196z"/><path id="_655979968" class="fil1" d="M4.813 2.01 8.6 5.796l-.001.005-3.787-3.786z"/><path id="_655980208" class="fil1" d="M4.812 2.015 8.6 5.801l-.001.005-3.786-3.787z"/><path id="_655980424" class="fil1" d="m4.812 2.02 3.786 3.786v.005L4.81 2.024z"/><path id="_655980472" class="fil1" d="m4.811 2.024 3.786 3.787v.004L4.81 2.028z"/><path id="_655980520" class="fil1" d="m4.81 2.028 3.787 3.787v.005L4.81 2.033z"/><path id="_655980232" class="fil1" d="M4.81 2.033 8.596 5.82v.003L4.81 2.037z"/><path id="_655980064" class="fil1" d="m4.81 2.037 3.786 3.786v.005L4.809 2.042z"/><path id="_655980088" class="fil1" d="m4.81 2.042 3.786 3.786v.004L4.809 2.046z"/><path id="_655980760" class="fil1" d="m4.81 2.046 3.786 3.786v.004L4.809 2.05v-.003z"/><path id="_655980856" class="fil1" d="m4.81 2.05 3.786 3.786v.004L4.809 2.054z"/><path id="_655980736" class="fil1" d="M4.81 2.054 8.595 5.84v.004L4.809 2.058z"/><path id="_655980808" class="fil1" d="m4.81 2.058 3.786 3.786v.004L4.81 2.062z"/><path id="_655981288" class="fil1" d="m4.81 2.062 3.786 3.786v.004L4.81 2.066z"/><path id="_655981192" class="fil1" d="m4.81 2.066 3.786 3.786v.003L4.81 2.07z"/><path id="_655980976" class="fil1" d="m4.81 2.07 3.787 3.785v.004L4.811 2.073z"/><path id="_655981024" class="fil1" d="m4.811 2.073 3.786 3.786v.004L4.813 2.076z"/><path id="_655981096" class="fil1" d="m4.812 2.076 3.786 3.787v.003L4.812 2.08z"/><path id="_655980568" class="fil1" d="m4.812 2.08 3.786 3.786.001.004-3.786-3.787z"/><path id="_655982008" class="fil1" d="M4.813 2.083 8.599 5.87l.001.003-3.786-3.786z"/><path id="_655981672" class="fil1" d="M4.814 2.087 8.6 5.873l.001.003L4.815 2.09z"/><path id="_655982032" class="fil1" d="M4.815 2.09 8.6 5.876l.001.004-3.786-3.787z"/><path id="_655981360" class="fil1" d="M4.816 2.093 8.602 5.88l.001.003-3.786-3.787z"/><path id="_655981312" class="fil1" d="m4.817 2.096 3.786 3.787.001.003L4.818 2.1z"/><path id="_655981336" class="fil1" d="m4.818 2.1 3.786 3.786.001.003L4.82 2.103z"/><path id="_655981480" class="fil1" d="m4.82 2.103 3.785 3.786.002.003L4.82 2.106z"/><path id="_655981504" class="fil1" d="m4.82 2.106 3.787 3.786.001.003-3.786-3.787z"/><path id="_655981792" class="fil1" d="m4.822 2.108 3.786 3.787.002.003L4.823 2.11z"/><path id="_655981840" class="fil1" d="M4.823 2.111 8.61 5.898V5.9L4.826 2.114z"/><path id="_655981960" class="fil1" d="M4.825 2.114 8.61 5.9l.002.003-3.787-3.786z"/><path id="_655982248" class="fil1" d="m4.826 2.117 3.787 3.786.001.003-3.786-3.787z"/><path id="_655982224" class="fil1" d="m4.828 2.12 3.786 3.786.002.003L4.83 2.122z"/><path id="_655982176" class="fil1" d="M4.83 2.122 8.616 5.91l.001.002-3.786-3.786z"/><path id="_655982632" class="fil1" d="M4.831 2.125 8.617 5.91l.002.002-3.786-3.786z"/><path id="_655982080" class="fil1" d="m4.833 2.127 3.786 3.786.002.003L4.835 2.13z"/><path id="_655982272" class="fil1" d="M4.835 2.13 8.62 5.916l.002.002-3.786-3.786z"/><path id="_655982128" class="fil1" d="m4.837 2.132 3.786 3.786.002.002-3.786-3.786z"/><path id="_655982320" class="fil1" d="m5 2.196 3.786 3.787-3.787-3.787z"/><path id="_655982560" class="fil1" d="m5 2.196 3.785 3.787L5 2.196z"/><path id="_655982728" class="fil1" d="m4.999 2.196 3.786 3.787h-.001L4.998 2.196z"/><path id="_655982440" class="fil1" d="m4.998 2.196 3.786 3.787h-.001L4.996 2.197z"/><path id="_655983568" class="fil1" d="m4.996 2.196 3.787 3.787h-.001L4.995 2.197z"/><path id="_655982968" class="fil1" d="m4.995 2.197 3.787 3.786H8.78L4.994 2.197z"/><path id="_655983112" class="fil1" d="M4.994 2.197 8.78 5.983 4.992 2.197z"/><path id="_655983040" class="fil1" d="M4.993 2.197 8.78 5.983h-.001L4.99 2.197z"/><path id="_655982848" class="fil1" d="m4.991 2.197 3.787 3.786h-.001L4.99 2.197z"/><path id="_655982896" class="fil1" d="m4.99 2.197 3.787 3.786L4.99 2.197z"/><path id="_655983088" class="fil1" d="m4.99 2.197 3.786 3.786h-.002L4.987 2.197z"/><path id="_655983160" class="fil1" d="m4.987 2.197 3.787 3.786-3.787-3.786z"/><path id="_655983208" class="fil1" d="m4.987 2.197 3.786 3.786h-.002L4.985 2.197z"/><path id="_655983352" class="fil1" d="m4.985 2.197 3.786 3.786H8.77L4.984 2.197z"/><path id="_655984072" class="fil1" d="M4.984 2.197 8.77 5.983 4.982 2.197z"/><path id="_655983952" class="fil1" d="m4.983 2.197 3.786 3.786h-.002L4.98 2.198z"/><path id="_655984024" class="fil1" d="m4.98 2.197 3.787 3.787L4.98 2.197z"/><path id="_655983760" class="fil1" d="m4.98 2.197 3.786 3.787h-.003L4.977 2.197z"/><path id="_655984048" class="fil1" d="m4.977 2.197 3.786 3.787-3.786-3.787z"/><path id="_655983784" class="fil1" d="m4.977 2.197 3.786 3.787H8.76L4.975 2.198z"/><path id="_655984120" class="fil1" d="M4.975 2.198 8.76 5.984h-.003L4.972 2.198z"/><path id="_655983640" class="fil1" d="m4.972 2.198 3.786 3.786-3.786-3.786z"/><path id="_655983736" class="fil1" d="m4.971 2.198 3.787 3.786h-.004L4.968 2.198z"/><path id="_655983976" class="fil1" d="m4.968 2.198 3.786 3.786-3.787-3.786z"/><path id="_655984288" class="fil1" d="m4.967 2.198 3.787 3.786H8.75L4.965 2.199z"/><path id="_655984768" class="fil1" d="m4.965 2.198 3.786 3.787h-.003L4.962 2.199z"/><path id="_655985080" class="fil1" d="m4.962 2.199 3.786 3.786-3.786-3.786z"/><path id="_655984744" class="fil1" d="m4.962 2.199 3.786 3.786h-.004L4.958 2.2z"/><path id="_655985128" class="fil1" d="m4.958 2.2 3.786 3.785h-.001L4.957 2.2z"/><path id="_655984576" class="fil1" d="m4.957 2.2 3.786 3.786H8.74L4.954 2.199z"/><path id="_655984624" class="fil1" d="m4.954 2.2 3.787 3.786h-.003L4.952 2.2z"/><path id="_655985008" class="fil1" d="m4.952 2.2 3.786 3.786L4.95 2.2z"/><path id="_655984792" class="fil1" d="m4.951 2.2 3.786 3.786h-.005L4.946 2.2z"/><path id="_655984840" class="fil1" d="m4.946 2.2 3.786 3.787L4.946 2.2z"/><path id="_655984672" class="fil1" d="m4.946 2.2 3.786 3.787H8.73L4.943 2.201z"/><path id="_655985704" class="fil1" d="m4.943 2.2 3.786 3.787h-.003L4.94 2.202z"/><path id="_655985392" class="fil1" d="m4.94 2.201 3.786 3.787L4.939 2.2z"/><path id="_655985296" class="fil1" d="m4.94 2.201 3.786 3.787H8.72L4.934 2.202z"/><path id="_655985512" class="fil1" d="M4.934 2.202 8.72 5.988 4.932 2.202z"/><path id="_655985464" class="fil1" d="M4.933 2.202 8.72 5.988l-.006.001-3.786-3.786z"/><path id="_655985848" class="fil1" d="m4.927 2.203 3.786 3.786-3.786-3.786z"/><path id="_655985560" class="fil1" d="M4.927 2.203 8.713 5.99H8.71L4.924 2.205z"/><path id="_655985680" class="fil1" d="M4.924 2.204 8.71 5.99h-.004L4.92 2.204z"/><path id="_655985344" class="fil1" d="M4.92 2.204 8.706 5.99l-.006.002-3.787-3.787z"/><path id="_655985272" class="fil1" d="M4.913 2.205 8.7 5.992 4.912 2.205z"/><path id="_655985176" class="fil1" d="M4.913 2.205 8.7 5.992h-.007L4.906 2.208z"/><path id="_655986544" class="fil1" d="m4.906 2.207 3.786 3.786-.007.001L4.9 2.208z"/><path id="_655986112" class="fil1" d="m4.899 2.208 3.786 3.786L4.9 2.208z"/><path id="_655986328" class="fil1" d="m4.899 2.208 3.786 3.786-.007.002L4.892 2.21z"/><path id="_655986184" class="fil1" d="m4.892 2.21 3.786 3.786h-.005L4.887 2.212z"/><path id="_655986136" class="fil1" d="m4.887 2.21 3.786 3.787H8.67L4.884 2.211z"/><path id="_655985992" class="fil1" d="M4.884 2.211 8.67 5.997 4.884 2.212z"/><path id="_655986280" class="fil1" d="M4.884 2.211 8.67 5.998h-.003L4.881 2.212z"/><path id="_655986376" class="fil1" d="m4.881 2.212 3.786 3.786L8.662 6 4.876 2.213z"/><path id="_655986424" class="fil1" d="M4.876 2.213 8.662 6H8.66L4.874 2.215z"/><path id="_655986040" class="fil1" d="M4.874 2.214 8.66 6 8.654 6 4.868 2.215z"/><path id="_655986472" class="fil1" d="m4.868 2.215 3.786 3.786-.003.001-3.786-3.786z"/><path id="_655987048" class="fil1" d="M4.865 2.216 8.65 6.002l-.004.001L4.86 2.217z"/><path id="_655987144" class="fil1" d="m4.86 2.217 3.787 3.786-.004.001-3.787-3.786z"/><path id="_655987216" class="fil1" d="m4.856 2.218 3.787 3.786-.005.002-3.786-3.787z"/><path id="_655986688" class="fil1" d="m4.852 2.22 3.786 3.786h-.003L4.848 2.22z"/><path id="_655986760" class="fil1" d="m4.848 2.22 3.787 3.787-.005.001-3.786-3.786z"/><path id="_655986784" class="fil1" d="M4.844 2.222 8.63 6.008l-.003.001L4.84 2.223z"/><path id="_655987096" class="fil1" d="m4.84 2.223 3.787 3.786-.005.002-3.787-3.787z"/><path id="_655986904" class="fil1" d="m4.835 2.224 3.787 3.787h-.004L4.832 2.226z"/><path id="_655987264" class="fil1" d="m4.832 2.225 3.786 3.787-.005.001-3.786-3.786z"/><path id="_655987120" class="fil1" d="m4.827 2.227 3.786 3.786-.003.001-3.786-3.786z"/><path id="_655988056" class="fil1" d="M4.824 2.228 8.61 6.014l-.005.002L4.819 2.23z"/><path id="_655987864" class="fil1" d="m4.819 2.23 3.786 3.786-.004.002L4.814 2.23z"/><path id="_655987624" class="fil1" d="m4.814 2.231 3.787 3.787-.004.001L4.81 2.233z"/><path id="_655988008" class="fil1" d="m4.81 2.233 3.787 3.786-.005.002-3.786-3.786z"/><path id="_655988176" class="fil1" d="M4.806 2.235 8.592 6.02l-.004.001-3.786-3.786z"/><path id="_655987480" class="fil1" d="m4.802 2.236 3.786 3.786-.004.002-3.787-3.786z"/><path id="_655987552" class="fil1" d="m4.797 2.238 3.787 3.786-.005.002L4.793 2.24z"/><path id="_655987504" class="fil1" d="m4.793 2.24 3.786 3.786-.004.002L4.789 2.24z"/><path id="_655987672" class="fil1" d="m4.789 2.241 3.786 3.787-.004.001-3.786-3.786z"/><path id="_655987936" class="fil1" d="M4.785 2.243 8.57 6.03l-.005.002L4.78 2.245z"/><path id="_655988416" class="fil1" d="m4.78 2.245 3.786 3.786-.004.002-3.786-3.786z"/><path id="_655993984" class="fil1" d="m4.776 2.247 3.786 3.786-.004.002L4.77 2.25z"/><path id="_462920064" class="fil1" d="m4.771 2.249 3.787 3.786-.004.002-3.787-3.786z"/><path id="_462920712" class="fil1" d="m4.767 2.251 3.787 3.786-.005.002-3.786-3.786z"/><path id="_462920280" class="fil1" d="m4.763 2.253 3.786 3.786-.004.003-3.787-3.787z"/><path id="_462919968" class="fil1" d="m4.758 2.255 3.787 3.787-.004.002-3.787-3.787z"/><path id="_462920424" class="fil1" d="m4.754 2.257 3.787 3.787-.005.002L4.75 2.26z"/><path id="_462920016" class="fil1" d="m4.75 2.26 3.786 3.786-.004.002-3.786-3.786z"/><path id="_462920136" class="fil1" d="m4.746 2.262 3.786 3.786-.004.003L4.74 2.264z"/><path id="_462920208" class="fil1" d="m4.741 2.264 3.787 3.787-.004.002-3.787-3.786z"/><path id="_462920112" class="fil1" d="m4.737 2.267 3.787 3.786-.005.003-3.786-3.787z"/><path id="_462920376" class="fil1" d="m4.733 2.27 3.786 3.786-.004.002-3.786-3.786z"/><path id="_462920592" class="fil1" d="m4.729 2.272 3.786 3.786-.004.003-3.786-3.787z"/><path id="_462921384" class="fil1" d="M4.725 2.274 8.51 6.061l-.004.002L4.72 2.277z"/><path id="_462921408" class="fil1" d="m4.72 2.277 3.787 3.786-.005.003L4.716 2.28z"/><path id="_462921312" class="fil1" d="m4.716 2.28 3.786 3.786-.004.003-3.786-3.787z"/><path id="_462920856" class="fil1" d="M4.712 2.282 8.498 6.07l-.004.003-3.786-3.787z"/><path id="_462920952" class="fil1" d="m4.708 2.285 3.786 3.787-.004.002-3.786-3.786z"/><path id="_462921336" class="fil1" d="M4.704 2.288 8.49 6.074l-.004.003L4.7 2.291z"/><path id="_462921456" class="fil1" d="m4.7 2.291 3.786 3.786-.004.003-3.786-3.786z"/><path id="_462921072" class="fil1" d="M4.696 2.294 8.482 6.08l-.004.004L4.69 2.297z"/><path id="_462921216" class="fil1" d="m4.691 2.297 3.787 3.787-.004.003L4.688 2.3z"/><path id="_462921240" class="fil1" d="m4.688 2.3 3.786 3.787-.004.003-3.787-3.786z"/><path id="_462921672" class="fil1" d="M4.683 2.304 8.47 6.09l-.004.003L4.68 2.307z"/><path id="_462921792" class="fil1" d="m4.68 2.307 3.786 3.786-.004.003L4.676 2.31z"/><path id="_462922248" class="fil1" d="m4.676 2.31 3.786 3.786-.004.004-3.786-3.786z"/><path id="_462922056" class="fil1" d="M4.672 2.314 8.458 6.1l-.004.003-3.786-3.786z"/><path id="_462921504" class="fil1" d="m4.668 2.317 3.786 3.786-.004.004L4.664 2.32z"/><path id="_462921912" class="fil1" d="M4.664 2.32 8.45 6.108l-.003.003L4.66 2.324z"/><path id="_462921600" class="fil1" d="M4.66 2.324 8.447 6.11l-.004.004-3.786-3.786z"/><path id="_462921840" class="fil1" d="m4.657 2.328 3.786 3.786-.004.004L4.653 2.33z"/><path id="_462921984" class="fil1" d="m4.653 2.331 3.786 3.787-.004.004L4.65 2.335z"/><path id="_462922008" class="fil1" d="m4.65 2.335 3.785 3.787-.003.004-3.786-3.787z"/><path id="_462922896" class="fil1" d="m4.646 2.34 3.786 3.786-.004.003-3.786-3.786z"/><path id="_462922320" class="fil1" d="M4.642 2.343 8.428 6.13l-.003.005-3.787-3.787z"/><path id="_462922920" class="fil1" d="m4.638 2.347 3.787 3.787-.004.004L4.635 2.35z"/><path id="_462922968" class="fil1" d="m4.635 2.351 3.786 3.787-.003.004L4.63 2.356z"/><path id="_462922464" class="fil1" d="m4.631 2.356 3.787 3.786-.003.004L4.628 2.36z"/><path id="_462922536" class="fil1" d="m4.628 2.36 3.787 3.786-.004.005-3.786-3.787z"/><path id="_462922680" class="fil1" d="M4.625 2.364 8.41 6.151l-.003.004-3.786-3.787z"/><path id="_462923016" class="fil1" d="m4.622 2.368 3.786 3.787-.003.005-3.787-3.787z"/><path id="_462922608" class="fil1" d="M4.618 2.373 8.405 6.16l-.003.004-3.787-3.787z"/><path id="_462922848" class="fil1" d="m4.615 2.377 3.787 3.787-.004.005-3.786-3.786z"/><path id="_462923088" class="fil1" d="m4.612 2.383 3.786 3.786-.003.004L4.61 2.387z"/><path id="_462923784" class="fil1" d="m4.61 2.387 3.785 3.786-.003.005-3.786-3.786z"/><path id="_462923064" class="fil1" d="m4.606 2.392 3.786 3.786-.002.005-3.787-3.787z"/><path id="_462923160" class="fil1" d="M4.603 2.396 8.39 6.183l-.003.005L4.6 2.402z"/><path id="_462923712" class="fil1" d="m4.6 2.402 3.787 3.786-.003.005-3.786-3.787z"/><path id="_462923736" class="fil1" d="m4.598 2.406 3.786 3.787v.001l-.001.001-.001.002-.001.001V6.2L4.594 2.413v-.001h.001V2.41h.001v-.002h.001z"/><path id="_462923376" class="fil1" d="m4.594 2.413 3.787 3.786-.002.004-3.787-3.786z"/><path id="_462923448" class="fil1" d="M4.592 2.417 8.38 6.203l-.001.001v.002h-.001l-.001.002v.002h-.001v.002l-.002.002-3.786-3.787v-.001l.001-.001.001-.002v-.001l.001-.001.001-.002v-.001z"/><path id="_462923304" class="fil1" d="m4.587 2.427 3.786 3.787-.01.024-.007.024-.005.023-.002.023v.044l.004.022.005.02.007.02.008.02.009.019.01.018.011.018.012.016.013.016.013.016L4.655 2.75l-.013-.016-.013-.016-.012-.017-.011-.017-.01-.018-.01-.02-.008-.019-.006-.02-.005-.02-.004-.022-.001-.022v-.022l.003-.023.005-.024.007-.023z"/><path id="_462923568" class="fil1" d="m4.813 2.878 3.786 3.786h-.003l-.003-.001-.004-.001-.006-.001-.007-.001-.007-.002H8.56L4.774 2.87l.008.001.008.001.007.002h.005l.005.001.003.001h.002z"/><path id="_462923664" class="fil1" d="M4.774 2.87 8.56 6.658h-.002l-.001.001h-.005L4.765 2.87h.008z"/><path id="_462923856" class="fil1" d="m4.765 2.871 3.787 3.786-.006-.002L4.76 2.869z"/><path id="_462924264" class="fil1" d="m3.737 2.05 3.786 3.787v.002l-.001.002v.002l-.002.004v.004l-.001.004-.001.006v.005l-.002.006V5.917l.002.009.001.008.002.01.002.008.003.009.004.009.004.009.004.008.006.009.006.009.007.008L3.77 2.227l-.007-.009-.006-.008-.005-.009-.005-.009-.004-.009-.003-.008-.003-.01-.002-.008-.002-.009-.002-.009v-.008l-.001-.008V2.08l.002-.006V2.07l.001-.005.001-.003.001-.004v-.003l.001-.002z"/><path id="_462924456" class="fil1" d="M4.432 2.905 8.218 6.69l-.017.025-.013.026-.01.026-.006.027-.004.026v.026l.002.027.004.026.007.026.008.025.009.025.01.024.012.024.011.022.012.022.012.02.012.02.01.018.01.017.01.016.006.013.006.012.003.01.001.009-.001.006-.005.005-.008.001h-.011l-.015-.003-.02-.005-.023-.008-.028-.01-3.786-3.787.028.01.023.009.02.005.015.003h.011l.008-.002.004-.004.002-.006-.001-.009-.003-.01-.006-.012-.007-.014-.009-.015-.01-.017-.01-.018-.012-.02-.012-.02-.012-.022-.012-.023-.01-.023-.011-.024-.01-.025-.008-.026-.006-.025-.004-.027-.002-.026v-.026l.003-.027.007-.026.01-.026.013-.026z"/><path id="_462924000" class="fil1" d="m4.416 3.402 3.786 3.786H8.2l-.002-.001-.002-.001h-.002l-.002-.001-.001-.001h-.002l-.002-.002L4.4 3.396h.001l.002.002h.002l.002.001h.002l.002.001.002.001z"/><path id="_462923928" class="fil1" d="m4.4 3.396 3.787 3.786h-.004L4.397 3.394z"/><path id="_462924504" class="fil1" d="M4.397 3.395 8.183 7.18H8.18L8.18 7.18h-.002v-.001h-.002l-.002-.001L4.385 3.39h.001l.002.001.002.001h.002l.002.001z"/><path id="_462924552" class="fil1" d="m4.386 3.391 3.786 3.787-.005-.002L4.38 3.39z"/><path id="_462924360" class="fil1" d="m4.38 3.39 3.787 3.786h-.002l-.002-.001H8.16l-.001-.001h-.002L4.372 3.386h.002l.002.001h.002l.001.001z"/><path id="_462924312" class="fil1" d="m4.372 3.387 3.786 3.786-.005-.001-3.787-3.786z"/><path id="_462924336" class="fil1" d="m4.366 3.386 3.787 3.786H8.15V7.17h-.002l-.002-.001h-.002L4.358 3.382h.002v.001h.004l.001.001z"/><path id="_462924576" class="fil1" d="M4.358 3.383 8.144 7.17h-.006L4.35 3.381z"/><path id="_462924888" class="fil1" d="m4.351 3.382 3.787 3.786h-.004l-.002-.001H8.13L4.344 3.38h.003v.001h.004z"/><path id="_462925296" class="fil1" d="M4.344 3.38 8.13 7.166h-.005L4.338 3.378z"/><path id="_462924624" class="fil1" d="m4.338 3.38 3.787 3.785h-.007l-.001-.001-3.786-3.786h.006z"/><path id="_462925128" class="fil1" d="m4.33 3.378 3.787 3.786h-.005L4.325 3.376z"/><path id="_462924672" class="fil1" d="m4.325 3.377 3.787 3.786h-.008L4.318 3.375h.006z"/><path id="_462924696" class="fil1" d="m4.318 3.376 3.786 3.786h-.006L4.312 3.375z"/><path id="_462925080" class="fil1" d="m4.312 3.375 3.786 3.787h-.005V7.16h-.001L4.305 3.375h.006z"/><path id="_462924864" class="fil1" d="M4.305 3.375 8.092 7.16h-.006L4.299 3.374z"/><path id="_462925008" class="fil1" d="m4.3 3.374 3.786 3.787h-.007L4.293 3.373H4.3z"/><path id="_462925056" class="fil1" d="M4.293 3.374 8.08 7.16h-.005L4.287 3.374z"/><path id="_462925920" class="fil1" d="M4.287 3.374 8.074 7.16h-.006L4.28 3.374h.006z"/><path id="_462925512" class="fil1" d="M4.281 3.374 8.068 7.16H8.06L4.275 3.374h.006z"/><path id="_462925464" class="fil1" d="M4.275 3.374 8.061 7.16h-.005L4.27 3.374z"/><path id="_462926088" class="fil1" d="M4.27 3.374 8.056 7.16H8.05L4.264 3.376h.005z"/><path id="_462925800" class="fil1" d="M4.264 3.375 8.05 7.16h-.005L4.259 3.375z"/><path id="_462925368" class="fil1" d="m4.259 3.375 3.786 3.786-.006.001-3.786-3.786z"/><path id="_462925824" class="fil1" d="m4.253 3.376 3.786 3.786h-.005L4.248 3.377z"/><path id="_462925632" class="fil1" d="m4.248 3.376 3.786 3.787h-.005L4.243 3.378z"/><path id="_462926040" class="fil1" d="m4.243 3.377 3.786 3.787h-.006L4.237 3.379z"/><path id="_462925680" class="fil1" d="m4.237 3.378 3.786 3.787h-.005L4.232 3.38z"/><path id="_462925440" class="fil1" d="m4.232 3.38 3.786 3.786h-.005L4.227 3.382z"/><path id="_462926136" class="fil1" d="m4.227 3.38 3.786 3.787-.005.001-3.786-3.786z"/><path id="_462926664" class="fil1" d="m4.222 3.382 3.786 3.786-.005.001-3.786-3.786z"/><path id="_462926304" class="fil1" d="M4.217 3.383 8.003 7.17l-.005.002-3.786-3.786z"/><path id="_462926856" class="fil1" d="M4.212 3.385 7.998 7.17l-.005.002-3.786-3.787z"/><path id="_462926736" class="fil1" d="m4.207 3.386 3.786 3.787-.004.001-3.787-3.786z"/><path id="_462926352" class="fil1" d="M4.202 3.388 7.99 7.174l-.005.002L4.198 3.39z"/><path id="_462926496" class="fil1" d="m4.198 3.39 3.786 3.786-.005.002-3.786-3.786z"/><path id="_462926472" class="fil1" d="M4.193 3.392 7.98 7.178l-.004.002L4.19 3.394z"/><path id="_462926184" class="fil1" d="M4.189 3.394 7.975 7.18l-.005.002-3.786-3.786z"/><path id="_462926256" class="fil1" d="M4.184 3.396 7.97 7.182l-.004.002L4.18 3.398z"/><path id="_462926928" class="fil1" d="m4.18 3.398 3.786 3.786-.004.002L4.176 3.4z"/><path id="_462927120" class="fil1" d="m4.176 3.4 3.786 3.786-.004.003-3.786-3.787z"/><path id="_462927360" class="fil1" d="M4.172 3.402 7.958 7.19l-.004.002-3.787-3.786z"/><path id="_462927384" class="fil1" d="M4.167 3.405 7.954 7.19l-.004.002-3.787-3.786z"/><path id="_462927000" class="fil1" d="M4.163 3.407 7.95 7.193l-.004.003L4.159 3.41z"/><path id="_462927192" class="fil1" d="m4.16 3.41 3.786 3.786-.004.003-3.787-3.787z"/><path id="_462927528" class="fil1" d="M4.155 3.412 7.942 7.2l-.004.002-3.786-3.786z"/><path id="_462927144" class="fil1" d="M4.152 3.415 7.938 7.2l-.004.003-3.786-3.786z"/><path id="_462927216" class="fil1" d="m4.148 3.418 3.786 3.786-.004.003L4.144 3.42z"/><path id="_462927312" class="fil1" d="M4.144 3.42 7.93 7.207l-.003.003L4.14 3.423z"/><path id="_462927480" class="fil1" d="M4.14 3.423 7.927 7.21l-.004.002-3.786-3.786z"/><path id="_462928176" class="fil1" d="m4.137 3.426 3.786 3.786-.003.003L4.133 3.43z"/><path id="_462928344" class="fil1" d="M4.133 3.43 7.92 7.214l-.004.003L4.13 3.432z"/><path id="_462927720" class="fil1" d="m4.13 3.432 3.786 3.786-.003.003-3.786-3.786z"/><path id="_462928128" class="fil1" d="m4.127 3.435 3.786 3.786-.004.004-3.786-3.787z"/><path id="_462928296" class="fil1" d="M4.123 3.438 7.91 7.225l-.003.003L4.12 3.442z"/><path id="_462928320" class="fil1" d="m4.12 3.442 3.786 3.786-.003.003-3.786-3.786z"/><path id="_462928224" class="fil1" d="M4.117 3.445 7.903 7.23l-.003.003-3.786-3.786z"/><path id="_462927888" class="fil1" d="M4.114 3.448 7.9 7.234l-.003.004L4.11 3.45z"/><path id="_462927936" class="fil1" d="m4.11 3.451 3.787 3.787-.003.003-3.786-3.786z"/><path id="_462928248" class="fil1" d="M4.108 3.455 7.894 7.24l-.003.003-3.786-3.786z"/><path id="_462929088" class="fil1" d="M4.105 3.458 7.89 7.244l-.003.004L4.102 3.46z"/><path id="_462928728" class="fil1" d="m4.102 3.461 3.786 3.787-.003.003L4.1 3.465z"/><path id="_462928800" class="fil1" d="M4.099 3.465 7.885 7.25l-.003.003-3.786-3.786z"/><path id="_462928464" class="fil1" d="m4.096 3.468 3.786 3.786-.002.004-3.786-3.786z"/><path id="_462928632" class="fil1" d="M4.094 3.472 7.88 7.258l-.003.003-3.786-3.786z"/><path id="_462928704" class="fil1" d="m4.09 3.475 3.787 3.786-.002.004-3.787-3.786z"/><path id="_462929160" class="fil1" d="m4.088 3.479 3.787 3.786-.003.003-3.786-3.786z"/><path id="_462928992" class="fil1" d="m4.086 3.482 3.786 3.786-.002.004-3.787-3.786z"/><path id="_462928488" class="fil1" d="M4.083 3.486 7.87 7.272l-.003.004-3.786-3.787z"/><path id="_462928848" class="fil1" d="m4.08 3.49 3.787 3.786-.002.003-3.786-3.786z"/><path id="_462928536" class="fil1" d="m4.079 3.493 3.786 3.786-.003.004-3.786-3.786z"/><path id="_462929400" class="fil1" d="m4.076 3.497 3.786 3.786-.002.003L4.074 3.5z"/><path id="_462929664" class="fil1" d="M4.074 3.5 7.86 7.286l-.002.004-3.786-3.787z"/><path id="_462929616" class="fil1" d="M4.072 3.503 7.858 7.29l-.002.004L4.07 3.507z"/><path id="_462929808" class="fil1" d="m4.07 3.507 3.786 3.787-.002.003-3.786-3.786z"/><path id="_462929256" class="fil1" d="m4.068 3.51 3.786 3.787-.002.004-3.786-3.787z"/><path id="_462929832" class="fil1" d="m4.066 3.514 3.786 3.787-.002.003-3.786-3.786z"/><path id="_462929856" class="fil1" d="M4.064 3.518 7.85 7.304l-.002.004-3.786-3.786z"/><path id="_462929376" class="fil1" d="m4.062 3.522 3.786 3.786-.002.003L4.06 3.525z"/><path id="_462929544" class="fil1" d="M4.06 3.525 7.846 7.31l-.002.004L4.058 3.53z"/><path id="_462929640" class="fil1" d="m4.058 3.529 3.786 3.786-.001.003-3.787-3.786z"/><path id="_462929760" class="fil1" d="m4.056 3.532 3.787 3.786-.002.004-3.787-3.786z"/><path id="_462929952" class="fil1" d="m4.054 3.536 3.787 3.786-.002.003L4.053 3.54z"/><path id="_462930504" class="fil1" d="m4.053 3.539 3.786 3.786-.002.004-3.786-3.786z"/><path id="_462930000" class="fil1" d="m4.051 3.543 3.786 3.786-.001.003L4.05 3.546z"/><path id="_462930696" class="fil1" d="m4.05 3.546 3.786 3.786-.002.003L4.048 3.55z"/><path id="_462930600" class="fil1" d="m4.048 3.55 3.786 3.785-.001.004-3.787-3.786z"/><path id="_462930072" class="fil1" d="m4.046 3.553 3.787 3.786-.002.003-3.786-3.786z"/><path id="_462930672" class="fil1" d="m4.045 3.556 3.786 3.786-.001.004-3.786-3.787z"/><path id="_462930144" class="fil1" d="M4.044 3.56 7.83 7.345l-.001.003-3.787-3.786z"/><path id="_462930312" class="fil1" d="M4.042 3.563 7.83 7.349l-.002.003-3.786-3.786z"/><path id="_462930576" class="fil1" d="m4.041 3.566 3.786 3.786v.003L4.04 3.57z"/><path id="_462930792" class="fil1" d="m4.04 3.569 3.786 3.786-.001.004-3.786-3.787z"/><path id="_462931224" class="fil1" d="M4.039 3.572 7.825 7.36l-.001.003-3.787-3.787z"/><path id="_462931320" class="fil1" d="m4.037 3.575 3.787 3.787-.001.003-3.787-3.787z"/><path id="_462930768" class="fil1" d="m4.036 3.578 3.787 3.787-.001.002-3.787-3.786z"/><path id="_462931176" class="fil1" d="m4.035 3.58 3.787 3.787-.002.004-3.786-3.786z"/><path id="_462931368" class="fil1" d="M4.034 3.585 7.82 7.37v.002L4.033 3.587z"/><path id="_462930936" class="fil1" d="M4.033 3.587 7.82 7.373l-.002.003L4.032 3.59z"/><path id="_462930984" class="fil1" d="m4.032 3.59 3.786 3.786v.003L4.03 3.592z"/><path id="_462931464" class="fil1" d="M4.031 3.592 7.818 7.38l-.001.003L4.03 3.596z"/><path id="_462930720" class="fil1" d="m4.03 3.596 3.787 3.786-.001.002L4.03 3.598z"/><path id="_462930744" class="fil1" d="m4.03 3.598 3.786 3.786v.002L4.028 3.6z"/><path id="_462931944" class="fil1" d="m4.029 3.6 3.786 3.786v.003L4.027 3.603z"/><path id="_462931992" class="fil1" d="M4.028 3.603 7.814 7.39v.002L4.027 3.605z"/><path id="_462931512" class="fil1" d="M4.027 3.605 7.814 7.39l-.001.003-3.786-3.786z"/><path id="_462931824" class="fil1" d="m4.027 3.608 3.786 3.786v.003L4.025 3.61z"/><path id="_462932208" class="fil1" d="m4.026 3.61 3.786 3.787v.001L4.025 3.612z"/><path id="_462931560" class="fil1" d="m4.025 3.612 3.787 3.786-.001.003-3.786-3.786z"/><path id="_462932040" class="fil1" d="M4.025 3.615 7.81 7.4v.001L4.024 3.616z"/><path id="_462931608" class="fil1" d="m4.024 3.616 3.787 3.786-.001.003L4.023 3.62z"/><path id="_462931776" class="fil1" d="M4.023 3.62 7.81 7.404 4.023 3.62z"/><path id="_462932064" class="fil1" d="M4.023 3.62 7.81 7.405l-.002.006-3.786-3.787z"/><path id="_462932472" class="fil1" d="m4.022 3.625 3.786 3.787-3.786-3.786z"/><path id="_462932688" class="fil1" d="m4.022 3.626 3.786 3.786-3.786-3.785z"/><path id="_462932640" class="fil1" d="m4.022 3.627 3.786 3.786v.002L4.02 3.628z"/><path id="_462932832" class="fil1" d="m4.021 3.628 3.786 3.787v.001L4.021 3.63z"/><path id="_462932424" class="fil1" d="m4.02 3.63 3.787 3.786L4.02 3.632z"/><path id="_462932376" class="fil1" d="m4.02 3.63 3.787 3.787L4.02 3.631z"/><path id="_462933000" class="fil1" d="m4.02 3.631 3.787 3.786v.002L4.02 3.632z"/><path id="_462932736" class="fil1" d="M4.02 3.632 7.807 7.42 4.02 3.633z"/><path id="_462932280" class="fil1" d="m4.02 3.633 3.787 3.786L4.02 3.635z"/><path id="_462932784" class="fil1" d="M4.02 3.634 7.806 7.42 4.02 3.634z"/><path id="_462932328" class="fil1" d="M4.02 3.634 7.806 7.42 4.02 3.635z"/><path id="_462933672" class="fil1" d="m4.02 3.634 3.786 3.787L4.02 3.635z"/><path id="_462933216" class="fil1" d="M4.02 3.635 7.806 7.42 4.02 3.635z"/><path id="_462933648" class="fil1" d="m3.351 3.123 3.787 3.786.044.046L3.396 3.17z"/><path id="_462933048" class="fil1" d="M4.346 4.192 8.132 7.98l-.198-.157-3.787-3.787z"/><path id="_462933576" class="fil1" d="m4.147 4.035 3.787 3.787.238.37-3.786-3.786z"/><path id="_462933264" class="fil1" d="m4.386 4.406 3.786 3.787-.366-.254L4.02 4.153z"/><path id="_462933768" class="fil1" d="m4.02 4.153 3.786 3.786.14.203L4.16 4.356z"/><path id="_462933096" class="fil1" d="m4.16 4.356 3.786 3.786-.547-.337-3.786-3.786z"/><path id="_462933312" class="fil1" d="M3.613 4.019 7.4 7.805h-.004l-.004.002-.007.001-.008.003-.009.002-.01.003-.012.004-.012.005-.013.005-.014.006-.014.007-.014.008-.014.008-.015.01-.014.01-.014.011-.013.012-.012.014-.012.014-.01.016-.01.017-.009.017-.007.02-.005.02-.004.022-.001.023v.024l.003.026.005.028.007.028.01.03-3.786-3.785-.01-.03-.007-.03-.005-.027-.003-.026V4.28l.001-.023.004-.022.005-.02.007-.02.008-.018.01-.016.01-.016.012-.014.013-.014.013-.012.014-.011.014-.01.014-.01.015-.009.014-.007.014-.007.014-.006.013-.005.012-.005.011-.004.01-.003.01-.003.008-.002.006-.001.005-.001.003-.001z"/><path id="_462933456" class="fil1" d="M2.224 3.747 6.01 7.533l-.008-.007-.008-.006-.009-.006-.008-.005-.01-.004-.008-.003-.009-.003-.008-.003-.009-.002-.008-.002h-.009l-.008-.002h-.036l-.006.001-.006.001h-.005l-.005.002h-.004l-.003.001H5.84l-.001.001h-.002L2.05 3.71h.003l.003-.001h.003l.004-.002h.005l.005-.001.005-.001h.007l.006-.001h.03l.008.001.008.001.009.002.008.002.01.002.008.003.009.004.008.004.009.005.008.006.009.006z"/><path id="_462934056" class="fil1" d="M2.715 4.635 6.5 8.42l-.016-.013-.016-.012-.017-.012-.018-.01-.019-.01-.019-.008-.02-.007-.02-.006-.021-.003-.022-.002h-.022l-.023.002-.023.005-.023.007-.025.01-3.786-3.787.024-.01.024-.006.023-.005.023-.002h.022l.022.001.02.004.021.005.02.007.02.009.018.01.018.01.017.011.016.013z"/><path id="_462934296" class="fil1" d="m2.885 4.425 3.787 3.787-.008.007-.007.008-.007.01-.005.01-.005.013-.005.013-.003.013-.003.015-.003.015-.001.015-.002.016v.017l-.001.016v.066l.002.016v.016l.002.015.001.014.002.014.001.013.002.012.001.01.002.01.001.01.001.006.001.006v.005l.001.002v.001L2.854 4.81v-.004l-.001-.004-.001-.006-.001-.007-.001-.009-.002-.01-.001-.01-.002-.013-.001-.012-.002-.014-.001-.015-.001-.015-.002-.015V4.66l-.001-.017v-.082l.002-.016.002-.016.003-.015.003-.014.003-.014.004-.012.005-.012.006-.011.006-.01.007-.009z"/><path id="_462934416" class="fil1" d="m2.411 4.575 3.786 3.787h-.002l-.002.002h-.002l-.002.001-.001.001h-.001L2.4 4.58h.003l.001-.001.002-.001h.001l.001-.001.002-.001z"/><path id="_462933840" class="fil1" d="m2.4 4.58 3.787 3.787-.004.001-3.786-3.786z"/><path id="_462934032" class="fil1" d="m2.397 4.582 3.786 3.786-.001.001H6.18l-.001.001-.002.001-.001.001L2.39 4.586h.001l.001-.001.002-.001h.001l.001-.001z"/><path id="_462934272" class="fil1" d="m2.39 4.586 3.787 3.786-.005.002-3.786-3.786z"/><path id="_462934320" class="fil1" d="m2.386 4.588 3.786 3.786-.006.004L2.38 4.59z"/><path id="_462933888" class="fil1" d="m2.38 4.591 3.786 3.787-.003.002-3.786-3.787z"/><path id="_462934104" class="fil1" d="M2.377 4.593 6.163 8.38l-.006.003L2.37 4.597z"/><path id="_462934464" class="fil1" d="m2.37 4.597 3.787 3.786-.004.003L2.367 4.6z"/><path id="_462934224" class="fil1" d="m2.367 4.6 3.786 3.786-.005.004L2.36 4.603z"/><path id="_462934656" class="fil1" d="M2.361 4.603 6.148 8.39l-.004.002-3.786-3.786z"/><path id="_462934680" class="fil1" d="m2.358 4.606 3.786 3.786-.005.004L2.352 4.61z"/><path id="_462935040" class="fil1" d="M2.352 4.61 6.14 8.396l-.004.003-3.786-3.787z"/><path id="_462935088" class="fil1" d="M2.349 4.612 6.135 8.4l-.005.003-3.786-3.786z"/><path id="_462935256" class="fil1" d="M2.344 4.616 6.13 8.402l-.004.003L2.34 4.62z"/><path id="_462934632" class="fil1" d="m2.34 4.62 3.786 3.785-.005.004-3.786-3.786z"/><path id="_462935112" class="fil1" d="m2.335 4.623 3.786 3.786-.003.003-3.786-3.786z"/><path id="_462935136" class="fil1" d="m2.332 4.626 3.786 3.786-.005.004L2.327 4.63z"/><path id="_462935208" class="fil1" d="m2.327 4.63 3.786 3.786-.003.003-3.787-3.786z"/><path id="_462934944" class="fil1" d="M2.323 4.633 6.11 8.419l-.004.004-3.787-3.786z"/><path id="_462935184" class="fil1" d="m2.32 4.637 3.786 3.786-.004.004L2.315 4.64z"/><path id="_462935664" class="fil1" d="m2.315 4.64 3.787 3.787-.004.003-3.786-3.786z"/><path id="_462935904" class="fil1" d="M2.312 4.644 6.098 8.43l-.004.004-3.786-3.786z"/><path id="_462935496" class="fil1" d="m2.308 4.648 3.786 3.786-.003.004-3.787-3.786z"/><path id="_462935928" class="fil1" d="m2.304 4.652 3.787 3.786-.004.004-3.786-3.787z"/><path id="_462935400" class="fil1" d="m2.301 4.655 3.786 3.787-.003.004-3.787-3.787z"/><path id="_462935424" class="fil1" d="m2.297 4.66 3.787 3.786-.003.003-3.787-3.786z"/><path id="_462935712" class="fil1" d="m2.294 4.663 3.787 3.786-.004.005L2.29 4.667z"/><path id="_462935808" class="fil1" d="m2.29 4.667 3.787 3.787-.003.003-3.786-3.786z"/><path id="_462935568" class="fil1" d="m2.288 4.67 3.786 3.787-.004.004-3.786-3.786z"/><path id="_462935616" class="fil1" d="M2.284 4.675 6.07 8.461l-.003.004L2.281 4.68z"/><path id="_462936672" class="fil1" d="m2.281 4.679 3.786 3.786-.003.005-3.786-3.787z"/><path id="_462936336" class="fil1" d="M2.278 4.683 6.064 8.47l-.003.003-3.786-3.786z"/><path id="_462936288" class="fil1" d="m2.275 4.687 3.786 3.786-.003.005L2.272 4.69z"/><path id="_462936096" class="fil1" d="m2.272 4.691 3.786 3.787-.003.004L2.27 4.695z"/><path id="_462936456" class="fil1" d="m2.269 4.695 3.786 3.787-.003.004L2.266 4.7z"/><path id="_462936168" class="fil1" d="m2.266 4.7 3.786 3.786-.002.004-3.787-3.786z"/><path id="_462936744" class="fil1" d="M2.263 4.704 6.05 8.49l-.003.004L2.26 4.708z"/><path id="_462936792" class="fil1" d="m2.26 4.708 3.787 3.786-.003.004-3.786-3.786z"/><path id="_462936696" class="fil1" d="m2.258 4.712 3.786 3.786-.003.005-3.786-3.786z"/><path id="_462936600" class="fil1" d="m2.255 4.717 3.786 3.786-.002.004L2.253 4.72z"/><path id="_462936768" class="fil1" d="m2.253 4.72 3.786 3.787-.003.004L2.25 4.725z"/><path id="_462937608" class="fil1" d="m2.25 4.725 3.786 3.786-.002.004L2.248 4.73z"/><path id="_462937008" class="fil1" d="m2.248 4.73 3.786 3.785-.002.005-3.787-3.787z"/><path id="_462937176" class="fil1" d="M2.245 4.733 6.032 8.52l-.003.004-3.786-3.786z"/><path id="_462937560" class="fil1" d="m2.243 4.738 3.786 3.786-.002.005L2.24 4.742z"/><path id="_462936864" class="fil1" d="M2.24 4.742 6.028 8.53l-.002.003-3.786-3.786z"/><path id="_462936888" class="fil1" d="m2.239 4.746 3.786 3.786-.003.005-3.786-3.786z"/><path id="_462937416" class="fil1" d="m2.236 4.751 3.786 3.786-.001.004-3.787-3.786z"/><path id="_462937104" class="fil1" d="M2.234 4.755 6.021 8.54l-.003.005-3.786-3.787z"/><path id="_462937320" class="fil1" d="m2.232 4.76 3.786 3.786-.002.004L2.23 4.764z"/><path id="_462937368" class="fil1" d="M2.23 4.764 6.016 8.55l-.002.004-3.786-3.786z"/><path id="_462938232" class="fil1" d="m2.228 4.768 3.786 3.786-.002.005-3.786-3.787z"/><path id="_462938256" class="fil1" d="M2.226 4.772 6.012 8.56l-.001.004-3.787-3.787z"/><path id="_462937992" class="fil1" d="m2.224 4.776 3.787 3.787-.002.004-3.787-3.786z"/><path id="_462937896" class="fil1" d="M2.222 4.781 6.01 8.567l-.002.005L2.22 4.785z"/><path id="_462937632" class="fil1" d="m2.22 4.785 3.787 3.787-.002.004L2.22 4.789z"/><path id="_462937848" class="fil1" d="m2.219 4.79 3.786 3.786-.002.004-3.786-3.786z"/><path id="_462937944" class="fil1" d="M2.217 4.794 6.003 8.58l-.001.004-3.786-3.786z"/><path id="_462937800" class="fil1" d="m2.216 4.798 3.786 3.786L6 8.59 2.214 4.803z"/><path id="_462937656" class="fil1" d="M2.214 4.803 6 8.589 6 8.593 2.213 4.807z"/><path id="_462937824" class="fil1" d="m2.213 4.807 3.786 3.786-.002.004-3.786-3.786z"/><path id="_462938112" class="fil1" d="m2.211 4.811 3.786 3.786-.001.005L2.21 4.815z"/><path id="_462938592" class="fil1" d="m2.21 4.815 3.786 3.787-.002.004-3.786-3.787z"/><path id="_462938880" class="fil1" d="m2.208 4.82 3.786 3.786-.001.004-3.786-3.786z"/><path id="_462938688" class="fil1" d="M2.207 4.824 5.993 8.61l-.001.004-3.786-3.787z"/><path id="_462939120" class="fil1" d="m2.206 4.827 3.786 3.787-.002.005-3.786-3.787z"/><path id="_462939096" class="fil1" d="M2.204 4.832 5.99 8.62v.003L2.202 4.835z"/><path id="_462938760" class="fil1" d="M2.203 4.835 5.99 8.622l-.001.005L2.202 4.84z"/><path id="_462938400" class="fil1" d="m2.202 4.84 3.786 3.787-.001.004L2.2 4.844z"/><path id="_462938496" class="fil1" d="m2.2 4.844 3.787 3.787-.001.004-3.787-3.787z"/><path id="_462938736" class="fil1" d="m2.2 4.848 3.786 3.787-.002.004-3.786-3.786z"/><path id="_462938832" class="fil1" d="m2.198 4.853 3.786 3.786v.004L2.196 4.857z"/><path id="_462939072" class="fil1" d="m2.197 4.857 3.786 3.786-.001.005-3.786-3.786z"/><path id="_462939360" class="fil1" d="m2.196 4.862 3.786 3.786v.003L2.194 4.864z"/><path id="_462939576" class="fil1" d="m2.195 4.864 3.786 3.787v.005L2.193 4.869z"/><path id="_462939552" class="fil1" d="M2.194 4.87 5.98 8.655v.002L2.193 4.872z"/><path id="_462939504" class="fil1" d="M2.193 4.872 5.98 8.658 2.192 4.874z"/><path id="_462939336" class="fil1" d="M2.193 4.873 5.98 8.659l-.001.007L2.192 4.88z"/><path id="_462939312" class="fil1" d="m2.192 4.88 3.786 3.786L2.19 4.88z"/><path id="_462939264" class="fil1" d="m2.191 4.88 3.787 3.786-.002.008L2.19 4.887z"/><path id="_462939768" class="fil1" d="m2.19 4.887 3.786 3.787L2.19 4.888z"/><path id="_462939240" class="fil1" d="m2.19 4.888 3.786 3.786-.001.007-3.787-3.786z"/><path id="_462939432" class="fil1" d="M2.115 4.824 5.902 8.61l-.003-.002-3.786-3.786z"/><path id="_462940608" class="fil1" d="m2.095 4.81 3.787 3.786-.003-.002-3.787-3.786z"/><path id="_462940104" class="fil1" d="M2.084 4.804 5.87 8.59h-.003L2.081 4.802z"/><path id="_462940392" class="fil1" d="m2.08 4.803 3.787 3.786h-.003L2.078 4.801z"/><path id="_462940464" class="fil1" d="m2.078 4.802 3.786 3.786-.003-.001-3.787-3.786z"/><path id="_462940488" class="fil1" d="m2.071 4.8 3.786 3.786h-.003L2.068 4.798z"/><path id="_462940656" class="fil1" d="M2.184 4.921 5.97 8.707v.001L2.184 4.922z"/><path id="_462940152" class="fil1" d="m2.058 4.797 3.786 3.786H5.84L2.054 4.795z"/><path id="_462940200" class="fil1" d="M2.054 4.796 5.84 8.582h-.003L2.05 4.796z"/><path id="_462940248" class="fil1" d="m2.05 4.796 3.787 3.786h-.004L2.046 4.795z"/><path id="_462940032" class="fil1" d="m2.046 4.795 3.787 3.787h-.004L2.043 4.794z"/><path id="_462940440" class="fil1" d="M2.043 4.795 5.829 8.58h-.004L2.038 4.795z"/><path id="_462940728" class="fil1" d="M2.038 4.795 5.825 8.58H5.82L2.035 4.795z"/><path id="_462940944" class="fil1" d="M2.035 4.795 5.82 8.58h-.004L2.03 4.795h.003z"/><path id="_462940992" class="fil1" d="M2.03 4.795 5.818 8.58h-.004L2.027 4.795z"/><path id="_462940776" class="fil1" d="m2.18 4.946 3.787 3.786v.001L2.18 4.947z"/><path id="_462941184" class="fil1" d="M2.027 4.795 5.813 8.58h-.004L2.022 4.795z"/><path id="_462941400" class="fil1" d="m2.18 4.951 3.786 3.786L2.18 4.953z"/><path id="_462940920" class="fil1" d="M2.022 4.795 5.81 8.58h-.004L2.018 4.795z"/><path id="_462941040" class="fil1" d="m2.018 4.795 3.787 3.786H5.8L2.013 4.797z"/><path id="_462941112" class="fil1" d="m2.18 4.957 3.785 3.786v.003L2.18 4.96z"/><path id="_462941208" class="fil1" d="m2.179 4.96 3.786 3.786v.001L2.18 4.961z"/><path id="_462941976" class="fil1" d="M2.013 4.796 5.8 8.582h-.004L2.01 4.796z"/><path id="_462942072" class="fil1" d="m2.01 4.796 3.786 3.786-.005.001-3.787-3.786z"/><path id="_462941520" class="fil1" d="m2.178 4.965 3.787 3.786v.002L2.178 4.966z"/><path id="_462941928" class="fil1" d="m2.178 4.966 3.787 3.787v.003L2.177 4.969z"/><path id="_462942120" class="fil1" d="m2.178 4.97 3.786 3.786L2.178 4.97z"/><path id="_462941664" class="fil1" d="m2.004 4.797 3.787 3.786h-.004L2 4.798z"/><path id="_462941592" class="fil1" d="m2.178 4.972 3.786 3.786v.001L2.178 4.973z"/><path id="_462942216" class="fil1" d="M2.178 4.973 5.964 8.76v.002L2.178 4.974z"/><path id="_462941472" class="fil1" d="m2 4.797 3.787 3.787h-.005L1.995 4.798z"/><path id="_462941496" class="fil1" d="m2.178 4.975 3.786 3.786v.003L2.178 4.977z"/><path id="_462942000" class="fil1" d="m2.178 4.977 3.786 3.787-3.786-3.786z"/><path id="_462942744" class="fil1" d="m2.178 4.978 3.786 3.786v.002L2.177 4.98z"/><path id="_462942264" class="fil1" d="m1.996 4.798 3.786 3.786-.005.001L1.991 4.8z"/><path id="_462942576" class="fil1" d="m2.177 4.98 3.787 3.787v.002L2.177 4.983z"/><path id="_462942960" class="fil1" d="m2.177 4.983 3.787 3.786-3.787-3.786z"/><path id="_462942312" class="fil1" d="m2.177 4.983 3.787 3.786v.002L2.176 4.985z"/><path id="_462942792" class="fil1" d="m2.177 4.985 3.786 3.786v.001L2.177 4.986z"/><path id="_462942336" class="fil1" d="m2.177 4.986 3.786 3.786v.001L2.177 4.987z"/><path id="_462942360" class="fil1" d="m2.177 4.987 3.786 3.786v.001L2.177 4.988z"/><path id="_462942816" class="fil1" d="m2.177 4.988 3.786 3.786v.001L2.177 4.989z"/><path id="_462942696" class="fil1" d="m2.177 4.989 3.786 3.786L2.177 4.99z"/><path id="_462943440" class="fil1" d="M2.113 4.822 5.9 8.608l-.002-.002L2.111 4.82z"/><path id="_462943392" class="fil1" d="m2.11 4.82 3.787 3.786-.002-.002-3.787-3.786z"/><path id="_462943584" class="fil1" d="m2.108 4.818 3.787 3.786-.003-.002-3.786-3.786z"/><path id="_462943176" class="fil1" d="m2.106 4.816 3.786 3.786-.002-.001-3.787-3.787z"/><path id="_462943128" class="fil1" d="M2.103 4.814 5.89 8.601l-.003-.002-3.786-3.786z"/><path id="_462943752" class="fil1" d="m2.1 4.813 3.787 3.786-.003-.002-3.786-3.786z"/><path id="_462943488" class="fil1" d="m2.098 4.811 3.786 3.786-.002-.001L2.095 4.81z"/><path id="_462943032" class="fil1" d="M2.188 4.895 5.975 8.68l-.002.007-3.786-3.786z"/><path id="_462943512" class="fil1" d="M2.092 4.808 5.88 8.594l-.003-.001L2.09 4.807z"/><path id="_462943320" class="fil1" d="m2.09 4.807 3.786 3.786-.003-.001-3.786-3.787z"/><path id="_462943104" class="fil1" d="m2.087 4.805 3.786 3.787-.003-.002-3.786-3.786z"/><path id="_462943968" class="fil1" d="m2.187 4.902 3.786 3.786v.006L2.185 4.907z"/><path id="_462944256" class="fil1" d="m2.186 4.907 3.786 3.787v.001L2.186 4.91z"/><path id="_462943800" class="fil1" d="m2.186 4.909 3.786 3.786L2.186 4.91z"/><path id="_462944328" class="fil1" d="m2.074 4.8 3.787 3.787h-.004L2.071 4.8z"/><path id="_462944016" class="fil1" d="m2.186 4.91 3.786 3.785-.001.007-3.786-3.786z"/><path id="_462944520" class="fil1" d="m2.068 4.799 3.786 3.786h-.003L2.065 4.797z"/><path id="_462944400" class="fil1" d="M2.065 4.798 5.85 8.584h-.004L2.061 4.797z"/><path id="_462944064" class="fil1" d="M5.949 8.686zM2.163 4.9z"/><path id="_462944160" class="fil1" d="M2.185 4.916 5.97 8.702l-.001.005-3.786-3.786z"/><path id="_462944136" class="fil1" d="M2.184 4.922 5.97 8.708v.005L2.182 4.926z"/><path id="_462943920" class="fil1" d="m2.183 4.926 3.786 3.787v.002L2.183 4.929z"/><path id="_462945144" class="fil1" d="m2.183 4.929 3.786 3.786v.004L2.181 4.933z"/><path id="_462944592" class="fil1" d="m2.182 4.933 3.786 3.786v.002L2.182 4.935z"/><path id="_462944784" class="fil1" d="M2.182 4.935 5.968 8.72v.003L2.18 4.938z"/><path id="_462945024" class="fil1" d="m2.181 4.938 3.787 3.786v.003L2.18 4.94z"/><path id="_462945048" class="fil1" d="m2.181 4.94 3.786 3.787v.003L2.18 4.943z"/><path id="_462944640" class="fil1" d="M2.18 4.943 5.968 8.73v.002L2.18 4.946z"/><path id="_462944856" class="fil1" d="m2.18 4.947 3.787 3.786v.004L2.18 4.951z"/><path id="_462944880" class="fil1" d="m2.18 4.952 3.786 3.786v.003L2.179 4.954z"/><path id="_462944832" class="fil1" d="m2.18 4.954 3.786 3.787v.002L2.178 4.956z"/><path id="_462945000" class="fil1" d="m2.179 4.96 3.786 3.787v.003L2.179 4.964z"/><path id="_462946008" class="fil1" d="M2.179 4.964 5.965 8.75v.001L2.178 4.965z"/><path id="_462945480" class="fil1" d="m2.178 4.97 3.786 3.786v.002L2.178 4.972z"/><path id="_462945504" class="fil1" d="m2.178 4.974 3.786 3.787-3.786-3.786z"/><path id="_462945312" class="fil1" d="m2.177 4.98 3.787 3.786v.001L2.177 4.981z"/><path id="_462945720" class="fil1" d="m2.177 4.99 3.786 3.786L2.177 4.99z"/><path id="_462945768" class="fil1" d="m1.986 4.8 3.786 3.786-.004.001L1.98 4.801z"/><path id="_462945960" class="fil1" d="m1.981 4.801 3.787 3.786-.006.002-3.786-3.786z"/><path id="_462945984" class="fil1" d="m1.976 4.803 3.786 3.786-.005.001-3.786-3.786z"/><path id="_462945912" class="fil1" d="M1.971 4.804 5.757 8.59l-.005.002-3.787-3.786z"/><path id="_462945648" class="fil1" d="m1.965 4.806 3.787 3.786-.005.001-3.786-3.786z"/><path id="_462945936" class="fil1" d="m1.96 4.807 3.787 3.786h-.002l-.001.001h-.001l-.001.001H5.74l-.001.001L1.953 4.81l.002-.001h.002v-.001h.002z"/><path id="_462946680" class="fil1" d="m1.953 4.81 3.786 3.786h-.003L1.95 4.812z"/><path id="_462946752" class="fil1" d="m1.95 4.81 3.786 3.787h-.002l-.002.001h-.001l-.002.001V8.6h-.002l-.002.001L1.94 4.815h.001l.002-.001h.001l.002-.001h.001l.001-.001h.002z"/><path id="_462946416" class="fil1" d="M1.939 4.815 5.725 8.6l-.012.006-.013.007-.013.01-.014.01-.015.013-.015.014-.016.015-.016.016-.016.017-.016.018-.016.018-.017.02-.016.019-.016.02-.016.02-.016.02-.015.02-.015.02-.014.018-.014.019-.013.018-.012.017-.012.016-.01.015-.01.013-.009.013-.007.01-.006.01-.005.007-.004.005-.002.004h-.001L1.547 5.265v-.001l.003-.004.003-.005.005-.008.007-.009.007-.01.009-.013.01-.014.01-.015.012-.016.012-.017.013-.018.014-.018.014-.02.015-.019.015-.02.016-.02.016-.02.016-.02.016-.019.017-.019.016-.019.016-.017.016-.018.016-.016.016-.015.015-.014.014-.012.015-.01.013-.01.013-.008z"/><path id="_462946464" class="fil1" d="m3.377 4.416 3.787 3.786.01.029.007.023.006.02.002.015v.012l-.002.008-.004.004-.006.002-.009-.001-.01-.004-.011-.006-.014-.007-.015-.01-.017-.01-.017-.01-.02-.013-.02-.012-.021-.012-.022-.013-.023-.011-.024-.011-.025-.01-.025-.008-.025-.007-.026-.005-.026-.002h-.026l-.026.003-.026.006-.026.01-.026.012-.025.018-3.787-3.787.026-.017.025-.013.026-.01.026-.006.027-.002h.026l.026.002.026.005.025.006.025.009.025.01.023.01.023.012.023.012.021.013.02.012.02.012.017.011.017.01.015.01.013.007.012.006.01.003.008.001.007-.001.004-.005.002-.008v-.011L3.4 4.488l-.005-.02-.007-.024z"/><path id="_462946128" class="fil1" d="M4.02 3.635 7.806 7.42l.326.558-3.786-3.787z"/><path id="_462946320" class="fil1" d="m4.76 2.869 3.786 3.786-.009-.001-.01-.002h-.009l-.01-.002-.01-.001-.012-.001-.011-.001-.012-.001-.011-.001-.012-.001h-.012l-.012-.001h-.061l-.012.001-.011.001-.012.002-.01.002-.011.001-.01.003-.01.002-.01.003-.01.004-.008.004-.008.004-.007.004-.007.005-.005.006-.006.006-3.786-3.786.005-.006.006-.006.007-.005.007-.004.008-.005.009-.003.009-.004.01-.003.009-.003.01-.002.011-.002.011-.001.011-.002h.012l.012-.002H4.653l.012.001.012.001.012.001.01.001.012.001.01.002h.01l.01.002.01.001z"/><path id="_637665352" class="fil1" d="M5 2.196zm-.094.01zM2.177 4.99zm-.014-.09zm1.654-2.636c.124.071 1.463-.701 1.463-.701s-.4.265-.45.39a.39.39 0 0 0-.004.012v.002a.35.35 0 0 0-.003.008l-.002.004-.002.007v.004l-.002.006L4.816 2l-.002.006v.004l-.002.005v.005l-.001.004v.004l-.001.005V2.07l.001.004v.003l.001.004.001.003v.004l.002.003v.003l.002.003V2.1l.002.003.001.003.002.002.001.003.002.003.001.003.002.002.002.003.001.003.002.002.002.003.002.002.002.002.002.003.002.002.002.002.002.002.002.002.002.002.002.002.003.002.002.002.002.001.003.002.002.002.003.002.002.001.002.002.003.001.003.002.002.001.003.001.002.002.003.001.002.001.003.002h.003l.002.002h.003l.005.003.005.002.005.001h.002l.004.002.005.002h.002l.003.001.005.001h.003l.002.001h.003l.002.001h.002l.003.001h.002l.002.001h.005l.002.001h.004l.002.001h.008l.001.001h.01l.002.001H5h-.012l-.002.001H4.972l-.004.001h-.006l-.004.001h-.006l-.006.001h-.003l-.003.001-.006.001-.007.001h-.003l-.004.001-.007.001-.007.002-.007.001-.007.002h-.005l-.003.001H4.88l-.005.002h-.002l-.006.002h-.003l-.005.002-.004.001-.004.001-.004.001-.004.002H4.84l-.005.002-.003.001-.005.002-.003.001-.005.002-.005.001-.004.002-.004.002-.004.001-.005.002-.004.002-.004.001-.004.002-.005.002-.004.002-.005.002-.004.002-.004.002-.005.002-.004.002-.004.003-.004.002-.005.002-.004.003-.004.002-.004.003-.004.002-.005.003-.004.003-.004.002-.004.003-.004.003-.004.003-.004.003-.005.003-.003.003-.005.004-.003.003-.004.003-.004.004-.004.003-.004.004-.004.003-.003.004-.004.003-.004.004-.003.004-.004.004-.004.004-.003.004-.004.005-.003.004-.003.004-.003.004-.004.005-.003.004-.003.006-.003.004-.003.005-.003.004-.003.006-.002.004-.004.007-.002.004a.315.315 0 0 0-.005.01c-.12.262.226.45.226.45l-.04-.006a.01.01 0 0 1-.008 0L4.76 2.87c-.092-.014-.276-.03-.328.036-.207.267.31.627-.016.497a.481.481 0 0 0-.015-.006l-.004-.001-.011-.004-.005-.001-.01-.003-.005-.001-.008-.003-.007-.001-.007-.002h-.006l-.007-.002-.006-.001-.007-.001h-.006l-.007-.001H4.3l-.006-.001H4.264l-.005.001h-.006l-.005.001-.005.001-.006.001-.005.001-.005.002h-.005l-.005.002-.005.002-.005.001-.005.002-.004.002-.005.002-.004.002-.005.002-.004.002-.004.002-.004.002-.005.003-.004.002-.004.003-.004.002-.003.003-.004.003-.004.002-.004.003-.003.003-.004.003-.003.003-.003.003-.004.003-.003.004-.003.003-.003.003-.003.003-.003.004-.003.003-.003.003-.003.004-.003.003-.002.004-.003.003-.003.004-.002.003-.003.004-.002.003-.002.004-.003.004-.002.003-.002.003-.002.004-.002.004-.002.003-.002.004-.002.004-.002.003-.002.004-.002.003-.002.004-.001.003-.002.004-.001.003-.002.003-.002.004v.003l-.002.003-.002.004-.001.003-.001.003-.001.003-.002.003v.003l-.002.003-.001.004v.002l-.002.003v.002l-.002.004v.002l-.001.002-.001.003v.002l-.001.003-.001.002v.002l-.001.003-.002.004-.001.006v.003l-.001.002v.002l-.001.002.326.558-.199-.157.24.371-.367-.253.14.203-.547-.337s-.36.064-.236.397c.124.332-.224-.196-.492.01-.09.068-.032.384-.032.384s-.181-.352-.442-.235a.342.342 0 0 0-.01.005l-.004.002-.007.004-.004.002-.006.003-.003.003-.006.003-.004.003-.006.003-.003.003-.006.004-.003.002-.005.004-.004.003-.005.004-.003.003-.005.004-.004.003-.004.004-.004.003-.003.004-.004.004-.004.004-.003.003-.004.004-.003.004-.004.004-.002.004-.004.004-.003.004-.003.004-.003.004-.003.004-.003.004-.003.005-.003.004-.002.004-.003.004-.003.005-.002.003-.003.005-.002.004-.003.004-.002.005-.002.004-.002.004-.003.005-.002.004-.002.004-.002.005-.002.004-.002.004-.002.004-.002.005-.001.004-.002.004-.002.005-.001.004-.002.005-.001.004-.002.004-.001.004-.002.004-.001.005-.001.003-.002.005v.003l-.002.005-.002.004v.005l-.002.004v.004l-.002.005v.002l-.002.006v.002l-.002.008-.002.007-.002.008-.001.007v.005l-.001.002-.001.007-.001.005v.001l-.001.004v.003l-.001.004v.005l-.001.003v.005l-.001.005v.006l-.001.003V4.97l-.001.003v.015l-.001.002V4.97l-.001-.003V4.959l-.001-.003V4.95l-.001-.001v-.005l-.001-.002v-.005l-.001-.002v-.003l-.001-.002v-.003l-.001-.002v-.003l-.001-.002-.002-.005v-.003l-.001-.003-.002-.005-.001-.005-.002-.006-.002-.005-.002-.005v-.002l-.002-.004-.001-.002-.002-.003-.001-.002-.001-.003-.002-.003-.001-.002-.002-.003-.001-.002-.002-.003-.001-.002-.002-.003-.002-.002-.001-.002-.002-.003-.002-.002-.002-.003-.002-.002-.002-.002-.002-.002-.002-.002-.002-.002-.002-.002-.003-.002-.002-.002-.002-.002-.003-.002-.002-.002-.003-.002-.002-.001-.003-.002-.003-.001-.003-.002-.002-.001-.003-.002h-.003l-.003-.002-.003-.001-.004-.001-.003-.001-.003-.001h-.003l-.004-.002h-.007l-.004-.001h-.004l-.003-.001H2.013l-.003.001h-.006L2 4.798l-.004.001-.005.001-.005.001-.005.001-.005.002H1.97l-.006.003-.004.001a.36.36 0 0 0-.008.003H1.95a.366.366 0 0 0-.011.005c-.124.048-.392.449-.392.449s.782-1.343.714-1.47c-.069-.126-.21-.084-.21-.084s.16-.097.398.029a.126.126 0 0 0 .008.004l.003.001.006.003h.004l.006.003h.004c.002.002.004.002.007.003h.005l.006.002.005.001.006.001h.006l.007.002h.005l.008.001h.006l.007.001h.081l.008-.001h.008l.008-.001h.008l.01-.002h.007l.009-.001.008-.001.01-.001.007-.001.01-.001.008-.002h.009l.008-.002.01-.002h.007l.012-.002.006-.001.01-.002.009-.002.009-.001.009-.002.009-.001.009-.002.01-.002.008-.001.01-.002.008-.002.012-.003h.006l.011-.003.008-.002.017-.003.016-.004h.002l.018-.004.005-.002.013-.003.016-.003H3l.007-.002.01-.003.005-.001.012-.003.005-.001.011-.003.008-.002.01-.003h.004l.012-.004.006-.001.008-.003.008-.002.01-.002.003-.001.011-.003.006-.002.009-.002.005-.001.009-.003.006-.002.008-.002.004-.001.01-.003h.004l.008-.003.004-.001.009-.003h.001l.006-.002.006-.002h.002l.007-.002.003-.001.018-.006h.004l.006-.003h.003l.006-.002h.002l.005-.002.002-.001.005-.002.005-.001h.001l.005-.002.004-.001.004-.001.002-.001h.002l-.052-.13-.076-.08-.043-.062.066.013.135-.034.028-.107-.017-.09.045.046.101.1.125.054.001-.004v-.003l.001-.001.001-.002V3.31l.002-.003v-.003l.001-.002.001-.004.001-.002.002-.004.001-.006v-.002l.002-.002.001-.006.001-.003.002-.006.013-.044.004-.012.004-.013.004-.013v-.002l.004-.012.003-.013v-.002l.002-.004.003-.01V3.14l.004-.012.002-.008.002-.008.002-.007.003-.01.001-.005.003-.01.002-.007.002-.01.002-.006.003-.01.001-.007.003-.012.001-.004.003-.012.002-.007.003-.01.002-.008.002-.01.002-.007.002-.012.002-.006.002-.01.002-.008.003-.012.001-.006.003-.012.001-.007.002-.01.002-.008.003-.014v-.004l.004-.016v-.002l.003-.015.001-.004.003-.018.004-.018v-.001l.003-.017v-.004l.002-.014.001-.006.002-.012V2.73l.003-.012v-.007l.002-.01v-.008l.002-.009v-.008l.001-.009.001-.007.001-.01v-.006l.001-.01v-.006l.001-.009v-.015l.001-.007v-.051l-.001-.006v-.007l-.001-.006V2.52l-.002-.005v-.006l-.002-.006v-.006l-.002-.005-.001-.006-.001-.005-.002-.006-.001-.004-.003-.006v-.003a.117.117 0 0 0-.005-.008c-.121-.241-.022-.403-.022-.403s-.044.142.08.213z"/></g></g><path d="M3.413 0a3.413 3.413 0 1 1 0 6.827 3.413 3.413 0 0 1 0-6.827z" style="fill:none"/><path class="fil3" d="M3.345 3.475a.023.023 0 1 0 .023-.04.023.023 0 0 0-.023.04zM3.45 3.382a.023.023 0 1 0 .023-.04.023.023 0 0 0-.023.04z"/><path d="M2.26 3.795c-.068-.127-.21-.085-.21-.085s.162-.097.399.029c.176.093.861-.127.861-.127l-.052-.128-.076-.08-.043-.063.066.013.135-.034.028-.107-.017-.09.045.046.101.1.125.054s.227-.69.137-.87c-.121-.24-.022-.402-.022-.402s-.044.142.08.213c.124.071 1.463-.701 1.463-.701s-.4.265-.45.39c-.097.245.172.243.172.243s-.308-.002-.415.231c-.12.262.226.45.226.45s-.312-.062-.381.028c-.207.267.31.627-.016.497-.327-.13-.396.233-.396.233l.326.557-.199-.157.24.371-.367-.253.14.203-.547-.337s-.36.064-.236.397c.124.332-.224-.196-.492.01-.09.068-.032.384-.032.384s-.181-.352-.442-.235c-.232.105-.234.416-.234.416s.006-.271-.238-.176c-.124.048-.392.449-.392.449s.782-1.343.714-1.47z" style="fill:#272727;fill-rule:nonzero"/><path class="fil5" d="M3.442 3.35a.023.023 0 1 0 .04.023.023.023 0 0 0-.04-.022zM3.377 3.466a.023.023 0 1 0-.04-.023.023.023 0 0 0 .04.023z"/><path class="fil6" d="M2.26 3.795c.069.126-.713 1.469-.713 1.469s.268-.4.392-.45c.237-.092.238.164.238.177 0-.014.008-.313.234-.416.26-.117.442.235.442.235s-.057-.316.032-.385c.268-.205.616.323.492-.01-.123-.332.236-.396.236-.396l.009.005a1.242 1.242 0 0 1-.314-.411c-.04.012-.689.217-.86.126-.236-.126-.397-.029-.397-.029s.141-.042.21.085zM3.76 2.454c.086.171-.12.814-.137.865.235.113.364.272.397.316.002-.01.073-.361.396-.233.327.13-.191-.23.016-.497.07-.09.38-.027.38-.027s-.345-.189-.225-.45c.105-.228.4-.232.414-.232-.013 0-.266-.004-.17-.243.05-.125.449-.39.449-.39s-1.339.772-1.463.701c-.124-.07-.08-.213-.08-.213s-.1.162.022.403z"/><path class="fil7" d="M4.918 2.203a.01.01 0 0 0-.002-.02 1.265 1.265 0 0 0-.857.406c-.2.213-.325.481-.421.743a.01.01 0 0 0 .018.007c.095-.26.219-.527.417-.737.197-.21.452-.364.845-.4zM2.184 4.907a.01.01 0 0 1-.01.008.01.01 0 0 1-.009-.01c.038-.4.193-.66.405-.86.21-.2.477-.325.735-.42a.01.01 0 0 1 .013.006.01.01 0 0 1-.006.012c-.257.095-.52.218-.73.416a1.263 1.263 0 0 0-.398.848z"/><path class="fil7" d="M4.765 2.871a.01.01 0 0 0 .008-.018.632.632 0 0 0-.643.044c-.177.114-.32.299-.442.467a.01.01 0 0 0 .016.011c.12-.166.262-.349.437-.461a.614.614 0 0 1 .624-.043zM2.838 4.74a.01.01 0 0 1-.017.009.623.623 0 0 1 .046-.634c.114-.174.296-.315.463-.434a.01.01 0 0 1 .01.016c-.164.117-.345.257-.457.428a.605.605 0 0 0-.045.616z"/><path class="fil7" d="M4.496 3.42a.01.01 0 0 0 .012-.014c-.123-.1-.243-.172-.362-.183-.12-.011-.236.04-.351.184a.01.01 0 1 0 .015.012c.11-.139.222-.187.335-.177.114.01.23.081.351.179zM3.393 4.51a.01.01 0 0 1-.001.014.01.01 0 0 1-.014-.002c-.1-.131-.171-.259-.182-.385-.01-.127.04-.25.187-.372a.01.01 0 0 1 .014.002.01.01 0 0 1-.002.014c-.14.117-.19.235-.18.355.01.12.08.245.178.373z"/></g></svg>