<svg xmlns="http://www.w3.org/2000/svg" xml:space="preserve" width="655.359" height="655.359" style="shape-rendering:geometricPrecision;text-rendering:geometricPrecision;image-rendering:optimizeQuality;fill-rule:evenodd;clip-rule:evenodd" viewBox="0 0 6.827 6.827"><defs><clipPath id="id0"><path d="M3.413 0a3.413 3.413 0 1 1 0 6.827 3.413 3.413 0 0 1 0-6.827z"/></clipPath><style>.fil1{fill:#0288d1}.fil5{fill:#efebe9}.fil3,.fil4{fill:#3e2723;fill-rule:nonzero}.fil4{fill:#efebe9}</style></defs><g id="Layer_x0020_1"><path d="M3.413 0a3.413 3.413 0 1 1 0 6.827 3.413 3.413 0 0 1 0-6.827z" style="fill:#29b6f6"/><g style="clip-path:url(#id0)"><g id="_637665760"><path id="_4629468241" class="fil1" d="m5.171 1.896 3.786 3.786.019.025.017.026.015.027.013.027.012.028.01.028.008.029.006.029.005.029.003.029.001.03v.029l-.002.029-.004.029-.005.029-.006.028-.009.028-.01.028-.011.027-.013.026-.015.026-.016.025-.018.024-.019.023-.02.022-.023.021-.023.02-.025.02-.027.016-.028.016-.04.022-3.787-3.786.04-.022.029-.016.026-.017.025-.019.024-.02.022-.02.02-.023.02-.023.018-.024.016-.025.014-.026.014-.026.011-.028.01-.027.008-.028.007-.029.005-.028.004-.03.002-.029v-.029l-.001-.03-.004-.029-.004-.029-.007-.029-.008-.028-.01-.028L5.235 2l-.013-.027-.015-.027-.017-.026z"/><path id="_462946608" class="fil1" d="M4.965 2.69 8.75 6.478l.028.037-3.786-3.786z"/><path id="_542706608" class="fil1" d="m2.44 1.86 3.786 3.786.015.016.014.017.013.018.013.018.011.019.011.019.01.02.01.02.008.02.008.022.007.021.005.022.005.022.01.047-3.787-3.786-.01-.047-.004-.022-.006-.022-.006-.022-.008-.02-.009-.022-.009-.02-.01-.02-.011-.019-.012-.018-.012-.018-.014-.018-.013-.017z"/><path id="_542706848" class="fil1" d="m1.862 2.69 3.786 3.787-.04-.022-.016-.008-.016-.01-.014-.009-.015-.01-.014-.01-.013-.011-.014-.012-.012-.011-3.787-3.787.013.012.013.011.014.011.014.01.014.01.015.01.015.01.016.008z"/><path id="_542706872" class="fil1" d="M2.582 4.967 6.37 8.753l-.054-.023-.052-.025-.052-.026-.05-.028-.05-.029-.05-.03-.048-.033-.047-.034-.046-.035-.044-.036-3.787-3.787.045.037.046.035.047.034.048.032.049.03.05.03.051.028.052.026.052.025z"/><path id="_542706368" class="fil1" d="m4.736 4.669 3.786 3.786-.015.013-.015.012-.015.012-.015.012-.016.012-.015.011-.016.012-.016.011-.016.011-.016.011-.016.01-.016.011-.016.01-.017.011-.016.01-.017.01-.017.01-.017.01-.017.009-.017.009-.017.009-.017.009-.018.009-.017.008-.017.008-.018.009-.018.008-.018.008-.017.007-.018.008-.018.007-.018.007-.027.01-.027.01-.027.01-.026.01-.027.008-.027.008-.028.008-.027.008-.027.007-.027.007-.028.006-.027.006-.028.006-.027.005-.028.005-.028.005-.028.004-.027.004-.028.004-.028.003-.028.003-.028.002-.028.002-.029.002-.028.002h-.028l-.028.001h-.029l-.028.001h-.057l-.029-.002h-.02l-.012-.001h-.01l-.01-.002h-.012l-.01-.001-.011-.001h-.011l-.01-.002h-.012l-.01-.002-.011-.001-.011-.001-.011-.002h-.01l-.012-.002-.01-.002-.011-.001-.011-.002-.01-.001-.012-.002-.01-.001-.011-.002-.01-.002-.011-.002-.011-.001-.01-.002-.011-.002-.01-.002-.011-.002-.01-.002-.013-.003-.013-.003-.012-.002-.013-.003-.012-.003-.013-.003-.012-.003-.013-.003-.012-.003-.013-.004-.012-.003-.012-.003-.013-.004-.012-.003-.012-.004-.012-.004-.013-.003-.012-.004-.012-.004-.012-.004-.012-.004-.012-.004-.012-.005-.013-.004-.012-.004-.012-.005-.012-.004-.012-.005-.012-.005-.012-.004-.011-.005-.012-.005-3.787-3.786.012.005.012.004.012.005.012.005.012.004.012.005.012.004.012.005.012.004.012.004.012.004.013.005.012.004.012.003.012.004.012.004.013.004.012.003.012.004.012.003.013.004.012.003.013.003.012.004.012.003.013.003.012.003.013.003.012.002.013.003.013.003.012.002.01.002.011.002.01.002.011.002.01.002.011.002.01.002.012.002.01.001.011.002.01.002.012.001.01.002.011.001.011.002h.01l.012.002.01.001.011.002h.011l.011.002h.01l.012.002h.01l.011.002h.011l.01.001h.012l.01.001.01.001h.022l.029.002H3.488l.028-.002.028-.001.028-.002.028-.002.028-.002.028-.003.028-.004.028-.003.028-.004.028-.004.028-.005.027-.005.028-.005.027-.006.028-.006.027-.006.028-.007.027-.007.027-.008.027-.008.027-.008.027-.009.027-.01.027-.009.027-.01.026-.01.018-.007.018-.007.018-.008.018-.008.018-.008.018-.008.017-.008.018-.008.017-.009.018-.008.017-.01.017-.008.017-.01.017-.009.017-.01.017-.01.016-.01.017-.01.016-.01.017-.01.016-.01.016-.011.016-.011.016-.011.016-.012.015-.01.016-.013.015-.011.016-.012.015-.012.015-.013z"/><path id="_542706416" class="fil1" d="m4.993 2.728 3.786 3.786.017.023.016.023.016.024.016.023.015.024.014.024.014.025.014.024.013.025.013.025.012.025.011.026.011.025.01.026.01.026.01.026.009.027.008.026.008.027.008.027.006.027.006.027.006.028.005.027.005.028.003.028.004.028.002.028.003.028.001.029.001.028v.069l-.002.04-.003.04-.004.04-.006.039-.006.039-.008.038-.008.039-.01.038-.011.037-.012.037-.013.037-.014.037-.015.036-.017.036-.017.035-.018.035-.019.034-.02.034-.02.034-.023.033-.023.032-.023.032-.025.032-.025.03-.027.031-.027.03-.028.03-.029.028-.03.028-.03.027-.03.027L4.735 4.67l.031-.027.03-.027.03-.029.029-.028.028-.03.027-.03.026-.03.026-.03.024-.032.024-.032.023-.033.022-.033.02-.033.02-.034.02-.034.018-.035.017-.036.016-.035.015-.036.014-.037.014-.037.012-.037.01-.038.01-.038.009-.038.008-.039.006-.039.005-.039.005-.04.003-.04.001-.04.001-.04v-.028l-.001-.029-.002-.028-.002-.028-.003-.029-.003-.027-.004-.028-.004-.028-.005-.028-.006-.027-.006-.027-.007-.027-.007-.027-.008-.027-.008-.027-.01-.026-.009-.026-.01-.026-.01-.026-.011-.026-.012-.025-.012-.025-.012-.025-.013-.025-.014-.025-.014-.024-.015-.024-.015-.024-.015-.024-.016-.023-.016-.023z"/><path id="_637666048" class="fil1" d="M2.594 2.155a2.203 2.203 0 0 1 1.61-.011l.044.017.009-.047a.516.516 0 1 1 .749.555l-.041.022.028.037c.182.243.287.53.287.835 0 .432-.208.823-.544 1.106a1.91 1.91 0 0 1-.533.314 2.175 2.175 0 0 1-1.229.103 2.094 2.094 0 0 1-.392-.12c-.57-.236-1.035-.752-1.035-1.403 0-.305.104-.592.287-.835l.028-.037-.041-.022a.516.516 0 1 1 .749-.555l.009.047.015-.006z"/></g></g><path d="M3.413 0a3.413 3.413 0 1 1 0 6.827 3.413 3.413 0 0 1 0-6.827z" style="fill:none"/><path class="fil3" d="M3.819 2.034a2.216 2.216 0 0 0-1.196.11l-.044.017-.01-.047a.516.516 0 1 0-.748.555l.04.022-.027.037a1.451 1.451 0 0 0-.214.4 1.333 1.333 0 0 0-.073.435c0 .432.208.823.544 1.106.338.285.805.461 1.322.461s.985-.176 1.323-.461c.336-.283.544-.674.544-1.106 0-.15-.025-.296-.073-.434a1.451 1.451 0 0 0-.214-.401l-.028-.037.04-.022a.519.519 0 0 0 .275-.456.515.515 0 0 0-.845-.399.516.516 0 0 0-.178.3l-.01.047-.044-.017a2.105 2.105 0 0 0-.384-.11z"/><path class="fil4" d="M2.092 4.67c.338.284.805.46 1.321.46.517 0 .984-.176 1.322-.46-.102-.726-.655-1.281-1.322-1.281s-1.22.555-1.321 1.281zM4.128 2.659a.198.198 0 0 1 .14.339.198.198 0 0 1-.338-.14.198.198 0 0 1 .198-.2zM2.698 2.659a.198.198 0 0 1 .14.339.198.198 0 0 1-.338-.14.198.198 0 0 1 .198-.2z"/><path class="fil3" d="m3.386 4.092-.42-.334-.03-.024.033-.02a.86.86 0 0 1 .451-.135.83.83 0 0 1 .438.135l.032.02-.03.024-.42.334v.256c0 .036-.054.036-.054 0v-.256zM2.783 2.773a.119.119 0 0 0-.204.084.119.119 0 0 0 .204.085.119.119 0 0 0 0-.169zM4.212 2.773a.119.119 0 0 0-.203.084.119.119 0 0 0 .203.085.119.119 0 0 0 0-.169z"/><path class="fil5" d="M4.435 1.814a.516.516 0 0 0-.178.3l-.01.047-.014-.006c.302.124.559.315.742.55l-.01-.014.04-.022a.519.519 0 0 0 .275-.456.515.515 0 0 0-.845-.399zM1.698 1.848a.515.515 0 0 0 .123.821l.04.022-.01.014c.184-.235.44-.426.743-.55l-.015.006-.01-.047a.516.516 0 0 0-.871-.266z"/><path class="fil3" d="M3.443 4.368a.03.03 0 0 0-.06-.003.203.203 0 0 1-.098.161.168.168 0 0 1-.095.025.195.195 0 0 1-.089-.029.03.03 0 0 0-.03.051c.04.024.079.035.116.037a.227.227 0 0 0 .13-.033.264.264 0 0 0 .126-.209z"/><path class="fil3" d="M3.38 4.368a.03.03 0 0 1 .06-.003.203.203 0 0 0 .098.161c.028.017.06.026.095.025a.195.195 0 0 0 .09-.029.03.03 0 0 1 .03.051.253.253 0 0 1-.116.037.227.227 0 0 1-.13-.033.264.264 0 0 1-.126-.209z"/></g></svg>