<svg xmlns="http://www.w3.org/2000/svg" xml:space="preserve" width="655.359" height="655.359" style="shape-rendering:geometricPrecision;text-rendering:geometricPrecision;image-rendering:optimizeQuality;fill-rule:evenodd;clip-rule:evenodd" viewBox="0 0 6.827 6.827" xmlns:xlink="http://www.w3.org/1999/xlink"><defs><linearGradient id="id1" gradientUnits="userSpaceOnUse" x1="3.865" y1="4.026" x2="3.62" y2="2.639"><stop offset="0" style="stop-color:#2b7726"/><stop offset="1" style="stop-color:#6eb869"/></linearGradient><linearGradient id="id2" gradientUnits="userSpaceOnUse" x1="2.315" y1="4.85" x2="4.088" y2="2.409"><stop offset="0" style="stop-color:#ac5805"/><stop offset=".349" style="stop-color:#a67210"/><stop offset="1" style="stop-color:#9f8c1b"/></linearGradient><linearGradient id="id3" gradientUnits="userSpaceOnUse" xlink:href="#id1" x1="3.694" y1="4.567" x2="2.797" y2="4.677"/><linearGradient id="id4" gradientUnits="userSpaceOnUse" x1="2.458" y1="4.946" x2="4.34" y2="2.703"><stop offset="0" style="stop-color:#ed7501"/><stop offset=".349" style="stop-color:#f6ab1c"/><stop offset="1" style="stop-color:#ffe238"/></linearGradient><linearGradient id="id5" gradientUnits="userSpaceOnUse" xlink:href="#id2" x1="1.713" y1="4.64" x2="3.88" y2="2.058"/><clipPath id="id0"><path d="M3.413 0a3.413 3.413 0 1 1 0 6.827 3.413 3.413 0 0 1 0-6.827z"/></clipPath><style>.fil2{fill:none}.fil4{fill:#212121}.fil1{fill:#26c6da}.fil5{fill:#b60a00}.fil16{fill:#d50000}.fil9{fill:#ef6c00}.fil10{fill:#ff8005}.fil12{fill:#ffd336}.fil3{fill:#212121;fill-rule:nonzero}</style></defs><g id="Layer_x0020_1"><path d="M3.413 0a3.413 3.413 0 1 1 0 6.827 3.413 3.413 0 0 1 0-6.827z" style="fill:#80deea"/><g style="clip-path:url(#id0)"><g id="_637651960"><path id="_6559566721" class="fil1" d="M3.774 1.714 7.56 5.5l.007.008.007.009.007.008.007.009.006.009.007.009.006.01.006.009.006.01.006.01.006.01-3.786-3.786-.006-.01-.006-.01-.006-.01-.006-.01-.007-.01-.006-.009-.007-.008-.006-.01-.007-.008-.007-.008z"/><path id="_655956216" class="fil1" d="m3.98 1.919 3.787 3.786.02.024.018.026.017.028.017.03.016.031.016.033.014.035.014.036.014.037.012.039.013.04.011.041.011.043.011.043.01.045.01.046.01.047.01.047.008.049.009.049.008.05.008.05.008.052.008.052.008.053.008.052L4.29 2.997l-.008-.053-.008-.052-.008-.052-.008-.051-.008-.051-.009-.05-.008-.05-.01-.048-.008-.048-.01-.046-.01-.046-.01-.045-.01-.044-.012-.042-.012-.041-.012-.04-.013-.04-.013-.037-.014-.036-.015-.034-.015-.033-.016-.031-.017-.03-.018-.028L4 1.943z"/><path id="_655958472" class="fil1" d="m5.27 3.404 3.787 3.787.003.003.002.003.001.004.002.004v.004l.001.004v.012l-.002.003v.004l-.003.004-.002.003-.002.003-.003.003-.003.003-3.786-3.786.003-.003.003-.003.002-.003.002-.004.002-.003.001-.004.001-.004v-.004l.001-.004v-.007l-.002-.004v-.004l-.003-.004-.002-.003z"/><path id="_655957824" class="fil1" d="M5.214 3.435 9 7.221h-.006L5.208 3.433z"/><path id="_655957896" class="fil1" d="M5.202 3.433 8.99 7.219v.003l-.001.001v.004l-.001.002v.001L5.2 3.444v-.003l.001-.001v-.004l.001-.002z"/><path id="_655958736" class="fil1" d="m4.188 4.299 3.786 3.786-.002.007-.002.007-.003.006-.002.007-.003.006-.002.007-.003.006-.002.006-.002.006-.003.006-.002.006-.003.006-.002.005-.003.006-.002.005-.003.005-.002.005-.002.005-.003.005-.002.005-.003.005-.002.004-.003.004-.002.005-.003.004-.002.004-.003.004-.002.003-.003.004-.002.003-.003.004-.002.003L4.11 4.463l.002-.004.003-.003.002-.003.003-.004.002-.004.003-.004.002-.004.002-.004.003-.004.002-.004.003-.005.002-.004.003-.005.002-.005.003-.005.002-.005.003-.005.002-.006.003-.005.002-.006.002-.005.003-.006.002-.006.003-.006.002-.006.003-.007.002-.006.002-.006.003-.007.002-.007.003-.006z"/><path id="_655959048" class="fil1" d="m4.11 4.463 3.786 3.786-.003.003-.003.004-.003.004-.002.003-.003.004-.003.003-.003.004-.003.003-3.786-3.786.003-.003.003-.004.002-.004.003-.003.003-.004.003-.003.003-.004z"/><path id="_655959000" class="fil1" d="M3.244 3.724 7.03 7.511l-.017-.015-.018-.014-.018-.016-.018-.017-.018-.017-.02-.018-3.786-3.786.02.018.018.017.018.017.018.015.018.015z"/><path id="_655959192" class="fil1" d="M1.823 4.863 5.609 8.65l-.016-.011-.016-.011-.015-.011-.015-.012-.015-.012-3.786-3.786.015.012.015.011.015.012.016.01z"/><path id="_655958616" class="fil1" d="m3.276 5.084 3.786 3.787-.044.023-.046.021-.047.02-.049.016-.05.015-.05.014-.051.01-.052.01-.053.007-.053.005-.053.003-.053.001h-.053l-.052-.003-.053-.005-.051-.006-.052-.009-.05-.01-.05-.012-.048-.014-.047-.016-.046-.018-.044-.019-.043-.021-.04-.023-.04-.025-.036-.027-.034-.028-3.787-3.786.035.028.037.027.038.024.041.023.043.022.044.02.046.017.047.016.048.014.05.012.05.01.051.008.052.007.052.004.053.003h.106l.053-.003.053-.006.052-.007.052-.009.052-.01.05-.014.05-.015.048-.017.048-.02.046-.02z"/><path id="_655959264" class="fil1" d="m4.087 4.491 3.786 3.786-.012.015-.013.015-.012.015-.013.015-.013.014-.014.015-.014.015-.015.015-.015.015-.016.015-.017.015-.018.016-.018.015-.02.017-.02.016-.022.017-.023.017-.024.018-.026.018-.027.018-.028.02-.03.02-.032.02-.033.02-.035.023-.037.022-.039.023-.04.024-.043.025-.045.026-.047.027-.05.028-3.786-3.787.05-.027.047-.027.044-.026.043-.025.041-.024.039-.023.037-.023.035-.021.033-.021.032-.02.03-.02.028-.02.027-.019.025-.018.025-.017.023-.018.021-.016.02-.017.02-.016.019-.016.018-.015.016-.015.017-.016.015-.015.015-.014.014-.015.013-.015.014-.015.013-.014.012-.015.013-.015z"/><path id="_655958952" class="fil1" d="M5.208 3.434 8.994 7.22H8.99L5.202 3.432z"/><path id="_655958712" class="fil1" d="M5.265 3.462 9.05 7.248l-.003.003-.003.002-.004.001-.004.002h-.003l-.004.001h-.015l-.003-.002-.004-.001-.003-.002-.003-.002-.003-.002-.003-.003-3.787-3.786.003.002.003.003.004.002.003.001.003.002h.004l.004.002h.015l.003-.002.004-.001.003-.002.004-.002z"/><path id="_655958520" class="fil1" d="m4.29 2.997 3.786 3.786.006.045.005.045.005.045.004.046.002.046.003.045.001.046.001.046v.091l-.001.046-.002.045-.002.045-.003.044-.004.044-.003.043-.005.043-.005.043-.005.041-.006.041-.006.04-.006.04-.007.038-.007.037-.008.037-.007.035-.008.034-.009.033-.008.031-.009.03-.009.03-.009.027-3.786-3.786.009-.028.009-.029.009-.03.008-.031.008-.033.008-.034.008-.036.008-.036.007-.037.007-.039.006-.039.006-.04.006-.04.005-.043.005-.042.004-.043.004-.043.003-.044.003-.045.003-.045.001-.045.001-.045v-.137l-.002-.046-.002-.046-.003-.045-.003-.046-.005-.045-.005-.045z"/><path id="_637651936" class="fil1" d="m5.208 3.434-.006-.001-.002.011a.041.041 0 1 1 .01.015l.004-.024-.006-.001zm-1.02.865a.584.584 0 0 1-.101.192c-.13.161-.272.293-.81.593-.467.26-1.213.164-1.454-.22-.174-.113-.286-.28-.276-.495.029-.623.603-.69.987-.673.312.015.738.148.8.127-.03-.03-.06-.062-.09-.099-.179-.147-.457-.414-.433-.975.027-.64.477-1.223.789-1.145.103.026.182.1.245.21.274.118.362.617.445 1.183A3.148 3.148 0 0 1 4.188 4.3z"/></g></g><path class="fil2" d="M3.413 0a3.413 3.413 0 1 1 0 6.827 3.413 3.413 0 0 1 0-6.827z"/><path class="fil2" d="M4.41 4.097c-.122-.602.694-.412.544-1.063"/><path class="fil3" d="M4.404 4.098c-.06-.298.105-.404.273-.511.173-.11.347-.222.27-.552l.012-.002c.078.337-.1.451-.275.564-.165.105-.327.209-.269.499l-.011.002z"/><path class="fil4" d="M5.011 2.998a.041.041 0 1 1-.064.052.041.041 0 0 1 .064-.052z"/><path class="fil5" d="M3.912 4.268c.126-.16.267-.868.18-1.465-.088-.598-.18-1.121-.492-1.2-.312-.077-.762.505-.79 1.146-.026.64.339.898.502 1.03.163.133-.394-.065-.778-.083-.384-.018-.958.05-.987.673-.028.623.961.838 1.531.52.57-.317.696-.446.834-.621z"/><path d="M3.602 4.499v-.187h.06c.104-.003.1.042.06.08a.455.455 0 0 1-.12.107zm0-.269V4.07c.092.071.158.14.059.154a2.665 2.665 0 0 1-.059.007zm0-.26v-.307c.04.133.087.279.111.34.036.06-.025.03-.111-.033zm0-.617c.074.29.16.572.168.648.015.148.098.124.13.017.083-.28.113-1.04.055-1.39-.058-.35-.126-.16-.22-.123-.048.018-.093-.008-.133 0v.848zm0-.95v-.698c.143.078.228.425.254.554.027.135-.135.195-.254.144zm0-.698v.698a.387.387 0 0 1-.09-.063v-.647a.74.74 0 0 1 .017-.003.118.118 0 0 1 .073.015zm0 .8v.848a4.856 4.856 0 0 1-.09-.412v-.315c.027-.09.057-.116.09-.122zm0 1.158v.307a2.207 2.207 0 0 1-.09-.07V3.39c.012.01.02.023.024.038.01.046.036.138.066.236zm0 .406v.161a5.127 5.127 0 0 1-.09.01v-.237c.03.02.061.043.09.066zm0 .243v.187l-.09.063v-.25h.09zm-.09-1.053c.016-.003.022-.01.017-.02a.539.539 0 0 1-.017-.045v.065zm0-.792a.16.16 0 0 1 .008-.01c.011-.012.007-.033-.008-.06v.07zm0-.774v.647a1.08 1.08 0 0 1-.14-.17v-.442a.621.621 0 0 1 .14-.035zm0 .704a.858.858 0 0 0-.14-.168v.542c.03.003.047-.003.046-.023a.626.626 0 0 1 .094-.281v-.07zm0 .229v.315a.798.798 0 0 1-.01-.276.771.771 0 0 1 .01-.04zm0 .568c-.027-.08-.053-.193-.072-.268-.004-.02-.03-.042-.068-.065v.388a.47.47 0 0 0 .14.01v-.065zm0 .195V3.9a2.582 2.582 0 0 1-.14-.122v-.447a.32.32 0 0 1 .14.058zm0 .614v.236l-.14.011v-.336a.82.82 0 0 1 .106.064l.034.025zm0 .31v.25c-.043.029-.09.06-.14.091v-.341h.14zm-.825.083c.015-.028.017-.05 0-.067v.067zm.685-2.668v.442a3.162 3.162 0 0 1-.072-.108c-.12-.19-.047-.286.072-.334zm0 .501a2.122 2.122 0 0 0-.149-.134c-.148-.12-.35.401-.24.491.085.069.296.176.39.185V2.23zm0 .632v.388c-.156-.026-.38-.09-.44-.13-.099-.065-.055-.5.038-.448.07.039.29.12.402.19zm0 .47c-.096-.022-.214-.035-.297-.064-.15-.052.145.36.297.511v-.447zm0 .583v.336c-.152.011-.325.02-.458.019-.108-.001-.178-.004-.227-.017V3.77a.49.49 0 0 1 .026.001c.267.02.484.055.66.144zm0 .399v.341c-.182.115-.391.23-.515.263-.102.026-.15-.005-.17-.061v-.22L2.7 4.54c.014-.155.18-.22.35-.225.084-.002.206-.003.322-.003zm-.745.592c-.029-.063-.057-.342.012-.437a.623.623 0 0 0 .048-.072V4.33a.156.156 0 0 0-.066-.035c-.113-.036-.157-.16-.18-.298-.022-.138.031-.215-.107-.24-.139-.025-.754.16-.692.642.063.482.353.519.577.566.225.048.495.02.408-.059zm.06-1.136v.483c-.06-.015-.088-.045-.115-.102-.05-.102-.175-.387.115-.38zm0 .867v.22a.528.528 0 0 1 0-.22z" style="fill:url(#id5)"/><path d="M3.9 4.018c.083-.28.113-1.04.055-1.39-.058-.35-.126-.16-.22-.123-.048.018-.093-.008-.133 0v.848c.074.29.16.572.168.648.015.148.098.124.13.017zm-.298.48v-.186h.06c.104-.003.1.042.06.08a.455.455 0 0 1-.12.107zm0-.268V4.07c.092.071.158.14.059.154a2.665 2.665 0 0 1-.059.007zm0-1.726c-.037.007-.07.04-.1.161-.03.123.03.41.1.688v-.849zm0 1.565v.161c-.168.019-.479.04-.688.039-.238-.002-.292-.014-.342-.12-.05-.104-.182-.403.141-.379.324.024.572.07.765.208l.124.09zm0 .243v.187c-.191.14-.561.37-.745.418-.253.065-.172-.22-.157-.376.014-.155.18-.22.35-.225.147-.003.412-.003.552-.004z" style="fill:url(#id2)"/><path d="M3.838 4.022a3.64 3.64 0 0 0-.006-.577v.53l.006.047zm-.006-1.128v-.195c.027-.056.084-.054.104.145.03.297.02.946-.066 1.15a8.19 8.19 0 0 0-.038-1.1zm0 .55c-.016-.25-.039-.499-.044-.597-.005-.073-.025-.115-.047-.13v.57l.09.688v-.53zm0-.745v.195a1.068 1.068 0 0 0-.012-.087.177.177 0 0 1 .012-.108zm-.09 1.105v-.27c.03.208.056.401.063.484a3.39 3.39 0 0 1-.064-.214zm0-1.087c-.036-.024-.076.022-.06.124l.06.446v-.57zm0 .818v.27c-.09-.335-.181-.795-.2-.914-.024-.148.088-.176.103-.027.009.085.055.39.096.67z" style="fill:url(#id1)"/><path class="fil5" d="M3.63 4.152a1.793 1.793 0 0 0-.43-.149v.11c.12.013.261.026.43.039zm-.43.075v-.09c.15.013.313.028.417.046-.15.024-.292.038-.416.044zm0-.252v-.083c.162.055.293.133.411.223a2.32 2.32 0 0 0-.41-.14zm0 .028a2.346 2.346 0 0 0-.297-.047c-.186-.016-.185.084-.03.112.084.015.191.03.328.045v-.11zm0-.111v.083a1.869 1.869 0 0 0-.327-.051c-.12-.006-.236-.142.06-.097.098.015.187.037.268.065zm0 .245v.09c-.12.006-.223.004-.297-.003-.149-.014-.162-.14-.014-.117.067.01.185.02.312.03z"/><path class="fil9" d="M3.433 1.802c.164-.103.45.423.275.506-.176.084-.466-.388-.275-.506z"/><path class="fil10" d="M3.848 2.523c-.07.019-.068.122.006.118.074-.005.06-.134-.006-.118zM3.715 2.554c.069-.019.073.135-.002.134-.074-.001-.062-.148.002-.134zM3.584 2.597c.052-.008.054.134-.008.138-.062.004-.064-.133.008-.138z"/><path class="fil9" d="M3.054 2.325c-.083.222.265.452.346.227.077-.213-.262-.455-.346-.227zM2.97 2.938c-.016.177.463.377.407.09-.042-.214-.382-.358-.406-.09z"/><path class="fil10" d="M3.277 3.555c-.085-.143.163-.236.235.01.062.211-.055.298-.235-.01z"/><path d="M2.694 3.856c.017.05-.123.075-.137.015-.014-.06.12-.085.137-.015z" style="fill:#9b821f"/><path class="fil12" d="M2.714 3.993c.012.05-.133.092-.146.006-.013-.086.135-.077.146-.006zM2.75 4.135c.013.05-.117.083-.136.007-.019-.076.126-.078.137-.007zM2.843 4.447c.03.024-.033.1-.077.064-.044-.037.04-.101.077-.064zM2.827 4.61c.024.042-.07.1-.107.039-.037-.062.079-.098.107-.039zM2.847 4.778c.024.042-.093.153-.132.048-.038-.104.103-.107.132-.048z"/><path d="M3.685 4.389a2.039 2.039 0 0 1-.415.187v-.119c.11-.021.245-.044.415-.068zm-.415.298c.15-.078.285-.16.399-.26a3.107 3.107 0 0 1-.399.179v.08zm0-.257c.143-.022.298-.046.4-.072a3.898 3.898 0 0 0-.4-.018v.09zm0 .146a1.816 1.816 0 0 1-.28.07c-.184.029-.171-.084-.017-.123.08-.02.174-.042.297-.066v.119zm0-.236a1.913 1.913 0 0 0-.279.02c-.147.025-.166.153-.02.12.067-.014.18-.031.3-.05v-.09zm0 .266a1.468 1.468 0 0 1-.3.08c-.12.015-.152.218.083.108.075-.036.148-.07.217-.107v-.081z" style="fill:url(#id3)"/><path d="M2.118 3.963c-.372.056-.525.708.001.816.577.118.373-.872-.001-.816z" style="fill:#a68b22"/><path d="M4.11 4.463c.126-.16.267-.868.18-1.466-.088-.598-.18-1.12-.492-1.198-.312-.079-.762.504-.79 1.144-.026.64.339.898.502 1.031.163.133-.394-.065-.778-.083-.385-.018-.958.05-.987.673-.028.623.961.838 1.531.52.57-.317.696-.447.834-.621z" style="fill:#ff1744"/><path class="fil16" d="M3.8 4.694v-.188h.06c.104-.002.1.042.06.081a.455.455 0 0 1-.12.107zm0-.27v-.16c.092.07.158.14.059.154a2.594 2.594 0 0 1-.06.007zm0-.26v-.306c.04.133.087.278.111.339.036.06-.025.03-.111-.033zm0-.616c.074.29.16.572.168.648.015.147.098.124.13.017.083-.281.113-1.04.055-1.39-.058-.351-.126-.16-.22-.124-.048.02-.093-.007-.133 0v.849zm0-.95V1.9c.143.077.228.425.254.554.027.134-.135.195-.254.143zm0-.698v.697a.388.388 0 0 1-.09-.063v-.647a.98.98 0 0 1 .017-.002.118.118 0 0 1 .073.015zm0 .799v.849a4.862 4.862 0 0 1-.09-.412v-.315c.027-.09.057-.117.09-.122zm0 1.159v.306a2.217 2.217 0 0 1-.09-.069v-.512c.012.011.02.024.023.038.01.046.037.138.067.237zm0 .405v.162a5.275 5.275 0 0 1-.09.009v-.237l.09.066zm0 .243v.188l-.09.063v-.25h.09zm-.09-1.052c.016-.004.022-.01.017-.021a.543.543 0 0 1-.017-.044v.065zm0-.793a.163.163 0 0 1 .008-.01c.01-.011.007-.032-.008-.06v.07zm0-.774v.647a1.078 1.078 0 0 1-.14-.17v-.442a.622.622 0 0 1 .14-.035zm0 .705a.857.857 0 0 0-.14-.168v.542c.029.003.047-.003.046-.023a.626.626 0 0 1 .094-.282v-.07zm0 .229v.315a.798.798 0 0 1-.01-.276.768.768 0 0 1 .01-.04zm0 .568c-.027-.08-.053-.193-.072-.268-.004-.02-.03-.042-.068-.066v.389a.47.47 0 0 0 .14.01v-.065zm0 .194v.512a2.576 2.576 0 0 1-.14-.122v-.447a.32.32 0 0 1 .14.057zm0 .614v.237a7.9 7.9 0 0 1-.14.011V4.11c.037.019.072.04.105.064l.035.024zm0 .31v.25c-.043.03-.09.06-.14.092v-.341l.14-.001zm-.825.084c.015-.028.017-.05 0-.068v.068zm.685-2.669v.443a3.123 3.123 0 0 1-.072-.109c-.12-.19-.047-.286.072-.334zm0 .502a2.13 2.13 0 0 0-.149-.134c-.148-.121-.35.4-.24.49.085.07.296.176.39.186v-.542zm0 .631v.389c-.156-.027-.38-.09-.44-.13-.099-.065-.055-.5.038-.448.07.039.29.119.402.19zm0 .47c-.096-.021-.214-.034-.297-.063-.15-.053.145.36.297.51v-.446zm0 .584v.336c-.152.011-.325.02-.458.018-.108 0-.178-.003-.227-.016v-.483a.5.5 0 0 1 .026.001c.267.02.483.055.66.144zm0 .399v.341c-.182.115-.391.23-.515.262-.102.027-.15-.004-.17-.06v-.22l.013-.095c.014-.155.18-.22.35-.225.084-.002.206-.003.322-.003zm-.745.592c-.029-.063-.057-.342.012-.437a.622.622 0 0 0 .048-.072v-.068a.156.156 0 0 0-.066-.034c-.113-.037-.157-.16-.18-.298-.023-.139.031-.215-.107-.24-.139-.025-.754.16-.692.642.063.481.353.519.577.566.225.047.495.02.408-.06zm.06-1.136v.483c-.06-.015-.088-.045-.115-.103-.05-.101-.175-.387.115-.38zm0 .867v.22a.528.528 0 0 1 0-.22z"/><path d="M4.097 4.213c.084-.281.114-1.04.056-1.39-.058-.351-.126-.16-.22-.124-.048.02-.093-.007-.133 0v.849c.074.29.16.572.168.648.015.147.098.124.13.017zm-.297.48v-.187h.06c.104-.002.1.042.06.081a.455.455 0 0 1-.12.107zm0-.268v-.162c.092.072.158.142.059.155a2.594 2.594 0 0 1-.06.007zm0-1.726c-.037.006-.07.04-.1.16-.03.124.029.41.1.689v-.85zm0 1.564v.162c-.168.018-.479.04-.688.038-.238-.002-.292-.014-.342-.119-.05-.104-.182-.403.141-.379.324.024.572.07.764.208.039.027.084.059.125.09zm0 .243v.188c-.191.14-.561.37-.745.417-.253.066-.172-.22-.157-.375.014-.155.18-.22.35-.225.147-.004.412-.003.552-.005z" style="fill:url(#id4)"/><path class="fil16" d="M4.036 4.217a3.638 3.638 0 0 0-.006-.578v.53l.006.048zM4.03 3.088v-.195c.027-.056.084-.054.104.146.03.297.02.946-.066 1.15a8.19 8.19 0 0 0-.038-1.1zm0 .551c-.016-.25-.039-.499-.044-.598-.005-.073-.025-.115-.047-.13v.57l.09.689v-.53zm0-.746v.195a1.071 1.071 0 0 0-.012-.086.177.177 0 0 1 .012-.109zM3.94 4v-.27c.03.207.056.401.063.483A3.386 3.386 0 0 1 3.939 4zm0-1.088c-.036-.024-.076.023-.06.124l.06.447v-.57zm0 .818V4a12.26 12.26 0 0 1-.2-.913c-.024-.148.088-.176.103-.027.008.085.055.39.096.67zM3.828 4.346a1.793 1.793 0 0 0-.43-.148v.11c.12.013.261.026.43.038zm-.43.076v-.09c.15.013.313.027.417.046-.15.024-.292.038-.416.044zm0-.252v-.084c.162.056.293.134.41.223a2.325 2.325 0 0 0-.41-.14zm0 .028a2.341 2.341 0 0 0-.297-.047c-.186-.016-.185.083-.03.112.084.015.19.03.328.045v-.11zm0-.112v.084a1.87 1.87 0 0 0-.327-.052c-.12-.005-.236-.141.06-.097.098.015.187.037.268.065zm0 .246v.09c-.12.006-.223.004-.297-.003-.149-.014-.162-.14-.014-.118.067.01.185.02.312.031z"/><path class="fil10" d="M3.63 1.996c.165-.102.452.424.276.507-.176.083-.466-.388-.275-.507zM4.046 2.717c-.07.02-.068.123.006.118.074-.004.06-.133-.006-.118zM3.913 2.749c.069-.02.073.135-.002.134-.074-.002-.062-.149.002-.134zM3.782 2.791c.052-.007.054.135-.008.138-.062.004-.064-.133.008-.138zM3.252 2.52c-.083.222.265.452.346.227.077-.214-.262-.455-.346-.227zM3.168 3.132c-.016.178.463.378.407.09-.042-.214-.382-.358-.407-.09zM3.474 3.75c-.084-.143.164-.236.236.009.062.212-.055.299-.236-.01z"/><path class="fil12" d="M2.892 4.05c.017.05-.123.076-.137.015-.014-.06.12-.085.137-.015zM2.912 4.188c.012.05-.133.091-.146.005-.013-.085.135-.077.146-.005zM2.949 4.33c.012.05-.118.082-.137.007-.019-.076.126-.079.137-.008zM3.041 4.641c.03.025-.033.1-.077.064-.044-.036.04-.1.077-.064zM3.025 4.805c.024.042-.07.1-.107.039-.037-.062.079-.099.107-.039zM3.045 4.973c.024.041-.093.152-.132.048-.038-.105.103-.108.132-.048z"/><path class="fil16" d="M3.883 4.584a2.037 2.037 0 0 1-.415.187v-.12c.11-.02.245-.044.415-.067zm-.415.297c.15-.077.285-.16.399-.26a3.104 3.104 0 0 1-.399.18v.08zm0-.256c.143-.022.298-.046.4-.072a3.893 3.893 0 0 0-.4-.018v.09zm0 .146a1.817 1.817 0 0 1-.28.07c-.184.028-.171-.085-.017-.123.08-.02.174-.042.297-.066v.119zm0-.236a1.917 1.917 0 0 0-.279.02c-.147.025-.166.152-.02.12.067-.014.18-.031.3-.05v-.09zm0 .266a1.467 1.467 0 0 1-.3.08c-.12.014-.152.218.083.107.075-.035.148-.07.217-.107v-.08z"/><path class="fil12" d="M2.316 4.158c-.372.056-.525.708.001.815.577.119.373-.871-.001-.815z"/><path class="fil16" d="M4.388 4.292c.065.246-.45.9-.93.885.546-.25.565-.57.672-.788.056-.113.108-.137.162-.17a.11.11 0 0 1 .009-.116c.037-.048.111-.054.165-.012.053.041.066.114.028.162a.11.11 0 0 1-.106.039z"/><path class="fil2" d="M4.451 4.133c.126-.6.639-.041.757-.699"/><path class="fil3" d="M4.445 4.132c.063-.298.218-.315.376-.332.16-.017.322-.035.381-.367l.012.002c-.061.341-.228.36-.392.377-.153.017-.305.033-.365.322l-.012-.002z"/><path class="fil4" d="M5.27 3.404a.041.041 0 1 1-.063.052.041.041 0 0 1 .064-.052z"/></g></svg>