<svg xmlns="http://www.w3.org/2000/svg" xml:space="preserve" width="655.359" height="655.359" style="shape-rendering:geometricPrecision;text-rendering:geometricPrecision;image-rendering:optimizeQuality;fill-rule:evenodd;clip-rule:evenodd" viewBox="0 0 6.827 6.827"><defs><clipPath id="id0"><path d="M3.413 0a3.413 3.413 0 1 1 0 6.827 3.413 3.413 0 0 1 0-6.827z"/></clipPath><style>.str0{stroke:#212121;stroke-width:.00333465;stroke-linecap:round;stroke-linejoin:round}.fil2{fill:none}.fil4{fill:#212121}.fil1{fill:#3949ab}.fil13{fill:#bdbdbd}.fil9{fill:#c47821}.fil7{fill:#d18023}.fil8{fill:#d68528}.fil3{fill:#de8a28}.fil10{fill:#e66910}.fil12{fill:#212121;fill-rule:nonzero}</style></defs><g id="Layer_x0020_1"><path d="M3.413 0a3.413 3.413 0 1 1 0 6.827 3.413 3.413 0 0 1 0-6.827z" style="fill:#5c6bc0"/><g style="clip-path:url(#id0)"><g id="_637667632"><path id="_4602440561" class="fil1" d="M4.405 2.18 8.19 5.966l-.002-.002-.003-.003L4.4 2.175l.002.003z"/><path id="_460244080" class="fil1" d="m4.43 2.202 3.787 3.786-.004-.002-.003-.002-.004-.003-.003-.003-.003-.002-.003-.003-.003-.003-.003-.004L4.405 2.18l.003.003.003.003.003.003.003.003.003.003.003.002.004.003z"/><path id="_460245352" class="fil1" d="M4.569 2.005 8.355 5.79l.004.005L4.573 2.01z"/><path id="_460245592" class="fil1" d="M5.15 2.014 8.938 5.8l.004.005.004.005.003.006.003.005.003.006.003.006.002.006.002.006.002.007.002.006.001.007.002.007v.041l-.001.005-.001.005-.001.005-.001.004-3.787-3.786.002-.005v-.004l.002-.005v-.01l.001-.006v-.031L5.18 2.08l-.001-.007-.002-.007-.002-.006-.002-.006-.002-.006-.003-.006-.003-.006-.003-.006-.004-.005-.003-.005z"/><path id="_460246048" class="fil1" d="m5.177 2.146 3.787 3.786-.001.005-.001.004-.001.004-.002.003-.001.004-.002.004-.001.004-.002.003-.002.004-.002.003-.002.004-.003.003-.002.003-.003.003-.002.003-.003.002-3.786-3.786.002-.003.003-.002.003-.003.002-.004.002-.003.002-.003.003-.003.001-.004.002-.004.002-.003.002-.004.001-.004.001-.004.001-.004.002-.004z"/><path id="_460245712" class="fil1" d="m5.148 2.202 3.786 3.786-.003.004-.004.003L8.924 6l-.004.003-.003.003-.004.003-.004.003-.004.002-.004.002-.004.003-.005.002-.004.002-.004.001-.005.002-.004.001-.005.001-3.786-3.786.004-.001.005-.002.004-.001.005-.002.004-.002.004-.002.005-.002.004-.002.004-.003.003-.002.004-.003.004-.003.004-.004.003-.003.003-.003z"/><path id="_460245952" class="fil1" d="M5.084 2.24 8.87 6.028l.002.007.001.006.001.007.002.006v.007l.002.007v.007l.001.007.001.007v.007l.001.007V6.138L5.095 2.352v-.043L5.093 2.3v-.006l-.002-.007V2.28l-.002-.007v-.007l-.002-.006-.001-.007-.002-.007z"/><path id="_460246024" class="fil1" d="M5.095 2.352 8.88 6.138V6.151l-.001.005v.004l-.001.004v.004l-.001.005-.001.004v.004l-.002.004v.004l-.002.005v.004l-.002.004-.001.004-.002.004-.001.004-.002.004-.001.004-.002.004-.001.004-.002.004-.002.004-.002.003-.002.004-.002.004-.002.004-.003.004-.002.003-.002.004-.003.004-3.786-3.786.002-.004.003-.004.002-.004.002-.003.003-.004.002-.004.002-.004.002-.004.001-.004.002-.003.002-.004.002-.004.001-.004.002-.004.001-.004.001-.004.002-.004V2.41l.002-.004.001-.004V2.4l.002-.004V2.39l.001-.005.001-.004v-.004l.001-.004v-.005l.001-.004V2.356z"/><path id="_460245520" class="fil1" d="m5.053 2.482 3.786 3.786-.002.003-.003.004-.003.004-.002.003-.003.004-.003.003-.003.004-.003.003-.003.004-.004.003-.003.004-.003.003-.004.004-.003.003-.004.003-.004.004-3.786-3.787.004-.003.003-.003.004-.004.003-.003.004-.003.003-.004.003-.003.003-.004.004-.003.003-.004.003-.003.002-.004.003-.004.003-.003.002-.004z"/><path id="_460246120" class="fil1" d="m5.003 2.537 3.786 3.787v.065l-.001.01v.018l-.001.009v.008l-.001.01v.008l-.001.009v.008l-.001.009v.008l-.002.009v.016l-.002.008v.008l-.001.008-.001.008v.008l-.002.008v.008l-.002.008v.007l-.001.008-.001.008L4.985 2.81l.001-.007.001-.008.001-.008.001-.007.001-.008v-.008l.002-.008V2.75l.001-.008.001-.008v-.008l.002-.008V2.7l.001-.009.001-.008v-.009L5 2.666v-.01L5 2.649V2.63l.001-.009v-.018l.001-.009v-.048z"/><path id="_460245472" class="fil1" d="m4.985 2.811 3.787 3.787v.005l-.001.002v.003l-.001.001-3.786-3.786v-.006l.001-.002v-.002z"/><path id="_460246888" class="fil1" d="M4.984 2.823 8.77 6.61l-.001.008-.002.008-.001.007-.002.008-.002.008-.002.008-.003.008-.002.008-.003.008-.002.007-.003.008-.003.008-.002.008-.003.008-.003.008-.003.008-.003.007-.003.008-.002.008-.003.007-.003.008-.002.007-.003.007-.002.007-.002.008-.003.006-.001.007-.002.007-.002.006-.001.007-.001.006-.001.006-3.786-3.786v-.006l.002-.007.001-.006.002-.006.001-.007.002-.007.002-.007.002-.007.003-.007.002-.007.003-.008.003-.007.002-.008.003-.007.003-.008.003-.008.003-.007.002-.008.003-.008.003-.008.003-.008.003-.008.002-.008.003-.008.002-.008.002-.007.003-.008.002-.008.001-.008.002-.008.001-.007z"/><path id="_460246960" class="fil1" d="m4.913 3.06 3.786 3.787v.007l-.001.004v.003l-.001.004v.003l-.001.003v.004L4.909 3.089v-.004l.001-.003v-.004l.001-.003v-.007l.001-.004z"/><path id="_460246816" class="fil1" d="m4.91 3.089 3.786 3.786-.004.03-.004.028-.003.026-.003.024-.004.022-.003.021-.003.02-.003.018-.004.018-.003.015-.004.015-.003.014-.004.014-.004.012-.004.012-.005.012-.005.01-.005.011-.005.011-.006.01-.006.011-.007.011-.007.011-.008.012-.008.011-.01.013-.009.013-.01.014-.01.015-.012.015-.012.017-.013.018L4.72 3.593l.013-.018.012-.017.011-.016.011-.014.01-.014.01-.013.008-.013.009-.012.007-.011.008-.011.006-.011.007-.01.006-.011.005-.01.005-.012.005-.01.005-.012.004-.012.004-.013.004-.013.003-.014.004-.015.003-.016.003-.017.004-.018.003-.02.003-.02.003-.023.004-.025.003-.026.004-.028z"/><path id="_460246672" class="fil1" d="M4.719 3.593 8.505 7.38l-.005.008L4.714 3.6z"/><path id="_460246264" class="fil1" d="M4.714 3.6 8.5 7.387l.002.004.001.005.002.005.001.005.002.005.002.005.001.005.002.006.002.005.001.006.002.006.002.006.002.006.001.006.002.006.002.006.002.006.002.007.001.006.002.007.002.006.002.007.002.007.002.006.002.007.002.007.002.007.001.007.002.008.002.007.002.007.002.007-3.786-3.786-.002-.007-.002-.007-.002-.008-.002-.007-.002-.007-.002-.007-.002-.007-.002-.007-.001-.007-.002-.006-.002-.007-.002-.007-.002-.006-.002-.007-.002-.006-.001-.006-.002-.007-.002-.006-.002-.006-.001-.006-.002-.005-.002-.006-.002-.006-.001-.005-.002-.006-.002-.005-.001-.005-.002-.005-.002-.005-.001-.005-.002-.005z"/><path id="_460246336" class="fil1" d="m4.771 3.797 3.786 3.786.006.02.005.018.005.02.006.02.005.02.006.02.006.02.005.019.006.02.006.02.006.02.006.02.006.019.007.019.006.019.006.018.007.018.006.018.007.017.006.017.007.016.007.016.006.015.007.014.007.014.007.012.007.012.007.011.007.01.007.01.007.008-3.786-3.786-.007-.009-.007-.009-.007-.01-.007-.011-.007-.012-.007-.013-.007-.013-.007-.015-.007-.015-.006-.015-.007-.016-.007-.017-.006-.017-.007-.018-.006-.018-.006-.019-.007-.019-.006-.019-.006-.02-.006-.019-.006-.02-.006-.02-.006-.02-.006-.02-.005-.02-.006-.019-.006-.02-.005-.02-.005-.019-.006-.019z"/><path id="_460246768" class="fil1" d="M5.234 4.515 9.02 8.302l.004.005.005.005.004.004.004.005.003.005.004.005.003.004.003.005.002.005.003.004.002.005.002.004.001.004.002.005v.004L5.278 4.585l-.002-.005-.001-.004-.002-.004-.002-.005-.002-.004-.002-.005-.003-.004-.002-.005-.004-.005-.003-.004-.003-.005-.004-.005-.004-.005-.005-.005z"/><path id="_460246504" class="fil1" d="M4.321 3.675 8.108 7.46l-.007.001-3.786-3.786z"/><path id="_460246552" class="fil1" d="m4.315 3.676 3.786 3.786-.008.002-.008.002-.007.003-.007.002-.006.003-.006.003-.005.004-.006.003-.004.004-.005.004-.004.005-.004.005-.003.005-.003.005-.003.006-.003.006-.003.007-.002.007-.002.007-.002.008-.001.008-.002.008-.001.009-.002.01-.001.009-.001.01-.001.01L8 7.63l-.001.011-.001.012-.001.012-.001.013-3.787-3.786.002-.013v-.012l.001-.012.002-.012v-.01l.002-.011v-.01l.002-.01.001-.01.002-.008.001-.009.002-.008.002-.007.002-.008.002-.006.003-.007.002-.006.003-.006.003-.005.004-.006.004-.004.004-.005.004-.004.005-.004.005-.004.006-.003.006-.003.006-.003.007-.003.007-.002.008-.002z"/><path id="_460246720" class="fil1" d="m3.889 3.701 3.786 3.786H7.625l-.005-.001h-.025L3.809 3.699h.035l.005.001h.035z"/><path id="_460246744" class="fil1" d="m4.21 3.891 3.786 3.786v.005l-.001.004V7.695l-.001.005V7.709l-.001.005v.005l-.001.005v.01l-.001.005v.005l-.001.005v.005l-.001.005v.006l-.001.005v.005l-.001.006v.005l-.001.006v.005l-.001.006-.001.006v.006l-.001.005v.006l-.002.006v.006l-.001.006-3.786-3.786v-.006l.001-.006V4.04l.001-.006.001-.006v-.005l.001-.006V4.01l.001-.005L4.2 4v-.006l.001-.005v-.005l.001-.006v-.005l.001-.005v-.005l.001-.005v-.011l.001-.005v-.004l.001-.005v-.01l.001-.005v-.004l.001-.005V3.9l.001-.004z"/><path id="_460247704" class="fil1" d="m4.592 4.35 3.786 3.786-.004-.003-.004-.004-.004-.003L4.58 4.34l.004.003.004.003z"/><path id="_460247224" class="fil1" d="M4.654 4.406 8.44 8.192l-.004-.004-.005-.005-.004-.004-.005-.004-.004-.005-.005-.004-.005-.004-.004-.005-.005-.004-.005-.004-.006-.004-.005-.005-.005-.004L4.592 4.35l.005.004.005.004.005.005.005.004.005.004.005.004.005.005.005.004.004.004.005.005.004.004.004.004z"/><path id="_460247248" class="fil1" d="M5.277 4.585 9.063 8.37l.001.007.001.006.001.006V8.408l-.002.006v.005l-.003.006-.002.005-.002.005-.003.005-.003.005-.004.005-.004.004-.004.005-3.786-3.786.004-.005.004-.004.003-.005.004-.005.002-.005.003-.005.002-.006.002-.005.001-.006.001-.005v-.006l.001-.006v-.012l-.002-.007z"/><path id="_460247488" class="fil1" d="m5.253 4.673 3.786 3.786-.004.003-.004.004-.004.003-.004.003-.004.003-.005.002-.005.003-.005.003-.005.002-.006.002-.005.002-.006.002-.006.002-.006.001-.006.002-.006.001-3.786-3.786.006-.001.006-.002.006-.001.006-.002.006-.002.005-.002.006-.002.005-.003.005-.002.005-.003.004-.003.005-.002.004-.003.004-.004.004-.003z"/><path id="_460247296" class="fil1" d="m5.172 4.71 3.786 3.787-.008.001-.008.002h-.009l-.009.001h-.047l-.01-.001-.01-.002-.01-.001-.01-.002-.01-.002-.01-.002-.011-.003-.01-.003-.012-.003-.01-.003-.01-.004-.012-.004-.01-.005-.011-.005-.01-.005-.011-.005-.01-.006-.011-.006-.01-.006-.01-.007-.011-.007-.01-.007-.01-.008-3.786-3.786.01.007.01.008.01.007.01.007.01.006.011.006.01.006.011.005.01.005.011.005.011.004.01.005.011.003.011.004.01.003.011.003.01.003.011.002.01.002.011.002.01.001.01.001.01.001h.01l.01.001h.036l.008-.002h.009z"/><path id="_460247368" class="fil1" d="m3.809 3.7 3.786 3.786-.005.001-.004.001-.005.002-.005.001-.005.002h-.004l-.005.002-.005.001-.005.002h-.005L7.54 7.5l-.005.001-.005.001-.005.001-.006.001-.005.001-.006.001-.005.001-.006.001h-.005l-.006.002h-.006l-.006.001-.005.001h-.006l-.006.001-.006.001h-.006l-.006.001h-.006l-.007.001h-.006L3.635 3.73h.012l.006-.001h.007l.006-.001h.006l.005-.002h.006l.006-.001h.006l.006-.002h.005l.006-.001.006-.001.005-.001.006-.001.005-.001.005-.001.006-.001.005-.001.005-.001.005-.002h.005l.005-.002.005-.001.005-.001.005-.002.005-.001.005-.001.004-.002.005-.001z"/><path id="_460247440" class="fil1" d="M4.183 4.152 7.969 7.94v.007l-.002.007v.007l-.001.006v.006l-.002.005v.01l-.001.004v.004L7.961 8v.004l-.001.003v.003l-.001.003v.003L4.173 4.23v-.003l.001-.003V4.22l.001-.004v-.003l.001-.004v-.004l.001-.005v-.004l.001-.005v-.006l.002-.006v-.006l.001-.006V4.16z"/><path id="_460247464" class="fil1" d="m3.635 3.73 3.786 3.787-3.787-3.786z"/><path id="_460247512" class="fil1" d="m3.634 3.731 3.787 3.786h-.005l-.005.001H7.393L3.607 3.732h.022z"/><path id="_460247536" class="fil1" d="m3.607 3.732 3.786 3.786H7.295l-.01-.002h-.01l-.01-.001h-.01l-.01-.002-.011-.001-.01-.001-.01-.002h-.011l-.011-.002-.01-.002-.011-.002-.011-.002-.01-.002-.011-.002-.011-.002-.011-.002-.01-.003-.012-.002-.01-.003-.012-.003-.01-.002-3.787-3.787.011.003.011.003.011.003.01.002.012.003.01.002.011.002.011.002.01.002.011.002.011.002.01.001.011.002.01.001.011.002h.01l.011.002h.01l.01.002h.011l.01.001h.01l.01.001h.01l.01.001H3.598z"/><path id="_460247584" class="fil1" d="M3.276 3.693 7.063 7.48l-.006-.002-.006-.002-.006-.001-.006-.002-.006-.002-.006-.002-.006-.002-.006-.001-.006-.002-.006-.002-.006-.002-.006-.002-.006-.002-.006-.002-.006-.003-.006-.002-3.786-3.786.006.002.006.002.006.002.006.002.006.002.006.002.006.002.006.002.006.002.006.002.006.002.005.002.006.001.006.002.006.002z"/><path id="_460248448" class="fil1" d="m4.196 4.672 3.786 3.786-3.786-3.786z"/><path id="_460248304" class="fil1" d="m3.181 3.663 3.786 3.786-.005-.002-.005-.001-.005-.002-.005-.002-.004-.002-.005-.002-.005-.002-.005-.002-.005-.002-.005-.002-.005-.002-.005-.003-.005-.002-.005-.002-.005-.002-.005-.002L3.102 3.63l.005.002.005.003.005.002.005.002.005.002.005.002.005.002.004.002.005.003.005.002.005.002.005.001.005.002.005.002.005.002z"/><path id="_460248256" class="fil1" d="m3.102 3.63 3.786 3.787v.001L3.103 3.632V3.63z"/><path id="_460248016" class="fil1" d="m2.2 3.006 3.786 3.787-.01.01-.01.012-.01.012-.009.012-.008.012-.008.012-.008.013-.007.013-.007.013-.007.013-.006.014-.006.013-.006.014-.005.014-.005.014L5.869 7l-.004.014-.005.014-.004.015-.004.014-.003.015-.004.015-.003.014-.003.015-.003.015-.003.014-.003.015-.003.015-.002.014-.003.015-.002.014-.003.015-3.786-3.787.002-.014.003-.014.002-.015.003-.014.003-.015.003-.015.002-.015.004-.014.003-.015.003-.015.003-.014.004-.015.004-.014.004-.015.004-.014.005-.015.005-.014.005-.014.005-.014.006-.014.006-.013.006-.014.006-.013.007-.013.008-.013.007-.013.008-.012.009-.013.009-.012.01-.011.01-.012z"/><path id="_460247944" class="fil1" d="m2.65 3.748 3.786 3.786-.002.008-.003.008-.003.007-.003.008-.003.007-.003.007-.003.008-.004.007-.003.007-.004.008-.003.007-.004.007-.004.007-.004.007-.004.007-.004.007-3.786-3.786.004-.007.004-.007.004-.007.004-.007.003-.008.004-.007.003-.007.004-.007.003-.007.004-.008.003-.007.003-.008.003-.007.003-.008.002-.007z"/><path id="_460248136" class="fil1" d="M3.102 3.632 6.89 7.418l.002.015.003.015.002.016.002.017.002.017.002.018.001.018.002.018v.038l.001.018v.04l-.002.019v.02l-.003.02-.002.019-.003.02-.003.02-.004.019-.004.019-.005.019-.005.019-.006.018-.007.018-.007.018-.008.017-.008.017-.01.016-.01.016-.01.015-.012.015-3.786-3.787.012-.014.01-.015.01-.016.01-.016.008-.017.008-.017.007-.018.007-.018.006-.019.005-.018.005-.02.004-.019.004-.02.003-.019.003-.02.002-.019.002-.02.001-.02.001-.019v-.095l-.002-.019-.001-.018-.002-.017-.002-.017-.002-.017-.002-.016-.003-.015z"/><path id="_460248040" class="fil1" d="m4.852 4.618 3.786 3.786-.005-.004-.005-.004-.004-.004-.005-.004-.005-.004-.004-.004-.004-.004-.005-.004-.004-.004-.004-.004-.004-.004-.004-.004-3.787-3.787.005.005.004.004.004.004.004.004.004.004.005.004.004.004.005.004.004.004.005.004.005.004z"/><path id="_460248352" class="fil1" d="M4.194 4.058 7.98 7.844l-.001.009-.001.008v.008l-.002.007v.007l-.001.006-.001.006v.006l-.001.006-.001.005v.005l-.001.005v.004l-.001.005v.004l-.001.004-3.786-3.787v-.008l.001-.004v-.005l.001-.004v-.005l.001-.006.001-.005v-.006l.001-.006.001-.007.001-.007v-.007l.002-.007v-.008z"/><path id="_460247824" class="fil1" d="M4.173 4.229 7.96 8.015v.003l-.001.003v.003l-.001.003v.002l-.001.003v.003l-.001.003-.001.002v.003l-.001.003-.001.003v.004l-.002.003v.004l-.001.004-3.787-3.787.001-.004.001-.003v-.004l.002-.003V4.26l.001-.003v-.003l.001-.003v-.003l.001-.002v-.003l.001-.003v-.002l.001-.003v-.003z"/><path id="_460248184" class="fil1" d="M4.163 4.277 7.95 8.064l-.002.005v.005l-.002.005-.001.005-.001.005-.001.005-.001.004-.001.003-3.786-3.786v-.003l.001-.005.001-.004.002-.005v-.005l.002-.005.001-.006z"/><path id="_460248712" class="fil1" d="M4.155 4.315 7.94 8.101l-.003.014-.002.013-.003.012-.001.012-.002.012-.001.012-.001.01-.001.012V8.258l.002.008v.01l.002.008.001.009.002.008.002.009.002.008.001.008.003.008.002.008.002.008.003.008.002.007.003.008.002.008.003.008.002.007.003.008-3.786-3.786-.003-.008-.002-.008-.003-.007-.003-.008-.002-.008-.003-.008-.002-.008-.002-.007-.003-.008-.002-.008-.002-.008-.002-.009-.001-.008-.002-.008-.001-.01-.002-.008V4.48l-.002-.009v-.07l.002-.012v-.011l.002-.012.002-.012.002-.013.003-.013z"/><path id="_460248568" class="fil1" d="m4.178 4.618 3.786 3.786.001.004.002.003v.004l.002.003.001.004.002.004v.003l.002.004.001.003.001.003.001.004.001.003.002.003v.003l.002.003v.003L4.196 4.672V4.67l-.002-.003v-.003l-.002-.003v-.004l-.002-.003-.001-.003-.001-.004-.002-.003v-.004l-.002-.003-.001-.004-.001-.003-.002-.004v-.003z"/><path id="_460248544" class="fil1" d="m4.196 4.672 3.786 3.786v.002l.001.001v.004l.001.002v.003L4.198 4.683v-.007l-.001-.001v-.002z"/><path id="_460248664" class="fil1" d="M4.198 4.683 7.984 8.47v.01l-.001.008-.002.01-.003.008-.003.008-.004.008-.005.007-.005.007-.006.007-.007.006-.007.006-.007.005-.009.005-.008.005-.01.004-.009.003-3.786-3.786.01-.003.009-.004.008-.005.008-.005.008-.005.007-.006.007-.006.006-.007.005-.007.005-.007.004-.008.003-.008.003-.009.002-.009v-.01z"/><path id="_460248640" class="fil1" d="m4.112 4.791 3.786 3.786-.005.002-.005.002-.006.001-.005.001-.006.001-.006.001H7.86l-.006.001h-.006l-.006.001H7.823l-.007-.001H7.81l-.006-.002-3.786-3.786.006.001h.006l.006.001h.037l.006-.001.006-.001.005-.001.006-.001.005-.002.006-.001z"/><path id="_460249096" class="fil1" d="m3.011 4.205 3.786 3.787-.004.004-.004.005-.004.005-.004.005-.005.005-.004.005-.005.005-.004.005-3.786-3.787.004-.004.005-.005.004-.005.004-.005L3 4.22l.004-.005.004-.005z"/><path id="_460249168" class="fil1" d="m2.03 3.445 3.787 3.787-.003.016-.003.017-.003.016-.003.016-.003.016-.003.016-.003.016-.003.015-.004.015-.003.015-.004.014-.004.015-.004.014-.004.013-.005.014-.005.013-.005.013-.006.012-.006.012-.006.011-.007.011-.007.011-.007.01-.008.01-.009.01-.008.008-.01.008-.01.008-.01.007-.01.007-.012.006-.012.006L1.84 3.836l.012-.005.012-.006.01-.007.011-.007.01-.008.01-.008.008-.009.009-.01.007-.009.008-.01.007-.01.007-.012.006-.012.006-.011.005-.013.006-.012.005-.013.004-.014.005-.014.004-.014.004-.014L2 3.604l.003-.015.004-.015.003-.016.003-.015.003-.016.003-.016.003-.016.003-.017.003-.016z"/><path id="_460249048" class="fil1" d="M2.596 3.865 6.382 7.65l-.004.007-.005.008-.005.007-.004.007-.005.008-.005.007-.005.007-.005.007-.005.007-.005.006-.005.007-.005.007-.005.006-.005.006-.005.007-.006.006-.005.006-.005.006-.005.005-.005.006-.005.006-.005.005-.005.005-.005.006-.005.005-.005.004-.005.005-.005.005-.005.004-.005.005-.004.004-.005.004-3.786-3.786.004-.004.005-.005.005-.004.005-.004.004-.005.005-.005.005-.005.005-.005.005-.005.005-.005.005-.006.006-.005.005-.006.005-.006.005-.005.005-.007.005-.006.005-.006.006-.006.005-.007.005-.006.005-.007.005-.007.005-.007.005-.006.005-.008.005-.007.004-.007.005-.007.005-.008.004-.007z"/><path id="_460249192" class="fil1" d="m2.977 4.244 3.786 3.787-.005.005-.005.006-.005.005-.004.006-.005.005-.004.005-.004.005-.003.006-.004.005-.003.005-.002.006-.003.005-.002.006-.002.006-.002.006v.006l-.002.007v.029l.001.008.002.01.002.009.002.01.003.01.003.01.003.012.004.012.005.013.005.013.006.014L2.957 4.49l-.005-.014-.005-.014-.005-.012-.004-.012-.004-.012-.003-.01-.002-.011-.003-.01-.001-.009-.002-.009V4.37L2.92 4.36v-.015l.001-.007v-.006l.002-.007.002-.006.002-.006.002-.005.002-.006.003-.005.003-.005.003-.006.004-.005.004-.005.004-.005.004-.005.005-.006.005-.005.005-.006z"/><path id="_460249024" class="fil1" d="m2.957 4.49 3.787 3.786.007.018.008.015.007.013.007.012.007.01.007.007-3.786-3.786-.007-.008-.007-.01-.007-.01-.008-.014-.007-.015z"/><path id="_460248784" class="fil1" d="m1.84 3.836 3.787 3.787-.005.002-.005.002-.005.001-.006.002-.005.002-.005.001-.006.002h-.005l-.006.002-.006.001-.006.001-.006.001-.006.001H5.55l-.006.001h-.007L1.75 3.858h.006l.007-.001.006-.001.006-.001.006-.001.006-.001.006-.001.005-.001.006-.002.005-.001.006-.002.005-.001.005-.002.005-.002.005-.002z"/><path id="_460249888" class="fil1" d="m2.438 4.056 3.786 3.786-.007.006-.008.007-.007.006-.008.007-.008.006-.007.006-.008.007-.008.006-.008.007-.008.007-.008.006-.008.007-.008.006-.008.007-.008.006-.008.007-.009.006-.008.007-.008.006-.008.007-.008.006-.009.007-.008.006-.008.007-.008.006-.009.007-.008.006L6 8.024l-.008.006-.008.006-.008.007-.008.006L2.18 4.263l.008-.007.008-.006.009-.006.008-.007.008-.006.008-.007.008-.006.009-.006.008-.007.008-.006.008-.007.009-.006.008-.007.008-.006.008-.007.008-.007.009-.006.008-.007.008-.006.008-.007.008-.006.008-.007.008-.006.008-.007.007-.006.008-.007.008-.006.008-.007.007-.006.008-.007.007-.006z"/><path id="_460249672" class="fil1" d="m4.018 4.798 3.786 3.786h-.006l-.007-.002-.006-.001-.006-.002-.006-.002-.007-.002-.006-.002-.006-.003-.006-.002-.007-.003-.006-.003-.006-.003-.006-.004-.006-.004-.006-.004-.005-.004-3.787-3.786.006.004.006.004.006.004.006.003.006.004.006.003.006.002.006.003.007.003.006.002.006.002.006.002.007.001.006.002.006.001z"/><path id="_460249960" class="fil1" d="M3.19 4.623 6.975 8.41l.005.005.005.006.004.006.004.006.004.006.002.007.002.006.002.007.001.006v.014L3.22 4.693v-.014l-.001-.007-.002-.006-.002-.007-.003-.006-.003-.006-.004-.006-.004-.006-.005-.006z"/><path id="_460249912" class="fil1" d="m3.175 4.776 3.786 3.787-.004.004-.005.004-.004.003-.005.004-.005.004-.006.003-.005.004-.006.003-.005.004-.006.003-.006.003-.007.004-.006.003-.006.003-.007.003-.007.002-3.786-3.786.007-.003.006-.003.007-.003.006-.003.006-.003.006-.003.006-.003.006-.004.006-.003.005-.004.005-.004.005-.003.005-.004.005-.004.005-.004z"/><path id="_460249696" class="fil1" d="m1.75 3.857 3.786 3.786h-.008l-.007-.002-.008-.003-.006-.005-3.786-3.786.006.004.007.004.008.001z"/><path id="_460249432" class="fil1" d="m2.16 4.28 3.786 3.786v.003l-.002.002-.001.003-.002.002-.001.001-.002.002H5.929L2.143 4.293H2.152l.001-.002.002-.001.001-.003.002-.002v-.003z"/><path id="_460249792" class="fil1" d="m2.143 4.293 3.786 3.786-.008.006-.008.007-.008.006-.007.006-.008.006-.008.006-.007.006-.008.006-.007.006-.008.006-.007.006-.007.005-.007.006-.007.006-.007.005-.007.006-.006.006-.007.005-.007.005-.006.006-.006.005-.006.005-.006.005-.006.006-.006.005-.006.005-.005.005-.005.004-.006.005-.005.005-.004.004-.005.005-3.786-3.786.004-.005.005-.004.005-.005.005-.005.006-.005.005-.005.006-.005.006-.005.005-.005.006-.005.007-.005.006-.005.006-.006.007-.005.006-.006.007-.005.007-.006.007-.005.007-.006.007-.006.007-.006.007-.005.008-.006.007-.006.007-.006.008-.006.008-.006.007-.006.008-.006.008-.007.008-.006z"/><path id="_460249864" class="fil1" d="m1.932 4.469 3.786 3.786-.002.002-.003.003-.002.003-.003.004-.003.004-.003.004-.003.005-.003.005-.003.006-.004.005-.003.006-.003.007-.002.006-.003.007-.003.006-.002.007L1.886 4.55l.003-.007.002-.007.003-.006.003-.007.003-.006.003-.006.003-.006.003-.005.004-.005.003-.005.003-.004.003-.004.002-.004.003-.003.002-.003z"/><path id="_460249312" class="fil1" d="m1.887 4.549 3.786 3.786-.002.004v.004l-.002.004v.004l-.002.004v.004l-.001.004v.008l-.001.004v.011l.001.003v.003l.002.004L1.88 4.609v-.003l-.001-.003v-.004l-.001-.003v-.019l.001-.004.001-.004v-.004l.002-.004.001-.004.001-.004z"/><path id="_460249528" class="fil1" d="m1.881 4.61 3.787 3.785.002.007.002.006.002.005.002.005.001.004.002.004.002.004v.003L1.897 4.647l-.002-.003-.001-.004-.002-.004-.002-.004-.001-.005-.002-.005-.002-.006z"/><path id="_460249600" class="fil1" d="m1.896 4.647 3.786 3.786.001.003.001.003.002.003v.002l.002.003v.003l.002.002v.003l.001.003.001.002.001.003v.003l.002.003v.003l.001.004v.003l.001.004v.003l.001.004v.004L5.7 8.5v.005l.001.005v.01l.001.006v.027l.001.008v.008L1.916 4.783v-.03l-.001-.007v-.017l-.001-.006v-.005l-.001-.004v-.005l-.001-.004V4.7l-.001-.004v-.003l-.001-.004v-.003l-.002-.003V4.68l-.001-.003v-.003l-.002-.003V4.67l-.002-.003v-.003L1.9 4.661v-.003l-.002-.003v-.002l-.002-.003z"/><path id="_460250080" class="fil1" d="M1.916 4.782 5.702 8.57V8.578l-.001.005-.002.005-.002.004-.003.004-.003.004-.004.003-3.786-3.786.004-.003.003-.004.003-.004.002-.005.002-.004v-.005l.001-.005z"/><path id="_460250704" class="fil1" d="m1.9 4.817 3.787 3.786-.005.004-.006.004-.007.004-.007.003-.007.003-.007.003-.008.003-.008.002-.008.002-.009.002-.008.002-.01.001-.008.001-.01.001-.009.001h-.009L1.775 4.855l.01-.001h.008l.01-.002.008-.001.01-.002.008-.001.008-.002.009-.002.008-.003.008-.002.007-.003.007-.003.007-.004.006-.003.006-.004z"/><path id="_460250128" class="fil1" d="M1.775 4.854 5.561 8.64H5.506l-.004-.001h-.01l-.005-.001-.004-.001h-.005l-.005-.001-.004-.001h-.005l-.004-.002h-.004l-.004-.001-.004-.001-.004-.001-.004-.002h-.004l-.004-.002-.003-.001-.004-.001-.003-.002-.003-.001-3.786-3.786.003.001.003.001.004.002h.003l.004.002.003.001.004.001.004.001.004.001.005.001.004.001h.004l.005.002h.004l.005.001h.004l.005.001h.005l.004.001h.005l.005.001h.015l.005.001H1.77z"/><path id="_460250824" class="fil1" d="M1.633 4.835 5.419 8.62l-.005-.002-.005-.003-.005-.003-.005-.002-.004-.003-.004-.003-.005-.004-.004-.003-3.786-3.786.004.003.004.003.005.003.004.003.005.003.005.003.005.002z"/><path id="_460250152" class="fil1" d="m3.92 4.757 3.786 3.786-.007-.005-.007-.006-.007-.006L3.9 4.74l.007.006.006.005z"/><path id="_460250368" class="fil1" d="m3.22 4.693 3.786 3.786v.005l-.001.006-.001.006-.002.005L7 8.507l-.002.005-.002.005-.003.006-.003.005-.003.005-.003.005-.004.005-.005.005-.004.005-.005.005-.005.005-3.786-3.787.005-.004.005-.005.004-.005.004-.005.004-.005.004-.005.003-.005.003-.006.003-.005.002-.005.002-.006.002-.005.001-.006.001-.005.001-.006z"/><path id="_460250344" class="fil1" d="m3.085 4.831 3.786 3.786-.01.004-.01.004-.01.003-.011.004-.011.003-.011.002-.012.003-.01.002-.012.002-.012.001-.012.002h-.012l-.011.001H6.69l-.012-.001-.012-.002-.012-.001-.011-.003-.012-.002-.011-.003-.012-.004-.01-.004-.012-.004-.01-.005-.011-.006-.01-.006-.01-.006-.01-.007-.01-.008-.01-.008L2.73 4.792l.01.008.01.008.01.007.01.006.01.006.01.006.011.005.011.004.011.004.012.003.011.004.012.002.011.002.012.002.012.001.012.001h.012l.011.001h.024l.012-.002h.012l.011-.002L3 4.856l.011-.002.011-.003.012-.003.01-.003.011-.003.01-.003.011-.004z"/><path id="_460250584" class="fil1" d="m2.181 4.263 3.787 3.786-.003.002-.003.002-.003.002-.002.002-.003.003-.002.002-.003.002-.003.002L2.16 4.28l.003-.003.002-.002.003-.002.003-.002.002-.002.003-.002.003-.002z"/><path id="_637667728" class="fil1" d="M2.392 2.809a.73.73 0 0 1 .393-.142 6.537 6.537 0 0 0 .129.027h.004a3.53 3.53 0 0 0 .95.073h.006a3.83 3.83 0 0 0 .264-.023.311.311 0 0 0 .093-.038.72.72 0 0 0 .228-.176.486.486 0 0 1-.028-.328.116.116 0 0 1-.026-.022.098.098 0 0 1-.028-.052.14.14 0 0 1-.005-.037c0-.07.051-.126.114-.126.035 0 .066.017.087.045a.393.393 0 0 1 .131-.029.388.388 0 0 1 .246.065.122.122 0 0 1 .11-.077c.068 0 .123.061.123.137a.152.152 0 0 1-.006.04.106.106 0 0 1-.03.056.12.12 0 0 1-.063.039.395.395 0 0 1 .01.11.24.24 0 0 1-.041.13.294.294 0 0 1-.05.056 2.084 2.084 0 0 1-.02.286c-.011.08-.063.174-.07.238l-.004.028c-.04.329-.048.304-.19.504l-.005.007c.016.049.036.119.057.197.055.2.125.456.202.527l.022.02c.037.034.052.049.117.084.104.057.153.111.165.157a.087.087 0 0 1-.024.088.155.155 0 0 1-.081.038.42.42 0 0 1-.32-.093.87.87 0 0 1-.127-.131c-.037-.045-.076-.092-.133-.137-.043-.034-.067-.096-.089-.157-.013-.033-.025-.065-.038-.087-.105-.166-.113-.226-.127-.326a1.724 1.724 0 0 0-.017-.105h-.006c-.09.02-.094.075-.106.216a4.036 4.036 0 0 1-.026.261l-.01.077c-.002.016-.005.027-.01.048l-.008.038c-.032.144-.006.22.023.303l.018.054a.04.04 0 0 1 .002.011c.001.052-.034.09-.086.108a.2.2 0 0 1-.094.007.223.223 0 0 1-.099-.041c-.075-.056-.13-.168-.099-.36l.018-.096c.014-.08.027-.152.032-.25.006-.117.007-.234.019-.35l-.08-.002a.735.735 0 0 1-.175.032c-.013.001-.022.002-.027 0a1.12 1.12 0 0 1-.505-.1c.03.156.035.423-.09.574l-.035.04c-.056.062-.082.09-.02.245.04.1.077.098.112.096a.146.146 0 0 1 .083.012c.048.024.068.058.067.095 0 .03-.017.059-.044.083a.305.305 0 0 1-.09.055c-.106.043-.257.05-.355-.039-.033-.03-.047-.065-.06-.1a.222.222 0 0 0-.033-.061c-.163-.259.02-.32.039-.557.006-.073.008-.18-.01-.268a.365.365 0 0 0-.016-.058.607.607 0 0 1-.054.117.81.81 0 0 1-.158.19c-.079.069-.17.14-.257.208l-.021.017c-.003.008-.007.014-.012.013h-.005a3.025 3.025 0 0 0-.211.176.232.232 0 0 0-.045.08.101.101 0 0 0-.006.06.44.44 0 0 0 .015.038c.013.032.019.045.02.135a.04.04 0 0 1-.015.035.236.236 0 0 1-.126.037.34.34 0 0 1-.142-.02.14.14 0 0 1-.086-.127.404.404 0 0 1 .032-.163c.013-.034.03-.066.04-.1l.028-.09.024-.076.002-.007a.278.278 0 0 1 .016-.036c.02-.036.043-.057.095-.103l.013-.012a.645.645 0 0 1 .127-.086c.058-.033.109-.061.152-.157a1.065 1.065 0 0 0 .08-.475 1.017 1.017 0 0 1-.01-.115c-.006-.007-.005-.016 0-.024-.001-.103.018-.188.053-.257-.112.117-.142.287-.168.44-.031.177-.058.335-.19.39a.283.283 0 0 1-.091.02.04.04 0 1 1-.006-.08.168.168 0 0 0 .076-.022c.085-.05.107-.179.132-.322.043-.247.092-.533.44-.623z"/></g></g><path class="fil2" d="M3.413 0a3.413 3.413 0 1 1 0 6.827 3.413 3.413 0 0 1 0-6.827z"/><path class="fil3" d="M2.305 2.875c.121-.1.284-.202.48-.208.424.095.784.139 1.353.077a.76.76 0 0 0 .317-.208c.107-.152.178-.016.327.032.119-.012.219-.156.22-.098a2.16 2.16 0 0 1-.018.353c-.012.08-.064.174-.071.238-.045.362-.048.326-.2.54.017.048.037.118.058.196.055.2.125.456.202.527l.022.02a.437.437 0 0 0 .117.084c.104.057.153.111.165.157a.087.087 0 0 1-.024.088.155.155 0 0 1-.081.038.42.42 0 0 1-.32-.093.87.87 0 0 1-.127-.131.86.86 0 0 0-.133-.137c-.043-.034-.067-.096-.089-.157-.012-.033-.025-.065-.038-.087-.105-.166-.113-.226-.127-.326a1.721 1.721 0 0 0-.017-.105c-.096.018-.1.072-.112.216a4.03 4.03 0 0 1-.026.261l-.01.077c-.002.016-.005.027-.01.048l-.008.038a.474.474 0 0 0 .023.303l.018.054a.04.04 0 0 1 .002.011c.001.052-.034.09-.086.108a.2.2 0 0 1-.094.007.223.223 0 0 1-.099-.041c-.075-.056-.13-.168-.099-.36l.018-.096c.014-.08.027-.152.032-.25.006-.117.007-.234.019-.35l-.08-.002c-.16.052-.443.053-.707-.069.03.155.036.424-.09.575l-.035.04c-.056.062-.082.09-.02.245.04.1.077.098.112.096a.146.146 0 0 1 .083.012c.048.024.068.058.067.095 0 .03-.017.059-.044.083a.305.305 0 0 1-.09.055c-.106.043-.257.05-.355-.039a.242.242 0 0 1-.06-.1.222.222 0 0 0-.033-.061c-.163-.259.02-.32.039-.557.006-.073.008-.18-.01-.268a.365.365 0 0 0-.016-.058.607.607 0 0 1-.054.117.81.81 0 0 1-.158.19c-.079.069-.17.14-.257.208-.1.078-.192.15-.25.206a.232.232 0 0 0-.044.08.101.101 0 0 0-.006.06l.015.038c.013.032.019.045.02.135a.04.04 0 0 1-.015.035.236.236 0 0 1-.126.037.34.34 0 0 1-.142-.02.14.14 0 0 1-.086-.127.404.404 0 0 1 .032-.163c.013-.034.03-.066.04-.1l.028-.09a.639.639 0 0 1 .042-.12.386.386 0 0 1 .095-.102l.013-.012c.046-.042.088-.065.127-.086.058-.033.109-.061.152-.157a1.064 1.064 0 0 0 .08-.475c-.038-.26.025-.424.149-.527z"/><path class="fil4" d="M3.276 3.693a1.111 1.111 0 0 1-.095-.03c.001-.018.024-.036.032-.036h.004c.012.001.033-.005.045 0 .044.016.029.06.018.065l-.004.001zM2.156 3.402"/><path d="M2.436 2.799a.04.04 0 0 1 .015.079c-.333.066-.38.336-.42.567-.037.213-.069.396-.281.412a.04.04 0 0 1-.006-.08c.15-.011.177-.166.208-.345.044-.257.096-.556.484-.633z" style="fill:#de8a28;fill-rule:nonzero"/><path d="M4.793 2.615s.039.106.037.206c-.002.1-.076.11-.088.182-.012.073-.026.198-.112.41-.065.159-.14.196-.174.205.274-.11.313-.183.39-.378.017-.044.04-.104.063-.151l.004-.028c.007-.064.06-.158.07-.238.015-.097.022-.21.02-.343a.286.286 0 0 1-.09.087c-.066.041-.137.02-.137.02v.002l.017.026z" style="fill:#ffe0b2"/><path class="fil7" d="M2.74 3.48c-.001.056-.056.177-.089.264a.182.182 0 0 0-.001.004.365.365 0 0 1 .016.058c.018.087.016.195.01.268-.02.237-.202.298-.039.557a.222.222 0 0 1 .032.062.242.242 0 0 0 .061.1c.098.089.25.081.355.038a.305.305 0 0 0 .09-.055.121.121 0 0 0 .044-.083c.001-.037-.019-.07-.067-.095a.146.146 0 0 0-.083-.012c-.035.002-.071.004-.112-.096-.062-.154-.036-.183.02-.246.011-.012.024-.026.034-.039.126-.15.12-.418.091-.573-.201-.072-.361-.157-.361-.152zM4.338 3.78c.014.1.022.16.127.326.013.022.025.054.038.087.022.06.046.123.089.157a.86.86 0 0 1 .133.137.87.87 0 0 0 .127.13.42.42 0 0 0 .32.094.155.155 0 0 0 .08-.038.087.087 0 0 0 .025-.088c-.012-.046-.061-.1-.165-.157a.437.437 0 0 1-.139-.104c-.077-.071-.147-.327-.202-.527a3.643 3.643 0 0 0-.057-.197l.005-.007a.074.074 0 0 1-.014.008c-.034.016-.389.073-.389.073v.002a.24.24 0 0 1 .005-.001c.009.041.013.075.017.105z"/><path class="fil4" d="M2.653 2.887H2.65c-.011 0-.047.021-.025.035.007.005 0 .034.04.027l.052-.02c.01-.003.026-.032-.018-.043-.013-.003-.033.001-.045.001zM2.799 2.913c0 .028.002.028.038.025.003 0 .008-.041-.004-.043v-.006c-.032-.011-.02.027-.034.024zM2.83 3.012l.003.005c.01.02.04.019.064.02.014.001.02-.04.013-.052-.042-.003-.011-.006-.043.006-.019.007-.033-.026-.035.017 0 .002-.003.003-.002.004zM2.914 2.694h.004c.011 0 .047.02.025.035-.007.004 0 .034-.04.026l-.052-.019c-.01-.003-.026-.032.018-.043.012-.003.033.001.045 0zM2.925 2.9c0 .028.002.028.038.025.003 0 .008-.041-.004-.043v-.007c-.032-.01-.02.028-.034.025zM3.122 3.057l.003.005c.01.02.04.019.064.02.014.001.02-.04.013-.052-.042-.003-.011-.006-.043.006-.019.007-.033-.027-.035.017 0 .002-.003.003-.002.004zM2.915 3.092h-.004c-.011 0-.048.02-.026.034.008.005 0 .033.04.026l.052-.018c.012-.004.027-.032-.017-.042-.013-.003-.034 0-.045 0zM3.257 2.865h-.004c-.011 0-.047.032-.025.053.007.007 0 .052.04.04l.051-.029c.012-.004.027-.049-.017-.065-.013-.004-.033.002-.045.001zM3.031 2.903h-.004c-.012 0-.048.021-.026.035.008.005 0 .035.04.027l.052-.02c.011-.002.027-.032-.017-.042-.013-.003-.034 0-.045 0zM3.305 2.978h-.004c-.011 0-.047.021-.025.035.007.005 0 .034.04.026 0 0 .043-.016.052-.018.01-.004.026-.033-.018-.044-.013-.003-.033.001-.045 0zM3.104 3.106c0 .028.003.028.038.025.003 0 .008-.04-.003-.043v-.006c-.032-.011-.02.027-.035.024zM3.379 2.959c0 .028.002.027.038.024.003 0 .008-.04-.004-.043v-.006c-.032-.011-.02.027-.034.025zM3.173 3.162l.003.004c.01.021.04.02.064.02.014.001.02-.04.013-.052-.042-.003-.011-.006-.043.007-.019.007-.033-.027-.035.017l-.002.004zM3.43 3.053l.003.005c.01.02.04.019.064.02.014 0 .02-.04.013-.052-.042-.003-.011-.007-.043.006-.019.007-.033-.027-.035.017 0 .001-.002.003-.001.004zM4.617 3.843h-.004c-.011 0-.047.032-.026.053.008.007 0 .052.04.04l.052-.029c.012-.004.027-.049-.017-.065-.013-.004-.033.002-.045.001zM4.492 2.639h-.005c-.01 0-.047.021-.025.035.008.004 0 .034.04.026l.052-.019c.011-.003.027-.032-.018-.043-.012-.003-.033.001-.044 0zM3.3 2.793c0 .028.002.028.037.025.003 0 .008-.04-.003-.043v-.006c-.033-.011-.02.027-.035.024zM3.315 3.253l.002.005c.011.02.04.019.065.02.014 0 .02-.04.013-.052-.043-.003-.011-.006-.043.006-.019.007-.033-.027-.036.017 0 .002-.002.003-.001.004zM3.597 2.913h-.004c-.011 0-.047.032-.025.052.007.007 0 .052.04.04l.052-.028c.01-.005.026-.049-.018-.065-.013-.005-.033.001-.045 0zM3.543 2.789l-.005.022c-.001.007-.047.02-.025.035.008.004 0 .034.04.026l.052-.019c.011-.003.027-.032-.017-.043-.013-.003-.044-.029-.045-.021z"/><path class="fil4" d="M3.616 2.934c0 .028.003.028.038.025.003 0 .008-.041-.003-.044V2.91c-.032-.01-.02.028-.035.025zM3.648 3.033l.002.005c.011.02.04.019.065.02.014 0 .02-.04.012-.052-.042-.003-.01-.006-.043.006-.018.007-.032-.027-.035.017 0 .002-.002.003-.001.004zM3.495 3.13H3.49c-.01 0-.047.032-.025.053.008.007 0 .051.04.04l.052-.029c.011-.005.027-.049-.017-.065-.013-.004-.034.002-.045.001zM3.82 3.014h-.004c-.01-.001-.047.032-.025.052.008.007 0 .052.04.04 0 0 .044-.025.052-.028.011-.005.027-.05-.017-.065-.013-.005-.034.001-.045 0zM3.616 3.08h-.004c-.011 0-.047.02-.026.035.008.004 0 .034.04.026l.052-.019c.012-.003.027-.032-.017-.043-.013-.003-.033.001-.045 0zM3.894 2.929l-.002-.004c-.007-.009-.046-.025-.043.001 0 .01-.028.02.002.048l.046.03c.01.008.042.002.024-.04-.005-.011-.02-.026-.027-.035zM3.614 3.212c0 .028.003.028.038.025.003 0 .008-.04-.003-.043v-.006c-.033-.011-.02.027-.035.024zM3.956 3.018c0 .028.003.027.038.025.003 0 .008-.041-.004-.044v-.006c-.032-.011-.02.027-.034.025zM3.732 3.367l.002.004c.011.02.04.02.065.02.014.001.02-.04.013-.052-.043-.003-.012-.006-.043.006-.02.008-.033-.026-.036.018 0 0-.002.002-.001.004zM4.056 3.12l.003.005c.01.02.04.019.064.02.014 0 .02-.04.013-.052-.042-.004-.011-.007-.043.006-.019.007-.033-.027-.035.017l-.002.004zM3.43 2.832h-.004c-.008 0-.035.032-.019.053.006.007 0 .052.03.04 0 0 .032-.025.039-.028.008-.005.02-.05-.013-.065-.01-.005-.025.001-.034 0zM4.856 3.054h.005c.011 0 .047.021.025.035-.007.005 0 .035-.04.027l-.052-.02c-.011-.002-.026-.032.018-.042.012-.003.033 0 .044 0zM4.602 3.707c0 .028.003.028.038.025.003 0 .008-.04-.003-.043v-.006c-.033-.011-.02.027-.035.024zM3.449 2.974l.002.005c.011.02.04.019.065.02.014 0 .019-.04.012-.052-.042-.003-.01-.006-.043.006-.018.007-.032-.027-.035.017 0 .002-.002.003-.001.004zM4.758 2.803h-.005c-.01 0-.108.02-.086.04.007.007.061.064.1.053l.053-.029c.011-.005.027-.049-.018-.065-.012-.004-.033.002-.044.001zM3.156 2.83h.004c.011 0 .048.022.026.036-.008.004 0 .034-.04.026l-.052-.019c-.012-.003-.027-.032.017-.043.013-.003.034.001.045 0zM4.075 3.738c0 .028.002.028.038.025.002 0 .008-.041-.004-.043v-.007c-.032-.01-.02.028-.034.025zM3.735 2.81l.002.005c.01.021.04.02.064.02.014.001.02-.04.013-.052-.042-.003-.01-.006-.043.006-.018.008-.033-.026-.035.018 0 .001-.002.002-.001.004zM4.107 3.79h-.003c-.008 0-.036.032-.02.052.007.008 0 .052.031.04l.04-.028c.009-.005.02-.049-.013-.065-.01-.004-.026.002-.035.001zM3.692 2.837h-.005c-.01 0-.047.021-.025.035.008.004 0 .034.04.026l.052-.019c.011-.003.027-.032-.017-.043-.013-.003-.034.001-.045 0zM4.238 2.706h-.004c-.011 0-.047.021-.025.035.007.005 0 .035.04.027l.052-.02c.01-.002.026-.032-.018-.042-.012-.003-.033 0-.045 0zM3.743 2.929c0 .028.003.027.038.025.003 0 .008-.041-.003-.044v-.006c-.032-.01-.02.028-.035.025zM4.032 2.775c0 .028.002.027.038.025.003 0 .043-.027.031-.03 0-.002-.036-.002-.037-.004-.032-.011-.018.011-.032.009z"/><path class="fil4" d="m3.797 3.06.002.004c.011.02.04.019.064.02.014.001.02-.04.013-.052-.042-.003-.01-.006-.043.006-.018.007-.032-.026-.035.017 0 .002-.002.003-.001.004zM4.008 2.863l.003.005c.01.02.04.019.064.02.014 0 .02-.041.013-.052-.042-.004-.011-.007-.043.006-.019.007-.033-.027-.035.017l-.002.004zM3.965 2.852h.004c.011-.001.047.032.025.052-.007.007 0 .052-.04.04l-.052-.028c-.01-.005-.026-.05.018-.065.013-.005.033.001.045 0zM3.872 2.766h-.004c-.011 0-.047.022-.025.035.007.005 0 .035.04.027l.051-.019c.012-.003.027-.033-.017-.043-.013-.003-.033 0-.045 0zM4.006 2.921c0 .028.002.028.038.025.002 0 .008-.04-.004-.043v-.006c-.032-.011-.02.027-.034.024zM4.076 2.963l.003.004c.01.021.04.02.064.02.014.001.02-.04.013-.052-.042-.003-.011-.006-.043.007-.019.007-.033-.027-.035.017 0 .001-.003.002-.002.004zM4.158 2.887h-.005c-.01 0-.047-.032-.025-.053.008-.007 0-.052.04-.04l.052.029c.011.005.03.07-.014.087-.013.004-.037-.024-.048-.023zM4.365 2.666h-.002c-.004 0-.017.022-.009.035.003.005 0 .035.015.027l.019-.019c.004-.003.01-.033-.007-.043-.004-.003-.012 0-.016 0zM4.36 2.797c0 .028.003.028.038.025.003 0 .008-.04-.003-.043v-.006c-.032-.011-.02.027-.035.024zM4.309 2.887l.002.005c.011.02.04.019.064.02.014 0 .02-.04.013-.052-.042-.004-.01-.007-.043.006-.018.007-.032-.027-.035.017 0 .001-.002.002-.001.004zM4.215 3.053h-.004c-.011 0-.024.032-.002.052.008.007-.023.052.016.04l.053-.028c.01-.005.026-.049-.018-.065-.013-.005-.033.001-.045 0zM4.315 2.933h.004c.011 0 .047.022.025.035-.007.005 0 .035-.04.027l-.052-.019c-.01-.003-.026-.032.018-.043.013-.003.033 0 .045 0zM4.543 2.75l-.004-.001c-.011 0-.085.029-.063.051.008.008.038.063.077.05.001 0 .044-.027.053-.031.01-.005.026-.053-.018-.07-.012-.006-.033 0-.045 0zM4.35 3.057c0 .028.003.027.038.025.003 0 .008-.041-.003-.044v-.006c-.032-.01-.02.028-.034.025zM4.617 2.871c0 .028.003.028.038.025.003 0 .008-.04-.004-.043v-.006c-.032-.011-.02.027-.034.024zM4.283 3.154l.002.005c.011.02.04.02.065.02.014.001.02-.04.013-.052-.043-.003-.011-.006-.043.006-.019.007-.033-.026-.035.017 0 .002-.003.003-.002.004zM4.648 2.97l.003.005c.01.02.04.02.064.02.014.001.02-.04.013-.052-.042-.003-.011-.006-.043.006-.019.008-.033-.026-.035.018l-.002.004zM2.758 3.84l-.005-.001c-.01 0-.047.032-.025.053.008.007 0 .051.04.04l.052-.029c.011-.005.027-.049-.018-.065-.012-.004-.033.002-.044.001zM2.214 3.372H2.21c-.011 0-.047.021-.025.035.007.004 0 .034.04.026l.052-.019c.01-.003.026-.032-.018-.043-.012-.003-.033.001-.045 0zM2.161 3.733c0 .028.003.028.038.025.003 0 .008-.04-.003-.043v-.006c-.032-.011-.02.027-.035.024zM2.122 3.825l.003.004c.01.021.04.02.064.02.014.001.02-.04.013-.052-.042-.003-.011-.006-.043.007-.019.007-.033-.027-.035.017l-.002.004z"/><path class="fil4" d="M2.204 3.612h-.005c-.01 0-.047.032-.025.052.008.007 0 .052.04.04l.052-.028c.011-.005.027-.049-.017-.065-.013-.005-.034.001-.045 0zM2.263 3.575h-.004c-.011 0-.048-.038-.026-.063.008-.008 0-.062.04-.048.001 0 .044.03.052.034.011.006.027.059-.017.078-.013.005-.034-.002-.045-.001zM2.323 3.65c0 .028.003.027.038.025.003 0 .008-.041-.003-.044v-.006c-.032-.01-.02.028-.035.025zM2.355 3.749l.002.005c.011.02.04.019.065.02.014 0 .02-.04.012-.052-.042-.004-.01-.007-.043.006-.018.007-.032-.027-.035.017 0 .001-.002.003-.001.004zM2.494 3.685h-.005c-.01 0-.047.032-.025.052.008.008 0 .052.04.04l.052-.028c.011-.005.027-.049-.017-.065-.013-.004-.034.002-.045.001zM2.323 3.795H2.32c-.011 0-.047.022-.026.035.008.005 0 .035.04.027l.052-.019c.012-.003.027-.032-.017-.043-.013-.003-.034 0-.045 0zM2.422 3.51h-.004c-.011 0-.047.022-.025.036.007.004 0 .034.04.026l.052-.019c.01-.003.026-.032-.018-.043-.013-.003-.033.001-.045 0zM2.397 3.919c0 .028.002.027.037.025.003 0 .009-.041-.003-.044v-.006c-.032-.01-.02.028-.034.025zM2.526 2.75c0 .028.003.028.038.025.003 0 .008-.041-.004-.043v-.006c-.032-.011-.02.027-.034.024zM2.112 3.024l.002.004c.007.014.027.013.044.014.01 0 .014-.029.01-.037-.03-.002-.008-.004-.03.005-.013.005-.023-.019-.025.012 0 0-.002.001-.001.002zM2.257 3.018l.002.005c.011.02.04.02.064.02.014.001.02-.04.013-.052-.042-.003-.01-.006-.043.006-.018.007-.033-.026-.035.017 0 .002-.002.003-.001.004zM2.514 3.815h-.003c-.01-.001-.038.04-.02.066.006.01 0 .066.031.051l.043-.036c.009-.006.021-.062-.014-.082-.01-.006-.027.001-.037 0zM3.987 3.886h.004c.011-.001.047.037.026.061-.008.008 0 .06-.04.047l-.052-.033c-.012-.006-.027-.058.017-.076.013-.006.033.001.045 0zM2.357 2.86c0 .029.003.028.038.026.003 0 .008-.041-.003-.044v-.006c-.033-.01-.02.028-.035.025zM2.244 2.904l.002.004c.011.021.04.02.064.02.015.001.02-.04.013-.052-.042-.003-.01-.006-.043.006-.018.008-.032-.026-.035.018 0 .001-.002.002-.001.004zM2.455 2.781H2.45c-.01 0-.047.032-.025.053.008.007 0 .051.04.04l.052-.029c.011-.005.027-.049-.018-.065-.012-.004-.033.002-.044.001zM3.059 2.734h-.005c-.01 0-.047.021-.025.035.008.005 0 .034.04.027l.052-.02c.011-.003.027-.032-.018-.043-.012-.003-.033.001-.044 0zM2.59 2.785c0 .028.005.028.077.025.006 0 .016-.041-.008-.043V2.76c-.065-.011-.041.027-.07.024zM4.533 3.057l.003.004c.01.021.04.02.064.02.014.001.02-.04.013-.052-.042-.003-.011-.006-.043.007-.019.007-.033-.027-.035.017l-.002.004zM2.528 3.05h-.005c-.01 0-.047.032-.025.053.008.007 0 .052.04.04l.052-.029c.011-.005.027-.049-.017-.065-.013-.004-.034.002-.045.001zM2.794 2.865H2.79c-.011-.001-.047.032-.025.052.007.007 0 .052.04.04l.052-.028c.01-.005.026-.049-.018-.065-.013-.005-.033.001-.045 0zM2.5 2.895h-.004c-.011 0-.047.029-.025.047.007.007 0 .047.04.036l.051-.025c.012-.005.027-.044-.017-.059-.013-.004-.033.002-.045.001zM2.746 2.767h-.004c-.011 0-.047-.02-.025-.035.007-.004 0-.034.04-.026l.051.019c.012.003.027.032-.017.043-.013.003-.033-.001-.045 0zM2.663 3.054c0 .028.003.028.038.025.003 0 .008-.04-.004-.043V3.03c-.032-.011-.02.027-.034.024zM2.843 2.82c0 .027.003.027.038.024.003 0 .008-.041-.004-.043v-.007c-.032-.01-.02.028-.034.025zM2.624 3.221l.002.005c.011.02.04.019.065.02.014.001.02-.04.012-.052-.042-.003-.01-.006-.043.006-.018.007-.032-.026-.035.017 0 .002-.002.003-.001.004zM2.955 3.059l.002.004c.01.021.04.02.064.02.014.002.02-.04.013-.052-.042-.003-.01-.006-.043.007-.018.007-.033-.027-.035.017 0 .001-.002.002-.001.004zM2.178 3.238h-.004c-.011 0-.047.032-.025.053.007.007 0 .052.04.04l.052-.029c.01-.004.026-.049-.018-.065-.013-.004-.033.002-.045.001zM2.237 3.081h-.005c-.01 0-.047.022-.025.035.008.005 0 .035.04.027l.052-.019c.011-.003.027-.033-.017-.043-.013-.003-.034 0-.045 0zM2.248 3.203c0 .028.002.028.038.025.002 0 .008-.041-.004-.043v-.007c-.032-.01-.02.028-.034.025zM2.279 3.302l.002.005c.011.02.04.019.065.02.014.001.02-.04.013-.052-.043-.003-.011-.006-.043.006-.019.007-.033-.026-.036.017 0 .002-.002.003-.001.004zM2.345 3.123h-.004c-.011 0-.048.032-.026.053.008.007.02.067.059.056 0 0 .025-.04.033-.044.011-.005.027-.05-.017-.065-.013-.005-.034.001-.045 0zM2.412 2.965h-.003c-.005 0-.025.035-.013.057.004.007 0 .055.021.043 0 0 .023-.027.028-.03.006-.006.014-.053-.01-.07-.006-.005-.017.001-.023 0zM2.443 3.203c0 .028.003.028.038.025.003 0 .008-.04-.003-.043v-.006c-.033-.011-.02.027-.035.024zM2.512 3.227l.002.004c.01.02.04.02.064.02.014.001.02-.04.013-.052-.042-.003-.011-.006-.043.006-.019.008-.033-.026-.035.018 0 0-.002.002-.001.004zM2.402 3.387h-.004c-.011 0-.047.032-.025.053.007.007 0 .051.04.04l.052-.029c.011-.005.026-.049-.018-.065-.012-.004-.033.002-.045.001zM2.48 3.273h-.005c-.01 0-.047.021-.025.035.008.005 0 .034.04.027l.052-.02c.011-.003.027-.032-.017-.043-.013-.003-.034.001-.045.001zM2.746 3.088h-.004c-.011 0-.047.02-.025.034.007.005 0 .035.04.027l.052-.019c.01-.003.026-.032-.018-.043-.013-.003-.033.001-.045 0zM2.553 3.396c0 .028.003.028.038.025.003 0 .008-.04-.003-.043v-.006c-.033-.011-.02.027-.035.024zM2.898 3.878c0 .028.002.027.037.024.003 0 .009-.04-.003-.043v-.006c-.032-.011-.02.027-.034.025zM2.585 3.496l.002.004c.01.02.04.02.064.02.014.001.02-.04.013-.052-.042-.003-.01-.006-.043.006-.018.008-.033-.026-.035.018 0 0-.002.002-.001.004zM2.804 3.365l.002.005c.011.02.04.019.065.02.014 0 .02-.04.013-.052-.043-.004-.011-.007-.043.006-.019.007-.033-.027-.035.017 0 .001-.003.003-.002.004zM2.698 3.296h-.005c-.01-.001-.047.032-.025.052.008.007 0 .052.04.04l.052-.028c.011-.005.027-.049-.018-.065-.012-.005-.033.001-.044 0zM2.839 3.188h.004c.011 0 .047.021.025.035-.007.005 0 .034-.04.027l-.051-.02c-.012-.003-.027-.032.017-.043.013-.003.033.001.045 0zM2.757 3.44c0 .029.003.028.038.026.003 0 .008-.041-.004-.044v-.006c-.032-.01-.02.028-.034.025zM2.833 3.493l.002.005c.011.02.04.019.065.02.014 0 .02-.04.012-.052-.042-.004-.01-.007-.043.006-.018.007-.032-.027-.035.017 0 .001-.002.003-.001.004zM2.93 3.22h-.004c-.011 0-.047.032-.025.053.007.007 0 .051.039.04l.052-.029c.012-.005.027-.049-.017-.065-.013-.004-.033.002-.045.001zM3.355 3.14h.004c.011 0 .048-.021.026-.035-.008-.005 0-.035-.04-.027l-.052.02c-.011.002-.027.032.017.042.013.003.034 0 .045 0zM3.065 3.224c0 .028.003.027.038.025.003 0 .008-.041-.004-.044V3.2c-.032-.01-.02.028-.034.025zM3.097 3.323l.002.005c.01.02.04.019.064.02.014 0 .02-.04.013-.052-.042-.003-.01-.006-.043.006-.018.007-.033-.027-.035.017 0 .002-.002.003-.001.004zM2.964 3.486H2.96c-.011 0-.047.032-.026.053.008.007.077.066.117.054 0 0-.033-.039-.025-.042.012-.005.027-.05-.017-.065-.013-.005-.033.001-.045 0zM3.298 3.425h-.005c-.01 0-.047.02-.025.034.008.005 0 .033.04.026l.052-.019c.011-.003.027-.031-.017-.042-.013-.003-.034.001-.045.001zM2.955 3.465h-.004c-.011 0-.047-.02-.025-.035.007-.004 0-.034.04-.026l.051.019c.012.003.027.032-.017.043-.013.003-.033-.001-.045 0zM4.012 4.018h-.005c-.01 0-.047.021-.025.035.008.005 0 .034.04.027l.052-.02c.011-.003.027-.032-.018-.043-.012-.003-.033.001-.044.001zM3.138 3.493c0 .028.003.028.038.025.003 0 .008-.041-.003-.043v-.007c-.032-.01-.02.028-.035.025zM3.405 3.308c0 .028.002.027.038.024.003 0 .008-.04-.004-.043v-.006c-.032-.011-.02.027-.034.025zM3.17 3.592l.002.005c.011.02.04.019.065.02.014.001.02-.04.012-.052-.042-.003-.01-.006-.043.006-.018.007-.032-.027-.035.017 0 .002-.002.003-.001.004zM3.436 3.407l.003.004c.01.021.04.02.064.02.014.001.02-.04.013-.052-.042-.003-.011-.006-.043.007-.019.007-.033-.027-.035.017 0 .001-.003.002-.002.004zM2.797 3.643h-.005c-.01 0-.069.087-.047.108.008.007.022-.004.062-.015l.052-.029c.011-.005.027-.049-.017-.065-.013-.004-.034.002-.045.001zM2.96 3.318h-.004c-.011 0-.031.021 0 .035.012.005.026.034.06.027l.038-.02c.009-.003.003-.032-.05-.043-.014-.003-.032.001-.043.001zM3.077 3.814c0 .028.002.028.038.025.003 0 .008-.04-.004-.043V3.79c-.032-.011-.02.027-.034.024z"/><path class="fil4" d="m3.078 3.537.003.005c.01.02.04.019.064.02.014.001.02-.04.013-.052-.042-.003-.011-.006-.043.006-.019.007-.033-.026-.035.017l-.002.004zM3.139 3.374h-.006c-.015 0-.062.027-.033.044.01.006 0 .043.052.033l.068-.023c.014-.005.035-.041-.023-.055-.016-.004-.044.001-.058 0zM3.244 3.24l.004-.001c.011 0 .047.021.025.035-.007.005 0 .034-.04.027l-.052-.02c-.01-.003-.026-.032.018-.042.013-.004.033 0 .045 0zM3.28 3.362c0 .028.002.028.037.025.003 0 .008-.04-.003-.043v-.006c-.032-.011-.02.027-.034.024zM2.968 3.836l.003.004c.01.021.04.02.064.02.014.001.02-.04.013-.052-.043-.003-.011-.006-.043.007-.019.007-.033-.027-.035.017 0 .001-.003.002-.002.004zM3.478 3.511h-.005c-.01 0-.047.032-.025.053.008.007 0 .051.04.04l.052-.029c.011-.005.027-.049-.018-.065-.012-.004-.033.002-.044.001zM3.332 3.536h-.004c-.011 0-.047.022-.025.035.007.005 0 .035.04.027 0 0 .043-.017.052-.019.01-.003.026-.033-.018-.043-.012-.003-.033 0-.045 0zM3.533 3.26h-.004c-.011 0-.048.021-.026.035.008.005 0 .034.04.027l.052-.02c.012-.003.027-.032-.017-.043-.013-.003-.034.001-.045.001zM3.353 3.631c0 .028.002.028.038.025.002 0 .008-.04-.004-.043v-.006c-.032-.011-.02.027-.034.024zM3.596 3.706c0 .028.003.028.038.025.003 0 .008-.04-.003-.043v-.006c-.033-.011-.02.027-.035.024zM3.425 3.7l.002.004c.011.02.04.019.064.02.014.001.02-.04.013-.052-.042-.003-.01-.006-.043.006-.018.007-.032-.026-.035.017 0 .002-.002.003-.001.004zM3.59 3.577l.003.004c.011.02.04.02.065.02.014.001.02-.04.013-.052-.043-.003-.012-.006-.044.006-.018.008-.032-.026-.035.018 0 0-.002.002-.001.004zM3.061 3.91h.005c.01 0 .047.032.025.053-.008.007 0 .051-.04.04 0 0-.057-.102-.066-.105-.011-.005-.013.027.032.011.012-.004.033.002.044.001zM3.584 3.37l-.005-.001c-.01 0-.047.021-.025.035.008.005 0 .035.04.027l.052-.02c.011-.002.027-.032-.018-.042-.012-.003-.033 0-.044 0z"/><path class="fil4" d="M3.632 3.535c0 .028.003.027.038.025.003 0 .008-.041-.004-.044V3.51c-.032-.01-.02.028-.034.025zM3.663 3.634l.003.005c.01.02.04.019.064.02.014 0 .02-.04.013-.052-.042-.003-.011-.007-.043.006-.019.007-.033-.027-.035.017l-.002.004zM3.73 3.455h-.005c-.011 0-.047.032-.025.053.007.007 0 .051.04.04l.052-.029c.011-.005.026-.049-.018-.065-.012-.004-.033.002-.045.001zM3.863 3.425H3.86c-.011 0-.047-.021-.025-.035.007-.005 0-.034.04-.026l.051.018c.012.004.027.033-.017.044-.013.003-.033-.001-.045 0zM3.865 3.46c0 .027.002.027.038.024.002 0 .008-.041-.004-.043v-.007c-.032-.01-.02.028-.034.025zM3.829 3.568l.002.004c.01.021.04.02.064.02.014.001.02-.04.013-.052-.042-.003-.01-.006-.043.006-.018.008-.033-.026-.035.018 0 .001-.002.002-.001.004zM4.019 3.603h-.005c-.01 0-.047.016-.025.027.008.003 0 .025.04.02l.052-.015c.011-.002.027-.024-.017-.032-.013-.002-.034 0-.045 0zM3.838 3.619h-.005c-.01 0-.047.021-.025.035.008.005 0 .034.04.027l.052-.02c.011-.003.027-.032-.018-.043-.012-.003-.033.001-.044 0zM4.13 3.42h-.004c-.01-.001-.047.02-.025.034.008.005 0 .035.04.027 0 0 .043-.017.052-.019.011-.003.027-.033-.018-.043-.012-.003-.033 0-.044 0zM3.938 3.728c0 .028.002.028.038.025.003 0 .008-.04-.004-.043v-.006c-.032-.011-.02.027-.034.024zM4.204 3.543c0 .028.003.027.038.025.003 0 .008-.041-.004-.044v-.006c-.032-.01-.02.027-.034.025zM3.97 3.827l.002.005c.01.02.04.019.064.02.014.001.02-.04.013-.052-.043-.003-.011-.006-.043.006-.019.007-.033-.026-.035.017 0 .002-.003.003-.002.004zM4.236 3.642l.002.004c.01.021.04.02.064.02.014.002.02-.04.013-.051-.042-.004-.01-.007-.043.006-.018.007-.033-.027-.035.017 0 .001-.002.002-.001.004zM3.674 3.281H3.67c-.011 0-.047.032-.026.053.008.007 0 .051.04.04l.052-.029c.012-.005.027-.049-.017-.065-.013-.004-.033.002-.045.001zM3.731 3.132h-.004c-.011 0-.048.021-.026.035.008.005 0 .034.04.027l.052-.02c.012-.003.027-.032-.017-.043-.013-.003-.034.001-.045.001zM3.723 3.246c0 .028.003.027.038.025.003 0 .008-.041-.004-.044v-.006c-.032-.01-.02.028-.034.025zM3.906 3.317l.003.005c.01.02.04.019.064.02.014 0 .02-.04.013-.052-.042-.004-.011-.007-.043.006-.019.007-.033-.027-.035.017l-.002.004zM3.902 3.176h-.005c-.01-.001-.047.032-.025.052.008.007 0 .052.04.04 0 0 .044-.025.052-.028.011-.005.027-.05-.017-.065-.013-.005-.034.001-.045 0zM3.964 3.056h-.005c-.01 0-.047.021-.025.035.008.005 0 .035.04.027l.052-.02c.011-.002.027-.032-.018-.042-.012-.003-.033 0-.044 0zM4.037 3.18c0 .028.003.027.038.024.003 0 .008-.04-.004-.043v-.006c-.032-.011-.02.027-.034.025zM4.068 3.279l.003.004c.01.021.04.02.064.02.014.001.02-.04.013-.052-.042-.003-.011-.006-.043.007-.019.007-.033-.027-.035.017l-.002.004zM3.981 3.467h-.004c-.011-.001-.047.032-.025.052.007.007 0 .052.04.04 0 0 .043-.025.052-.028.01-.005.026-.05-.018-.065-.013-.005-.033.001-.045 0z"/><path class="fil4" d="M4.23 3.213h.004c.01-.001.047.038.025.063-.008.009 0 .063-.04.049l-.052-.035c-.011-.006-.027-.059.017-.078.013-.006.034.001.045 0zM4.037 3.325h-.005c-.01 0-.047.021-.025.035.008.005 0 .035.04.027l.052-.02c.011-.002.027-.032-.018-.042-.012-.003-.033 0-.044 0zM4.454 2.983h-.005c-.01 0-.047.021-.025.035.008.005 0 .034.04.027l.052-.02c.011-.002.027-.032-.018-.042-.012-.004-.033 0-.044 0zM4.076 3.46c0 .028.002.027.038.025.002 0 .008-.041-.004-.044v-.006c-.032-.011-.02.027-.034.025zM4.422 3.17c0 .027.003.027.038.024.003 0 .008-.041-.004-.043v-.006c-.032-.011-.02.027-.034.024zM4.142 3.548l.002.004c.01.021.04.02.064.02.014.002.02-.04.013-.052-.042-.003-.01-.006-.043.007-.018.007-.033-.027-.035.017 0 .001-.002.002-.001.004zM4.316 3.508l.002.005c.01.02.04.019.064.02.014 0 .02-.04.013-.052-.042-.003-.011-.007-.043.006-.019.007-.033-.027-.035.017 0 .001-.002.003-.001.004zM4.284 3.386l-.01-.024c-.005-.01-.063.032-.034.053.01.007 0 .051.052.04l.07-.029c.015-.005.036-.049-.023-.065-.017-.004-.05.035-.055.025zM4.39 3.22h-.005c-.01 0-.047.022-.025.036.008.004 0 .034.04.026l.052-.019c.011-.003.027-.032-.017-.043-.013-.003-.034.001-.045 0zM4.368 3.333c0 .028.002.028.038.025.002 0 .008-.04-.004-.043v-.006c-.032-.011-.02.027-.034.024zM4.421 3.451l.002.005c.011.02.04.019.065.02.014 0 .02-.04.013-.052-.043-.003-.011-.006-.043.006-.019.007-.033-.027-.036.017 0 .002-.002.003-.001.004zM4.517 3.308l-.023-.01c-.01-.006-.048.031-.026.052.008.007 0 .052.04.04l.052-.029c.011-.004.027-.048-.017-.064-.013-.005-.016.016-.026.011zM4.549 3.153h-.005c-.01 0-.047.021-.025.035.008.005 0 .034.04.027l.052-.02c.011-.003.027-.032-.018-.043-.012-.003-.033.001-.044 0zM4.622 3.276c0 .028.003.028.038.025.003 0 .008-.04-.004-.043v-.006c-.032-.011-.02.027-.034.024zM4.654 3.375l.002.005c.01.02.04.02.064.02.014.001.02-.04.013-.052-.042-.003-.011-.006-.043.006-.019.007-.033-.026-.035.017 0 .002-.002.003-.001.004zM4.42 3.546h-.004c-.01 0-.047.032-.025.053.008.007 0 .051.04.04l.052-.029c.011-.005.027-.049-.018-.065-.012-.004-.033.002-.044.001zM4.816 3.272h-.004c-.009 0-.038.026-.02.043.006.005 0 .041.032.032l.042-.023c.009-.004.021-.04-.014-.052-.01-.004-.027 0-.036 0zM4.622 3.422h-.005c-.01 0-.047.021-.025.035.008.005 0 .034.04.027l.052-.02c.011-.003.027-.032-.017-.043-.013-.003-.034.001-.045 0zM4.86 2.939h-.005c-.01 0-.04.018-.021.03.006.004 0 .03.034.023l.045-.017c.01-.002.023-.028-.015-.037-.011-.002-.029.001-.039 0zM4.695 3.545c0 .028.003.028.038.025.003 0 .008-.04-.003-.043V3.52c-.033-.011-.02.027-.035.024zM4.775 3.011c0 .028.002.028.038.025.003 0 .008-.041-.004-.043v-.007c-.032-.01-.02.028-.034.025zM4.642 3.654l.002.004c.011.021.04.02.065.02.014.002.02-.04.013-.051-.043-.004-.011-.007-.043.006-.019.007-.033-.027-.036.017 0 .001-.002.002-.001.004zM4.729 3.432l.002.004c.01.02.04.02.064.02.014.001.02-.04.013-.052-.042-.003-.01-.006-.043.006-.018.008-.033-.026-.035.018 0 0-.002.002-.001.004zM4.755 2.742h-.003c-.006 0-.029.013-.015.022.005.003 0 .02.024.016l.032-.012c.007-.002.017-.02-.01-.026-.008-.002-.02 0-.028 0zM4.934 2.72l-.001-.001c-.004 0-.017.019-.01.03.003.005 0 .03.015.024l.019-.017c.004-.003.01-.028-.007-.037-.004-.003-.012 0-.016 0z"/><path class="fil4" d="M4.772 2.72h-.003c-.007 0-.029.02-.015.033.004.005 0 .032.024.025l.032-.018c.007-.003.016-.03-.01-.04-.008-.002-.021.001-.028 0zM4.853 2.699h-.002c-.007 0-.03.013-.016.021.005.003 0 .021.024.016l.033-.011c.007-.002.016-.02-.011-.027-.008-.002-.02 0-.028 0zM4.948 2.68c0 .018.002.018.024.016.001 0 .005-.025-.003-.027v-.003c-.02-.007-.012.017-.02.015zM4.846 2.796l.001.003c.007.013.025.012.04.012.009 0 .012-.025.008-.032-.026-.002-.007-.004-.027.004-.01.005-.02-.016-.021.01l-.001.003zM4.96 2.809c0 .017.001.017.023.015.002 0 .005-.025-.002-.027v-.003c-.02-.007-.013.016-.021.015zM4.896 2.844l.001.003c.007.013.025.012.04.012.009 0 .012-.025.008-.032-.026-.002-.007-.004-.027.004-.011.005-.02-.016-.021.01 0 .002-.002.002-.001.003zM4.854 2.858H4.85c-.007 0-.029.02-.015.032.004.005 0 .032.024.025l.032-.017c.007-.003.017-.03-.01-.04-.008-.003-.021 0-.028 0zM4.793 3.12h-.001c-.004 0-.017.019-.01.03.003.005 0 .03.015.024l.019-.017c.004-.002.01-.028-.007-.037-.004-.003-.012 0-.016 0zM4.705 3.197l.001.003c.007.013.025.012.04.013.009 0 .012-.025.008-.032-.026-.002-.007-.004-.027.003-.011.005-.02-.016-.021.01 0 .002-.002.002-.001.003zM4.819 3.21c0 .017.001.017.023.015.002 0 .005-.025-.002-.026v-.004c-.02-.007-.013.017-.021.015zM4.711 3.277l.001.003c.007.012.025.011.04.012.009 0 .012-.025.008-.032-.026-.002-.007-.004-.027.004-.011.004-.02-.017-.021.01 0 .001-.002.002-.001.003zM4.654 3.952H4.65c-.011 0-.047.021-.025.035.007.005 0 .035.04.027l.051-.02c.012-.002.027-.032-.017-.042-.013-.003-.033 0-.045 0zM4.723 3.85h-.004c-.01-.001-.04.018-.022.03.007.003 0 .029.034.022l.045-.016c.01-.003.023-.028-.015-.037-.01-.003-.028 0-.038 0zM4.54 3.967c0 .028.002.028.038.025.003 0 .008-.04-.004-.043v-.006c-.032-.011-.02.027-.034.024zM4.533 3.741h-.002c-.003 0-.016.018-.009.03.003.005 0 .03.015.024l.018-.017c.004-.003.01-.028-.006-.037-.004-.003-.012 0-.016 0zM4.37 3.743h-.002c-.007 0-.03.02-.016.032.005.004 0 .032.025.025l.032-.018c.007-.003.016-.03-.011-.04-.008-.003-.02.001-.027 0zM4.452 3.72H4.45c-.006 0-.028.014-.015.022.005.003 0 .021.024.016l.032-.011c.007-.002.017-.02-.01-.027-.008-.002-.02 0-.028 0zM4.547 3.703c0 .017.002.017.023.015.002 0 .005-.025-.002-.027v-.003c-.02-.007-.012.016-.02.015zM4.4 3.834l.002.002c.007.013.025.012.04.013.008 0 .012-.025.008-.032-.026-.002-.007-.004-.027.004-.011.004-.02-.017-.021.01 0 .001-.002.002-.001.003zM4.473 3.628H4.47c-.006 0-.028.02-.015.032.005.005 0 .032.024.025l.032-.018c.007-.003.017-.03-.01-.04-.008-.002-.02.001-.028.001zM4.559 3.83c0 .018.001.017.023.016.002 0 .005-.025-.002-.027v-.004c-.02-.006-.013.017-.021.016zM4.495 3.866l.001.003c.007.013.025.012.04.012.008 0 .012-.025.008-.032-.026-.002-.007-.004-.027.004-.011.004-.02-.016-.021.01 0 .001-.002.002-.001.003zM4.421 3.897H4.42c-.007 0-.03.02-.016.033.005.004 0 .031.024.024l.033-.017c.006-.003.016-.03-.011-.04-.008-.003-.02 0-.028 0zM4.469 3.986h-.002c-.004 0-.017.018-.009.03.003.004 0 .03.014.023l.02-.016c.003-.003.009-.029-.007-.038-.005-.003-.012 0-.016 0zM4.524 4.063c0 .017.002.016.023.015.002 0 .005-.025-.002-.027v-.004c-.02-.006-.013.017-.021.016zM4.73 3.761H4.73c-.004 0-.017.019-.01.03.004.005 0 .03.015.024l.019-.016c.004-.003.01-.029-.006-.038-.005-.003-.012 0-.016 0zM4.65 3.74h-.003c-.007 0-.029.014-.016.022.005.003 0 .021.025.017l.032-.012c.007-.002.016-.02-.01-.027H4.65zM4.622 3.812l.001.003c.007.012.025.011.04.012.008 0 .012-.025.008-.032-.026-.002-.007-.004-.027.004-.011.004-.02-.017-.021.01 0 .001-.002.002-.001.003z"/><path class="fil4" d="M4.756 3.851c0 .017.002.017.023.015.002 0 .005-.025-.002-.026v-.004c-.02-.007-.013.017-.021.015zM2.968 4.015h.005c.012 0 .061.043.037.057-.008.005-.01.013-.052.005L2.9 4.058c-.012-.003-.03-.033.02-.043.013-.004.036 0 .048 0zM2.863 3.596c0 .028.002.027.037.025.003 0 .009-.041-.003-.044v-.006c-.032-.01-.02.028-.034.025zM2.921 3.507l.003.004c.01.02.04.02.064.02.014.001.02-.04.013-.052-.043-.003-.011-.006-.043.006-.019.008-.033-.026-.035.018 0 0-.003.002-.002.004zM2.734 3.993H2.73c-.011 0-.047.021-.025.035.007.005 0 .034.04.027l.051-.02c.012-.003.027-.032-.017-.043-.013-.003-.033.001-.045.001zM2.955 3.686H2.95c-.01 0-.04.019-.022.03.007.004 0 .03.034.023l.045-.016c.01-.003.023-.028-.015-.037-.01-.003-.028 0-.038 0zM2.852 3.814c0 .028.002.027.038.024.003 0 .008-.04-.004-.043v-.006c-.032-.011-.02.027-.034.025zM2.613 3.711h-.002c-.003 0-.016.019-.009.03.003.005 0 .03.015.024l.018-.017c.004-.002.01-.028-.006-.037-.004-.003-.012 0-.016 0zM2.609 3.606h-.003c-.007 0-.029.02-.015.033.004.004 0 .031.024.024l.032-.017c.007-.003.017-.03-.01-.04-.008-.003-.021 0-.028 0zM2.731 3.573H2.73c-.007 0-.03.013-.016.022.005.003 0 .02.024.016l.033-.012c.006-.002.016-.02-.011-.026-.008-.002-.02 0-.028 0zM2.826 3.555c0 .018.002.017.024.016.001 0 .005-.026-.003-.027V3.54c-.02-.007-.012.017-.02.015zM2.68 3.686l.001.003c.007.013.025.012.04.013.009 0 .012-.025.008-.032-.026-.002-.007-.004-.027.003-.011.005-.02-.016-.021.01l-.001.003z"/><path class="fil4" d="M2.773 3.515H2.77c-.007 0-.029.02-.016.032.005.005 0 .032.025.025l.032-.017c.007-.003.016-.03-.01-.04-.009-.003-.021 0-.028 0zM2.838 3.683c0 .017.001.017.023.016.002 0 .005-.026-.002-.027v-.004c-.02-.007-.013.017-.021.015zM2.746 3.802l.001.003c.007.012.024.011.04.012.008 0 .012-.025.007-.032-.026-.002-.006-.004-.026.004-.011.004-.02-.017-.022.01v.003zM2.7 3.75h-.002c-.007 0-.03.02-.016.032.005.005 0 .032.025.025l.032-.018c.007-.003.016-.03-.011-.04-.008-.002-.02.001-.028.001zM2.748 3.838h-.002c-.004 0-.017.019-.009.03.003.005 0 .03.014.024 0 0 .016-.015.02-.017.003-.003.009-.028-.007-.037-.005-.003-.012 0-.016 0zM2.864 3.958c0 .017.002.016.024.015.001 0 .004-.025-.003-.027v-.004c-.02-.006-.012.017-.02.016zM3.01 3.614h-.002c-.004 0-.017.019-.009.03.003.005 0 .03.014.024l.019-.017c.004-.003.01-.028-.006-.037-.005-.003-.012 0-.016 0zM2.929 3.594h-.003c-.007 0-.029.013-.015.021.004.003 0 .021.024.016l.032-.011c.007-.002.016-.02-.01-.027-.008-.002-.021 0-.028 0zM2.901 3.664l.001.003c.007.013.025.012.04.013.009 0 .012-.025.008-.032-.026-.002-.007-.004-.027.003-.011.005-.02-.016-.021.01 0 .002-.002.002-.001.003zM3.035 3.704c0 .017.002.017.023.015.002 0 .005-.025-.002-.027V3.69c-.02-.007-.012.016-.02.015zM2.044 3.22h-.001c-.004 0-.017.02-.01.031.003.004 0 .03.015.023l.018-.016c.005-.003.01-.029-.006-.038-.004-.002-.012.001-.016 0zM2.184 2.924h-.002c-.007 0-.03.013-.016.021.005.003 0 .022.024.017l.032-.012c.007-.002.017-.02-.01-.026-.008-.002-.02 0-.028 0zM2.058 3.182c0 .018.002.017.024.016.001 0 .005-.026-.003-.027v-.004c-.02-.007-.012.017-.02.015zM1.98 3.307l.002.003c.007.012.024.011.04.012.008 0 .011-.025.007-.032-.026-.002-.006-.004-.026.004-.012.004-.02-.016-.022.01v.003zM2.05 3.106h-.002c-.007 0-.03.02-.016.032.005.005 0 .032.024.025l.033-.017c.006-.003.016-.03-.011-.04-.008-.003-.02 0-.028 0zM2.113 3.043h.002c.007 0 .03.013.016.021-.005.003 0 .021-.025.017l-.032-.012c-.007-.002-.016-.02.011-.027h.028zM2 3.224c0 .017 0 .017.022.015.002 0 .005-.025-.002-.026v-.004c-.02-.007-.012.017-.02.015zM1.968 3.435l.002.003c.007.014.026.013.043.014.01 0 .013-.027.009-.035-.029-.002-.008-.004-.03.004-.012.005-.021-.018-.023.011v.003zM1.997 3.34h-.003c-.007 0-.03.02-.016.033.005.005 0 .033.025.026l.033-.018c.007-.003.017-.031-.01-.041-.009-.003-.022 0-.03 0zM1.975 3.486h-.001c-.004 0-.017.018-.01.03.003.004 0 .03.015.023 0 0 .015-.014.019-.016.004-.003.01-.029-.007-.038-.004-.003-.012 0-.016 0zM1.933 3.62h-.002c-.007 0-.03.013-.016.022.005.003 0 .02.025.016l.032-.012c.007-.002.016-.02-.011-.026-.008-.002-.02 0-.028 0zM1.928 3.58l.001.003c.007.012.025.011.04.012.008 0 .012-.025.008-.032-.026-.002-.007-.004-.027.004-.011.004-.02-.017-.021.01 0 .001-.002.002-.001.003zM1.707 3.82a.04.04 0 0 0 .043.037.283.283 0 0 0 .09-.02l-.02-.083a.168.168 0 0 1-.076.023.04.04 0 0 0-.037.043zM1.904 3.705l.002.003c.007.014.026.013.043.013.009.001.013-.027.008-.035-.028-.002-.007-.004-.029.005-.012.004-.022-.018-.023.011 0 0-.002.002-.001.003z"/><path class="fil4" d="M1.881 3.7H1.88c-.004 0-.017.019-.01.03.003.005 0 .03.015.024l.018-.017c.005-.002.01-.028-.006-.037-.004-.003-.012 0-.016 0zM1.834 3.795l.001.002c.007.013.025.012.04.013.008 0 .012-.025.008-.032-.026-.002-.007-.004-.027.003-.011.005-.02-.016-.021.011l-.001.002zM1.87 4.272h-.004c-.01-.001-.047.032-.025.052.008.007 0 .052.04.04l.052-.028c.011-.005.027-.05-.018-.065-.012-.005-.033.001-.044 0zM2.01 4.31c0 .028.003.028.038.025.003 0 .008-.04-.003-.043v-.006c-.032-.011-.02.027-.035.024zM2.283 4.025l.002.004c.01.021.04.02.064.02.014.002.02-.04.013-.052-.042-.003-.01-.006-.043.007-.018.007-.033-.027-.035.017 0 .001-.002.002-.001.004zM1.91 4.076h-.005c-.01-.001-.047.032-.025.052.008.007 0 .052.04.04l.052-.028c.011-.005.027-.049-.017-.065-.013-.005-.034.001-.045 0zM2.196 4.156c0 .028.003.028.038.025.003 0 .008-.041-.004-.044v-.006c-.032-.01-.02.028-.034.025zM2.191 3.97l.003.005c.01.02.04.019.064.02.014 0 .02-.04.013-.052-.042-.004-.011-.007-.043.006-.019.007-.033-.027-.035.017 0 .001-.003.002-.002.004zM2.081 4.268l.002.005c.011.02.04.019.065.02.014.001.02-.04.013-.052-.043-.003-.011-.006-.043.006-.019.007-.033-.026-.036.017 0 .002-.002.003-.001.004zM2.127 3.929h.005c.01 0 .047.032.025.052-.008.008 0 .052-.04.04l-.052-.028c-.011-.005-.027-.049.018-.065.012-.004.033.002.044.001zM1.707 4.246h-.005c-.01 0-.047.032-.025.053.008.007 0 .051.04.04l.052-.029c.011-.005.027-.049-.018-.065-.012-.004-.033.002-.044.001zM1.976 4.029c0 .028.002.027.037.024.003 0 .008-.04-.003-.043v-.006c-.032-.011-.02.027-.035.025zM1.847 4.426h-.004c-.011-.001-.047.02-.025.034.007.005 0 .035.039.027l.052-.019c.012-.003.027-.032-.017-.043-.013-.003-.033 0-.045 0zM2.068 4.119h-.004c-.01 0-.04.018-.022.03.007.004 0 .03.034.023l.045-.016c.01-.003.023-.028-.015-.038-.01-.002-.028.001-.038 0zM1.965 4.246c0 .028.002.028.038.025.002 0 .008-.041-.004-.043v-.006c-.032-.011-.02.027-.034.024zM2.286 4.11h-.003c-.006-.001-.029.012-.015.02.005.004 0 .022.024.017l.032-.012c.007-.002.017-.02-.01-.026-.008-.002-.02 0-.028 0zM2.318 3.94c0 .018.002.018.024.016.001 0 .005-.025-.003-.026v-.004c-.02-.007-.012.017-.02.015zM2.216 3.9l.002.002c.006.013.024.012.039.013.009 0 .012-.025.008-.032-.026-.002-.007-.004-.026.003-.012.005-.02-.016-.022.011V3.9zM2.23 4.032h-.002c-.007 0-.03.02-.016.033.005.004 0 .031.024.024l.033-.017c.007-.003.016-.03-.011-.04-.008-.003-.02 0-.028 0z"/><path class="fil4" d="M1.95 4.116c0 .017.002.017.024.015.002 0 .005-.025-.003-.027v-.003c-.02-.007-.012.017-.02.015zM1.858 4.234l.002.003c.007.013.024.012.04.013.008 0 .011-.025.007-.032-.026-.002-.006-.004-.026.003-.012.005-.02-.016-.022.01v.003zM1.813 4.183h-.002c-.007 0-.03.02-.016.032.005.004 0 .032.024.025.001 0 .027-.016.033-.018.006-.003.016-.03-.011-.04-.008-.003-.02.001-.028 0zM1.86 4.27c-.005 0-.018.02-.01.031.003.004 0 .03.014.023l.02-.016c.003-.003.009-.028-.007-.038-.005-.002-.012.001-.016 0zM1.977 4.39c0 .017.002.017.023.015.002 0 .005-.025-.002-.026v-.004c-.02-.007-.012.017-.02.015zM2.123 4.047H2.12c-.004 0-.017.018-.01.03.004.004 0 .03.015.023l.019-.016c.004-.003.01-.029-.006-.038-.005-.002-.012.001-.016 0zM2.042 4.026h-.003c-.007 0-.029.013-.016.022.005.002 0 .02.025.016l.032-.012c.007-.002.016-.02-.01-.026-.009-.002-.021 0-.028 0zM2.014 4.097l.001.003c.007.013.025.012.04.012.008 0 .012-.025.008-.032-.026-.002-.007-.004-.027.004-.011.004-.02-.016-.021.01 0 .001-.002.002-.001.003zM2.148 4.136c0 .017.002.017.023.016.002 0 .005-.026-.002-.027V4.12c-.02-.007-.013.017-.021.015zM2.882 4.222c0 .028.003.027.038.025.003 0 .008-.041-.003-.044v-.006c-.032-.01-.02.028-.035.025zM2.768 4.334l.002.005c.01.02.04.019.064.02.014 0 .02-.04.013-.052-.042-.003-.011-.007-.043.006-.019.007-.033-.027-.035.017 0 .001-.002.003-.001.004zM2.754 4.185H2.75c-.009 0-.04.018-.021.03.006.004 0 .03.034.023l.045-.017c.01-.002.023-.028-.015-.037-.011-.002-.029.001-.039 0zM2.651 4.312c0 .028.003.027.038.025.003 0 .008-.041-.004-.044v-.006c-.032-.01-.02.028-.034.025zM2.99 4.106h-.003c-.007 0-.029.013-.015.021.004.003 0 .022.024.017l.032-.012c.007-.002.017-.02-.01-.026-.008-.002-.021 0-.028 0zM2.923 4.134H2.92c-.006 0-.029.02-.015.033.005.004 0 .031.024.024l.032-.017c.007-.003.017-.03-.01-.04-.008-.003-.02 0-.028 0zM2.667 4.227c0 .017.001.017.023.015.002 0 .005-.025-.002-.026v-.004c-.02-.007-.013.017-.021.015zM2.809 4.113h-.002c-.004 0-.016.018-.009.03.003.004 0 .03.015.023l.018-.016c.004-.003.01-.029-.006-.038-.004-.003-.012 0-.016 0zM2.728 4.092h-.003c-.006 0-.029.013-.015.021.005.003 0 .022.024.017l.032-.012c.007-.002.017-.02-.01-.026-.008-.002-.02 0-.028 0zM2.7 4.163l.002.003c.007.012.024.011.04.012.008 0 .011-.025.007-.032-.026-.002-.007-.004-.026.004-.012.004-.02-.017-.022.01v.003zM2.834 4.202c0 .017.002.017.024.015.001 0 .005-.025-.003-.026v-.004c-.02-.007-.012.017-.02.015z"/><ellipse class="fil8" cx="5.06" cy="2.106" rx=".123" ry=".137"/><ellipse class="fil9" cx="5.087" cy="2.124" rx=".093" ry=".104"/><ellipse class="fil8" cx="4.486" cy="2.091" rx=".113" ry=".127"/><ellipse class="fil9" cx="4.461" cy="2.108" rx=".086" ry=".096"/><path class="fil3" d="M4.45 2.394c-.015.082.003.183.066.183-.005.086.104.096.15.095.091-.003.132-.055.127-.074 0 0 .084.024.16-.024.095-.06.139-.134.142-.222.008-.23-.167-.384-.39-.37-.235.013-.324.169-.254.412z"/><path class="fil10" d="M4.735 2.225a.144.144 0 0 0-.007.02c.012.005.103.04.141-.066a.138.138 0 0 0-.05-.01c-.056-.002-.072.029-.084.056zM4.539 2.25c-.005.005-.035.022-.062-.01a.091.091 0 0 1-.019-.035c.006-.003-.002-.007.034-.006.028 0 .044.029.047.051z"/><path d="M4.832 2.483c-.142-.033-.046-.123-.145-.103l-.022.005h-.007s.003-.011.002 0c0 .012-.078.067-.078.067s-.029.012-.037 0c-.007-.013-.037-.047-.045-.058l-.052.016a.277.277 0 0 0 .003.096c.01.04.03.07.065.07-.008.131.262.115.277.029v-.007s.084.024.16-.024a.335.335 0 0 0 .1-.092.494.494 0 0 1-.221.001z" style="fill:#fff3e0"/><path class="fil4" d="M4.63 2.356s.031.004.03.029c-.002.023-.078.067-.078.067-.036.025-.063-.025-.083-.059-.004-.006-.01-.02 0-.03.016-.017.108-.01.132-.007z"/><path class="fil12" d="M4.446 2.21a.001.001 0 0 0 .002.002s.006-.011.037-.012v-.002.002c.016-.001.026.003.033.009a.06.06 0 0 1 .014.021.088.088 0 0 1 .008.043.798.798 0 0 1-.01.064l.006-.027a.804.804 0 0 0 .006-.036.093.093 0 0 0-.008-.044.062.062 0 0 0-.015-.023c-.007-.006-.017-.01-.034-.01-.032.001-.04.014-.04.014z"/><path class="fil2" d="M4.887 2.192s-.012-.02-.068-.023c-.056-.002-.072.029-.084.056a.17.17 0 0 0-.014.078c0 .01.017.102.02.11"/><path class="fil12" d="M4.886 2.193a.001.001 0 0 0 .002-.002s-.012-.02-.069-.023c-.029 0-.047.006-.06.017a.11.11 0 0 0-.025.04.164.164 0 0 0-.014.078 1.42 1.42 0 0 0 .013.064 1.417 1.417 0 0 1-.01-.064.157.157 0 0 1 .013-.078.108.108 0 0 1 .025-.038c.012-.01.03-.017.058-.016.056.002.067.022.067.022z"/><path class="fil2" d="M4.87 2.178a.098.098 0 0 1-.144.066"/><path class="fil12" d="m4.87 2.18-.001-.002-.002.001c-.039.114-.138.065-.138.065h-.002v.003s.103.05.143-.067zM4.46 2.203h-.002l-.001.001c.008.028.02.044.035.05a.049.049 0 0 0 .023.006.045.045 0 0 0 .018-.003c.004-.002.007-.005.008-.008a.001.001 0 0 0-.003 0c0 .002-.002.004-.006.005a.047.047 0 0 1-.039-.002c-.013-.006-.026-.021-.034-.049z"/><ellipse class="fil4 str0" cx="4.801" cy="2.205" rx=".027" ry=".036"/><ellipse class="fil13 str0" cx="4.791" cy="2.196" rx=".013" ry=".017"/><ellipse class="fil4 str0" cx="4.507" cy="2.227" rx=".018" ry=".024"/><ellipse class="fil13 str0" cx="4.514" cy="2.224" rx=".009" ry=".012"/><g id="_465019552"><path id="_465019792" class="fil4" d="M4.576 2.454c.005.09.135.172.173.06.006.125-.186.063-.2-.06a.013.013 0 1 1 .027 0z"/></g><path class="fil2" d="M4.563 2.454c0 .04.028.086.063.103.026.012.109.025.119-.012l.004-.031"/><g id="_465019984"><path id="_465019528" class="fil4" d="M4.578 2.466c.012.05-.005.126-.065.11.046-.021.06-.046.04-.1a.013.013 0 1 1 .025-.01z"/></g><path class="fil2" d="M4.566 2.471c.016.042.003.105-.053.105"/><path class="fil4" d="M4.647 2.084h-.003c-.01 0-.04.018-.022.03.007.004 0 .03.034.022L4.7 2.12c.01-.003.022-.028-.015-.037-.011-.002-.029.001-.039 0zM4.543 2.056c0 .032.003.032.044.029.003 0 .01-.048-.004-.051v-.007c-.038-.013-.024.032-.04.029zM4.505 2.128l.002.003c.008.015.029.014.046.015.01 0 .014-.03.01-.038-.03-.002-.008-.004-.031.005-.014.005-.024-.02-.026.012v.003zM4.658 1.998h-.003c-.007 0-.03.02-.016.034.005.004 0 .033.025.025.001 0 .028-.016.034-.018.007-.003.017-.031-.012-.041-.008-.003-.02 0-.028 0zM4.742 2.074c0 .033.003.032.044.03.003-.001.01-.049-.004-.052v-.007c-.038-.013-.024.032-.04.029zM4.808 2.05l.002.006c.008.024.031.022.05.023.012.001.016-.047.01-.06-.033-.005-.008-.008-.033.006-.015.009-.026-.03-.028.02 0 .002-.002.003-.001.005zM4.972 2.129h-.001c-.004 0-.016.01-.009.017.003.003 0 .018.014.014l.018-.01c.003-.001.009-.016-.006-.022h-.016zM4.991 2.293h-.004c-.01-.001-.044.03-.024.049.007.006 0 .048.037.037.001 0 .041-.023.05-.026.01-.005.024-.046-.017-.061-.012-.005-.031.001-.042 0zM4.976 2.204h-.002c-.005 0-.02.015-.011.025.003.004 0 .025.018.02l.023-.014c.005-.002.012-.024-.008-.032-.005-.002-.015.001-.02 0zM4.909 2.62h-.004c-.007 0-.033.023-.018.038.006.005 0 .037.029.029 0 0 .031-.018.037-.02.009-.004.02-.036-.012-.047-.01-.004-.024 0-.032 0zM4.96 2.587H4.96c-.006 0-.023.01-.013.017.004.002 0 .017.02.013l.025-.01c.006 0 .013-.015-.008-.02-.006-.002-.017 0-.022 0zM4.874 2.11c0 .033.003.033.045.03.003 0 .01-.048-.005-.051v-.007c-.037-.013-.023.032-.04.029z"/></g></svg>