<svg xmlns="http://www.w3.org/2000/svg" xml:space="preserve" width="655.359" height="655.359" style="shape-rendering:geometricPrecision;text-rendering:geometricPrecision;image-rendering:optimizeQuality;fill-rule:evenodd;clip-rule:evenodd" viewBox="0 0 6.827 6.827"><defs><clipPath id="id0"><path d="M3.413 0a3.413 3.413 0 1 1 0 6.827 3.413 3.413 0 0 1 0-6.827z"/></clipPath><style>.fil1{fill:#afb42b}.fil3,.fil8{fill:#263238;fill-rule:nonzero}.fil8{fill:#37474f}</style></defs><g id="Layer_x0020_1"><path d="M3.413 0a3.413 3.413 0 1 1 0 6.827 3.413 3.413 0 0 1 0-6.827z" style="fill:#d4e157"/><g style="clip-path:url(#id0)"><g id="_637667944"><path id="_5390622001" class="fil1" d="M5.184 2.884 8.97 6.67l.02.024.017.023.015.022.013.022.01.022.008.021.006.02.004.02.002.02.001.018V6.9l-.002.017-.002.016-.004.016-.004.014-.005.014-.006.013-.006.012-.006.01-.006.01-.005.01-.006.007-.005.007-.005.006-.003.004-.003.003-.002.002-3.787-3.785v-.001l.002-.002.003-.003.004-.005.005-.005.005-.007.005-.008.006-.008.006-.01.006-.011.006-.012.005-.013.005-.014.005-.014.003-.016.003-.016.002-.017v-.018l-.001-.019-.002-.019-.005-.02-.006-.02-.008-.021-.01-.022-.012-.022-.015-.023-.017-.023z"/><path id="_539062248" class="fil1" d="m5.209 3.276 3.786 3.786.004.007.004.007.003.008.003.007.003.006.003.007.003.007.003.006.002.006.002.007.003.006.002.005.001.006.002.006.001.005.002.005v.005l.002.005v.01l.001.004v.021l-.002.003v.004l-.002.003v.003l-.002.003-.002.003-3.786-3.786.001-.003.002-.003.001-.003.001-.003.001-.004v-.003l.001-.004v-.004l.001-.004V3.397l-.001-.005v-.005l-.002-.005v-.005l-.002-.005-.001-.006-.002-.005-.002-.006-.002-.006-.002-.006-.002-.006-.003-.006-.002-.007-.003-.006-.003-.007-.003-.007-.003-.007-.004-.007-.003-.007z"/><path id="_539035248" class="fil1" d="M5.245 3.441 9.03 7.227l-.003.004-.002.003-.004.003-.003.003-.004.002-.004.002-.004.002-.005.002-.005.001-.006.001h-.005l-.007.001H8.943l-.008-.002-.009-.001-.009-.002-.009-.002-.01-.002-.01-.002-.01-.003-.011-.003-.011-.003-.012-.004-.012-.004-.012-.004-.013-.005-.013-.004-.014-.005-3.786-3.787.014.006.013.004.012.005.013.004.012.004.011.003.012.004.01.003.011.002.01.003.01.002.01.002.008.002h.009l.008.002h.008l.008.001H5.199l.006-.001.006-.001.005-.002.004-.001.005-.002.004-.002.004-.003.003-.002.003-.003.003-.004z"/><path id="_539035488" class="fil1" d="M4.994 3.418 8.78 7.205 8.771 7.2l-.01-.003-.01-.003-.009-.003-.01-.003-.01-.002-.01-.003-.01-.002-.01-.003-.01-.002-.01-.002-.01-.002-.01-.001-.01-.002-.01-.001-.01-.002-.01-.001-.011-.001-.01-.001-.01-.001-.01-.001h-.01l-.01-.002h-.02l-.01-.001h-.019l-.009-.001H8.466L4.68 3.37h.036l.01.001h.01l.01.001h.009l.01.001h.01l.01.002h.01l.01.002h.01l.01.002.01.001.01.001.01.002.01.002.01.001.01.002.011.002.01.002.01.002.01.003.01.002.01.003.01.003.01.003.01.003.009.003z"/><path id="_539035416" class="fil1" d="M4.332 3.375 8.118 7.16H7.937L4.15 3.375h.047l.005-.001H4.325z"/><path id="_539035704" class="fil1" d="M4.15 3.375 7.937 7.16H7.886l-.01-.001h-.01l-.011-.001h-.012l-.012-.001H7.82l-.013-.001h-.014l-.013-.001H7.75l-.015-.001H7.707l-.015-.001h-.088l-.015.001h-.014l-.014.001-.014.001-3.786-3.786h.014l.014-.002h.028l.015-.001h.132l.015.001h.013l.014.001h.013l.013.001h.013l.012.001h.012l.01.001h.011l.01.001h.046z"/><path id="_539035440" class="fil1" d="m3.567 2.366 3.786 3.786-.003-.003-3.786-3.786z"/><path id="_539035296" class="fil1" d="M4.342 3.792 8.13 7.58l-.015.003-.013.002H8.09l-.01.001h-.009l-.007-.002-.006-.001-.005-.003-.004-.003L4.262 3.79l.004.003.006.002.006.002.007.001h.03l.013-.003z"/><path id="_539035200" class="fil1" d="m3.761 3.371 3.786 3.786-.014.001-.017.001-.02.002h-.02l-.024.002-.024.001-.026.001-.027.002-.028.001-.03.001-.029.002-.03.001-.03.001-.031.002h-.03l-.03.002-.03.001-.03.002H7.05l-.028.002h-.026l-.025.002h-.024l-.021.002h-.02l-.018.001H6.87l-.013.001H6.84l-.005.001h-.002L3.047 3.403h.014l.01-.001h.014L3.1 3.4h.017l.02-.002h.022l.024-.001.025-.001.026-.001.027-.002h.029l.03-.002.029-.001.03-.001.03-.002h.031l.03-.002.03-.002h.03l.03-.002.028-.001.027-.002.026-.001.024-.001.023-.002h.021l.02-.002h.016z"/><path id="_539035824" class="fil1" d="m3.047 3.403 3.786 3.786-.02.006-.021.007-.022.009-.022.009-.022.01-.022.011-.022.012-.023.013-.023.013-.022.014-.023.014-.022.015-.023.016-.022.015-.021.016-.022.016-.021.016-.02.016-.02.016-.02.015-.02.016-.017.015-.018.015-.017.015-.015.013-.015.014-.014.013-.013.012-.012.011-.01.01-.01.01-.009.008-3.786-3.786.008-.008.01-.01.01-.01.012-.012.013-.012.014-.012.015-.014.016-.014.017-.014.017-.015.019-.015.018-.016.02-.016.02-.016.02-.016.022-.016.021-.015.022-.016.022-.016.022-.015.023-.015.022-.014.023-.014.023-.013.022-.013.023-.012.022-.011.022-.01.022-.01.021-.008.021-.007z"/><path id="_539035176" class="fil1" d="M2.444 3.814 6.23 7.6l-.007.008-.006.008-.006.007-.005.007-.004.007-.003.008-.002.007-.002.007-.001.007v.021l.002.008.003.008.002.008.004.008.004.009.004.009.005.01.005.009.006.01.006.011.007.011.007.012.007.013.008.013.008.014.008.015.009.015.008.017.01.017.009.018L2.53 4.135l-.01-.018-.009-.017-.009-.016-.008-.015-.009-.015-.008-.014-.007-.013-.008-.013-.007-.012-.006-.011-.006-.011-.006-.01-.006-.01-.004-.01-.005-.009-.004-.008-.003-.009-.003-.008-.002-.007L2.41 3.9l-.001-.007v-.022l.002-.007.003-.007.003-.007.004-.007.005-.007.005-.008.007-.007z"/><path id="_539035680" class="fil1" d="m2.15 4.159 3.786 3.786-.005.003-.004.002-.005.002-.005.001-.005.002h-.005l-.006.002h-.03l-.006-.001-.007-.002H5.85l-.007-.003-.008-.002-.008-.002-.008-.003-.008-.002-.008-.003-.01-.004-.008-.004-.01-.004-.01-.004-.01-.004-.01-.005-.01-.005-.01-.006-.012-.005-.011-.006-.012-.006-3.786-3.787.012.007.011.006.011.005.01.006.011.005.01.004.01.005.01.004.01.004.009.004.008.003.009.003.008.003.008.003.008.002.007.002.008.002.007.001.006.001.007.001h.006l.007.001h.017l.005-.001.006-.001.005-.002.005-.002.004-.001.005-.003z"/><path id="_539036424" class="fil1" d="m2.427 4.396 3.786 3.786-.009-.008-.01-.008-.009-.008-.01-.007-.01-.007-.009-.007-.01-.006-.01-.007-.01-.006-.009-.006-.01-.006-.01-.005-.008-.006-.01-.005-.009-.006-.009-.005-.008-.005-.008-.005-.008-.005L2.25 4.278l.008.005.009.005.008.005.009.005.01.005.008.006.01.005.01.006.009.006.01.006.01.006.01.006.009.007.01.007.01.007.009.007.01.008.009.007z"/><path id="_539036544" class="fil1" d="m2.25 4.278 3.787 3.786-.015-.01-.014-.01-.012-.01L2.21 4.248l.012.01.014.01z"/><path id="_539036496" class="fil1" d="m2.53 4.135 3.786 3.787.009.018.007.019.007.018.005.018.005.018.003.018.003.018.002.018v.067l-.002.016-.002.015-.002.015-.003.014-.003.014-.003.013-.004.013-.003.012-.004.01-.004.011-.003.01-.004.008-.003.008-.003.007-.003.006-.002.005-.002.004-.001.003-.001.001-3.787-3.785v-.001l.001-.002.002-.003.002-.003.002-.005.003-.006.003-.007.003-.008.004-.009.003-.01.004-.01.003-.01.004-.012.003-.013.004-.013.003-.014.002-.014.003-.015.002-.015.001-.016.001-.017v-.05l-.002-.018-.003-.018-.004-.018-.004-.018-.005-.018-.007-.019-.008-.018z"/><path id="_539036160" class="fil1" d="M1.905 4.1 5.69 7.885 5.68 7.88l-.013-.006-.013-.004-.014-.004-.014-.004-.014-.003-.015-.002-.015-.002-.014-.002h-.015l-.015-.001h-.059l-.014.001-.013.001-.013.002h-.013l-.012.002-.012.002-.01.001-.01.002-.01.001-.008.002-.008.001-.006.002h-.006l-.004.002h-.006L1.547 4.087l.002-.001h.003l.005-.002h.005l.007-.002.007-.001.009-.002.009-.001.01-.002.011-.001.011-.002.013-.001.012-.002h.013l.014-.002h.014l.014-.001h.059l.015.001.015.002.015.002.015.002.014.003.014.003.014.004.013.005.013.005z"/><path id="_539036064" class="fil1" d="m4.68 3.371 3.786 3.786v.048l-.002.023-.003.022-.004.021-.005.02-.005.02-.007.019-.007.018-.009.017-.009.017-.01.015-.01.016-.01.014-.012.014-.012.013-.013.012-.013.012-.013.01-.014.011-.014.01-.015.009-.014.009-.015.008-.015.007-.015.007-.016.006-.015.006-.015.005-.015.005-.016.004-.014.004-3.787-3.787.015-.003.015-.005.016-.004.015-.005.015-.006.015-.007.015-.006.015-.008.015-.008.015-.008.014-.01.015-.01.013-.01.014-.01.013-.012.012-.013.012-.013.012-.013.011-.015.01-.015.01-.016.009-.016.008-.017.008-.018.006-.02.006-.019.005-.02.004-.021.003-.022.002-.023v-.023z"/><path id="_637668136" class="fil1" d="M5.073 2.786c.365.267.136.49.136.49.041.08.055.135.036.165-.025.038-.105.032-.25-.022a.952.952 0 0 0-.315-.048c.01.265-.179.384-.338.421-.161.038-.05-.1-.05-.1a.614.614 0 0 0 .04-.317H4.15c-.046.002-.244-.015-.389-.004-.144.01-.714.032-.714.032-.217.058-.521.326-.603.411-.082.085-.015.125.086.321.1.197-.012.399-.012.399-.044-.142-.184-.204-.268-.256-.083-.052-.1-.12-.1-.12-.047.029-.118.01-.245-.059-.127-.067-.358-.013-.358-.013.154-.362.56-.304.637-.294.076.01.178-.256.229-.336.05-.081.253-.373.511-.588.258-.214.35-.227.532-.316.182-.088.142-.154.108-.19-.034-.034-.015-.057.1-.068.113-.012.264.137.264.137s.104-.008.283.002c.18.01.496.087.862.353z"/></g></g><path d="M3.413 0a3.413 3.413 0 1 1 0 6.827 3.413 3.413 0 0 1 0-6.827z" style="fill:none"/><path class="fil3" d="M4.68 3.359c.016.274-.176.396-.338.433-.161.038-.05-.1-.05-.1.07-.135.038-.33.038-.33h.004c.081 0 .164.002.194.001l.093-.004h.058z"/><path class="fil3" d="M5.209 3.275a.8.8 0 0 0-.059-.053l.059.053zm0 0c.041.08.055.136.036.166-.001-.009-.008-.06-.086-.087a.483.483 0 0 1-.198-.182c-.035-.053-.089-.245-.328-.118 0 0-.151.062-.263.041 0 0-.552.208-.928.127 0 0-.045-.012.053-.044.077-.025.3-.135.325-.171 0 0-.357.041-.538.111-.18.07-.439.28-.235.285-.217.058-.521.326-.603.411-.082.085-.015.125.086.321.1.197-.012.399-.012.399-.044-.142-.184-.204-.268-.256-.083-.052-.1-.12-.1-.12-.047.029-.118.01-.245-.059-.127-.067-.358-.013-.358-.013.154-.362.56-.304.637-.294.076.01.178-.256.229-.336.05-.081.253-.373.511-.588.258-.214.35-.227.532-.316.182-.088.142-.154.108-.19-.034-.034-.015-.057.1-.068.113-.012.264.137.264.137s.104-.008.283.002c.18.01.496.087.862.353.365.267.136.49.136.49zm-.349-.319a.011.011 0 0 0-.002-.002l.002.002zm.29.265-.29-.264c.016.017.09.127.163.172.052.033.095.066.127.092zm-.32-.332c.005-.01-.003-.023-.017-.03-.013-.007-.029-.005-.033.005-.005.01.002.023.016.03.014.007.029.005.034-.005zm-.374-.175c.12.01.345.018.281-.048-.063-.066-.094-.101-.248-.14a2.531 2.531 0 0 0-.578-.066s-.067-.069-.16-.104c-.094-.035-.152-.016-.137.02.015.038.013.09-.032.14-.044.05-.31.176-.356.21-.047.035-.321.217-.38.274-.069.069-.306.34-.37.443l-.062.113c-.01.02.08-.042.136-.105.057-.064.399-.413.595-.493.195-.08.604-.188.714-.195.11-.007.476-.06.597-.049zM2.17 4.072c.082.074.167.12.154.044-.016-.09-.045-.185-.146-.233 0 0-.104-.036-.21-.015-.062.012-.201.064-.173.088.028.025.298.046.375.116z"/><path d="M5.16 3.354c.077.027.084.078.085.087-.025.038-.105.032-.25-.022a.952.952 0 0 0-.373-.047H4.62l-.287.003H4.15c-.046.002-.244-.015-.389-.004-.144.01-.714.032-.714.032-.204-.005.045-.225.226-.295.181-.07.58-.116.58-.116-.025.035-.28.161-.358.186-.098.032-.025.034-.025.034.376.081.882-.137.882-.137.112.021.268-.043.268-.043.24-.128.306.087.34.14a.483.483 0 0 0 .2.182z" style="fill:#546e7a;fill-rule:nonzero"/><path d="m4.848 2.945.31.263.051.069c-.034-.03-.128-.109-.184-.144-.08-.05-.16-.17-.177-.188z" style="fill:#182a33;fill-rule:nonzero"/><path d="M4.828 2.84c.024.013.037.037.028.054-.008.017-.035.02-.06.009-.024-.013-.037-.037-.028-.054.009-.017.036-.02.06-.008z" style="fill:#000;fill-rule:nonzero"/><path d="M4.817 2.862c.008.004.012.011.01.017-.003.005-.012.006-.02.003-.008-.004-.012-.012-.009-.018.003-.005.012-.006.02-.002z" style="fill:#fff;fill-rule:nonzero"/><path class="fil8" d="M4.755 2.66c.063.067-.176.086-.297.076-.344-.03-.988.113-1.304.242-.193.09-.54.435-.601.483-.057.063-.18.15-.17.13l.081-.152c.06-.12.31-.388.383-.439.058-.057.322-.254.369-.289.047-.034.315-.148.36-.198.045-.05.047-.107.032-.144-.015-.037.043-.056.136-.02.094.035.169.106.169.106.276.01.423.024.577.064.155.04.202.076.265.142zM2.354 4.128c.015.085-.084.05-.176-.033-.085-.077-.38-.118-.41-.145-.032-.027.122-.084.192-.097.117-.024.232.016.232.016.112.053.144.16.162.259z"/></g></svg>