<svg xmlns="http://www.w3.org/2000/svg" viewBox="0 0 492 492" style="enable-background:new 0 0 492 492" xml:space="preserve"><path style="fill-rule:evenodd;clip-rule:evenodd;fill:#212121" d="M424.906 427.784H67.595a5.674 5.674 0 0 1-5.664-5.664V176.001a5.674 5.674 0 0 1 5.664-5.664H424.93a5.674 5.674 0 0 1 5.664 5.664V422.12c-.024 3.12-2.568 5.664-5.688 5.664zM73.234 416.456h346.008V181.664H73.234v234.792z"/><path style="fill-rule:evenodd;clip-rule:evenodd;fill:#212121" d="M226.522 381.248c-6.84 0-13.608-2.208-19.368-6.528-9.336-6.984-14.064-18.048-12.672-29.592.72-5.88 2.616-11.544 5.688-16.848l14.136-24.48c6.672-11.544 18.6-18.456 31.944-18.456 13.344 0 25.272 6.888 31.944 18.456l14.136 24.48c3.072 5.304 4.968 10.968 5.688 16.848 1.392 11.544-3.336 22.608-12.672 29.592-9.384 7.032-21.432 8.472-32.184 3.864a17.657 17.657 0 0 0-13.8 0 32.32 32.32 0 0 1-12.84 2.664zm19.728-84.576c-9.24 0-17.52 4.776-22.152 12.792l-14.136 24.48c-2.304 3.984-3.72 8.184-4.248 12.552-.912 7.488 2.16 14.64 8.232 19.176 6.12 4.584 13.944 5.52 20.952 2.52a28.91 28.91 0 0 1 22.704 0c7.008 3 14.832 2.064 20.952-2.52 6.048-4.536 9.12-11.712 8.232-19.176-.528-4.344-1.944-8.568-4.248-12.552l-14.136-24.48c-4.632-8.016-12.912-12.792-22.152-12.792zm-27.047 9.96zM180.227 313.64c-4.296 0-8.736-1.488-12.792-4.392-5.424-3.864-9.768-9.912-12.288-17.016-2.52-7.104-2.904-14.544-1.128-20.976 1.944-7.032 6.456-12.264 12.384-14.352 5.904-2.088 12.72-.84 18.648 3.408 5.424 3.864 9.768 9.912 12.288 17.016 2.52 7.104 2.904 14.544 1.128 20.976-1.944 7.032-6.456 12.264-12.384 14.352a17.859 17.859 0 0 1-5.856.984zm-7.896-46.44c-.696 0-1.44.096-2.136.36-3.264 1.152-4.68 4.704-5.256 6.72-1.152 4.152-.816 9.312.888 14.184s4.704 9.096 8.208 11.592c1.704 1.224 5.04 3.096 8.304 1.944s4.68-4.704 5.256-6.72c1.152-4.152.816-9.312-.888-14.184s-4.704-9.096-8.208-11.592c-1.344-.96-3.673-2.304-6.168-2.304zM222.058 274.64c-4.296 0-8.736-1.488-12.792-4.392-5.424-3.864-9.768-9.912-12.288-17.016-2.52-7.104-2.904-14.544-1.128-20.976 1.944-7.032 6.456-12.264 12.384-14.352 5.904-2.088 12.72-.84 18.648 3.408 5.424 3.864 9.768 9.912 12.288 17.016 2.52 7.104 2.904 14.544 1.128 20.976-1.944 7.032-6.456 12.264-12.384 14.352-1.871.672-3.84.984-5.856.984zm-7.895-46.44c-.696 0-1.44.096-2.136.36-3.264 1.152-4.68 4.704-5.256 6.72-1.152 4.152-.816 9.312.888 14.184 1.728 4.872 4.704 9.096 8.208 11.592 1.704 1.224 5.04 3.096 8.304 1.944s4.68-4.704 5.256-6.72c1.152-4.152.816-9.312-.888-14.184-1.728-4.872-4.704-9.096-8.208-11.592-1.344-.96-3.673-2.304-6.168-2.304z"/><g><path style="fill-rule:evenodd;clip-rule:evenodd;fill:#212121" d="M312.274 313.64c-2.016 0-3.984-.336-5.856-.984-5.904-2.088-10.416-7.32-12.384-14.352-1.776-6.408-1.368-13.872 1.128-20.976 2.52-7.104 6.864-13.152 12.288-17.016 5.928-4.248 12.744-5.496 18.648-3.408 5.904 2.088 10.416 7.32 12.384 14.352 1.776 6.408 1.368 13.872-1.128 20.976-2.52 7.104-6.864 13.152-12.288 17.016-4.056 2.88-8.496 4.392-12.792 4.392zm-6.456-32.544c-1.728 4.872-2.04 10.032-.888 14.184.552 2.016 1.992 5.568 5.256 6.72s6.6-.72 8.304-1.944c3.504-2.496 6.48-6.72 8.208-11.592 1.728-4.872 2.04-10.032.888-14.184-.552-2.016-1.992-5.568-5.256-6.72-3.264-1.152-6.6.72-8.304 1.944-3.504 2.496-6.48 6.72-8.208 11.592zM270.442 274.64c-2.016 0-3.984-.336-5.856-.984-5.904-2.088-10.416-7.32-12.384-14.352-1.776-6.408-1.368-13.872 1.128-20.976 2.52-7.104 6.864-13.152 12.288-17.016 5.928-4.248 12.744-5.496 18.648-3.408 5.904 2.088 10.416 7.32 12.384 14.352 1.776 6.408 1.368 13.872-1.128 20.976-2.52 7.104-6.864 13.152-12.288 17.016-4.056 2.904-8.496 4.392-12.792 4.392zm-6.456-32.544c-1.728 4.872-2.04 10.032-.888 14.184.552 2.016 1.992 5.568 5.256 6.72s6.6-.72 8.304-1.944c3.504-2.496 6.48-6.72 8.208-11.592 1.728-4.872 2.04-10.032.888-14.184-.552-2.016-1.992-5.568-5.256-6.72-3.264-1.152-6.6.72-8.304 1.944-3.504 2.496-6.48 6.72-8.208 11.592z"/></g><g><path style="fill-rule:evenodd;clip-rule:evenodd;fill:#212121" d="M424.906 181.664H67.595c-2.04 0-3.936-1.104-4.944-2.904s-.96-3.984.12-5.736l64.608-104.64a5.646 5.646 0 0 1 4.824-2.688h224.544c1.92 0 3.696.96 4.728 2.568l68.184 104.64a5.68 5.68 0 0 1 .24 5.784 5.683 5.683 0 0 1-4.993 2.976zM77.723 170.36h336.743L353.65 77.048H135.347L77.723 170.36z"/></g><g><path style="fill-rule:evenodd;clip-rule:evenodd;fill:#212121" d="M305.794 129.344H186.706a5.674 5.674 0 0 1-5.664-5.664 5.674 5.674 0 0 1 5.664-5.664h119.112a5.674 5.674 0 0 1 5.664 5.664 5.68 5.68 0 0 1-5.688 5.664z"/></g></svg>