<svg xmlns="http://www.w3.org/2000/svg" xml:space="preserve" width="655.359" height="655.359" style="shape-rendering:geometricPrecision;text-rendering:geometricPrecision;image-rendering:optimizeQuality;fill-rule:evenodd;clip-rule:evenodd" viewBox="0 0 6.827 6.827"><defs><clipPath id="id0"><path d="M3.413 0a3.413 3.413 0 1 1 0 6.827 3.413 3.413 0 0 1 0-6.827z"/></clipPath><style>.fil1{fill:#26c6da}.fil3,.fil4{fill:#4e342e;fill-rule:nonzero}.fil3{fill:#795548}.fil10,.fil15,.fil6{fill:#880e4f;fill-rule:nonzero}.fil15,.fil6{fill:#ccb7ae}.fil6{fill:#d4c1b9}</style></defs><g id="Layer_x0020_1"><path d="M3.413 0a3.413 3.413 0 1 1 0 6.827 3.413 3.413 0 0 1 0-6.827z" style="fill:#80deea"/><g style="clip-path:url(#id0)"><g id="_637663768"><path id="_2161148241" class="fil1" d="m3.808 1.81 3.786 3.787-.033.027-.027.027-.02.026-.012.026-.007.025-.001.025.004.025.01.024.013.025.017.024.022.024L3.773 2.09l-.02-.024-.019-.025-.013-.024-.01-.024-.004-.025.002-.025.006-.025.013-.026.02-.026.026-.027z"/><path id="_216114512" class="fil1" d="m4.257 2.483 3.786 3.786.025.03.021.032.018.033.013.034.01.034.003.036-3.786-3.786-.004-.036-.01-.035-.013-.033-.017-.033-.021-.032z"/><path id="_216116480" class="fil1" d="m3.716 2.247 3.786 3.786-.006-.006-.006-.006-.006-.006-.006-.006-3.786-3.786.006.006.005.006.006.006z"/><path id="_216116840" class="fil1" d="M4.265 2.912 8.05 6.698 4.264 2.912z"/><path id="_216117128" class="fil1" d="m4.264 2.912 3.787 3.786-.001.002-.002.002-.001.002-.001.001-.002.002-.001.002-.001.002-.002.002-3.786-3.786.001-.002.002-.002.001-.002.001-.002.002-.002.001-.002.001-.001z"/><path id="_216117152" class="fil1" d="M4.254 2.927 8.04 6.713 4.252 2.928z"/><path id="_216116696" class="fil1" d="M4.253 2.927 8.04 6.714l-.002.003-.002.003-.003.003-.002.003-.003.003-.002.003-.003.003-.002.003-3.787-3.786.003-.003.002-.003.003-.003.003-.003.002-.003.002-.003.003-.003z"/><path id="_216116624" class="fil1" d="m3.86 2.666 3.786 3.786.006.007.006.007.004.005.005.005L3.88 2.69l-.005-.005-.004-.005-.006-.007z"/><path id="_216117080" class="fil1" d="m3.321 3.425 3.787 3.786H7.1l-.007-.001h-.007l-.007-.002h-.007l-.007-.002h-.007l-.007-.002-.007-.001-.007-.002h-.007l-.006-.002-.007-.002-.007-.001-.007-.002-.007-.002-.006-.002-.007-.002-.007-.001-.006-.002-.007-.002-.006-.003-.007-.002-.007-.002-.006-.002-.006-.003-.007-.002-.006-.003-.007-.002-.006-.003-.006-.003-.007-.003L3.107 3.37l.006.003.007.003.006.002.006.003.007.002.006.003.007.002.006.003.007.002.006.002.007.002.006.002.007.002.007.002.006.002.007.002.007.002.007.001.006.002.007.001.007.002.007.001.007.001.007.002h.007l.007.002.006.001h.007l.007.002h.007l.007.001z"/><path id="_216116552" class="fil1" d="m3.036 3.331 3.786 3.787-.002-.002-.003-.001-.002-.002-.002-.002-.003-.001-.002-.002-.002-.001-.003-.002L3.017 3.32l.002.001.003.002.002.002.002.001.003.002.002.001.002.002z"/><path id="_216117200" class="fil1" d="m3.017 3.319 3.786 3.786-.14.033L2.877 3.35z"/><path id="_216116648" class="fil1" d="m3.107 3.37 3.786 3.785-.01.002-.01.002-.008.002-.009.002h-.008l-.007.002-.007.001h-.007l-.006.002H6.812l-.004.001h-.006L3.014 3.384h.011l.004-.001h.005l.006-.001.006-.001.007-.001.008-.001.008-.002.009-.001.009-.002.01-.002z"/><path id="_216117752" class="fil1" d="m3.612 3.386 3.786 3.787-.001.017-.002.018-.001.017-.002.018-.002.017-.002.018-.002.018-.002.017-.002.018-.003.017-.002.018-.002.017-.003.017-.002.017-.003.017-.003.017-.002.016-.003.016-.003.016-.002.016-.003.015-.003.016-.002.014-.003.015-.003.014-.002.013-.003.014-.002.012-.003.013-.002.012-.003.011-.002.011-3.786-3.786.002-.011.002-.012.003-.011.002-.013.003-.013.002-.013.003-.013.003-.015.002-.014.003-.015.003-.015.002-.015.003-.016.003-.016.002-.016.003-.017.003-.016.002-.017.003-.017.002-.017.003-.018.002-.017.002-.018.003-.017.002-.018.002-.017.002-.018.002-.018.001-.017.002-.018.001-.017z"/><path id="_216117368" class="fil1" d="M4.21 4.132 7.996 7.92l.002.002.002.003.001.002.001.001v.002h.001v.001h-.005l-.002-.002-.003-.002-.003-.002-.003-.002-.004-.003-.004-.003-.005-.003-.005-.004-.006-.004-.006-.005-.006-.005-.007-.005-.008-.006-.008-.007-.008-.006-.01-.008-.009-.007-.01-.008-.01-.009-.012-.009-3.786-3.786.011.009.01.008.01.009.01.007.01.007.008.007.008.006.007.006.007.006.007.005.006.004.006.005.005.004.004.003.005.003.003.003.004.002.003.002.002.002h.003l.001.002h.004v-.002l-.001-.001-.001-.002-.001-.002-.002-.002z"/><path id="_216117704" class="fil1" d="M4.083 4.044 7.869 7.83l-.003-.002-.004-.003-.003-.003-.004-.003-.004-.003-.004-.003-.003-.003-.004-.003-.004-.004-.004-.003-.004-.003-.005-.003-.004-.003-.004-.003-.004-.003-.004-.004-3.786-3.786.004.003.004.003.004.004.004.003.004.003.004.003.004.003.004.003.004.003.004.004.004.003.004.003.003.002.004.003.004.003z"/><path id="_216117728" class="fil1" d="M3.985 3.967 7.77 7.753h-.002l-.002-.002-.001-.001-.002-.002h-.002l-.001-.002-.002-.001-.001-.001L3.97 3.957l.002.002h.002l.001.002.002.001.001.001.002.002h.002z"/><path id="_216117536" class="fil1" d="m3.971 3.957 3.787 3.787-.004-.003-.004-.003-.004-.002-.004-.002-.004-.002-.004-.002-.005-.002-.004-.001-.004-.002h-.005l-.004-.002h-.005l-.004-.001h-.005l-.004-.001h-.005L3.903 3.935H3.917l.004.001h.005l.004.002.005.001.004.001.004.002.004.002.005.001.004.002.004.003.004.002.004.003z"/><path id="_216117416" class="fil1" d="m4.02 3.995 3.787 3.786-.002.007-.001.006-.001.005-.001.004-.001.002-.001.002h-.002L4.01 4.02h.002l.002-.001v-.003l.002-.003v-.005l.002-.006z"/><path id="_216117248" class="fil1" d="M3.903 3.935 7.689 7.72l-.376.002-3.786-3.786z"/><path id="_216117560" class="fil1" d="m2.877 3.351 3.786 3.787v.013L2.875 3.364z"/><path id="_216117896" class="fil1" d="m2.55 3.318 3.785 3.787-.006.01-.007.009-.006.01-.006.009-.006.01-.006.009-.006.008-.005.009-.004.007-.004.007-.004.006-.003.006-.003.004-.002.003v.002h-.001L2.479 3.43v-.001l.002-.002.002-.003.002-.005.004-.005.003-.006.004-.007.005-.008.005-.008.006-.009.005-.009.006-.01.007-.009.006-.01.007-.01z"/><path id="_216117320" class="fil1" d="m3.552 4.94 3.786 3.787.014.038-3.786-3.786z"/><path id="_216117272" class="fil1" d="m3.566 4.979 3.786 3.786.003.005.002.006.003.005.004.005.004.004.004.004-3.786-3.786-.004-.004-.004-.005-.004-.004-.003-.006-.003-.005z"/><path id="_216118160" class="fil1" d="M2.605 3.42 6.39 7.204h-.003l-.003.002-.004.002-.003.003-.004.004-.004.005-.005.006-.004.006-.005.007-.004.007-.005.008-.005.009-.005.008-.004.01-.005.008-.005.01-.004.009-.005.009-.004.009-.004.008-.004.009-.004.008-.003.008-.004.007-.003.007-.002.006-.003.005-.002.004-.001.004-.001.003v.001l-.001.001-3.786-3.786v-.003l.002-.002.001-.004.002-.004.002-.006.003-.006.003-.006.003-.007.004-.008.004-.008.003-.009.005-.009.004-.009.004-.009.005-.009.005-.01.004-.008.005-.009.005-.009.005-.008.004-.008.005-.007.004-.007.005-.007.004-.005.004-.005.004-.004.004-.004.004-.002h.003z"/><path id="_216118544" class="fil1" d="m2.708 3.421 3.786 3.786-.003.001-.004.002-.004.003-.005.003-.004.005-.005.006-.006.007-.005.007-.006.008-.005.008-.006.009-.006.01-.006.009-.006.01-.006.01-.005.01-.006.01-.006.01-.005.01-.005.01-.005.009-.005.009-.004.008-.004.008-.004.008-.004.006-.002.006-.003.005-.002.004-.001.003-.001.002-3.787-3.786.001-.003.002-.002.002-.004.002-.005.003-.006.004-.007.003-.007.004-.008.005-.008.004-.01.005-.009.006-.01.005-.01.006-.01.005-.01.006-.01.006-.01.006-.01.006-.009.006-.01.005-.008.006-.009.006-.007.005-.008.005-.006.005-.006.005-.005.005-.004.004-.003.004-.001z"/><path id="_216118640" class="fil1" d="m2.876 3.364 3.786 3.787-.01.005-.01.007-.01.007-.01.008-.01.008-.01.01-.01.009-.01.01-.01.01-.01.01-.008.011-.009.011-.009.012-.008.01-.008.012-.008.01-.007.012-.007.01-.007.01-.006.01-.006.01-.005.009-.005.009-.005.007-.004.008-.004.006-.003.006-.002.004-.002.004-.002.003v.002h-.001L2.66 3.625v-.002l.002-.003.002-.004.003-.005.003-.005.004-.007.004-.007.004-.008.006-.008.005-.01.006-.009.006-.01.007-.01.007-.01.007-.012.008-.01.008-.012.008-.01.009-.012.009-.01.009-.012.009-.01.01-.01.009-.01.01-.01.01-.01.01-.008.01-.007.01-.008.01-.006z"/><path id="_216118352" class="fil1" d="m3.802 5.21 3.786 3.787.003.002.001.002v.002h-.001l-.002-.001L7.585 9l-.004-.002-3.786-3.786.004.002.003.002h.004l-.002-.003z"/><path id="_216118592" class="fil1" d="M3.795 5.212 7.58 8.998l-.005.001-.004.002-.003.001-.003.003-.002.002-.002.002-.002.003v.003l-.002.003v.017l.002.003v.003L3.774 5.255v-.003l-.001-.003-.001-.004V5.23l.002-.003.001-.003.002-.002.003-.003.003-.002.003-.002.004-.001z"/><path id="_216118616" class="fil1" d="M3.774 5.255 7.56 9.041l.002.003.004.004.005.005.004.006.003.004v.003h-.002l-.007-.003-3.786-3.787.007.004h.003l-.001-.003-.003-.005-.005-.005-.004-.005-.004-.005z"/><path id="_216118520" class="fil1" d="M3.783 5.276 7.57 9.063 3.783 5.275z"/><path id="_216118328" class="fil1" d="M3.783 5.276 7.57 9.062h-.002l-.002-.002-.003-.002-.003-.002-.003-.002-.003-.002-.004-.002-.003-.003-.004-.003-.005-.003-.004-.003-.005-.003-.005-.004-.005-.004-.006-.004-.006-.004-.006-.004-.006-.005-.007-.004L7.48 9l-.007-.005-.007-.006-.008-.005-.008-.006-.008-.006-.008-.006-.01-.006-.008-.006-.01-.007-.01-.007-.009-.007-.01-.007L3.59 5.14l.01.008.01.007.01.007.009.006.009.007.008.006.009.006.008.006.008.006.008.005.007.005.007.006.007.004.007.005.006.005.006.004.006.004.005.004.006.004.005.003.004.004.005.003.004.003.004.003.004.002.004.003.003.002.003.002.003.002.003.001.002.002z"/><path id="_216118664" class="fil1" d="m3.59 5.14 3.787 3.787-.066-.042-3.786-3.786z"/><path id="_216118688" class="fil1" d="M3.525 5.099 7.31 8.885H7.31l-.002-.001L3.52 5.096h.001l.001.001z"/><path id="_216119120" class="fil1" d="m3.485 3.937 3.787 3.786-.24.002-3.786-3.787z"/><path id="_216119072" class="fil1" d="m3.246 3.938 3.787 3.787-.005-.001-.004-.002-3.786-3.786.004.002z"/><path id="_216119432" class="fil1" d="M4.276 4.052 8.062 7.84l.002.002h-.001l-.004-.001-.007-.003-.01-.005-3.786-3.786.01.004.007.004h.004z"/><path id="_216118904" class="fil1" d="m4.256 4.046 3.786 3.786-.009.001-.006.003-.005.003-.004.005-.002.005-.002.005V7.863L4.227 4.077v-.01l.002-.005.003-.005.003-.004.005-.004.007-.002z"/><path id="_216119168" class="fil1" d="M4.235 4.084 8.02 7.87l.002.002v.001H8.02l-.003-.002-.004-.002-3.786-3.786.004.002.003.002h.002v-.001z"/><path id="_216119288" class="fil1" d="m4.228 4.083 3.786 3.786h-.007l-.003.002-.002.002L8 7.877 8 7.881l-.001.005-.001.005v.005l-.001.005v.017L4.21 4.133V4.104l.001-.005.001-.004.002-.004.002-.004.002-.003.003-.001h.003z"/><path id="_216118832" class="fil1" d="m3.518 3.976 3.786 3.786.034.965-3.786-3.786z"/><path id="_216118784" class="fil1" d="M3.813 5.176 7.6 8.963h-.016l-.005.001-.003.002-.002.003V8.978l.002.004.002.003.003.003.002.003.002.002.002.002.001.001-3.786-3.785-.001-.002-.002-.002-.002-.002-.003-.003-.002-.003-.002-.004-.002-.003V5.183l.002-.003.003-.002.005-.001h.007z"/><path id="_216119360" class="fil1" d="m3.83 5.18 3.785 3.786.002.002v.001h-.004l-.002-.001-.004-.002-.003-.001-.004-.002-3.787-3.787.005.002.003.002.003.001.003.001.002.001h.002V5.18z"/><path id="_216119480" class="fil1" d="M3.802 5.21 7.59 8.998 3.801 5.21z"/><path id="_216118928" class="fil1" d="m3.527 3.937 3.786 3.786-.002.009-.002.008-.001.006-.001.006-.001.004-.001.004v.002L3.517 3.976v-.003l.001-.003.001-.004.002-.006.001-.007.002-.007z"/><path id="_216119768" class="fil1" d="M4.233 2.952 8.02 6.738l-.004.004-.003.003-.002.004-.003.003-.003.003-.003.003L8 6.761l-.003.003-.003.003-.003.003-.002.003-.003.003-.004.003-.003.003-.004.003-.003.003-.008.006-.007.005-.007.005-.008.004-.007.005-.007.004-.007.003-.007.004-.007.003-.007.003-.008.003-.007.003-.007.003-.007.003-.007.002-.007.003-.007.002-.007.002-.007.003-.006.002-.007.003-.007.002-.007.003-.007.003-.007.003-.007.003-.007.003-.007.004-.007.004-.007.003-.006.005-.007.004-.008.006-.008.006-.008.007-.007.007-.008.007-.007.008-.008.007-.007.008-.007.008-.007.008-.007.008-.006.009-.007.007L7.645 7l-.006.008-.007.007-.007.008-.007.007-.007.008-.007.007-.008.007-.007.006-.008.007-.008.007-.008.006-.008.006-.008.007-.008.006-.009.005-.008.006-.009.006-.009.005-.007.004-.006.005-.007.003-.007.004-.006.004-.006.003-.007.003-.006.004-.007.003-.006.003-.007.003-.007.003-.007.003-.007.003-.007.003-.008.003-3.786-3.787.007-.002.008-.003.007-.003.007-.003.007-.003.006-.003.007-.003.006-.004.007-.003.006-.003.007-.004.006-.003.007-.004.006-.004.007-.004.007-.004.009-.005.009-.006.008-.006.008-.006.009-.006.008-.006.008-.006.008-.007.008-.006.008-.007.007-.007.008-.007.007-.007.007-.007.007-.007.007-.008.006-.007.007-.008.007-.008.006-.008.007-.008.007-.008.007-.008.007-.008.007-.008.007-.008.008-.007.007-.008.008-.007.008-.006.007-.006.008-.006.007-.005.007-.004.007-.004.007-.003.007-.004.007-.003.007-.003.007-.003.006-.003.007-.003.007-.002.007-.003.007-.002.007-.003.007-.002.007-.003.007-.002.007-.003.007-.002.007-.003.007-.003.007-.003.007-.003.007-.003.008-.004.007-.004.007-.004.007-.004.007-.005.008-.004.007-.006.007-.005.004-.003.004-.003.003-.003.003-.003.003-.003.003-.003.003-.003.003-.003.002-.003.003-.003.003-.003.003-.003.002-.004.003-.003.003-.004z"/><path id="_216119696" class="fil1" d="m4.046 2.536 3.787 3.787-.016-.017L7.8 6.29l-.018-.017-.018-.017-.02-.017-.02-.017-.02-.017-.02-.018-.021-.017-.021-.017-.021-.018-.021-.017-.021-.017-.02-.018-.02-.017-.019-.016-.018-.017-3.786-3.786.018.016.019.017.02.017.02.017.02.018.021.017.021.017.021.018.021.017.021.017.02.018.02.017.02.017.018.017.018.017.017.016z"/><path id="_216120128" class="fil1" d="M3.583 2.011 7.37 5.798l.001.002v.002l.001.002v.002l.001.002.001.003v.002l.001.002-3.786-3.786v-.002l-.001-.003v-.002l-.002-.002v-.004l-.001-.003z"/><path id="_216119552" class="fil1" d="m4.347 2.682 3.786 3.786v.033l-.001.007v.006l-.002.007v.007l-.002.007-.002.007-.001.007-.002.007-.002.007-.002.007-.003.007-.002.007-.003.007-.003.008-.003.007-.004.007-.003.008-.004.007-.004.008-.004.007-.004.008-.005.008-.005.007-.005.008-.005.008-.005.008-.006.008-3.786-3.786.005-.008.006-.008.005-.008.005-.008.005-.008.004-.007.005-.008.004-.007.004-.008.004-.007.003-.008.004-.007.003-.008.003-.007.002-.007.003-.007.002-.007.003-.008.002-.007.001-.007.002-.007.002-.007v-.006l.002-.007v-.007l.002-.007V2.708l.001-.007V2.688z"/><path id="_216120056" class="fil1" d="m3.786 1.616 3.786 3.786h-.003L7.566 5.4h-.003l-.003-.002h-.003l-.004-.001-.003-.001h-.003l-.004-.001H7.54l-.004-.001h-.019L3.73 1.606h.02l.003.001h.004l.003.001h.004l.003.001.003.001.004.001.003.001.003.001.003.001z"/><path id="_216120176" class="fil1" d="M3.845 1.574 7.631 5.36l-.004-.002-.004-.002-.004-.001-.004-.002-.004-.002-.004-.001-.004-.002H7.6l-.004-.002-.003-.001H7.59l-.002-.002H7.58L3.793 1.555H3.8l.002.001h.003l.003.002h.003l.003.002.004.001.004.002.003.001.004.002.004.001.005.002.004.002z"/><path id="_216120224" class="fil1" d="m4.088 1.63 3.786 3.786.006.007.005.007.005.006L4.103 1.65 4.1 1.643l-.005-.006z"/><path id="_216119744" class="fil1" d="m4.296 1.807 3.786 3.786.005.006.004.005.005.006.003.006.004.006.003.006.003.006.003.006.002.006.002.007.001.006.001.007.001.006V5.708l-.001.008v.008l-.002.008v.008l-.001.007-.001.008-.001.006-.001.007-.001.005v.005L4.323 1.992v-.005l.002-.006v-.006l.001-.007.001-.007.001-.008.001-.008.001-.008V1.93l.001-.008v-.008l.001-.007V1.88l-.002-.007-.001-.007-.002-.006-.003-.006-.002-.007-.003-.006-.003-.006-.004-.006-.004-.005-.004-.006-.004-.006z"/><path id="_216120032" class="fil1" d="M4.324 1.992 8.11 5.778l-.001.009-3.787-3.786z"/><path id="_216120296" class="fil1" d="m4.167 1.917 3.786 3.786L7.95 5.7l-.004-.005-.005-.004-.004-.003-.005-.004-.005-.004-.004-.003-.006-.003-.005-.002-.005-.003-.005-.002-.006-.001-.006-.002h-.006L4.097 1.875h.006l.006.002.005.002.006.002.005.002.005.003.005.003.005.003.005.004.005.003.004.004.005.004.004.004z"/><path id="_216119648" class="fil1" d="m4.097 1.876 3.786 3.786h-.006l-.004-.001H7.87l-.004-.001-.004-.001h-.004l-.004-.001H7.85l-.005-.002h-.004l-.005-.001h-.005l-.004-.002h-.005l-.006-.001-.005-.001-.005-.001-.006-.001-.005-.001-.006-.001-.006-.001-.006-.001-.006-.001-.006-.001-.007-.002h-.006l-.007-.002-.007-.001-.007-.002h-.007l-.007-.002L3.93 1.847l.008.002.007.001.007.001.007.002h.006l.007.002.006.001.007.001.006.001.006.002h.006l.005.002h.006l.006.002h.005l.005.001.005.001.005.001h.005l.005.002h.005l.004.001h.004l.005.001.004.001h.004l.004.001h.003l.004.001h.003l.004.001z"/><path id="_216120488" class="fil1" d="m4.288 2.136 3.787 3.787-.004.01-.002.008-.002.004-.001.002-.002-.001-3.786-3.787.001.002.002-.002.001-.004.003-.008z"/><path id="_216120320" class="fil1" d="M4.322 2 8.11 5.788v.003l-.001.004v.004l-.002.004v.005l-.002.005v.006l-.002.005-.001.005-.001.005-.001.005-.002.005v.004l-.002.004v.006L4.307 2.07v-.002l.001-.003.001-.004.001-.004.001-.005.001-.005.002-.005v-.005l.002-.006.001-.005.001-.005.001-.005.001-.004v-.005l.001-.003z"/><path id="_216120512" class="fil1" d="m4.308 2.07 3.786 3.787-.02.066-3.786-3.787z"/><path id="_216120944" class="fil1" d="m3.93 1.847 3.787 3.787h-.012L7.7 5.632h-.006l-.006-.001h-.005l-.005-.002h-.006l-.005-.002-.005-.001-.006-.001-.005-.002-.005-.001-.005-.002-.005-.002-.005-.002-3.786-3.786.005.002.005.002.005.001.005.002.005.001.005.002h.006l.005.002h.005l.006.002h.005l.006.001h.005l.006.001h.006z"/><path id="_216120560" class="fil1" d="m3.845 1.831 3.786 3.786-.005-.002-.004-.002-.005-.002-.005-.003-.004-.002-.005-.003L7.6 5.6l-.005-.003-3.786-3.786.004.003.005.003.004.002.005.003.005.002.004.003.005.002z"/><path id="_637663480" class="fil1" d="M3.808 1.81c-.401.294.523.484.539.872a.367.367 0 0 1-.082.23l-.011.015a.382.382 0 0 1-.02.025c-.018.02-.028.033-.049.05-.078.061-.151.058-.225.108-.043.03-.08.08-.114.119a.583.583 0 0 1-.234.157c-.014.185-.052.39-.075.503l.473.002c.021 0 .041.007.059.018l.05.035.132.09c.034.024.035.026.005.012-.026 0-.03.02-.029.03.013.012.014.014 0 .007-.021-.008-.017.049-.017.05.022.028-.005.01-.127-.089a2.406 2.406 0 0 0-.062-.049c-.01.04-.004.037-.036-.028l-.014-.01a.113.113 0 0 0-.068-.022l-.376.002-.009.039.034.965.014.038a.08.08 0 0 0 .029.037l.062.042c.162.112.203.14.156.118-.051-.004-.01.035-.01.035h-.001c.008.007.005.008-.007 0-.026.006-.026.027-.02.044.001.003.033.036.008.021-.022-.013-.082-.057-.192-.136L3.525 5.1a.008.008 0 0 1-.007-.009c0-.008.019-.037.01-.088-.016-.08-.03-.146-.032-.23l-.01-.657-.034-.078a.045.045 0 0 1-.004-.018c0-.015.007-.03.02-.038a.599.599 0 0 0 .017-.044l-.239.001c-.012 0-.019-.016-.01-.024l.021-.02c.037-.035.057-.338.064-.469a.664.664 0 0 1-.214-.056c-.054.012-.092.014-.092.014l.02-.052-.018-.012-.14.032v.013c-.112.056-.217.261-.217.261-.02-.042.048-.204.048-.204-.034 0-.14.216-.14.216-.054-.083.037-.218.037-.218-.03-.006-.113.193-.113.193a.924.924 0 0 1 .057-.294c-.035.05-.07.11-.07.11.025-.18.126-.36.222-.495l.02-.026c.244-.333.618-.61 1.032-.33a.567.567 0 0 1 .119.103.164.164 0 0 0 .192.047c.185-.087-.158-.304-.348-.48a.47.47 0 0 1-.128-.218c-.035-.132-.012-.274.113-.35l.085-.054v-.009a.144.144 0 0 0-.056-.01s.06-.027.115-.032a.174.174 0 0 0-.052-.018c.05-.01.147-.02.19.018a.18.18 0 0 1 .12.076l.05.039c.095.073.169.118.18.19a.529.529 0 0 1-.009.113l-.002.009a.672.672 0 0 1-.014.07l-.02.065c-.01.033-.007.03-.017.005-.016-.046-.03-.087-.049-.132-.022-.053-.062-.124-.125-.133a3.937 3.937 0 0 1-.167-.029.239.239 0 0 1-.085-.016.198.198 0 0 1-.037-.02z"/></g></g><path d="M3.413 0a3.413 3.413 0 1 1 0 6.827 3.413 3.413 0 0 1 0-6.827z" style="fill:none"/><path class="fil3" d="M3.787 5.276s-.036-.062.02-.065c0 0-.048-.045.024-.033l-.176-.106-.031.046.104.103.06.055z"/><path class="fil4" d="M3.673 5.102c.186.146.188.154-.02.016.183.203.22.22-.06.022L3.525 5.1a.009.009 0 0 1-.006-.012.15.15 0 0 0 .008-.085l-.017-.09a.816.816 0 0 1-.014-.14l-.01-.657-.035-.078a.045.045 0 0 1 .016-.056c.108-.24.056-.577.056-.577s.097-.29.093-.086l-.001.04c-.017.279-.097.618-.097.618l.035.965.022.06.084.057c.25.17.215.148.013.044z"/><path class="fil3" d="m3.66 5.058-.02.004a.07.07 0 0 1-.077-.042l-.001-.004-.015-.055a.204.204 0 0 1-.006-.042l-.031-.75-.018-.095a.146.146 0 0 1 .015-.095l.002-.004a.107.107 0 0 0 .01-.032c.03-.168.055-.577.055-.577l.043-.048-.001.04c-.017.279-.097.618-.097.618l.035.965.014.037a.078.078 0 0 0 .029.038l.063.042z"/><path d="M4.288 2.16c-.036-.097-.07-.217-.135-.264l-.002-.001a.106.106 0 0 0-.046-.02 4.232 4.232 0 0 1-.169-.027.242.242 0 0 1-.086-.017.188.188 0 0 1-.037-.02c-.406.293.528.483.545.87a.365.365 0 0 1-.084.23.32.32 0 0 1-.01.015l-.001.001a.674.674 0 0 1-.054.062c-.069.062-.133.067-.198.096-.02.01-.04.02-.06.036a.372.372 0 0 0-.066.067.563.563 0 0 1-.12.116v.001a.56.56 0 0 1-.062.04.65.65 0 0 1-.322.083.634.634 0 0 1-.475-.202.135.135 0 0 0-.02.005c-.119.041-.25.232-.25.232-.015-.044.074-.196.074-.196-.035-.005-.167.196-.167.196-.045-.088.064-.211.064-.211-.03-.01-.138.177-.138.177.025-.182.127-.362.224-.496l.02-.026c.253-.341.643-.624 1.074-.309a.533.533 0 0 1 .09.082l.005.006a.165.165 0 0 0 .19.04c.187-.086-.16-.303-.353-.48-.151-.137-.223-.442-.015-.568l.087-.054-.001-.008a.151.151 0 0 0-.056-.01s.06-.027.116-.032a.18.18 0 0 0-.052-.018c.05-.01.148-.02.19.018.055.01.1.039.123.076l.05.039.127.471z" style="fill:#e1d1ca;fill-rule:nonzero"/><path class="fil6" d="m4.171 1.853-.02.042a.106.106 0 0 0-.046-.02 4.232 4.232 0 0 1-.169-.027.242.242 0 0 1-.086-.017.188.188 0 0 1-.037-.02.289.289 0 0 0-.091.094c.083-.19.078-.12.45-.052z"/><path d="M4.343 1.912c-.009.129-.042.217-.053.248h-.002c-.018-.049-.035-.103-.057-.151a.44.44 0 0 0-.015-.031.23.23 0 0 0-.063-.082.41.41 0 0 0-.062-.13.012.012 0 0 1 .009-.018h.005a.052.052 0 0 0 .041-.03l.015-.03c.092.071.153.11.174.165.007.017.01.036.008.059z" style="fill:#ef94b1;fill-rule:nonzero"/><path d="M4.23 2.009a.44.44 0 0 0-.014-.031.23.23 0 0 0-.063-.082.41.41 0 0 0-.062-.13.012.012 0 0 1 .009-.018h.005a.052.052 0 0 0 .032-.016c.11.08.216.248.137.246-.013 0-.017.023-.043.03z" style="fill:#e88dab;fill-rule:nonzero"/><path d="M4.106 1.693a.042.042 0 1 1-.084 0 .042.042 0 0 1 .084 0z" style="fill:#fbf3eb;fill-rule:nonzero"/><path class="fil10" d="M4.088 1.693a.024.024 0 1 1-.047 0 .024.024 0 0 1 .047 0z"/><path d="M4.088 1.693a.024.024 0 0 1-.029.023.024.024 0 0 0 0-.047h.005c.014 0 .024.01.024.024z" style="fill:#ad1457;fill-rule:nonzero"/><path d="M4.079 1.679c0 .002-.004.004-.009.004-.005 0-.009-.002-.009-.004 0-.003.004-.004.009-.004.005 0 .009.001.009.004z" style="fill:#fefefe;fill-rule:nonzero"/><path class="fil10" d="M4.343 1.912a.89.89 0 0 1-.009.08L4.333 2v.001c-.014.08-.035.135-.043.158h-.002c-.022-.06-.043-.128-.072-.182 0 0 .069.051.11-.089l.006-.023.001-.003.002-.01a.123.123 0 0 1 .007.027c.002.01.002.02.001.032z"/><path d="M4.274 2.912z" style="fill:#ef7e8d;fill-rule:nonzero"/><path d="M3.703 3.345a.419.419 0 0 1 0 0z" style="fill:#d96877;fill-rule:nonzero"/><path class="fil6" d="M4.243 2.952c-.269.257-.326-.05-.49-.03 0 0 .111.01.126.142l-.005.022A.318.318 0 0 1 3.7 3.3c-.45.212-.794-.075-.794-.075.113.13.292.202.475.202.09 0 .185-.02.27-.057a.584.584 0 0 0 .2-.142c.032-.036.062-.075.1-.108.087-.067.168-.052.258-.132l.034-.037z"/><path class="fil6" d="M4.358 2.682a.365.365 0 0 1-.084.23.32.32 0 0 1-.01.014l-.001.001a.674.674 0 0 1-.054.062c-.069.062-.133.067-.198.096l-.023-.044s.322-.056.37-.36zM4.089 2.521c-.346-.302-.466-.36-.504-.51a.46.46 0 0 0 .134.236c.192.176.54.393.352.48a.166.166 0 0 1-.194-.047.688.688 0 0 0-.367-.206c.015.005.26.134.345.234l.005.006c.013.016.02.024.024.026.02.018.04.032.062.038.217.063.306-.114.143-.257z"/><path class="fil15" d="M3.74 2.936c-.13.28-.329.273-.329.273l.02-.06c-.148.133-.408.118-.408.118l.037-.066-.172.017-.002.013c-.119.041-.25.232-.25.232-.015-.044.074-.196.074-.196-.035-.005-.167.196-.167.196-.045-.088.064-.211.064-.211-.03-.01-.138.177-.138.177.025-.182.127-.362.224-.496l.02-.026c.305.104.63.265 1.027.029z"/><path class="fil4" d="M4.219 4.132s-.004-.058.018-.049c0 0-.009-.045.04-.036l-.202-.118-.028.06.172.143z"/><path class="fil4" d="M4.096 3.923a.046.046 0 0 1-.087-.032h.008c.021 0 .042.006.06.018l.019.014z"/><path class="fil3" d="M4.113 3.971c.175.152.183.144-.004.038.123.138.193.204-.018.035a3.328 3.328 0 0 0-.064-.05c-.01.04-.003.038-.036-.027l-.013-.01a.115.115 0 0 0-.07-.022l-.663.003a.014.014 0 0 1-.01-.025l.02-.02c.047-.042.067-.497.068-.526h.08l-.094.508a.01.01 0 0 0 .01.013l.69.003h.008c.021 0 .042.006.06.018l.019.014.031.021.133.09c.066.045.012.013-.147-.063z"/><path class="fil4" d="m4.076 3.91-.058.005-.73-.01.093-.538h.021l-.093.508a.01.01 0 0 0 .01.013l.698.003c.021 0 .042.006.06.018z"/><path class="fil15" d="M3.682 2.966c-.095.294-.293.311-.293.311l.012-.061c-.13.15-.39.167-.39.167l.028-.07-.169.038v.013c-.112.055-.219.261-.219.261-.02-.042.05-.204.05-.204-.036 0-.143.216-.143.216-.054-.083.038-.218.038-.218-.03-.006-.115.193-.115.193.002-.184.082-.375.161-.52l.016-.028c.316.065.66.185 1.024-.098z"/></g></svg>