<svg xmlns="http://www.w3.org/2000/svg" xml:space="preserve" width="655.359" height="655.359" style="shape-rendering:geometricPrecision;text-rendering:geometricPrecision;image-rendering:optimizeQuality;fill-rule:evenodd;clip-rule:evenodd" viewBox="0 0 6.827 6.827"><defs><clipPath id="id0"><path d="M3.413 0a3.413 3.413 0 1 1 0 6.827 3.413 3.413 0 0 1 0-6.827z"/></clipPath><style>.fil1{fill:#388e3c}.fil8{fill:#804712}.fil3,.fil4,.fil6{fill:#804712;fill-rule:nonzero}.fil3,.fil6{fill:#e8b46a}.fil6{fill:#ffc675}</style></defs><g id="Layer_x0020_1"><path d="M3.413 0a3.413 3.413 0 1 1 0 6.827 3.413 3.413 0 0 1 0-6.827z" style="fill:#66bb6a"/><g style="clip-path:url(#id0)"><g id="_637655272"><path id="_2164719521" class="fil1" d="M2.435 2.255 6.22 6.041l-.002.005-.002.005-.003.004-.003.005-.003.004-.003.003-.004.004-.004.004-.005.003-.004.003-.005.003-.005.003-.005.002-.005.003-.006.002-.005.002L2.37 2.31l.006-.002.005-.003.006-.002.005-.003.005-.002.004-.003.005-.003.004-.004.004-.003.004-.004.004-.004.003-.004.003-.004.002-.004.003-.005z"/><path id="_216471880" class="fil1" d="m3.512 4.367 3.786 3.786v.004l.001.003v.008l.001.005V8.24l-.001.008v.015l-.001.008v.009l-.001.008v.009l-.001.008-.001.009v.009l-.001.009v.009l-.002.01v.018l-.002.01-3.786-3.787v-.01l.002-.009v-.019l.001-.008.001-.01v-.008l.001-.01V4.51l.001-.008v-.009l.001-.008v-.008l.001-.008v-.007l.001-.008v-.021l.001-.007v-.048l-.001-.004V4.37z"/><path id="_216475024" class="fil1" d="m3.508 4.17 3.786 3.786v.035l-.001.007V8.108l.001.006v.011l.001.005v.005l.001.005.001.004v.005l.001.004-3.786-3.786v-.004l-.001-.005v-.005l-.002-.004v-.016l-.001-.006v-.011l-.001-.006V4.177z"/><path id="_216474856" class="fil1" d="M6.826 8.863zM3.04 5.077z"/><path id="_216475312" class="fil1" d="M6.863 8.757zM3.077 4.971z"/><path id="_216475216" class="fil1" d="m2.703 1.608 3.786 3.786v.069l-.001.005V5.477l-.001.005V5.49l-.001.004v.004l-.001.004v.005l-.001.004v.008l-.001.004v.004l-.001.003v.004l-.001.004-3.786-3.786V1.74l.001-.004v-.003l.001-.004v-.005l.001-.004v-.004l.001-.004V1.704L2.7 1.7v-.005l.001-.004V1.682l.001-.005V1.658l.001-.005v-.04z"/><path id="_216475120" class="fil1" d="m4.509 3.427 3.786 3.786.005.006.004.005.004.006.004.005.004.005.003.005.004.005.003.005.003.004.003.005.002.004.003.004.002.004.002.004.001.004.001.003-3.786-3.786-.001-.004-.002-.003-.002-.004-.002-.004-.002-.004-.003-.004-.002-.005-.003-.004-.003-.005-.004-.005-.003-.005-.004-.005-.004-.006-.004-.005-.005-.005z"/><path id="_216475432" class="fil1" d="m4.557 3.5 3.786 3.787.002.004.001.003.001.004.001.004.002.003v.004l.002.004v.003L4.567 3.53v-.004l-.002-.003v-.004l-.002-.004-.001-.003-.001-.004-.001-.004z"/><path id="_216475144" class="fil1" d="M2.695 1.753 6.48 5.539v.004l-.001.003v.004l-.001.003v.007l-.001.003v.006l-.001.002v.01l-.001.002v.002L2.69 1.798V1.785l.001-.003v-.005l.001-.004v-.006l.001-.003V1.76l.001-.004z"/><path id="_216475864" class="fil1" d="m2.845 1.892 3.787 3.786.006.007.006.007.005.007.006.007.006.007.006.008.006.007.006.008.006.008.006.008.006.008.006.008.006.008.006.008.005.008.006.009L2.94 2.015l-.006-.009-.006-.008-.006-.009-.006-.008-.005-.008-.006-.008-.006-.008-.006-.007-.006-.008-.006-.008-.006-.007-.006-.007-.006-.007-.006-.008-.006-.007z"/><path id="_216475912" class="fil1" d="m3.11 2.28 3.786 3.787.003.005.003.005.003.005.003.005.003.005.003.005.003.005.003.005.004.006.003.005.003.005.003.005.003.005.003.005.003.005.004.006.003.005.003.005.003.005.003.005.004.005.003.006.003.005.003.005.003.005.004.005.003.006.003.005.003.005.004.005.003.005.003.005-3.786-3.786-.003-.005-.004-.005-.003-.005-.003-.006-.003-.005-.004-.005-.003-.005-.003-.005-.003-.005-.003-.006-.004-.005-.003-.005-.003-.005-.003-.005-.003-.005-.004-.006-.003-.005-.003-.005-.003-.005-.003-.005-.003-.005-.004-.006-.003-.005-.003-.005-.003-.005-.003-.005-.003-.005-.003-.005-.003-.005-.004-.005-.003-.005z"/><path id="_216475744" class="fil1" d="m3.21 2.445 3.787 3.786.004.006.003.005.004.006.003.005.004.006.003.005.004.006.003.005.004.006.003.005.004.006.004.005.003.006.004.005.003.006.004.005-3.786-3.786-.004-.006-.004-.005-.003-.006-.004-.005-.003-.006-.004-.005-.003-.005-.004-.006-.003-.005-.004-.006-.004-.005-.003-.006-.004-.005-.003-.006-.004-.005z"/><path id="_216476104" class="fil1" d="m3.268 2.533 3.786 3.786.003.004.002.004.003.004.002.004.003.003.003.004.002.004.003.004.002.004.003.004.003.003.002.004.003.004.003.004.002.004.003.004L3.31 2.594l-.003-.003-.003-.004-.002-.004-.003-.004-.003-.004-.002-.004-.003-.003-.002-.004-.003-.004-.003-.004-.002-.004-.003-.004-.003-.004-.002-.003-.003-.004z"/><path id="_216475600" class="fil1" d="m3.31 2.594 3.786 3.787.004.005.004.006.004.006.004.006.004.005.004.006.004.006.005.005.004.006.004.006.004.005.004.006.004.006.005.005.004.006.004.005-3.786-3.786-.004-.006-.005-.005-.004-.006-.004-.005-.004-.006-.004-.006-.005-.005-.004-.006-.004-.006-.004-.005-.004-.006-.004-.006-.004-.005-.004-.006-.004-.006z"/><path id="_216476128" class="fil1" d="m2.84 1.887 3.787 3.786.002.002.003.003-3.787-3.786-.002-.003z"/><path id="_216475672" class="fil1" d="M2.94 2.015 6.726 5.8l.004.006.004.005.004.006.004.006.004.006.004.006.004.005.004.006.004.006.004.006.004.006.004.006.004.006.004.006.003.006.004.006L3.003 2.11 3 2.103l-.004-.006-.004-.006-.004-.006-.003-.006-.004-.006-.004-.006-.004-.006-.004-.006-.004-.006-.004-.006-.004-.005-.004-.006-.004-.006-.004-.006z"/><path id="_216476176" class="fil1" d="M3.376 2.685 7.162 6.47l.005.006.005.007.005.006.004.006.005.006.005.006.005.006.005.006.005.006.005.006.005.006.005.006.005.006.005.006.005.005.005.006-3.786-3.786-.005-.006-.005-.006-.005-.005-.005-.006-.005-.006-.005-.006-.005-.006-.005-.006-.005-.006-.005-.006-.005-.006-.005-.006-.005-.007-.005-.006-.004-.006z"/><path id="_216476272" class="fil1" d="m4.403 3.852 3.786 3.786v.007l.001.004v.003l.001.003v.007l.001.003-3.786-3.786v-.007l-.001-.003v-.003l-.001-.004v-.006z"/><path id="_216475576" class="fil1" d="m2.666 2.158 3.787 3.786-.002.001-.002.001-.001.001h-.002v.001l-.002.001h-.001L2.656 2.165l.002-.001.002-.002h.003v-.002h.002z"/><path id="_216476056" class="fil1" d="M2.656 2.164 6.443 5.95l-.006.003-.006.003-.006.002-.006.003-.006.003-.006.003-.006.003-.006.002-.007.003-.006.002-.006.003-.006.003-.006.002-.006.002-.006.003-.006.002-.005.002-.006.002-.005.002L6.326 6 6.32 6l-.004.002-.004.001-.004.002h-.003l-.003.002H6.3l-.002.001-.002.001h-.002L2.508 2.226l.002-.001h.002l.002-.002h.002l.003-.001.004-.002.003-.001.004-.001.005-.002.004-.002.005-.002.005-.001.006-.002.005-.003.006-.002.006-.002.005-.002.006-.003.007-.002.006-.003.006-.002.006-.003.007-.003.006-.002.006-.003.006-.003.006-.003.006-.003.006-.003z"/><path id="_216476512" class="fil1" d="m4.487 4.118 3.786 3.787.002.002.002.003.002.003.002.003.002.003.002.002.002.003.002.003L4.502 4.14l-.001-.003-.002-.003-.002-.003-.002-.003-.002-.002-.002-.003-.002-.003z"/><path id="_216476872" class="fil1" d="M2.508 2.225 6.294 6.01l-.005.001-3.787-3.786z"/><path id="_216476896" class="fil1" d="m2.37 2.31 3.787 3.786-.004.001H6.15l-.003.002h-.006L6.14 6.1h-.003l-.003.001H6.124l-.003.001H6.11L2.323 2.316H2.343l.003-.001h.006l.003-.001h.003l.003-.002h.003l.003-.001z"/><path id="_216476608" class="fil1" d="M2.323 2.316 6.11 6.102H6.09L6.088 6.1h-.003L2.299 2.315H2.32z"/><path id="_216476848" class="fil1" d="M2.299 2.315 6.085 6.1h-.006l-.002.001h-.002l-.003.001-.002.001h-.002L2.282 2.319h.004l.002-.002h.005l.002-.001h.002z"/><path id="_216476680" class="fil1" d="m2.282 2.318 3.786 3.787H6.059L2.271 2.32h.008z"/><path id="_216476440" class="fil1" d="m2.272 2.32 3.786 3.786L6.04 6.1 2.253 2.315z"/><path id="_216476776" class="fil1" d="m3.957 3.851 3.786 3.787-.014.008-.014.007-.014.007-.014.006-.015.005-.015.005-.015.004-.015.003-.015.003-.016.002-.015.002-.015.001-.015.001H7.493l-.014-.002h-.014l-.013-.002-.013-.002-.013-.002-.012-.002-.011-.002-.011-.002-.01-.002-.01-.002-.01-.002-.008-.002-.008-.002-.007-.002-.006-.002-3.786-3.786.006.002.007.001.008.002.008.002.01.003.01.002.01.002.01.002.012.002.012.002.013.002.012.002.014.001.013.001.014.001h.015l.014.001h.03l.015-.001.015-.001.015-.002.015-.002.016-.003.015-.003.015-.004.015-.005.014-.005.015-.006.014-.007.014-.007z"/><path id="_216476992" class="fil1" d="m3.547 3.878 3.786 3.786-.002.002-.003.001-.003.002-.003.001-.003.001-.003.002-.003.001-.003.001-.003.002h-.003l-.003.002-.003.001-.002.001-.003.001-.003.001-.002.001L3.5 3.898h.003l.003-.002h.002l.003-.002.003-.001.003-.001.003-.002h.003l.003-.002.003-.002h.003l.003-.002.003-.002.002-.001.003-.002z"/><path id="_216476392" class="fil1" d="m3.501 3.898 3.787 3.786-.001.005v.004l-.001.005v.004l-.001.005v.005l-.001.005v.031l.001.004v.003L3.5 3.969l-.001-.003v-.004l-.001-.004v-.037l.001-.005v-.005l.001-.004v-.005z"/><path id="_216477640" class="fil1" d="m4.348 4.507 3.786 3.786V8.3l-.001.005-.001.004v.006l-.002.006v.006l-.002.007-.001.007-.001.008-.002.008-.001.007-.001.009-.002.008-.001.008-.002.009-.001.008-.001.009-.002.008-.001.008-.002.008v.008l-.002.007-.001.008-.001.007-.002.006v.006l-.002.006v.005l-.001.004V8.5l-.001.004-3.787-3.787.001-.003V4.71l.001-.004.001-.006.001-.005.001-.006.001-.007.001-.007.002-.007v-.007l.002-.008.002-.008v-.008l.002-.009.002-.008.001-.009.002-.008.001-.008.001-.009.002-.008.001-.008.001-.007.002-.008v-.007l.002-.007v-.006l.002-.006v-.006l.001-.005.001-.004V4.51z"/><path id="_216477736" class="fil1" d="m3.5 3.969 3.786 3.786-3.787-3.786z"/><path id="_216477184" class="fil1" d="m3.5 3.969 3.786 3.786v.004l.002.004v.004l.002.005v.004l.001.005v.005l.001.006v.005l.001.006v.005l.001.006V7.833l.001.007V7.948l-.001.008L3.508 4.17v-.061l.001-.007V4.034l-.001-.006v-.012l-.001-.005v-.006L3.504 4v-.01l-.002-.005v-.004l-.001-.004-.002-.004z"/><path id="_216477208" class="fil1" d="m4.298 4.83 3.786 3.786v.005l-.001.005v.004l-.001.005v.004l-.001.004v.005l-.001.004-.001.004v.005l-.001.004-.001.004-.001.005v.004l-.002.005v.005l-.002.005-.001.006-.001.005-.002.006-.001.006-.002.006-.002.007-.002.007-.002.008-.002.007-.002.009-.002.008-.003.01-.003.01-.003.01-.003.01-3.786-3.786.003-.011.003-.01.003-.01.002-.009.003-.009.002-.008.002-.008.002-.007.002-.007.002-.007.001-.006.002-.006.001-.006.002-.006v-.005l.002-.005v-.005l.002-.005v-.004l.002-.005v-.004l.001-.005V4.87l.001-.004.001-.005v-.004l.001-.004v-.005l.001-.004v-.005l.001-.004z"/><path id="_216477088" class="fil1" d="m4.54 5.116 3.787 3.786.002.003v.002l.002.003.001.002.001.002.001.003v.002l.001.003L4.55 5.135v-.002l-.001-.002-.001-.003-.001-.002-.001-.003-.001-.002-.002-.002z"/><path id="_216477664" class="fil1" d="M7.923 8.709zM4.137 4.922z"/><path id="_216477400" class="fil1" d="m4.353 4.45 3.786 3.787v.008l.001.002v.003L4.354 4.464v-.01l-.001-.002z"/><path id="_216477328" class="fil1" d="M4.354 4.464 8.14 8.25v.008l-.001.003v.005l-.001.003v.002l-.001.003v.006l-.001.002v.006l-.001.002v.003L4.347 4.507v-.006L4.35 4.5v-.003l.001-.003v-.005l.001-.003V4.48l.001-.003v-.003l.001-.002v-.006z"/><path id="_216477304" class="fil1" d="m4.56 4.795 3.786 3.787L4.56 4.796z"/><path id="_216477376" class="fil1" d="M4.313 4.717 8.1 8.504l-.002.01-.001.009-.002.009-.001.008-.001.008-.001.008-.001.007-.001.007-.001.007v.006l-.002.006v.006l-.001.006v.005l-.001.005v.005L4.297 4.83v-.005L4.3 4.82v-.006L4.3 4.81l.001-.006v-.006l.002-.006v-.007l.001-.007.001-.007.002-.008v-.008l.002-.009.001-.008.002-.01z"/><path id="_216477520" class="fil1" d="M4.554 5.077 8.34 8.863l-.002.002-.001.003-.002.002-.001.002-.001.002-.001.001-.001.002-3.787-3.785V5.09l.001-.001.001-.002.002-.002.001-.001.002-.003.001-.002z"/><path id="_216478408" class="fil1" d="m4.246 5.074 3.787 3.787v.002L4.247 5.077v-.002z"/><path id="_216478072" class="fil1" d="m4.255 5.022 3.786 3.786v.002l-.001.003v.003l-.001.004-.001.003v.004l-.001.003v.004l-.001.004v.003l-.001.004v.003l-.001.004v.003l-.001.003v.003L4.246 5.074v-.002l.001-.003v-.007l.001-.003v-.004l.001-.004v-.003l.001-.004.001-.004v-.003l.001-.004V5.03l.002-.003v-.003z"/><path id="_216478264" class="fil1" d="m3.512 4.367 3.786 3.786-3.786-3.786z"/><path id="_216478552" class="fil1" d="M4.124 4.036 7.91 7.822l-.003-.002-.003-.003-.002-.003-.004-.003-.003-.003-.003-.003-.003-.004-.004-.003-.003-.004-.004-.003-.004-.004-.004-.004-.003-.004-.004-.004-.004-.004-3.787-3.786.004.004.004.004.004.004.004.004.004.003.003.004.004.003.003.004.004.003.003.003.003.004.003.003.003.003.003.002z"/><path id="_216478288" class="fil1" d="M2.502 2.226 6.29 6.012l-.007.002-.007.001-.006.002-.006.002-.005.002-.005.002-.005.002-.004.002-.004.002-.004.002-.003.002-.003.002-.003.001-.002.002-.002.002-.002.001-3.786-3.786.001-.001.002-.002.003-.002.002-.002.003-.002.004-.002.003-.002.004-.002.005-.002.004-.002.005-.002.006-.001.006-.002.006-.002.006-.002z"/><path id="_216477856" class="fil1" d="M8.329 8.247zM4.543 4.46z"/><path id="_216477904" class="fil1" d="m4.56 4.796 3.786 3.786v.022L4.562 4.818v-.02z"/><path id="_216478120" class="fil1" d="m4.56 4.818 3.787 3.786V8.641l.001.004v.012l.001.003v.004l.001.004v.004l.001.004v.004l.001.004.001.004v.004l.002.003V8.7l.002.004v.004l.002.004.001.004.002.004.001.004.002.004.001.004L4.58 4.944l-.002-.004-.001-.004-.002-.003-.001-.004-.001-.004-.001-.004-.002-.004v-.004l-.002-.004v-.004l-.001-.004-.001-.003v-.004l-.001-.004v-.004l-.001-.004v-.004l-.001-.004v-.008l-.001-.004v-.016l-.001-.004v-.02z"/><path id="_216478168" class="fil1" d="m4.58 4.944 3.786 3.787.003.005.002.006.002.005v.006l.002.005v.005l.002.005v.024l-.002.004V8.8l-.002.004v.005l-.002.004-.002.003-.001.004-.002.004-.002.004-.002.003-.002.004-.002.003-.002.004-.002.003-.003.003-.002.003-.002.003-.002.003-.003.003-.002.003-3.786-3.786.002-.003.002-.003.003-.003.002-.003.002-.003.002-.003.002-.004.003-.003.002-.004.002-.003.002-.004.002-.003.001-.004.002-.004.001-.004.002-.004.001-.004.001-.004.001-.004v-.005l.001-.004V4.977l-.001-.005-.001-.005-.002-.006-.001-.005-.003-.006z"/><path id="_216478456" class="fil1" d="M4.544 5.092 8.33 8.878l-.001.003-.001.003v.004l-.001.003V8.902L4.541 5.116v-.018l.002-.003z"/><path id="_216479104" class="fil1" d="M7.892 8.812zM4.106 5.025z"/><path id="_216478600" class="fil1" d="m4.25 5.076 3.786 3.787.003.007.002.007V8.896l-.003.005-.002.005-.004.005-.005.004-.005.004-.006.004-.006.003-.007.003-.007.002-.008.002-.008.002-.008.002-.009.001-.008.001-.009.001h-.051l-.008-.001-.007-.001-.007-.001-.007-.002-.005-.001-.006-.002L4.07 5.146l.005.002.006.001.007.002h.006l.008.002h.008l.008.001H4.16l.008-.001.01-.001.008-.001.008-.002.008-.002.008-.002.007-.003.007-.003.006-.003.006-.003.005-.004.005-.004.003-.005.003-.005.002-.005.001-.006V5.09l-.002-.007z"/><path id="_216478672" class="fil1" d="M4.556 5.134 8.343 8.92l.004.011.003.01.001.01v.01l-.002.008-.003.007-.004.007-.005.007-.006.006-.007.006-.008.005-.008.004-.01.004-.01.004-.01.003-.011.002-.011.003-.012.001-.012.002H8.22l-.012.001h-.035l-.011-.001-.011-.002-.01-.001-.01-.002-.01-.002-.009-.002-.008-.003-.007-.003L4.31 5.23l.007.003.008.002.009.003.009.002.01.002.01.001.011.001.012.001h.011l.012.001h.024l.012-.002h.012l.011-.003.012-.002.01-.002.011-.003.01-.004.01-.004.008-.005.008-.005.007-.005.006-.006.005-.007.004-.007.003-.008.002-.008v-.01l-.002-.009-.002-.01z"/><path id="_216479320" class="fil1" d="M3.31 4.574 7.097 8.36V8.373l-.001.005V8.409L3.31 4.623V4.578z"/><path id="_216479248" class="fil1" d="M3.302 4.667 7.09 8.454l-.001.005-.001.006-.001.006-.001.005-.001.006v.006l-.002.006v.005l-.002.006v.006l-.002.006v.006l-.002.006-.001.006-.001.006-.001.006L3.287 4.76v-.006l.002-.005v-.006l.002-.006V4.73l.002-.006v-.006l.002-.006v-.006l.002-.005v-.006L3.3 4.69v-.006l.002-.005v-.006z"/><path id="_216479080" class="fil1" d="M3.492 4.876 7.28 8.663V8.7L3.494 4.914V4.88z"/><path id="_216478744" class="fil1" d="m3.287 4.76 3.786 3.787-.002.01-.002.01-.001.009-.002.008-.001.009-.002.008v.007l-.002.007-.001.007-.001.007v.006l-.002.006v.005l-.001.006-.001.005v.005L3.267 4.876V4.87l.001-.005.001-.006.001-.005v-.006l.002-.007v-.006l.002-.007v-.007l.002-.008.001-.008.002-.008.001-.009.002-.009.002-.01z"/><path id="_216479224" class="fil1" d="m3.268 4.876 3.786 3.786v.005l-.001.005v.005l-.001.004v.005l-.002.004v.005l-.001.004v.004l-.002.005v.004l-.001.005-.001.004-.001.005-.001.005-.002.005-.001.005-.001.006-.002.006-.002.005-.001.007-.002.006-.002.007-.003.007-.002.008-.002.008-.003.009-.003.008-.003.01-.003.01-.004.01-.004.011-3.786-3.786.004-.011.003-.01.004-.01.003-.01.003-.009.002-.008.003-.008.002-.008.002-.007.002-.007.002-.007.002-.006.002-.006.001-.005.002-.006.001-.005.001-.005.001-.005.001-.005.001-.004.001-.005.001-.004.001-.005v-.004l.001-.005.001-.004V4.9l.001-.005.001-.005v-.004l.001-.005z"/><path id="_216478960" class="fil1" d="m3.47 5.138 3.787 3.787-.002.003-.002.003-.002.002-.001.002-.002.001v.001l-.001.001v.002L3.46 5.154v-.002l.001-.001.001-.001.001-.002.002-.001.002-.002.002-.003z"/><path id="_216479176" class="fil1" d="M3.46 5.154 7.247 8.94v.01l.001.003v.01l.001.003L3.463 5.18v-.01l-.001-.003V5.16l-.001-.003z"/><path id="_216479296" class="fil1" d="m3.463 5.18 3.786 3.786v.035l-.001.005v.005l-.001.006-.001.005-.001.005-.001.005-.002.004v.005l-.002.004-.002.005-3.786-3.787.001-.004.002-.004.001-.005.001-.005.002-.005v-.005l.001-.005.001-.005V5.22l.001-.006v-.011l.001-.005v-.012z"/><path id="_216479968" class="fil1" d="m3.217 5.073 3.786 3.786v.003l-.001.003L7 8.868v.003l-.002.004v.003l-.001.004v.004l-.001.003v.004l-.001.004-.001.003v.007l-.001.003v.003L3.206 5.127v-.006l.001-.003v-.004l.001-.003v-.004l.001-.004.001-.004v-.003l.001-.004.001-.004v-.003l.002-.004v-.003l.001-.003z"/><path id="_216479920" class="fil1" d="m3.31 4.623 3.786 3.786v.003l-.001.003v.002l-.001.003v.006l-.001.002v.003l-.001.003v.003l-.001.003v.002l-.001.003v.003l-.001.003v.003L3.302 4.667v-.002l.001-.003v-.003l.001-.003v-.003l.001-.003v-.005l.001-.003V4.64l.001-.002v-.003l.001-.003v-.003l.001-.002z"/><path id="_216479512" class="fil1" d="M3.504 4.592 7.29 8.378v.02l-.002.01v.01l-.001.01v.01l-.001.01-.001.01v.01l-.001.01-.001.01v.01l-.001.01v.01l-.001.01v.009l-.001.009V8.564l-.001.01v.016l-.001.009v.063L3.493 4.876v-.098l.001-.01V4.76l.001-.01v-.01l.001-.009v-.01l.001-.01v-.009l.001-.01.001-.01v-.01l.001-.01.001-.01v-.01l.001-.01.001-.01v-.01l.002-.01z"/><path id="_216479992" class="fil1" d="M3.492 4.876 7.28 8.662 3.492 4.877z"/><path id="_216480040" class="fil1" d="M3.493 4.914 7.28 8.7V8.73l.001.005v.005l.001.005.001.005v.006l.002.006.001.007.002.007.001.008-3.786-3.787-.002-.007-.001-.007-.001-.007-.001-.006-.001-.006-.001-.006v-.005l-.001-.005V4.94l-.001-.004v-.017z"/><path id="_216479656" class="fil1" d="m3.503 4.997 3.786 3.787.001.005.001.005V8.8l.001.005V8.834l-.002.005v.004l-.002.005v.005l-.002.004-.001.005-.002.004-.001.004-.002.005-.001.004-.002.004-.002.004-.001.004-.002.004-.002.004-.002.004-.002.004-.002.004-.001.003-.002.004-.002.003-.002.004-3.786-3.787.002-.003.002-.003.001-.004.002-.004.002-.003.002-.004.002-.004.002-.004.001-.004.002-.004.002-.004.002-.004.001-.004.002-.005.001-.004.002-.005v-.004l.002-.005.001-.004.001-.005.001-.005v-.004l.001-.005v-.005l.001-.005v-.02l-.001-.005-.001-.005z"/><path id="_216480112" class="fil1" d="m3.207 5.127 3.786 3.786-3.786-3.785z"/><path id="_216479416" class="fil1" d="m3.207 5.128 3.787 3.786-3.787-3.786z"/><path id="_216479464" class="fil1" d="m3.207 5.128 3.787 3.786.003.008.002.009.001.007v.007L7 8.952l-.002.006-.004.006-.004.005-.005.005-.006.004-.007.004-.007.004-.008.003-.008.003-.009.003-.01.002-.009.002L6.91 9l-.01.001-.01.001h-.01l-.01.001H6.842l-.009-.001L6.824 9 6.815 9l-.008-.001-.007-.002-.007-.002-.006-.002-3.786-3.786.006.002.007.002.007.001.008.002h.008l.01.002H3.064l.01.001h.02l.01-.001h.01l.01-.002.01-.002.009-.002.009-.002.009-.002.008-.003.008-.003.007-.004.007-.004.006-.004.005-.005.004-.006.003-.005.003-.006.001-.007v-.015l-.003-.008z"/><path id="_216479488" class="fil1" d="M3.452 5.263 7.238 9.05l-.001.002-.002.001-.003.002-.003.001-.004.002-.005.001-.005.001-.006.002h-.006l-.007.002H7.19l-.007.001h-.016l-.008.001h-.041l-.008-.001-.008-.001-.008-.001-.007-.002h-.008l-.006-.002-.007-.002-.006-.002-.005-.002-.005-.003-.004-.002-.004-.003-3.786-3.786.003.002.005.003.005.002.005.003.006.001.006.002.007.002.007.001.008.001.007.001.008.001h.009l.008.001h.008l.008.001h.033l.007-.001h.008l.007-.002h.007l.006-.002h.006l.005-.002.005-.001.004-.002.003-.001.003-.002.002-.002z"/><path id="_216480232" class="fil1" d="m4.406 3.879 3.786 3.786.001.007.001.007.001.007.001.006.001.007.001.006.001.006.001.006.001.006.001.006.001.006.001.005.002.006v.005l.002.005.001.005.001.005.001.005.002.005.001.004.001.005.001.004.002.004.001.005.001.004.002.004v.003l.002.004.001.004.002.003.001.004.002.003-3.787-3.786-.001-.003-.001-.004-.002-.003-.001-.004-.001-.004-.002-.004-.001-.004-.001-.004-.002-.004v-.004l-.002-.005-.001-.004-.002-.005v-.004l-.002-.005-.001-.005-.001-.005-.002-.005V3.96l-.002-.006V3.95l-.002-.006-.001-.006-.001-.006-.001-.006-.001-.006-.001-.006-.001-.007-.001-.007-.001-.006-.001-.007z"/><path id="_216480136" class="fil1" d="M4.443 4.041 8.23 7.827l.002.007.003.006.003.006.002.006.003.005.003.005.003.005.002.005.003.004.003.005.003.004.002.004.003.004.003.004.003.004.002.004-3.786-3.787-.003-.003-.002-.004-.003-.004-.003-.004-.003-.004-.002-.005-.003-.004-.003-.004-.003-.005-.002-.005-.003-.005-.003-.006-.003-.005-.002-.006-.003-.006z"/><path id="_216480400" class="fil1" d="M4.502 4.14 8.29 7.928l.002.004.003.003.002.004.002.004.002.004.003.004.002.004.002.004.002.005.002.004.002.005.002.005.001.004.002.006.002.005.001.005.002.006.001.006.002.006v.006l.002.007.001.006.001.007.001.008.001.007v.008l.001.009v.008l.001.009v.019l.001.01-3.786-3.787v-.02l-.001-.008V4.286l-.002-.008V4.27l-.001-.007-.001-.008-.001-.007-.001-.007-.001-.006-.002-.006v-.007l-.002-.005-.002-.006-.001-.005-.002-.006-.002-.005-.002-.005-.001-.004-.002-.005-.002-.005-.002-.004-.003-.004-.002-.004-.002-.004-.002-.004-.002-.004-.003-.004-.002-.004z"/><path id="_216480760" class="fil1" d="m4.157 4.07 3.787 3.785-.005-.004-.005-.005-.005-.005-.004-.005-.005-.004-.005-.005-.005-.005-3.786-3.786.005.005.004.004.005.005.005.005.005.005.005.004z"/><path id="_216480640" class="fil1" d="m4.549 4.332 3.786 3.786V8.165l-.001.004v.02l-.001.004V8.206l-.001.004V8.22l-.001.004v.01l-.001.004v.005l-.001.005L4.543 4.46V4.446l.001-.004V4.433l.001-.005V4.42l.001-.004v-.012l.001-.005V4.38l.001-.004V4.336z"/><path id="_216480184" class="fil1" d="m4.543 4.46 3.786 3.787V8.288L4.544 4.502V4.463z"/><path id="_216480784" class="fil1" d="M4.543 4.502 8.33 8.288l.003.01-3.786-3.786z"/><path id="_216480832" class="fil1" d="M4.547 4.512 8.333 8.3H8.33L4.544 4.511z"/><path id="_216480328" class="fil1" d="M4.544 4.512 8.33 8.298v.012l.001.004v.017l.001.005V8.349l.001.005V8.363l.001.005v.015l.001.005v.01l.001.005v.01l.001.005v.01l.001.004v.01l.001.005-3.786-3.786v-.01l-.001-.005v-.01l-.001-.005v-.01l-.001-.005v-.01l-.001-.005V4.587l-.001-.005v-.01l-.001-.004v-.014l-.001-.005V4.536l-.001-.004v-.016z"/><path id="_216480520" class="fil1" d="m4.553 4.661 3.786 3.786v.016l.001.005v.011l.001.005v.01l.001.005V8.508l.001.005V8.526l.001.005v.016l.001.004v.017l.001.003v.011L4.56 4.795v-.027l-.001-.004v-.011l-.001-.004V4.736l-.001-.005V4.717l-.001-.005v-.01l-.001-.005v-.01l-.001-.005v-.01l-.001-.006z"/><path id="_216481408" class="fil1" d="m2.7 1.547 3.786 3.786.003.061-3.786-3.786z"/><path id="_216481288" class="fil1" d="m4.451 3.361 3.787 3.787.007.007.007.008.006.007.007.008.006.007.007.007.006.007.006.007.005.007L4.51 3.427l-.006-.007-.006-.007-.006-.007-.006-.007-.006-.008-.007-.007-.007-.008-.007-.007z"/><path id="_216481456" class="fil1" d="M3.003 2.109 6.79 5.895l.002.003.002.003.002.003.002.003.002.003.002.004.002.003.002.003.002.003.002.003.002.003.002.003.002.003.002.003.002.003.001.003-3.786-3.786-.002-.003-.002-.003-.002-.003-.002-.003-.002-.003-.001-.003-.002-.004-.002-.003-.002-.003-.002-.003-.002-.003-.002-.003-.002-.003-.002-.003-.002-.003z"/><path id="_216481360" class="fil1" d="M3.034 2.158 6.82 5.944l.004.006.004.006.004.006.003.006.004.007.004.006.004.006.004.007.004.006.004.006.004.007.004.006.004.007.004.007.004.006.004.007L3.097 2.26l-.004-.007-.005-.007-.004-.006-.004-.007-.004-.006-.004-.007-.004-.006-.003-.007-.004-.006-.004-.006-.004-.007-.004-.006-.004-.006-.003-.006-.004-.006z"/><path id="_216481336" class="fil1" d="m3.097 2.26 3.786 3.786.001.003.002.002.002.003.001.002.002.003.001.002.002.003.002.003L3.109 2.28l-.001-.002-.002-.003-.002-.002-.001-.003-.002-.003-.001-.002-.002-.003z"/><path id="_216481024" class="fil1" d="M4.494 3.551 8.28 7.338v.005l-.002.006v.006l-.002.006-.001.005-.001.006-.002.006-.001.005-.002.006-.002.006-.002.005-.001.006-.002.006-.002.005-.002.006-.003.006L4.47 3.642l.002-.005.002-.006.002-.006.002-.005.002-.006.002-.006.002-.005.001-.006.002-.006.001-.005.002-.006.001-.006.001-.005.001-.006.001-.006z"/><path id="_216481048" class="fil1" d="m4.566 3.53 3.787 3.786.001.007.002.007.001.006.002.007v.007l.002.007v.007l.002.007v.014l.001.007v.007l.001.007v.022L4.58 3.64v-.035l-.001-.008-.001-.007v-.007l-.002-.006V3.57l-.001-.007-.002-.007-.001-.007-.001-.007-.002-.006z"/><path id="_216481504" class="fil1" d="M4.47 3.642 8.254 7.43v.003l-.002.003-.001.003-.002.004-.001.003-.001.003-.002.003-.001.004-.001.003-.002.003-.001.004-.001.003-.002.003-.001.003-.002.004-.001.003-3.786-3.786.001-.003.002-.004v-.003l.002-.003.002-.004.001-.003.001-.003.002-.004.001-.003.001-.003.002-.003.001-.004.001-.003.002-.003v-.003z"/><path id="_216481072" class="fil1" d="m4.58 3.641 3.786 3.787v.022l-.001.004v.016l-.001.004v.007l-.001.004v.004L4.576 3.703v-.004l.001-.004v-.012l.001-.003v-.02l.001-.003v-.012z"/><path id="_216481144" class="fil1" d="M3.455 2.78 7.24 6.568l.005.006.006.006.005.006.006.006.005.006.006.006.005.006.006.006-3.786-3.786-.006-.006-.005-.006-.006-.006-.006-.006-.005-.006-.005-.006-.006-.006z"/><path id="_216481240" class="fil1" d="M4.448 3.695 8.234 7.48l-.002.005-.002.005-.002.004-.002.005-.002.005-.002.005-.002.005-.002.004-.002.005-.002.005-.001.005-.002.005-.002.005-.002.005-.001.004-.002.005-.001.005-.002.005-.001.005-.002.005v.005l-.002.005-.001.005-.001.005-.001.005-.001.005v.005l-.001.005v.005l-.001.005v.01L4.402 3.852v-.015l.001-.005.001-.005v-.005l.002-.005v-.005l.002-.005v-.005l.002-.005.001-.005.001-.005.002-.005.001-.005.002-.005.001-.005.002-.005.002-.005.002-.005.001-.004.002-.005.002-.005.002-.005.002-.005.002-.005.002-.004.002-.005.002-.005.002-.005.002-.004z"/><path id="_216481768" class="fil1" d="M4.528 3.964 8.314 7.75h-.003l-.002-.002L4.521 3.96l.001.001.002.001h.001z"/><path id="_216466216" class="fil1" d="M4.548 3.892 8.334 7.68v.004l-.002.004v.004l-.001.004v.004l-.001.004-.001.004v.004l-.002.004v.008l-.001.004-.001.003v.004l-.001.004-.001.004-3.786-3.786v-.004l.001-.004v-.004l.001-.004v-.004l.002-.004v-.007l.002-.004v-.004l.001-.004v-.004l.001-.004.001-.004v-.004z"/><path id="_216466264" class="fil1" d="m4.576 3.703 3.787 3.786v.006l-.001.006-.001.006v.006l-.001.006-.001.006v.006l-.002.006v.006l-.001.006-.001.006v.006l-.002.006v.006l-.002.006v.006l-.002.006v.006l-.002.006v.006l-.002.006v.006l-.002.006v.005l-.002.006v.006l-.002.006v.006l-.002.006-.001.005-.001.006-.001.006-3.786-3.787v-.005l.002-.006v-.006l.002-.006v-.005l.002-.006v-.006l.002-.006.001-.006.001-.006.001-.006.001-.005.001-.006.001-.006.001-.006.001-.006.001-.006.001-.006V3.78l.002-.006v-.006l.002-.006v-.006l.001-.006.001-.006v-.006l.001-.006.001-.006V3.72l.001-.006v-.006z"/><path id="_216465688" class="fil1" d="m4.537 3.956 3.786 3.786v.003l-.002.002-.002.002h-.001l-.002.001h-.002L4.528 3.964h.003l.002-.001.001-.001.001-.002.001-.001v-.002z"/><path id="_637654864" class="fil1" d="M4.543 4.46zm-.437.565zm.03-.103zm-1.096.155zm.037-.106zm1.09-1.838c.04.011.107.06.175.121a1.703 1.703 0 0 1 .167.173c.024.03.042.056.048.074l.01.03c.009.034.012.072.012.11a.73.73 0 0 1-.003.062c-.005.064-.017.129-.028.19a2.724 2.724 0 0 0-.011.063.009.009 0 1 1-.017-.001.93.93 0 0 1 0-.076c.003-.057.006-.126.001-.193a.64.64 0 0 0-.005-.05.387.387 0 0 0-.022-.085.399.399 0 0 1-.025.091 1.628 1.628 0 0 1-.021.053.444.444 0 0 0-.045.157c0 .01.002.018.003.027a.66.66 0 0 0 .037.162c.014.036.03.057.044.077l.015.023c.026.04.046.084.047.191 0 .035-.002.077-.006.128v.042l.004.01h-.003l.009.149c.003.057.007.11.007.134v.023a.31.31 0 0 0 .02.126c.027.062-.003.102-.026.133a.117.117 0 0 0-.01.015.05.05 0 0 0-.003.024.066.066 0 0 1 .008.02l.007-.002c.055.12-.174.126-.245.095-.01-.042.007-.056.02-.094.002-.008.008-.01.016-.008a.34.34 0 0 1 .004-.007c.006-.004.012-.008.012-.01a.17.17 0 0 1 .02-.045c.007-.014.014-.028.014-.038l-.001-.02c-.002-.033-.005-.073.003-.111.004-.018-.003-.074-.012-.14-.007-.055-.014-.116-.017-.171a.527.527 0 0 0-.016-.121 7.696 7.696 0 0 0-.006.043l-.035.21-.015.113a.901.901 0 0 1-.043.192.39.39 0 0 0-.008.055h.002c.04.082-.128.087-.18.07-.006-.032.002-.046.011-.074 0-.003.002-.005.003-.008l.002.001.015-.03a.213.213 0 0 0 .006-.01.503.503 0 0 1 .01-.036c.01-.024.02-.054.02-.068.002-.02.021-.098.037-.162l.019-.077c.034-.164.043-.368.03-.542a1.447 1.447 0 0 0-.099-.106l-.055-.054a1.033 1.033 0 0 1-.111-.13c-.144.093-.35.044-.41.027a.35.35 0 0 1-.046.02.216.216 0 0 0-.001.07c.011.04.01.12.008.202-.002.074-.004.151.004.197.006.033 0 .124-.008.225a2.781 2.781 0 0 0-.012.284l.001.038c0 .022 0 .042.01.083.012.056-.013.106-.032.141-.006.011-.011.011-.01.016a.322.322 0 0 1 .002.026.21.21 0 0 1-.011.084c-.008.02-.162.026-.197-.005-.007-.055-.004-.072.003-.081.01-.012.029-.01.044-.061a.073.073 0 0 0 .004-.026.48.48 0 0 1 .01-.135 2.317 2.317 0 0 0 .01-.175 1.54 1.54 0 0 0-.016-.207.436.436 0 0 0 0 .049l-.008.044-.015.093-.019.116a.818.818 0 0 1-.05.197.351.351 0 0 0-.01.055c.045.094-.147.1-.207.08-.007-.036.002-.052.013-.084a.09.09 0 0 1 .003-.01c.004-.009.01-.018.016-.026l.007-.011.013-.036a.394.394 0 0 0 .024-.07c.002-.021.024-.1.043-.166l.022-.08c.04-.159.065-.57.06-.833a6.118 6.118 0 0 1-.02-.078.559.559 0 0 0-.02-.065l-.027-.053.002-.002a1.45 1.45 0 0 0-.02-.038.418.418 0 0 1-.048-.116.278.278 0 0 1 .006-.124.71.71 0 0 1 .04-.112l-.011-.023a1.033 1.033 0 0 1-.124-.22 2.901 2.901 0 0 1-.153-.41v-.004a2.592 2.592 0 0 0-.088-.308 3.616 3.616 0 0 0-.066-.172.131.131 0 0 0-.007-.009.401.401 0 0 1-.01.006c-.058.03-.148.06-.148.06l-.006.002a.144.144 0 0 0-.067.03c-.01.025-.035.043-.065.054a.128.128 0 0 1-.047.006L2.3 2.315l-.017.003a.022.022 0 0 1-.01.001l-.02-.004-.007-.018c-.034-.085.033-.167.047-.183l.097-.14a.209.209 0 0 0 .008-.048.43.43 0 0 1 .003-.027c-.02-.022-.035-.053-.035-.053l-.01-.019.012-.018c.02-.03.073-.024.12-.02a.47.47 0 0 1 .022.003.335.335 0 0 1 .038-.11.275.275 0 0 1 .1-.105l.052-.03.004.06c.002.056-.004.107-.008.146a.71.71 0 0 0-.005.045l.042.021a.74.74 0 0 1 .068.036.2.2 0 0 1 .045.037c.032.036.064.077.095.123a2.933 2.933 0 0 1 .094.143 11.396 11.396 0 0 1 .075.122 11.31 11.31 0 0 0 .159.253 3.304 3.304 0 0 0 .108.152c.025.033.052.065.079.096.057.065.119.124.185.172a.774.774 0 0 0 .223.11 3.957 3.957 0 0 0 .304.07z"/></g></g><path d="M3.413 0a3.413 3.413 0 1 1 0 6.827 3.413 3.413 0 0 1 0-6.827z" style="fill:none"/><path class="fil3" d="m3.31 4.623-.008.044-.015.093-.019.116a.818.818 0 0 1-.05.197.351.351 0 0 0-.01.054c.033.094-.15.077-.15.077l-.01-.002c-.04-.017-.045-.046-.034-.078.004-.014.012-.025.019-.036l.007-.011.013-.036a.392.392 0 0 0 .024-.07c.002-.021.024-.1.043-.166l.022-.08c.05-.201.079-.81.05-1.005l-.004-.023a.475.475 0 0 1 .005.017l.001.004.035.118.011.038.03.099.015.054v.004c.01.047.01.102.011.15.002.05.002.11.014.159.004.02.009.038.012.058a3.018 3.018 0 0 0-.012.225z"/><path class="fil4" d="M3.207 5.128c.046.094-.146.1-.206.08-.007-.036.002-.052.013-.084a.09.09 0 0 1 .003-.01c.008.006.019.011.045.016.03.006.107.004.145-.002z"/><path class="fil3" d="M4.354 4.464a7.696 7.696 0 0 0-.006.043l-.035.21-.015.113a.901.901 0 0 1-.043.192.39.39 0 0 0-.009.052c.03.092-.124.076-.125.076l-.008-.002c-.035-.017-.039-.045-.03-.077.004-.013.01-.024.017-.035a.171.171 0 0 0 .006-.01.503.503 0 0 1 .01-.036c.01-.024.02-.054.02-.068.002-.02.021-.098.037-.162l.019-.077c.042-.197.045-.453.02-.642l-.004-.036a2.949 2.949 0 0 0-.004-.022c.02.026.038.052.055.082a1.151 1.151 0 0 1 .095.399z"/><path d="M2.363 2.233v.002-.002z" style="fill:#424242;fill-rule:nonzero"/><path class="fil6" d="M3.957 3.851c-.144.093-.35.044-.41.027a.35.35 0 0 1-.046.02.216.216 0 0 0-.001.07c.012.04.01.12.008.202-.002.074-.004.151.004.197.006.033 0 .124-.008.225a2.781 2.781 0 0 0-.012.284l.001.038c0 .022 0 .042.01.083.012.056-.013.106-.032.141-.006.011-.011.011-.01.016a.231.231 0 0 1-.01.11c-.007.02-.161.026-.196-.005-.017-.127.02-.053.047-.142a.073.073 0 0 0 .004-.026.48.48 0 0 1 .01-.135 2.317 2.317 0 0 0 .01-.175 1.942 1.942 0 0 0-.042-.36.867.867 0 0 1-.01-.148 1.015 1.015 0 0 0-.012-.156c-.003-.017-.028-.11-.05-.189l-.03-.114a.64.64 0 0 0-.065-.158c-.051-.096-.086-.162 0-.358a1.108 1.108 0 0 1-.137-.236 3.08 3.08 0 0 1-.153-.411v-.004a1.92 1.92 0 0 0-.062-.23 2.386 2.386 0 0 0-.099-.259c-.057.032-.158.066-.158.067l-.006.001a.144.144 0 0 0-.067.03c-.01.025-.035.043-.065.054-.025.009-.05.005-.071.005-.008 0-.02.006-.027.004l-.02-.004-.007-.018c-.034-.085.033-.167.047-.183l.097-.14a.227.227 0 0 0 .008-.048.43.43 0 0 1 .003-.027c-.02-.022-.035-.053-.035-.053l-.01-.019.012-.018c.02-.03.073-.024.12-.02l.022.003a.335.335 0 0 1 .038-.11.275.275 0 0 1 .1-.105l.052-.03.004.06c.002.056-.004.107-.008.146a.71.71 0 0 0-.005.045l.042.021c.04.02.087.042.113.073.032.036.064.077.095.123.032.045.063.093.094.143l.075.122c.193.317.413.679.736.778a3.449 3.449 0 0 0 .313.074c.09.011.368.284.4.369.05.135 0 .314-.021.455a.009.009 0 1 1-.017-.001c-.005-.09.024-.28-.026-.404a.56.56 0 0 1-.046.144.444.444 0 0 0-.045.157c.018.174.054.224.084.266.043.06.076.107.056.342-.002.02.004.115.01.201.003.057.007.11.007.134v.023a.31.31 0 0 0 .02.126c.027.062-.003.102-.026.133a.117.117 0 0 0-.01.015.05.05 0 0 0-.003.024c.018.03.008.059-.002.076-.002.023-.02.036-.047.042-.032.007-.087 0-.122-.003a.321.321 0 0 0-.02-.002h-.03l-.007-.028a.36.36 0 0 1 .038-.08l.012-.01a.17.17 0 0 1 .02-.046c.007-.014.014-.028.014-.038l-.001-.02c-.002-.033-.005-.073.003-.111.004-.018-.003-.074-.012-.14-.007-.055-.014-.116-.017-.171a.925.925 0 0 0-.13-.421c-.037-.05-.075-.088-.116-.128-.042-.041-.139-.135-.167-.185z"/><path d="M2.323 2.316 2.3 2.315l-.017.003a.012.012 0 0 1 .008-.007c.046-.015.075-.072.087-.076 0 .022-.026.058-.054.08z" style="fill:#5e330b;fill-rule:nonzero"/><path class="fil4" d="M2.7 2.235a.626.626 0 0 0-.034-.077.415.415 0 0 1-.01.006c-.027-.362.084-.063.134.081l-.09-.01zM2.8 1.855a.2.2 0 0 1 .045.037c.032.036.064.077.095.123l.063.094-.045.087-.146-.041-.012-.3zM2.81 2.571a2.592 2.592 0 0 0-.072-.232l.152-.077.053.11.01.201-.144-.002zM3.097 2.26l.012.02.102.165-.05.08-.146-.034-.013-.263.095.032zM3.008 3.12a2.09 2.09 0 0 1-.085-.192l.023-.046.091.074.01.176-.039-.011zM3.376 2.685c.025.033.052.065.079.096l-.068.143-.1-.099.068-.126.02-.014zM3.268 2.533c.013.02.027.041.042.061l-.008.018.004.105-.166-.052.06-.144.068.012zM2.88 2.815a2.722 2.722 0 0 1-.042-.128V2.65l.183-.05-.006.179-.132.038-.003-.002zM4.068 3.981a1.033 1.033 0 0 1-.104-.117v-.056L4 3.74l.09.074.011.175-.032-.009zM4.27 4.214a.388.388 0 0 0-.071-.1l.073-.031-.002.131zM4.406 3.879a.66.66 0 0 0 .037.162l-.046.02-.03-.038.001-.129.038-.015zM4.502 4.14c.026.04.046.085.047.192l-.072-.03-.002-.128.027-.033zM3.239 4.026l-.027-.098-.01-.036.114-.037-.025.077-.005.095h-.047z"/><path class="fil6" d="m3.47 4.08-.137-.045.006-.09.026-.061.13.022-.029.069z"/><path class="fil4" d="M3.07 3.54a.279.279 0 0 1 .005-.124l.144-.046-.025.077-.005.095-.12-.002zM4.566 3.53c.01.035.013.073.013.111l-.027-.013.014-.098zM4.576 3.703c-.005.064-.017.129-.028.19l-.028-.014c.003-.057.006-.126.001-.193l.02.011a.211.211 0 0 1 .035.006zM4.516 3.637a.386.386 0 0 0-.022-.086.399.399 0 0 1-.025.091l-.073-.03-.002-.129.031-.038.088.038.003.154zM4.398 3.307c.043.041.082.084.11.12l-.14-.018-.031-.05.018-.05.043-.002z"/><path class="fil6" d="M4.132 3.236c.02.003.156.044.156.044l-.003.06.036.065-.035.02-.13.029-.024-.218z"/><path class="fil4" d="M4.167 3.133c.04.011.107.06.175.121v.014l-.184-.08.009-.055zM3.863 3.063a3.957 3.957 0 0 0 .223.055l.022.039-.2.024-.045-.118zM3.64 2.953a.773.773 0 0 0 .102.063l.01.036-.14.055-.05-.129.078-.025z"/><path class="fil8" d="m3.809 3.095-.114.045-.03.104.111.102.1-.09zM3.944 3.246c.01-.003.115-.014.115-.014l.038.162-.125.062-.08-.11.052-.1zM4.132 3.236c.02.003.156.044.156.044l-.003.06.036.065-.035.02-.13.029-.024-.218zM3.728 3.384l.14.03.025.126-.17.038-.024-.114zM3.587 3.454l.103-.03-.05.233zM3.48 3.432l.092.074.01.175-.136-.038v-.144zM3.479 3.377l.142.001.006-.094-.038-.077-.108.055zM3.254 3.17l.187.064-.082.132-.097-.022zM3.391 2.98l.009.112.122-.033L3.525 3l-.04-.13zM4.51 4.388l-.12.007-.019.05.03.05.146.017zM3.525 3.098l.043.066-.074.055-.15-.064.035-.038.146-.019zM3.226 2.925l.069-.014.045.09.007.085-.086.036-.08-.07zM3.132 3.085l.094.072-.008.151-.086.03-.067-.137zM4.187 3.512l.132-.04.038.023-.05.141-.115.007s-.007-.129-.005-.13zM4.367 3.64s-.034.084-.043.085c-.009.002-.096-.04-.096-.04l.03.159.078.022.064-.053.03-.127-.063-.046zM4.383 4.091s-.047-.03-.047-.017c0 .012-.024.173-.024.173l.078.04.037-.043-.001-.146s-.042-.009-.043-.007zM4.072 3.478l-.113.044-.031.105.112.102.1-.09zM3.394 3.595l-.165-.052.06-.144.13.022-.028.069zM3.88 3.59l-.114.044-.031.105.112.101.1-.089zM4.16 3.849l.14.03.026.126-.17.038-.024-.113zM4.111 3.74l.094-.054-.017.108-.057.022zM3.55 3.871l.142.002.005-.094L3.66 3.7l-.108.055zM3.324 3.665l.188.064-.083.132-.096-.022zM3.449 4.105l.043.066-.074.055-.15-.064.035-.038.146-.019zM3.202 3.58l.095.071-.009.152-.086.03-.067-.137zM3.47 4.08l-.137-.045.006-.09.026-.061.13.022-.029.069zM3.114 2.702l.095.072-.009.151-.086.031-.067-.137z"/><path d="M2.578 1.93c.019 0 .035.02.035.043 0 .024-.016.044-.035.044-.02 0-.035-.02-.035-.044 0-.024.016-.043.035-.043z" style="fill:#fafafa"/><path d="M2.578 1.929c.01 0 .019.005.025.013a.05.05 0 0 1 .01.031.05.05 0 0 1-.01.032.033.033 0 0 1-.025.013.033.033 0 0 1-.026-.013.05.05 0 0 1-.01-.032.05.05 0 0 1 .01-.031.033.033 0 0 1 .026-.013zm.024.014a.03.03 0 0 0-.024-.012.03.03 0 0 0-.024.012.048.048 0 0 0-.01.03c0 .012.004.023.01.03a.03.03 0 0 0 .024.013.03.03 0 0 0 .024-.013.048.048 0 0 0 .01-.03.048.048 0 0 0-.01-.03z" style="fill:#033;fill-rule:nonzero"/><path d="M2.578 1.945c.012 0 .023.013.023.028 0 .016-.01.029-.023.029s-.023-.013-.023-.029c0-.015.01-.028.023-.028z" style="fill:#81d4fa"/><path d="M2.578 1.956c.008 0 .014.008.014.017 0 .01-.006.018-.014.018s-.014-.008-.014-.018c0-.01.006-.017.014-.017z" style="fill:#424242"/><path d="M2.28 2.21c-.014.017 0 .064 0 .067.02 0 .017-.065.01-.065a.034.034 0 0 1-.01-.002z" style="fill:#5e330b"/><path d="M2.655 1.651c-.015-.041-.127.139-.096.154l.075.016c0-.018.025-.157.02-.17z" style="fill:#e57373"/><path d="M2.4 1.916c.007-.038.082-.087.096-.099.009-.008.009-.019.008-.026a.47.47 0 0 0-.017-.002c-.047-.004-.1-.01-.12.02l-.011.018.009.02s.015.03.035.052a.43.43 0 0 0-.005.047.668.668 0 0 0 .006-.03z" style="fill:#dea85d"/><path class="fil8" d="M3.452 5.263a.21.21 0 0 0 .01-.083.542.542 0 0 1-.155.016.139.139 0 0 1-.049-.018c-.007.01-.01.026-.003.08.035.032.19.025.197.006z"/><path class="fil4" d="M4.25 5.076c.04.083-.129.088-.18.07-.007-.03 0-.045.01-.073 0-.003.002-.005.003-.008a.11.11 0 0 0 .04.014.494.494 0 0 0 .127-.003zM4.556 5.134c.055.12-.174.126-.245.095-.01-.042.007-.056.02-.094.006-.018.026-.003.053.003a.673.673 0 0 0 .172-.004z"/></g></svg>