<svg xmlns="http://www.w3.org/2000/svg" xml:space="preserve" width="2048" height="2048" style="shape-rendering:geometricPrecision;text-rendering:geometricPrecision;image-rendering:optimizeQuality;fill-rule:evenodd;clip-rule:evenodd"><defs><style>.fil0{fill:#424242}</style></defs><g id="Layer_x0020_1"><g id="_292188656"><path id="_292189160" class="fil0" d="M1197.55 1444.32c38.447-98.078 99.497-344.215 154.099-513.527 50.854-302.43-91.671-306.997-158.801-377.386-82.145-86.136-260.91-98.741-334.864 0-39.301 52.476-219.203 123.255-160.839 377.386 41.647 181.347 113.541 432.241 151.873 519.57 30.328-35.824 61.83-69.819 59.668-123.872l-.512-12.82 12.251-3.811c69.29-21.553 139.818-18.66 209.531-.197l12.96 3.433-.536 13.395c-2.012 50.32 26.802 83.891 55.17 117.829zm-39.45-435.904c.648 9.197 8.632 16.127 17.829 15.478 9.196-.647 16.125-8.631 15.478-17.827-1.18-16.56-1.87-33.052-1.429-48.29.163-5.64.48-11.167.985-16.53 4.134-.202 8.13-.588 11.964-1.153 25.687-3.776 51.556-15.513 70.89-33.2 20.206-18.487 33.415-43.393 32.56-72.68a94.656 94.656 0 0 0-.798-10.022l-.052-.486c-1.126-9.163-9.468-15.68-18.631-14.554l.001.006c-29.396 3.614-57.737 14.215-80.3 31.994-20.826 16.41-36.667 38.773-43.939 67.222-3.72 14.56-5.483 31.076-5.987 48.49-.49 16.996.209 34.441 1.43 51.552zm69.135-141.013c-12.847 10.124-23.103 23.326-29.198 39.655l.056-.009c19.488-2.864 38.93-11.603 53.259-24.71 10.816-9.896 18.63-22.33 20.995-36.523-16.684 4.253-32.223 11.43-45.112 21.587zm-370.65 138.664c-.647 9.196 6.283 17.18 15.48 17.828 9.196.648 17.18-6.282 17.828-15.479 1.22-17.11 1.92-34.555 1.428-51.551-.503-17.415-2.266-33.93-5.986-48.49-7.272-28.448-23.113-50.81-43.94-67.223-22.562-17.78-50.903-28.38-80.3-31.994l.002-.006c-9.163-1.125-17.506 5.39-18.63 14.554l-.053.487a94.657 94.657 0 0 0-.798 10.02c-.855 29.29 12.356 54.193 32.56 72.68 19.333 17.69 45.203 29.425 70.89 33.201 3.836.565 7.831.951 11.964 1.154.505 5.362.822 10.889.985 16.53.44 15.237-.248 31.73-1.43 48.289zm-6.629-99.008c-6.096-16.33-16.351-29.53-29.198-39.656-12.89-10.156-28.428-17.334-45.112-21.587 2.364 14.193 10.177 26.626 20.996 36.523 14.327 13.108 33.77 21.846 53.257 24.71l.057.01z"/><path id="_292189784" class="fil0" d="M1125.68 1325.82c-4.273 106.91 109.474 140.932 107.968 230.926-.808 48.332-24.018 99.089-31.144 128.72-42.828 142.042-310.321 142.042-354.265 0-12.838-26.026-31.91-69.796-35.032-115.8-6.599-97.245 116.673-131.634 112.187-243.846 64.926-20.196 131.877-18.118 200.286 0zm-211.764 217.723c13.668 0 24.748 17.551 24.748 39.203 0 54.083-49.494 55.735-49.494-33.941 0-21.652 11.078-5.262 24.746-5.262zm218.78 0c-13.669 0-24.748 17.551-24.748 39.203 0 54.083 49.494 55.735 49.494-33.941 0-21.652-11.078-5.262-24.746-5.262z"/><path id="_292189712" class="fil0" d="M669.981 727.894c-103.469-21.237-125.998-204.043-105.174-372.387 12.863-103.987 3.14-124.818 78.385-70.234 37.887 27.482 58.541 42.8 76.011 98.197 8.79 27.875 6.738 98.843 22.135 153.028 6.6 23.224 20.939 37.026 35.172 45.223-22.736 19.668-43.79 40.329-62.184 64.52-19.789 26.028-34.325 53.352-44.345 81.652z"/><path id="_292189736" class="fil0" d="M1394.33 722.99c89.507-36.328 108.546-208.374 88.863-367.483-12.864-103.987-3.14-124.818-78.385-70.234-37.888 27.482-58.542 42.8-76.012 98.197-8.79 27.875-6.739 98.843-22.136 153.028-5.258 18.505-15.432 31.03-26.55 39.503 25.978 17.237 49.918 35.356 70.177 59.646 21.767 26.098 35.904 55.373 44.043 87.342z"/></g></g><path style="fill:none" d="M0 0h2048v2048H0z"/></svg>