<svg xmlns="http://www.w3.org/2000/svg" xml:space="preserve" width="655.359" height="655.359" style="shape-rendering:geometricPrecision;text-rendering:geometricPrecision;image-rendering:optimizeQuality;fill-rule:evenodd;clip-rule:evenodd" viewBox="0 0 6.827 6.827"><defs><clipPath id="id0"><path d="M3.413 0a3.413 3.413 0 1 1 0 6.827 3.413 3.413 0 0 1 0-6.827z"/></clipPath><style>.fil2{fill:none}.fil9{fill:#4e342e}.fil4{fill:#5d4037}.fil1{fill:#c0ca33}</style></defs><g id="Layer_x0020_1"><path d="M3.413 0a3.413 3.413 0 1 1 0 6.827 3.413 3.413 0 0 1 0-6.827z" style="fill:#dce775"/><g style="clip-path:url(#id0)"><g id="_637662088"><path id="_4434444321" class="fil1" d="M8.935 6.677zM5.148 2.89z"/><path id="_443444672" class="fil1" d="M4.915 1.824 8.701 5.61v.002l-.002.002-.001.002-.002.003-.001.002-.001.002-.002.002-.001.002-3.786-3.786.001-.002.001-.002.002-.003.001-.002.001-.002.002-.002v-.002z"/><path id="_462751032" class="fil1" d="m5.106 1.708 3.786 3.786.004.006.003.007.002.007v.008L5.114 1.736v-.008l-.001-.007-.003-.007z"/><path id="_462750960" class="fil1" d="m5.114 1.736 3.787 3.786-.007.07-3.787-3.786z"/><path id="_462751368" class="fil1" d="m5.232 1.738 3.786 3.786.002.003.002.004.002.003v.003l.002.004v.015L5.239 1.77v-.004l.001-.004v-.007l-.001-.004-.002-.003-.001-.004-.002-.003z"/><path id="_462751200" class="fil1" d="m5.24 1.77 3.786 3.786-.05.234-3.787-3.786z"/><path id="_462751464" class="fil1" d="M5.19 2.004 8.975 5.79l.006.01.006.012.005.012.006.013.004.014.005.014.004.015.004.015.003.016.004.016.002.017.003.016.003.017.002.017.002.016.001.017.002.016.001.016.001.016.001.015.001.015v.015l.001.013v.013l.001.012V6.214L5.258 2.428V2.36l-.001-.013v-.014l-.001-.014-.001-.015-.001-.015-.001-.016-.001-.016-.002-.016-.002-.017-.002-.017-.002-.016-.002-.017-.003-.016-.003-.017-.003-.016-.003-.016-.004-.015-.004-.015-.005-.014-.005-.014-.005-.013-.005-.012-.006-.012z"/><path id="_462750936" class="fil1" d="m5.258 2.428 3.786 3.786.003.011.002.012.002.01.002.012.001.01.002.011.001.01.002.011.001.01.001.01.001.01.001.01v.009l.001.009.001.009v.017l.001.009v.055l-.001.007v.007l-.002.007v.007l-.001.007-.001.006-.001.006L5.274 2.71v-.006l.002-.007v-.006l.001-.007v-.007l.001-.007v-.007l.001-.008V2.64l.001-.008V2.59l-.001-.008v-.01l-.002-.009v-.009l-.001-.01-.001-.01-.001-.01-.002-.01v-.01l-.002-.01-.002-.01-.002-.011-.002-.011-.002-.012-.002-.01z"/><path id="_462751560" class="fil1" d="M5.274 2.71 9.06 6.496l-.002.01-.001.009-.002.009-.002.008-.003.008-.002.008-.002.008-.003.007-.003.007-.002.007-.003.006-.003.006-.003.006-.004.006-.003.005-.003.005-3.786-3.786.003-.005.003-.006.003-.005.003-.006.003-.006.003-.007.003-.006.003-.007.002-.008.003-.007.002-.008.002-.008.002-.009.002-.008.002-.01z"/><path id="_462751248" class="fil1" d="M5.233 2.825 9.019 6.61l-.006.008-.005.007-.006.007-.005.006-.006.005-.006.005-.006.005-.005.004-.006.003-.005.003-.005.003-.005.003-.005.002-.005.002-.004.001-.004.002L5.148 2.89l.004-.001.005-.002.004-.001.005-.002.005-.003.006-.003.005-.003.006-.004.005-.004.006-.004.006-.005.005-.006.006-.006.006-.006.005-.007z"/><path id="_462751632" class="fil1" d="m5.148 2.89 3.787 3.787H8.93l-.002.001h-.001l-.002.001H8.92L5.134 2.895h.002l.003-.001h.001l.002-.001h.002l.002-.001z"/><path id="_462751008" class="fil1" d="m4.797 2.575 3.787 3.787-3.787-3.785v-.001z"/><path id="_462752064" class="fil1" d="m4.788 2.623 3.787 3.786-.002.005v.005l-.002.004-.001.005-.001.005-.001.005-.002.005-.001.004-.001.005-.002.005-.001.005-.001.004-.002.005-.001.005-.002.005-.001.004L4.767 2.7l.002-.005.001-.004.002-.005.001-.005.002-.005.001-.004.001-.005.002-.005.001-.005.001-.004.002-.005v-.005l.002-.005.001-.005.001-.005z"/><path id="_462751968" class="fil1" d="m4.789 2.623 3.786 3.786-3.787-3.786z"/><path id="_462752088" class="fil1" d="m4.798 2.577 3.787 3.787-.01.045-3.786-3.786z"/><path id="_462752208" class="fil1" d="M5.098 2.894 8.884 6.68l-.013-.001-.012-.002-.012-.003-.01-.004-.011-.004-.01-.005-.01-.005-.008-.005-.009-.006-.007-.007-.008-.007-.006-.007L4.98 2.838l.007.007.007.007.008.006.008.006.01.006.009.005.01.005.01.004.01.003.013.003.012.002z"/><path id="_462752016" class="fil1" d="M4.921 2.684 8.707 6.47l-.011-.005-.011-.006-.01-.006-.01-.006-.01-.007-.008-.006-.008-.006-.007-.007-.007-.007-.007-.007L8.61 6.4 4.825 2.614l.006.007.007.007.007.007.008.006.008.007.009.006.009.006.01.006.01.006.01.006z"/><path id="_462751896" class="fil1" d="m5.13 2.894 3.786 3.787-3.787-3.787h.001z"/><path id="_462752112" class="fil1" d="m5.129 2.894 3.786 3.787h-.003L5.126 2.895z"/><path id="_462751872" class="fil1" d="M5.126 2.895 8.912 6.68H8.884L5.098 2.893h.024z"/><path id="_462752040" class="fil1" d="M5.134 2.894 8.92 6.68h-.003L5.13 2.895h.003z"/><path id="_462752592" class="fil1" d="m4.767 2.699 3.787 3.786-.003.007-.002.008-.003.007-.002.007-.003.007-.003.008-.003.007-.002.007-.003.007-.003.008-.004.007-.003.007-.003.007-.003.008-.004.007-.003.007-.003.008-.004.007-.004.008-.003.007-.004.008-.004.007-.004.008-.004.008-.004.008-.004.007-.004.008-.005.008-.004.008-.004.009-.005.008-.004.008L4.656 2.94l.005-.008.004-.009.005-.008.004-.008.004-.008.005-.008.004-.008.004-.007.004-.008.004-.008.004-.007.003-.008.004-.008.004-.007.003-.008.004-.007.003-.007.004-.008.003-.007.003-.007.003-.008.003-.007.003-.007.003-.007.003-.007.003-.008.003-.007.002-.007.003-.007.003-.008.002-.007z"/><path id="_462752856" class="fil1" d="m4.656 2.94 3.787 3.786-.005.011-.004.01-.004.01-.002.01-.003.01-.001.01-.002.008v.039l.001.007.002.007.001.006.002.006.002.005.002.006.002.005.003.004.002.005.002.004.003.003.002.004.003.003.002.002.002.003-3.786-3.786-.002-.003-.003-.003-.002-.003-.002-.003-.003-.004-.002-.004-.003-.004-.002-.005-.002-.005-.002-.005-.002-.005-.002-.006-.002-.007v-.006l-.002-.007v-.007l-.001-.008v-.016l.001-.008.001-.01.002-.008.002-.01.003-.01.004-.01.004-.01z"/><path id="_462752880" class="fil1" d="m4.68 3.13 3.787 3.787.001.002.001.001.002.002v.002l.002.002L4.687 3.14l-.001-.002-.002-.002v-.002l-.002-.002z"/><path id="_462752568" class="fil1" d="m4.687 3.14 3.786 3.786.009.021.008.022.006.02.006.022.004.021.003.021.002.021v.061l-.002.021-.002.02-.003.02-.004.019-.004.019-.005.019-.005.018-.006.017-.006.018-.007.016-.006.017-.007.015-.007.015-.007.015-.007.013-.007.013-.007.013-.006.011-.007.011-.006.01-.006.01-.005.007-3.786-3.786.005-.008.006-.01.006-.01.006-.01.007-.012.007-.012.007-.013.007-.014.007-.014.007-.015.006-.016.007-.016.006-.017.007-.017.005-.018.006-.018.004-.018.005-.02.004-.019.003-.02.002-.02.002-.02v-.061l-.002-.021-.004-.021-.004-.021-.005-.022-.006-.02-.008-.022z"/><path id="_462752616" class="fil1" d="M4.623 3.707 8.41 7.493l.007.007.007.008.007.008.007.009.007.008.007.009.008.009.007.009.007.009.007.009.007.009.006.009.007.009.006.009.007.008.006.01.006.007.005.008.006.008.005.008.005.007.005.007.004.006.004.006.004.006.003.004.003.005.002.004.002.003-3.786-3.786-.002-.004-.003-.003-.002-.005-.004-.005-.003-.005-.004-.006-.005-.006-.004-.007-.005-.007-.005-.008-.006-.008-.005-.008-.006-.008-.006-.009-.007-.008-.006-.01-.007-.008-.007-.01-.007-.008-.006-.01-.008-.008-.007-.01-.007-.008-.007-.009-.007-.009-.007-.008-.008-.008-.007-.008z"/><path id="_462753120" class="fil1" d="m4.831 3.963 3.786 3.786.012.014.011.013.01.014.009.015.007.014.007.014.006.014.005.015.005.014.003.014.003.014.003.014.002.013v.013l.002.013V8.003l-.002.01v.01l-.002.009-.001.008-.001.007-.002.006v.006l-.002.004v.003l-.001.003-3.786-3.787V4.28l.001-.003.001-.005.001-.005.001-.006.002-.008v-.008l.002-.008.001-.01v-.01l.001-.01v-.049l-.002-.013-.001-.013-.003-.014-.003-.014-.003-.014-.005-.014-.005-.015-.006-.014-.007-.014-.008-.015-.008-.014-.01-.014-.01-.014z"/><path id="_462753048" class="fil1" d="M4.655 4.145 8.442 7.93l-.01-.01-.01-.009-.01-.01-.01-.009-.011-.009-.011-.009-.011-.009-.011-.009-.012-.009-.011-.008-.012-.009-.012-.008-.011-.008-.012-.008-.012-.008-.011-.008-.012-.007-.011-.008-.012-.007-.011-.007-.011-.007-.011-.006-.01-.007-.011-.006-.01-.006-.01-.005-.01-.006-.01-.005-.008-.005-.009-.005-.008-.004-.008-.004L4.317 3.91l.007.004.009.004.008.005.01.005.009.005.01.005.01.006.01.006.01.006.01.007.012.006.01.007.012.007.011.007.012.007.012.008.011.008.012.008.012.008.011.008.012.008.011.009.012.008.011.009.011.009.012.009.01.009.011.01.01.008.01.01.01.01z"/><path id="_462752688" class="fil1" d="m3.97 3.854 3.786 3.787-.024.008-.026.006-.026.005-.028.005-.028.003-.03.002h-.03l-.03.001h-.031l-.032-.002-.032-.002-.032-.003-.032-.004-.032-.004-.032-.004-.032-.005-.031-.006-.032-.006-.03-.006-.03-.006-.03-.007-.028-.006-.028-.007-.027-.007-.025-.006-.025-.007-.023-.006-.021-.006-.02-.006-.02-.006-.016-.005-.015-.005L3.09 3.763l.016.005.017.005.018.006.02.005.022.007.023.006.025.006.025.007.027.007.028.006.028.007.03.007.03.006.03.006.031.006.032.005.032.005.032.005.032.004.032.004.032.002.032.003.031.001h.092l.03-.003.028-.003.027-.004.027-.005.026-.007z"/><path id="_462753168" class="fil1" d="m4.317 3.91 3.786 3.786h-.001L4.316 3.908z"/><path id="_462752472" class="fil1" d="m4.316 3.91 3.786 3.785-.003.018-.003.02-.004.02-.004.02-.005.02-.005.022-.006.022-.006.023-.006.022-.006.023-.007.023-.007.023-.007.023-.007.022-.007.022-.007.022-.007.021-.007.021-.006.02-.007.02-.006.018-.006.017-.006.017-.005.015-.005.014-.005.012-.004.012-.003.01-.003.007-.003.007-.001.004-.001.003L4.15 4.47l.001-.002.002-.005.002-.006.003-.008.004-.01.004-.01.004-.014.005-.014.006-.015.006-.016.006-.017.006-.019.006-.02.007-.02.007-.02.007-.021.007-.022.007-.022.007-.023.007-.022.007-.023.006-.023.007-.023.006-.022.006-.023.006-.022.005-.022.005-.02.004-.021.004-.02.003-.019z"/><path id="_462753528" class="fil1" d="m4.15 4.471 3.787 3.787v.001h-.001v.001l-.001.002-3.787-3.785v-.001l.001-.001v-.002h.001z"/><path id="_462753744" class="fil1" d="M3.091 3.763 6.878 7.55 3.09 3.765z"/><path id="_462753648" class="fil1" d="m2.148 3.098 3.786 3.786-.01.008-.009.009-.008.009-.008.009-.007.01-.007.01-.006.01-.006.011-.005.011-.005.012-.004.01-.004.012-.004.011-.003.012-.002.01-.003.012-.002.01-.002.01-.001.01-.001.01-.001.01-.001.008v.009l-.001.007V7.155L2.046 3.37v-.031l.001-.008v-.008l.001-.009.001-.009.002-.01.001-.01.002-.01.002-.01.002-.012.003-.01.003-.012.003-.011.004-.011.005-.012.004-.01.006-.012.005-.01.006-.011.007-.01.008-.01.008-.01.008-.009.01-.008z"/><path id="_462753504" class="fil1" d="M3.091 3.764 6.878 7.55l-.002.016-.002.017-.002.018-.002.017-.003.019-.003.018-.003.019-.003.019-.004.019-.004.019-.004.019-.003.019-.004.019-.004.018-.005.019-.004.018-.004.017-.004.018-.004.016-.004.016-.003.016-.004.014-.004.014-.003.014-.003.012-.003.011-.003.01-.002.01-.002.008-.002.006-.002.006v.004L2.991 4.25l.001-.004.002-.006.001-.007L3 4.224 3 4.215l.003-.01.003-.011.003-.013.003-.013.004-.014.003-.015.004-.015.004-.016.004-.017.004-.017.004-.018.004-.018.004-.018.004-.019.004-.018.004-.02.004-.018.004-.02.003-.018.004-.02.003-.018.003-.019.002-.018.003-.018.002-.017.002-.017z"/><path id="_462753312" class="fil1" d="M4.214 5.005 8.001 8.79v.003l.001.001v.002l.001.001v.005L4.219 5.017v-.004l-.001-.001V5.01l-.001-.001v-.001l-.001-.002z"/><path id="_462753240" class="fil1" d="m3.89 4.89 3.785 3.787-.01-.007-.009-.006-.008-.008L3.862 4.87l.008.007.009.007z"/><path id="_462753456" class="fil1" d="M4.009 5.125 7.795 8.91h-.013l-.012-.002-.011-.003-.01-.003-.01-.004-.009-.004-.008-.006-.007-.006-3.787-3.786.008.006.008.005.009.005.01.004.01.003.01.003.013.001z"/><path id="_462753408" class="fil1" d="m4.218 5.017 3.786 3.786v.037L8 8.85l-.003.01-.005.008-.005.008-.005.007-.007.007-.007.005-.007.005-.008.004-.009.004-.009.003-.009.002-.01.002-.009.002h-.01l-.009.001h-.01l-.009.001h-.018l-.008-.001h-.008l-.008-.002H7.82l-.007-.001-.006-.001-.005-.001-.004-.001h-.004L4.01 5.124h.003l.005.001.005.001.006.001.006.001.008.001h.007l.008.002h.056l.009-.002.01-.001.009-.002.009-.003.009-.003.008-.003.008-.004.008-.005.007-.006.006-.006.006-.007.005-.008.004-.008.004-.01.002-.01.001-.012V5.03z"/><path id="_462753888" class="fil1" d="M4.905 4.282 8.69 8.07l-.006.027-.007.027-.008.026-.009.026-.01.025-.01.024-.01.023-.012.023-.012.022-.012.022-.013.02-.013.02-.014.02-.013.019-.014.017-.014.017-.013.017-.014.015-.013.015-.013.014-.013.013-.013.012-.012.012-.011.01-.01.01-.011.009-.01.008-.008.007-.008.006-.007.006-.005.004-.005.003-3.786-3.786.004-.003.006-.005.007-.005.008-.006.008-.007.01-.008.01-.01.01-.01.012-.01.012-.011.012-.012.013-.013.013-.014.014-.015.013-.016.014-.016.014-.017.013-.018.014-.018.013-.02.013-.02.013-.02.013-.022.012-.022.011-.023.011-.023.01-.025.01-.025.009-.025.008-.026.007-.027z"/><path id="_462753984" class="fil1" d="m4.148 4.477 3.786 3.786-.008.016-.007.016-.007.016-.006.016-.005.015-.005.015-.004.016-.004.014-.003.015-.002.014-.002.014-.002.014-.001.014v.013l-.001.013v.035l.001.012.001.01.001.01.002.01.001.01.002.008.001.008.002.008.002.007.001.007.002.006.001.005.002.004.001.004-3.786-3.786-.002-.004-.001-.004-.001-.006-.002-.006-.002-.006-.001-.007L4.1 4.8l-.002-.008-.001-.009-.002-.009-.001-.01-.001-.01-.001-.01v-.012l-.001-.011V4.67l.002-.013.001-.014.002-.014.003-.014.003-.015.004-.015.004-.015.004-.015.006-.016.006-.015.007-.016.007-.016z"/><path id="_462754224" class="fil1" d="m4.12 4.851 3.787 3.787.005.005.005.005.004.005.005.006.005.006.004.006.004.006.005.006.004.007.004.006.004.006.004.007.003.006.004.006.003.006.003.006.003.006.003.006.003.005.003.006.002.005.002.005.002.004.002.004.002.004.002.004v.003L8 8.787v.002l.002.002-3.787-3.786v-.002l-.001-.002-.001-.003-.002-.003-.001-.003-.002-.004-.002-.004-.002-.005-.002-.004-.003-.005-.002-.006-.003-.005-.003-.006-.003-.006-.003-.006-.004-.006-.003-.006-.004-.007-.003-.006-.004-.006-.004-.007-.005-.006-.004-.006-.004-.006-.005-.006-.004-.006-.005-.006-.005-.005-.004-.006z"/><path id="_462754080" class="fil1" d="m2.637 3.897 3.786 3.786-.005-.005-.005-.004-.005-.004-.005-.004-.005-.003-.005-.003-.005-.003-.005-.003-.004-.002-.005-.002-.004-.002-.004-.002-.004-.001-.004-.002L2.57 3.857l.004.001.004.002.005.002.004.002.005.002.004.002.005.003.005.003.005.003.005.003.005.004.005.004.005.004z"/><path id="_462754032" class="fil1" d="m2.571 3.857 3.787 3.786h-.004L2.568 3.855h.002z"/><path id="_462754656" class="fil1" d="m2.047 3.37 3.786 3.785v.007L2.047 3.376V3.37z"/><path id="_462754296" class="fil1" d="m2.047 3.376 3.786 3.786-.011.068-.013.063-.014.058-.014.053-.015.05-.017.045-.016.042-.018.038-.018.034-.018.031-.019.028-.019.025-.019.022-.019.019-.019.017-.018.014-.019.012-.018.01-.018.008-.017.007-.017.004-.016.004-.015.002-.014.001h-.036l-.01-.002-.009-.001-.007-.002-.005-.001-.004-.001-3.787-3.787.004.001.006.002.007.001.008.002.01.001.011.001H1.646l.014-.001.015-.002.016-.004.017-.005.017-.006.018-.008.018-.01.018-.012.02-.015.018-.016.02-.02.018-.021.019-.025.019-.028.018-.03.018-.035.017-.038.017-.042.016-.045.016-.05.014-.054.014-.058.012-.062z"/><path id="_462754176" class="fil1" d="m2.568 3.856 3.786 3.786-.009.014-.01.015-.01.016-.013.017-.014.018-.014.02-.016.019-.016.02-.017.02-.017.022-.018.021-.018.022-.019.022-.019.022-.018.021-.02.022-.018.021-.018.02-.018.021-.018.02-.017.02L6 8.071l-.015.018-.015.016-.014.015-.013.015-.012.012-.01.012-.01.01-.007.008-.006.007-.005.005-3.786-3.787.004-.005.007-.006.007-.009.01-.01.01-.01.012-.014.013-.014.014-.015.014-.017.016-.017.017-.018.017-.02.017-.019.018-.02.019-.021.019-.021.018-.022.02-.022.018-.021.018-.022.019-.022.018-.021.017-.021.017-.021.016-.02.015-.02.015-.019.014-.018.012-.017.011-.016.01-.015z"/><path id="_462754320" class="fil1" d="m3.009 4.961 3.786 3.787-.011-.007-.01-.007-.012-.009L2.976 4.94l.01.009.012.007z"/><path id="_462754368" class="fil1" d="m2.992 4.249 3.786 3.786v.111l.003.05.004.048.006.045.007.041.009.039.01.036.01.033.012.031.012.029.014.026.013.024.014.022.015.02.014.018.015.016.015.014-3.786-3.786-.015-.015-.015-.016-.014-.018-.015-.02-.014-.021-.014-.024-.013-.026-.012-.029-.012-.03-.01-.034-.01-.036-.009-.04-.007-.04-.006-.045-.005-.048-.002-.05-.001-.054z"/><path id="_462754512" class="fil1" d="M3.314 4.933 7.1 8.719l.003.002-3.787-3.786z"/><path id="_462754584" class="fil1" d="m3.316 4.935 3.787 3.786.012.014.01.013.009.013.007.011.005.011.003.01.002.01v.017l-.002.008-.003.007-.004.007-.005.006-.006.006-.006.005-.008.004-.007.005-.008.003-.008.004-.009.003-.009.003-.008.002-.009.002-.008.002-.008.001-.008.002h-.007l-.007.001-.006.001H7.006l-.004.001-3.786-3.786h.008l.005-.001h.006l.007-.002h.007l.007-.002.009-.001.008-.002.008-.002.01-.003.008-.002.008-.003.009-.004.008-.004.007-.004.007-.005.007-.005.006-.005.005-.006.004-.007.003-.007.002-.008V5.016l-.002-.009-.004-.01-.005-.011-.006-.012-.009-.012-.01-.013z"/><path id="_462755016" class="fil1" d="M1.574 4.023 5.361 7.81l-.004-.002-.004-.002-.004-.002-.004-.003L1.56 4.015l.004.003.003.002.004.002z"/><path id="_462755304" class="fil1" d="m2.075 4.967 3.786 3.787-3.786-3.787z"/><path id="_462755352" class="fil1" d="m2.075 4.967 3.786 3.787v.002L2.077 4.969z"/><path id="_462755136" class="fil1" d="m2.076 4.97 3.786 3.786.004.018.003.016.001.015v.025l-.003.011-.003.01-.004.008-.005.007-.006.006-.007.005-.007.005-.008.003-.008.002-.009.002-.009.001h-.038l-.008-.002-.01-.002-.008-.002-.009-.002-.008-.002-.008-.002-.007-.002-.006-.003-.006-.002-.005-.001-.004-.002-.003-.001-3.786-3.786h.003l.004.002.005.002.006.002.006.002.007.002.008.003.008.002.008.002.01.002.008.001.01.002h.01l.008.001h.019l.009-.001.009-.002.008-.002.008-.004.007-.004.006-.005.006-.006.005-.007.005-.009.003-.01.002-.01.001-.012V5.02l-.001-.015-.003-.017z"/><path id="_462755376" class="fil1" d="m1.895 5.08 3.787 3.787h-.003l-.001-.001-.002-.001-.002-.001-.001-.001h-.001L1.885 5.075h.002v.001l.002.001h.001l.001.001h.002l.001.001z"/><path id="_462755400" class="fil1" d="m1.885 5.076 3.787 3.786-.015-.01-.013-.01-3.786-3.787.013.01z"/><path id="_462755424" class="fil1" d="m4.562 4.802 3.786 3.786-.016.027-.015.023-.015.02-.013.016-.013.014-.012.01-.012.009-.01.006-.01.003-.01.002-.008-.001-.008-.002L8.2 8.71l-.007-.006L4.406 4.92l.006.005.008.004.008.003h.008l.01-.001.01-.004.01-.005.012-.008.012-.011.012-.014.014-.016.014-.02.016-.023z"/><path id="_462755472" class="fil1" d="m3.216 5.107 3.786 3.786h-.004L3.21 5.107h.004z"/><path id="_462755040" class="fil1" d="m3.211 5.107 3.787 3.786H6.97l-.013-.002-.013-.002-.012-.002-.01-.003-.011-.003-.01-.003-.01-.004-.008-.004-.008-.005-.008-.004-.007-.005-.007-.006-.006-.005L3.06 5.059l.007.005.006.005.008.005.007.005.009.005.008.004.01.003.01.004.01.003.011.003.012.002.012.002.013.001h.014z"/><path id="_462754776" class="fil1" d="M2.107 4.403 5.893 8.19l-.012.024-.01.026-.01.025-.008.025-.006.025-.006.025-.005.025-.004.024-.003.025-.002.024-.002.023V8.55l.002.02.002.02.002.02.002.017.003.018.003.016.003.015.003.014.002.012.003.012.003.01.002.009.002.007.002.006.001.004.001.003-3.786-3.786-.001-.003-.001-.005-.002-.005-.002-.008-.003-.008-.002-.01-.003-.012-.003-.013-.003-.014-.002-.015-.003-.016-.003-.017-.002-.018-.002-.019-.002-.02-.002-.02v-.022l-.001-.022v-.045l.002-.024.003-.024.003-.024.004-.025.004-.024.006-.025.007-.025.008-.026.01-.025.01-.025z"/><path id="_637662376" class="fil1" d="M5.148 2.89zm-.917-.76c.288-.425.572-.357.684-.306a.54.54 0 0 1-.01.017.415.415 0 0 1 .03.014l.11-.144a.038.038 0 0 1 .07.025l-.008.07.067-.07a.038.038 0 0 1 .065.034l-.05.234c.07.106.07.384.07.424a.819.819 0 0 1 .015.282.285.285 0 0 1-.041.115.155.155 0 0 1-.104.07h-.003l-.028-.001c-.141-.012-.17-.152-.177-.21a.267.267 0 0 1-.124-.109v.002h.001l-.01.046a.81.81 0 0 1-.02.076 1.406 1.406 0 0 1-.112.24c-.053.118.009.178.019.186v.001a.038.038 0 0 1 .012.014c.104.225-.03.463-.084.546.071.066.165.208.185.239.174.13.122.338.117.357-.058.297-.3.488-.343.52-.176.303-.204-.021-.204-.022v-.005c.005-.18.094-.211.147-.214.021-.044.076-.074.1-.085a.38.38 0 0 0 .05-.331 1.509 1.509 0 0 0-.34-.236c-.025.187-.158.545-.165.562a.478.478 0 0 0-.04.37.5.5 0 0 1 .108.176c.016.148-.177.114-.209.108-.143-.003-.132-.165-.12-.235-.116-.064-.018-.218.005-.25.074-.25.077-.64.076-.786-.253.09-.727-.044-.879-.09a3.43 3.43 0 0 1-.1.485c-.02.627.303.675.304.675a.038.038 0 0 1 .021.011c.144.152-.07.17-.1.172h-.005c-.156 0-.194-.095-.202-.146-.119-.056-.205-.377-.22-.44-.143-.143-.093-.43-.083-.476-.02-.132-.094-.174-.135-.188l-.003-.001c-.084.14-.422.505-.461.547-.133.265-.032.563-.032.564v.002c.054.2-.154.122-.18.112a.038.038 0 0 1-.01-.005c-.161-.114-.073-.19-.037-.213.002-.019-.022-.06-.026-.067a.039.039 0 0 1-.002-.003c-.074-.148.082-.444.11-.495.022-.297.12-.354.164-.365a.304.304 0 0 0 .082-.293.953.953 0 0 1-.028-.542c-.108.08-.1.27-.1.271l-.001.007c-.115.744-.44.658-.473.647a.038.038 0 0 1-.003-.072c.191-.072.108-.464.108-.465v-.009c.016-.677.48-.631.595-.61h.001c.201-.252.699-.178.72-.174L3 2.694l.022.007c.068.021.13.04.185.052.225.044.428-.025.607-.085.026-.01.052-.018.077-.026.1-.033.143-.066.169-.11l.01-.048a.715.715 0 0 0 .02-.06c.024-.072.053-.165.14-.294z"/></g></g><path class="fil2" d="M3.413 0a3.413 3.413 0 1 1 0 6.827 3.413 3.413 0 0 1 0-6.827z"/><path d="M3.208 2.753c.225.044.428-.025.607-.085.026-.01.052-.018.077-.026.156-.05.172-.102.202-.196.022-.072.052-.165.14-.293.305-.451.605-.348.701-.298l.11-.144a.038.038 0 0 1 .07.025l-.008.07.067-.07a.038.038 0 0 1 .065.034l-.05.234c.07.106.07.384.07.424.082.416-.093.46-.125.466a.039.039 0 0 1-.008 0c-.166.006-.198-.148-.205-.21a.267.267 0 0 1-.124-.109.81.81 0 0 1-.03.124 1.406 1.406 0 0 1-.11.24c-.054.118.008.178.018.186.005.004.009.009.012.015.104.225-.03.463-.084.546.071.066.165.208.185.239.174.13.122.338.117.357-.058.297-.3.488-.343.52-.176.303-.204-.021-.204-.022v-.005c.005-.18.094-.211.147-.214.021-.044.076-.074.1-.085a.38.38 0 0 0 .05-.331 1.511 1.511 0 0 0-.34-.236c-.025.187-.158.545-.165.562a.478.478 0 0 0-.04.37.5.5 0 0 1 .108.176c.016.148-.177.114-.209.108-.143-.003-.132-.165-.12-.235-.116-.064-.018-.218.005-.25.074-.25.077-.64.076-.786-.253.09-.727-.044-.879-.09-.014.171-.089.447-.1.485-.02.627.303.675.304.675a.038.038 0 0 1 .021.011c.144.152-.07.17-.1.172h-.005c-.156 0-.194-.095-.202-.146-.119-.056-.205-.377-.22-.44-.143-.143-.093-.43-.083-.476-.02-.136-.098-.177-.138-.19-.084.141-.422.506-.461.548-.133.265-.032.563-.032.564v.002c.054.2-.154.122-.18.112a.038.038 0 0 1-.01-.005c-.161-.114-.073-.19-.037-.213.002-.019-.022-.06-.026-.067a.039.039 0 0 1-.002-.003c-.074-.148.082-.444.11-.495.022-.297.12-.354.164-.365a.304.304 0 0 0 .082-.293.95.95 0 0 1-.028-.542c-.108.08-.1.27-.1.271l-.001.007c-.115.744-.44.658-.473.647a.038.038 0 0 1-.003-.072c.191-.072.108-.464.108-.465v-.009c.016-.677.48-.631.595-.61.201-.252.7-.178.72-.174l.007.001.022.007c.068.021.13.04.185.052z" style="fill:#795548"/><path class="fil2" d="M4.917 1.846a.933.933 0 0 1-.027.043c-.018.003-.01.015-.047.004-.011.016-.065.084-.061.025-.055.09-.025.016-.098.084-.01.01-.047.044-.062.038-.008-.078-.068.06-.069.06-.004-.008.001-.034-.003-.043a.371.371 0 0 0-.085.104c-.01-.003-.013-.036-.015-.045-.034-.007-.1.136-.114.15a.35.35 0 0 1-.019-.05.502.502 0 0 0-.113.178c-.014-.015.004-.021-.014-.033l-.089.263c-.002.033-.007.04-.007.08-.016.007-.026-.106-.026-.122l-.016.1c-.054 0 .008-.08.021-.176"/><path class="fil4" d="M5.148 2.89a.114.114 0 0 1-.05.004c-.033-.05-.019-.13-.008-.184.008.047.008.163.058.18zM5.274 2.71a.285.285 0 0 1-.041.115H5.23c-.03 0-.055-.032-.055-.072 0-.04.025-.071.055-.071.018 0 .034.01.044.028z"/><path style="fill:#424242" d="M3.295 4.924"/><path d="M2.108 4.007a.038.038 0 0 1-.025-.013" style="fill:none;fill-rule:nonzero"/><path d="M4.993 2.128c.032.024.044.062.028.084-.017.022-.056.02-.088-.004-.031-.024-.044-.06-.027-.083.017-.022.056-.02.087.003z" style="fill:#cfd8dc"/><path d="M4.987 2.137a.039.039 0 1 1-.047.062.039.039 0 0 1 .047-.062z" style="fill:#263238"/><path class="fil4" d="M2.274 2.868c-.114-.022-.579-.068-.596.61l.001.008s.083.393-.108.465a.038.038 0 0 0 .003.072c.032.01.358.097.473-.647V3.37s-.007-.19.101-.27V3.1a.694.694 0 0 1 .126-.233z"/><path class="fil9" d="M4.915 1.824c-.112-.051-.396-.119-.684.306-.087.13-.116.222-.14.294a.715.715 0 0 1-.02.06c-.06.262.005.246.043.012 0 .017-.02.174-.004.167 0-.06.064-.312.079-.325.017.012 0 .018.013.033a.502.502 0 0 1 .113-.177.35.35 0 0 0 .019.05c.013-.015.08-.158.114-.15.003.009.004.042.015.044a.371.371 0 0 1 .085-.103c.004.009-.001.034.003.044.002-.001.062-.14.07-.061.014.005.06-.061.07-.07.073-.069.034.037.09-.053-.005.06.049-.008.06-.024.038.01.03-.001.047-.004 0 0 .017-.025.027-.043z"/><path class="fil4" d="M2.571 3.857c.041.014.115.056.135.188-.01.047-.06.333.082.476.016.063.102.384.22.44.01.05.047.146.203.146h.005c.03-.002.244-.02.1-.172a.038.038 0 0 0-.021-.011c-.001 0-.324-.048-.303-.675a3.43 3.43 0 0 0 .1-.485c-.183-.054-.258-.041-.437-.18a.9.9 0 0 1-.084.273zM4.317 3.91c.08.042.238.133.338.235a.38.38 0 0 1-.05.331c-.024.011-.079.041-.1.085-.053.003-.142.034-.148.214v.005s.029.325.205.022c.044-.032.285-.223.343-.52.005-.019.057-.228-.117-.357a1.567 1.567 0 0 0-.185-.239c.055-.083.188-.321.084-.546a.038.038 0 0 0-.011-.014c.04.156-.04.34-.132.466-.107.147-.046.038-.182.178-.021.021-.034.085-.045.14zM4.789 2.623c-.033-.033-.196-.185-.13-.254l.002-.001v.005c-.013.103.06.136.137.204l-.01.046z"/><path class="fil9" d="M5.046 2.24c-.016-.12-.116-.169-.223-.12.136-.088.224-.041.223.12z"/></g></svg>