<svg xmlns="http://www.w3.org/2000/svg" xml:space="preserve" width="655.359" height="655.359" style="shape-rendering:geometricPrecision;text-rendering:geometricPrecision;image-rendering:optimizeQuality;fill-rule:evenodd;clip-rule:evenodd" viewBox="0 0 6.827 6.827"><defs><clipPath id="id0"><path d="M3.413 0a3.413 3.413 0 1 1 0 6.827 3.413 3.413 0 0 1 0-6.827z"/></clipPath><style>.fil5{fill:#4d2909}.fil4{fill:#57300f}.fil3{fill:#673b15}.fil6{fill:#7c4d24}.fil8{fill:#945823}.fil1{fill:#e9da53}</style></defs><g id="Layer_x0020_1"><path d="M3.413 0a3.413 3.413 0 1 1 0 6.827 3.413 3.413 0 0 1 0-6.827z" style="fill:#ffee58"/><g style="clip-path:url(#id0)"><g id="_637656832"><path id="_4628854001" class="fil1" d="m2.638 3.481 3.787 3.786-3.787-3.786z"/><path id="_462885448" class="fil1" d="m2.237 4.063 3.786 3.786-.007.003-.007.004L6 7.859l-.008.003-.008.003-.008.003-.008.003-.008.003-.008.003-.009.002-.008.003-.008.002-.008.002-.007.002-.008.002-.007.001-3.786-3.786.007-.002.008-.001.007-.002.008-.002.008-.003.008-.002.008-.003.008-.002.009-.003.008-.003.008-.003.008-.003.008-.003.007-.004.008-.003z"/><path id="_544923864" class="fil1" d="m2.439 3.766 3.786 3.786-.002.01-.003.01-.003.01-.003.01-.003.01-.003.012-.003.01-.003.012-.004.01-.003.012-.004.011-.003.012-.004.01-.004.012-.004.01-.004.012-.005.01-.004.01-.005.01-.004.01-.005.01-.005.01-.005.008-.005.008-.005.008-.006.007-.005.007-.006.006-.005.005-.006.005-.006.004-.006.004L2.302 4.06l.006-.003.006-.004.006-.005.006-.005.006-.006.005-.007.005-.007.006-.008.005-.008.005-.009.005-.01.004-.009.005-.01.005-.01.004-.01.004-.01.005-.011.004-.011.004-.011.003-.012.004-.01.004-.012.003-.011.004-.012.003-.01.003-.012.003-.01.003-.011.003-.01.003-.01.002-.01z"/><path id="_544923192" class="fil1" d="M6.814 6.576zM3.028 2.79z"/><path id="_544923264" class="fil1" d="M4.892 1.58 8.68 5.366l.003.006.002.007.001.007v.007l-.003.007-.003.006-.004.005-.005.005-.006.003-.007.002h-.014L4.857 1.635h.014l.006-.002.006-.004.006-.004.004-.005.003-.007.002-.006v-.015l-.002-.006z"/><path id="_544923360" class="fil1" d="m4.857 1.635 3.786 3.786-.053-.008-.054-.006-.053-.003H8.43l-.052.002-.052.005-.052.008-.05.01-.05.012-.049.015-.048.017-.047.02-.046.021-.045.024-.044.026-.043.027-.04.03-.04.032-.038.034-.037.035-.035.037-.033.04-.03.04-.03.042-.027.044-.026.045-.023.047-.02.048-.02.05-.015.05-.014.052-.011.053v.002l-.001.002v.003H7.41l-.001.002v.001L3.622 2.494v-.001l.001-.001V2.49h.001v-.002l.001-.001v-.003l.012-.053.013-.052.017-.05.018-.05.021-.049.023-.046.025-.046.028-.043.029-.042.031-.041.033-.04.035-.036.036-.036.039-.033.04-.032.04-.03.043-.028.043-.025.045-.024.046-.022.048-.02.048-.016.049-.015.05-.012.05-.01.052-.008.051-.005.053-.002h.053l.053.003.053.006z"/><path id="_544924320" class="fil1" d="M3.623 2.494 7.41 6.28l.001.001v.001h.001v.001h.001v.001L3.627 2.5v-.002h-.001v-.001l-.001-.001z"/><path id="_544924152" class="fil1" d="m3.626 2.499 3.787 3.786.001.003.002.004v.003l.001.004v.012l-.002.004L3.63 2.528l.001-.003V2.52l.001-.004v-.008l-.002-.003-.001-.004z"/><path id="_544924104" class="fil1" d="m2.916 1.936 3.786 3.786-.037-.035-.038-.034-.04-.032-.04-.03-.043-.027-.043-.026-.045-.024-.047-.021-.047-.02-.048-.017-.049-.015-.05-.012-.05-.01-.052-.008-.051-.005-.053-.002h-.053l-.053.003-.053.006-.054.008h-.014l-.007-.002-.006-.003-.005-.005-3.786-3.786.005.004.006.004.007.002h.014l.053-.008.054-.006.053-.003h.053l.052.002.052.005.051.008.051.01.05.012.049.015.048.017.047.02.046.02.045.025.044.025.042.028.042.03.04.032.037.033z"/><path id="_544924440" class="fil1" d="m2.996 1.917 3.786 3.786.035.041.034.043.031.044.03.045.027.048.025.049.022.05.02.052.018.053.016.055.012.055-3.786-3.786-.013-.056-.015-.054-.018-.053-.02-.052-.023-.05-.025-.05-.027-.047-.03-.046L3.066 2l-.034-.042z"/><path id="_544923888" class="fil1" d="M3.515 2.499 7.3 6.285 3.515 2.5z"/><path id="_544924008" class="fil1" d="m3.639 2.6 3.786 3.787v.033l.001.004v.005l.001.004.001.005v.004l.002.004v.005l.002.004.001.004-3.786-3.787-.001-.004-.001-.004-.001-.004-.001-.004-.001-.005v-.004l-.002-.005V2.633l-.001-.004v-.024z"/><path id="_544924560" class="fil1" d="m3.695 2.738 3.786 3.786.002.004.002.003.003.003-3.786-3.786-.003-.003-.002-.003z"/><path id="_544924584" class="fil1" d="m3.63 2.528 3.785 3.787-.006.02L3.623 2.55z"/><path id="_544924032" class="fil1" d="m4.437 2.812 3.786 3.786-3.787-3.786z"/><path id="_544924056" class="fil1" d="m4.773 2.757 3.786 3.786.003.003.002.003.001.003.002.004v.004l.002.003v.012l-.001.004-.002.004-.001.003-.002.004-.002.003-.003.003-.002.002-.003.003-.004.002-.003.002-.003.001-.004.001h-.004l-.004.001h-.007l-.004-.001L4.733 2.82h.02l.003-.001.004-.002.003-.001.003-.002.003-.003.003-.002.003-.003.002-.004.002-.003.001-.004.001-.003.001-.004v-.016L4.78 2.77v-.004l-.003-.003-.002-.003z"/><path id="_544924176" class="fil1" d="m4.655 2.827 3.786 3.786-.003.001-.004.002-.004.001-.004.002-.004.001-.004.001-.005.002h-.005l-.004.002-.005.001-.005.002h-.005l-.005.002-.006.001-.005.001-.005.001-.005.001-.006.001-.005.001-.005.001H8.34l-.005.002H8.33l-.006.001H8.32l-.005.001H8.31l-.005.001H8.296l-.005.001h-.004L4.5 2.857H4.514l.005-.001h.005l.005-.001h.005l.005-.001h.005l.006-.002h.005l.005-.001.006-.001.005-.001.005-.001.006-.001.005-.001.005-.001.005-.001.006-.001.005-.002h.005l.004-.002.005-.001.005-.002.004-.001.005-.001.004-.002.004-.001.004-.001.004-.002z"/><path id="_544925016" class="fil1" d="M4.733 2.82 8.52 6.608l-.005-.001-.005-.001h-.005l-.004-.001h-.025l-.005.001-.005.001-.005.001-.005.001-.005.002-.005.001-.005.002-3.786-3.786.005-.002.005-.001.004-.002.005-.001.005-.001.005-.001h.005l.005-.001H4.724l.005.002z"/><path id="_544924944" class="fil1" d="M4.451 2.895 8.238 6.68h-.023L8.21 6.68l-.006-.001-.006-.002-.007-.002-.008-.002-.007-.002-.008-.002-.008-.003-.009-.003-.009-.003-.008-.003L4.346 2.87l.01.004.008.003.008.003.008.002.008.003.008.002.007.002.007.002.007.001.006.002h.006l.005.001h.014z"/><path id="_544925040" class="fil1" d="M4.484 2.877 8.27 6.663l-.003.003-.004.003-.004.002-.004.003-.004.002-.005.002-.004.001-.004.002L4.45 2.895l.005-.002.004-.001.004-.002.005-.003.004-.002.004-.003.003-.002z"/><path id="_544925112" class="fil1" d="m4.5 2.857 3.787 3.786-.002.003-.002.003-.002.002-.002.003-.002.002-.002.003-.003.002-.002.002-3.786-3.786.002-.002.002-.003.003-.002.002-.002.002-.003.002-.003.002-.002z"/><path id="_544925184" class="fil1" d="m4.346 2.87 3.787 3.787-.006-.003-.006-.002-.006-.002-.006-.002-.007-.003-.006-.002-.006-.003-.006-.002-.007-.003-.006-.002-.006-.003-.007-.002-.006-.003-.006-.002-.006-.003-.006-.003-.007-.002-.006-.003-.006-.002-.005-.003-.006-.002-.006-.002-.005-.003-.006-.002-.005-.002-.005-.002-.005-.003-.005-.002-.005-.002-.004-.002-.005-.002-.004-.001-3.786-3.787.004.002.004.002.005.002.005.002.004.002.005.002.006.002.005.003.005.002.006.002.005.003.006.002.006.003.006.002.006.003.006.002.006.003.007.002.006.003.006.002.006.003.007.002.006.003.006.003.007.002.006.002.006.003.006.002.006.003.007.002.005.002z"/><path id="_544925136" class="fil1" d="M4.163 2.795 7.95 6.582l-.055-.02-3.787-3.787z"/><path id="_544925400" class="fil1" d="m4.107 2.775 3.787 3.786-.006.007-.005.007-.007.007-.006.006-.007.007-.007.006-.008.006-.008.006-.008.005-.008.006-.008.005-.009.005-.008.005-.009.004-.008.004-.008.004-3.786-3.786.008-.004.008-.004.009-.005.008-.004.008-.005.009-.006.008-.005.008-.005.008-.006.007-.006.008-.006.007-.007.006-.006.006-.007.006-.007z"/><path id="_544925304" class="fil1" d="M3.624 2.549 7.41 6.335l.002.003.002.003.002.003.001.003.002.003.001.003.001.003.001.003.001.003v.004l.001.003v.004l.001.003v.011L3.64 2.601v-.018l-.001-.003-.001-.004-.001-.003-.001-.003-.001-.004-.002-.003-.001-.003-.002-.003-.001-.003-.002-.002z"/><path id="_544925376" class="fil1" d="m4.193 3.03 3.786 3.786.008.009.007.008L8 6.84l.006.008.005.008.005.008.004.008.003.008.003.007.002.008v.007L4.243 3.117v-.008l-.002-.007-.003-.008-.003-.007-.004-.008-.005-.008-.005-.008-.006-.008-.007-.009-.007-.008z"/><path id="_544924872" class="fil1" d="M3.882 2.829 7.67 6.615v.001L3.883 2.83v-.001z"/><path id="_544925952" class="fil1" d="M3.299 2.463 7.085 6.25l.004.005.003.005.002.006L3.308 2.48l-.003-.006-.003-.006z"/><path id="_544926024" class="fil1" d="m4.187 3.48 3.786 3.787v.001L4.185 3.484V3.48z"/><path id="_544925520" class="fil1" d="M4.186 3.482 7.972 7.27v.004L4.186 3.487z"/><path id="_544926168" class="fil1" d="m3.308 2.48 3.786 3.786v.003l.001.003.001.003v.003l.001.002.001.003v.003l.001.002-3.786-3.786V2.5l-.001-.002v-.003l-.002-.003v-.003l-.001-.002v-.003z"/><path id="_544925736" class="fil1" d="M3.202 2.55 6.99 6.336 3.203 2.55z"/><path id="_544925784" class="fil1" d="m4.185 3.566 3.786 3.786v.042l-.001.009v.041l-.001.008V7.594l.001.007-3.786-3.786v-.02l-.001-.007V3.617l.001-.009v-.034z"/><path id="_544926048" class="fil1" d="M3.314 2.498 7.1 6.285 3.312 2.497z"/><path id="_544926072" class="fil1" d="m4.189 3.273 3.786 3.786V7.196l-.001.007v.064L4.186 3.481V3.402l.001-.008V3.276z"/><path id="_544926144" class="fil1" d="M4.316 3.563 8.103 7.35h-.004l-.003.002h-.003l-.004.001h-.004l-.003.001h-.004l-.004.001H8.07l-.004.001H8.005l-.004-.001H7.992l-.004-.001h-.004l-.004-.001h-.005l-.004-.001-3.786-3.786h.008l.005.001h.008l.004.001h.005l.004.001H4.232l.005.001H4.288l.004-.001h.003l.004-.002h.007l.004-.002h.003z"/><path id="_544925712" class="fil1" d="m4.59 4.066 3.786 3.786-.004.001-.004.001-.004.001-.004.001h-.004l-.004.001H8.33l-.004-.002h-.004l-.004-.002-.004-.001-.004-.002-3.786-3.786.004.001.004.002.004.001.004.001.004.001h.008l.004.001H4.57l.004-.001h.004l.004-.002.004-.001z"/><path id="_544925904" class="fil1" d="M4.525 4.064 8.31 7.85l-.006-.004-.006-.004-.006-.005-.006-.005-3.786-3.786.006.005.006.005.006.004z"/><path id="_544926936" class="fil1" d="m4.366 3.498 3.786 3.786.005.006.004.006.004.006.005.006.003.006.004.007.004.006.003.006.004.007.003.006.003.007.003.007.003.007.003.007.003.007.002.007.003.007.002.007.003.008.002.008.002.007.003.008.002.008.002.008.002.008.003.008.002.009.002.008.003.009.002.009.002.008.003.01.002.008.002.008.003.01.002.008.003.01.002.01.003.01.003.01.003.01.003.01.003.01.003.01.003.011.003.01.003.01.003.01.004.01.003.01.003.009.004.009.003.009.004.008.003.007.004.008.003.007.004.006.003.005.003.005.004.005.003.003-3.786-3.786-.003-.004-.004-.004-.003-.005-.004-.006-.003-.006-.004-.007-.003-.007-.004-.008-.003-.008-.003-.008-.004-.01-.003-.009-.003-.01-.004-.009-.003-.01-.003-.01-.003-.01-.004-.01-.003-.01-.003-.011-.003-.01-.002-.01-.003-.01-.003-.01-.003-.01-.002-.01-.003-.01-.002-.008-.002-.009-.003-.008-.002-.009-.002-.009-.003-.008-.002-.01-.002-.008-.003-.008-.002-.008-.002-.008-.002-.008-.003-.008-.002-.008-.002-.008-.003-.007-.002-.008-.003-.007-.002-.007-.003-.008-.002-.007-.003-.007-.003-.006-.003-.007-.003-.007-.003-.006-.004-.007-.003-.006-.004-.007-.004-.006-.004-.006-.004-.006-.004-.006-.005-.006z"/><path id="_544926576" class="fil1" d="m4.808 4.14 3.786 3.786-.003-.002-.003-.002-.003-.002-.004-.001-.004-.002-.005-.001-.005-.001-.005-.002-.006-.001-.005-.002-.006-.001-.005-.001-.006-.002-.006-.002-.005-.002-.005-.002-3.786-3.786.005.002.005.002.006.002.005.001.006.002.006.001.005.002h.006l.005.002.005.002.004.001.005.002.004.001.003.002.003.002z"/><path id="_544926720" class="fil1" d="m2.718 2.773 3.786 3.786-.056.02-3.786-3.786z"/><path id="_544926672" class="fil1" d="m2.878 2.883 3.786 3.786-.008-.004-.008-.004-.008-.004-.008-.004-.008-.004-.007-.004-.008-.004-.007-.003-.008-.005-.007-.004-.008-.004-.007-.005-.008-.005-.007-.005-.008-.006-.008-.006-.005-.005-.005-.004-.006-.005L2.74 2.798l.005.004.006.005.005.005.008.006.007.006.008.005.007.005.008.005.007.004.008.004.007.004.008.004.007.004.008.004.008.004.008.003.008.004.008.005z"/><path id="_544926480" class="fil1" d="m2.769 2.703 3.786 3.786.004.005.003.006.003.007L2.778 2.72l-.002-.007-.003-.006z"/><path id="_544926456" class="fil1" d="m2.815 2.907 3.786 3.786-3.786-3.786z"/><path id="_544926528" class="fil1" d="M2.376 2.793 6.162 6.58l.003.003.003.003.003.004.002.003.002.004-3.786-3.787-.002-.003-.003-.004-.002-.003-.003-.003z"/><path id="_544926360" class="fil1" d="m2.778 2.72 3.787 3.787v.003l.003.003.003.004.003.004.004.004L2.792 2.74l-.004-.004-.004-.004-.002-.004-.002-.003z"/><path id="_544926384" class="fil1" d="m2.389 2.81 3.786 3.786.007.007-3.787-3.786z"/><path id="_544926192" class="fil1" d="m2.662 2.793 3.786 3.786-.004.002-.004.002-.004.002-.005.002-.005.002-.005.002-.005.002-.005.003-.006.002L6.4 6.6l-.006.003-.006.002-.005.002-.006.003-.006.002-.007.003-.006.003-.006.002-.006.003-.006.002-.007.003-.006.002-.006.003-.007.002-.006.003-.006.002-.006.003-.007.002-.006.002-.006.003-.006.002-.006.002-.006.003-.006.002-.006.002-.006.002-.006.002-.006.002-.005.002-.006.001-.005.002-.005.001-.005.001-.005.002h-.005l-.004.002H6.18L2.394 2.894l.004-.001h.005l.004-.002h.005l.004-.002.005-.001.006-.002.005-.001.005-.002.006-.001.006-.002.006-.002.006-.002.006-.003.006-.002.006-.002.006-.002.006-.003.006-.002.006-.002.006-.003.007-.002.006-.002.006-.003.006-.002.007-.003.006-.002.006-.003.007-.003.006-.002.006-.003.006-.002.006-.003.006-.002.006-.003.006-.002.006-.003.006-.002.005-.002.005-.003.006-.002.005-.002.005-.002.005-.002.004-.002.005-.002.004-.002z"/><path id="_544926264" class="fil1" d="m2.394 2.893 3.787 3.786h-.005l-.003.001h-.01l-.003-.001-3.786-3.787h.002l.003.001H2.392z"/><path id="_544927056" class="fil1" d="M2.325 2.855 6.11 6.64H6.097l-.005-.001h-.005l-.005-.001h-.005l-.005-.001h-.005l-.005-.002h-.006l-.005-.001-.005-.001-.006-.001-.005-.001-.005-.001-.005-.001-.006-.001-.005-.001-.005-.001-.005-.002H6l-.005-.002-.004-.001-.005-.002-.005-.001-.004-.001-.004-.002-.004-.001-.004-.002H5.96l-.004-.002L2.17 2.824l.003.002.004.001.004.002.004.001.005.001.004.002.005.001.004.001.005.002h.005l.005.002.005.001.005.001.005.002h.005l.006.002h.005l.005.002h.006l.005.001.005.001.005.001h.006l.005.001.005.001h.005l.005.001h.005l.005.001H2.32z"/><path id="_544927224" class="fil1" d="M4.04 4.622 7.825 8.41l-.005.005-.004.005-.005.004-.005.003-.004.002-.004.002-.005.002-.004.001-3.786-3.786.004-.001.004-.002.005-.002.004-.003.005-.003.004-.004.005-.004z"/><path id="_544927272" class="fil1" d="m2.17 2.824 3.786 3.787-.004-.002-.005-.002-.005-.001-.005-.001-.004-.001-.005-.001h-.005l-.005-.001H5.888l-.005.001-.005.002-3.786-3.787h.004l.005-.002h.01l.005-.001h.02l.005.002h.005l.005.002h.005l.005.002.004.002z"/><path id="_544927368" class="fil1" d="M4.184 3.815 7.97 7.6v.019l.001.01V7.686L7.97 7.7v.013l-.001.013v.014l-.001.014v.014l-.002.014v.014l-.001.014v.014l-.002.014v.014l-.002.014v.014l-.001.013-.001.013-.001.013-.001.012-.001.013v.011l-.002.011v.011l-.002.01v.01L4.165 4.21l.001-.01.001-.01v-.01l.002-.012v-.012l.002-.012v-.012l.001-.013.001-.013.001-.014.001-.013.001-.014.001-.014v-.014l.002-.014V4.01l.001-.015v-.014l.002-.014V3.94l.001-.013v-.013l.001-.013V3.823z"/><path id="_544927704" class="fil1" d="m4.154 4.29 3.787 3.787-3.786-3.786z"/><path id="_544927320" class="fil1" d="m4.376 4.25 3.786 3.787.003.003.003.004.003.004.002.005-3.786-3.786-.002-.005-.003-.004-.003-.004z"/><path id="_544927152" class="fil1" d="m4.167 4.211 3.786 3.786h-.001l-.001.001-3.786-3.786h.001V4.21z"/><path id="_544927680" class="fil1" d="M2.374 2.892 6.16 6.68l-.004-.002-.003-.001-.004-.002-.004-.001-.003-.002-.004-.002-.003-.002-.003-.003-.003-.002-.003-.003-.003-.003L2.337 2.87l.003.003.003.002.003.003.003.002.003.002.004.003.003.001.004.002.003.002.004.001z"/><path id="_544927440" class="fil1" d="M4.104 4.445 7.89 8.232v.004l-.002.005v.004l-.002.006-.001.005-.001.005-.002.006-.001.005-.001.006-.002.006-.001.006-.002.006-.002.006-.002.006-.001.006-.002.006-.002.006-.003.006-.002.006-.002.007-.002.006-.003.005-.002.006-.003.006-.002.006-.003.005-.003.005-.003.006-.003.005-.003.005-.003.004-.003.005-3.787-3.787.004-.004.003-.005.003-.005.003-.005.003-.005.003-.005.002-.006.003-.005.003-.006.002-.006.002-.006.003-.006.002-.006.002-.006.002-.006.002-.006.002-.006.002-.006.002-.007.002-.006.001-.006.002-.006.001-.005.002-.006.001-.006.001-.005.002-.006v-.005l.002-.005v-.005l.002-.004z"/><path id="_544928328" class="fil1" d="m4.682 5.221 3.786 3.786h-.004l-.005-.002-.004-.001-.005-.002-.005-.001-.005-.002-.004-.002-.005-.002-.005-.001-.005-.002-.005-.002-.005-.002-.006-.002-.005-.002-.005-.003-.005-.002-.005-.002-.005-.003-.005-.002-.005-.003-.005-.002-.005-.003-.005-.002-.005-.003-.004-.003-.005-.002-.005-.003-.004-.003-.004-.003-.005-.002-.004-.003-.004-.003L4.53 5.15l.004.003.004.002.004.003.005.003.004.003.005.003.004.002.005.003.005.003.005.002.005.003.005.002.005.003.005.002.005.002.005.003.005.002.005.002.005.002.005.003.005.002.005.001.005.002.005.002.005.002.005.002.005.001.005.002.004.001.005.002h.004z"/><path id="_544928016" class="fil1" d="m2.092 2.818 3.786 3.787h-.019l-.004-.001-.003-.002-.004-.001-.003-.003-.003-.002L2.056 2.81l.003.002.003.002.003.002.004.001.003.001.004.001h.012z"/><path id="_544928448" class="fil1" d="M2.518 3.562 6.304 7.35h-.002v-.001h-.003l-.001-.001h-.001L2.51 3.56h.001l.001.001h.003l.001.001z"/><path id="_544927776" class="fil1" d="m2.51 3.56 3.787 3.787-.003.004-.003.005-.003.005-.003.005-.003.006-.002.005-.003.006-.002.006-.003.006-.002.006-.003.006-.002.007-.002.006-.003.007-.002.006-.002.007-.002.007-.002.007-.002.007-.002.007-.002.007-.002.007-.002.007-.002.007-.002.007-.002.007-.002.007-.001.007-.002.007-.002.008-.002.006-.002.007L2.44 3.766l.002-.007.002-.007.001-.007.002-.007.002-.007.002-.007.002-.007.002-.007.002-.007.002-.007.002-.008.002-.007.002-.007.002-.007.002-.006.002-.007.002-.007.002-.007.002-.006.003-.007.002-.006.002-.006.003-.006.002-.006.003-.006.002-.006.003-.006.003-.005.003-.005.003-.005.003-.005z"/><path id="_544928232" class="fil1" d="M3.69 5.004 7.475 8.79 3.689 5.004z"/><path id="_544927896" class="fil1" d="M2.65 4.214 6.435 8h-.001L2.648 4.213h.001z"/><path id="_544928472" class="fil1" d="M3.69 5.004 7.475 8.79l-.004.006-.003.005-.004.006-.003.005-.004.005-.004.006-.003.005-.004.005-.004.005-.004.005-.004.004-.004.005-.005.004-.004.005-.004.004-.005.004-.004.004-.005.003-.005.004-.005.003-.005.003-.005.003-.005.002-.005.003-.006.002-.005.001-.006.002-.006.001h-.006l-.006.002H7.326L3.54 5.115H3.559l.006-.001.006-.001.005-.002.006-.002.005-.002.006-.002.005-.003.005-.002.005-.003.005-.003.005-.004.004-.004.005-.003.005-.004.004-.004.004-.005.004-.004.005-.005.004-.005.004-.004.003-.005.004-.005.004-.006.004-.005.003-.005.004-.006.003-.005.004-.005z"/><path id="_544927920" class="fil1" d="M6.287 8.03zM2.501 4.244z"/><path id="_544928376" class="fil1" d="M2.302 4.06 6.09 7.847l-.004.001-.004.002-.004.001-.004.001-.004.001h-.005l-.004.001h-.02l-.005-.002h-.004l-.004-.002-.004-.001-3.786-3.786h.004l.004.002.004.001h.004l.004.001h.005l.004.001h.012l.004-.001.004-.001.004-.001.004-.001.004-.002z"/><path id="_544928256" class="fil1" d="M6.222 8.059zM2.436 4.272z"/><path id="_544929000" class="fil1" d="M2.112 4.105 5.898 7.89l-.016.006L2.096 4.11z"/><path id="_544929096" class="fil1" d="m2.096 4.11 3.786 3.787-.005.002-.006.002-.005.002-.006.001-.006.002-.005.001-.006.002-.005.001-.005.001-.005.002-.005.001-.004.002-.004.001-.004.002-.003.002-.002.002L2.02 4.137l.002-.002.003-.002.004-.002.003-.002.005-.001.004-.001.005-.002.006-.001.005-.001.005-.002.006-.001.006-.002.005-.001.006-.002.005-.002z"/><path id="_544929240" class="fil1" d="m2.02 4.137 3.786 3.786-.003.003-.003.002-.003.002-.004.002-.003.001-.004.001h-.004l-.004.001h-.007l-.004-.001-.003-.001-.004-.002-.003-.002-.004-.002-.003-.003-3.786-3.786.003.003.003.002.004.002.003.001.004.001.004.001h.018l.004-.002.003-.002.004-.002.003-.002z"/><path id="_544928880" class="fil1" d="m2.5 4.323 3.787 3.786-.005.012-.004.012-.004.013-.003.013-.004.014-.004.014-.004.015-.003.015-.004.016-.003.016-.004.016-.003.016-.003.017-.004.017-.003.017-.003.017-.003.017-.003.017-.003.018-.003.017-.003.017-.002.017-.003.017-.003.017-.002.016-.003.016-.002.016-.002.016-.003.015-.002.015-.002.015-.002.014-.002.009v.01l-.002.008v.01l-.001.01v.01l-.001.01-.001.01v.01l-.001.01v.01l-.001.01v.01l-.001.01-.001.011v.01l-.002.01v.01l-.002.01-.002.01-.001.01-.002.01-.002.01-.002.01-.003.009-.003.009-.003.008-.003.009-.004.008-.004.008-.005.008-.005.008-.002.003-.003.003-.002.002-.003.003-.003.002-.003.002-.003.002-.003.002-.003.002-.004.002-.003.001-.003.001-.004.001-.004.001h-.003l-.004.001-3.786-3.786H2.3l.004-.001.004-.001.003-.001.004-.001.003-.002.004-.001.003-.002.003-.002.003-.002.003-.002.003-.002.002-.003.003-.003.002-.003.003-.003.005-.007.004-.008.004-.008.004-.008.004-.009.003-.009.003-.009.002-.009.003-.01.002-.009.002-.01.001-.01.002-.01v-.01l.002-.01v-.01l.002-.01v-.01l.001-.01V4.94l.001-.01v-.01l.001-.01v-.011l.001-.01v-.01l.001-.01.001-.01.001-.009.001-.01.001-.008.001-.01.003-.013.002-.015.002-.015.002-.015.003-.016.002-.016.003-.016.002-.017.003-.016.002-.017.003-.017.003-.018.003-.017.003-.017.003-.017.003-.017.003-.017.003-.017.003-.017.004-.017.003-.016.003-.017.004-.015.003-.016.004-.015.004-.015.003-.014.004-.014.004-.014.004-.012.004-.013z"/><path id="_544929024" class="fil1" d="m2.672 4.296 3.786 3.786-.005.001-.006.002-.006.001-.005.002-.006.001-.006.002h-.006l-.005.002-.006.002h-.006l-.005.002-.006.001-.006.001-.005.002h-.006l-.006.002h-.005l-.006.002h-.005l-.005.001H6.34l-.005.002H6.32l-.005.001h-.028L2.5 4.323h.038l.006-.001h.005l.005-.001.005-.001h.006l.005-.002h.006l.005-.002h.006l.005-.002h.006l.006-.002.005-.001.006-.001.006-.002.005-.001.006-.001.006-.002.006-.001.005-.002h.006l.006-.002.006-.002z"/><path id="_544929216" class="fil1" d="M3.138 5.004 6.924 8.79v.008h-.012L3.126 5.01h.008l.002.001h.001v-.006z"/><path id="_544928496" class="fil1" d="m2.14 5.227 3.787 3.786-.016.008-3.786-3.787z"/><path id="_544928640" class="fil1" d="m2.293 5.157 3.786 3.786-.004.003-.004.003-.004.003-.004.002-.005.003-.004.003-.005.003-.005.002-.004.003-.005.003-.005.002-.005.003-.005.002-.005.003-.005.002-.005.002L6 8.988l-.006.002-.005.002-.005.002-.005.002-.005.002L5.97 9l-.005.002-.005.001-.005.002-.004.002-.005.001-.005.002-.004.001-.005.001-.004.002L2.14 5.227h.004l.004-.002.005-.002.005-.001.004-.002.005-.001.005-.002.005-.002.005-.001.005-.002.005-.002.005-.002.005-.002.005-.003.005-.002.005-.002.005-.002.006-.003.005-.002.005-.003.005-.002.004-.003.005-.002.005-.003.005-.003.004-.002.005-.003.004-.003.005-.003.004-.003.004-.002z"/><path id="_544928544" class="fil1" d="m2.298 5.156 3.786 3.786-.005.001-3.786-3.786z"/><path id="_544929192" class="fil1" d="M2.125 5.234 5.91 9.021l-.005.002-.005.002-.005.002-.006.003-.005.001-.006.002-.005.002-.005.002-.006.001-.004.002-.005.002-.004.002-.004.002-.003.002-.003.002-.003.002-3.786-3.786.002-.003.003-.002.004-.002.004-.002.004-.002.004-.001.005-.002.005-.002.006-.001.005-.002.005-.002.006-.002.005-.002.006-.002.005-.002z"/><path id="_544928616" class="fil1" d="m2.051 5.266 3.786 3.786-.002.003-.003.003-.003.002-.004.002-.003.001-.004.002h-.003l-.004.001H5.8l-.004-.001-.004-.002-.003-.001-.004-.002-.003-.003-3.786-3.786.003.002.003.002.004.002.004.001.003.001h.004l.004.001h.007l.004-.002h.004l.003-.002.003-.002.003-.003.003-.002z"/><path id="_544929960" class="fil1" d="m3.708 5.01 3.787 3.786H7.49l-.002.001H7.48l-.002.001h-.002L3.69 5.012H3.7l.002-.001h.003l.002-.001z"/><path id="_544929984" class="fil1" d="m2.642 3.563 3.786 3.786H6.42l-.008.002h-.008l-.008.001h-.008l-.008.001h-.055l-.007-.002h-.007l-.007-.002-3.786-3.787.007.002.007.001h.007l.007.002h.056l.008-.001h.008l.008-.002h.008z"/><path id="_544929864" class="fil1" d="m3.911 4.825 3.786 3.786-.004.007-.005.006-.005.006-.005.004-.005.004-.005.004-.005.003-.004.003-.004.002-.004.002-.004.001-.003.001-.002.001H7.64l-.001.001h-.001l-.001.002-.001.001-.001.002-.002.003-.002.002-.002.003-.002.004-.002.004-.003.004-.003.004-.003.005-.004.005-.003.005-.004.005-.004.005-.004.005-.004.006-.004.005-.004.005-.005.006-.004.005-.005.005-.004.005-.005.005-.005.005-.005.004-.004.004-.005.004-.005.004-.005.003-.004.003-3.787-3.786.005-.003.005-.003.005-.004.004-.004.005-.004.005-.005.005-.004.004-.005.005-.005.005-.005.004-.005.005-.006.004-.005.004-.006.004-.005.004-.005.004-.005.004-.006.003-.005.004-.004.003-.005.003-.004.002-.004.003-.004.002-.004.002-.003.002-.003.001-.002.002-.002v-.001l.001-.001.001-.001h.002l.002-.001.002-.001.003-.001.004-.002.003-.002.005-.002.004-.002.005-.003.004-.004.005-.004.005-.005.005-.005.005-.006z"/><path id="_544929768" class="fil1" d="M3.742 4.998 7.53 8.784l-.005.002-.004.002-.004.002-.005.002h-.004l-.004.002-.004.001h-.004L3.708 5.01l.005-.001.004-.001.004-.001.004-.002.004-.001.005-.002L3.738 5z"/><path id="_544929408" class="fil1" d="m3.54 5.115 3.786 3.787-.003.003-.003.002-.004.003-.003.003-.004.002-.004.003-.004.003-.005.002-.004.002-.005.003-.004.002-.005.002-.005.002-.005.002-.005.002-.005.002-.005.001-.005.002-.005.001-.005.001-.005.002h-.005l-.005.002h-.01l-.005.001H7.18l-.007-.002-.007-.002-.007-.001-.008-.002-.007-.003-.008-.002-.007-.003-.007-.003-.008-.003-.007-.004-.007-.004-.006-.004-.007-.004-.006-.004-.005-.005-3.787-3.786.006.004.006.005.006.004.007.004.007.004.007.003.007.004.008.003.007.003.008.002.007.002.008.002.007.002.007.002.007.001h.004l.005.001H3.427l.005-.001h.005l.005-.002h.005l.005-.002.005-.001.005-.001.005-.002.005-.002.005-.001.005-.002.005-.002.005-.002.004-.002.005-.003.005-.002.004-.002.004-.003.004-.002.004-.003.004-.002.004-.003.004-.003.003-.003z"/><path id="_544929432" class="fil1" d="m3.279 5.113 3.786 3.786h-.006l-.004-.001H7.05l-.004-.001-.003-.001h-.004l-.003-.002-.004-.001-.004-.001-.004-.002-.004-.002-.004-.002-.004-.002-.005-.002-.004-.003-.005-.003-.004-.004-.005-.003-.005-.004-3.786-3.787.005.004.005.004.004.004.005.003.004.002.004.003.005.002.004.002.004.002.004.001.004.002h.003l.004.002h.004l.003.001h.004l.003.001h.003l.003.001h.004z"/><path id="_544929816" class="fil1" d="m3.284 5.113 3.787 3.786h-.006L3.279 5.113z"/><path id="_544929936" class="fil1" d="m2.976 4.87 3.786 3.787-.003-.002h-.003l-.004-.002-.003-.001-.004-.002-.003-.002-.004-.002-.004-.002-.004-.003-.004-.003-.004-.003-3.786-3.786.004.003.004.003.004.002.004.003.003.002.004.002.004.001.003.002.003.001.004.001z"/><path id="_544929720" class="fil1" d="m3.085 4.998 3.786 3.786-.004-.003-.005-.003-.005-.003-.005-.004-.004-.005L3.06 4.98l.005.004.005.004.005.004.004.003z"/><path id="_544929504" class="fil1" d="m3.126 5.01 3.786 3.787h-.004l-.005-.002h-.005l-.006-.002-.005-.002-.005-.002-.005-.002-.006-.003-3.786-3.786L3.09 5l.006.002.005.002.005.002.005.001.005.001.005.001z"/><path id="_544929744" class="fil1" d="M4.004 4.647 7.79 8.433l-.002.005-.002.006-.002.005-.003.005-.002.005-.002.006-.003.005-.002.006-.003.006-.003.005-.002.006-.003.006-.003.005-.003.006-.002.006-.003.006-.003.006-.003.006-.003.005-.004.006-.003.006-.003.006-.003.006-.003.005-.004.006-.003.005-.003.006-.004.005-.003.006-.004.005-.003.005-.004.005-3.786-3.786.004-.005.003-.005.004-.005.003-.006.003-.005.004-.006.003-.005.003-.006.004-.006.003-.005.003-.006.003-.006.003-.006.003-.006.003-.005.003-.006.003-.006.003-.006.003-.006.003-.006.003-.005.002-.006.003-.006.002-.005.003-.006.002-.005.003-.006.002-.005.002-.006L4 4.657l.003-.005z"/><path id="_544930608" class="fil1" d="m4.139 4.377 3.786 3.787-3.787-3.787z"/><path id="_544930656" class="fil1" d="m4.138 4.377 3.787 3.787-.002.006-.002.007-.002.006-.003.006-.003.005-.003.006-.003.005-.002.005-.003.004-.003.004-.002.003-.002.004-.002.002-.002.002v.002H7.89L4.104 4.446l.001-.002.001-.002.002-.003.002-.003.003-.003.003-.004.002-.005.003-.004.003-.005.003-.006.003-.006.002-.005.003-.007.002-.006z"/><path id="_544930440" class="fil1" d="m4.322 4.317 3.786 3.786h-.037l-.005-.001h-.005L8.056 8.1h-.005l-.005-.002H8.04l-.005-.001-.005-.001-.006-.001-.005-.001-.006-.001-.005-.001-.006-.001-.005-.002H7.99l-.006-.002-.005-.001-.006-.002-.005-.001-.006-.001-.006-.002-.005-.001-.006-.002-.005-.001-3.787-3.786.006.001.006.001.005.002.006.001.005.002h.006l.006.002.005.002h.006l.005.002.006.001.005.001.006.002h.005l.006.002h.005l.006.002h.005l.005.001h.006l.005.002h.01l.005.001h.01l.005.001H4.318z"/><path id="_544930488" class="fil1" d="m4.156 4.292 3.786 3.786-.017.086-3.786-3.787z"/><path id="_544930296" class="fil1" d="m4.387 4.267 3.786 3.786.005.012.005.013.004.013.005.014.004.014.005.016.004.015.004.017.004.016.004.017.004.018.004.017.004.018.003.019.004.018.004.019.003.018.003.019.004.019.003.018.003.02.003.018.003.018.003.018.002.018.003.018.003.017.002.017.003.017.002.016.003.016.002.015.001.008.001.008.001.008v.008l.002.009v.018l.001.009v.009l.001.01v.008l.001.01v.01l.001.009v.009l.001.01.001.009v.009l.002.009v.009l.002.009.001.008.001.009.002.008.001.008.002.007.002.008.003.007.002.006.003.007.002.006.004.005-3.787-3.786-.003-.006-.003-.006-.002-.006-.003-.007-.002-.007-.002-.007-.002-.008-.001-.008-.002-.008-.001-.008-.002-.009v-.008l-.002-.01v-.008l-.001-.01v-.009l-.001-.01-.001-.009V4.92l-.001-.01V4.9l-.001-.01v-.008l-.001-.01v-.009l-.001-.009v-.008l-.001-.009-.001-.008L4.5 4.82 4.5 4.813l-.001-.008-.003-.015-.002-.016-.002-.016-.003-.017-.002-.017-.003-.017-.003-.018-.003-.018-.003-.018-.002-.019-.003-.018-.004-.019-.003-.019-.003-.018-.003-.019-.004-.019-.003-.018-.004-.019-.003-.018-.004-.018-.004-.018-.004-.017-.004-.017-.004-.017-.004-.016-.005-.016-.004-.015-.004-.014-.005-.014-.005-.014-.004-.012z"/><path id="_544930272" class="fil1" d="m4.832 5.21 3.786 3.786.002.003.003.003.001.004.001.004.001.003v.004l.001.004v.007l-.002.004v.004l-.002.003-.002.003-.003.003-.002.003-.003.003-3.786-3.786.003-.003.002-.003.002-.003.002-.003.002-.004.001-.003.001-.004v-.019l-.002-.003-.002-.004-.002-.003z"/><path id="_544930200" class="fil1" d="m4.53 5.15 3.785 3.787-.004-.001L4.525 5.15z"/><path id="_544931088" class="fil1" d="M7.697 8.611zM3.911 4.825z"/><path id="_544930896" class="fil1" d="M4.525 5.15 8.31 8.936h-.004l-.003-.001-.004-.001-.004-.001-.003-.001-.004-.002-.003-.001-.003-.002-.003-.002-.003-.002-.003-.002-.003-.002-.003-.003L4.482 5.13l.003.002.002.003.003.002.003.002.004.002.003.002.003.001.004.002h.003l.004.002h.003l.004.001z"/><path id="_544931448" class="fil1" d="m4.698 5.228 3.786 3.786-.016-.007-3.786-3.786z"/><path id="_544931328" class="fil1" d="m4.769 5.257 3.786 3.787-.003-.003-.003-.002-.004-.002-.004-.001-.005-.002-.004-.002-.006-.002-.005-.001-.005-.002-.006-.002-.005-.002-.006-.002-.005-.002-.005-.002-.005-.003-3.787-3.786.006.003.005.002.005.002.006.002.005.002.006.002.005.002.005.001.005.002.005.002.005.001.004.002.004.002.003.002z"/><path id="_544930920" class="fil1" d="M4.827 5.265 8.613 9.05l-.003.002-.004.003-.003.001-.004.001-.004.001h-.003l-.004.001H8.58l-.003-.001-.004-.002-.003-.001-.004-.002-.003-.003-.003-.002-3.786-3.786.003.002.003.002.003.002.004.002.003.001.004.001h.019l.003-.002.004-.002.003-.002z"/><path id="_544931184" class="fil1" d="m4.826 5.203 3.786 3.786.006.007-3.786-3.787z"/><path id="_544931256" class="fil1" d="M4.732 4.114 8.518 7.9 8.5 7.894 4.714 4.108z"/><path id="_544931304" class="fil1" d="M3.988 2.865 7.774 6.65l-.035.018-3.787-3.786z"/><path id="_544930800" class="fil1" d="m3.415 2.469 3.787 3.786L3.415 2.47z"/><path id="_544930968" class="fil1" d="M4.362 3.494 8.148 7.28l.004.004-3.786-3.786z"/><path id="_544931064" class="fil1" d="m4.714 4.108 3.787 3.786-.008-.002-.007-.001-.008-.002-.008-.002-.008-.003-.008-.002-.008-.002-.008-.003-.008-.003-.008-.003-.008-.003-.007-.003-.008-.003-.008-.003-.007-.004-.008-.003L4.59 4.066l.007.003.008.004.008.003.007.003.008.003.008.003.008.003.008.003.008.002.008.003.008.002.008.002.008.002.008.002.007.002z"/><path id="_544932000" class="fil1" d="M4.864 4.086 8.65 7.872l.003.003.002.003.002.003.002.004v.004l.002.003v.015l-.002.004v.003l-.003.004-.002.003-.002.003-.003.003-.003.003-.003.002-.003.002-.004.002h-.003l-.004.002h-.015l-.004-.002h-.003l-.004-.003-.003-.002-.003-.002-.003-.003L4.808 4.14l.002.003.004.002.003.002.003.002.004.001.004.001h.003l.004.001h.008l.003-.001.004-.002.003-.001.004-.002.003-.002.003-.003.003-.003.002-.003.002-.003.002-.004.001-.003.001-.004v-.004l.001-.004v-.007l-.001-.004-.002-.003-.001-.004-.002-.003-.002-.003z"/><path id="_544932048" class="fil1" d="M3.664 2.688 7.45 6.474l.003.004.003.003.003.004.004.005.003.005.003.005.003.005.003.006.003.006.003.007-3.786-3.786-.003-.007-.003-.006-.003-.006-.003-.006-.003-.005-.004-.004-.003-.005-.003-.004-.003-.004z"/><path id="_544932312" class="fil1" d="M4.242 3.117 8.03 6.903v.022l-.002.007v.006l-.002.007-.002.006-.002.006-.003.006-.002.006-.003.005-.003.006-.003.005-.003.006-.003.005-.003.006-.002.003-.002.004-.002.003-.002.004-.002.003-.002.004-.001.003-.002.004-.001.003-.002.004-.001.004-.001.003-.001.004-.001.004v.003l-.001.004-3.786-3.786v-.008l.001-.003.001-.004.002-.004v-.003l.002-.004.002-.003.001-.004.002-.004.002-.003.002-.004.002-.003.002-.003.002-.004.002-.003.003-.006.003-.005.003-.006.003-.005.003-.006.003-.006.002-.005.002-.006.002-.006.002-.007.002-.006.001-.007V3.14l.001-.007v-.008z"/><path id="_637656904" class="fil1" d="M3.911 4.825zm-1.475-.553zm.065-.028zm.527-1.454zm.533-.338a1.13 1.13 0 0 1 1.309-.887.035.035 0 0 1-.013.07 1.058 1.058 0 0 0-1.23.864.04.04 0 0 1 .002.03l-.006.02a.074.074 0 0 1 .016.052.21.21 0 0 0 .008.071.16.16 0 0 1 .048.066c.009.02.034.028.068.04l.03.01a.583.583 0 0 1 .09.04v.002a.931.931 0 0 1 .072-.037.31.31 0 0 0 .065-.04c.015-.011.024-.021.028-.032.008-.027.036-.034.062-.027.03.008.054.016.085.03.042.018.12.051.179.073.032.012.053.022.056.022l.002-.001a.023.023 0 0 0 .005-.006.061.061 0 0 1 .053-.033c.04 0 .104-.013.136-.025a.208.208 0 0 1 .127-.01.04.04 0 0 1-.02.077.13.13 0 0 0-.078.006.548.548 0 0 1-.154.03.096.096 0 0 1-.017.02.084.084 0 0 1-.033.018c-.017.004-.057-.007-.105-.025a3.874 3.874 0 0 1-.183-.075l-.056-.02a.309.309 0 0 1-.12.09l-.035.018a.255.255 0 0 0 .06.024c.068.02.225.133.23.21.003.041-.013.07-.03.099a.141.141 0 0 0-.023.057 9.71 9.71 0 0 1-.003.21v.004a.35.35 0 0 0 .107.002l.002-.002a.053.053 0 0 1 .07.011c.052.062.068.136.094.233.023.085.064.244.1.262l.009-.003a.072.072 0 0 1 .053.003.46.46 0 0 0 .11.038l.032.01c.028.013.067.01.101.045a.04.04 0 0 1-.056.054c-.012-.012-.049-.014-.076-.026l-.018-.006a.555.555 0 0 1-.124-.042.085.085 0 0 1-.065-.002c-.066-.033-.11-.196-.137-.295-.019-.071-.039-.157-.072-.206a.353.353 0 0 1-.13.003c-.003.09-.005.179-.002.249.004.09-.01.297-.019.396h.002l-.002.001a.527.527 0 0 0 .156.026h.002a.052.052 0 0 1 .064.029c.052.123.087.379.112.538.012.08.003.21.037.267a.088.088 0 0 1 .04.015.43.43 0 0 0 .126.058l.032.014c.028.014.067.013.098.05a.04.04 0 0 1-.06.05c-.011-.012-.048-.017-.074-.03v-.001l-.016-.007a.512.512 0 0 1-.153-.07l-.004-.001a.068.068 0 0 1-.05-.029c-.055-.077-.04-.211-.054-.304-.023-.148-.055-.38-.099-.5a.592.592 0 0 1-.166-.025l-.017.085c-.008.036-.035.065-.035.068a.487.487 0 0 1-.065.177.065.065 0 0 1-.035.025.992.992 0 0 1-.093.178c-.026.038-.057.043-.06.045 0 .001-.058.1-.109.128a.107.107 0 0 1-.034.012l-.018.002v-.008c-.037.059-.081.114-.15.111a.203.203 0 0 1-.146.048.213.213 0 0 1-.11-.05H3.28c-.033-.003-.077-.007-.141-.109l-.001.008-.01-.001a.116.116 0 0 1-.042-.013c-.05-.028-.108-.126-.11-.128a.107.107 0 0 1-.059-.045c-.056-.08-.072-.128-.129-.203l-.03-.072a27.07 27.07 0 0 1-.068-.173l-.017-.081a.607.607 0 0 1-.172.027c-.044.12-.076.352-.099.5-.014.094.002.226-.053.304a.069.069 0 0 1-.05.029h-.005a.5.5 0 0 1-.152.071l-.016.007c-.026.014-.063.019-.074.032a.04.04 0 1 1-.06-.05c.03-.038.07-.037.097-.051l.032-.014a.427.427 0 0 0 .127-.058.088.088 0 0 1 .04-.015c.034-.057.024-.187.037-.267.023-.153.06-.423.112-.539a.052.052 0 0 1 .064-.029H2.5l.002.001a.519.519 0 0 0 .148-.024l-.001-.005-.002-.002a4.351 4.351 0 0 1-.005-.398c.004-.07.001-.16-.001-.252a.39.39 0 0 1-.124 0 .085.085 0 0 1-.007-.003c-.033.049-.052.133-.072.206-.027.1-.07.262-.137.294a.085.085 0 0 1-.065.003.556.556 0 0 1-.125.042l-.016.006c-.028.012-.065.014-.076.026a.04.04 0 0 1-.057-.055c.034-.035.073-.031.1-.043l.034-.011a.463.463 0 0 0 .11-.038c.03-.015.059 0 .061 0 .038-.018.082-.198.105-.283a.517.517 0 0 1 .09-.213.054.054 0 0 1 .07-.01l.003.002a.354.354 0 0 0 .103-.002v-.001l-.001-.002V3.272c-.001-.042-.058-.084-.054-.155.005-.076.163-.19.231-.21a.248.248 0 0 0 .06-.025h.003c-.044-.023-.082-.036-.123-.07a.201.201 0 0 1-.037-.04l-.056.02c-.042.02-.12.053-.183.076a.438.438 0 0 1-.085.025.04.04 0 0 1-.02 0 .089.089 0 0 1-.05-.038.545.545 0 0 1-.154-.03.13.13 0 0 0-.078-.007.04.04 0 0 1-.02-.076.206.206 0 0 1 .128.01.46.46 0 0 0 .135.024c.023 0 .043.014.054.033l.006.008c.003 0 .024-.01.057-.023a3.75 3.75 0 0 0 .178-.073.37.37 0 0 1 .108-.032c.02.001.035.012.04.032.002.007.015.02.027.03.034.028.073.042.112.064l.048.027c.013 0 .024-.035.043-.043l.02-.01a.67.67 0 0 1 .01-.003l.026-.008c.034-.012.06-.02.068-.04a.161.161 0 0 1 .048-.066.21.21 0 0 0 .008-.071.074.074 0 0 1 .014-.051h.003l-.007-.022a.04.04 0 0 1 .003-.03l.003-.003a1.058 1.058 0 0 0-1.234-.86.035.035 0 0 1-.013-.07 1.13 1.13 0 0 1 1.31.887.042.042 0 0 1 .004-.001.04.04 0 0 1 .037.029 1.034 1.034 0 0 1 .005.018.163.163 0 0 1 .102-.03.159.159 0 0 1 .1.031l.005-.019a.04.04 0 0 1 .036-.03l.005.002z"/></g></g><path d="M3.413 0a3.413 3.413 0 1 1 0 6.827 3.413 3.413 0 0 1 0-6.827z" style="fill:none"/><path class="fil3" d="M3.241 2.512a.035.035 0 0 1-.04-.028 1.058 1.058 0 0 0-1.231-.849.035.035 0 0 1-.013-.07 1.13 1.13 0 0 1 1.313.906.035.035 0 0 1-.029.041zM3.585 2.512c.02.004.038-.009.042-.028a1.058 1.058 0 0 1 1.23-.849.035.035 0 0 0 .013-.07 1.13 1.13 0 0 0-1.313.906c-.004.02.01.038.028.041z"/><path class="fil4" d="m3.621 2.556.008-.028a.04.04 0 0 0-.003-.03.159.159 0 0 0-.07-.047.04.04 0 0 0-.036.029.977.977 0 0 0-.007.027l.108.048z"/><path class="fil5" d="M2.886 2.887c-.048-.026-.087-.04-.13-.075a.201.201 0 0 1-.038-.04l-.056.02c-.042.02-.12.053-.183.076a.438.438 0 0 1-.085.025.04.04 0 0 1-.02 0 .089.089 0 0 1-.05-.038.545.545 0 0 1-.154-.03.13.13 0 0 0-.078-.007.04.04 0 0 1-.02-.076.206.206 0 0 1 .128.01.46.46 0 0 0 .135.024c.023 0 .043.014.054.033l.006.008c.003 0 .024-.01.057-.023a3.75 3.75 0 0 0 .178-.073.37.37 0 0 1 .108-.032c.02.001.035.012.04.032.002.007.015.02.027.03.034.028.073.042.112.064.016.008.037.02.054.031l-.084.04h-.001zM2.658 3.56a.435.435 0 0 1-.14.002.085.085 0 0 1-.007-.002c-.033.049-.052.133-.072.206-.027.1-.07.262-.137.294a.085.085 0 0 1-.065.003.556.556 0 0 1-.125.042l-.016.006c-.028.012-.065.014-.076.026a.04.04 0 0 1-.057-.055c.034-.035.073-.031.1-.043l.034-.011a.463.463 0 0 0 .11-.038c.03-.015.059 0 .061 0 .038-.018.082-.198.105-.283a.517.517 0 0 1 .09-.213.054.054 0 0 1 .07-.01l.003.002a.41.41 0 0 0 .118-.003l.004.076v.001zM2.693 4.29c-.066.017-.14.037-.193.033-.044.12-.076.352-.099.5-.014.094.002.226-.053.304a.069.069 0 0 1-.05.029h-.005a.5.5 0 0 1-.152.071l-.016.007c-.026.014-.063.019-.074.032a.04.04 0 1 1-.06-.05c.03-.038.07-.037.097-.051l.032-.014a.427.427 0 0 0 .127-.058.088.088 0 0 1 .04-.015c.034-.057.024-.187.037-.267.023-.153.06-.423.112-.539a.052.052 0 0 1 .064-.029H2.5l.002.001c.037.005.108-.014.168-.03v.002l.022.074zM4.137 4.205c.062.015.145.039.184.033h.002a.052.052 0 0 1 .064.029c.052.123.087.379.112.538.012.08.003.21.037.267a.088.088 0 0 1 .04.015.43.43 0 0 0 .126.058l.032.014c.028.014.067.013.098.05a.04.04 0 0 1-.06.05c-.011-.012-.048-.017-.074-.03v-.001l-.016-.007a.512.512 0 0 1-.153-.07l-.004-.001a.068.068 0 0 1-.05-.029c-.055-.077-.04-.211-.054-.304-.023-.148-.055-.38-.099-.5-.052.004-.128-.016-.194-.033l.01-.076-.001-.003zM4.17 3.485a.412.412 0 0 0 .123.004l.002-.002a.053.053 0 0 1 .07.011c.052.062.068.136.094.233.023.085.064.244.1.262l.009-.003a.072.072 0 0 1 .053.003.46.46 0 0 0 .11.038l.032.01c.028.013.067.01.101.045a.04.04 0 0 1-.056.054c-.012-.012-.049-.014-.076-.026l-.018-.006a.555.555 0 0 1-.124-.042.085.085 0 0 1-.065-.002c-.066-.033-.11-.196-.137-.295-.019-.071-.039-.157-.072-.206a.393.393 0 0 1-.146 0l.001-.077v-.001zM3.874 2.836a.977.977 0 0 1 .08-.042.31.31 0 0 0 .066-.04c.015-.012.024-.022.028-.033.008-.027.036-.034.062-.027.03.008.054.016.085.03.042.018.12.051.179.073.032.012.053.022.056.022l.002-.001a.023.023 0 0 0 .005-.006.061.061 0 0 1 .053-.033c.04 0 .104-.013.136-.025a.208.208 0 0 1 .127-.01.04.04 0 0 1-.02.077.13.13 0 0 0-.078.006.548.548 0 0 1-.154.03.096.096 0 0 1-.017.02.084.084 0 0 1-.033.018c-.017.004-.057-.007-.105-.025a3.874 3.874 0 0 1-.183-.075l-.056-.02a.309.309 0 0 1-.12.09l-.047.024h-.001l-.065-.053z"/><path class="fil4" d="m3.206 2.556-.008-.028a.04.04 0 0 1 .003-.03.189.189 0 0 1 .07-.047.04.04 0 0 1 .037.029l.006.027-.108.048z"/><path class="fil3" d="M3.624 2.549a.074.074 0 0 1 .015.052.21.21 0 0 0 .008.071.16.16 0 0 1 .048.066c.009.02.034.028.068.04.036.011.08.025.12.05v.003l.065.052h.003a.251.251 0 0 0 .06.024c.069.02.226.133.231.21.003.041-.013.07-.03.099a.141.141 0 0 0-.023.057 9.71 9.71 0 0 1-.003.21l-.001.077v.001a3.603 3.603 0 0 0-.001.254c.004.09-.01.297-.019.396h.002c-.002 0-.003 0-.003.002l-.01.076c0 .001 0 .002.002.003l-.017.085c-.008.036-.035.065-.035.068a.487.487 0 0 1-.065.177.065.065 0 0 1-.035.025.995.995 0 0 1-.093.178c-.026.038-.057.043-.06.045 0 .001-.058.1-.109.128a.133.133 0 0 1-.052.014v-.008c-.037.059-.081.114-.15.111a.203.203 0 0 1-.146.048.213.213 0 0 1-.11-.05H3.28c-.033-.003-.077-.007-.141-.109l-.001.008a.133.133 0 0 1-.052-.014c-.05-.028-.108-.126-.11-.128a.107.107 0 0 1-.059-.045c-.056-.08-.072-.128-.129-.203l-.03-.072a27.07 27.07 0 0 1-.068-.173l-.018-.086v-.002l-.021-.074-.002-.002a4.351 4.351 0 0 1-.005-.398 3.67 3.67 0 0 0 0-.256l-.004-.076-.001-.002V3.272c-.001-.042-.058-.084-.054-.155.005-.076.163-.19.231-.21a.248.248 0 0 0 .06-.025h.003l.086-.039.001-.001c.013 0 .024-.035.043-.043l.02-.01.036-.011c.034-.012.06-.02.068-.04a.161.161 0 0 1 .048-.066.21.21 0 0 0 .008-.071.074.074 0 0 1 .014-.051h.003l.108-.048a.002.002 0 0 0 0-.004.163.163 0 0 1 .102-.03.159.159 0 0 1 .103.033l.103.048h.003z"/><path class="fil6" d="m3.792 2.787.042.016c.015.013.036.012.047.025l.002.002.053.043.012.01h.003a.251.251 0 0 0 .06.024c.069.02.226.133.231.21.003.041-.013.07-.03.099a.141.141 0 0 0-.023.057 9.71 9.71 0 0 1-.003.21l-.001.077v.001a3.603 3.603 0 0 0-.001.254c.004.09-.01.297-.019.396h.002c-.002 0-.003 0-.003.002l-.01.076c0 .001 0 .002.002.003l-.017.085c-.008.036-.035.065-.035.068a.487.487 0 0 1-.065.177.065.065 0 0 1-.035.025.995.995 0 0 1-.093.178c-.026.038-.057.043-.06.045 0 .001-.058.1-.109.128a.107.107 0 0 1-.034.012c-.174-.499-.283-1.171-.283-1.848 0-.153.144-.288.367-.375zM3.126 5.01a.116.116 0 0 1-.04-.012c-.051-.028-.109-.126-.11-.128a.107.107 0 0 1-.06-.045c-.056-.08-.072-.128-.129-.203l-.03-.072a27.07 27.07 0 0 1-.068-.173l-.018-.086v-.002l-.021-.074-.002-.002a4.351 4.351 0 0 1-.005-.398 3.67 3.67 0 0 0 0-.256l-.004-.076-.001-.002V3.272c-.001-.042-.058-.084-.054-.155.005-.076.163-.19.231-.21a.248.248 0 0 0 .06-.025h.003l.086-.039.001-.001c.013 0 .024-.035.043-.043l.02-.01a.683.683 0 0 1 .01-.003c.226.086.372.223.372.376 0 .677-.109 1.35-.284 1.849z"/><path class="fil3" d="M3.639 2.601"/><path d="m3.649 2.678-.002-.006.002.006z" style="fill:#424242;fill-rule:nonzero"/><path class="fil8" d="M3.583 3.248a.04.04 0 1 0-.056.055l.37.315-.314-.37zM3.226 3.728a.04.04 0 1 1 .067.04l-.29.407.223-.447zM3.589 3.728a.04.04 0 1 0-.068.04l.29.407-.222-.447zM3.17 4.284a.04.04 0 0 1 .073.03l-.209.415.136-.445zM3.657 4.284a.04.04 0 0 0-.073.03l.209.415-.136-.445zM3.232 3.248a.04.04 0 1 1 .056.055l-.37.315.314-.37z"/><path style="fill:#824e21" d="M2.787 4.622"/></g></svg>