<svg xmlns="http://www.w3.org/2000/svg" xml:space="preserve" width="655.359" height="655.359" style="shape-rendering:geometricPrecision;text-rendering:geometricPrecision;image-rendering:optimizeQuality;fill-rule:evenodd;clip-rule:evenodd" viewBox="0 0 6.827 6.827"><defs><clipPath id="id0"><path d="M3.413 0a3.413 3.413 0 1 1 0 6.827 3.413 3.413 0 0 1 0-6.827z"/></clipPath><style>.fil2{fill:none}.fil4{fill:#630}.fil1{fill:#b71c1c}.fil11{fill:#bf8d43}.fil3{fill:#dca553}</style></defs><g id="Layer_x0020_1"><path d="M3.413 0a3.413 3.413 0 1 1 0 6.827 3.413 3.413 0 0 1 0-6.827z" style="fill:#d32f2f"/><g style="clip-path:url(#id0)"><g id="_637661128"><path id="_4627446481" class="fil1" d="m5.059 2.926 3.786 3.787v.004l-.001.004v.004l-.001.004v.005l-.001.004v.004l-.001.004v.004l-.001.004v.005l-.001.004v.008l-.001.004v.004L5.05 2.993v-.008l.001-.004v-.005l.001-.004v-.004l.001-.004V2.96l.001-.004V2.95l.001-.004v-.004l.001-.004v-.004l.001-.005z"/><path id="_462744672" class="fil1" d="m5.141 3.119 3.787 3.786v.005l.002.005v.005l.002.005v.005l.002.005v.005l.002.005v.004l.002.005v.004l.002.004v.004l.002.004v.003l.002.003L5.157 3.19v-.003l-.002-.004V3.18l-.002-.004v-.004l-.002-.004v-.005l-.002-.004v-.005l-.002-.005v-.005l-.002-.005v-.005l-.002-.005v-.005z"/><path id="_462749208" class="fil1" d="m5.183 3.203 3.786 3.786.004.006.003.006.002.008v.007L5.192 3.23v-.008l-.002-.007-.003-.006z"/><path id="_462749256" class="fil1" d="m5.192 3.23 3.786 3.786V7.14l.001.004V7.152L5.193 3.366V3.335l-.001-.004V3.301l-.001-.004V3.234z"/><path id="_462748872" class="fil1" d="M5.193 3.366 8.98 7.152V7.165l.001.004v.01L5.194 3.392V3.37z"/><path id="_462749856" class="fil1" d="M5.194 3.392 8.98 7.18v.013l.001.014v.091l-.001.013-.002.012-.001.013-.002.012-.002.012-.002.011-.003.012-.003.011-.004.011-.004.01-.004.011-.005.01-.005.01-.006.01-.006.01-.007.008-.008.009-.008.008-.009.008-.01.008-.01.007-.01.007-.011.006L5.07 3.74l.012-.006.01-.007.01-.007.01-.008.009-.008.008-.008.007-.009.007-.009.007-.01.006-.009.005-.01.005-.01.004-.01.004-.011.004-.011.003-.012.003-.011.002-.012.002-.012.002-.012.001-.012.001-.012.001-.013v-.013l.001-.013v-.079z"/><path id="_462750096" class="fil1" d="M4.392 3.102 8.178 6.89l.01.01.008.01.009.01.008.01.009.011.008.011.008.012.009.012.008.012.009.012.009.013.008.013.01.014.009.014.01.014.01.015.01.015-3.786-3.786-.01-.015-.01-.015-.01-.015-.01-.014-.009-.013-.009-.013-.008-.013-.009-.013-.008-.012-.009-.011-.008-.012-.009-.011-.008-.01-.009-.012-.008-.01-.01-.01z"/><path id="_462749832" class="fil1" d="M4.544 3.311 8.33 7.097l.003.006.004.005.003.005.003.006.003.005.003.006.002.005.003.006.003.006.002.006.003.006.002.006.002.006.003.006.002.007.003.006.002.006.003.007.002.006.003.007.002.006.003.007.003.007.003.007.003.007.003.007.004.007.003.007.004.007.004.007.004.007.004.007.008.013.01.013.01.013-3.786-3.786-.01-.013-.01-.013-.009-.013-.004-.007-.004-.007-.004-.008-.003-.007-.004-.007-.003-.007-.003-.007-.003-.007-.003-.006-.003-.007-.003-.007-.002-.006-.003-.007-.003-.007-.002-.006-.003-.006-.002-.007-.002-.006-.003-.006-.002-.006-.003-.006-.002-.006-.003-.006-.002-.006-.003-.006-.003-.006-.002-.005-.003-.006-.003-.005-.004-.005-.003-.006z"/><path id="_462749760" class="fil1" d="m5.071 3.74 3.787 3.786-.005.003-.005.002-.005.003-.005.002-.006.003-.005.002-.005.002-.005.002-.005.002-.005.002-.005.002-.005.002-.005.001-.005.002-.005.002-.006.001-.005.001-.005.002-.005.001-.005.001-.005.001-.005.002H8.74l-.005.001-.006.001-.005.001H8.72l-.005.002h-.01l-.005.001h-.014l-.005.001H8.658L4.872 3.788h.037l.005-.001h.005l.005-.001h.005l.005-.001.005-.001h.005l.005-.002h.005l.005-.002h.006l.005-.002.005-.001.005-.001.005-.002.005-.001.005-.002L5 3.77l.005-.002.006-.002.005-.001.005-.002.005-.002.005-.002.005-.002.005-.003.005-.002.005-.002.005-.002.005-.003.005-.002z"/><path id="_462750048" class="fil1" d="M5.193 4.013 8.98 7.799v.014l.001.005v.005l.001.004v.005l.001.004v.005l.001.004.001.005v.004l.002.004v.004l.001.005.001.004.001.004v.004l.002.004v.004l.002.004v.004l.002.004.001.004.001.004.001.004.002.004v.004l.002.004.001.004.002.004v.003L5.222 4.148l-.002-.004-.001-.004-.001-.003-.001-.004-.002-.004v-.004l-.002-.004-.001-.004-.001-.004-.001-.004-.001-.004-.001-.004-.001-.004-.001-.004-.001-.004-.001-.004-.001-.005v-.004L5.2 4.072v-.004l-.001-.005V4.06l-.001-.005-.001-.004v-.004l-.001-.005v-.005l-.001-.004v-.005l-.001-.005v-.004z"/><path id="_462749976" class="fil1" d="m5.22 4.148 3.787 3.786.003.008.003.008.003.007.003.008.003.008.003.007.003.008.004.007.003.008.004.008.004.007.003.008.004.008.004.008.004.008.004.008-3.786-3.786-.004-.008-.004-.008-.004-.008-.004-.008-.004-.008-.003-.008-.004-.007-.003-.008-.004-.008-.003-.007-.003-.008-.004-.007-.003-.008-.003-.008-.003-.007z"/><path id="_462750024" class="fil1" d="m5.276 4.272 3.786 3.786.001.003.002.003v.004l.001.003v.011l-.001.004L5.279 4.3v-.008l.001-.003v-.007l-.002-.004v-.003z"/><path id="_462750072" class="fil1" d="M4.965 4.133 8.75 7.92l-.003-.003-.003-.003-.003-.003-.003-.003-.004-.002-.003-.003-.003-.002-3.787-3.786.004.002.003.002.003.003.004.003.003.002.003.003z"/><path id="_462749424" class="fil1" d="M4.942 4.115 8.73 7.9l-.005-.003-.004-.002-.004-.002-.005-.002-.005-.003-.005-.002-.005-.001-.005-.002-.005-.002-.005-.002-.006-.001-.005-.002h-.006l-.006-.002-.006-.001-.006-.002h-.007l-.006-.002h-.007l-.006-.002h-.007l-.007-.002h-.007l-.007-.001h-.007l-.008-.002h-.015l-.008-.001-.007-.001h-.008L8.53 7.86 4.744 4.074h.016l.008.001h.008l.007.002h.015l.008.002h.007l.007.001.007.001.006.001h.007l.007.002.006.001.006.001.007.001.006.002h.005l.006.002.006.002.005.001.006.002.005.002.005.001.005.002.005.002.005.002.004.002.005.003.004.002z"/><path id="_462749496" class="fil1" d="M4.744 4.074 8.531 7.86l-.012-.001-.012-.001-.011-.001-.012-.001-.012-.002-.011-.001-.012-.002-.011-.002-.012-.002-.011-.002-.011-.002-.012-.002-.01-.002-.012-.003-.011-.002-.011-.003-.011-.003-.011-.003-.011-.003-.01-.003-.012-.004-.01-.003-.01-.004-.011-.003-.01-.004-.011-.004-.01-.004-.01-.004-.011-.005-.01-.004-.01-.004-.01-.005-3.786-3.786.01.004.01.005.01.004.01.004.01.005.01.004.01.004.011.003.01.004.011.004.011.003.01.003.012.004.01.003.011.003.011.003.012.002.01.003.012.002.011.003.011.002.012.002.011.002.012.002.011.002.011.001.012.002.012.001.011.002h.012l.012.002z"/><path id="_462749640" class="fil1" d="m4.133 3.782 3.786 3.786v.001h-.001v.001h-.001v.001L4.13 3.785l.001-.001v-.001h.001v-.001z"/><path id="_442140680" class="fil1" d="m5.279 4.3 3.786 3.786-.003.009-.003.008-.003.007-.003.008-.004.007-.004.007-.004.006-.004.007-.004.006-.005.005-.004.006-.005.006-.005.005-.004.006-.005.005L9 8.189 5.214 4.403l.005-.005.004-.006.005-.005.005-.006.005-.005.004-.006.005-.006.004-.006.004-.006.004-.006.004-.007.003-.007.004-.008.003-.008.003-.008z"/><path id="_442140344" class="fil1" d="M5.214 4.403 9 8.189l-.004.004-.003.004-.003.004-.004.003-.003.004-.003.004-.004.004-.003.004-.003.004-.003.005-.002.004-.003.004-.002.005-.002.004-.002.005-.002.005L5.168 4.47l.001-.005.002-.005.003-.005.002-.004.003-.004.002-.005.003-.004.003-.004.003-.004.003-.004.004-.004.003-.004.003-.004.004-.004.003-.003z"/><path id="_442140632" class="fil1" d="m5.168 4.47 3.786 3.786-.002.006-.003.006-.004.005-.004.004-.006.003-.005.003-.007.002h-.006L5.13 4.5h.006l.006-.002.006-.003.005-.003.005-.005.004-.005.003-.005z"/><path id="_442140824" class="fil1" d="M4.13 3.785 7.916 7.57l-.008.01-.008.01-.008.008-.008.01-.007.008-.008.008-.007.007-.007.008-.007.007-.007.007-.007.006-.007.007-.006.006-.007.006-.006.005-.006.006-.006.005-.006.005-.006.004-.006.005-.006.004-.005.005-.006.004-.005.004-.005.004-.005.003-.006.004-.005.004-.004.003-.005.003-.005.004-.005.003L3.93 3.968l.005-.004.004-.003.005-.003.005-.004.005-.003.005-.004.006-.004.005-.003.005-.004.006-.005.005-.004.006-.004.006-.005.005-.005.006-.005.007-.005.006-.005.006-.006.006-.006.007-.006.007-.006.007-.007.006-.006.008-.008.007-.007.007-.008.008-.008.007-.008.008-.009.008-.009.008-.01z"/><path id="_442140272" class="fil1" d="M4.394 3.985 8.18 7.77l-.01-.005-.01-.004-.009-.005-.01-.005-.009-.005-.009-.006-.01-.005-.008-.005-.01-.006-.008-.005-.009-.006-.008-.006-.009-.006-.008-.006-.009-.006-.008-.006-.008-.007-.008-.006-.008-.007-.008-.006-.007-.007-.008-.007-.007-.007-.007-.007-.007-.007L4.18 3.837l.007.007.008.007.007.007.007.007.008.007.008.006.008.007.008.006.008.006.008.007.008.006.009.006.008.006.009.006.009.005.009.006.009.005.009.006.009.005.01.005.008.005.01.005.01.005.01.005z"/><path id="_442140656" class="fil1" d="m5.13 4.499 3.787 3.786h-.022l-.013.002H8.87l-.014.002h-.014l-.015.002-.015.001-.015.002H8.78l-.015.001h-.016l-.015.001H8.705l-.014-.002-.014-.001-.013-.002-.011-.003-.011-.004-.01-.004-.01-.005-.007-.006-3.786-3.786.007.006.01.005.01.004.01.004.012.002.013.003.013.001.014.001h.076l.015-.002h.016l.015-.002.015-.001.014-.002h.014l.013-.002h.024z"/><path id="_442140704" class="fil1" d="m3.552 3.805 3.786 3.787-.013.006-.013.006-.013.005-.013.006-.012.005-.012.005-.013.004-.012.004-.012.004-.011.004-.012.003-.011.003-.012.003-.011.002-.011.002-.011.002-.01.001-.011.002h-.011l-.01.001h-.041l-.01-.001-.01-.002-.01-.001-.01-.002-.009-.002-.009-.003-.01-.002-.009-.003L3.2 3.857l.01.003.009.003.01.003.009.002.01.002.009.001.01.001.01.001h.01l.01.001h.03l.011-.002h.011l.01-.002.012-.002.01-.002.012-.003.011-.002.012-.003.011-.004.012-.003.012-.004.012-.004.012-.005.013-.004.012-.006.013-.005.013-.006.013-.005z"/><path id="_442140536" class="fil1" d="m3.798 4.116 3.786 3.786-.001.004-.002.004-.001.004-.001.005-.001.005v.005l-.001.005v.005l-.001.005V7.985L3.79 4.199V4.142l.002-.005v-.004l.002-.005v-.004l.002-.004z"/><path id="_442140752" class="fil1" d="m3.2 3.857 3.786 3.787-.003-.002H6.98l-.004-.002-.003-.002h-.004l-.003-.002-.003-.002-.004-.001-.003-.002-.003-.001-.003-.002-.004-.002-.003-.001-.003-.002-.003-.002-.004-.002-3.786-3.786.003.002.004.001.003.002.003.002.003.002.004.001.003.002.003.001.004.002.003.001.003.002.004.001.003.002h.003l.004.002z"/><path id="_442140848" class="fil1" d="m3.147 3.833 3.786 3.786.005.013.004.014.003.013.004.014.004.014.003.014.004.014.003.014.003.015.002.015.003.015.002.015.002.016.002.015.002.016v.016l.002.016v.017l.001.016v.068l-.001.017-.001.018-.002.018-.002.018-.002.018-.003.018-.003.018-.003.019-.004.018-3.786-3.786.004-.019.003-.018.003-.018.003-.019.002-.018.002-.018.001-.017.002-.018v-.017l.001-.018v-.067l-.001-.016-.001-.016-.002-.016-.001-.016-.002-.016-.002-.015-.003-.015-.002-.015-.003-.015-.003-.015-.003-.014-.003-.015-.003-.014-.004-.014-.004-.013-.004-.014-.004-.013z"/><path id="_442141304" class="fil1" d="M3.642 4.443 7.428 8.23h-.027l-.007.001H7.37l-.008.001H7.34l-.008.001h-.024l-.008.001H7.225l-.007-.001h-.006l-.007-.002H7.2l-.005-.001-3.787-3.786h.006l.006.001h.006l.007.001h.007l.006.001h.015l.007.001H3.538l.008-.001h.015l.008-.001h.023l.008-.001H3.635z"/><path id="_442141208" class="fil1" d="m3.407 4.443 3.787 3.786-.005-.001-.005-.002-.004-.002-.003-.002-.004-.003-3.786-3.787.003.003.004.003.004.002.005.002z"/><path id="_442141352" class="fil1" d="m3.93 3.968 3.786 3.786-.005.003-.004.003-.005.003-.004.003-.004.004-.005.003-.004.003-.004.003-.004.003-.004.004-.005.003-.004.003-.004.004-.004.004-.004.004-.004.004-.004.004-.003.004-.004.005-.004.004-.004.005-.004.005-.004.006-.004.005-.004.006-.004.006-.004.007-.004.007-.004.007-.004.007-.004.008-.005.008-3.786-3.786.004-.008.005-.008.004-.007.004-.008.004-.006.004-.007.004-.006.004-.006.004-.006.004-.005.003-.005.004-.005.004-.005.004-.004.004-.005.004-.004.004-.004.004-.004.004-.003.004-.004.004-.003.004-.004.004-.003.005-.003.004-.003.004-.004.004-.003.005-.003.004-.003.005-.003.004-.003z"/><path id="_442140896" class="fil1" d="m3.79 4.199 3.786 3.786v.064l-.001.008v.008l-.002.009-.001.008-.002.008-.002.008-.003.007-.002.008-.004.008-.003.008-.004.007-.005.008-.005.007-.005.008-.007.007-.006.007-.008.007-.008.007-.008.007-.01.006-.01.007-.01.006-.011.006-.013.006L3.66 4.439l.012-.006.012-.006.01-.007.01-.006.01-.007.008-.006.008-.007.007-.007.007-.007.006-.008.006-.007.005-.007.004-.008.004-.008.004-.007.003-.008.003-.008.002-.008.003-.008.001-.008.002-.008V4.28l.002-.008v-.016l.001-.008v-.041z"/><path id="_442141568" class="fil1" d="m3.66 4.439 3.786 3.786h-.002l-.002.002H7.44l-.002.001h-.003l-.002.001h-.005L3.642 4.443h.007l.002-.001h.003l.002-.001.002-.001z"/><path id="_442141640" class="fil1" d="M1.954 3.238 5.74 7.024v.006l-.001.001v.001h-.001v.001h-.001L1.95 3.247h.001v-.002l.001-.002V3.24z"/><path id="_442140968" class="fil1" d="M1.943 3.272 5.729 7.06l-.006.007-.005.006-.006.005-.007.004-.006.003-.007.003-.008.001h-.03l-.009-.002-.008-.001-.008-.002-.008-.002-.009-.002-3.786-3.786.008.002.009.002.008.001.008.002.008.001.008.001h.023l.007-.002.007-.002.007-.003.006-.004.006-.005.006-.006z"/><path id="_442141328" class="fil1" d="m2.078 3.793 3.787 3.786-.009.007L2.07 3.8z"/><path id="_442140920" class="fil1" d="m1.826 3.293 3.786 3.786H5.61l-.004-.002-.006-.002-.006-.002-.006-.002-.006-.002-.004-.001-.002-.001L1.79 3.281h.002l.004.002.005.001.007.003.006.002.006.002.004.001z"/><path id="_442141088" class="fil1" d="m1.79 3.28 3.786 3.787-.001.003-.002.002-.003.002-.002.002-.002.002-.003.002-.003.001-.003.002h-.003l-.003.001h-.015l-.004-.001-3.786-3.786h.003l.003.001h.016l.003-.002h.003l.003-.002.002-.002.003-.002.002-.002.002-.002.002-.003z"/><path id="_442141136" class="fil1" d="m1.95 3.247 3.787 3.786v.008l-.001.003-.001.002-.001.003-.002.004-.001.003-3.787-3.787.002-.003.001-.003.001-.003.001-.003v-.002l.001-.003v-.003z"/><path id="_442142024" class="fil1" d="m1.944 3.27 3.787 3.786-.002.003-3.786-3.787z"/><path id="_442141664" class="fil1" d="m1.746 3.297 3.786 3.786-.007-.003-.007-.003-.007-.004-.006-.004-.007-.005-.006-.005-.006-.005-3.787-3.786.006.005.007.005.006.005.007.004.007.004.007.003z"/><path id="_442142048" class="fil1" d="M2.104 4.298 5.89 8.084l-.002.003-.002.004-.002.004-.002.005-.002.005-.001.005-.002.005-.002.006-.002.005-.002.006-.002.006-.002.006-.002.006-.002.006-.002.006-.002.006-.002.006-.002.005-.003.006-.002.005-.003.005-.003.005-.003.005-.003.004-.003.004-.003.003-.003.003-.004.002-.004.002-.004.002h-.004l-.004.001L2.023 4.44h.004l.004-.001.004-.002.004-.002.003-.002.004-.003.003-.004.003-.004.003-.004.003-.004.003-.005.002-.005.003-.005.002-.006.003-.006.002-.005.002-.006.002-.006.002-.006.002-.006.002-.006.002-.006.002-.006.002-.006.001-.005.002-.006.002-.005.002-.004.002-.005.002-.004.002-.004z"/><path id="_442142240" class="fil1" d="m2.023 4.44 3.786 3.786h-.081l-.007.001-3.786-3.786H1.99l.005-.001h.024z"/><path id="_442141976" class="fil1" d="M1.935 4.44 5.72 8.228h-.067l-.007.001H5.53L1.744 4.442H1.908l.007-.001H1.928z"/><path id="_442142000" class="fil1" d="M1.744 4.442 5.53 8.228h-.015l-.005-.002-.004-.002-.004-.002-.004-.003-3.786-3.787.004.003.004.003.004.002.005.001.005.001h.005z"/><path id="_442141856" class="fil1" d="M2.465 3.838 6.25 7.624l-.016.015-.015.015-.015.015-.014.016-.014.016-.013.016-.013.016-.013.017-.012.016-.012.017-.011.016-.011.017-.011.016-.01.017-.011.016-.01.016-.01.016-.01.015-.01.016-.01.015-.01.014-.01.014-.009.014-.01.014-.01.012-.009.013-.01.011-.01.011-.01.01-.01.01-.011.01-.01.008-3.787-3.786.01-.009.011-.009.01-.01.01-.01.01-.01.01-.013.01-.012.01-.013.01-.013.01-.014.01-.014.009-.015.01-.015.01-.015.01-.016.01-.015.01-.017.01-.016.01-.016.012-.017.01-.016.012-.017.012-.016.012-.017.013-.016.012-.016.014-.016.014-.016.014-.016.015-.015.015-.015z"/><path id="_442142288" class="fil1" d="M2.579 3.844 6.365 7.63l-.01.002h-.011l-.01.002h-.025L6.3 7.633l-.006-.001-.007-.001-.005-.001-.006-.002-.004-.002-.005-.001-.004-.002-.004-.002-.003-.002-3.786-3.786.003.002.004.002.004.001.004.002.005.002.005.001.006.002h.006l.007.002H2.558l.01-.001z"/><path id="_442142360" class="fil1" d="m2.47 3.833 3.787 3.786-.001.001h-.001v.001l-.002.001-.001.002-3.787-3.786.001-.001.001-.001.002-.001v-.001h.001z"/><path id="_442141904" class="fil1" d="m3.175 4.345 3.786 3.786-.002.01-.003.009-.003.008-.004.008-.005.007-.004.006-.006.006-.005.006-.006.005-.006.006-.006.004-.007.005-.007.004-.007.005-.007.004-.007.004L3.09 4.442l.007-.004.007-.005.007-.004.007-.004.006-.005.007-.005.006-.005.006-.005.005-.006.005-.006.005-.007.005-.007.003-.007.004-.008.003-.01z"/><path id="_442142552" class="fil1" d="m3.09 4.442 3.786 3.786-.003.002-.004.002-.003.002-.004.003-.003.002-.004.002-.003.002-.003.003-.003.002-.003.002-.003.003-.003.002-.003.003-.002.003-.003.002-.002.003L3.041 4.48l.002-.003.002-.003.003-.002.003-.003.002-.003.003-.002.003-.002.003-.003.004-.002.003-.002.003-.003.004-.002.003-.002.004-.002.004-.002z"/><path id="_442142528" class="fil1" d="M2.938 4.504 6.724 8.29l-.008.001-.008.001h-.01l-.008.002h-.009l-.009.001h-.009l-.009.001-.009.001h-.018l-.009.001H6.566l-.008-.001-.008-.001-.007-.001-.008-.002-.007-.001-.007-.002-.007-.002-.006-.002-.006-.002-.006-.003-.005-.003-.005-.003-.005-.004-3.786-3.786.004.004.005.003.006.003.005.002.006.003.007.002.007.002.006.002.008.001.007.001.008.002h.008l.008.001h.017l.009.001H2.85l.01-.001h.008l.01-.001.008-.001h.01l.008-.002h.009l.008-.001.009-.001z"/><path id="_442142600" class="fil1" d="m3.041 4.48 3.786 3.786-.002.004-.004.004-.003.003-.004.003-.005.002-.005.002H6.8l-.005.001L3.008 4.5h.005l.005-.001.005-.002.004-.002.004-.003.004-.003.003-.004z"/><path id="_442142672" class="fil1" d="m3.008 4.499 3.786 3.786H6.776l-.004.001h-.008l-.005.001h-.004l-.005.001h-.01l-.005.001H6.73l-.006.001-3.786-3.786h.011l.005-.001h.005l.005-.001h.004l.005-.001H2.982l.004-.001h.015l.004-.001z"/><path id="_442142456" class="fil1" d="m5.151 3.867 3.787 3.787.004.004.003.006.004.005.003.006.003.006.003.006.003.007.002.006-3.786-3.786-.002-.007-.003-.006-.003-.006-.003-.006-.003-.006-.004-.006-.004-.005z"/><path id="_442110920" class="fil1" d="M5.177 3.914 8.963 7.7l.002.006.002.005.001.006.002.006v.006l.002.006.001.006.001.006.001.006.001.007v.006l.001.007.001.006v.007l.001.006V7.8L5.194 4.013V4l-.001-.007v-.007L5.19 3.98v-.007l-.001-.006-.001-.006-.001-.006-.001-.007-.001-.006-.002-.006-.001-.005-.002-.006-.001-.006z"/><path id="_442110416" class="fil1" d="m5.06 2.79 3.786 3.786.005.006.003.006.002.008v.007L5.07 2.817V2.81l-.002-.007-.003-.006z"/><path id="_442110752" class="fil1" d="m5.07 2.817 3.786 3.786V6.616l-.001.006v.006l-.001.007v.007l-.001.006-.001.007v.007l-.002.007v.007l-.001.007-.001.008-.001.007-.001.007v.008L5.058 2.926V2.92l.002-.007v-.008l.001-.007.001-.007.001-.007v-.007l.002-.007v-.007l.001-.007V2.85l.001-.007v-.006l.001-.007v-.006z"/><path id="_442110392" class="fil1" d="m5.104 3.007 3.787 3.786.002.003.002.003.003.003.002.004.002.003.001.004.002.004.002.004.002.004.001.005.002.004.001.005.001.004.002.005v.005l.002.005.001.005.001.005.001.005.002.005v.006l.002.005v.005l.002.006v.005L5.142 3.119v-.006l-.002-.005v-.005l-.002-.006v-.005l-.002-.005v-.005l-.002-.005-.001-.005-.001-.005-.002-.005-.001-.005-.001-.005-.002-.004-.001-.005-.002-.004-.001-.004-.002-.004-.002-.004-.002-.004-.002-.004-.002-.003-.002-.003-.002-.003z"/><path id="_637661080" class="fil1" d="M5.084 2.992c.036.014.047.07.057.127.006.027.01.055.016.07.02.003.036.02.035.04-.002.044 0 .09.001.137l.001.026c.005.144.003.282-.123.348a.408.408 0 0 1-.2.048l.007.002.013.002c.035.013.071.02.11.026.033.006.069.012.108.023.035.01.056.036.068.073.01.028.014.063.016.099a.487.487 0 0 0 .028.135c.014.041.033.08.055.124a.038.038 0 0 1 .003.028.242.242 0 0 1-.065.103c-.019.02-.037.04-.046.067a.038.038 0 0 1-.037.029c-.109 0-.395.064-.3-.12.01-.02.038-.066.061-.072a1.36 1.36 0 0 1 .02-.004c.04-.01.078-.019.094-.043-.004-.078-.026-.121-.064-.145a.454.454 0 0 0-.198-.041.983.983 0 0 1-.35-.09.708.708 0 0 1-.259-.2l-.002-.002-.003.003a.867.867 0 0 1-.2.183.328.328 0 0 0-.132.148.19.19 0 0 0-.008.083c.002.084.005.177-.13.24a.038.038 0 0 1-.018.004c-.069 0-.174.01-.235 0a.038.038 0 0 1-.031-.044c.022-.133.025-.136.057-.175.012-.014.03-.036.061-.085.03-.048.031-.091.032-.144.002-.052.003-.11.026-.188v-.002c-.142.068-.254.087-.352.052a.305.305 0 0 1-.053-.024c.045.138.07.312.028.512-.01.053-.047.074-.085.097a.156.156 0 0 0-.049.038.038.038 0 0 1-.033.019c-.017 0-.041.002-.07.005-.088.009-.206.02-.247-.023a.038.038 0 0 1-.012-.026c-.004-.133.084-.154.172-.176a.94.94 0 0 0 .035-.009c-.024-.15-.117-.239-.208-.326-.034-.032-.068-.064-.1-.1-.06.009-.09 0-.107-.011a.615.615 0 0 0-.006.005c-.173.155-.244.376-.361.46-.022.034-.034.142-.081.142h-.088c-.068.002-.154.003-.191.002a.038.038 0 0 1-.042-.05c.06-.176.099-.185.143-.196.014-.003.03-.007.053-.038a1.64 1.64 0 0 0 .18-.365L2.07 3.8l.037-.084A.357.357 0 0 0 2.14 3.6a1.056 1.056 0 0 0-.122-.171.296.296 0 0 1-.063-.09c-.006-.023.006-.09-.002-.101v.004c0 .003 0 .005-.002.005a.047.047 0 0 1-.007.022l-.001.003c-.028.043-.072.032-.117.02l-.036-.011a.038.038 0 0 1-.044.016c-.039-.013-.071-.05-.093-.094a.215.215 0 0 1-.01-.02.323.323 0 0 1-.023-.108.452.452 0 0 1-.038-.06.826.826 0 0 1-.032-.068.038.038 0 0 1 .001-.033l.057-.074c.025-.031.065-.049.09-.08.088-.108 0-.123.168-.199.054-.025.102-.068.15-.112l.046-.04c.1-.084.178-.12.34-.074a.478.478 0 0 1 .217.137c.07.041.231.152.285.204.034.034.069.068.103.096.32.26.607.061.99.134a.884.884 0 0 1 .208.069c.184.084.226.17.339.336.037.055.048.124.093.202.083.14.394.256.397.022 0-.146-.132-.251-.163-.304a2.285 2.285 0 0 1-.008-.014.125.125 0 0 1-.02-.041c-.008-.079.122-.402.191-.399a.038.038 0 0 1 .036.04c-.002.032-.006.07-.011.11a4.753 4.753 0 0 0-.008.066.043.043 0 0 1 .033 0z"/></g></g><path class="fil2" d="M3.413 0a3.413 3.413 0 1 1 0 6.827 3.413 3.413 0 0 1 0-6.827z"/><path class="fil3" d="M4.891 3.792c-.234-.031-.391-.246-.51-.518a.798.798 0 0 0-.362-.364.884.884 0 0 0-.021-.004c-.384-.073-.67.127-.99-.134-.035-.028-.07-.062-.104-.096a2.25 2.25 0 0 0-.296-.21.615.615 0 0 1 .087.115c.011.02.035.07.021.094-.018.024-.111-.002-.14.007l-.036-.008.014.034c.026.065.089.092.094.162.003.044.037.106.03.149a1.159 1.159 0 0 0-.004.019.02.02 0 0 1-.022.016.024.024 0 0 1-.013-.008c-.008-.007-.023-.016-.033-.022-.017-.01-.096-.037-.114-.047l-.05-.028.023.053c.028.067.072.114.084.186a.294.294 0 0 1 .005.04c.004.11.072.06-.183-.067l.037.078c.004.088.023.154.01.242-.004.023-.001.007-.003.03v.001c-.007.17-.05-.207-.153-.086-.004-.004-.019.029-.022.026l-.016-.016.01.078-.01.032c-.027.096-.025.15-.123.186a1.83 1.83 0 0 1-.203.426c-.023.031-.039.035-.053.038-.044.01-.082.02-.143.196a.038.038 0 0 0 .042.05l.19-.001.089-.001c.047 0 .059-.108.08-.142.119-.085.191-.31.368-.465.017.01.047.02.108.011.031.036.065.068.099.1.091.087.184.176.208.326a.94.94 0 0 1-.034.009c-.089.022-.177.043-.173.176 0 .01.005.02.012.026.041.043.159.032.247.023.029-.003.053-.005.07-.005a.038.038 0 0 0 .033-.02.156.156 0 0 1 .05-.037c.037-.023.073-.044.084-.097a.986.986 0 0 0-.028-.512c.017.01.035.018.053.024.098.035.21.016.352-.052a.69.69 0 0 0-.026.19c-.001.053-.002.096-.032.144-.03.049-.049.07-.061.085-.032.039-.035.042-.057.175a.038.038 0 0 0 .031.044c.06.01.166 0 .235 0a.038.038 0 0 0 .018-.004c.135-.063.132-.156.13-.24a.19.19 0 0 1 .008-.083.328.328 0 0 1 .132-.148.87.87 0 0 0 .203-.186l.002.003c.065.083.154.15.259.2.105.05.225.08.35.089a.454.454 0 0 1 .198.04c.038.025.06.068.064.146-.016.024-.055.033-.094.043a1.36 1.36 0 0 0-.02.004c-.023.006-.051.053-.061.072-.095.184.191.12.3.12a.038.038 0 0 0 .037-.03c.009-.026.027-.046.046-.066a.242.242 0 0 0 .065-.103.038.038 0 0 0-.003-.028 1.128 1.128 0 0 1-.055-.124.487.487 0 0 1-.028-.135.393.393 0 0 0-.016-.099c-.012-.037-.033-.064-.068-.073a1.19 1.19 0 0 0-.108-.023c-.039-.007-.075-.013-.11-.026z"/><path class="fil4" d="m1.943 3.272.001-.003c.012-.02.003-.036.009-.032.009.007-.005.078.002.101a.296.296 0 0 0 .063.091c.03.035.093.112.122.171a.357.357 0 0 1-.033.116L2.07 3.8l.052-.047.016-.014c.061-.055.09-.153.111-.23.003-.012.007-.028.013-.04a.02.02 0 0 1 .013-.01.02.02 0 0 1 .024.014c.002.01.014.02.02.027l.035.033.028.028.028.029.005-.04c.006-.035.013-.307.013-.308a.02.02 0 0 1 .027-.007c.044.026.093.05.138.075l-.011-.045a.825.825 0 0 0-.101-.246.02.02 0 0 1 .018-.031 1.148 1.148 0 0 1 .158.08l.026.016.003-.031a.602.602 0 0 0-.071-.32l-.009-.018a.02.02 0 0 1 .023-.027c.033.01.07.02.102.024.019.002.045.003.054-.018.005-.01.002-.02-.003-.03a.43.43 0 0 0-.047-.067 1.206 1.206 0 0 0-.064-.072c-.082-.085-.145-.154-.27-.19-.185-.054-.26.002-.384.114-.049.044-.097.087-.151.112-.167.076-.074.09-.162.2-.025.03-.071.048-.096.08l-.057.073a.038.038 0 0 0 0 .033.826.826 0 0 0 .07.128c0 .04.012.086.03.125.023.046.056.084.095.097a.038.038 0 0 0 .044-.016l.036.012c.045.01.089.022.117-.02z"/><path d="M4.544 3.311c.037.055.048.124.093.202.083.14.394.256.397.022 0-.146-.132-.251-.163-.304-.015-.025-.026-.043-.027-.055-.009-.079.121-.402.19-.399a.038.038 0 0 1 .036.04c-.002.032-.006.07-.011.11a4.753 4.753 0 0 0-.008.066.043.043 0 0 1 .033 0c.036.013.047.069.057.126.006.027.01.055.016.07.02.003.036.02.035.04-.002.044 0 .09.001.137.006.153.012.304-.122.374a.408.408 0 0 1-.2.048.309.309 0 0 0 .013.004c-.234-.031-.392-.246-.51-.518a.798.798 0 0 0-.363-.364.935.935 0 0 1 .194.065c.184.084.226.17.339.336z" style="fill:#cc984a"/><path d="M4.863 3.217a.125.125 0 0 1-.02-.041c-.008-.079.122-.402.191-.399a.038.038 0 0 1 .036.04c-.002.032-.006.07-.011.11a4.753 4.753 0 0 0-.008.066.043.043 0 0 1 .033 0c.036.013.047.069.057.126.006.027.01.055.016.07.02.003.036.02.035.04a1.474 1.474 0 0 0 .002.163.07.07 0 0 1-.035.02.06.06 0 0 1-.072-.043 1.003 1.003 0 0 1-.016-.08.068.068 0 0 1-.025.012c-.075.015-.086-.058-.075-.138l-.048.04a.076.076 0 0 1-.06.014z" style="fill:#82400e"/><path class="fil2" d="M2.063 2.394c0 .05-.035.038-.022.08.041.024.014 0 .066.03.058.036.075.166.037.22a1.392 1.392 0 0 0-.093.185c-.015.074.046.189-.008.252-.005.006-.002.01-.013.016-.007.003-.036.024-.05.027-.003.027-.024-.002-.027.038 0 .005-.002.005-.006.006"/><path class="fil3" d="m1.608 2.84-.057.074a.038.038 0 0 0 0 .033.826.826 0 0 0 .07.128c0 .04.012.086.03.125.023.046.056.084.095.097a.038.038 0 0 0 .044-.016l.036.012c.045.01.089.022.117-.02l.001-.004a.047.047 0 0 0 .007-.022c0-.008-.002-.012.002-.01v.001c.004-.034.024-.008.027-.034.014-.003.043-.024.05-.027.011-.006.008-.01.013-.016.054-.063-.007-.178.008-.252.005-.023.077-.162.093-.185.038-.054.02-.184-.037-.22-.052-.03-.025-.006-.066-.03-.011-.037.014-.032.02-.064-.014.012-.029.025-.044.04-.049.043-.097.086-.151.111-.167.076-.08.09-.168.2-.025.03-.065.048-.09.08z"/><path class="fil4" d="m1.592 3.032.001.002.002.002c.009.01.019.02.02.031a.467.467 0 0 0 .006.008.302.302 0 0 0 .03.125l.002.003c.01.01.029-.001.066-.017.062-.026.153-.04.153-.04a.012.012 0 0 0 0-.016c-.022-.021-.138.024-.162.034-.039.016-.043.017-.043.013l-.001-.005a.26.26 0 0 1-.018-.052c-.004-.022-.01-.037-.01-.048.002-.022-.013-.038-.025-.052-.005-.005-.004-.01-.006-.013a.012.012 0 0 0-.02.012c.003.004.003.009.005.013z"/><path class="fil4" d="M1.551 2.914a.038.038 0 0 0 0 .033.826.826 0 0 0 .047.095c.03-.038.085-.115.079-.144a.234.234 0 0 0-.045-.081c-.007.01-.017.014-.024.023l-.057.074z"/><path d="M1.94 2.691h.018a.066.066 0 0 1-.003.042.076.076 0 0 1-.028.03c-.013.01-.023.01-.037.003a.064.064 0 0 1-.037-.048.198.198 0 0 1 .088-.027z" style="fill:#eee"/><path d="M1.886 2.703a.166.166 0 0 1 .053-.012.036.036 0 0 1 .002.029c-.006.018-.023.03-.039.027-.016-.004-.023-.023-.018-.041l.002-.003z" style="fill:#424242"/><path d="M1.918 2.705c.003-.003.005.007.003.01-.003.003-.014.006-.018.003-.007-.007.01-.023.017-.014h-.002z" style="fill:#fafafa"/><path d="M1.972 2.69c-.095-.006-.133.039-.183.115.044-.096.08-.141.188-.15a.018.018 0 0 1-.005.036z" style="fill:#40292a"/><path class="fil11" d="M4.13 3.785c-.15-.128-.202-.254-.202-.254a.87.87 0 0 1-.376.276c-.023.078-.024.136-.026.188-.001.053-.002.096-.032.144-.03.049-.049.07-.061.085-.032.039-.035.042-.057.175a.038.038 0 0 0 .031.044c.06.01.166 0 .235 0a.038.038 0 0 0 .018-.004c.135-.063.132-.156.13-.24a.19.19 0 0 1 .008-.083.328.328 0 0 1 .132-.148.867.867 0 0 0 .2-.183zM2.104 4.298c.117-.084.188-.305.36-.46a.581.581 0 0 1-.018-.033c-.035-.064-.042-.087-.1-.126-.056-.04-.071-.035-.103-.082a.298.298 0 0 1-.013-.02.375.375 0 0 1-.092.162l-.016.014-.044.04a1.64 1.64 0 0 1-.18.365c-.023.031-.039.035-.053.038-.044.01-.082.02-.143.196a.038.038 0 0 0 .042.05l.19-.001.089-.001c.047 0 .059-.108.08-.142z"/></g></svg>