<svg xmlns="http://www.w3.org/2000/svg" xml:space="preserve" width="655.359" height="655.359" style="shape-rendering:geometricPrecision;text-rendering:geometricPrecision;image-rendering:optimizeQuality;fill-rule:evenodd;clip-rule:evenodd" viewBox="0 0 6.827 6.827"><defs><clipPath id="id0"><path d="M3.413 0a3.413 3.413 0 1 1 0 6.827 3.413 3.413 0 0 1 0-6.827z"/></clipPath><style>.fil7{fill:#43372d}.fil5{fill:#4d3c2e}.fil4{fill:#7d583c}.fil1{fill:#c0ca33}.fil8{fill:#fbe9e7}.fil3{fill:#926a4c;fill-rule:nonzero}</style></defs><g id="Layer_x0020_1"><path d="M3.413 0a3.413 3.413 0 1 1 0 6.827 3.413 3.413 0 0 1 0-6.827z" style="fill:#dce775"/><g style="clip-path:url(#id0)"><g id="_637660768"><path id="_4421103201" class="fil1" d="m4.445 2.034 3.787 3.787.005.005.005.006.005.006.005.006.004.006.005.006L4.475 2.07l-.005-.006-.005-.006-.005-.006-.005-.006-.005-.006z"/><path id="_442110464" class="fil1" d="m4.975 3.156 3.786 3.786.004.007.005.006.004.006.004.006.004.007.004.006.004.006.004.006.003.007.004.006.004.006.004.007.003.006.004.007.004.006.003.006-3.786-3.786-.004-.006-.003-.007-.004-.006-.004-.006-.003-.007-.004-.006-.004-.007-.004-.006-.004-.006L5 3.194l-.004-.007-.004-.006-.004-.006-.004-.006-.004-.007z"/><path id="_442112384" class="fil1" d="m5.037 3.257 3.786 3.786.009.017.008.016.009.016.008.017.007.016.008.017.007.017.007.017.007.017.006.017.007.017.005.017.006.017.005.018.006.017.004.018.005.017.004.018.004.018.004.018.003.018.003.018.003.018.003.018.002.018.002.018.002.019.001.018.001.019v.018l.001.019v.018L5.184 3.818V3.78l-.001-.018-.001-.018-.002-.019-.001-.018-.002-.018-.002-.018-.003-.019-.003-.018-.003-.018-.003-.018-.004-.017-.004-.018-.004-.018-.005-.018-.005-.017-.005-.018-.005-.017-.006-.017-.006-.018-.006-.017-.006-.017L5.1 3.39l-.007-.017-.007-.016-.008-.017-.008-.017-.008-.016-.008-.016-.008-.017z"/><path id="_442112408" class="fil1" d="M5.184 3.818 8.97 7.604v.037l-.002.036-.003.036-.004.036-.005.035-.006.035-.007.035-.009.034-.01.035-.01.034-.011.033-.013.033-.013.033-.015.033-.015.032-.017.032-.017.031-.018.031-.02.03-.02.03-.02.03-.023.03-.022.028-.024.029-.025.027-.025.028-.026.027-.027.026-.027.026-.029.025-.029.024-.03.025-3.786-3.787.03-.024.029-.024.028-.026.028-.025.027-.027.026-.026.025-.028.025-.028.023-.028.023-.029.022-.029.021-.03.02-.03.02-.03.018-.031.017-.032.017-.031.015-.032.014-.033.014-.033.013-.033.011-.034.01-.034.01-.034.008-.034.008-.035.006-.035.005-.036.004-.035.003-.036.002-.036z"/><path id="_442111784" class="fil1" d="m1.852 3.156 3.786 3.786-.03-.016-.027-.019-.026-.021-.026-.023-3.786-3.786.025.023.027.02.028.02z"/><path id="_442111760" class="fil1" d="M3.413 5.221 7.2 9.007h-.046l-.045-.002-.045-.002L7.019 9l-.044-.004-.044-.005-.044-.005-.043-.007-.043-.007-.042-.009-.042-.009-.042-.01-.041-.01-.041-.011-.04-.012-.04-.013-.04-.014-.039-.014-.038-.015-.038-.016-.037-.016-.037-.017-.036-.018-.035-.018-.035-.02-.035-.02-.033-.02-.033-.02-.033-.022-.032-.022-.03-.023-.03-.023-3.787-3.787.03.024.031.022.032.023.032.021.033.021.034.02.034.02.035.02.036.018.036.018.037.017.037.016.038.016.038.015.039.014.04.014.04.012.04.013.04.01.042.011.041.01.042.01.043.007.043.008.043.006.044.006.044.005.044.004.045.003.045.002.045.002z"/><path id="_442111880" class="fil1" d="M2.165 4.813 5.95 8.6l-.03-.024-.029-.025-3.786-3.786.029.024z"/><path id="_442112576" class="fil1" d="M4.662 4.813 8.448 8.6l-.03.023-.031.023-.032.022-.032.021-.033.021-.034.02-.034.02-.035.02-.036.018-.036.018-.037.017-.037.016-.038.016-.038.015-.04.014-.038.014-.04.013-.04.012-.041.011-.042.01-.041.01-.042.01-.043.008-.043.007-.043.007-.044.005-.044.005L7.38 9l-.045.003-.045.002-.045.002H7.2L3.413 5.221h.046l.045-.002.045-.002.045-.003.044-.004.044-.005.044-.006.043-.006.043-.008.042-.008.042-.009.042-.01.041-.01.041-.011.04-.013.04-.012.04-.014.038-.014.039-.015.038-.016.037-.016.037-.018.036-.017.035-.019.035-.019.035-.02.033-.02.033-.02.033-.022.031-.023.032-.022z"/><path id="_442112888" class="fil1" d="m5.15 2.198 3.787 3.786.023.029.02.03.019.032.016.033.014.034.011.035.01.036.007.037.005.037.003.037.001.037V6.4l-.004.038-.004.037-.007.038-.008.036-.01.037-.012.035-.014.035-.015.034-.016.032-.019.032-.02.03-.02.028-.023.027-.024.025-.025.023-.027.021-.028.019-.029.016-3.786-3.786.029-.016.028-.02.026-.02.026-.023.024-.025.022-.027.021-.029.02-.03.018-.031.017-.033.015-.033.014-.035.011-.036.01-.036.009-.037.006-.037.005-.037.003-.038.001-.038-.001-.037-.003-.038-.005-.037-.007-.036-.01-.036-.011-.035-.014-.034-.016-.033-.019-.032-.02-.03z"/><path id="_637661392" class="fil1" d="M5.097 2.145c.313.263.193.848-.122 1.011a1.156 1.156 0 0 1 .21.662c0 .39-.2.741-.523.995-.32.252-.762.408-1.249.408-.487 0-.928-.156-1.248-.408-.323-.254-.523-.606-.523-.995a1.156 1.156 0 0 1 .21-.662c-.315-.163-.435-.748-.122-1.011.158-.134.39-.141.622-.075.05-.064.11-.123.177-.175.227-.179.54-.29.884-.29.345 0 .658.111.884.29.068.052.127.111.178.175.23-.066.463-.059.622.075z"/></g></g><path d="M3.413 0a3.413 3.413 0 1 1 0 6.827 3.413 3.413 0 0 1 0-6.827z" style="fill:none"/><path class="fil3" d="M4.89 3.188c-.088-.121-.193-.28-.31-.374a.965.965 0 0 0 .019-.189c0-.186-.062-.394-.153-.547.24-.074.486-.072.65.067.34.286.17.95-.206 1.043z"/><path class="fil4" d="M4.775 3.116c.013-.006.094-.056.106-.065.095-.07.15-.2.165-.311.018-.131-.012-.276-.117-.365-.092-.078-.221-.086-.34-.067l-.155.032c.055.124.122.26.122.39a.884.884 0 0 1-.009.125c.074.07.168.178.228.261z"/><path class="fil3" d="M1.937 3.188c.088-.121.193-.28.31-.374a.965.965 0 0 1-.02-.189c0-.186.063-.394.154-.547-.24-.074-.486-.072-.651.067-.34.286-.17.95.207 1.043z"/><path class="fil4" d="M2.052 3.116a2.135 2.135 0 0 1-.107-.065.478.478 0 0 1-.164-.311c-.018-.131.011-.276.116-.365.093-.078.222-.086.34-.067l.156.032c-.055.124-.122.26-.122.39 0 .042.003.084.008.125-.074.07-.168.178-.227.261z"/><path class="fil5" d="M4.642 2.808c.166.127.301.28.395.45.095.171.147.36.147.56 0 .39-.2.741-.522.995-.32.252-.762.408-1.249.408-.487 0-.928-.156-1.248-.408-.323-.254-.523-.606-.523-.995 0-.2.053-.389.148-.56.093-.17.228-.323.395-.45a.81.81 0 0 1-.027-.205c0-.277.142-.528.371-.708.227-.179.54-.29.884-.29.345 0 .658.111.884.29.23.18.372.43.372.708a.802.802 0 0 1-.027.205z"/><path d="M2.093 4.295a.786.786 0 0 1-.133-.43c0-.416.26-.658.528-.907l.025-.023c-.057-.44.13-.742.404-.902.149-.087.323-.131.497-.133a.983.983 0 0 1 .497.127c.272.158.46.461.406.914.128.118.261.246.365.392.11.155.185.33.185.532 0 .158-.051.303-.133.43a1.205 1.205 0 0 1-.372.356c-.137.086-.288.15-.444.191a1.936 1.936 0 0 1-1.01 0 1.642 1.642 0 0 1-.443-.191 1.205 1.205 0 0 1-.372-.356z" style="fill:#926a4c"/><path class="fil5" d="M3.7 3.478c.05 0 .095.008.128.022.045.018.073.047.073.083 0 .036-.028.065-.073.083a.353.353 0 0 1-.128.022.353.353 0 0 1-.128-.022c-.044-.018-.072-.047-.072-.083 0-.036.028-.065.072-.083a.353.353 0 0 1 .128-.022zM3.126 3.478c.05 0 .095.008.128.022.045.018.073.047.073.083 0 .036-.028.065-.073.083a.353.353 0 0 1-.128.022.353.353 0 0 1-.128-.022c-.044-.018-.072-.047-.072-.083 0-.036.028-.065.072-.083a.353.353 0 0 1 .128-.022z"/><path class="fil7" d="M3.772 2.742a.222.222 0 0 1 .157.38.222.222 0 0 1-.38-.157.222.222 0 0 1 .223-.223zM3.054 2.742a.222.222 0 0 1 .158.38.222.222 0 0 1-.38-.157.222.222 0 0 1 .222-.223z"/><path class="fil5" d="M3.452 4.38h-.039a1.4 1.4 0 0 1-.803-.236.931.931 0 0 1-.218-.216.079.079 0 0 1 .129-.092c.05.07.111.13.181.18.202.143.466.205.711.205h.022c.24-.003.494-.066.69-.206.07-.05.131-.11.181-.179a.079.079 0 0 1 .129.092.931.931 0 0 1-.219.216 1.386 1.386 0 0 1-.764.235z"/><path class="fil8" d="M3.832 2.905a.084.084 0 0 0-.144.06.084.084 0 0 0 .144.06.084.084 0 0 0 0-.12zM3.114 2.905a.084.084 0 0 0-.144.06.084.084 0 0 0 .144.06.084.084 0 0 0 0-.12z"/></g></svg>