<svg xmlns="http://www.w3.org/2000/svg" xml:space="preserve" width="655.359" height="655.359" style="shape-rendering:geometricPrecision;text-rendering:geometricPrecision;image-rendering:optimizeQuality;fill-rule:evenodd;clip-rule:evenodd" viewBox="0 0 6.827 6.827"><defs><clipPath id="id0"><path d="M3.413 0a3.413 3.413 0 1 1 0 6.827 3.413 3.413 0 0 1 0-6.827z"/></clipPath><style>.fil2{fill:none}.fil1{fill:#1565c0}.fil4{fill:#202020}.fil5{fill:#d6d6d6}</style></defs><g id="Layer_x0020_1"><path d="M3.413 0a3.413 3.413 0 1 1 0 6.827 3.413 3.413 0 0 1 0-6.827z" style="fill:#1e88e5"/><g style="clip-path:url(#id0)"><g id="_637660432"><path id="_4421142801" class="fil1" d="m2.72 4.192 3.787 3.786-.001.001h-.001v.001L2.718 4.194h.001v-.001h.001z"/><path id="_442115312" class="fil1" d="M2.732 4.05 6.52 7.835l-.015-.006-.015-.006-.015-.006-.014-.006-.014-.007-.014-.006-.013-.008-.013-.007-.013-.008-.013-.008-.011-.008-.012-.009-.011-.009-.011-.01-3.786-3.785.01.009.012.009.011.009.012.008.013.008.012.008.013.007.014.007.014.007.014.007.014.006.015.006.014.006z"/><path id="_442115624" class="fil1" d="M2.728 4.125 6.514 7.91H6.51l-.001-.001-3.787-3.786h.005z"/><path id="_442115816" class="fil1" d="m2.29 3.03 3.786 3.786L2.289 3.03z"/><path id="_442116128" class="fil1" d="m2.584 4.089 3.787 3.786.007.007.007.007.006.007.007.007.007.008.007.008.007.008-3.787-3.786-.006-.008-.007-.008-.007-.008-.007-.007-.007-.008-.007-.006z"/><path id="_442115672" class="fil1" d="m3.389 5.28 3.786 3.786h-.092l-.03-.001-.03-.001-.03-.001-.029-.001-.028-.002-.028-.001-.028-.002-.027-.002-.027-.002L6.8 9.05l-.026-.002-.026-.003-.025-.003-.025-.003-.024-.003-.024-.003-.023-.004-.023-.004-.023-.004-.022-.004-.022-.005-.021-.004-.021-.005-.021-.005-.02-.005-.02-.005-.02-.006-.018-.005-.019-.006-3.786-3.787.019.006.019.006.019.005.02.006.02.005.02.005.021.005.022.004.022.005.022.004.022.004.023.004.024.003.024.004.024.003.025.003.025.003.025.003.026.002.027.003.027.002.027.002.027.001.029.002.028.001.029.002h.03l.029.002h.091z"/><path id="_442115600" class="fil1" d="m2.591 5.184 3.786 3.787-.018-.007-.019-.006-.017-.007-.018-.007-.017-.007-.016-.007-.017-.008-.015-.007-.015-.008-.015-.008-.015-.009-.014-.008-.013-.009-.013-.009-.013-.01-.012-.008-.012-.01L2.332 5.05l.012.01.012.009.013.009.013.009.013.008.014.009.014.008.015.008.016.008.015.008.016.008.017.007.017.007.017.007.018.007.018.006z"/><path id="_442115840" class="fil1" d="M2.632 4.14 6.42 7.928v.001l.001.001-3.786-3.786v-.001h-.001V4.14z"/><path id="_442116032" class="fil1" d="M2.634 4.143 6.42 7.929l.087.105L2.72 4.247z"/><path id="_442115720" class="fil1" d="m2.72 4.247 3.787 3.787.005.004.005.006.005.006.006.006.006.007.005.007.006.008.007.007.006.008.006.008.006.009.007.008.006.009.007.008.007.009.006.008.007.008.007.008.006.008.007.008.007.007.007.007.006.006.007.006L2.87 4.424l-.007-.006-.007-.006-.006-.007-.007-.008-.007-.007-.007-.008-.006-.008-.007-.008-.007-.009-.006-.008-.007-.009-.006-.008-.007-.009-.006-.008-.007-.008-.006-.008-.006-.008-.006-.007-.006-.007-.005-.007-.006-.007-.005-.005-.006-.006z"/><path id="_442115888" class="fil1" d="m2.92 4.448 3.787 3.786H6.7l-.006-.002-.006-.003-.006-.003-.007-.004-.006-.004-.007-.005-.006-.006L2.87 4.421l.006.005.007.005.006.005.006.004.006.003.007.002.006.002z"/><path id="_442116248" class="fil1" d="M2.632 3.28 6.42 7.067l-.006-.002-.005-.002-.006-.002-.007-.002-.006-.002-.006-.002-.007-.002-.007-.002-.006-.003-.007-.002-.007-.002-.007-.003-.006-.002-.007-.003-.007-.002-.007-.002-.006-.003-.007-.002-.006-.003-.006-.002-.006-.002-.005-.002-.006-.003-.005-.002-.005-.002-.005-.002-.004-.002-.004-.001-.004-.002-.003-.001L6.24 7 6.238 7 2.452 3.214h.002l.003.002.003.002.004.001.004.002.004.002.005.002.005.002.005.002.005.002.006.003.006.002.006.002.006.002.007.003.006.002.007.003.006.002.007.003.007.002.007.002.007.003.006.002.007.002.007.003.006.002.007.002.006.002.006.002.006.002.006.002z"/><path id="_442116344" class="fil1" d="M2.452 3.214 6.238 7l-.007-.004-.007-.005-.006-.004-.007-.004-.006-.005-.006-.004-.007-.005-.006-.005-.006-.005-.005-.005-.006-.005-.006-.006-3.786-3.786.006.005.005.006.006.005.006.005.006.004.006.005.007.005.006.004.007.005.006.004.007.004z"/><path id="_442116752" class="fil1" d="m2.674 3.3 3.787 3.786-.003-.002-.005-.003-.005-.003-.007-.003-.006-.002-.006-.003-.006-.002-.004-.001L2.632 3.28l.005.002.006.002.006.002.006.003.006.003.006.003.004.002z"/><path id="_442116656" class="fil1" d="m3.822 4.448 3.786 3.786-.029-.024-.029-.022-.03-.018-.029-.015-.03-.012-.03-.01-.03-.007-.03-.005-.03-.003h-.06l-.03.003-.03.003-.03.005-.03.007-.031.007-.03.007-.03.009-.03.008-.029.009-.029.009-.029.008-.029.009-.028.007-.028.007-.028.006-.028.006-.027.003-.026.003h-.052L2.92 4.448h.052L3 4.445l.027-.004.028-.005.027-.006.029-.007.028-.008.029-.008.029-.009.029-.008.03-.01.03-.008.029-.008.03-.008.03-.007.03-.006.03-.005.03-.004.03-.002.03-.001h.031l.03.004.03.005.03.007.03.01.03.012.03.015.029.018.03.021z"/><path id="_442116392" class="fil1" d="M2.675 3.3 6.46 7.086 2.674 3.3z"/><path id="_442116608" class="fil1" d="m3.84 5.258 3.787 3.786v.003L3.84 5.262v-.002z"/><path id="_442116632" class="fil1" d="m3.975 5.201 3.787 3.787-.004.004-.003.005L7.75 9l-.003.005-.004.004-.003.005-.004.004-.003.004-3.786-3.786.003-.004.003-.005.004-.004.003-.005.004-.004.003-.005.004-.004z"/><path id="_442116968" class="fil1" d="m3.948 5.237 3.786 3.786-.008.003-.007.003-.007.002-.007.002-.006.002-.005.002-.006.001-.006.002h-.005l-.006.002h-.006l-.007.001h-.014l-.008.001h-.009L3.841 5.258h.024l.007-.001h.006l.007-.002h.005l.006-.002h.006l.005-.002.006-.002.006-.002.007-.002.006-.002.008-.003z"/><path id="_442116944" class="fil1" d="m3.822 4.451 3.786 3.786.029.029.009.01.009.01.008.01.009.01.008.01.007.01.008.01.007.01.007.01.007.011.006.011.006.011.006.011.005.011.006.011.005.012.004.011.005.012.004.011.004.012.003.012.003.012.003.012.003.012.002.012.002.013.002.012.001.013.002.013v.026l.001.013-3.786-3.786V4.83l-.001-.013v-.013L4 4.792 4 4.779l-.002-.012-.002-.013-.002-.012-.003-.012-.003-.012-.003-.012-.004-.012-.003-.012-.005-.012-.004-.011-.005-.012-.005-.01-.005-.012-.005-.011-.006-.011-.006-.011-.007-.01-.006-.011-.007-.011-.007-.01-.008-.01-.008-.011-.008-.01-.008-.01-.009-.01-.008-.01-.01-.01z"/><path id="_442116368" class="fil1" d="m3.84 5.261 3.787 3.787-.012.001-.012.001-.013.002h-.012l-.013.002-.013.001-.013.001-.014.001h-.013l-.014.002h-.014l-.014.001h-.015l-.014.002H7.412l-.015.001h-.015l-.015.001H7.338l-.015.001h-.06l-.015.001h-.073L3.39 5.28h.118l.015-.001h.044l.015-.001h.015l.015-.001h.015l.014-.001h.015l.014-.001.014-.001h.015l.014-.002h.013l.014-.001.013-.001.014-.001.013-.001.013-.001.012-.002h.013l.012-.002z"/><path id="_442116440" class="fil1" d="M2.488 2.254 6.275 6.04 2.487 2.254z"/><path id="_442116560" class="fil1" d="m4.546 3.686 3.786 3.786.002.004.002.005.002.004.002.004.001.004.002.005.001.004.002.004.001.005.002.004.001.005.002.004.001.005.002.005.002.005.002.004-3.787-3.786-.002-.005-.001-.004-.002-.005-.002-.005-.001-.004-.002-.005-.001-.004-.002-.005-.001-.004-.002-.005-.001-.004-.002-.004-.001-.005-.002-.004-.002-.004z"/><path id="_442117400" class="fil1" d="M3.777 1.614 7.563 5.4l.005.006.006.006.005.006.005.007.004.006.005.007.005.007.004.007.005.007.004.008.005.007-3.787-3.786-.004-.008-.004-.007-.005-.007-.004-.007-.005-.007-.005-.007-.005-.007-.005-.006-.005-.006-.005-.007z"/><path id="_442117184" class="fil1" d="M4.146 1.924 7.932 5.71l.016.019.016.019.016.02.014.019.014.02.014.02.013.02.013.02.011.02.012.022.01.021.01.021.01.022.01.022.008.022.008.023.007.022.007.023.006.023.006.023.005.024.005.024.004.024.003.024.003.024.003.025.001.025.002.025V6.434l-.002.018-.001.018-.002.019-.002.018-.003.018-.003.018-.003.018-.003.018-.004.018-.004.018-.005.018-.005.017-.005.018-.005.017-.006.017-.006.017-.007.018-.007.017-.007.016-.007.017-.008.017-.008.017-.008.016-.01.016-.008.017-.01.016-.01.016-.01.016-.01.016-3.786-3.786.01-.016.01-.016.01-.016.01-.017.009-.016.008-.016.009-.017.008-.016L4.306 3l.007-.017.007-.017.007-.017.006-.017.007-.017.005-.017.006-.018.005-.017.005-.018.004-.017.004-.018.004-.018.004-.018.003-.018.003-.018.002-.018.003-.019.001-.018.002-.019.001-.018v-.019l.001-.019V2.54l-.002-.025-.002-.024-.002-.025-.003-.025-.004-.024-.004-.024-.004-.023-.005-.024-.006-.023-.006-.023-.007-.023-.008-.023-.008-.022-.008-.022-.009-.022-.01-.022-.01-.021-.01-.021-.012-.021-.012-.021-.012-.02-.013-.02-.014-.02L4.208 2l-.015-.02-.015-.02-.016-.018z"/><path id="_442117304" class="fil1" d="m4.224 3.148 3.787 3.786.013.017.012.017.013.017.012.017.013.017.012.017.011.017.012.017.012.016.01.017.012.017.01.017.012.017.01.017.01.017.01.016.01.017.01.017.01.017.01.017.009.016.009.017.008.017.01.017.008.016.008.017.008.017.008.016.007.017.008.017.007.017.007.016-3.786-3.786-.007-.017-.007-.016-.008-.017-.007-.017-.008-.017-.008-.016-.009-.017-.008-.017-.009-.016-.009-.017-.009-.017-.009-.017-.01-.017-.009-.016-.01-.017-.01-.017-.01-.017-.01-.017-.01-.016-.011-.017-.011-.017-.011-.017-.012-.017-.011-.017-.012-.017L4.3 3.25l-.012-.016-.012-.017-.012-.017-.013-.017-.013-.017z"/><path id="_442117520" class="fil1" d="m4.574 3.756 3.787 3.786.006.018.006.017.006.018.006.017.006.017.005.018.005.017.005.017.005.018.005.017.004.017.005.018.004.017.003.017.004.018.003.017.004.017.003.017.002.018.003.017.002.017.002.017.002.018.002.017.002.017v.017l.002.017.001.017v.018l.001.017v.081l-.002.046-.004.045-.005.044-.006.043-.008.041-.01.04-.01.04-.012.037-.014.037-.015.036-.017.034-.018.033-.019.033-.02.03-.023.03-.024.029-.025.027-.026.027-.028.025-.03.024-.03.023-.033.021-.033.02-.036.02-.036.018-.038.017-.04.016-.04.015-.043.013-.043.012-.046.012-3.786-3.787.045-.01.044-.013.042-.014.041-.014.04-.016.038-.017.036-.018.035-.02.034-.02.032-.022.031-.022.03-.024.027-.026.027-.026.025-.027.024-.029.022-.03.02-.03.02-.033.018-.033.017-.035.015-.035.013-.037.012-.038.011-.039.01-.04.007-.042.007-.042.005-.044.003-.045.003-.046v-.099l-.001-.017-.001-.017-.001-.017-.002-.017-.001-.018-.002-.017-.002-.017-.002-.017-.002-.017-.003-.018-.003-.017-.003-.017-.003-.017-.003-.018L4.646 4l-.004-.017-.004-.018-.004-.017-.004-.017-.005-.018-.005-.017-.005-.017-.005-.018-.005-.017-.006-.017-.006-.018-.006-.017-.006-.018z"/><path id="_637660408" class="fil1" d="m4.572 3.757.002-.001c.07.186.105.37.105.553 0 .51-.245.821-.734.934a.787.787 0 0 0 .003-.006.247.247 0 0 1-.107.021v.004a4.197 4.197 0 0 1-.452.018c-.337 0-.603-.032-.798-.096-.202-.065-.33-.167-.383-.302a.88.88 0 0 1-.046-.22 3.252 3.252 0 0 1-.015-.335c0-.176.06-.322.242-.322a.26.26 0 0 1 .13.035.42.42 0 0 1 .115.103l.086.104c.053.049.139.2.2.204.274.018.627-.29.93.028a.515.515 0 0 1 0-.003c-.303-.319-.657-.01-.93-.028-.061-.005-.147-.155-.2-.204l-.01-.013a.133.133 0 0 0 .01-.04c0 .002-.001.002-.002.003a.81.81 0 0 1 .004-.07h.006-.006a.17.17 0 0 0 .01-.073v-.002c-.162-.057-.286-.158-.286-.331 0-.076.021-.142.068-.2a.126.126 0 0 1-.01-.048c0-.033.011-.06.033-.084a.19.19 0 0 1 .084-.047l.072-.02-.018-.02a.16.16 0 0 0-.043-.019 1.551 1.551 0 0 1-.18-.066.385.385 0 0 1-.162-.184.533.533 0 0 1-.028-.094 2.875 2.875 0 0 1-.023-.128l-.004-.004-.01-.012c-.033-.05-.027-.143.033-.177a.099.099 0 0 1 .017-.008.582.582 0 0 1 .064-.09c.023-.027.052-.053.08-.085a.147.147 0 0 0 .036-.064l.033-.114a.88.88 0 0 1 .356-.475c.206-.14.435-.197.682-.172.038-.037.08-.06.122-.06.074 0 .136.06.181.14a.957.957 0 0 1 .282.2c.191.194.283.43.283.703a.994.994 0 0 1-.17.558c.14.18.247.36.322.538.01.022.016.045.026.071z"/></g></g><path class="fil2" d="M3.413 0a3.413 3.413 0 1 1 0 6.827 3.413 3.413 0 0 1 0-6.827z"/><path d="M2.72 2.77c.035.152-.014.374-.062.52a1.568 1.568 0 0 1-.217-.077.378.378 0 0 1-.166-.19.574.574 0 0 1-.026-.088 2.371 2.371 0 0 1-.023-.127.107.107 0 0 1-.023-.032.13.13 0 0 1-.011-.055.13.13 0 0 1 .022-.078.095.095 0 0 1 .049-.036.582.582 0 0 1 .064-.09c.023-.027.052-.053.081-.084.027-.03.032-.051.033-.05.128.061.25.252.28.388z" style="fill:#e1e1e2"/><path class="fil4" d="M2.277 3.03a.524.524 0 0 1-.025-.082c.005.013.01.023.016.027a.472.472 0 0 0 .142.034.025.025 0 0 1 .023.026.022.022 0 0 1-.025.02s-.077-.007-.131-.025zM2.22 2.802a.108.108 0 0 1-.017-.026.13.13 0 0 1-.011-.055.13.13 0 0 1 .022-.078.094.094 0 0 1 .035-.03.105.105 0 0 1 .038-.007c.06 0 .108.05.108.11a.11.11 0 0 1-.108.11.106.106 0 0 1-.067-.024zM3.36 2.037a.037.037 0 0 1-.057-.048.22.22 0 0 1 .08-.061.274.274 0 0 1 .22.007c.037.017.07.044.1.078s.051.07.066.109a.334.334 0 0 1 .006.222.284.284 0 0 1-.051.088.228.228 0 0 1-.178.083.038.038 0 0 1 0-.075.154.154 0 0 0 .067-.014.158.158 0 0 0 .054-.043.21.21 0 0 0 .05-.14.26.26 0 0 0-.018-.094.3.3 0 0 0-.052-.087.233.233 0 0 0-.076-.06.2.2 0 0 0-.158-.006.145.145 0 0 0-.052.04zM3.845 5.262a2.196 2.196 0 0 1-.124.01 5.797 5.797 0 0 1-.332.008c-.341 0-.61-.032-.807-.095-.204-.066-.333-.167-.387-.303a.877.877 0 0 1-.047-.22 3.187 3.187 0 0 1-.015-.335c0-.103.02-.181.06-.235a.216.216 0 0 1 .185-.087c.046 0 .09.012.131.035a.408.408 0 0 1 .116.103 2.628 2.628 0 0 0 .088.104c.053.049.14.2.202.204a.897.897 0 0 0 .3-.056c.205-.061.435-.13.64.084a.497.497 0 0 1 .154.366c0 .057-.01.139-.032.21a.608.608 0 0 1-.118.18.037.037 0 0 0-.014.027z"/><path class="fil5" d="M4.587 3.756c.071.186.107.37.107.553 0 .51-.248.821-.743.934a.809.809 0 0 0 .03-.042l-.027.036a.247.247 0 0 1-.109.021c0-.01.006-.02.014-.026a.608.608 0 0 0 .118-.18.756.756 0 0 0 .033-.21.497.497 0 0 0-.039-.194.564.564 0 0 0-.116-.172c-.205-.213-.435-.145-.64-.084a.896.896 0 0 1-.3.056c-.062-.005-.149-.155-.202-.204a1.842 1.842 0 0 1-.012-.013.129.129 0 0 0 .012-.039l-.003.002c0-.024.002-.048.004-.07h.006c.305.027.584.035.869-.01.278-.043.676-.18.998-.358z"/><path class="fil5" d="M4.119 1.887a.961.961 0 0 1 .286.703.979.979 0 0 1-.172.558c.141.18.25.36.326.538.01.022.016.045.027.071-.322.178-.72.314-.997.358a3.548 3.548 0 0 1-.874.009.174.174 0 0 0 .01-.075.516.516 0 0 1-.205-.12.292.292 0 0 1-.085-.211c0-.044.008-.084.022-.121a.288.288 0 0 1 .046-.078.12.12 0 0 1-.009-.05c0-.032.011-.06.033-.083a.19.19 0 0 1 .085-.047l.073-.02-.002-.003a.511.511 0 0 0-.028-.027 1.544 1.544 0 0 0 .07-.48.313.313 0 0 0 .159-.081.21.21 0 0 0 .063-.151.214.214 0 0 0-.078-.172.246.246 0 0 0-.078-.042.282.282 0 0 0-.089-.014.25.25 0 0 0-.193.085l.002.001-.059-.049a.019.019 0 0 0-.011-.003 1.658 1.658 0 0 1 .037-.129.88.88 0 0 1 .36-.475 1.043 1.043 0 0 1 .578-.178.961.961 0 0 1 .703.286zm-1.608.548"/><path class="fil2" d="M3.97 5.234c-.06.022-.07.027-.13.027"/><path class="fil4" d="M2.503 3.519a.288.288 0 0 0-.046.078.326.326 0 0 0-.022.12c0 .083.029.153.085.212a.516.516 0 0 0 .205.122c.272.014.788-.102 1.031-.212.144-.066.278-.151.338-.256.099-.173-.048-.41-.24-.422-.153-.01-.335.083-.493.132a1.427 1.427 0 0 1-.684.027l-.065.019a.19.19 0 0 0-.085.047.116.116 0 0 0-.033.084.13.13 0 0 0 .01.049zM2.947 2.577c0 .125-.106.211-.222.233-.016-.131-.12-.289-.216-.376a.25.25 0 0 1 .193-.085c.03 0 .06.005.09.014.027.01.054.024.077.042a.214.214 0 0 1 .078.172z"/><path d="M2.762 2.446a.065.065 0 1 1 0 .13.065.065 0 0 1 0-.13z" style="fill:#fbfbfc"/><path d="M2.425 2.412a.673.673 0 0 1 .256.39.668.668 0 0 1-.057.479.16.16 0 0 1 .042.019.711.711 0 0 0 .061-.507.727.727 0 0 0-.283-.425.17.17 0 0 1-.02.044z" style="fill:#202020;fill-rule:nonzero"/><path class="fil4" d="M3.65 1.547c.157 0 .262.265.262.42a.282.282 0 0 1-.267.283c-.059-.104-.156-.172-.266-.172h-.012c-.015-.034-.023-.013-.023-.112 0-.098.15-.42.306-.42z"/></g></svg>