<svg xmlns="http://www.w3.org/2000/svg" xml:space="preserve" width="655.359" height="655.359" style="shape-rendering:geometricPrecision;text-rendering:geometricPrecision;image-rendering:optimizeQuality;fill-rule:evenodd;clip-rule:evenodd" viewBox="0 0 6.827 6.827"><defs><clipPath id="id0"><path d="M3.413 0a3.413 3.413 0 1 1 0 6.827 3.413 3.413 0 0 1 0-6.827z"/></clipPath><style>.fil1{fill:#29b6f6}.fil8{fill:#ba68c8}.fil9{fill:#f3e5f5}.fil3,.fil6,.fil7{fill:#660404;fill-rule:nonzero}.fil6,.fil7{fill:#d32f2f}.fil6{fill:#f57c00}</style></defs><g id="Layer_x0020_1"><path d="M3.413 0a3.413 3.413 0 1 1 0 6.827 3.413 3.413 0 0 1 0-6.827z" style="fill:#81d4fa"/><g style="clip-path:url(#id0)"><g id="_637657816"><path id="_4602151441" class="fil1" d="m2.822 1.569 3.786 3.786.081.431L2.903 2z"/><path id="_460215120" class="fil1" d="M2.815 1.555 6.6 5.34l.003.004.003.005.001.005-3.786-3.786-.001-.006-.003-.004z"/><path id="_460217112" class="fil1" d="M3.507 2.423 7.293 6.21l.002.003.002.003.001.004.002.003.001.004.002.003.001.004.002.003-3.787-3.786-.001-.003-.002-.004-.001-.004-.001-.003-.002-.004-.002-.003-.001-.003z"/><path id="_460217520" class="fil1" d="m3.52 2.451 3.786 3.786v.004l.002.004.001.004.001.004.001.004.002.004v.004l.001.004-3.786-3.786v-.004l-.002-.005V2.47l-.002-.003-.001-.004-.001-.004-.001-.004z"/><path id="_460217232" class="fil1" d="m2.903 2 3.786 3.786v.002L2.904 2.002z"/><path id="_460217544" class="fil1" d="m4.05 1.554 3.786 3.787.004.004.002.004.002.005v.011L4.058 1.579v-.011l-.002-.005-.003-.005z"/><path id="_460217736" class="fil1" d="m4.058 1.579 3.786 3.786-.08.43-3.787-3.787z"/><path id="_460217688" class="fil1" d="m5.002 2.567 3.786 3.786-.266.16-3.786-3.786z"/><path id="_460218288" class="fil1" d="M3.473 2.375 7.26 6.16l.003.003.003.004.003.004.004.005.003.005.004.005L3.493 2.4l-.003-.005-.004-.004-.003-.005-.003-.004-.004-.004z"/><path id="_460217856" class="fil1" d="M3.923 2.842 7.71 6.63v.01L3.922 2.854z"/><path id="_460218360" class="fil1" d="M2.903 2.002 6.69 5.788v.001L2.903 2.003z"/><path id="_460218048" class="fil1" d="M2.903 2.003 6.69 5.79l.053.823-3.787-3.787z"/><path id="_460217904" class="fil1" d="M3.334 2.36 7.12 6.144l.001.001v.002h.001v.006H7.12L3.335 2.369v-.002l.001-.001v-.004h-.001z"/><path id="_460218312" class="fil1" d="M3.335 2.368 7.12 6.155l-.01.011L3.326 2.38z"/><path id="_460218336" class="fil1" d="m3.325 2.38 3.787 3.786-.001.001-.002.002v.001l-.002.002-.001.002-.001.002-.002.001v.002L3.315 2.393l.001-.002.001-.002.002-.001v-.002l.002-.002.001-.001.001-.002z"/><path id="_460218000" class="fil1" d="m3.316 2.393 3.786 3.786-.001.002-.001.002-.002.002v.002l-.002.003-.002.002v.002l-.002.003-3.786-3.786.001-.003.001-.002.002-.003v-.002l.002-.002.001-.002.002-.002z"/><path id="_460218072" class="fil1" d="m3.306 2.41 3.786 3.787-.001.002-.002.003-.001.003-.001.002-.002.003v.003l-.002.003-.001.003-3.786-3.786V2.43l.002-.003.001-.003.001-.003.002-.003.001-.002.001-.003z"/><path id="_460217976" class="fil1" d="m3.296 2.433 3.786 3.786-.001.003-.001.003-.001.003-.001.004-.001.003-.001.003-.001.004-.001.003-3.786-3.786v-.004l.002-.003v-.003l.001-.004.001-.003.001-.003.002-.003z"/><path id="_460218216" class="fil1" d="m3.288 2.459 3.786 3.786v.003l-.001.004v.003l-.001.004-.001.003v.008l-.001.003-3.786-3.786v-.011l.001-.003v-.004l.002-.003v-.004z"/><path id="_460218552" class="fil1" d="M3.284 2.487 7.07 6.273v.03L3.282 2.516V2.491z"/><path id="_460219104" class="fil1" d="M3.283 2.516 7.07 6.303v.003l.001.004v.003l.001.004v.004l.001.003v.004l.002.003-3.787-3.786v-.004l-.001-.003v-.004l-.001-.003v-.004l-.001-.003V2.52z"/><path id="_460218696" class="fil1" d="m3.287 2.545 3.787 3.786v.004l.001.003.001.004.001.003.001.003.001.004.001.003.001.003-3.786-3.786-.001-.003-.001-.004-.001-.003-.001-.003-.001-.004-.001-.003-.001-.004z"/><path id="_460218600" class="fil1" d="M3.295 2.572 7.08 6.358l.001.003.002.003.001.003.001.003.002.003v.003l.002.003.002.002-3.786-3.786-.002-.002-.001-.003-.002-.003-.001-.003-.001-.003-.002-.003v-.003z"/><path id="_460219032" class="fil1" d="m3.306 2.595 3.786 3.786.001.003.002.003.001.002.002.003.001.002.002.003.001.002.002.002-3.787-3.786-.001-.002-.002-.003-.001-.002-.002-.002-.001-.003-.002-.002-.001-.003z"/><path id="_460219272" class="fil1" d="M3.317 2.615 7.104 6.4l.001.002.002.002.001.002.002.002.001.002.002.002.001.002.002.001L3.329 2.63l-.001-.002-.002-.001-.001-.002-.002-.002-.001-.002-.002-.002-.001-.002z"/><path id="_460219152" class="fil1" d="m3.33 2.63 3.786 3.786v.001l.001.001.001.001v.001l.002.001.001.002-3.785-3.786h-.001v-.001l-.002-.001v-.001l-.001-.001-.001-.001v-.001z"/><path id="_460219128" class="fil1" d="m3.528 2.483 3.786 3.786.001.004v.004l.001.004.001.005v.008l.001.004v.005L3.533 2.516V2.503L3.53 2.5v-.004l-.001-.004-.001-.004z"/><path id="_460218720" class="fil1" d="M3.532 2.516 7.32 6.303v.029l-.001.005L3.532 2.55v-.029z"/><path id="_460218816" class="fil1" d="m3.532 2.55 3.786 3.787v.008l-.002.004v.004l-.001.005v.004l-.002.004v.004L3.526 2.583l.001-.004.001-.004v-.004l.002-.004V2.56l.001-.004z"/><path id="_460219632" class="fil1" d="M3.526 2.583 7.313 6.37l-.001.004-.002.004v.003l-.002.004v.004l-.002.004-.001.003-.002.004-3.786-3.787.001-.003.002-.004v-.003l.002-.004.001-.004.001-.004.001-.004z"/><path id="_460219920" class="fil1" d="M3.517 2.613 7.303 6.4l-.001.003-.002.004-.001.003-.001.003-.002.003-.001.004-.002.003-.002.003-3.786-3.787.002-.003.001-.003.002-.003.001-.003.002-.003.001-.004.002-.003z"/><path id="_460219848" class="fil1" d="m3.505 2.64 3.786 3.786v.001l-.002.002v.002l-.002.002v.002l-.002.001v.002l-.002.002-3.786-3.787.001-.001.001-.002.001-.002.001-.001.001-.002.001-.002.001-.002z"/><path id="_460219872" class="fil1" d="M3.584 2.714 7.371 6.5l.006.007.007.007.006.008.005.007.006.008.005.008.005.009.005.008.004.01.004.008.004.009.004.01.003.009.002.01.003.009.002.01.002.01v.01l.002.01v.02L3.66 2.901v-.02l-.001-.01-.002-.01-.001-.01-.002-.01-.003-.01-.003-.01-.003-.009-.003-.01-.004-.008-.004-.01-.004-.008-.005-.008-.005-.009-.005-.008-.006-.008-.006-.008-.006-.007-.006-.007z"/><path id="_460219704" class="fil1" d="m3.66 2.901 3.787 3.786V6.705l-.001.004v.005l-.001.004v.004l-.001.005v.004l-.002.004v.004l-.001.005-.001.004-.001.004-.001.004L3.652 2.97v-.004l.002-.005v-.004l.001-.004.001-.004v-.004l.002-.005v-.008l.001-.005V2.92l.001-.005v-.008z"/><path id="_460219296" class="fil1" d="m3.913 2.862 3.786 3.786-.325.282-3.786-3.786z"/><path id="_460219968" class="fil1" d="m3.828 3.302 3.786 3.786.008.009.007.008.007.009.007.008.007.01.006.008.007.01.006.009.007.009.005.01.006.009.006.01.005.01.006.01.005.01.005.01.004.01.005.01.004.01.004.011.004.01.004.012.004.01.003.011.003.011.003.012.003.01.002.012.003.011.002.012.002.011.001.012L3.98 3.626l-.002-.012-.002-.011-.002-.012-.002-.011-.002-.011-.003-.012-.003-.01-.003-.012-.004-.01-.003-.012-.004-.01-.004-.011-.004-.01-.004-.011-.005-.01-.005-.01-.004-.01-.006-.01-.005-.01-.005-.01L3.9 3.4l-.006-.01-.006-.01-.006-.009-.006-.009-.007-.01-.006-.008-.007-.009-.007-.009-.007-.008-.008-.009z"/><path id="_460219320" class="fil1" d="M3.914 3.279 7.7 7.065h-.004l-.005.002-.004.001-.005.001-.004.001-.005.002H7.67l-.005.002-.004.001-.005.001-.004.002-.005.001-.004.001-.004.002h-.005l-.004.002-3.787-3.786.005-.001.004-.002.005-.001.004-.001.005-.002h.004l.005-.002.004-.001.005-.001.004-.002h.005l.004-.002.005-.001.004-.001.005-.001z"/><path id="_460219368" class="fil1" d="m4.382 3.76 3.786 3.787-.003-.001h-.002l-.003-.001h-.004l-.003-.001h-.002l-.003-.001-3.786-3.787h.002l.003.001h.002l.003.001h.002l.003.001h.002z"/><path id="_460219440" class="fil1" d="m4.362 3.756 3.786 3.787-.005-.001-.005-.001-.005-.001-.005-.001h-.005l-.005-.002h-.01L4.322 3.75h.005l.005.001h.005l.005.002h.005l.005.001.005.001z"/><path id="_460219608" class="fil1" d="M3.842 3.298 7.63 7.084h-.002l-.002.001h-.002l-.002.001H7.62l-.002.001h-.002l-.002.001-3.786-3.786h.002L3.83 3.3h.002l.002-.001h.002l.002-.001h.002z"/><path id="_460220424" class="fil1" d="m4.4 3.766 3.786 3.786-.018-.005L4.382 3.76z"/><path id="_460220472" class="fil1" d="m4.28 3.745 3.787 3.786h-.011l-.005-.001h-.01l-.005-.001H8.03l-.005-.001h-.01l-.006-.001h-.015l-.006-.001h-.005L4.197 3.739h.01l.006.001h.01l.005.001h.011l.005.001h.01l.006.001h.005l.005.001h.005z"/><path id="_460220280" class="fil1" d="m4.197 3.74 3.786 3.786h-.01l-.006-.001H7.946l-.005-.001H7.91l-.006-.001H7.9L4.113 3.737h.047l.005.001h.021l.006.001z"/><path id="_460220544" class="fil1" d="m4.113 3.737 3.786 3.786H7.768L3.982 3.736H4.109z"/><path id="_460220208" class="fil1" d="M3.226 3.133 7.013 6.92 6.7 6.65 2.914 2.861z"/><path id="_460220712" class="fil1" d="m2.8 3.736 3.786 3.786H6.5L2.714 3.738H2.773l.005-.001h.016z"/><path id="_460220304" class="fil1" d="M2.912 3.279 6.7 7.065l-.005-.001-.004-.001-.005-.002h-.004l-.005-.002h-.004l-.005-.002h-.004l-.005-.002h-.005l-.004-.002h-.005l-.004-.001-.005-.001-.004-.001-.005-.001L2.84 3.262l.004.001.005.001.005.001.004.001.005.001.004.001.005.001.004.001.005.001.004.001.005.001.004.001.005.001.004.001.005.001z"/><path id="_460220736" class="fil1" d="M2.84 3.262 6.626 7.05l-.004-.001-.005-.001h-.005l-.004-.002h-.005L6.6 7.044l-.005-.001H6.59l-.005-.002H6.58l-.004-.001H6.57l-.004-.001-.005-.001h-.005l-.004-.001L2.767 3.25l.004.001h.005l.004.001.005.001h.005l.004.001.005.001h.004l.005.002h.004l.005.001.005.001.004.001h.005l.004.002z"/><path id="_460220592" class="fil1" d="M2.714 3.737 6.5 7.523h-.042l-.005.001h-.021l-.006.001h-.01L2.63 3.74h.026l.005-.001H2.688l.005-.001h.016z"/><path id="_460220112" class="fil1" d="m2.63 3.74 3.786 3.786h-.021l-.005.001h-.011l-.005.001h-.01l-.006.001h-.005l-.005.001h-.01l-.005.001-3.787-3.786h.011l.005-.001h.005l.005-.001h.011l.005-.001h.005l.005-.001h.016l.005-.001h.005z"/><path id="_460220952" class="fil1" d="m2.546 3.745 3.787 3.786h-.006l-.005.001h-.005l-.005.002h-.01l-.005.002H6.29L2.505 3.75h.005l.005-.001.005-.001h.006l.005-.001.005-.001h.005z"/><path id="_460221144" class="fil1" d="m2.505 3.75 3.786 3.786h-.005l-.005.001-.005.001-.005.001h-.005l-.005.002h-.005l-.005.002-3.786-3.787h.005l.005-.002h.005l.005-.001.005-.001h.005L2.5 3.75z"/><path id="_460221384" class="fil1" d="M2.964 3.292 6.75 7.078h-.003l-.004-.002H6.74l-.003-.001-.003-.001-.003-.001h-.003l-.004-.002h-.003l-.003-.001-.003-.001-.003-.001h-.004l-.003-.002h-.003l-.003-.001-3.787-3.786h.004l.003.001h.003l.003.002h.004l.003.001.003.001.003.001h.003l.003.002h.004l.003.001.003.001.003.001.003.001z"/><path id="_460220832" class="fil1" d="M3.39 4.404 7.178 8.19l-.002-.001-.002-.002-.003-.002-.004-.002-.005-.003-.006-.004-.006-.005-.008-.004-.007-.006-.009-.006-.01-.006-.009-.007-.01-.007-.01-.008-.012-.008-.012-.009-.012-.009-.013-.01-.013-.009-.013-.01-.013-.01-.014-.012-.014-.011-.015-.012-.014-.012-.015-.012-.014-.013-.015-.013-.015-.013-.014-.013-.015-.014L3.067 4.15l.014.013.015.014.015.013.014.013.015.013.015.012.014.012.014.012.014.01.014.012.014.01.013.01.013.01.013.01.012.01.012.008.01.008.012.008.01.007.01.007.009.006.008.006.008.005.007.005.007.004.005.004.005.003.004.003.004.002.002.002h.001z"/><path id="_460221456" class="fil1" d="M2.465 3.756 6.25 7.543h-.005l-.002.001H6.24l-.002.001h-.003l-.002.001H6.23L2.445 3.76h.005l.002-.001h.003l.002-.001h.003l.002-.001z"/><path id="_460221288" class="fil1" d="M2.238 4.043 6.025 7.83l-.003.004-.003.004-.003.004-.003.004-.003.004-.003.004-.003.004L6 7.862l-.003.004-.003.004-.003.004-.003.004-.003.004-.003.004-.003.004-.004.004L2.19 4.108l.003-.004.003-.004.003-.004.004-.004.003-.004.003-.004.003-.004.003-.004.003-.004.003-.004.003-.004.003-.004.003-.004.002-.004.003-.005z"/><path id="_460221192" class="fil1" d="M2.013 4.28 5.8 8.065l-.202.108-3.786-3.787z"/><path id="_460220880" class="fil1" d="m2.823 5.153 3.786 3.786-.004.007L2.818 5.16z"/><path id="_460221000" class="fil1" d="m2.818 5.16 3.787 3.786-.068.108-3.786-3.787z"/><path id="_460221024" class="fil1" d="m2.751 5.267 3.786 3.787-.003.004-.004.003-.005.003-.004.002H6.51l-.005-.001-.005-.003-3.786-3.786.005.002.005.002h.01l.005-.002.005-.003.004-.003z"/><path id="_460221216" class="fil1" d="M2.714 5.276 6.5 9.062l-.004-.003L2.71 5.273z"/><path id="_460221624" class="fil1" d="m2.767 3.25 3.786 3.787-.005-.001h-.004l-.005-.001h-.005l-.004-.001-.005-.001H6.516l-.005-.001h-.004l-.005-.001h-.004l-.005-.001H6.484l-.005-.001-3.786-3.787h.004l.005.001h.005l.004.001h.005l.004.001h.01l.004.001h.005l.005.001h.004l.005.001.004.001h.005z"/><path id="_460221648" class="fil1" d="m2.126 2.685 3.786 3.786.003.004L2.13 2.688z"/><path id="_460222032" class="fil1" d="m2.445 3.76 3.786 3.787-.018.005-3.786-3.786z"/><path id="_460222224" class="fil1" d="m2.427 3.766 3.786 3.786-.004.001-.004.001-.004.002-.003.001-.004.002-.003.001-.003.002-.004.001-3.786-3.786.003-.002.004-.001.003-.002.003-.001.004-.002.003-.001.004-.001z"/><path id="_460221960" class="fil1" d="m2.398 3.777 3.786 3.786-.002.004-.002.005-.002.004-.002.004-.003.004-.002.005-.002.004-.002.004-.002.004-.003.004-.002.004-.002.005-.002.004-.002.004-.003.004-.002.004-.002.004-.003.004-.002.004-.002.005-.002.004-.003.004-.002.004-.002.004-.003.004-.002.004-.003.004-.002.004-.002.004-.003.004-.002.004-.002.004L2.325 3.91l.003-.004.002-.004.002-.004.003-.004.002-.004.003-.004.002-.004.002-.004.003-.004.002-.005.002-.004.003-.004.002-.004.002-.004.002-.004.003-.004.002-.004.002-.004.002-.005.003-.004.002-.004.002-.004.002-.004.003-.004.002-.004.002-.005.002-.004.002-.004.003-.004.002-.005.002-.004z"/><path id="_460222128" class="fil1" d="m2.325 3.91 3.787 3.785-.003.005-.003.004-.002.004-.003.005-.002.004-.003.004-.003.004-.002.005-.003.004-.002.004-.003.004-.003.005-.002.004-.003.004-.003.004-.003.004-.002.005-.003.004-.003.004-.002.004-.003.004-.003.004-.003.005-.003.004-.002.004-.003.004-.003.004-.003.004-.003.004-.003.004-.003.005-.002.004-3.787-3.787.003-.004.003-.004.003-.004.003-.004.003-.004.003-.004.002-.004.003-.005.003-.004.003-.004.003-.004.002-.004.003-.004.003-.005.002-.004.003-.004.003-.004.003-.004.002-.005.003-.004.003-.004.002-.004.003-.004.003-.005.002-.004.003-.004.002-.004.003-.005.003-.004.002-.004.003-.005z"/><path id="_460221600" class="fil1" d="m3.067 4.15 3.786 3.787-.257.529-3.787-3.787z"/><path id="_460221816" class="fil1" d="m4.058 5.138 3.787 3.786.063.101L4.12 5.239z"/><path id="_460221888" class="fil1" d="m4.121 5.239 3.787 3.786.002.005.001.005v.01l-.002.005-.002.005-.004.004-.004.003-3.786-3.786.004-.003.003-.004.003-.005.002-.005v-.01l-.001-.005z"/><path id="_460221984" class="fil1" d="m4.113 5.276 3.786 3.786-.005.003H7.89l-.005.001h-.005l-.005-.002-.005-.003-.004-.003L4.08 5.272l.004.003.004.003.005.001.006.001h.005l.005-.002z"/><path id="_460222080" class="fil1" d="m2.19 4.108 3.786 3.786-.025.031L2.165 4.14z"/><path id="_460222416" class="fil1" d="M2.165 4.139 5.95 7.925l-.027.03L2.138 4.17z"/><path id="_460206912" class="fil1" d="m2.138 4.17 3.786 3.785-.003.004-.004.004-.003.004-.004.003-.003.004-.004.004-.003.003-.004.004L2.11 4.199l.003-.004.004-.004.003-.003.004-.004.004-.004.003-.003.004-.004z"/><path id="_460206720" class="fil1" d="m2.11 4.199 3.786 3.786-.004.003-.003.004-.004.004-.003.003-.004.004-.004.003-.004.004-.004.003L2.08 4.227l.004-.004.004-.003.004-.004.003-.003.004-.004.004-.003.003-.004z"/><path id="_460206384" class="fil1" d="m2.08 4.227 3.786 3.786-.003.003-.004.004-.004.003-.004.004-.004.003-.004.003-.004.004-.004.003L2.05 4.253l.004-.003.004-.003.004-.003.004-.004.004-.003.003-.004.004-.003z"/><path id="_460206672" class="fil1" d="M2.049 4.253 5.835 8.04l-.033.024-3.787-3.786z"/><path id="_460206480" class="fil1" d="m2.015 4.278 3.787 3.786H5.8L2.015 4.28z"/><path id="_460206264" class="fil1" d="M2.015 4.279 5.8 8.065h-.002L2.013 4.28z"/><path id="_460206408" class="fil1" d="m2.81 4.68 3.786 3.786.013.465-3.786-3.787z"/><path id="_460206600" class="fil1" d="m2.823 5.144 3.786 3.787v.008L2.823 5.153z"/><path id="_460206960" class="fil1" d="m1.811 4.387 3.786 3.787-.005.002h-.015l-.005-.002-.004-.003L1.78 4.384l.005.003.004.002.005.001h.011z"/><path id="_460206312" class="fil1" d="m2.09 2.727 3.787 3.786-.266-.16-3.786-3.786z"/><path id="_460206528" class="fil1" d="m2.129 2.688 3.786 3.787.42.5L2.55 3.187z"/><path id="_654549920" class="fil1" d="M2.545 3.244 6.33 7.031 2.545 3.244z"/><path id="_654550112" class="fil1" d="M2.545 3.244 6.33 7.031l-.016.002-3.786-3.786z"/><path id="_654550328" class="fil1" d="m2.619 3.24 3.786 3.787h-.037l-.005.001H6.354l-.004.001h-.005l-.005.001H6.331L2.545 3.245H2.559l.004-.001h.01l.004-.001H2.586l.005-.001H2.614z"/><path id="_654550472" class="fil1" d="M1.825 2.567 5.61 6.353l-.004-.003L1.82 2.564z"/><path id="_654550232" class="fil1" d="M2.693 3.242 6.479 7.03l-.037-.002L2.656 3.24z"/><path id="_654550088" class="fil1" d="m2.656 3.24 3.786 3.787h-.037L2.619 3.24h.032z"/><path id="_654550400" class="fil1" d="m3.746 4.121 3.786 3.786-.015.016-.016.014-.016.015-.016.014-.015.014-.016.014-.015.013-.016.013-.015.013-.015.012-.015.012-.015.012-.014.01-.014.011-.013.01-.013.01-.013.01-.012.008-.011.008-.011.008-.01.007-.01.006-.009.007-.008.005-.007.005-.006.004-.006.004-.004.003-.004.002-.003.002h-.001v.001L3.39 4.404l.002-.001.003-.002.003-.003.005-.003.006-.003.006-.004.007-.005.008-.006.009-.006.01-.006.01-.008.01-.007.012-.008.012-.01.012-.008.014-.01.013-.01.014-.01.014-.012.015-.011.014-.012.015-.012.016-.013.015-.013.016-.013.015-.014.016-.014.016-.014.016-.015.015-.015z"/><path id="_654550136" class="fil1" d="m4.072 4.67 3.786 3.786v.005L4.07 4.674z"/><path id="_654550544" class="fil1" d="M4.07 4.663 7.855 8.45l.002.006L4.072 4.67z"/><path id="_654550640" class="fil1" d="m4.071 4.674 3.787 3.787-.013.463-3.787-3.786z"/><path id="_654551336" class="fil1" d="m3.85 4.006 3.786 3.786.22.658-3.787-3.787z"/><path id="_654551192" class="fil1" d="M2.914 2.862 6.7 6.648l-.01-.008-3.786-3.787z"/><path id="_654551408" class="fil1" d="m3.982 3.736 3.786 3.787-.001.008-.001.009-.002.008-.002.009-.002.008-.002.009-.003.008-.002.009-.003.008-.003.009-.003.008-.004.009-.004.008-.004.009-.004.008-.004.009-.004.008-.005.009-.004.008-.005.009L7.7 7.7l-.006.009-.005.008-.005.008-.006.009-.006.008-.006.008-.006.009-.006.008-.006.008-.006.008-.007.008L3.85 4.006l.007-.008.006-.008.006-.008.006-.009.006-.008.006-.008.006-.008.005-.009.006-.008.005-.009.005-.008.005-.008.005-.009.005-.008.005-.009.004-.008.004-.009.004-.008.004-.009.004-.008.003-.009.004-.008.003-.009.003-.008.002-.009.003-.008.002-.009.002-.009.002-.008.001-.009.002-.008z"/><path id="_654551264" class="fil1" d="M3.493 2.4 7.28 6.187l.001.002.002.003.002.003.002.002.001.003.002.003.002.004.001.003-3.786-3.787-.002-.003-.001-.003-.002-.003-.002-.003-.001-.003-.002-.002-.002-.003z"/><path id="_654550952" class="fil1" d="M8.068 7.03zM4.282 3.245z"/><path id="_654550784" class="fil1" d="M3.922 2.853 7.71 6.64l-.01.008-3.786-3.786z"/><path id="_654551216" class="fil1" d="m4.282 3.244 3.786 3.787h-.005L8.06 7.03H8.05l-.005-.001H8.036l-.005-.001H8.022l-.005-.001H7.994L4.208 3.24H4.236l.004.001H4.25l.005.001h.005l.004.001h.01l.004.001z"/><path id="_654551288" class="fil1" d="m4.208 3.24 3.786 3.787h-.037L4.171 3.24h.032z"/><path id="_654550904" class="fil1" d="m4.17 3.24 3.787 3.787-.037.002-3.786-3.787z"/><path id="_654550976" class="fil1" d="M4.134 3.242 7.92 7.03H7.911l-.005.001H7.897l-.005.001h-.004l-.005.001H7.88l-.005.001h-.005l-.004.001H7.86l-.004.001H7.85l-.005.002L4.06 3.25h.005l.004-.001h.005l.005-.001h.004l.005-.001h.004l.005-.001h.005l.004-.001H4.115l.005-.001h.005l.004-.001z"/><path id="_654551048" class="fil1" d="m4.06 3.25 3.786 3.787H7.837l-.004.002h-.01l-.004.002h-.005l-.004.001-.005.001h-.004l-.005.002H7.79l-.004.001-.005.001h-.004l-.005.002-3.786-3.787h.004l.005-.001L4 3.26h.004l.005-.002h.004l.005-.001.004-.001h.005l.005-.002h.004l.005-.001h.004l.005-.001.005-.001z"/><path id="_654552152" class="fil1" d="M3.987 3.262 7.773 7.05H7.77l-.005.002h-.005l-.004.002H7.75l-.004.001-.005.001-.004.001-.005.001-.004.001-.005.001-.004.001-.005.001-.005.002h-.004l-.005.002-3.786-3.786.005-.002h.004l.005-.002h.004l.005-.002h.004l.005-.002h.004l.005-.002h.004l.005-.002h.005l.004-.002h.005l.004-.002z"/><path id="_654551456" class="fil1" d="m4.429 3.777 3.786 3.786-.003-.001-.004-.002-.003-.001-.003-.002-.004-.001-.004-.002-.003-.001-.005-.001L4.4 3.766h.004l.004.002.004.001.003.002.004.001.003.002.003.001z"/><path id="_654551936" class="fil1" d="m4.812 4.279 3.786 3.786L4.81 4.277z"/><path id="_654551600" class="fil1" d="m4.811 4.278 3.787 3.786-.034-.024-3.786-3.787z"/><path id="_654551504" class="fil1" d="M4.473 3.745 8.26 7.532l.003.004.002.004.002.004.002.005.002.004.002.004.003.005.002.004.002.004.002.005.003.004.002.004.002.004.003.005.002.004.002.004.003.004.002.005.002.004.003.004.002.005.003.004.002.004.002.004.003.004.002.005.003.004.002.004.003.004.002.005.003.004.002.004-3.786-3.786-.003-.005-.002-.004-.003-.004-.002-.004-.003-.004-.002-.005-.002-.004-.003-.004-.002-.004-.003-.005-.002-.004-.002-.004-.003-.004-.002-.005-.003-.004-.002-.004-.002-.004-.003-.005-.002-.004-.002-.004-.003-.004-.002-.005-.002-.004-.002-.004-.003-.005-.002-.004-.002-.004-.002-.004-.002-.005-.003-.004-.002-.004z"/><path id="_654551984" class="fil1" d="M4.632 4.012 8.42 7.798l.002.004.003.004.003.004.003.004.003.004.003.004.003.004.002.004.003.004.003.004.003.003.003.004.003.004.003.004.003.004.003.003-3.786-3.786-.003-.004-.003-.003-.003-.004-.003-.004-.003-.004-.003-.004-.003-.004-.003-.004-.003-.003-.003-.004-.002-.004-.003-.004-.003-.004-.003-.004-.003-.004z"/><path id="_654551432" class="fil1" d="M4.703 4.104 8.49 7.89l.026.03-3.786-3.787z"/><path id="_654552056" class="fil1" d="m4.729 4.133 3.786 3.786.003.004.003.003.004.004-3.787-3.787-.003-.003-.003-.004z"/><path id="_654552008" class="fil1" d="M4.679 4.074 8.465 7.86l.024.03-3.786-3.786z"/><path id="_654551720" class="fil1" d="m4.548 3.882 3.786 3.786.002.004.003.004.003.004.002.005.003.004.002.004.003.004.002.004.003.004.002.004.003.005.003.004.002.004.003.004.002.004.003.004.003.004.002.004.003.004.003.004.002.004.003.005.003.004.002.004.003.004.003.004.003.004.002.004.003.004.003.004.003.003.003.004-3.787-3.786-.002-.004-.003-.004L4.624 4l-.003-.004-.003-.004-.002-.004-.003-.004-.003-.004-.003-.004-.002-.004-.003-.004-.003-.004-.002-.004-.003-.004-.003-.004-.002-.004-.003-.004-.003-.004-.002-.004-.003-.005-.002-.004-.003-.004-.002-.004-.003-.004-.003-.004-.002-.004-.003-.005-.002-.004-.003-.004-.002-.004-.003-.004z"/><path id="_654552032" class="fil1" d="m5.052 4.376 3.786 3.786-.003.005-.003.004-.005.003-.004.002h-.016l-.005-.002-3.786-3.787.005.002.005.001h.01l.005-.003.004-.003.004-.003z"/><path id="_654552800" class="fil1" d="m3.977 2.008 3.786 3.786-.054.835-3.786-3.787z"/><path id="_654552896" class="fil1" d="m4.736 2.727 3.786 3.786-.428.509-3.786-3.787z"/><path id="_654552464" class="fil1" d="m4.308 3.235 3.786 3.787-.01.011-3.786-3.786z"/><path id="_654552320" class="fil1" d="m4.298 3.247 3.786 3.786-.016-.002-3.786-3.787z"/><path id="_654552848" class="fil1" d="m4.47 3.739 3.787 3.786.002.007-3.786-3.787z"/><path id="_654552704" class="fil1" d="m4.322 3.75 3.786 3.786h-.005l-.005-.001h-.006l-.005-.001-.005-.001h-.005l-.005-.001h-.005L4.28 3.744h.006l.005.001h.005l.005.001h.005l.005.002h.005z"/><path id="_654552368" class="fil1" d="m5.05 4.347 3.786 3.786.002.004.002.005.001.005v.01l-.003.005-3.786-3.786.002-.005.001-.005v-.01l-.003-.005z"/><path id="_654552200" class="fil1" d="M4.778 4.253 8.564 8.04l-.004-.003-.004-.004-.004-.003-.004-.003-.004-.004-.003-.003-.004-.004-.004-.003-3.786-3.786.003.003.004.003.004.004.004.003.004.004.004.003.004.003z"/><path id="_654552680" class="fil1" d="m4.717 4.199 3.786 3.786L8.5 7.98l-.004-.003-.004-.004-.003-.004-.004-.003L4.7 4.18l.004.004.003.004.004.003.003.004z"/><path id="_654552248" class="fil1" d="m4.747 4.227 3.786 3.786-.004-.003-.004-.004-.004-.003-.003-.004-.004-.003-.004-.004-.003-.004-.004-.003-3.786-3.786.003.003.004.004.004.003.003.004.004.003.004.004.004.003z"/><path id="_654553016" class="fil1" d="M4.814 4.28 8.6 8.065l-.002-.001-3.786-3.786z"/><path id="_654553064" class="fil1" d="m5.016 4.387 3.786 3.787-.202-.108-3.786-3.787z"/><path id="_654537584" class="fil1" d="m5.008 2.526 3.786 3.786.003.004L5.011 2.53z"/><path id="_654537080" class="fil1" d="m5.011 2.53 3.786 3.786.003.005v.006l.001.005v.005l-.002.005-.003.004-.004.004-.004.003-3.786-3.786.004-.003.004-.004.002-.005.002-.004v-.016z"/><path id="_637658416" class="fil1" d="M4.282 3.244zm-.305-1.236-.054.834v.011l-.01.009-.325.282a.59.59 0 0 1 .103.047 1.776 1.776 0 0 1 .205-.027c.026-.003.053-.004.08-.005h.08c.026 0 .053.003.079.005l.04.004.04.006c.02.003.041.009.062.014l.42-.5.004-.003.004-.002.27-.162a.027.027 0 0 1 .027.046l-.266.16-.428.508-.01.012-.016-.003c-.025-.001-.05-.004-.074-.004H4.17l-.037.002c-.025.003-.05.004-.074.008l-.073.012c-.025.006-.049.01-.073.017a1.54 1.54 0 0 0-.086.023c.08.088.135.2.15.324a4.675 4.675 0 0 1 .228.03c.029.004.057.01.086.016l.043.01a.48.48 0 0 1 .043.013L4.4 3.7l.021.01c.014.004.03.015.044.024l.005.004.003.006a2.05 2.05 0 0 0 .206.33l.024.03.026.028c.008.01.017.018.026.027.009.01.018.019.028.027.01.008.018.017.028.024l.03.022.2.107a.027.027 0 0 1-.025.047l-.202-.108h-.002l-.034-.026-.031-.026a.398.398 0 0 1-.03-.028l-.028-.03-.027-.03-.025-.031a1.45 1.45 0 0 1-.136-.199 2.105 2.105 0 0 1-.072-.132c-.01-.004-.017-.009-.029-.011l-.018-.006-.02-.004a.422.422 0 0 0-.04-.006l-.042-.005a1.643 1.643 0 0 0-.167-.008h-.131a.562.562 0 0 1-.132.27l.22.656.002.007v.004l-.014.464.063.1a.027.027 0 1 1-.045.03l-.068-.108-.004-.007v-.009l.013-.465-.271-.558a2.365 2.365 0 0 1-.355.283s-.168-.105-.324-.253l-.258.528.014.465v.009l-.005.007-.067.107a.027.027 0 1 1-.046-.028l.063-.101-.013-.464V4.67l.002-.007.207-.619a.613.613 0 0 1-.164-.308 4.394 4.394 0 0 0-.17.003 1.644 1.644 0 0 0-.084.006l-.04.005a.423.423 0 0 0-.041.006l-.02.004-.018.006c-.012.002-.02.007-.029.01a2.126 2.126 0 0 1-.208.332l-.025.03-.027.031-.028.03a.4.4 0 0 1-.03.028l-.031.026-.034.025-.002.001-.202.108a.027.027 0 0 1-.025-.047l.2-.107.03-.022c.01-.007.018-.016.028-.024a.365.365 0 0 0 .028-.027c.008-.009.018-.017.026-.027l.026-.029.024-.03a1.4 1.4 0 0 0 .13-.192c.027-.045.053-.09.075-.137l.003-.006.006-.004c.014-.009.03-.02.043-.024l.022-.01.022-.006a.478.478 0 0 1 .043-.013l.043-.01a1.695 1.695 0 0 1 .172-.03l.095-.011a.591.591 0 0 1 .162-.34 1.29 1.29 0 0 0-.052-.012c-.024-.007-.048-.011-.072-.017l-.073-.012c-.025-.004-.05-.005-.074-.008l-.037-.001h-.037c-.025-.001-.05.002-.074.003l-.016.003-.01-.012-.428-.508-.266-.16a.027.027 0 1 1 .028-.046l.27.162.003.002.003.003.42.5.063-.014.04-.006.04-.004c.026-.002.053-.005.08-.005h.08a1.675 1.675 0 0 1 .25.026.59.59 0 0 1 .124-.052l-.312-.271-.01-.009v-.01l-.054-.835-.08-.43a.027.027 0 0 1 .052-.01L2.903 2v.003l.053.822.167.11a.27.27 0 0 1 .161-.282.182.182 0 0 1-.02-.04l-.009-.03-.005-.033v-.034c0-.011.001-.022.004-.033l.008-.032c.005-.01.008-.02.013-.028a.198.198 0 0 1 .04-.054l.01-.01a.007.007 0 0 1 .01 0 .007.007 0 0 1 0 .01l-.01.01a.093.093 0 0 0-.009.014c-.003.005-.007.01-.01.018a.149.149 0 0 0-.01.022c-.004.008-.005.017-.008.026-.002.009-.004.018-.004.028-.002.01 0 .02 0 .03 0 .009 0 .019.003.028l.008.027.01.023a.135.135 0 0 0 .012.02l.012.015a.096.096 0 0 0 .007.007.27.27 0 0 1 .11 0 .093.093 0 0 0 .006-.007l.012-.015a.133.133 0 0 0 .012-.02l.01-.023c.003-.009.007-.018.008-.027.003-.01.003-.019.005-.029v-.029l-.005-.028-.008-.026a.147.147 0 0 0-.01-.022l-.01-.018a.093.093 0 0 0-.01-.013l-.009-.012a.007.007 0 0 1 .01-.009l.01.01a.197.197 0 0 1 .04.054c.005.009.008.018.012.028.003.01.007.02.009.032.003.01.003.022.004.033v.034c-.001.012-.004.023-.006.033-.003.01-.005.021-.01.03a.177.177 0 0 1-.019.04.27.27 0 0 1 .155.317l.218-.145.053-.822V2l.082-.431a.027.027 0 1 1 .053.01l-.081.43z"/></g></g><path d="M3.413 0a3.413 3.413 0 1 1 0 6.827 3.413 3.413 0 0 1 0-6.827z" style="fill:none"/><path class="fil3" d="m3.47 3.09.41-.27-.01.019.053-.836V2l.082-.431a.027.027 0 1 1 .053.01l-.081.43v-.002l-.054.835v.011l-.01.009-.372.322a.06.06 0 1 1-.071-.094zM3.658 3.198a1.654 1.654 0 0 1 .238-.034c.026-.003.053-.004.08-.005h.08c.026 0 .053.003.079.005l.04.004.04.006c.026.004.052.011.077.017l-.025.01.43-.513.004-.003.004-.002.27-.162a.027.027 0 0 1 .027.046l-.27.162.007-.006-.431.512-.01.012-.016-.003c-.025-.001-.05-.004-.074-.004H4.17l-.037.002c-.025.003-.05.004-.074.008l-.073.012c-.025.006-.049.01-.073.017a1.54 1.54 0 0 0-.21.066.077.077 0 1 1-.046-.147zM3.775 3.609a5 5 0 0 1 .431.047c.029.004.057.01.086.016l.043.01a.48.48 0 0 1 .043.013l.022.007.021.009c.014.004.03.015.044.024l.005.004.003.006a2.05 2.05 0 0 0 .206.33l.024.03.026.028c.008.01.017.018.026.027.009.01.018.019.028.027.01.008.018.017.028.024l.03.022-.002-.001.202.108a.027.027 0 0 1-.025.047l-.202-.108h-.002l-.034-.026-.031-.026a.398.398 0 0 1-.03-.028l-.028-.03-.027-.03-.025-.031a1.45 1.45 0 0 1-.136-.199 2.068 2.068 0 0 1-.076-.14l.008.01c-.011-.005-.02-.01-.033-.013l-.018-.006-.02-.004a.422.422 0 0 0-.04-.006l-.042-.005a1.643 1.643 0 0 0-.167-.008c-.113-.002-.226 0-.338.007a.068.068 0 1 1 0-.135zM3.843 3.985l.226.678.003.007v.004l-.014.472-.004-.015.067.108a.027.027 0 1 1-.045.028l-.068-.107-.004-.007v-.009l.014-.471.002.01-.313-.642a.074.074 0 1 1 .136-.056zM3.285 3.184l-.37-.322-.01-.009-.002-.01-.053-.836v.003l-.08-.431a.027.027 0 0 1 .052-.01l.081.43v.004l.054.836-.01-.02.41.27a.06.06 0 1 1-.072.095zM3.123 3.345a1.516 1.516 0 0 0-.21-.066c-.025-.007-.049-.011-.073-.017l-.073-.012c-.025-.004-.05-.005-.074-.008l-.037-.001h-.037c-.025-.001-.05.002-.074.003l-.016.003-.01-.012-.431-.512.006.006-.27-.162a.027.027 0 1 1 .029-.046l.27.162.003.002.003.003.431.513-.026-.01c.026-.006.052-.013.078-.017l.04-.006.04-.004c.026-.002.053-.005.08-.005h.08a1.675 1.675 0 0 1 .318.04.077.077 0 1 1-.047.146zM3.052 3.744a4.873 4.873 0 0 0-.422-.005 1.644 1.644 0 0 0-.084.006l-.04.005a.423.423 0 0 0-.041.006l-.02.004-.018.006c-.014.003-.022.008-.033.013l.008-.01a2.091 2.091 0 0 1-.212.339l-.025.03-.027.031-.028.03a.4.4 0 0 1-.03.028l-.031.026-.034.025-.002.001-.202.108a.027.027 0 0 1-.025-.047l.202-.108-.003.001.03-.022.03-.024a.365.365 0 0 0 .027-.027c.008-.009.018-.017.026-.027l.026-.029.024-.03a1.4 1.4 0 0 0 .13-.192c.027-.045.053-.09.075-.137l.003-.006.006-.004c.014-.009.03-.02.043-.024l.022-.01.022-.006a.478.478 0 0 1 .043-.013l.043-.01a1.695 1.695 0 0 1 .172-.03c.114-.015.229-.026.345-.033a.068.068 0 1 1 0 .135zM3.12 4.04l-.313.644.002-.011.014.471v.009l-.005.007-.067.107a.027.027 0 1 1-.046-.028l.068-.108-.004.015-.014-.472V4.67l.002-.007.226-.678a.074.074 0 1 1 .137.056z"/><path d="M3.984 3.703c0 .328-.593.701-.593.701s-.593-.373-.593-.7a.593.593 0 0 1 1.186 0z" style="fill:#b71c1c;fill-rule:nonzero"/><path d="M3.66 2.901a.27.27 0 1 1-.539 0 .27.27 0 0 1 .54 0z" style="fill:#7d0e0e;fill-rule:nonzero"/><path class="fil6" d="m3.335 2.368-.01.012a.093.093 0 0 0-.009.013c-.003.005-.007.01-.01.018a.149.149 0 0 0-.01.022c-.004.008-.005.017-.008.026-.002.009-.004.018-.004.028-.002.01 0 .02 0 .03 0 .009 0 .019.003.028l.008.027.01.023a.135.135 0 0 0 .012.02l.012.015a.082.082 0 0 0 .01.01l.01.01.001.001a.027.027 0 1 1-.04.037l-.01-.013a.117.117 0 0 1-.011-.015l-.012-.02a.182.182 0 0 1-.012-.027l-.01-.03-.005-.033v-.034c0-.011.001-.022.004-.033l.008-.032c.005-.01.008-.02.013-.028a.198.198 0 0 1 .04-.054l.01-.01a.007.007 0 0 1 .01 0 .007.007 0 0 1 0 .01zM3.458 2.36l.01.01a.197.197 0 0 1 .04.053l.011.028c.003.01.007.02.009.032.003.01.003.022.004.033v.034c-.001.012-.004.023-.006.033-.003.01-.005.021-.01.03a.177.177 0 0 1-.01.026l-.013.021a729.456 729.456 0 0 0-.021.028.027.027 0 1 1-.04-.037l.001-.001.01-.01a.084.084 0 0 0 .01-.01l.011-.015a.133.133 0 0 0 .012-.02l.01-.023c.003-.009.007-.018.008-.027.003-.01.003-.019.005-.029v-.029l-.005-.028-.008-.026a.147.147 0 0 0-.01-.022l-.01-.018a.093.093 0 0 0-.01-.013l-.009-.012a.007.007 0 0 1 .01-.009z"/><path class="fil7" d="m3.27 3.312-.02.026a.212.212 0 0 0-.021.03.338.338 0 0 0-.046.09c-.008.018-.012.038-.018.058-.004.021-.009.042-.01.065-.002.022 0 .044 0 .066.002.022.003.044.009.065.003.021.011.041.017.06.008.02.014.038.024.054a.306.306 0 0 0 .027.044c.009.014.018.025.027.035a10.494 10.494 0 0 0 .044.045l.003.003a.061.061 0 1 1-.09.083l-.023-.029a.265.265 0 0 1-.025-.034.412.412 0 0 1-.055-.106c-.01-.02-.015-.044-.022-.068-.004-.024-.01-.049-.012-.074-.003-.026-.002-.052-.002-.078.003-.026.005-.052.01-.076.005-.025.013-.049.02-.072.01-.022.017-.044.028-.062a.45.45 0 0 1 .089-.123l.023-.023a.016.016 0 0 1 .023 0 .016.016 0 0 1 0 .02zM3.55 3.29s.008.01.023.024a.445.445 0 0 1 .09.123c.01.018.017.04.027.062.007.023.015.047.02.072.005.024.007.05.01.076 0 .026.001.052-.002.078-.002.025-.008.05-.012.074-.007.024-.012.048-.022.068a.401.401 0 0 1-.026.059l-.029.047a.276.276 0 0 1-.024.034l-.024.029a.061.061 0 1 1-.09-.083l.004-.003.02-.02a.19.19 0 0 0 .023-.025c.009-.01.018-.021.027-.035a.302.302 0 0 0 .027-.044c.01-.016.016-.035.024-.053.006-.02.014-.04.017-.06.006-.022.007-.044.01-.066 0-.022.001-.044-.001-.066-.001-.022-.006-.044-.01-.065-.006-.02-.01-.04-.018-.058a.334.334 0 0 0-.022-.05c-.008-.016-.016-.029-.024-.04a90.311 90.311 0 0 0-.042-.056.016.016 0 0 1 .024-.021z"/><path class="fil7" d="m3.33 3.437-.01.014a.113.113 0 0 0-.012.016l-.012.02a.18.18 0 0 0-.012.028l-.01.03-.005.035v.035c.001.012.002.024.005.035.001.011.006.022.009.032.004.01.007.02.013.029l.014.023.014.018a6.524 6.524 0 0 0 .023.024l.002.002a.033.033 0 1 1-.048.044l-.012-.015a.14.14 0 0 1-.013-.018l-.015-.025a.22.22 0 0 1-.014-.031c-.005-.012-.008-.024-.012-.037-.002-.013-.006-.026-.006-.04-.002-.013-.001-.027-.001-.04.001-.014.002-.028.005-.041.002-.014.007-.026.01-.038l.015-.034.017-.028a.239.239 0 0 1 .03-.037l.013-.012a.008.008 0 0 1 .012 0 .008.008 0 0 1 0 .01zM3.479 3.426l.012.012a.237.237 0 0 1 .048.065c.006.01.01.022.015.034.003.012.008.024.01.038.003.013.004.027.005.04v.042c-.001.013-.005.026-.007.04-.004.012-.006.024-.011.036a.213.213 0 0 1-.015.03c-.004.01-.01.018-.015.026a.146.146 0 0 1-.013.018l-.012.015a.033.033 0 1 1-.048-.044l.002-.002.01-.01a.102.102 0 0 0 .013-.014c.004-.005.01-.01.014-.018a.16.16 0 0 0 .014-.023c.006-.009.009-.019.013-.029.003-.01.008-.02.01-.032l.005-.035-.001-.035c0-.012-.003-.023-.005-.034-.003-.01-.005-.022-.01-.031a.177.177 0 0 0-.012-.027l-.012-.021a.113.113 0 0 0-.012-.016l-.01-.014a.008.008 0 0 1 .012-.011z"/><circle class="fil8" cx="3.264" cy="2.821" r=".044"/><circle class="fil9" cx="3.264" cy="2.821" r=".019"/><circle class="fil8" cx="3.518" cy="2.821" r=".044"/><circle class="fil9" cx="3.518" cy="2.821" r=".019"/></g></svg>