<svg xmlns="http://www.w3.org/2000/svg" xml:space="preserve" width="655.359" height="655.359" style="shape-rendering:geometricPrecision;text-rendering:geometricPrecision;image-rendering:optimizeQuality;fill-rule:evenodd;clip-rule:evenodd" viewBox="0 0 6.827 6.827"><defs><clipPath id="id0"><path d="M3.413 0a3.413 3.413 0 1 1 0 6.827 3.413 3.413 0 0 1 0-6.827z"/></clipPath><style>.fil5{fill:#43a4d8}.fil1{fill:#7e57c2}.fil8{fill:#ff9100}.fil4{fill:#ffab40}</style></defs><g id="Layer_x0020_1"><path d="M3.413 0a3.413 3.413 0 1 1 0 6.827 3.413 3.413 0 0 1 0-6.827z" style="fill:#9575cd"/><g style="clip-path:url(#id0)"><g id="_637659256"><path id="_4421311041" class="fil1" d="m3.818 4.53 3.786 3.786h-.001L3.817 4.528z"/><path id="_442131392" class="fil1" d="m5.23 2.533 3.787 3.786.003.005.004.005-3.786-3.786-.004-.005z"/><path id="_442132184" class="fil1" d="M5.238 2.543 9.024 6.33l.003.006.002.005.002.005.002.006.002.005v.006l.001.006v.023l-.002.005-.001.006-.002.006-.002.005-.003.005L5.24 2.632l.003-.005.002-.006.002-.005.001-.006.001-.005.001-.006v-.023l-.002-.006-.001-.005-.002-.006-.002-.005-.002-.006z"/><path id="_442133000" class="fil1" d="m5.24 2.632 3.786 3.786v.002h-.001v.001L5.238 2.636v-.001h.001v-.001z"/><path id="_442132544" class="fil1" d="m3.227 1.575 3.786 3.787.01.012.011.012.011.013.011.013.011.013.012.014.011.014.012.015.012.015.012.015.012.016.012.016.012.016.012.017.013.017.012.017.013.018.013.018.013.018.013.018.013.02.014.018.013.02.013.02.014.02.013.02.014.02.014.021.014.021.014.021.014.022.014.021-3.787-3.786-.014-.022-.014-.021-.014-.021-.013-.021-.014-.021L3.545 2l-.013-.02-.014-.02-.013-.02-.014-.02-.013-.02-.013-.018-.013-.018-.013-.019-.013-.018-.013-.017-.012-.018-.013-.017-.012-.016-.013-.017-.012-.016-.012-.015-.012-.016-.011-.015-.012-.014-.011-.014-.012-.014-.011-.014-.011-.013-.01-.012-.012-.013z"/><path id="_442132496" class="fil1" d="m4.488 3.67 3.786 3.787.018.035.017.035.017.036.017.035.017.035.016.035.016.035.017.035.016.034.015.035.016.034.015.034.016.034.015.034.014.034.015.033.014.033.014.033.014.033.014.033.014.032.013.033.013.031.013.032.012.032.013.03.012.032.012.03.011.03.012.03.01.03.011.03-3.786-3.786-.01-.03-.012-.03-.011-.03-.012-.03-.011-.03-.013-.031-.012-.032-.012-.031-.013-.032-.013-.032-.014-.032-.013-.032-.014-.033-.014-.033-.014-.033-.014-.033-.015-.034-.015-.033-.015-.034-.015-.034-.015-.034-.016-.035-.016-.034-.016-.035-.016-.034-.016-.035-.017-.035-.016-.035-.017-.036-.017-.035-.017-.035z"/><path id="_442132784" class="fil1" d="m4.947 4.728 3.786 3.786.006.017-3.786-3.787z"/><path id="_442132976" class="fil1" d="M4.953 4.744 8.74 8.531l.002.006.002.006v.006l.002.006v.012l-.001.006-.001.006-.001.006-.002.006-.002.006-.003.005-.003.005-.003.006-.004.005-.004.004-3.786-3.786.004-.005.003-.005.004-.005.003-.005.002-.006.003-.005.001-.006.002-.006v-.006l.001-.006V4.762l-.001-.006-.002-.006z"/><path id="_442133096" class="fil1" d="M4.935 4.836 8.72 8.622l-.003.003-.002.003-.003.002-.003.002-.003.002-.002.002-.003.002-.003.002-.003.001-.003.001-.003.002h-.003l-.003.002H8.68l-.003.002h-.003l-.006.002h-.02l-.005-.001-.006-.001-.005-.001L4.846 4.86l.005.002h.005l.005.002h.021l.005-.002h.004l.003-.001.003-.001.004-.001.003-.002h.003l.003-.002.003-.002.003-.001.002-.002.003-.002.003-.002.003-.002.002-.003.003-.002z"/><path id="_442133696" class="fil1" d="m4.846 4.86 3.786 3.787-.006-.002-3.787-3.786z"/><path id="_442133888" class="fil1" d="m4.84 4.859 3.786 3.786-.197-.058-3.786-3.786z"/><path id="_442133480" class="fil1" d="m4.643 4.8 3.786 3.787-.018-.005-.018-.005-.018-.006-.018-.005-.018-.005-.017-.005-.018-.006-.018-.005-.018-.005-.017-.006-.018-.005-.018-.005-.018-.006-.018-.005-.018-.006-.018-.006-.018-.005-.018-.006-.018-.006-.019-.006-.018-.006-.02-.006-.018-.006-.019-.006-.02-.006-.019-.007-.02-.006-.02-.007-.02-.007-.02-.007-.02-.007-.02-.007-3.787-3.786.02.007.021.007.02.007.02.007.02.006.02.007.02.006.019.007.019.006.019.006.018.006.019.006.018.006.019.006.018.005.018.006.018.006.018.005.018.006.018.005.018.006.017.005.018.005.018.006.018.005.017.005.018.005.018.006.018.005.018.005.018.006z"/><path id="_442133624" class="fil1" d="M4.05 4.614 7.834 8.4l-.231-.084-3.786-3.787z"/><path id="_442133816" class="fil1" d="m3.818 4.53 3.786 3.786h-.001L3.817 4.528z"/><path id="_442133216" class="fil1" d="m3.817 4.529 3.786 3.786-.11-.042-3.785-3.786z"/><path id="_442133240" class="fil1" d="m2.681 4.025 3.787 3.787-.043-.022-.042-.022-.042-.022-.041-.022-.041-.022-.04-.022-.04-.022-.04-.022-.038-.022-.038-.022-.037-.022-.037-.022-.036-.021-.036-.022-.035-.022-.034-.021-.033-.021-.033-.021-.033-.021-.031-.021-.031-.02-.03-.021-.03-.02-.028-.02-.028-.02-.027-.02-.026-.02-.026-.019-.025-.019-.023-.019-.024-.018-.022-.018-3.786-3.786.022.018.023.018.024.019.025.019.025.019.027.02.027.019.028.02.028.02.03.02.03.02.03.021.032.021.032.021.033.021.034.022.034.021.035.022.036.021.036.022.037.022.037.022.038.022.039.021.039.022.04.022.04.023.04.022.042.022.041.022.043.021z"/><path id="_442133384" class="fil1" d="m2.797 5.26 3.786 3.786-.006.004-.005.004-.006.003-.006.003-.006.002-.006.002-.006.001h-.007l-.006.001h-.012l-.006-.001-.006-.001-.006-.002-.006-.002-.005-.002-.006-.003-.005-.003-.005-.004-.005-.003-3.786-3.787.005.004.005.004.005.003.005.002.006.003.006.002.006.001.006.002h.006l.006.001h.012l.006-.001.006-.001.007-.002.006-.002.006-.003.005-.003.006-.004z"/><path id="_442133792" class="fil1" d="m1.612 3.358 3.786 3.786-.005-.005-3.786-3.786z"/><path id="_442133744" class="fil1" d="m3.708 4.487 3.786 3.786-.034.032-.033.031-.032.03-.033.03-.032.03-.032.028-.031.028-.031.028-.031.027-.03.026-.03.026-.03.026-.03.025-.029.024-.029.025L7 8.712l-.029.024-.028.022-.027.023-.027.022-.027.022-.027.021-.027.022-.026.02-.026.021-.025.02-.025.02-.025.02-.025.02-.024.02-.024.018-.024.02L2.797 5.26l.023-.019.025-.02.024-.019.025-.02.024-.019.026-.02.025-.02.026-.02.026-.022.027-.02.026-.022.027-.022.028-.022.027-.023.028-.023.028-.023.029-.024.029-.024.029-.024.03-.025.03-.026.03-.026.03-.026.03-.027.032-.028.031-.028.032-.029.032-.029.032-.03.033-.03.033-.031z"/><path id="_442134656" class="fil1" d="m3.628 2.127 3.787 3.786.01.016.01.016.01.015.01.016.01.016.01.015.01.016.01.016.01.016.01.016.01.016.009.016.01.016.01.016.01.016.01.016.01.016.009.017.01.016.01.017.01.016.01.017.01.017.01.016.01.017.01.017.01.017.01.017.01.018.01.017.01.017.01.018L3.946 2.65l-.01-.018-.01-.017-.01-.018-.01-.017-.01-.017-.01-.017-.01-.017-.01-.017-.01-.017-.01-.016-.01-.017-.01-.017-.01-.016-.01-.016-.01-.017-.009-.016-.01-.016-.01-.016-.01-.016-.01-.017-.01-.016-.01-.015-.009-.016-.01-.016-.01-.016-.01-.016-.01-.016-.01-.015-.01-.016-.01-.016-.01-.015z"/><path id="_442134584" class="fil1" d="m5.238 2.635 3.787 3.787-.014.025-.015.026-.015.026-.016.027-.016.028-.017.028-.018.029-.019.029-.019.03-.02.03-.02.03-.021.032-.022.031-.022.032-.023.033-.024.033-.024.033-.024.033-.025.034-.026.035-.027.034-.026.035-.028.035-.028.035-.028.036-.03.036-.029.036-.03.037-.03.036-.031.037-.032.037-.032.037L4.488 3.67l.032-.037.032-.037.03-.036.031-.037.03-.036.03-.036.029-.036.028-.036.028-.035.027-.035.027-.035.027-.035.025-.034.026-.034.024-.033.024-.034.024-.032.023-.033.022-.032.022-.032.02-.03.021-.031.02-.03.019-.03.019-.03.017-.028.018-.028.016-.028.016-.027.015-.027.015-.025z"/><path id="_637659232" class="fil1" d="m3.818 4.53-.001-.001zM5.157 2.5c.033 0 .063.013.08.043a.09.09 0 0 1 .001.092c-.143.266-.407.64-.75 1.035.186.38.345.745.46 1.058l.005.016a.09.09 0 0 1-.018.092.085.085 0 0 1-.048.026.085.085 0 0 1-.041-.002l-.007-.001-.196-.058c-.193-.057-.371-.11-.594-.187l-.231-.085h-.001l-.11-.042c-.358.342-.658.571-.91.773a.092.092 0 0 1-.149-.07c-.01-.288-.004-.682.033-1.165a6.217 6.217 0 0 1-1.069-.667.098.098 0 0 1 .027-.168c.252-.095.684-.208 1.167-.315.075-.522.171-1 .268-1.267a.091.091 0 0 1 .153-.033c.112.125.251.32.401.552.108.167.21.336.318.524.469-.08.895-.138 1.166-.149l.045-.001z"/></g></g><path d="M3.413 0a3.413 3.413 0 1 1 0 6.827 3.413 3.413 0 0 1 0-6.827z" style="fill:none"/><path d="M3.07 1.607a.093.093 0 0 1 .156-.03c.19.21.46.618.726 1.074.5-.085.951-.144 1.222-.15a.093.093 0 0 1 .083.137c-.145.266-.411.638-.757 1.032.216.434.369.797.468 1.068a.093.093 0 0 1-.113.12c-.312-.091-.68-.19-1.144-.371-.363.342-.666.57-.921.773a.093.093 0 0 1-.15-.07c-.01-.288-.004-.682.033-1.165a6.31 6.31 0 0 1-1.081-.667.098.098 0 0 1 .027-.168c.255-.094.691-.208 1.18-.315.076-.522.173-1 .271-1.268z" style="fill:#ef6c00"/><path class="fil4" d="M3.479 2.682a.117.117 0 1 1-.23.044.117.117 0 0 1 .23-.044zM3.387 2.39a.082.082 0 1 1-.161.032.082.082 0 0 1 .161-.032zM3.305 2.121a.053.053 0 1 1-.104.02.053.053 0 0 1 .104-.02zM3.938 3.338a.132.132 0 1 1-.143-.22.132.132 0 0 1 .143.22zM4.234 3.156a.117.117 0 1 1-.126-.196.117.117 0 0 1 .126.196zM4.48 2.993a.082.082 0 1 1-.09-.138.082.082 0 0 1 .09.138zM4.709 2.838a.053.053 0 1 1-.058-.09.053.053 0 0 1 .058.09zM4 4.05a.117.117 0 1 1 .144-.184A.117.117 0 0 1 4 4.05zM4.233 4.228a.082.082 0 1 1 .102-.129.082.082 0 0 1-.102.13zM3.07 4.102a.117.117 0 1 1 .216.088.117.117 0 0 1-.216-.088zM2.962 4.375a.082.082 0 1 1 .152.062.082.082 0 0 1-.152-.062zM2.73 3.468a.117.117 0 1 0 .045-.23.117.117 0 0 0-.045.23zM2.439 3.39a.082.082 0 1 0 .03-.162.082.082 0 0 0-.03.162zM2.168 3.331a.053.053 0 1 0 .02-.104.053.053 0 0 0-.02.104z"/><path class="fil5" d="M4.905 4.862h-.001a.089.089 0 0 1-.042-.002l-.006-.001a.093.093 0 0 0 .115-.115.089.089 0 0 1-.066.118zm.027-.222z"/><path class="fil4" d="M3.902 4.559a9.178 9.178 0 0 0 0 0z"/><path class="fil5" d="M4.056 4.614a9.092 9.092 0 0 0 0 0z"/><path d="M5.259 2.635a.093.093 0 0 0-.085-.134 9.26 9.26 0 0 1 .006 0 .09.09 0 0 1 .08.131l-.001.003z" style="fill:#55b0db"/><path class="fil4" d="M4.064 2.632zM4.064 2.632l-.112.019.112-.019zm-.154-.053v-.001z"/><path d="M4.899 4.86a.093.093 0 0 1-.043-.001c-.23-.068-.492-.14-.8-.245a9.475 9.475 0 0 1-.345-.127l-.174-.896a.157.157 0 1 0-.06-.309l-.023-.117a.131.131 0 1 0-.05-.258l-.017-.089a.117.117 0 0 0-.045-.229l-.02-.102a.082.082 0 1 0-.031-.161l-.028-.142a.053.053 0 1 0-.02-.105l-.092-.475a.04.04 0 0 1 .053-.045c.008.005.015.01.02.016.181.2.433.576.685 1.003h.001v.001l.042.072.112-.019a9.36 9.36 0 0 1 1.11-.131.093.093 0 0 1 .085.134c-.145.266-.412.64-.759 1.035l.07.14a10.99 10.99 0 0 1 .399.929.093.093 0 0 1-.07.122zm-.63-.777a.082.082 0 1 0 .032.161.082.082 0 0 0-.033-.16zm-.22-.24A.116.116 0 0 0 4 4.05a.116.116 0 1 0 .05-.206zm-.262-.247a.131.131 0 1 0 .05.258.131.131 0 0 0-.05-.258zm.055-.497a.132.132 0 0 0 .05.258.132.132 0 0 0 .085-.2.131.131 0 0 0-.135-.058zm.307-.156a.117.117 0 1 0 .044.23.117.117 0 0 0-.044-.23zm.27-.1a.082.082 0 1 0 .032.161.082.082 0 0 0-.032-.16zm.25-.103a.054.054 0 0 0-.034.082.053.053 0 1 0 .034-.082z" style="fill:#e65100"/><path class="fil4" d="m3.387 2.818-.045-.229a.117.117 0 0 1 .045.23zM3.322 2.487l-.031-.161a.082.082 0 1 1 .031.16zM3.263 2.184l-.02-.105a.053.053 0 1 1 .02.105z"/><path class="fil8" d="M3.902 3.408a.183.183 0 1 1-.07-.36.183.183 0 0 1 .07.36z"/><path class="fil4" d="M3.892 3.357a.132.132 0 1 1-.05-.259.132.132 0 0 1 .05.259zM4.193 3.172a.117.117 0 1 1-.044-.229.117.117 0 0 1 .044.23zM4.45 3.005a.082.082 0 1 1-.03-.161.082.082 0 0 1 .03.16zM4.69 2.845a.053.053 0 1 1-.02-.105.053.053 0 0 1 .02.105zM4.094 4.072a.116.116 0 1 1-.045-.228.116.116 0 0 1 .045.228zM4.3 4.244a.082.082 0 1 1-.032-.16.082.082 0 0 1 .032.16z"/><path class="fil8" d="M3.71 3.397a.207.207 0 1 1-.406.08.207.207 0 0 1 .406-.08zM3.6 3.003a.174.174 0 1 1-.342.066.174.174 0 0 1 .342-.066zM3.502 3.799a.174.174 0 1 1-.342.066.174.174 0 0 1 .342-.066z"/><path class="fil8" d="M3.984 3.691a.174.174 0 1 1-.343.067.174.174 0 0 1 .343-.067zM3.27 3.363a.174.174 0 1 1-.343.067.174.174 0 0 1 .343-.067z"/><path class="fil4" d="M3.661 3.407a.157.157 0 1 1-.309.06.157.157 0 0 1 .31-.06zM3.558 3.01a.131.131 0 1 1-.258.051.131.131 0 0 1 .258-.05zM3.074 3.526a.131.131 0 1 0 .05-.258.131.131 0 0 0-.05.258zM3.21 3.782a.131.131 0 1 1 .243.1.131.131 0 0 1-.244-.1zM3.731 3.828a.131.131 0 1 1 .163-.207.131.131 0 0 1-.163.207z"/><path class="fil4" d="M3.838 3.854a.131.131 0 1 1-.05-.258.131.131 0 0 1 .05.258z"/></g></svg>