<svg xmlns="http://www.w3.org/2000/svg" xml:space="preserve" width="655.359" height="655.359" style="shape-rendering:geometricPrecision;text-rendering:geometricPrecision;image-rendering:optimizeQuality;fill-rule:evenodd;clip-rule:evenodd" viewBox="0 0 6.827 6.827"><defs><clipPath id="id0"><path d="M3.413 0a3.413 3.413 0 1 1 0 6.827 3.413 3.413 0 0 1 0-6.827z"/></clipPath><style>.str0{stroke:#424242;stroke-width:.0333346;stroke-linecap:round;stroke-linejoin:round}.fil10{fill:#424242}.fil7{fill:#466016}.fil8{fill:#7ca72a}.fil9{fill:#aed581}.fil1{fill:#e7c633}.fil11{fill:#e8f5e9}.fil4,.fil6{fill:#33691e;fill-rule:nonzero}.fil6{fill:#7ca72a}</style></defs><g id="Layer_x0020_1"><path d="M3.413 0a3.413 3.413 0 1 1 0 6.827 3.413 3.413 0 0 1 0-6.827z" style="fill:#fdd835"/><g style="clip-path:url(#id0)"><g id="_637664560"><path id="_2161320561" class="fil1" d="M3.83 1.934 7.615 5.72l.003.009.004.009.003.009.004.008.003.01.003.008.003.009.003.009.003.009.003.008.002.009.003.009.002.008.002.009.002.009.002.008.002.008.002.009.002.008.001.008.002.009.001.008.001.008.002.008v.008l.001.007.001.008v.008l.001.007v.055l-.002.016-.003.016-.003.015-.003.016-.005.015-.004.015-.006.015-.006.015-.006.014-.007.014-.008.013-.008.014-.009.013-.009.013-.01.012-.01.012-.01.012-.01.011-.012.011-.012.011-.012.01-.012.01-.013.01-.013.009-.014.008-.013.009-.014.007-.015.008-.014.007-.015.006L3.612 2.59l.015-.007.015-.006.014-.008.014-.008.014-.008.014-.009.013-.009.013-.01.012-.009.012-.01.012-.011.011-.011.01-.011.011-.012.01-.012.01-.013.009-.012.009-.013.008-.014.007-.013.007-.014.007-.015.006-.014.005-.015.005-.015.004-.015.004-.016.003-.016.002-.016.002-.016.001-.016V2.17l-.001-.007v-.008l-.002-.008V2.14l-.002-.007-.001-.009-.001-.008-.002-.008-.001-.008-.002-.008-.002-.009-.002-.008-.002-.009-.002-.008-.002-.009-.003-.009-.002-.008-.003-.009-.002-.009-.003-.009-.003-.008-.003-.01-.003-.008-.004-.009-.003-.009-.003-.009-.004-.009z"/><path id="_216132320" class="fil1" d="m4.627 2.54 3.786 3.786.004.004.003.004-3.786-3.786-.003-.004z"/><path id="_216137888" class="fil1" d="m3.63 1.64 3.786 3.786L3.63 1.64z"/><path id="_216138368" class="fil1" d="M4.407 3.373 8.193 7.16 4.407 3.374z"/><path id="_216138608" class="fil1" d="M4.407 3.373 8.193 7.16l.004.01.003.01.004.01.003.01.003.01.004.01.003.01.003.01.003.011.003.01.003.01.002.01.003.011.003.01.002.01.003.011.002.01.003.01.002.011.002.01.002.011.002.01.002.011.002.01.002.011.002.01.002.011.002.01.001.011.002.01.001.011.002.011-3.787-3.786-.001-.01-.002-.011-.001-.011-.002-.01-.001-.011-.002-.01-.002-.011-.002-.01-.002-.011-.002-.01-.002-.011-.002-.01-.002-.011-.003-.01-.002-.01-.003-.011-.002-.01-.003-.01-.002-.011-.003-.01-.003-.01-.003-.011-.003-.01-.003-.01-.003-.01-.003-.01-.003-.011-.003-.01-.003-.01-.004-.01-.003-.01z"/><path id="_216138032" class="fil1" d="m3.681 1.691 3.787 3.786.006.007.006.007.006.007.005.008.006.007.006.007.006.008.005.008-3.786-3.787-.006-.007-.005-.008-.006-.007-.006-.008-.006-.007-.006-.007-.006-.007z"/><path id="_216138056" class="fil1" d="M3.024 2.655 6.811 6.44 3.024 2.655z"/><path id="_216138512" class="fil1" d="m4.487 4.142 3.786 3.786-3.787-3.786z"/><path id="_216138560" class="fil1" d="m4.486 4.142 3.787 3.786v.004l-.001.004-.001.004v.004l-.001.004v.004l-.001.004v.004l-.001.004-.001.004v.004l-.001.004v.004l-.002.004v.008L4.476 4.206v-.004l.001-.004v-.004l.001-.004.001-.004v-.004l.001-.004v-.004l.001-.004.001-.004v-.004l.001-.004v-.004l.001-.004v-.004z"/><path id="_216138224" class="fil1" d="m4.477 4.206 3.786 3.786-.001.007-.001.008-.002.007-.001.007-.002.008-.001.007-.002.008-.001.007-.002.008-.001.007-.002.008-.002.007-.001.008-.002.007-.002.008-.002.007-.002.008-.002.007-.002.008-.002.007-.002.008-.002.007-.002.007-.002.008-.002.007-.002.007-.002.008-.003.007-.002.007-.002.007-.002.007-.003.007-3.786-3.786.002-.007.003-.007.002-.007.002-.007.002-.008.003-.007.002-.007.002-.007.002-.008.002-.007.002-.008.002-.007.002-.008.002-.007.002-.007.002-.008.002-.007.002-.008.001-.007.002-.008.002-.008.001-.007.002-.008.002-.007.001-.008.002-.007.001-.007.002-.008.001-.007.001-.008.002-.007z"/><path id="_216138104" class="fil1" d="M2.235 2.534 6.021 6.32l.003.003.003.003.003.004.003.004.002.005.003.004.002.004.003.005.002.005L2.259 2.57l-.003-.004-.002-.005-.003-.004-.002-.005-.003-.004-.002-.004-.003-.004-.003-.003z"/><path id="_216138128" class="fil1" d="M4.219 4.834 8.005 8.62l-.004.005-.003.005-.004.005-.004.005-.003.005-.004.004-.004.005-.004.005L4.19 4.873l.004-.005.004-.005.003-.005.004-.005.004-.004.003-.005.004-.005z"/><path id="_216138248" class="fil1" d="M4.634 5.256 8.42 9.042l-.003.004-.003.004-.003.003-.003.003-.002.003-.003.003-.003.002-.003.001L4.611 5.28l.003-.002.002-.002.003-.002.003-.003.003-.003.003-.003.003-.004z"/><path id="_216138344" class="fil1" d="m4.61 5.279 3.787 3.786H8.39l-.003-.001-.002-.002-.003-.002-3.787-3.786.003.002.003.002.003.001h.005z"/><path id="_216139400" class="fil1" d="m4.381 4.942 3.786 3.786-.007-.007-.008-.007-.008-.007-.009-.007-.008-.007-.01-.006-.008-.006-.01-.007-.009-.006-.01-.006-.01-.006-.01-.005-.01-.006-.011-.006-.012-.006-.011-.005-.012-.006-3.787-3.786.012.006.012.005.011.006.011.006.01.005.011.006.01.006.01.006.01.006.009.006.009.007.008.006.009.007.008.006.008.007.008.007z"/><path id="_216139112" class="fil1" d="M4.677 5.115 8.463 8.9V8.915l-.001.005v.005l-.001.004v.005l-.002.005v.005l-.001.005-.002.004v.005l-.002.005-.001.005-.001.004-.002.005-.001.005-.002.004-.001.005-.002.004L8.442 9l-.001.004-.002.004-.002.004-.002.004-.002.004-.002.004-.002.004-.002.004-.002.003-.003.004-.002.003-3.786-3.786.002-.003.002-.004.003-.003.002-.004.002-.004.002-.004.002-.004.002-.004.002-.004.001-.004.002-.005.002-.004.001-.005.002-.004.002-.005.001-.004.001-.005.002-.005.001-.004.001-.005.001-.005.001-.005.001-.004.001-.005v-.005l.002-.005V5.134l.001-.005v-.01z"/><path id="_216139448" class="fil1" d="m4.19 4.873 3.785 3.786-.043.052-3.786-3.786z"/><path id="_216138800" class="fil1" d="M2.604 4.835 6.39 8.62l.002.003-3.786-3.787z"/><path id="_216138872" class="fil1" d="m2.606 4.837 3.786 3.787-.005.002-.005.002-.005.003-.005.002-.005.003-.005.003-.005.002-.006.003-.005.003-.005.003-.006.003-.005.003-.006.003-.005.004-.006.003-.005.003-.005.004-.006.003-.005.004-.006.003-.005.004-.005.004-.005.004-.005.004-.006.004-.005.004-.004.004-.005.004-.005.004-.005.004-.004.005-.005.004-3.786-3.786.005-.005.004-.004.005-.004.004-.004.005-.005.005-.004.005-.004.005-.004.005-.004.006-.003.005-.004.005-.004.005-.004.006-.003.005-.004.006-.003.005-.003.006-.004.005-.003.005-.003.006-.003.005-.003.006-.003.005-.003.005-.003.006-.003.005-.002.005-.003.005-.002.005-.003.005-.002z"/><path id="_216138752" class="fil1" d="M2.405 4.444 6.19 8.23l.001.004-3.786-3.787z"/><path id="_216138896" class="fil1" d="m2.336 4.143 3.786 3.786-3.786-3.786z"/><path id="_216139232" class="fil1" d="m2.441 4.946 3.786 3.786-.007.007-.007.008-.007.008-.006.008-.007.008-.007.008-.006.008-.007.009-.006.008-.006.01-.006.008-.006.01-.006.008-.006.01-.006.009-.005.009-.006.01-.005.009-.006.01-.005.009-.005.01-.006.01-.005.009-.005.01-.005.009-.005.01-.005.009-.004.01-.005.01L6.054 9l-.005.01-.004.01-3.786-3.787.004-.01.005-.009.005-.01.004-.009.005-.01.005-.009.005-.01.005-.009.005-.01.005-.01.005-.009.006-.01.005-.009.005-.01.006-.009.005-.01.006-.009.006-.009.006-.009.006-.01.006-.008.006-.009.006-.009.006-.008L2.394 5l.006-.008.007-.009.006-.008.007-.008.007-.007.007-.008z"/><path id="_216138968" class="fil1" d="M2.259 5.234 6.045 9.02l-.002.005-.003.004-.002.005-.002.003-.002.004-.003.003-.002.004-.002.002-.002.003-.002.002-.002.003-.002.002-.002.001-.002.002-.002.001-.002.001L2.225 5.28l.002-.001.002-.002.001-.001.002-.002.002-.002.002-.002.003-.002.002-.003.002-.003.002-.003.002-.003.002-.004.003-.004.002-.004.002-.004z"/><path id="_216139256" class="fil1" d="M2.225 5.279 6.01 9.065l-.004.001h-.004l-.004-.003-.005-.003-3.786-3.787.004.004.005.002h.004z"/><path id="_216140216" class="fil1" d="m3.779 5.2 3.786 3.787-.018.008-.018.007-.018.007-.018.007-.019.006-.018.006-.018.005-.019.005-.018.005-.019.004-.018.004-.019.003-.019.003-.018.002-.019.003-.019.001-.018.002h-.02l-.018.001H7.157l-.019-.002-.018-.001-.02-.002-.018-.003-.02-.002-.018-.003-.019-.004-.019-.004-.019-.004-.019-.005-.02-.006-.022-.006-.02-.007-.02-.007-.021-.008-.02-.008-.02-.009-.02-.01-.02-.009-.02-.01-.018-.01-.02-.012-.018-.011-.018-.012-.018-.012-.018-.013-.018-.013-.018-.013-.017-.014-.017-.014-.016-.014-3.787-3.786.017.014.017.014.017.014.018.013.017.013.018.013.019.012.018.012.019.011.019.011.019.01.019.01.02.01.02.01.02.009.02.008.02.008.02.007.021.007.021.006.021.006.019.005.019.004.019.004.019.003.019.003.018.003.02.002.018.002.02.002h.018l.019.002H3.446l.02-.002.018-.001.019-.002.018-.002.02-.002.018-.003.018-.004.019-.003.019-.005.018-.004.018-.005.019-.005.018-.006.018-.006.019-.007.018-.007.018-.007z"/><path id="_216139688" class="fil1" d="M2.344 3.649 6.13 7.435 2.344 3.65z"/><path id="_216139640" class="fil1" d="M2.415 3.374 6.2 7.16l-.001.003-3.786-3.786z"/><path id="_216139736" class="fil1" d="M4.146 4.925 7.932 8.71l-.01.01-.009.011-.01.01-.01.011-.01.01-.01.01-.01.01-.01.01-.011.01-.011.01-.011.01-.011.01-.011.009-.012.009-.01.009-.012.009-.012.009-.012.008-.012.008-.012.009-.012.008-.012.008-.012.007-.012.008-.013.007-.013.007-.012.007-.013.007-.013.007-.013.006-.013.006-.013.006L3.78 5.201l.013-.006.013-.006.013-.007.013-.006.013-.007.012-.007.013-.007.012-.007.013-.008.012-.008.012-.007.012-.009.012-.008.012-.008.012-.009.011-.008.012-.01L4 5.066l.011-.01.012-.009.01-.01.011-.009.011-.01.01-.01.011-.01.01-.01.011-.01.01-.01.01-.01.01-.01.01-.011z"/><path id="_216139592" class="fil1" d="m2.259 2.57 3.786 3.787.005.009.004.01.005.009.005.01.004.009.005.01.005.009.005.01.005.01.005.009.006.01.005.009.005.01.006.009.005.01.006.009.005.01.006.009.006.009.006.009.006.009.006.009.006.009.006.008.007.009.006.008.007.008.007.008.006.008.007.008.007.008.007.007L2.441 2.86l-.007-.008-.007-.007-.007-.008-.007-.008-.006-.008-.007-.008-.006-.009-.007-.008-.006-.009-.006-.009-.006-.008-.006-.01-.006-.009-.006-.009-.006-.009-.006-.01-.005-.009-.006-.01-.005-.009-.005-.01-.006-.009-.005-.01-.005-.01-.005-.009-.005-.01-.005-.009-.005-.01-.005-.01-.004-.009-.005-.009-.005-.01z"/><path id="_216139808" class="fil1" d="m2.441 2.859 3.786 3.786.006.005-3.787-3.786z"/><path id="_216139856" class="fil1" d="m4.42 4.438 3.786 3.787.008.014.008.015.009.017.01.017.01.019.01.019.01.02.01.02.011.022.01.022.012.022.01.023.012.023.01.024.011.024.01.023.01.024.01.025.01.024.009.024.009.023.008.024.007.023.007.023.006.022.006.022.004.022.004.02.003.02.002.02.001.018v.018L4.677 5.115v-.018l-.001-.018-.002-.02-.003-.02-.004-.02-.005-.022-.005-.022-.006-.022-.007-.023-.008-.023-.008-.024-.008-.024-.01-.024-.009-.024-.01-.024-.01-.024-.01-.024-.01-.023-.012-.024-.01-.023-.011-.023-.011-.022-.011-.022-.011-.022-.01-.02-.01-.02-.011-.02-.01-.018-.01-.017-.008-.017-.009-.015z"/><path id="_216140144" class="fil1" d="m3.21 2.59 3.786 3.786-.015-.006-.015-.007-.014-.008-.014-.007-.014-.009-.013-.008-.013-.01-.013-.009-.013-.01-.012-.01-.011-.01-.012-.012-3.786-3.786.011.011.012.01.012.011.013.01.012.01.013.008.014.01.014.007.014.008.014.008.015.006z"/><path id="_216140120" class="fil1" d="M4.487 3.705 8.273 7.49l.002.014.001.014.002.014.001.014.001.014.001.014.001.014.001.013.001.014v.013l.001.014v.013l.001.014v.107l-.001.013v.014l-.002.013v.014l-.002.013v.014l-.002.014-.001.014-.002.014-.001.014-.002.014-3.786-3.786.001-.014.002-.014.001-.014.002-.014v-.014l.002-.014.001-.014.001-.013v-.014l.002-.013v-.027l.001-.014v-.107l-.001-.013-.001-.014v-.013l-.002-.014V3.79l-.002-.014-.001-.014-.002-.014-.001-.014-.002-.014z"/><path id="_216140000" class="fil1" d="M4.634 2.548 8.42 6.334l.002.004.003.003.002.004.002.004.002.004.002.003.002.004.002.005.002.004.002.004.001.004.002.005.002.004.001.005.002.004.001.005.002.005.001.004.001.005.001.005.002.005v.004l.001.005.001.005.001.005v.005l.001.004.001.005v.01l.001.005v.004L4.677 2.69v-.014l-.001-.005v-.005l-.001-.005-.001-.005v-.004l-.002-.005v-.005l-.002-.005v-.005l-.002-.004-.001-.005-.002-.005-.001-.004-.001-.005-.002-.005L4.66 2.6l-.001-.005-.002-.004-.002-.004-.001-.005-.002-.004-.002-.004-.002-.004-.002-.004-.002-.004-.002-.003-.003-.004-.002-.003z"/><path id="_216140048" class="fil1" d="m3.728 1.75 3.786 3.786.003.003.002.003.002.004.003.003.002.004.002.003.003.003.002.004-3.786-3.786-.003-.004-.002-.003-.002-.004-.003-.003-.002-.004-.002-.003-.003-.003z"/><path id="_216141008" class="fil1" d="m3.779 1.802 3.786 3.786.003.004.004.004.003.005.003.004.004.005.003.005.003.004.002.005.003.006.002.005.003.005.002.006.002.005.002.006.002.006.002.006.001.006.002.006.001.006.001.007V5.7l.002.007V5.72L3.83 1.934V1.92l-.001-.006-.001-.006-.001-.007-.002-.006v-.006l-.002-.006-.002-.006-.002-.006-.002-.006-.002-.006-.002-.005-.003-.005-.002-.006-.003-.005-.003-.005-.003-.005-.003-.005-.003-.004-.003-.005-.003-.004-.004-.004z"/><path id="_216140504" class="fil1" d="m4.125 2.899 3.787 3.786.006.007.007.008.007.007.006.007.006.008.007.007.006.007.006.008.005.007.006.007.006.008-3.787-3.787-.005-.007-.006-.007-.006-.008-.006-.007-.006-.007-.006-.008-.006-.007-.007-.007-.006-.008-.007-.007z"/><path id="_216140528" class="fil1" d="m4.677 2.69 3.786 3.786v.038l-.003.02-.003.02-.005.022-.005.023-.005.023-.007.023-.008.024-.008.024-.008.025-.01.024-.009.025-.01.025-.01.025-.011.025-.011.025-.011.024-.011.025-.012.023-.011.024-.011.023-.012.022-.01.021-.011.021-.01.02-.01.02-.01.017-.01.017-.009.016-.008.015-.007.013L4.41 3.382l.008-.013.008-.015.009-.016.01-.017.009-.018.01-.02.01-.02.011-.02.011-.021.011-.023.012-.023.011-.023.011-.024.012-.024.01-.024.012-.025.01-.025.01-.025.01-.025.01-.025.01-.025.008-.024.008-.024.008-.024.006-.024.006-.023.005-.022.004-.022.004-.02.002-.02.001-.02z"/><path id="_637664680" class="fil1" d="M3.974 2.762c.077.057.161.14.22.217a.643.643 0 0 0 .192-.12 1.11 1.11 0 0 0 .182-.289c.013-.025.024-.04.034-.044.01-.005.025.012.032.022a.283.283 0 0 1 .043.142c.006.19-.19.556-.267.692l-.003-.009c.038.108.065.219.08.332.018.152.018.285 0 .437a1.62 1.62 0 0 1-.068.3v-.004c.082.147.264.494.258.677a.282.282 0 0 1-.043.141.07.07 0 0 1-.023.023c-.014.006-.031-.021-.043-.045a2.322 2.322 0 0 0-.08-.151.536.536 0 0 0-.27-.247v-.002l-.029.039-.043.052c-.1.114-.227.214-.367.276a.89.89 0 0 1-.597.049 1.06 1.06 0 0 1-.563-.395l-.015-.02.002.002a.587.587 0 0 0-.165.109c-.076.077-.134.189-.182.288-.013.026-.024.04-.034.045-.01.005-.024-.012-.032-.023a.278.278 0 0 1-.043-.141c-.006-.18.171-.522.255-.671v.003a1.708 1.708 0 0 1-.07-.304 1.747 1.747 0 0 1 0-.439h.001l.008-.055c.015-.092.04-.188.07-.275v.003c-.078-.138-.264-.489-.264-.678a.28.28 0 0 1 .043-.15.07.07 0 0 1 .023-.023c.014-.006.03.02.043.044.048.1.105.211.182.289a.639.639 0 0 0 .189.119c.102-.134.243-.252.394-.323a.922.922 0 0 1 .186-.065.43.43 0 0 1-.28-.39.7.7 0 0 1 .05-.235v-.02c0-.085.043-.157.1-.177l.014-.019a.648.648 0 0 1 .098-.109l.056-.042a.285.285 0 0 1 .326 0l.056.042a.648.648 0 0 1 .117.137c.046.026.079.085.082.157.04.094.062.19.062.265a.43.43 0 0 1-.279.39 1.013 1.013 0 0 1 .362.172z"/></g></g><path d="M3.413 0a3.413 3.413 0 1 1 0 6.827 3.413 3.413 0 0 1 0-6.827z" style="fill:none"/><path d="M3.41 1.547c.125 0 .237.086.321.202a.859.859 0 0 1 .166.45c0 .12-.055.228-.145.306a.518.518 0 0 1-.341.125.518.518 0 0 1-.342-.125.406.406 0 0 1-.144-.305c0-.127.064-.312.165-.45.085-.117.196-.203.32-.203z" style="fill:#5d8016;fill-rule:nonzero"/><path class="fil4" d="M3.19 1.64a.462.462 0 0 1 .056-.042c.01.007.018.019.018.033a.038.038 0 0 1-.038.038.038.038 0 0 1-.037-.029zM3.576 1.598c.02.012.038.026.057.042a.038.038 0 0 1-.037.03.038.038 0 0 1-.038-.04c0-.013.007-.025.018-.032z"/><path d="M3.41 2.567c.307 0 .583.153.783.4.197.245.32.584.32.956 0 .373-.123.711-.32.956-.2.248-.476.401-.782.401-.306 0-.582-.153-.782-.4a1.526 1.526 0 0 1-.32-.957c0-.372.122-.71.32-.956.2-.247.476-.4.782-.4z" style="fill:#2d440a;fill-rule:nonzero"/><path class="fil6" d="m2.6 3.005.029-.038a1.11 1.11 0 0 1 .39-.312v.19l-.172.103-.172.102-.075-.045zM3.769 2.64a1.099 1.099 0 0 1 .44.349l-.095.057-.172-.102-.173-.102V2.64zM3.41 2.567c.116 0 .226.021.33.061v.212l-.172.102-.173.102-.172-.102-.173-.102V2.64a.916.916 0 0 1 .36-.074zM3.012 5.188a1.113 1.113 0 0 1-.402-.333l.057-.033.172.102.173.102v.162zM4.198 4.873l-.005.006a1.104 1.104 0 0 1-.41.322v-.166l.172-.102.173-.101.07.041zM3.74 5.219a.914.914 0 0 1-.69-.014v-.177l.172-.102.172-.102.173.102.172.102v.19zM2.592 4.83a1.489 1.489 0 0 1-.26-.632l.149.084.179.102v.408l-.068.039zM2.323 4.143a1.676 1.676 0 0 1 0-.439l.355-.188.18.102.178.102V4.127l-.179.102-.179.102-.18-.102-.175-.086zM2.332 3.649c.039-.234.126-.445.249-.618l.075.04V3.486l-.194.094-.13.069zM4.23 3.015c.129.176.22.395.26.636l-.154-.08-.193-.103V3.061l.087-.046zM4.489 4.206c-.04.234-.13.446-.255.619l-.073-.039v-.408l.193-.101.135-.071zM4.498 3.705a1.676 1.676 0 0 1 0 .437l-.165.087-.193.102-.194-.102-.193-.102V3.72l.193-.102.194-.102.193.102.165.087z"/><path class="fil7" d="M2.402 3.377a1.41 1.41 0 0 1 .219-.4.644.644 0 0 1-.19-.118.717.717 0 0 1-.104-.138 2.21 2.21 0 0 1-.081-.15c-.013-.026-.025-.04-.035-.045a.01.01 0 0 0-.009 0 .068.068 0 0 0-.023.022.28.28 0 0 0-.044.142c-.005.187.188.547.267.687zM2.597 4.838a1.429 1.429 0 0 1-.204-.394c-.084.15-.263.49-.258.67a.28.28 0 0 0 .044.142c.008.011.016.02.023.023a.01.01 0 0 0 .01 0c.01-.005.02-.019.034-.045a2.21 2.21 0 0 1 .08-.151.717.717 0 0 1 .104-.137.602.602 0 0 1 .167-.108zM4.226 4.836a.609.609 0 0 1 .17.11c.04.039.074.086.104.137.03.048.056.1.081.151.013.026.024.04.035.045a.01.01 0 0 0 .008 0 .068.068 0 0 0 .023-.023.28.28 0 0 0 .044-.141c.006-.183-.178-.53-.26-.677a1.43 1.43 0 0 1-.205.398zM4.422 3.382c.077-.136.275-.503.27-.692a.28.28 0 0 0-.045-.142.068.068 0 0 0-.023-.022.01.01 0 0 0-.008 0c-.01.005-.022.019-.035.044a2.21 2.21 0 0 1-.08.151.717.717 0 0 1-.104.138.65.65 0 0 1-.195.12c.092.116.166.253.22.403z"/><path class="fil8" d="m3.036 2.873.172.102.173.101v.408l-.328.19-.362-.19v-.408l.172-.101zM3.756 2.873l-.17.102-.17.101v.408l.17.102.153.09.188-.09.17-.102v-.408l-.17-.101zM3.036 4.175l.172.102.173.101v.408l-.173.102-.172.102-.173-.102-.172-.102v-.408l.172-.101zM3.765 4.175l-.175.102-.175.101v.408l.175.102.175.102.174-.102.175-.102v-.408l-.175-.101z"/><path class="fil6" d="M3.088 4.143a1.91 1.91 0 0 1 0-.439l.311-.188.157.102.157.102V4.127l-.157.102-.157.102-.157-.102-.154-.086z"/><ellipse class="fil9 str0" cx="3.11" cy="1.946" rx=".136" ry=".183"/><ellipse class="fil9 str0" cx="3.698" cy="1.946" rx=".136" ry=".183"/><ellipse class="fil10" cx="3.159" cy="1.909" rx=".073" ry=".099"/><ellipse class="fil10" cx="3.649" cy="1.909" rx=".073" ry=".099"/><ellipse class="fil11" cx="3.175" cy="1.943" rx=".027" ry=".036"/><ellipse class="fil11" cx="3.634" cy="1.943" rx=".027" ry=".036"/></g></svg>