<svg xmlns="http://www.w3.org/2000/svg" xml:space="preserve" width="655.359" height="655.359" style="shape-rendering:geometricPrecision;text-rendering:geometricPrecision;image-rendering:optimizeQuality;fill-rule:evenodd;clip-rule:evenodd" viewBox="0 0 6.827 6.827"><defs><clipPath id="id0"><path d="M3.413 0a3.413 3.413 0 1 1 0 6.827 3.413 3.413 0 0 1 0-6.827z"/></clipPath><style>.fil5{fill:#212121}.fil3{fill:#ad7b3e}.fil1{fill:#c0ca33}.fil6{fill:#c79252}.fil9{fill:#fafafa;fill-rule:nonzero}</style></defs><g id="Layer_x0020_1"><path d="M3.413 0a3.413 3.413 0 1 1 0 6.827 3.413 3.413 0 0 1 0-6.827z" style="fill:#dce775"/><g style="clip-path:url(#id0)"><g id="_637656760"><path id="_6573886801" class="fil1" d="M3.724 2.77 7.51 6.558l-.002-.002-3.786-3.786z"/><path id="_657388464" class="fil1" d="m4.35 3.109 3.786 3.786.008.009.008.009.007.008.007.01.008.008.007.01.007.009.007.009.007.01.007.01.008.01.007.01.008.01.008.012.009.011.009.012.01.012.009.012.01.013-3.786-3.786-.01-.013-.01-.012-.01-.012-.008-.012-.009-.012-.008-.01-.008-.011-.007-.01-.008-.01-.007-.01-.007-.01-.007-.01-.008-.009-.007-.01-.007-.008-.007-.009-.008-.009-.007-.008z"/><path id="_657390528" class="fil1" d="M4.5 3.303 8.288 7.09l.01.013.011.012-3.786-3.787-.01-.012z"/><path id="_657390432" class="fil1" d="M5.28 3.524 9.066 7.31l-.022.033-3.787-3.787z"/><path id="_657390816" class="fil1" d="m3.997 3.19 3.786 3.787.003.008.002.008.002.01.003.008.003.01.002.01.003.01.004.01.003.011.003.011.003.012.004.011.003.012.004.012.004.012.003.012.004.012.004.013.004.012.004.013.003.012.004.012.004.013.004.012.003.012.004.012.004.012.003.011.004.012.003.011.004.011.003.01.005.014.004.01.005.008.005.005-3.786-3.786-.005-.005-.005-.007-.005-.01-.004-.015-.004-.01-.003-.011-.003-.011-.004-.012-.004-.012-.003-.011-.004-.012-.004-.013-.003-.012-.004-.012-.004-.012-.004-.013-.003-.012-.004-.013-.004-.012-.004-.012-.004-.012-.003-.012-.004-.012-.003-.012-.004-.011-.003-.012-.004-.01-.003-.012-.003-.01-.003-.01-.003-.01-.002-.01-.003-.01-.002-.008-.003-.008z"/><path id="_657390696" class="fil1" d="m4.087 3.258 3.786 3.787-.007-.007-.007-.007-.007-.007-.007-.007-.008-.006-.007-.006L7.823 7l-.008-.005-.008-.005-.008-.005-.008-.004-.008-.004-3.786-3.786.008.004.008.004.008.004.008.005.007.005.008.006.007.006.008.006.007.007.007.006.007.007z"/><path id="_657391296" class="fil1" d="m4.528 3.878 3.786 3.786-.003-.003-3.787-3.786z"/><path id="_657391536" class="fil1" d="m5.257 3.556 3.787 3.787-.014.017-.015.018L9 7.396l-.018.02-.018.02-.019.02-.02.022-.021.02-.022.022-.022.02-.024.021-.023.02-.025.02-.024.019-.026.018-.025.017-.026.015-.026.015-.026.013-.026.01-.027.01-.026.008-.026.006-.026.003h-.05l-.025-.005-.024-.007-.024-.01-.023-.013-.022-.016-.022-.02-3.786-3.786.021.02.023.016.023.013.024.01.024.007.025.004.025.002.025-.001.026-.004.026-.005.026-.008.026-.01.026-.01.027-.014.026-.014.025-.016.026-.016.025-.018.025-.02.024-.019.024-.02.023-.02.023-.021.022-.021.02-.021.02-.021.02-.021.018-.02.017-.02.016-.019.015-.018z"/><path id="_657391248" class="fil1" d="m4.02 3.8 3.785 3.786-.003-.003-.005-.004-.004-.003-.005-.004-.006-.003-.006-.004-.007-.003-.007-.004-.008-.004-3.786-3.786.008.004.007.003.007.004.006.003.005.004.006.003.004.004.004.003z"/><path id="_657391584" class="fil1" d="m3.968 3.768 3.786 3.786-.012-.005-.01-.005-.01-.004-.01-.004-.01-.004-.008-.003-.008-.003-.008-.002-.007-.003-.007-.002-.006-.002-.006-.002-.006-.001-.006-.002-.005-.002-.006-.002-.006-.002-.005-.002-.006-.002-.005-.002-.006-.003-.006-.002-.007-.004-.006-.003-.007-.004-.007-.004-.008-.005-.008-.005-.01-.005-.009-.006-.01-.007-.01-.008-3.787-3.786.011.008.01.006.01.006.008.006.008.005.008.005.008.004.007.004.006.003.006.003.007.003.005.003.006.002.006.002.005.002.006.002.005.002.006.001.006.002.006.002.006.002.006.002.007.002.007.003.008.002.008.003.008.003.01.004.009.004.01.004.011.005z"/><path id="_657391656" class="fil1" d="M4.195 3.608 7.98 7.394l.004.005.003.006.003.006.003.008.003.009.002.01.001.011.001.013.001.014V7.53L8 7.549 8 7.572l-.002.025-.003.027-.003.029-.004.03-.005.034-.005.036-.005.038-.007.041L4.18 4.046l.006-.04.006-.04.005-.035.005-.033.003-.031.004-.03.002-.026.003-.025.001-.023.001-.02.001-.02v-.047l-.002-.013-.002-.011-.002-.01-.002-.01-.003-.007-.003-.007-.003-.005z"/><path id="_657391272" class="fil1" d="m3.726 3.658 3.787 3.786-.01.029-3.786-3.786z"/><path id="_657391728" class="fil1" d="M3.396 3.493 7.182 7.28l-.006.004-.007.005-.007.005-.008.004-.007.004-.009.004-.008.004-.01.004-.009.003-.01.003-.01.003-.01.003-.011.003-.011.002-.012.003-.012.002-.012.002-.012.001-.013.002h-.013l-.014.002h-.014l-.014.001H6.87l-.016-.001-.016-.002h-.016l-.016-.002-3.786-3.787.016.002.016.001.016.001.016.001h.015l.015.001H3.171l.014-.001.013-.001.013-.002.013-.001.013-.002.012-.002.012-.002.011-.002.012-.002.01-.003.011-.003.01-.003.01-.003.01-.004.008-.003.01-.004.007-.004.008-.004.008-.005.007-.004.006-.005z"/><path id="_657391776" class="fil1" d="m3.717 3.687 3.787 3.786v.002l-.002.001v.004l-.001.002v.002l-.001.002v.001l-.001.002v.005l-.001.002V7.537l.001.005v.006l.002.006v.007l.001.007.001.007.001.008.001.009.001.009v.006l.001.007v.014l-.002.008-.002.007-.002.007-.002.008-.003.007-.003.008-.003.007-.004.008-.004.008-.005.007-.004.008-.005.008-.005.008-.006.008-.006.008-.005.008-.006.008-.007.008-.006.008-.007.008-.006.008-.007.008-.007.008-.007.009-.007.008-.007.008-.007.008-.007.008-3.786-3.786.007-.008.007-.008.007-.009.007-.008.007-.008.007-.008.006-.008.007-.008.007-.008.006-.008.006-.008.006-.008.006-.008.006-.008.005-.008.005-.008.005-.008.005-.008.004-.008.005-.007.003-.008.004-.008.003-.007.003-.008.002-.007.002-.007.002-.008v-.007l.002-.007v-.014l-.001-.007-.001-.009-.001-.008-.001-.008-.001-.007-.001-.007v-.007l-.001-.006-.001-.006v-.011l-.001-.004v-.038l.001-.002V3.7l.001-.002v-.001l.001-.002v-.002l.001-.002v-.002z"/><path id="_657391824" class="fil1" d="m2.796 3.597 3.786 3.786-.003.001-.003.002-.004.001-.003.001-.004.002H6.56l-.005.001-.004.001-.005.001h-.005l-.004.001h-.005l-.005.001h-.005l-.005.001H6.46l-.004-.001h-.005l-.002-.001-3.786-3.786h.007l.003.001h.015l.005.001h.043l.005-.001h.01l.005-.002h.01l.004-.002h.004l.005-.002h.003l.004-.002.004-.001.003-.002z"/><path id="_657391128" class="fil1" d="m2.665 3.608 3.786 3.786h-.003L2.662 3.608z"/><path id="_657391224" class="fil1" d="m4.18 4.046 3.785 3.786v.008l-.002.008-.002.007-.002.007-.002.006-.002.006-.002.005-.002.005-.003.005-.002.005-.003.004-.003.004-.003.004-.003.004-.003.003-.003.003-.003.003-.003.003-.004.003-.003.003-.004.003-.004.002-.004.003-.003.003-.004.002-.004.003-.004.003-.004.003-.005.003-.004.003-.004.003-.004.004-.003.002-.003.001-.005.002-.004.002-.006.001-.006.001-.006.002h-.007l-.007.002h-.007l-.008.001h-.008l-.008.001H7.74l-.003-.002h-.003l-.003-.001-.002-.002h-.002l-.002-.002-.002-.002-.002-.002-3.787-3.786.002.002.002.001.002.002.002.001.003.001.002.001.003.001h.004l.004.001h.004l.005.001H4.011l.008-.001h.007l.008-.002h.007l.007-.002h.006l.006-.002.005-.002.005-.001.004-.002.004-.002.002-.001.005-.004.004-.003.004-.003.004-.003.004-.003.004-.003.004-.003.004-.003.004-.002.004-.003.004-.003.003-.002.004-.003.003-.003.004-.003.003-.003.003-.003.003-.004.003-.003.003-.004.003-.004.002-.005.003-.004.002-.005.003-.005.002-.006.002-.005.002-.007.002-.006.001-.007.002-.008z"/><path id="_657392568" class="fil1" d="m2.662 3.608 3.786 3.786V7.408l-.001.005v.004l-.001.005v.005l-.001.004v.005l-.001.004-.001.005v.004l-.002.004v.004l-.002.004-.001.003-3.786-3.786v-.003l.002-.004.001-.004v-.004l.002-.005v-.004l.001-.004v-.005l.001-.005v-.004l.001-.005V3.622l.001-.005v-.005z"/><path id="_657392160" class="fil1" d="M2.322 3.403 6.108 7.19l-.003-.001-.004-.002-.003-.001-.004-.001-.004-.002-.003-.001-.004-.002-.004-.001-3.786-3.786.003.001.004.001.004.002.004.001.003.002.004.001.003.002z"/><path id="_657392256" class="fil1" d="m2.44 3.527 3.787 3.786-.006-.002-.005-.003-.004-.003-3.786-3.786.004.003.005.003z"/><path id="_657391920" class="fil1" d="m2.358 3.43 3.786 3.786-.006-.006-.007-.006-.007-.005-.008-.005-.008-.005-3.786-3.786.008.005.007.005.008.005.006.006z"/><path id="_657392352" class="fil1" d="M2.452 3.533 6.238 7.32l-.005-.004-.006-.003L2.44 3.527l.007.002z"/><path id="_657392592" class="fil1" d="m2.026 3.396 3.787 3.786-.004-.002-.003-.002-.004-.001-.004-.002h-.004l-.005-.001-.005-.001h-.032l-.006.001-.006.001-.006.001L1.948 3.39l.006-.001h.006l.006-.002h.037l.004.001.005.001.004.001.004.002.003.002z"/><path id="_657391944" class="fil1" d="M2.06 4.143 5.847 7.93l-.004-.001-3.786-3.786z"/><path id="_657392040" class="fil1" d="m2.057 4.143 3.786 3.786-3.787-3.786z"/><path id="_657392424" class="fil1" d="m2.06 4.145 3.786 3.786-.006-.003-.005-.003-.005-.004-.004-.003L2.039 4.13l.005.004.005.004.005.003z"/><path id="_657392472" class="fil1" d="m2.293 3.392 3.786 3.786h-.004l-.003-.002h-.008l-.004-.001h-.008l-.004-.001H6.017l-.004.001h-.005l-.005.001H6l-.005.001h-.005l-.004.001H5.98l-.005.001-.004.001h-.005l-.005.002h-.004l-.005.001h-.005l-.004.002h-.005l-.01.002-.01.001-.009.002-.009.001-.009.001-.009.001h-.008l-.008.001h-.023l-.007-.002-.006-.002-.006-.002-.006-.002-.005-.004-3.787-3.786.006.003.005.003.006.002.007.002h.007l.007.002h.024l.008-.001.009-.001.009-.001.01-.001.009-.002.01-.001.01-.002h.004l.004-.001.005-.001.004-.001h.005l.005-.001.004-.001h.005l.005-.001.004-.001h.005l.005-.001h.004l.005-.001h.005l.004-.001H2.235l.005-.001H2.278l.004.001.003.001h.004z"/><path id="_657393264" class="fil1" d="m1.948 3.39 3.786 3.786-.005.001-.006.001-.005.002h-.005l-.006.002-.005.002-.005.001-.006.002-.005.001-.006.002-.005.002-.005.002-.005.001-.005.002-.006.002-.005.002-.005.002-.005.002-.004.002-.005.002-.005.002-.005.002-.004.002-.004.002-.005.002-.004.002-.004.002-.004.002-.004.002-.003.002-.004.001-.003.002-.004.002-.004.002-.004.002-.004.001-.004.002-.005.001-.004.002h-.004l-.005.002H5.534l-.005.001H5.508l-.004-.002h-.005l-.004-.001-.004-.001-.004-.001-.004-.002h-.005l-.004-.002-.004-.002-.004-.002-.004-.001-.004-.002-.004-.002-.004-.002-.004-.002-.004-.002-.004-.002-.004-.002-.004-.002-.004-.002-.004-.002-.004-.003-.004-.002-.004-.002-.003-.002-.004-.002-.004-.003-.004-.002-.003-.002-.004-.002-.004-.002-.003-.002-.007-.004-.005-.003-.005-.003-.005-.003-.004-.003-.004-.003-3.786-3.787.004.003.004.004.004.003.006.003.005.003.006.003.004.003.004.002.003.002.004.002.004.002.004.002.003.003.004.002.004.002.004.002.004.002.004.003.004.002.004.002.003.002.004.002.004.002.004.002.004.002.005.002.004.002.004.001.004.002.004.001.004.002.004.001.004.001.005.001.004.002h.004l.004.001h.005l.005.001H1.757l.004-.002h.005l.004-.002.004-.001.004-.002.005-.001.004-.002.004-.002.004-.002.003-.002.004-.002.003-.002.004-.001.004-.002.004-.002.004-.002.004-.002.005-.002.004-.002.005-.002.004-.002.005-.002.005-.002.005-.002.005-.002.005-.002.005-.002.005-.002.006-.002.005-.001.005-.002.006-.002.005-.002.005-.001.006-.002.005-.001.005-.001.006-.002h.005l.005-.002z"/><path id="_657392976" class="fil1" d="m2.652 3.678 3.786 3.786-.009.023-.01.021-.01.02-.01.02-.011.019-.012.017-.013.017-.013.016-.013.015-.013.015-.014.014-.014.013-.015.012-.014.013-.015.011-.014.011-.015.011-.014.01-.015.011-.014.01-.014.01-.014.01-.013.01-.013.01-.012.01-.012.01-.012.009-.011.01-.01.01-.01.011-.009.011-.008.012-.003.004-.004.005-.004.004-.004.005-.004.004-.005.003-.004.004-.005.004-.005.003-.005.003-.006.003-.005.002-.006.003-.005.002-.006.002-.006.002-.006.002h-.006l-.005.002-.006.001h-.006l-.006.001h-.024l-.005-.001h-.006l-.006-.002-.005-.002-.005-.001-.005-.002-.003-.001-.003-.001-.004-.001-.003-.001-.003-.001h-.004L5.85 7.93h-.003L2.06 4.143l.004.001h.004l.003.002h.004l.003.002h.003l.003.001.003.002.005.001.006.002.005.002h.006l.005.002h.012l.006.001h.017l.006-.001.006-.001.006-.001.006-.002.006-.001.006-.002.005-.002.006-.002.006-.003.005-.002.005-.003.006-.003.005-.004.004-.003.005-.004.005-.004.004-.004.004-.004.004-.004.003-.005.004-.005.008-.011.009-.011.01-.01.01-.011.01-.01.012-.01.012-.01.013-.01.013-.01.013-.01.014-.009.014-.01.014-.01.014-.01.015-.01.014-.012.015-.011.014-.012.015-.012.014-.012.014-.014.014-.013.014-.015.013-.015.013-.016.012-.017.012-.017.012-.019.01-.02.01-.02.01-.021z"/><path id="_657393000" class="fil1" d="m2.782 4.211 3.786 3.786-.01.002H6.524l-.008-.001-.008-.002-.007-.003-.008-.004-.006-.004-.007-.006-3.786-3.786.006.006.007.004.007.004.008.003.008.002h.008l.008.002H2.763l.01-.002z"/><path id="_657392712" class="fil1" d="M3.018 3.552 6.806 7.34h-.001l-.001.001-.001.002v.002l-.001.003v.003l-.001.004v.008l-.001.005v.077l-.001.008V7.47l-.001.01v.01l-.001.009v.01l-.001.01-.001.01-.001.01-.001.01-.001.007-.001.008-.001.008-.001.008v.007l-.002.008v.008l-.002.007v.008l-.001.008-.001.007-.001.008-.001.007-.001.007-.001.008-.001.007v.007l-.002.007v.007l-.002.007v.006l-.001.007-.001.006-.001.007-.001.006-.001.006-.001.006v.005l-.002.006v.005l-.002.005v.005l-.001.002-.001.003-.001.004-.002.005-.003.005-.002.007-.003.006-.004.008-.003.008-.004.008-.004.009-.005.009-.004.009-.005.01-.005.009-.005.01-.005.009-.005.009-.006.01-.005.008-.005.009-.005.008-.006.008-.005.008-.005.007-.005.006-.005.006-.004.005-.005.004-.004.003-.004.003-.004.001-.004.001-.004.001-.004.001-.005.001h-.004l-.004.002h-.004l-.004.002h-.004l-.004.001-.004.001h-.004l-.004.002h-.008l-.004.001-3.786-3.786h.004l.004-.001h.004l.003-.001.004-.001h.004l.005-.002h.004l.004-.002h.004l.004-.001.004-.001.004-.001.005-.001.004-.001.004-.001.004-.002.004-.002.004-.003.004-.004.005-.005.005-.006.005-.006.005-.007.005-.008.005-.008.006-.008.005-.009.005-.01.005-.008.006-.01.005-.01.005-.009.005-.01.004-.009.005-.009.004-.009.005-.008.003-.009.004-.007.003-.008.003-.007.003-.006.002-.005.002-.005.002-.004v-.003l.001-.002.001-.005.001-.005.001-.006v-.005l.002-.006V3.95l.002-.006v-.006l.001-.006.001-.006.001-.007.001-.007.001-.006v-.007l.002-.007v-.007l.002-.008V3.87l.001-.007.001-.008.001-.007.001-.008.001-.007.001-.008L3 3.817v-.008l.002-.008v-.008l.002-.008v-.007l.001-.008.001-.008.001-.01.001-.01.001-.01.001-.01v-.01l.001-.01v-.009l.001-.009v-.026l.001-.009v-.068l.001-.005V3.567l.001-.003V3.56l.001-.003v-.002l.002-.002v-.001z"/><path id="_657392832" class="fil1" d="m3.579 4.062 3.786 3.786-.004.005-.004.005-.004.004-.004.005-.004.004-.003.004-.004.004-.003.004-.003.003-.002.003-.003.003-.002.003-.003.003-.001.002-.002.002-.001.002-.006.008-.006.007-.006.007-.007.006-.007.006-.008.006-.007.005-.008.006-.008.004-.009.005-.008.004-.009.003-.008.003-.009.003-.009.003-.008.002-3.787-3.787.01-.002.008-.002.008-.003.01-.003.008-.004.008-.004.008-.004.009-.005.008-.005.007-.005.008-.006.007-.006.006-.007.007-.006.006-.008.005-.007.002-.002.001-.002.002-.002.002-.003.003-.003.002-.003.003-.003.003-.004.003-.003.004-.004.003-.004.004-.005.004-.004.003-.005.005-.004z"/><path id="_657393024" class="fil1" d="m3.408 4.195 3.787 3.787H7.19l-.005.001h-.004l-.005.002h-.004l-.005.002h-.005l-.005.001h-.006l-.005.001h-.005l-.005.001H7.12l-.005-.001-.007-.001-.007-.002-.007-.002-.006-.003-.006-.002-.005-.004-.005-.004-3.787-3.786.005.004.006.003.006.003.006.003.007.002.007.001.007.002H3.366l.005-.001h.005l.005-.002h.005l.005-.001.005-.001.004-.001.004-.001z"/><path id="_637657648" class="fil1" d="M2.018 2.62a3.9 3.9 0 0 1 .304.2c.017.006.034.01.051.013a.494.494 0 0 0 .174-.008c.582.008.715-.206 1.171-.056-.003-.004.003 0 .006.002l-.002-.002.034.013c.01.001.012 0 .037.013.135.05.279.104.413.194.164.111.183.174.295.314.106.133.315.212.528.23.035-.003.069.001.107.003.049 0 .097-.004.144-.012l-.023.032c-.136.175-.503.55-.73.322-.036-.037-.08-.104-.112-.153-.033-.05-.066-.096-.1-.142l-.004-.006a2.01 2.01 0 0 1-.11-.16c-.048-.078-.118-.188-.204-.226.022.081.074.245.108.357.012.042.026.043.038.043.066.004.107.006.036.455-.014.088-.052.092-.099.13-.011.01-.06.017-.1.017-.037 0-.039-.005-.052-.019a.053.053 0 0 1-.01-.013c-.037-.07.01-.121.076-.114.008.001.02-.014.02-.016.002-.008.02-.06.021-.089.003-.11.02-.135-.067-.174-.13-.059-.124-.027-.242-.11l-.009.029c-.007.02-.01.03.003.127.01.073-.066.161-.141.248l-.048.056a.204.204 0 0 1-.123.077c-.02.004-.051.012-.078.008-.039-.006-.07-.027-.059-.079a.083.083 0 0 1 .046-.058c.035-.021.05-.015.063-.023.017-.011.036-.03.057-.05l.054-.053c.032-.035.084-.121.072-.183-.02-.103-.127-.202-.167-.264-.064.053-.202.078-.378.06-.011.003 0 .1-.013.21-.01.082-.02.167-.029.219-.003.017-.09.207-.13.216a.757.757 0 0 1-.064.013c-.051.008-.093.002-.116-.062-.019-.051.03-.113.066-.127.024-.008.047-.017.057-.072.018-.09.013-.163.008-.245-.002-.024 0-.08-.001-.108-.03.017-.111.014-.133.01l.002.001h-.003c-.002.024-.004.052-.01.07-.089.247-.314.298-.396.421a.15.15 0 0 1-.169.052.177.177 0 0 0-.027-.008h-.003l.003.002c-.032-.016-.046-.04-.038-.076.011-.059.045-.071.109-.081.088-.015.037 0 .11-.07a.815.815 0 0 0 .118-.133.738.738 0 0 0 .065-.103l.027-.057c.01-.026.027-.086-.01-.098-.016-.005-.024-.016-.035-.035a.239.239 0 0 0-.084-.089.566.566 0 0 0-.03-.011.397.397 0 0 0-.14.007c-.053.009-.099.016-.126-.003-.016-.012-.045-.012-.078-.006a.587.587 0 0 0-.153.056.115.115 0 0 1-.073.014c-.046-.006-.089-.036-.128-.058-.017-.01-.028-.016-.035-.026a.046.046 0 0 1-.012-.031c0-.023.016-.041.038-.046a.309.309 0 0 0 .035-.032l.127-.142c.066-.072.137-.135.16-.16a1.601 1.601 0 0 1-.03-.06c-.01-.02-.061-.181.006-.15.02.009.07.042.117.074-.004-.034-.008-.093-.03-.2-.003-.018.023-.02.048-.009z"/></g></g><path d="M3.413 0a3.413 3.413 0 1 1 0 6.827 3.413 3.413 0 0 1 0-6.827z" style="fill:none"/><path class="fil3" d="m1.877 2.906.033.062s.08-.075.133-.069c.055.007.055-.001.055-.001s-.174-.124-.215-.143c-.067-.031-.017.13-.006.15z"/><path d="M2.547 2.825c.613.008.727-.23 1.246-.03a.54.54 0 0 0 .166.075c.068.007.12.13.18.16.058.03.114.074.173.138.216.33.634.485.968.356.004.007-.5.669-.775.329-.03-.037-.06-.081-.09-.128-.067-.101-.139-.192-.204-.294-.065-.103-.13-.203-.214-.24.014.051.041.14.07.235l.038.122c.012.042.026.043.038.043.066.004.107.006.036.455-.01.069-.037.087-.073.111a.363.363 0 0 0-.026.02c-.011.01-.06.016-.1.016-.037 0-.039-.005-.052-.019a.053.053 0 0 1-.01-.013c-.037-.07.01-.121.076-.114.008.001.02-.014.02-.016.002-.008.02-.06.021-.089.003-.11.02-.135-.067-.174-.13-.059-.124-.027-.242-.11a.333.333 0 0 1-.009.029c-.007.02-.01.03.003.127.01.073-.066.161-.141.248l-.048.056a.179.179 0 0 1-.113.072c-.021.003-.052.012-.079.007-.038-.006-.07-.026-.058-.078.01-.046.047-.065.086-.072.023-.003.049-.031.08-.059.025-.022.016-.019.044-.048.032-.035.084-.121.072-.183-.02-.103-.127-.202-.167-.264-.064.053-.202.078-.377.06-.012.003-.001.1-.014.21-.01.082-.02.167-.029.219a.934.934 0 0 1-.062.13c-.024.044-.05.082-.067.086a.757.757 0 0 1-.065.013c-.051.008-.093.002-.116-.062-.019-.051.03-.113.066-.127.024-.008.047-.017.057-.072.018-.09.013-.163.008-.245-.002-.024 0-.08-.001-.108-.03.017-.113.014-.134.01v.01a.255.255 0 0 1-.01.061c-.089.247-.314.298-.396.421a.138.138 0 0 1-.077.054.145.145 0 0 1-.092-.002.177.177 0 0 0-.027-.008c-.014-.003.013.009 0 .002-.034-.017-.052-.045-.032-.1.017-.043.06-.05.103-.057.088-.015.037 0 .11-.07a.815.815 0 0 0 .118-.133c.034-.042.155-.23.081-.258-.015-.005-.023-.016-.034-.035a.239.239 0 0 0-.084-.089.566.566 0 0 0-.03-.011.397.397 0 0 0-.14.007c-.053.009-.099.016-.126-.003-.016-.012-.045-.012-.078-.006a.587.587 0 0 0-.153.056.115.115 0 0 1-.073.014.269.269 0 0 1-.1-.042l-.028-.016c-.03-.016-.043-.024-.04-.056.001-.023.01-.03.028-.044a.316.316 0 0 0 .038-.035l.127-.142c.066-.072.137-.135.16-.16a.019.019 0 0 0 .003.003s.08-.075.133-.069c.055.007.055-.001.055-.001s-.03-.025-.083-.062c.003-.002.005-.004.006-.003 0-.002-.002-.006-.001-.011.002-.013-.013-.027-.015-.032-.006-.014.007-.032 0-.061-.007-.03-.042-.088-.025-.105.03-.033.196.105.232.135l.006.005c.048.039.1.06.155.069a.494.494 0 0 0 .174-.008z" style="fill:#d69f5c"/><path class="fil5" d="M1.595 3.298c.027 0 .052-.005.052.02 0 .026-.025.074-.052.074a.048.048 0 0 1-.048-.047c0-.026.021-.047.048-.047zM1.642 3.43c.028.015.05.024.07.028L1.69 3.44s.115-.106.13-.118c.015-.012.084-.04.084-.04-.082-.001-.164.101-.21.13a.097.097 0 0 1-.052.018z"/><path class="fil6" d="M2.454 3.536c.041.047-.064.21-.095.25a.815.815 0 0 1-.119.134c-.072.068-.021.053-.109.068-.043.007-.086.014-.103.058-.02.052-.003.08.028.097h.004l.027.008c.027.01.061.01.092.002a.138.138 0 0 0 .077-.054c.082-.123.307-.174.396-.42a.255.255 0 0 0 .01-.061v-.01h.003a.387.387 0 0 1-.198-.067c-.074-.05-.005-.002-.013-.005zM3.396 3.493c.04.062.147.161.167.264.012.062-.04.148-.072.183-.028.03-.029.031-.054.054-.03.027-.057.055-.08.059-.038.006-.076.025-.086.071-.011.052.02.073.059.079.027.004.058-.004.078-.008a.179.179 0 0 0 .114-.071l.047-.057c.076-.086.16-.18.151-.253-.013-.097-.01-.108-.003-.127a.334.334 0 0 0 .01-.029.472.472 0 0 1-.138-.175c-.103-.014-.124-.022-.193.01zM3.722 2.769c.02.014-.021-.015.004.006a.828.828 0 0 1 .272.416c.084.038.148.138.213.24.032.05.064.1.1.146.038.048.072.1.104.148.03.047.06.09.09.128.274.34.779-.322.775-.329-.282.045-.63-.034-.78-.22-.111-.141-.13-.204-.294-.315a1.886 1.886 0 0 0-.413-.194c-.042-.023-.021-.002-.071-.026z"/><path d="M4.972 3.632c.059.009-.062.273-.368.123.099.103.235.079.212.092a.373.373 0 0 1-.131.046.424.424 0 0 1-.157-.015c.278.28.755-.347.752-.354-.187.046-.254-.056-.426.092l.118.016z" style="fill:#3d2b16"/><path d="M2.007 2.862c.053.101.055.101.055.101s.127-.12.214-.11c.087.01.087-.003.087-.003s-.28-.2-.345-.23c-.025-.012-.051-.009-.048.008.032.156.025.21.037.234z" style="fill:#c48f4e"/><path class="fil3" d="m2.055 2.857.034.062s.079-.075.133-.069c.054.007.054-.001.054-.001s-.173-.124-.214-.143c-.068-.031-.017.131-.007.15z"/><path class="fil9" d="M2.031 3.096c0-.011.001-.019.008-.026-.015.01-.025.03-.025.03-.003.005 0 .005.004.009.006.006.007.009.008.017 0 .01.004.01.012.01l.015-.002c-.013-.006-.022-.02-.022-.038zM2.112 3.089c.002-.003.013-.011.017-.026l-.02.004h-.014c.006.008.004.02.003.03 0 .015-.014.029-.024.036a.083.083 0 0 0 .025-.014c.005-.004.022-.032.013-.03z"/><path d="M2.098 3.098c.001-.01.003-.023-.003-.03a.226.226 0 0 0-.025-.005.044.044 0 0 0-.031.007c-.007.007-.008.015-.008.026 0 .017.009.032.022.038h.01l.011-.001c.01-.007.021-.008.024-.035z" style="fill:#373435;fill-rule:nonzero"/><path d="M2.076 3.085c0 .009-.006.015-.013.015-.008 0-.014-.007-.014-.016 0-.008.007-.015.014-.015.008 0 .013.007.013.016z" style="fill:#fefefe;fill-rule:nonzero"/><path class="fil5" d="M2.18 3.064c-.075.05-.09-.015-.186.04-.006-.062.122-.042.156-.072a.026.026 0 0 1 .034.003.02.02 0 0 1-.003.03z"/></g></svg>